M48
; DRILL file {KiCad 7.0.11} date Thu Mar 28 06:20:27 2024
; FORMAT={-:-/ absolute / metric / decimal}
; #@! TF.CreationDate,2024-03-28T06:20:27-04:00
; #@! TF.GenerationSoftware,Kicad,Pcbnew,7.0.11
; #@! TF.FileFunction,Plated,1,2,PTH
FMAT,2
METRIC
; #@! TA.AperFunction,Plated,PTH,ViaDrill
T1C0.400
; #@! TA.AperFunction,Plated,PTH,ComponentDrill
T2C0.991
; #@! TA.AperFunction,Plated,PTH,ComponentDrill
T3C1.460
; #@! TA.AperFunction,Plated,PTH,ComponentDrill
T4C6.756
%
G90
G05
T1
X100.725Y-80.8
X100.87Y-90.985
X100.949Y-104.801
X101.0Y-99.65
X101.554Y-84.021
X101.69Y-82.511
X102.011Y-86.06
X102.941Y-77.458
X103.117Y-78.443
X103.22Y-72.245
X103.275Y-105.55
X104.375Y-89.05
X104.54Y-113.28
X104.825Y-85.7
X105.975Y-85.72
X106.225Y-83.18
X107.53Y-113.1
X107.75Y-85.02
X110.23Y-102.31
X110.94Y-88.91
X111.4Y-77.65
X111.55Y-111.279
X111.625Y-102.31
X111.7Y-100.61
X112.1Y-75.425
X112.725Y-90.875
X112.75Y-88.7
X113.25Y-81.925
X113.3Y-67.625
X113.325Y-75.475
X113.35Y-106.44
X113.35Y-109.02
X113.9Y-83.575
X114.34Y-110.14
X114.35Y-80.38
X114.46Y-89.08
X114.46Y-102.2
X114.543Y-75.407
X114.7Y-67.64
X116.35Y-110.11
X116.438Y-103.288
X117.2Y-98.55
X117.225Y-101.675
X117.37Y-86.3
X117.43Y-110.14
X117.575Y-65.61
X117.675Y-71.375
X118.325Y-68.8
X118.47Y-87.69
X118.57Y-110.17
X118.75Y-127.3
X118.75Y-130.9
X118.76Y-103.06
X118.78Y-58.59
X118.78Y-62.28
X119.59Y-86.125
X119.67Y-110.18
X119.891Y-118.991
X120.79Y-110.17
X121.93Y-110.17
X121.98Y-118.67
X122.1Y-75.85
X122.17Y-72.43
X122.73Y-113.56
X122.747Y-114.69
X122.749Y-115.82
X122.756Y-116.82
X122.76Y-112.52
X122.771Y-117.82
X122.925Y-120.45
X123.13Y-67.64
X123.42Y-73.73
X124.025Y-71.5
X124.419Y-73.782
X125.2Y-71.5
X125.534Y-130.4
X125.84Y-114.0
X128.001Y-60.144
X128.25Y-114.91
X128.67Y-132.52
X128.69Y-128.07
X128.76Y-60.795
X129.091Y-63.565
X129.125Y-73.8
X129.249Y-114.963
X129.552Y-128.577
X129.785Y-64.99
X129.9Y-132.125
X130.248Y-114.982
X130.325Y-73.8
X130.363Y-63.89
X130.367Y-127.998
X130.57Y-120.28
X131.248Y-114.979
X131.57Y-120.28
X132.39Y-115.04
X132.652Y-120.32
X132.925Y-132.3
X133.97Y-118.68
X133.979Y-116.68
X133.985Y-117.68
X134.003Y-115.68
X134.4Y-70.8
X134.425Y-72.025
X134.425Y-73.275
X134.727Y-120.986
X136.36Y-118.83
X136.502Y-131.515
X137.99Y-59.694
X138.042Y-122.865
X138.146Y-124.351
X138.29Y-120.89
X138.29Y-119.89
X139.712Y-67.295
X139.75Y-58.835
X140.073Y-64.171
X140.25Y-59.91
X140.681Y-127.047
X140.73Y-122.88
X140.779Y-131.286
X141.1Y-68.675
X141.56Y-117.66
X141.57Y-115.66
X141.57Y-118.68
X141.571Y-116.66
X141.825Y-132.55
X142.463Y-66.594
X142.55Y-58.6
X142.566Y-126.186
X142.6Y-121.462
X142.616Y-130.276
X143.0Y-65.75
X143.04Y-115.14
X143.45Y-70.025
X144.08Y-115.11
X144.289Y-63.903
X144.29Y-59.902
X145.075Y-70.025
X145.08Y-115.105
X145.18Y-131.99
X146.2Y-113.825
X146.21Y-115.11
X146.25Y-61.675
X146.425Y-65.675
X149.64Y-130.94
X150.583Y-64.008
X150.619Y-61.569
X151.74Y-67.86
X152.025Y-59.25
X152.075Y-66.0
X153.19Y-72.33
X155.125Y-132.15
X156.625Y-119.8
X156.8Y-113.4
X157.65Y-127.1
X157.675Y-125.7
X158.15Y-129.575
X158.15Y-130.975
X158.5Y-62.6
X160.95Y-62.6
X161.06Y-101.71
X161.15Y-97.325
X161.225Y-80.365
X162.575Y-104.65
X163.8Y-104.69
X164.132Y-120.632
X165.131Y-120.572
X165.45Y-113.975
X168.625Y-108.5
X168.875Y-117.232
X168.875Y-120.232
X169.925Y-111.325
X171.1Y-111.3
X173.375Y-117.925
X173.825Y-108.325
X173.875Y-116.475
X173.928Y-109.447
T2
X171.725Y-78.2
X171.725Y-80.7
X171.725Y-83.2
X171.725Y-85.7
T3
X127.5Y-87.5
X127.5Y-90.04
X127.5Y-92.59
X127.5Y-98.11
X127.5Y-100.66
X127.5Y-103.2
X135.05Y-108.75
X135.1Y-82.2
X137.59Y-108.75
X137.64Y-82.2
X140.14Y-108.75
X140.19Y-82.2
X147.85Y-87.38
X147.85Y-89.93
X147.85Y-92.47
X147.85Y-98.16
X147.85Y-100.7
X147.85Y-103.25
T4
X106.45Y-64.236
X106.45Y-95.627
X106.45Y-127.058
X168.934Y-64.197
X168.934Y-95.627
X168.934Y-127.096
M30
