%TF.GenerationSoftware,KiCad,Pcbnew,7.0.11*%
%TF.CreationDate,2024-03-28T06:20:15-04:00*%
%TF.ProjectId,Sensor-Board,53656e73-6f72-42d4-926f-6172642e6b69,rev?*%
%TF.SameCoordinates,Original*%
%TF.FileFunction,Paste,Top*%
%TF.FilePolarity,Positive*%
%FSLAX46Y46*%
G04 Gerber Fmt 4.6, Leading zero omitted, Abs format (unit mm)*
G04 Created by KiCad (PCBNEW 7.0.11) date 2024-03-28 06:20:15*
%MOMM*%
%LPD*%
G01*
G04 APERTURE LIST*
G04 Aperture macros list*
%AMRoundRect*
0 Rectangle with rounded corners*
0 $1 Rounding radius*
0 $2 $3 $4 $5 $6 $7 $8 $9 X,Y pos of 4 corners*
0 Add a 4 corners polygon primitive as box body*
4,1,4,$2,$3,$4,$5,$6,$7,$8,$9,$2,$3,0*
0 Add four circle primitives for the rounded corners*
1,1,$1+$1,$2,$3*
1,1,$1+$1,$4,$5*
1,1,$1+$1,$6,$7*
1,1,$1+$1,$8,$9*
0 Add four rect primitives between the rounded corners*
20,1,$1+$1,$2,$3,$4,$5,0*
20,1,$1+$1,$4,$5,$6,$7,0*
20,1,$1+$1,$6,$7,$8,$9,0*
20,1,$1+$1,$8,$9,$2,$3,0*%
G04 Aperture macros list end*
%ADD10RoundRect,0.225000X0.250000X-0.225000X0.250000X0.225000X-0.250000X0.225000X-0.250000X-0.225000X0*%
%ADD11RoundRect,0.225000X0.225000X0.250000X-0.225000X0.250000X-0.225000X-0.250000X0.225000X-0.250000X0*%
%ADD12RoundRect,0.200000X-0.200000X-0.275000X0.200000X-0.275000X0.200000X0.275000X-0.200000X0.275000X0*%
%ADD13RoundRect,0.200000X0.200000X0.275000X-0.200000X0.275000X-0.200000X-0.275000X0.200000X-0.275000X0*%
%ADD14RoundRect,0.200000X-0.275000X0.200000X-0.275000X-0.200000X0.275000X-0.200000X0.275000X0.200000X0*%
%ADD15RoundRect,0.200000X0.275000X-0.200000X0.275000X0.200000X-0.275000X0.200000X-0.275000X-0.200000X0*%
%ADD16R,0.558800X1.460500*%
%ADD17R,0.304800X0.850900*%
%ADD18RoundRect,0.200000X0.053033X-0.335876X0.335876X-0.053033X-0.053033X0.335876X-0.335876X0.053033X0*%
%ADD19RoundRect,0.200000X-0.335876X-0.053033X-0.053033X-0.335876X0.335876X0.053033X0.053033X0.335876X0*%
%ADD20R,1.270000X0.558800*%
%ADD21R,1.460500X0.558800*%
%ADD22RoundRect,0.225000X-0.250000X0.225000X-0.250000X-0.225000X0.250000X-0.225000X0.250000X0.225000X0*%
%ADD23RoundRect,0.200000X0.335876X0.053033X0.053033X0.335876X-0.335876X-0.053033X-0.053033X-0.335876X0*%
%ADD24RoundRect,0.100000X0.100000X-0.637500X0.100000X0.637500X-0.100000X0.637500X-0.100000X-0.637500X0*%
%ADD25RoundRect,0.125000X-0.125000X-0.137500X0.125000X-0.137500X0.125000X0.137500X-0.125000X0.137500X0*%
G04 APERTURE END LIST*
D10*
%TO.C,C15*%
X100950000Y-83400000D03*
X100950000Y-81850000D03*
%TD*%
D11*
%TO.C,C21*%
X145150000Y-130400000D03*
X143600000Y-130400000D03*
%TD*%
D12*
%TO.C,R68*%
X143530000Y-131990000D03*
X145180000Y-131990000D03*
%TD*%
D13*
%TO.C,R22*%
X166675000Y-80700000D03*
X165025000Y-80700000D03*
%TD*%
D14*
%TO.C,R10*%
X137160000Y-58825000D03*
X137160000Y-60475000D03*
%TD*%
D11*
%TO.C,C2*%
X126583600Y-130671300D03*
X125033600Y-130671300D03*
%TD*%
D12*
%TO.C,R44*%
X125020000Y-68360000D03*
X126670000Y-68360000D03*
%TD*%
D15*
%TO.C,R41*%
X135600000Y-123670000D03*
X135600000Y-122020000D03*
%TD*%
%TO.C,R52*%
X137190000Y-128080000D03*
X137190000Y-126430000D03*
%TD*%
D16*
%TO.C,U5*%
X102650000Y-87298300D03*
X103920000Y-87298300D03*
X105190000Y-87298300D03*
X106460000Y-87298300D03*
X107730000Y-87298300D03*
X109000000Y-87298300D03*
X110270000Y-87298300D03*
X111540000Y-87298300D03*
X111540000Y-81850000D03*
X110270000Y-81850000D03*
X109000000Y-81850000D03*
X107730000Y-81850000D03*
X106460000Y-81850000D03*
X105190000Y-81850000D03*
X103920000Y-81850000D03*
X102650000Y-81850000D03*
%TD*%
D17*
%TO.C,U9*%
X122000000Y-60887900D03*
X122649986Y-60887900D03*
X123299972Y-60887900D03*
X123299985Y-58640000D03*
X121999987Y-58640000D03*
%TD*%
D15*
%TO.C,R35*%
X138710000Y-64740000D03*
X138710000Y-63090000D03*
%TD*%
D17*
%TO.C,U11*%
X122000013Y-64940000D03*
X122649999Y-64940000D03*
X123299985Y-64940000D03*
X123299998Y-62692100D03*
X122000000Y-62692100D03*
%TD*%
D18*
%TO.C,R55*%
X118966637Y-125583363D03*
X120133363Y-124416637D03*
%TD*%
D19*
%TO.C,R23*%
X108800000Y-77500000D03*
X109966726Y-78666726D03*
%TD*%
D13*
%TO.C,R5*%
X126650000Y-132240000D03*
X125000000Y-132240000D03*
%TD*%
D20*
%TO.C,U15*%
X131600000Y-58770000D03*
X131600000Y-60827400D03*
X133682800Y-59798700D03*
%TD*%
D15*
%TO.C,R4*%
X120083600Y-132571300D03*
X120083600Y-130921300D03*
%TD*%
D12*
%TO.C,R16*%
X162150000Y-115300000D03*
X163800000Y-115300000D03*
%TD*%
D13*
%TO.C,R45*%
X129825000Y-59000000D03*
X128175000Y-59000000D03*
%TD*%
D15*
%TO.C,R17*%
X121350000Y-116350000D03*
X121350000Y-114700000D03*
%TD*%
D12*
%TO.C,R19*%
X157725000Y-128200000D03*
X159375000Y-128200000D03*
%TD*%
D21*
%TO.C,U18*%
X147981700Y-59140000D03*
X147981700Y-60410000D03*
X147981700Y-61680000D03*
X147981700Y-62950000D03*
X147981700Y-64220000D03*
X147981700Y-65490000D03*
X147981700Y-66760000D03*
X147981700Y-68030000D03*
X153430000Y-68030000D03*
X153430000Y-66760000D03*
X153430000Y-65490000D03*
X153430000Y-64220000D03*
X153430000Y-62950000D03*
X153430000Y-61680000D03*
X153430000Y-60410000D03*
X153430000Y-59140000D03*
%TD*%
D10*
%TO.C,C4*%
X101050000Y-110550000D03*
X101050000Y-109000000D03*
%TD*%
D13*
%TO.C,R58*%
X163850000Y-113675000D03*
X162200000Y-113675000D03*
%TD*%
%TO.C,R6*%
X129858600Y-130671300D03*
X128208600Y-130671300D03*
%TD*%
D22*
%TO.C,C8*%
X100950000Y-102050000D03*
X100950000Y-103600000D03*
%TD*%
D15*
%TO.C,R42*%
X135600000Y-128090000D03*
X135600000Y-126440000D03*
%TD*%
D13*
%TO.C,R47*%
X129860000Y-62870000D03*
X128210000Y-62870000D03*
%TD*%
D12*
%TO.C,R26*%
X155975000Y-59975000D03*
X157625000Y-59975000D03*
%TD*%
D17*
%TO.C,U24*%
X141749972Y-58802100D03*
X141099986Y-58802100D03*
X140450000Y-58802100D03*
X140449987Y-61050000D03*
X141749985Y-61050000D03*
%TD*%
D11*
%TO.C,C10*%
X145075000Y-63000000D03*
X143525000Y-63000000D03*
%TD*%
D13*
%TO.C,R57*%
X129908600Y-122771300D03*
X128258600Y-122771300D03*
%TD*%
D11*
%TO.C,C20*%
X126533600Y-122821300D03*
X124983600Y-122821300D03*
%TD*%
D17*
%TO.C,U21*%
X141779985Y-126100000D03*
X141129999Y-126100000D03*
X140480013Y-126100000D03*
X140480000Y-128347900D03*
X141779998Y-128347900D03*
%TD*%
D13*
%TO.C,R40*%
X126650000Y-60600000D03*
X125000000Y-60600000D03*
%TD*%
%TO.C,R25*%
X156950000Y-62075000D03*
X155300000Y-62075000D03*
%TD*%
D17*
%TO.C,U22*%
X141799972Y-130302100D03*
X141149986Y-130302100D03*
X140500000Y-130302100D03*
X140499987Y-132550000D03*
X141799985Y-132550000D03*
%TD*%
D22*
%TO.C,C5*%
X100980000Y-85010000D03*
X100980000Y-86560000D03*
%TD*%
D11*
%TO.C,C17*%
X165275000Y-108325000D03*
X163725000Y-108325000D03*
%TD*%
D14*
%TO.C,R50*%
X135540000Y-63090000D03*
X135540000Y-64740000D03*
%TD*%
D17*
%TO.C,U2*%
X121980015Y-128497900D03*
X122630001Y-128497900D03*
X123279987Y-128497900D03*
X123280000Y-126250000D03*
X121980002Y-126250000D03*
%TD*%
D21*
%TO.C,U4*%
X148000000Y-123310000D03*
X148000000Y-124580000D03*
X148000000Y-125850000D03*
X148000000Y-127120000D03*
X148000000Y-128390000D03*
X148000000Y-129660000D03*
X148000000Y-130930000D03*
X148000000Y-132200000D03*
X153448300Y-132200000D03*
X153448300Y-130930000D03*
X153448300Y-129660000D03*
X153448300Y-128390000D03*
X153448300Y-127120000D03*
X153448300Y-125850000D03*
X153448300Y-124580000D03*
X153448300Y-123310000D03*
%TD*%
D13*
%TO.C,R43*%
X126710000Y-64460000D03*
X125060000Y-64460000D03*
%TD*%
D15*
%TO.C,R37*%
X120190000Y-60290000D03*
X120190000Y-58640000D03*
%TD*%
D19*
%TO.C,R28*%
X172816637Y-119616637D03*
X173983363Y-120783363D03*
%TD*%
D13*
%TO.C,R30*%
X171875000Y-114725000D03*
X170225000Y-114725000D03*
%TD*%
D15*
%TO.C,R54*%
X138780000Y-128090000D03*
X138780000Y-126440000D03*
%TD*%
D17*
%TO.C,U12*%
X121960014Y-68970000D03*
X122610000Y-68970000D03*
X123259986Y-68970000D03*
X123259999Y-66722100D03*
X121960001Y-66722100D03*
%TD*%
D23*
%TO.C,R39*%
X119825000Y-67125000D03*
X118658274Y-65958274D03*
%TD*%
D17*
%TO.C,U8*%
X141749985Y-67552100D03*
X141099999Y-67552100D03*
X140450013Y-67552100D03*
X140450000Y-69800000D03*
X141749998Y-69800000D03*
%TD*%
D11*
%TO.C,C11*%
X145125000Y-66925000D03*
X143575000Y-66925000D03*
%TD*%
D14*
%TO.C,R12*%
X137110000Y-67155000D03*
X137110000Y-68805000D03*
%TD*%
%TO.C,R11*%
X137100000Y-63090000D03*
X137100000Y-64740000D03*
%TD*%
D15*
%TO.C,R38*%
X120250000Y-63910000D03*
X120250000Y-62260000D03*
%TD*%
D20*
%TO.C,U17*%
X131600000Y-66602600D03*
X131600000Y-68660000D03*
X133682800Y-67631300D03*
%TD*%
D12*
%TO.C,R7*%
X143555000Y-123410000D03*
X145205000Y-123410000D03*
%TD*%
D15*
%TO.C,R46*%
X135660000Y-132370000D03*
X135660000Y-130720000D03*
%TD*%
D11*
%TO.C,C14*%
X126590000Y-66780000D03*
X125040000Y-66780000D03*
%TD*%
%TO.C,C1*%
X126535000Y-126530000D03*
X124985000Y-126530000D03*
%TD*%
%TO.C,C7*%
X145100000Y-59000000D03*
X143550000Y-59000000D03*
%TD*%
%TO.C,C16*%
X165275000Y-109900000D03*
X163725000Y-109900000D03*
%TD*%
%TO.C,C3*%
X145155000Y-121890000D03*
X143605000Y-121890000D03*
%TD*%
D20*
%TO.C,U16*%
X131590000Y-62702600D03*
X131590000Y-64760000D03*
X133672800Y-63731300D03*
%TD*%
D12*
%TO.C,R15*%
X143525000Y-68525000D03*
X145175000Y-68525000D03*
%TD*%
D20*
%TO.C,U26*%
X131700000Y-122150000D03*
X131700000Y-124207400D03*
X133782800Y-123178700D03*
%TD*%
D16*
%TO.C,U25*%
X111490000Y-103851700D03*
X110220000Y-103851700D03*
X108950000Y-103851700D03*
X107680000Y-103851700D03*
X106410000Y-103851700D03*
X105140000Y-103851700D03*
X103870000Y-103851700D03*
X102600000Y-103851700D03*
X102600000Y-109300000D03*
X103870000Y-109300000D03*
X105140000Y-109300000D03*
X106410000Y-109300000D03*
X107680000Y-109300000D03*
X108950000Y-109300000D03*
X110220000Y-109300000D03*
X111490000Y-109300000D03*
%TD*%
D13*
%TO.C,R56*%
X126608600Y-124571300D03*
X124958600Y-124571300D03*
%TD*%
D15*
%TO.C,R69*%
X138820000Y-132365000D03*
X138820000Y-130715000D03*
%TD*%
D10*
%TO.C,C9*%
X101000000Y-107275000D03*
X101000000Y-105725000D03*
%TD*%
D15*
%TO.C,R18*%
X138720000Y-60485000D03*
X138720000Y-58835000D03*
%TD*%
D20*
%TO.C,U19*%
X131700000Y-126230000D03*
X131700000Y-128287400D03*
X133782800Y-127258700D03*
%TD*%
D12*
%TO.C,R20*%
X158375000Y-131825000D03*
X160025000Y-131825000D03*
%TD*%
D15*
%TO.C,R51*%
X135525000Y-68790000D03*
X135525000Y-67140000D03*
%TD*%
%TO.C,R9*%
X138820000Y-123690000D03*
X138820000Y-122040000D03*
%TD*%
D17*
%TO.C,U1*%
X122010014Y-124490000D03*
X122660000Y-124490000D03*
X123309986Y-124490000D03*
X123309999Y-122242100D03*
X122010001Y-122242100D03*
%TD*%
D13*
%TO.C,R2*%
X126585000Y-128050000D03*
X124935000Y-128050000D03*
%TD*%
D19*
%TO.C,R24*%
X106625000Y-75350000D03*
X107791726Y-76516726D03*
%TD*%
D11*
%TO.C,C19*%
X145175000Y-126160000D03*
X143625000Y-126160000D03*
%TD*%
D12*
%TO.C,R21*%
X165025000Y-79125000D03*
X166675000Y-79125000D03*
%TD*%
D19*
%TO.C,R29*%
X168716637Y-115791637D03*
X169883363Y-116958363D03*
%TD*%
D17*
%TO.C,U7*%
X141779987Y-63202100D03*
X141130001Y-63202100D03*
X140480015Y-63202100D03*
X140480002Y-65450000D03*
X141780000Y-65450000D03*
%TD*%
D11*
%TO.C,C12*%
X126625000Y-59000000D03*
X125075000Y-59000000D03*
%TD*%
D13*
%TO.C,R3*%
X129833600Y-126671300D03*
X128183600Y-126671300D03*
%TD*%
D15*
%TO.C,R36*%
X138690000Y-68820000D03*
X138690000Y-67170000D03*
%TD*%
D10*
%TO.C,C6*%
X100920000Y-89750000D03*
X100920000Y-88200000D03*
%TD*%
D17*
%TO.C,U3*%
X121983615Y-132571300D03*
X122633601Y-132571300D03*
X123283587Y-132571300D03*
X123283600Y-130323400D03*
X121983602Y-130323400D03*
%TD*%
%TO.C,U14*%
X141849985Y-121940000D03*
X141199999Y-121940000D03*
X140550013Y-121940000D03*
X140550000Y-124187900D03*
X141849998Y-124187900D03*
%TD*%
D12*
%TO.C,R14*%
X143465000Y-64680000D03*
X145115000Y-64680000D03*
%TD*%
D20*
%TO.C,U20*%
X131742200Y-130371300D03*
X131742200Y-132428700D03*
X133825000Y-131400000D03*
%TD*%
D12*
%TO.C,R53*%
X143580000Y-127690000D03*
X145230000Y-127690000D03*
%TD*%
D15*
%TO.C,R67*%
X137260000Y-132355000D03*
X137260000Y-130705000D03*
%TD*%
D14*
%TO.C,R49*%
X135565000Y-58825000D03*
X135565000Y-60475000D03*
%TD*%
D24*
%TO.C,U32*%
X166675000Y-112700000D03*
X167325000Y-112700000D03*
X167975000Y-112700000D03*
X168625000Y-112700000D03*
X169275000Y-112700000D03*
X169925000Y-112700000D03*
X170575000Y-112700000D03*
X171225000Y-112700000D03*
X171875000Y-112700000D03*
X172525000Y-112700000D03*
X173175000Y-112700000D03*
X173825000Y-112700000D03*
X173825000Y-106975000D03*
X173175000Y-106975000D03*
X172525000Y-106975000D03*
X171875000Y-106975000D03*
X171225000Y-106975000D03*
X170575000Y-106975000D03*
X169925000Y-106975000D03*
X169275000Y-106975000D03*
X168625000Y-106975000D03*
X167975000Y-106975000D03*
X167325000Y-106975000D03*
X166675000Y-106975000D03*
%TD*%
D11*
%TO.C,C13*%
X126645000Y-62860000D03*
X125095000Y-62860000D03*
%TD*%
D15*
%TO.C,R1*%
X120150000Y-128995000D03*
X120150000Y-127345000D03*
%TD*%
D14*
%TO.C,R8*%
X137210000Y-122050000D03*
X137210000Y-123700000D03*
%TD*%
D25*
%TO.C,U6*%
X120720000Y-98535000D03*
X121520000Y-98535000D03*
X122320000Y-98535000D03*
X123120000Y-98535000D03*
X123120000Y-100910000D03*
X122320000Y-100910000D03*
X121520000Y-100910000D03*
X120720000Y-100910000D03*
%TD*%
D19*
%TO.C,R27*%
X104400000Y-73175000D03*
X105566726Y-74341726D03*
%TD*%
D13*
%TO.C,R48*%
X129750000Y-66790000D03*
X128100000Y-66790000D03*
%TD*%
D12*
%TO.C,R13*%
X143465000Y-60680000D03*
X145115000Y-60680000D03*
%TD*%
M02*
