%TF.GenerationSoftware,KiCad,Pcbnew,7.0.11*%
%TF.CreationDate,2024-03-28T06:20:29-04:00*%
%TF.ProjectId,Sensor-Board,53656e73-6f72-42d4-926f-6172642e6b69,rev?*%
%TF.SameCoordinates,Original*%
%TF.FileFunction,Drillmap*%
%TF.FilePolarity,Positive*%
%FSLAX45Y45*%
G04 Gerber Fmt 4.5, Leading zero omitted, Abs format (unit mm)*
G04 Created by KiCad (PCBNEW 7.0.11) date 2024-03-28 06:20:29*
%MOMM*%
%LPD*%
G01*
G04 APERTURE LIST*
%ADD10C,0.100000*%
%ADD11C,0.200000*%
G04 APERTURE END LIST*
D10*
X9995631Y-12709639D02*
G75*
G03*
X10630633Y-13332439I628899J6099D01*
G01*
X17539433Y-6423639D02*
X17539433Y-12709639D01*
X10630633Y-5788643D02*
G75*
G03*
X9995633Y-6423639I-3J-634997D01*
G01*
X9995633Y-6423639D02*
X9995633Y-12709639D01*
X16916633Y-13332443D02*
G75*
G03*
X17539433Y-12709639I-3J622803D01*
G01*
X17539431Y-6423639D02*
G75*
G03*
X16916633Y-5788639I-628901J6099D01*
G01*
X16916633Y-13332439D02*
X10630633Y-13332439D01*
X10630633Y-5788639D02*
X16916633Y-5788639D01*
D11*
X10251410Y-13648952D02*
X10251410Y-13448952D01*
X10251410Y-13448952D02*
X10299029Y-13448952D01*
X10299029Y-13448952D02*
X10327600Y-13458476D01*
X10327600Y-13458476D02*
X10346648Y-13477523D01*
X10346648Y-13477523D02*
X10356171Y-13496571D01*
X10356171Y-13496571D02*
X10365695Y-13534666D01*
X10365695Y-13534666D02*
X10365695Y-13563238D01*
X10365695Y-13563238D02*
X10356171Y-13601333D01*
X10356171Y-13601333D02*
X10346648Y-13620381D01*
X10346648Y-13620381D02*
X10327600Y-13639428D01*
X10327600Y-13639428D02*
X10299029Y-13648952D01*
X10299029Y-13648952D02*
X10251410Y-13648952D01*
X10451410Y-13648952D02*
X10451410Y-13515619D01*
X10451410Y-13553714D02*
X10460933Y-13534666D01*
X10460933Y-13534666D02*
X10470457Y-13525142D01*
X10470457Y-13525142D02*
X10489505Y-13515619D01*
X10489505Y-13515619D02*
X10508552Y-13515619D01*
X10575219Y-13648952D02*
X10575219Y-13515619D01*
X10575219Y-13448952D02*
X10565695Y-13458476D01*
X10565695Y-13458476D02*
X10575219Y-13468000D01*
X10575219Y-13468000D02*
X10584743Y-13458476D01*
X10584743Y-13458476D02*
X10575219Y-13448952D01*
X10575219Y-13448952D02*
X10575219Y-13468000D01*
X10699029Y-13648952D02*
X10679981Y-13639428D01*
X10679981Y-13639428D02*
X10670457Y-13620381D01*
X10670457Y-13620381D02*
X10670457Y-13448952D01*
X10803790Y-13648952D02*
X10784743Y-13639428D01*
X10784743Y-13639428D02*
X10775219Y-13620381D01*
X10775219Y-13620381D02*
X10775219Y-13448952D01*
X11032362Y-13648952D02*
X11032362Y-13448952D01*
X11032362Y-13448952D02*
X11099029Y-13591809D01*
X11099029Y-13591809D02*
X11165695Y-13448952D01*
X11165695Y-13448952D02*
X11165695Y-13648952D01*
X11346648Y-13648952D02*
X11346648Y-13544190D01*
X11346648Y-13544190D02*
X11337124Y-13525142D01*
X11337124Y-13525142D02*
X11318076Y-13515619D01*
X11318076Y-13515619D02*
X11279981Y-13515619D01*
X11279981Y-13515619D02*
X11260933Y-13525142D01*
X11346648Y-13639428D02*
X11327600Y-13648952D01*
X11327600Y-13648952D02*
X11279981Y-13648952D01*
X11279981Y-13648952D02*
X11260933Y-13639428D01*
X11260933Y-13639428D02*
X11251409Y-13620381D01*
X11251409Y-13620381D02*
X11251409Y-13601333D01*
X11251409Y-13601333D02*
X11260933Y-13582285D01*
X11260933Y-13582285D02*
X11279981Y-13572762D01*
X11279981Y-13572762D02*
X11327600Y-13572762D01*
X11327600Y-13572762D02*
X11346648Y-13563238D01*
X11441886Y-13515619D02*
X11441886Y-13715619D01*
X11441886Y-13525142D02*
X11460933Y-13515619D01*
X11460933Y-13515619D02*
X11499029Y-13515619D01*
X11499029Y-13515619D02*
X11518076Y-13525142D01*
X11518076Y-13525142D02*
X11527600Y-13534666D01*
X11527600Y-13534666D02*
X11537124Y-13553714D01*
X11537124Y-13553714D02*
X11537124Y-13610857D01*
X11537124Y-13610857D02*
X11527600Y-13629904D01*
X11527600Y-13629904D02*
X11518076Y-13639428D01*
X11518076Y-13639428D02*
X11499029Y-13648952D01*
X11499029Y-13648952D02*
X11460933Y-13648952D01*
X11460933Y-13648952D02*
X11441886Y-13639428D01*
X11622838Y-13629904D02*
X11632362Y-13639428D01*
X11632362Y-13639428D02*
X11622838Y-13648952D01*
X11622838Y-13648952D02*
X11613314Y-13639428D01*
X11613314Y-13639428D02*
X11622838Y-13629904D01*
X11622838Y-13629904D02*
X11622838Y-13648952D01*
X11622838Y-13525142D02*
X11632362Y-13534666D01*
X11632362Y-13534666D02*
X11622838Y-13544190D01*
X11622838Y-13544190D02*
X11613314Y-13534666D01*
X11613314Y-13534666D02*
X11622838Y-13525142D01*
X11622838Y-13525142D02*
X11622838Y-13544190D01*
M02*
