%TF.GenerationSoftware,KiCad,Pcbnew,7.0.11*%
%TF.CreationDate,2024-03-28T06:20:15-04:00*%
%TF.ProjectId,Sensor-Board,53656e73-6f72-42d4-926f-6172642e6b69,rev?*%
%TF.SameCoordinates,Original*%
%TF.FileFunction,Legend,Bot*%
%TF.FilePolarity,Positive*%
%FSLAX46Y46*%
G04 Gerber Fmt 4.6, Leading zero omitted, Abs format (unit mm)*
G04 Created by KiCad (PCBNEW 7.0.11) date 2024-03-28 06:20:15*
%MOMM*%
%LPD*%
G01*
G04 APERTURE LIST*
G04 Aperture macros list*
%AMRoundRect*
0 Rectangle with rounded corners*
0 $1 Rounding radius*
0 $2 $3 $4 $5 $6 $7 $8 $9 X,Y pos of 4 corners*
0 Add a 4 corners polygon primitive as box body*
4,1,4,$2,$3,$4,$5,$6,$7,$8,$9,$2,$3,0*
0 Add four circle primitives for the rounded corners*
1,1,$1+$1,$2,$3*
1,1,$1+$1,$4,$5*
1,1,$1+$1,$6,$7*
1,1,$1+$1,$8,$9*
0 Add four rect primitives between the rounded corners*
20,1,$1+$1,$2,$3,$4,$5,0*
20,1,$1+$1,$4,$5,$6,$7,0*
20,1,$1+$1,$6,$7,$8,$9,0*
20,1,$1+$1,$8,$9,$2,$3,0*%
G04 Aperture macros list end*
%ADD10C,0.100000*%
%ADD11C,0.150000*%
%ADD12C,0.508000*%
%ADD13C,0.120000*%
%ADD14C,1.498600*%
%ADD15C,10.500000*%
%ADD16C,1.830000*%
%ADD17RoundRect,0.125000X0.125000X0.137500X-0.125000X0.137500X-0.125000X-0.137500X0.125000X-0.137500X0*%
G04 APERTURE END LIST*
D10*
X122159523Y-96439895D02*
X122159523Y-97087514D01*
X122159523Y-97087514D02*
X122121428Y-97163704D01*
X122121428Y-97163704D02*
X122083333Y-97201800D01*
X122083333Y-97201800D02*
X122007142Y-97239895D01*
X122007142Y-97239895D02*
X121854761Y-97239895D01*
X121854761Y-97239895D02*
X121778571Y-97201800D01*
X121778571Y-97201800D02*
X121740476Y-97163704D01*
X121740476Y-97163704D02*
X121702380Y-97087514D01*
X121702380Y-97087514D02*
X121702380Y-96439895D01*
X120978571Y-96439895D02*
X121130952Y-96439895D01*
X121130952Y-96439895D02*
X121207143Y-96477990D01*
X121207143Y-96477990D02*
X121245238Y-96516085D01*
X121245238Y-96516085D02*
X121321428Y-96630371D01*
X121321428Y-96630371D02*
X121359524Y-96782752D01*
X121359524Y-96782752D02*
X121359524Y-97087514D01*
X121359524Y-97087514D02*
X121321428Y-97163704D01*
X121321428Y-97163704D02*
X121283333Y-97201800D01*
X121283333Y-97201800D02*
X121207143Y-97239895D01*
X121207143Y-97239895D02*
X121054762Y-97239895D01*
X121054762Y-97239895D02*
X120978571Y-97201800D01*
X120978571Y-97201800D02*
X120940476Y-97163704D01*
X120940476Y-97163704D02*
X120902381Y-97087514D01*
X120902381Y-97087514D02*
X120902381Y-96897038D01*
X120902381Y-96897038D02*
X120940476Y-96820847D01*
X120940476Y-96820847D02*
X120978571Y-96782752D01*
X120978571Y-96782752D02*
X121054762Y-96744657D01*
X121054762Y-96744657D02*
X121207143Y-96744657D01*
X121207143Y-96744657D02*
X121283333Y-96782752D01*
X121283333Y-96782752D02*
X121321428Y-96820847D01*
X121321428Y-96820847D02*
X121359524Y-96897038D01*
X152039895Y-100609524D02*
X152687514Y-100609524D01*
X152687514Y-100609524D02*
X152763704Y-100647619D01*
X152763704Y-100647619D02*
X152801800Y-100685714D01*
X152801800Y-100685714D02*
X152839895Y-100761905D01*
X152839895Y-100761905D02*
X152839895Y-100914286D01*
X152839895Y-100914286D02*
X152801800Y-100990476D01*
X152801800Y-100990476D02*
X152763704Y-101028571D01*
X152763704Y-101028571D02*
X152687514Y-101066667D01*
X152687514Y-101066667D02*
X152039895Y-101066667D01*
X152039895Y-101371428D02*
X152039895Y-101866666D01*
X152039895Y-101866666D02*
X152344657Y-101600000D01*
X152344657Y-101600000D02*
X152344657Y-101714285D01*
X152344657Y-101714285D02*
X152382752Y-101790476D01*
X152382752Y-101790476D02*
X152420847Y-101828571D01*
X152420847Y-101828571D02*
X152497038Y-101866666D01*
X152497038Y-101866666D02*
X152687514Y-101866666D01*
X152687514Y-101866666D02*
X152763704Y-101828571D01*
X152763704Y-101828571D02*
X152801800Y-101790476D01*
X152801800Y-101790476D02*
X152839895Y-101714285D01*
X152839895Y-101714285D02*
X152839895Y-101485714D01*
X152839895Y-101485714D02*
X152801800Y-101409523D01*
X152801800Y-101409523D02*
X152763704Y-101371428D01*
X152039895Y-102361905D02*
X152039895Y-102438095D01*
X152039895Y-102438095D02*
X152077990Y-102514286D01*
X152077990Y-102514286D02*
X152116085Y-102552381D01*
X152116085Y-102552381D02*
X152192276Y-102590476D01*
X152192276Y-102590476D02*
X152344657Y-102628571D01*
X152344657Y-102628571D02*
X152535133Y-102628571D01*
X152535133Y-102628571D02*
X152687514Y-102590476D01*
X152687514Y-102590476D02*
X152763704Y-102552381D01*
X152763704Y-102552381D02*
X152801800Y-102514286D01*
X152801800Y-102514286D02*
X152839895Y-102438095D01*
X152839895Y-102438095D02*
X152839895Y-102361905D01*
X152839895Y-102361905D02*
X152801800Y-102285714D01*
X152801800Y-102285714D02*
X152763704Y-102247619D01*
X152763704Y-102247619D02*
X152687514Y-102209524D01*
X152687514Y-102209524D02*
X152535133Y-102171428D01*
X152535133Y-102171428D02*
X152344657Y-102171428D01*
X152344657Y-102171428D02*
X152192276Y-102209524D01*
X152192276Y-102209524D02*
X152116085Y-102247619D01*
X152116085Y-102247619D02*
X152077990Y-102285714D01*
X152077990Y-102285714D02*
X152039895Y-102361905D01*
D11*
X136211905Y-78095180D02*
X136211905Y-77285657D01*
X136211905Y-77285657D02*
X136259524Y-77190419D01*
X136259524Y-77190419D02*
X136307143Y-77142800D01*
X136307143Y-77142800D02*
X136402381Y-77095180D01*
X136402381Y-77095180D02*
X136592857Y-77095180D01*
X136592857Y-77095180D02*
X136688095Y-77142800D01*
X136688095Y-77142800D02*
X136735714Y-77190419D01*
X136735714Y-77190419D02*
X136783333Y-77285657D01*
X136783333Y-77285657D02*
X136783333Y-78095180D01*
X137211905Y-77999942D02*
X137259524Y-78047561D01*
X137259524Y-78047561D02*
X137354762Y-78095180D01*
X137354762Y-78095180D02*
X137592857Y-78095180D01*
X137592857Y-78095180D02*
X137688095Y-78047561D01*
X137688095Y-78047561D02*
X137735714Y-77999942D01*
X137735714Y-77999942D02*
X137783333Y-77904704D01*
X137783333Y-77904704D02*
X137783333Y-77809466D01*
X137783333Y-77809466D02*
X137735714Y-77666609D01*
X137735714Y-77666609D02*
X137164286Y-77095180D01*
X137164286Y-77095180D02*
X137783333Y-77095180D01*
X138259524Y-77095180D02*
X138450000Y-77095180D01*
X138450000Y-77095180D02*
X138545238Y-77142800D01*
X138545238Y-77142800D02*
X138592857Y-77190419D01*
X138592857Y-77190419D02*
X138688095Y-77333276D01*
X138688095Y-77333276D02*
X138735714Y-77523752D01*
X138735714Y-77523752D02*
X138735714Y-77904704D01*
X138735714Y-77904704D02*
X138688095Y-77999942D01*
X138688095Y-77999942D02*
X138640476Y-78047561D01*
X138640476Y-78047561D02*
X138545238Y-78095180D01*
X138545238Y-78095180D02*
X138354762Y-78095180D01*
X138354762Y-78095180D02*
X138259524Y-78047561D01*
X138259524Y-78047561D02*
X138211905Y-77999942D01*
X138211905Y-77999942D02*
X138164286Y-77904704D01*
X138164286Y-77904704D02*
X138164286Y-77666609D01*
X138164286Y-77666609D02*
X138211905Y-77571371D01*
X138211905Y-77571371D02*
X138259524Y-77523752D01*
X138259524Y-77523752D02*
X138354762Y-77476133D01*
X138354762Y-77476133D02*
X138545238Y-77476133D01*
X138545238Y-77476133D02*
X138640476Y-77523752D01*
X138640476Y-77523752D02*
X138688095Y-77571371D01*
X138688095Y-77571371D02*
X138735714Y-77666609D01*
X122079819Y-100236905D02*
X122889342Y-100236905D01*
X122889342Y-100236905D02*
X122984580Y-100284524D01*
X122984580Y-100284524D02*
X123032200Y-100332143D01*
X123032200Y-100332143D02*
X123079819Y-100427381D01*
X123079819Y-100427381D02*
X123079819Y-100617857D01*
X123079819Y-100617857D02*
X123032200Y-100713095D01*
X123032200Y-100713095D02*
X122984580Y-100760714D01*
X122984580Y-100760714D02*
X122889342Y-100808333D01*
X122889342Y-100808333D02*
X122079819Y-100808333D01*
X122079819Y-101189286D02*
X122079819Y-101808333D01*
X122079819Y-101808333D02*
X122460771Y-101475000D01*
X122460771Y-101475000D02*
X122460771Y-101617857D01*
X122460771Y-101617857D02*
X122508390Y-101713095D01*
X122508390Y-101713095D02*
X122556009Y-101760714D01*
X122556009Y-101760714D02*
X122651247Y-101808333D01*
X122651247Y-101808333D02*
X122889342Y-101808333D01*
X122889342Y-101808333D02*
X122984580Y-101760714D01*
X122984580Y-101760714D02*
X123032200Y-101713095D01*
X123032200Y-101713095D02*
X123079819Y-101617857D01*
X123079819Y-101617857D02*
X123079819Y-101332143D01*
X123079819Y-101332143D02*
X123032200Y-101236905D01*
X123032200Y-101236905D02*
X122984580Y-101189286D01*
X123079819Y-102760714D02*
X123079819Y-102189286D01*
X123079819Y-102475000D02*
X122079819Y-102475000D01*
X122079819Y-102475000D02*
X122222676Y-102379762D01*
X122222676Y-102379762D02*
X122317914Y-102284524D01*
X122317914Y-102284524D02*
X122365533Y-102189286D01*
D10*
X122782975Y-89719895D02*
X122782975Y-90367514D01*
X122782975Y-90367514D02*
X122744880Y-90443704D01*
X122744880Y-90443704D02*
X122706785Y-90481800D01*
X122706785Y-90481800D02*
X122630594Y-90519895D01*
X122630594Y-90519895D02*
X122478213Y-90519895D01*
X122478213Y-90519895D02*
X122402023Y-90481800D01*
X122402023Y-90481800D02*
X122363928Y-90443704D01*
X122363928Y-90443704D02*
X122325832Y-90367514D01*
X122325832Y-90367514D02*
X122325832Y-89719895D01*
X121525833Y-90519895D02*
X121982976Y-90519895D01*
X121754404Y-90519895D02*
X121754404Y-89719895D01*
X121754404Y-89719895D02*
X121830595Y-89834180D01*
X121830595Y-89834180D02*
X121906785Y-89910371D01*
X121906785Y-89910371D02*
X121982976Y-89948466D01*
X121030594Y-89719895D02*
X120954404Y-89719895D01*
X120954404Y-89719895D02*
X120878213Y-89757990D01*
X120878213Y-89757990D02*
X120840118Y-89796085D01*
X120840118Y-89796085D02*
X120802023Y-89872276D01*
X120802023Y-89872276D02*
X120763928Y-90024657D01*
X120763928Y-90024657D02*
X120763928Y-90215133D01*
X120763928Y-90215133D02*
X120802023Y-90367514D01*
X120802023Y-90367514D02*
X120840118Y-90443704D01*
X120840118Y-90443704D02*
X120878213Y-90481800D01*
X120878213Y-90481800D02*
X120954404Y-90519895D01*
X120954404Y-90519895D02*
X121030594Y-90519895D01*
X121030594Y-90519895D02*
X121106785Y-90481800D01*
X121106785Y-90481800D02*
X121144880Y-90443704D01*
X121144880Y-90443704D02*
X121182975Y-90367514D01*
X121182975Y-90367514D02*
X121221071Y-90215133D01*
X121221071Y-90215133D02*
X121221071Y-90024657D01*
X121221071Y-90024657D02*
X121182975Y-89872276D01*
X121182975Y-89872276D02*
X121144880Y-89796085D01*
X121144880Y-89796085D02*
X121106785Y-89757990D01*
X121106785Y-89757990D02*
X121030594Y-89719895D01*
D12*
%TO.C,J2*%
X172106000Y-74939600D02*
G75*
G03*
X171344000Y-74939600I-381000J0D01*
G01*
X171344000Y-74939600D02*
G75*
G03*
X172106000Y-74939600I381000J0D01*
G01*
D13*
%TO.C,U30*%
X138080000Y-107020000D02*
X151220000Y-107020000D01*
X151220000Y-107020000D02*
X151220000Y-94340000D01*
X151220000Y-94340000D02*
X138080000Y-94340000D01*
X138080000Y-94340000D02*
X138080000Y-107020000D01*
%TO.C,U29*%
X143960000Y-91970000D02*
X131280000Y-91970000D01*
X131280000Y-91970000D02*
X131280000Y-78830000D01*
X131280000Y-78830000D02*
X143960000Y-78830000D01*
X143960000Y-78830000D02*
X143960000Y-91970000D01*
%TO.C,U31*%
X137270000Y-94340000D02*
X124130000Y-94340000D01*
X124130000Y-94340000D02*
X124130000Y-107020000D01*
X124130000Y-107020000D02*
X137270000Y-107020000D01*
X137270000Y-107020000D02*
X137270000Y-94340000D01*
%TO.C,U10*%
X123520000Y-91477500D02*
X123520000Y-94337500D01*
X120100000Y-91477500D02*
X120100000Y-94337500D01*
X123690000Y-91237500D02*
X123410000Y-91237500D01*
X123410000Y-90957500D01*
X123690000Y-91237500D01*
G36*
X123690000Y-91237500D02*
G01*
X123410000Y-91237500D01*
X123410000Y-90957500D01*
X123690000Y-91237500D01*
G37*
%TD*%
%LPC*%
D14*
%TO.C,J2*%
X171725000Y-78200000D03*
X171725000Y-80700000D03*
X171725000Y-83200000D03*
X171725000Y-85700000D03*
%TD*%
D15*
%TO.C,H2*%
X106450200Y-127058400D03*
%TD*%
%TO.C,H1*%
X106450200Y-64236400D03*
%TD*%
D16*
%TO.C,U27*%
X127500000Y-92590000D03*
X127500000Y-90040000D03*
X127500000Y-87500000D03*
%TD*%
D15*
%TO.C,H6*%
X168934200Y-127096400D03*
%TD*%
D16*
%TO.C,U28*%
X147850000Y-87380000D03*
X147850000Y-89930000D03*
X147850000Y-92470000D03*
%TD*%
D15*
%TO.C,H4*%
X168934200Y-95627500D03*
%TD*%
%TO.C,H5*%
X168934200Y-64196600D03*
%TD*%
%TO.C,H3*%
X106450200Y-95627500D03*
%TD*%
D16*
%TO.C,U23*%
X140140000Y-108750000D03*
X137590000Y-108750000D03*
X135050000Y-108750000D03*
%TD*%
%TO.C,U30*%
X147850000Y-103250000D03*
X147850000Y-100700000D03*
X147850000Y-98160000D03*
%TD*%
%TO.C,U29*%
X140190000Y-82200000D03*
X137640000Y-82200000D03*
X135100000Y-82200000D03*
%TD*%
%TO.C,U31*%
X127500000Y-98110000D03*
X127500000Y-100660000D03*
X127500000Y-103200000D03*
%TD*%
D17*
%TO.C,U10*%
X123010000Y-91650000D03*
X122210000Y-91650000D03*
X121410000Y-91650000D03*
X120610000Y-91650000D03*
X120610000Y-94025000D03*
X121410000Y-94025000D03*
X122210000Y-94025000D03*
X123010000Y-94025000D03*
%TD*%
%LPD*%
M02*
