G04 #@! TF.GenerationSoftware,KiCad,Pcbnew,7.0.11*
G04 #@! TF.CreationDate,2024-03-28T06:07:28-04:00*
G04 #@! TF.ProjectId,Motherboard,4d6f7468-6572-4626-9f61-72642e6b6963,rev?*
G04 #@! TF.SameCoordinates,Original*
G04 #@! TF.FileFunction,Copper,L2,Bot*
G04 #@! TF.FilePolarity,Positive*
%FSLAX46Y46*%
G04 Gerber Fmt 4.6, Leading zero omitted, Abs format (unit mm)*
G04 Created by KiCad (PCBNEW 7.0.11) date 2024-03-28 06:07:28*
%MOMM*%
%LPD*%
G01*
G04 APERTURE LIST*
G04 Aperture macros list*
%AMHorizOval*
0 Thick line with rounded ends*
0 $1 width*
0 $2 $3 position (X,Y) of the first rounded end (center of the circle)*
0 $4 $5 position (X,Y) of the second rounded end (center of the circle)*
0 Add line between two ends*
20,1,$1,$2,$3,$4,$5,0*
0 Add two circle primitives to create the rounded ends*
1,1,$1,$2,$3*
1,1,$1,$4,$5*%
%AMRotRect*
0 Rectangle, with rotation*
0 The origin of the aperture is its center*
0 $1 length*
0 $2 width*
0 $3 Rotation angle, in degrees counterclockwise*
0 Add horizontal line*
21,1,$1,$2,0,0,$3*%
G04 Aperture macros list end*
G04 #@! TA.AperFunction,ComponentPad*
%ADD10HorizOval,0.890000X-0.318756X0.085410X0.318756X-0.085410X0*%
G04 #@! TD*
G04 #@! TA.AperFunction,ComponentPad*
%ADD11HorizOval,0.950000X-0.038823X-0.144889X0.038823X0.144889X0*%
G04 #@! TD*
G04 #@! TA.AperFunction,ComponentPad*
%ADD12RotRect,1.700000X1.700000X142.000000*%
G04 #@! TD*
G04 #@! TA.AperFunction,ComponentPad*
%ADD13HorizOval,1.700000X0.000000X0.000000X0.000000X0.000000X0*%
G04 #@! TD*
G04 #@! TA.AperFunction,ComponentPad*
%ADD14C,1.498600*%
G04 #@! TD*
G04 #@! TA.AperFunction,ComponentPad*
%ADD15RotRect,1.520000X1.520000X340.000000*%
G04 #@! TD*
G04 #@! TA.AperFunction,ComponentPad*
%ADD16C,1.520000*%
G04 #@! TD*
G04 #@! TA.AperFunction,ComponentPad*
%ADD17R,1.520000X1.520000*%
G04 #@! TD*
G04 #@! TA.AperFunction,ComponentPad*
%ADD18RotRect,1.520000X1.520000X315.000000*%
G04 #@! TD*
G04 #@! TA.AperFunction,ComponentPad*
%ADD19R,1.900000X1.900000*%
G04 #@! TD*
G04 #@! TA.AperFunction,ComponentPad*
%ADD20C,1.900000*%
G04 #@! TD*
G04 #@! TA.AperFunction,ComponentPad*
%ADD21R,2.000000X2.000000*%
G04 #@! TD*
G04 #@! TA.AperFunction,ComponentPad*
%ADD22C,2.000000*%
G04 #@! TD*
G04 #@! TA.AperFunction,ComponentPad*
%ADD23RotRect,1.520000X1.520000X45.000000*%
G04 #@! TD*
G04 #@! TA.AperFunction,ComponentPad*
%ADD24C,10.500000*%
G04 #@! TD*
G04 #@! TA.AperFunction,ComponentPad*
%ADD25RotRect,1.520000X1.520000X20.000000*%
G04 #@! TD*
G04 #@! TA.AperFunction,ViaPad*
%ADD26C,0.600000*%
G04 #@! TD*
G04 #@! TA.AperFunction,Conductor*
%ADD27C,0.300000*%
G04 #@! TD*
G04 #@! TA.AperFunction,Conductor*
%ADD28C,0.500000*%
G04 #@! TD*
G04 #@! TA.AperFunction,Conductor*
%ADD29C,0.200000*%
G04 #@! TD*
G04 #@! TA.AperFunction,Conductor*
%ADD30C,1.000000*%
G04 #@! TD*
G04 APERTURE END LIST*
D10*
X155719914Y-108030634D03*
D11*
X158069095Y-109695371D03*
X156775000Y-114525000D03*
D10*
X153908181Y-114792115D03*
D12*
X165397440Y-107453095D03*
D13*
X166961220Y-105451548D03*
X168525000Y-103450000D03*
X170088780Y-101448453D03*
D14*
X175235361Y-89225606D03*
X173115241Y-90550404D03*
X170995121Y-91875202D03*
X168875000Y-93200000D03*
D15*
X181507655Y-152093861D03*
D16*
X182533715Y-149274784D03*
D17*
X219830001Y-134625000D03*
D16*
X216830002Y-134625000D03*
D18*
X170804898Y-145220101D03*
D16*
X172926218Y-143098781D03*
D19*
X185600000Y-122059000D03*
D20*
X188140000Y-122059000D03*
X190680000Y-122059000D03*
X193220000Y-122059000D03*
X195760000Y-122059000D03*
X198300000Y-122059000D03*
D17*
X219630001Y-111025000D03*
D16*
X216630002Y-111025000D03*
D21*
X208170000Y-123025000D03*
D22*
X213250000Y-123025000D03*
D17*
X164200001Y-134425000D03*
D16*
X167200000Y-134425000D03*
D23*
X213295101Y-145220103D03*
D16*
X211173781Y-143098783D03*
D24*
X223292000Y-122905000D03*
D25*
X202442343Y-152168862D03*
D16*
X201416283Y-149349785D03*
D24*
X160808000Y-122905000D03*
D26*
X190725000Y-133762500D03*
X194200000Y-138775000D03*
X195825000Y-139725000D03*
X196692831Y-137732169D03*
X198425000Y-140225000D03*
X158325000Y-114550000D03*
X205025000Y-143725000D03*
X176554191Y-124448431D03*
X187850000Y-143700000D03*
X195725000Y-141850000D03*
X176225000Y-90150000D03*
X177800000Y-133939176D03*
X189400000Y-156000000D03*
X177250000Y-129925000D03*
X204325000Y-125975000D03*
X192852880Y-136997120D03*
X202449998Y-131725000D03*
X210100000Y-139675000D03*
X173765241Y-100050000D03*
X211675000Y-136000000D03*
X176124265Y-130399265D03*
X173272498Y-134323940D03*
X197675000Y-126200000D03*
X183725000Y-145475000D03*
X219775000Y-136475000D03*
X187300000Y-136625000D03*
X166925000Y-128475000D03*
X190825000Y-151525000D03*
X171600000Y-105350000D03*
X211500000Y-112200000D03*
X197725000Y-134925000D03*
X199300000Y-139600000D03*
X163000000Y-112950000D03*
X191975000Y-160075000D03*
X188725000Y-127250000D03*
X175211127Y-129615548D03*
X180250000Y-138875000D03*
X202650000Y-136125000D03*
X171625000Y-137150000D03*
X194925000Y-159675000D03*
X171215392Y-133590392D03*
X177800000Y-136275000D03*
X177775000Y-142075000D03*
X170375000Y-110700000D03*
X208525000Y-132275000D03*
X197800000Y-131975000D03*
X170094612Y-108837724D03*
X185950000Y-133575000D03*
X202836014Y-132963986D03*
X182300000Y-137050000D03*
X188304471Y-133418177D03*
X171075020Y-125550000D03*
X212275000Y-156400000D03*
X191775000Y-138860000D03*
X205575000Y-109375000D03*
X192875000Y-155925000D03*
X193150000Y-141600000D03*
X220325000Y-103875000D03*
X176120780Y-133340102D03*
X202525000Y-139275000D03*
X205100000Y-85200000D03*
X170850000Y-131375000D03*
X185600000Y-117875000D03*
X169656128Y-132081128D03*
X205075000Y-133875000D03*
X201400000Y-134645639D03*
X179250000Y-114750000D03*
X169979022Y-126079022D03*
X182425000Y-114775000D03*
X168350000Y-126300000D03*
X180688173Y-128011827D03*
X178950000Y-122900000D03*
X183725000Y-142825000D03*
X183600000Y-141525000D03*
X190125000Y-125100000D03*
X202525000Y-88925000D03*
X202575000Y-91150000D03*
X183900000Y-124725000D03*
X188275000Y-154800000D03*
X186650000Y-154750000D03*
X171075000Y-129475000D03*
X175975000Y-134400000D03*
X175975000Y-135250000D03*
X170225000Y-129712285D03*
X184184620Y-135790380D03*
X176675000Y-119675000D03*
X171200000Y-102550000D03*
X182300000Y-139573285D03*
X197725000Y-136200000D03*
X195600000Y-149375000D03*
X191250000Y-153650000D03*
X197925000Y-130525000D03*
X197600000Y-127575000D03*
X189000000Y-158212180D03*
X188100000Y-152825000D03*
X192725000Y-127950000D03*
X210150000Y-156650000D03*
X177709620Y-144015380D03*
X175213235Y-137561765D03*
X187387559Y-140227855D03*
X183016526Y-126728047D03*
X180750000Y-120175000D03*
X193547120Y-134425000D03*
X193500000Y-132125000D03*
X177082108Y-137167892D03*
X179600000Y-133350000D03*
X189775000Y-124100000D03*
X186900000Y-123375000D03*
X192325000Y-123325000D03*
X206606838Y-136872008D03*
X173522500Y-132579124D03*
X188423290Y-141030603D03*
X171200000Y-124375000D03*
X205208945Y-136891895D03*
X209800000Y-133950000D03*
X184500000Y-139575000D03*
X174713973Y-135491315D03*
X168075020Y-124730331D03*
X210600000Y-131500000D03*
X171625000Y-123500000D03*
X208700000Y-143750000D03*
X203375000Y-145425000D03*
X203732169Y-140482169D03*
X175525000Y-122600000D03*
X206125000Y-140150000D03*
X189425000Y-140160000D03*
X183150000Y-105675000D03*
X177250000Y-121100000D03*
X177250000Y-122650000D03*
X178424454Y-121100000D03*
X184970221Y-131237499D03*
X178175000Y-131575000D03*
X212600000Y-115350000D03*
X182178846Y-132305830D03*
X168824265Y-131800735D03*
X170261765Y-134463235D03*
X175963054Y-136049913D03*
X179200000Y-131125000D03*
X175750958Y-129025136D03*
D27*
X195825000Y-139725000D02*
X195925000Y-139625000D01*
X190725000Y-133762500D02*
X190937133Y-133762500D01*
X195650000Y-138775000D02*
X196692831Y-137732169D01*
X194200000Y-137025367D02*
X194200000Y-138775000D01*
X195925000Y-139625000D02*
X196400000Y-139625000D01*
X190937133Y-133762500D02*
X194200000Y-137025367D01*
X197000000Y-140225000D02*
X198425000Y-140225000D01*
X194200000Y-138775000D02*
X195650000Y-138775000D01*
X196400000Y-139625000D02*
X197000000Y-140225000D01*
D28*
X189200000Y-127725000D02*
X190050000Y-127725000D01*
D27*
X197725000Y-134925000D02*
X197725000Y-132050000D01*
X168502283Y-128475000D02*
X166925000Y-128475000D01*
D29*
X177775000Y-142075000D02*
X180325000Y-142075000D01*
D27*
X171075020Y-125550000D02*
X171075020Y-125902263D01*
D29*
X176124265Y-130399265D02*
X175994844Y-130399265D01*
D27*
X197725000Y-132050000D02*
X197800000Y-131975000D01*
D28*
X188725000Y-127250000D02*
X189200000Y-127725000D01*
D29*
X169656128Y-132081128D02*
X170362256Y-131375000D01*
X170362256Y-131375000D02*
X170850000Y-131375000D01*
D27*
X171075020Y-125902263D02*
X168502283Y-128475000D01*
X170375000Y-110700000D02*
X170375000Y-109118112D01*
D29*
X175994844Y-130399265D02*
X175211127Y-129615548D01*
D28*
X190050000Y-127725000D02*
X191575000Y-126200000D01*
D29*
X180325000Y-142075000D02*
X183725000Y-145475000D01*
D27*
X177800000Y-133939176D02*
X177800000Y-136275000D01*
X170375000Y-109118112D02*
X170094612Y-108837724D01*
D28*
X191575000Y-126200000D02*
X197675000Y-126200000D01*
D27*
X201400000Y-134645639D02*
X202170639Y-133875000D01*
X202170639Y-133875000D02*
X205075000Y-133875000D01*
D28*
X179250000Y-114750000D02*
X182400000Y-114750000D01*
X168570978Y-126079022D02*
X168350000Y-126300000D01*
X182400000Y-114750000D02*
X182425000Y-114775000D01*
X178225000Y-124982968D02*
X178225000Y-123676347D01*
X169979022Y-126079022D02*
X168570978Y-126079022D01*
X178225000Y-123676347D02*
X178950000Y-122951347D01*
X178950000Y-122951347D02*
X178950000Y-122900000D01*
X180688173Y-127446141D02*
X178225000Y-124982968D01*
X180688173Y-128011827D02*
X180688173Y-127446141D01*
D27*
X183600000Y-142700000D02*
X183725000Y-142825000D01*
X183600000Y-141525000D02*
X183600000Y-142700000D01*
D30*
X202525000Y-88925000D02*
X202525000Y-91100000D01*
X202525000Y-91100000D02*
X202575000Y-91150000D01*
X190125000Y-125100000D02*
X184275000Y-125100000D01*
X184275000Y-125100000D02*
X183900000Y-124725000D01*
D27*
X186650000Y-154750000D02*
X186700000Y-154800000D01*
X186700000Y-154800000D02*
X188275000Y-154800000D01*
D29*
X175225000Y-132825001D02*
X175225000Y-133934314D01*
X172476701Y-130373529D02*
X172828172Y-130725000D01*
X175690686Y-134400000D02*
X175975000Y-134400000D01*
X175225000Y-133934314D02*
X175690686Y-134400000D01*
X172828172Y-130725000D02*
X173125000Y-130725000D01*
X171875000Y-129475000D02*
X172476701Y-130076701D01*
X172476701Y-130076701D02*
X172476701Y-130373529D01*
X171075000Y-129475000D02*
X171875000Y-129475000D01*
X173125000Y-130725000D02*
X175225000Y-132825001D01*
X170826471Y-130312285D02*
X172076701Y-130312285D01*
X170225000Y-129712285D02*
X170475000Y-129712285D01*
X174825000Y-134100000D02*
X175975000Y-135250000D01*
X172076701Y-130539215D02*
X172662487Y-131125000D01*
X170475000Y-129960814D02*
X170826471Y-130312285D01*
X172662487Y-131125000D02*
X172959314Y-131125000D01*
X170475000Y-129712285D02*
X170475000Y-129960814D01*
X172959314Y-131125000D02*
X174825000Y-132990686D01*
X172076701Y-130312285D02*
X172076701Y-130539215D01*
X174825000Y-132990686D02*
X174825000Y-134100000D01*
D27*
X190975000Y-125452082D02*
X190477082Y-125950000D01*
X188954471Y-133687416D02*
X188573710Y-134068177D01*
X181184925Y-119125000D02*
X182818925Y-120759000D01*
X176675000Y-119675000D02*
X177225000Y-119125000D01*
X190477082Y-125950000D02*
X184630026Y-125950000D01*
X198838478Y-120759000D02*
X199600000Y-121520522D01*
X177225000Y-119125000D02*
X181184925Y-119125000D01*
X187681823Y-134068177D02*
X185959620Y-135790380D01*
X199600000Y-122597478D02*
X196745396Y-125452082D01*
X184630026Y-125950000D02*
X188954471Y-130274445D01*
X185959620Y-135790380D02*
X184184620Y-135790380D01*
X188573710Y-134068177D02*
X187681823Y-134068177D01*
X199600000Y-121520522D02*
X199600000Y-122597478D01*
X196745396Y-125452082D02*
X190975000Y-125452082D01*
X188954471Y-130274445D02*
X188954471Y-133687416D01*
X182818925Y-120759000D02*
X198838478Y-120759000D01*
X182300000Y-139573285D02*
X182950000Y-138923285D01*
X172775000Y-104125000D02*
X171200000Y-102550000D01*
X182950000Y-138923285D02*
X182950000Y-134992893D01*
X183125000Y-134817893D02*
X183125000Y-132182106D01*
X183125000Y-132182106D02*
X182344524Y-131401630D01*
X176738915Y-126396021D02*
X175826663Y-126396021D01*
X181744524Y-131401630D02*
X176738915Y-126396021D01*
X182344524Y-131401630D02*
X181744524Y-131401630D01*
X182950000Y-134992893D02*
X183125000Y-134817893D01*
X175826663Y-126396021D02*
X172775000Y-123344358D01*
X172775000Y-123344358D02*
X172775000Y-104125000D01*
X195600000Y-149375000D02*
X201050000Y-143925000D01*
X201050000Y-143925000D02*
X201050000Y-141637133D01*
X201050000Y-141637133D02*
X201425000Y-141262133D01*
X198300000Y-136200000D02*
X197725000Y-136200000D01*
X201425000Y-141262133D02*
X201425000Y-139325000D01*
X201425000Y-139325000D02*
X198300000Y-136200000D01*
X196600000Y-135994239D02*
X196600000Y-131850000D01*
X191250000Y-153650000D02*
X191250000Y-152850000D01*
X200550000Y-141430027D02*
X200925000Y-141055027D01*
X196600000Y-131850000D02*
X197925000Y-130525000D01*
X198242894Y-136850000D02*
X197455761Y-136850000D01*
X195330761Y-148725000D02*
X195375000Y-148725000D01*
X197455761Y-136850000D02*
X196600000Y-135994239D01*
X194950000Y-149105761D02*
X195330761Y-148725000D01*
X200925000Y-139532106D02*
X198242894Y-136850000D01*
X200925000Y-141055027D02*
X200925000Y-139532106D01*
X194950000Y-149150000D02*
X194950000Y-149105761D01*
X200550000Y-143550000D02*
X200550000Y-141430027D01*
X195375000Y-148725000D02*
X200550000Y-143550000D01*
X191250000Y-152850000D02*
X194950000Y-149150000D01*
X197248655Y-137350000D02*
X196100000Y-136201345D01*
X195925000Y-129250000D02*
X197600000Y-127575000D01*
X195925000Y-131342893D02*
X195925000Y-129250000D01*
X190600000Y-155719239D02*
X190600000Y-152748654D01*
X189475000Y-156650000D02*
X189669239Y-156650000D01*
X200425000Y-139739212D02*
X198035788Y-137350000D01*
X190600000Y-152748654D02*
X200050000Y-143298654D01*
X198035788Y-137350000D02*
X197248655Y-137350000D01*
X200050000Y-141222921D02*
X200425000Y-140847921D01*
X189000000Y-158212180D02*
X189000000Y-157125000D01*
X196100000Y-131517893D02*
X195925000Y-131342893D01*
X189669239Y-156650000D02*
X190600000Y-155719239D01*
X200425000Y-140847921D02*
X200425000Y-139739212D01*
X196100000Y-136201345D02*
X196100000Y-131517893D01*
X189000000Y-157125000D02*
X189475000Y-156650000D01*
X200050000Y-143298654D02*
X200050000Y-141222921D01*
X195600000Y-128867893D02*
X195425000Y-129042893D01*
X195600000Y-131725000D02*
X195600000Y-136883452D01*
X195425000Y-131550000D02*
X195600000Y-131725000D01*
X192725000Y-127950000D02*
X194800000Y-127950000D01*
X194765191Y-136883452D02*
X190994239Y-133112500D01*
X195600000Y-128750000D02*
X195600000Y-128867893D01*
X190075000Y-133493261D02*
X190075000Y-150850000D01*
X195600000Y-136883452D02*
X194765191Y-136883452D01*
X190994239Y-133112500D02*
X190455761Y-133112500D01*
X190455761Y-133112500D02*
X190075000Y-133493261D01*
X194800000Y-127950000D02*
X195600000Y-128750000D01*
X190075000Y-150850000D02*
X188100000Y-152825000D01*
X195425000Y-129042893D02*
X195425000Y-131550000D01*
X205900000Y-160900000D02*
X210150000Y-156650000D01*
X182993493Y-148164784D02*
X183643715Y-148815006D01*
X186787430Y-160900000D02*
X205900000Y-160900000D01*
X183643715Y-157756285D02*
X186787430Y-160900000D01*
X182073937Y-148164784D02*
X182993493Y-148164784D01*
X183643715Y-148815006D02*
X183643715Y-157756285D01*
X177709620Y-144015380D02*
X181966481Y-148272241D01*
X181966481Y-148272241D02*
X182073937Y-148164784D01*
D29*
X175496079Y-137561765D02*
X175213235Y-137561765D01*
X187387559Y-140227855D02*
X186090414Y-141525000D01*
X182951471Y-141025000D02*
X178959314Y-141025000D01*
X178959314Y-141025000D02*
X175496079Y-137561765D01*
X186090414Y-141525000D02*
X184448529Y-141525000D01*
X183848529Y-140925000D02*
X183051471Y-140925000D01*
X184448529Y-141525000D02*
X183848529Y-140925000D01*
X183051471Y-140925000D02*
X182951471Y-141025000D01*
D27*
X180750000Y-124461521D02*
X183016526Y-126728047D01*
X180750000Y-120175000D02*
X180750000Y-124461521D01*
X193500000Y-134377880D02*
X193547120Y-134425000D01*
X193500000Y-132125000D02*
X193500000Y-134377880D01*
X178419239Y-133289176D02*
X177480062Y-133289176D01*
X179600000Y-133350000D02*
X178480063Y-133350000D01*
X178480063Y-133350000D02*
X178419239Y-133289176D01*
X177082108Y-133687130D02*
X177082108Y-137167892D01*
X177480062Y-133289176D02*
X177082108Y-133687130D01*
X189775000Y-124100000D02*
X196259000Y-124100000D01*
X196259000Y-124100000D02*
X198300000Y-122059000D01*
X188625000Y-123375000D02*
X188641000Y-123359000D01*
X188641000Y-123359000D02*
X192291000Y-123359000D01*
X192291000Y-123359000D02*
X192325000Y-123325000D01*
X186900000Y-123375000D02*
X188625000Y-123375000D01*
D29*
X191775000Y-156482843D02*
X191775000Y-155469365D01*
X184825000Y-147602818D02*
X184825000Y-155238604D01*
X201500000Y-145455635D02*
X201500000Y-141823529D01*
X210750000Y-156898529D02*
X206298529Y-161350000D01*
D27*
X188423290Y-142207471D02*
X187200000Y-143430761D01*
X187200000Y-144650000D02*
X187202818Y-144652818D01*
X207725000Y-134100000D02*
X209650000Y-134100000D01*
D29*
X210750000Y-146651471D02*
X210750000Y-156898529D01*
X168996037Y-124375000D02*
X168675020Y-124696017D01*
X170510786Y-132075000D02*
X169617893Y-132967893D01*
X168000000Y-125650000D02*
X166325000Y-127325000D01*
X169142893Y-132967893D02*
X169617893Y-132967893D01*
X201500000Y-141823529D02*
X205208945Y-138114584D01*
X188875000Y-154550000D02*
X188875000Y-155050000D01*
X188400000Y-158575000D02*
X188637180Y-158812180D01*
X205208945Y-138114584D02*
X205208945Y-136891895D01*
X206298529Y-161350000D02*
X186601034Y-161350000D01*
X184825000Y-155238604D02*
X188561396Y-158975000D01*
X203980698Y-139882169D02*
X210750000Y-146651471D01*
D27*
X206606838Y-135218162D02*
X207725000Y-134100000D01*
D29*
X182972782Y-157721748D02*
X182972782Y-151212918D01*
X166325000Y-127325000D02*
X166325000Y-130150000D01*
X173522500Y-132579124D02*
X173018376Y-132075000D01*
X186601034Y-161350000D02*
X182972782Y-157721748D01*
X168675020Y-124978860D02*
X168003880Y-125650000D01*
X191775000Y-155469365D02*
X203132169Y-144112196D01*
X173018376Y-132075000D02*
X170510786Y-132075000D01*
X166325000Y-130150000D02*
X169142893Y-132967893D01*
X169600000Y-137840136D02*
X169600000Y-132985786D01*
D27*
X187202818Y-144652818D02*
X187202818Y-152877818D01*
D29*
X187202818Y-152877818D02*
X188875000Y-154550000D01*
X203132169Y-144112196D02*
X203132169Y-140233640D01*
X203132169Y-140233640D02*
X203483640Y-139882169D01*
D27*
X206606838Y-136872008D02*
X206606838Y-135218162D01*
D29*
X188875000Y-155050000D02*
X188400000Y-155525000D01*
X189600000Y-157355635D02*
X201500000Y-145455635D01*
X188561396Y-158975000D02*
X189282843Y-158975000D01*
X168003880Y-125650000D02*
X168000000Y-125650000D01*
X187202818Y-145225000D02*
X184825000Y-147602818D01*
D27*
X187200000Y-143430761D02*
X187200000Y-144650000D01*
X188423290Y-141030603D02*
X188423290Y-142207471D01*
D29*
X203483640Y-139882169D02*
X203980698Y-139882169D01*
X169600000Y-132985786D02*
X169617893Y-132967893D01*
X189248529Y-158812180D02*
X189600000Y-158460709D01*
X171200000Y-124375000D02*
X168996037Y-124375000D01*
X189600000Y-158460709D02*
X189600000Y-157355635D01*
X168675020Y-124696017D02*
X168675020Y-124978860D01*
X188400000Y-155525000D02*
X188400000Y-158575000D01*
X189282843Y-158975000D02*
X191775000Y-156482843D01*
X182972782Y-151212918D02*
X169600000Y-137840136D01*
X188637180Y-158812180D02*
X189248529Y-158812180D01*
D27*
X209650000Y-134100000D02*
X209800000Y-133950000D01*
X210600000Y-131500000D02*
X210600000Y-134069239D01*
X188569108Y-139965545D02*
X185114446Y-143420207D01*
D29*
X174950000Y-135950000D02*
X174950000Y-135800000D01*
D27*
X189469239Y-159425000D02*
X192225000Y-156669239D01*
X184375000Y-143876810D02*
X184375000Y-155425000D01*
D29*
X168075020Y-124730331D02*
X169305351Y-123500000D01*
D27*
X203732169Y-144148592D02*
X203732169Y-140482169D01*
X185114446Y-143420207D02*
X184831603Y-143420207D01*
X203375000Y-145150000D02*
X203052880Y-144827880D01*
D29*
X182900244Y-140525000D02*
X182548529Y-140173285D01*
D27*
X184725000Y-139350000D02*
X187953563Y-139350000D01*
X210069239Y-134600000D02*
X207932106Y-134600000D01*
X210600000Y-134069239D02*
X210069239Y-134600000D01*
X207256838Y-135275268D02*
X207256838Y-142306838D01*
X203375000Y-145425000D02*
X203375000Y-145150000D01*
D29*
X182548529Y-140173285D02*
X179173285Y-140173285D01*
D27*
X187953563Y-139350000D02*
X188569108Y-139965545D01*
D29*
X184500000Y-139575000D02*
X183550000Y-140525000D01*
X179173285Y-140173285D02*
X174950000Y-135950000D01*
X169305351Y-123500000D02*
X171625000Y-123500000D01*
D27*
X207932106Y-134600000D02*
X207256838Y-135275268D01*
X207256838Y-142306838D02*
X208700000Y-143750000D01*
X184375000Y-155425000D02*
X188375000Y-159425000D01*
D29*
X174713973Y-135563973D02*
X174713973Y-135491315D01*
D27*
X184831603Y-143420207D02*
X184375000Y-143876810D01*
X184500000Y-139575000D02*
X184725000Y-139350000D01*
X192225000Y-156669239D02*
X192225000Y-155655761D01*
D29*
X174950000Y-135800000D02*
X174713973Y-135563973D01*
D27*
X192225000Y-155655761D02*
X203052880Y-144827880D01*
X188375000Y-159425000D02*
X189469239Y-159425000D01*
D29*
X183550000Y-140525000D02*
X182900244Y-140525000D01*
D27*
X203052880Y-144827880D02*
X203732169Y-144148592D01*
X175525000Y-119616942D02*
X176641942Y-118500000D01*
X175525000Y-122600000D02*
X175525000Y-119616942D01*
X182825001Y-118500000D02*
X183425001Y-119100000D01*
X200225000Y-125822479D02*
X205925000Y-131522479D01*
X176641942Y-118500000D02*
X182825001Y-118500000D01*
X205925000Y-139950000D02*
X206125000Y-140150000D01*
X200225000Y-121332106D02*
X200225000Y-125822479D01*
X183425001Y-119100000D02*
X197992894Y-119100000D01*
X205925000Y-131522479D02*
X205925000Y-139950000D01*
X197992894Y-119100000D02*
X200225000Y-121332106D01*
X185625000Y-138150000D02*
X183450000Y-135975000D01*
X187696141Y-138150000D02*
X185625000Y-138150000D01*
X173300000Y-105675000D02*
X183150000Y-105675000D01*
X189425000Y-140160000D02*
X189069108Y-139804108D01*
X173275000Y-105700000D02*
X173300000Y-105675000D01*
X183450000Y-135200000D02*
X183775000Y-134875000D01*
X176033769Y-125896021D02*
X173275000Y-123137252D01*
X176946021Y-125896021D02*
X176033769Y-125896021D01*
X173275000Y-123137252D02*
X173275000Y-105700000D01*
X182551630Y-130901630D02*
X181951630Y-130901630D01*
X183775000Y-132125000D02*
X182551630Y-130901630D01*
X181951630Y-130901630D02*
X176946021Y-125896021D01*
X183450000Y-135975000D02*
X183450000Y-135200000D01*
X189069108Y-139804108D02*
X189069108Y-139522967D01*
X189069108Y-139522967D02*
X187696141Y-138150000D01*
X183775000Y-134875000D02*
X183775000Y-132125000D01*
X177250000Y-122650000D02*
X177250000Y-121100000D01*
D29*
X180998529Y-119575000D02*
X179949454Y-119575000D01*
X181350000Y-119926471D02*
X180998529Y-119575000D01*
X179949454Y-119575000D02*
X178424454Y-121100000D01*
X184970221Y-126926591D02*
X181350000Y-123306370D01*
X181350000Y-123306370D02*
X181350000Y-119926471D01*
X184970221Y-131237499D02*
X184970221Y-126926591D01*
D27*
X174425294Y-129801018D02*
X174044533Y-129420257D01*
X170585837Y-100248453D02*
X171850000Y-101512616D01*
X178175000Y-131575000D02*
X176100000Y-131575000D01*
X173945257Y-129420257D02*
X172275000Y-127750000D01*
X174425294Y-129900294D02*
X174425294Y-129801018D01*
X172275000Y-127750000D02*
X172275000Y-104332106D01*
X176100000Y-131575000D02*
X174425294Y-129900294D01*
X192444239Y-115350000D02*
X212600000Y-115350000D01*
X172275000Y-104332106D02*
X171142894Y-103200000D01*
X174044533Y-129420257D02*
X173945257Y-129420257D01*
X171850000Y-101512616D02*
X171850000Y-102492894D01*
X183419239Y-105025000D02*
X183800000Y-105405761D01*
X170143270Y-103200000D02*
X168888780Y-101945510D01*
X183800000Y-106705761D02*
X192444239Y-115350000D01*
X168888780Y-100951396D02*
X169591723Y-100248453D01*
X174382106Y-105025000D02*
X183419239Y-105025000D01*
X168888780Y-101945510D02*
X168888780Y-100951396D01*
X171850000Y-102492894D02*
X174382106Y-105025000D01*
X169591723Y-100248453D02*
X170585837Y-100248453D01*
X183800000Y-105405761D02*
X183800000Y-106705761D01*
X171142894Y-103200000D02*
X170143270Y-103200000D01*
D29*
X170125000Y-128875000D02*
X171840685Y-128875000D01*
X168824265Y-130175735D02*
X170125000Y-128875000D01*
X168824265Y-131800735D02*
X168824265Y-130175735D01*
X171840685Y-128875000D02*
X175271515Y-132305830D01*
X175271515Y-132305830D02*
X182178846Y-132305830D01*
X170261765Y-132889707D02*
X170676472Y-132475000D01*
X175926384Y-136049913D02*
X175963054Y-136049913D01*
X172569847Y-132475000D02*
X175375000Y-135280153D01*
X170261765Y-134463235D02*
X170261765Y-132889707D01*
X175375000Y-135498529D02*
X175926384Y-136049913D01*
X170676472Y-132475000D02*
X172569847Y-132475000D01*
X175375000Y-135280153D02*
X175375000Y-135498529D01*
X177323665Y-129025136D02*
X175750958Y-129025136D01*
X179200000Y-131125000D02*
X179200000Y-130901471D01*
X179200000Y-130901471D02*
X177323665Y-129025136D01*
G04 #@! TA.AperFunction,Conductor*
G36*
X193329457Y-81315205D02*
G01*
X193333236Y-81315321D01*
X194609646Y-81374333D01*
X194613380Y-81374563D01*
X195887408Y-81472857D01*
X195891109Y-81473201D01*
X197161437Y-81610675D01*
X197165176Y-81611137D01*
X198430712Y-81787672D01*
X198434389Y-81788243D01*
X199693869Y-82003663D01*
X199697587Y-82004358D01*
X200949806Y-82258456D01*
X200953472Y-82259258D01*
X202197268Y-82551796D01*
X202200937Y-82552718D01*
X203435133Y-82883421D01*
X203438806Y-82884466D01*
X204662212Y-83253012D01*
X204665851Y-83254170D01*
X205877297Y-83660206D01*
X205880899Y-83661475D01*
X207079306Y-84104639D01*
X207082867Y-84106019D01*
X208267035Y-84585869D01*
X208270552Y-84587358D01*
X209439361Y-85103437D01*
X209442831Y-85105033D01*
X210595248Y-85656888D01*
X210598627Y-85658570D01*
X211733522Y-86245662D01*
X211736823Y-86247435D01*
X212853097Y-86869195D01*
X212856359Y-86871078D01*
X213093079Y-87012653D01*
X213952952Y-87526917D01*
X213956199Y-87528928D01*
X215032003Y-88218180D01*
X215035187Y-88220289D01*
X216089315Y-88942383D01*
X216092432Y-88944590D01*
X217123768Y-89698763D01*
X217126816Y-89701064D01*
X217181855Y-89743974D01*
X218134518Y-90486702D01*
X218137457Y-90489068D01*
X218965133Y-91176362D01*
X219120422Y-91305312D01*
X219123322Y-91307796D01*
X220080698Y-92153935D01*
X220083521Y-92156508D01*
X221014413Y-93031754D01*
X221017154Y-93034413D01*
X221920586Y-93937845D01*
X221923245Y-93940586D01*
X222798491Y-94871478D01*
X222801064Y-94874301D01*
X223647203Y-95831677D01*
X223649687Y-95834577D01*
X224465916Y-96817524D01*
X224468311Y-96820499D01*
X225253935Y-97828183D01*
X225256236Y-97831231D01*
X226010409Y-98862567D01*
X226012616Y-98865684D01*
X226734710Y-99919812D01*
X226736819Y-99922996D01*
X227426071Y-100998800D01*
X227428082Y-101002047D01*
X227903667Y-101797247D01*
X228071473Y-102077827D01*
X228083908Y-102098618D01*
X228085816Y-102101923D01*
X228705568Y-103214592D01*
X228707547Y-103218144D01*
X228709349Y-103221500D01*
X228949333Y-103685408D01*
X229296419Y-104356353D01*
X229298121Y-104359771D01*
X229849966Y-105512168D01*
X229851562Y-105515638D01*
X230367641Y-106684447D01*
X230369130Y-106687964D01*
X230848980Y-107872132D01*
X230850360Y-107875693D01*
X231293524Y-109074100D01*
X231294793Y-109077702D01*
X231700829Y-110289148D01*
X231701987Y-110292787D01*
X232070533Y-111516193D01*
X232071578Y-111519866D01*
X232402276Y-112754045D01*
X232403207Y-112757749D01*
X232695733Y-114001494D01*
X232696550Y-114005225D01*
X232950637Y-115257394D01*
X232951339Y-115261148D01*
X233166748Y-116520562D01*
X233167334Y-116524336D01*
X233343858Y-117789798D01*
X233344327Y-117793588D01*
X233481793Y-119063839D01*
X233482146Y-119067641D01*
X233580433Y-120341580D01*
X233580668Y-120345392D01*
X233639677Y-121621744D01*
X233639794Y-121625561D01*
X233659470Y-122903090D01*
X233659470Y-122906910D01*
X233639794Y-124184438D01*
X233639677Y-124188255D01*
X233580668Y-125464607D01*
X233580433Y-125468419D01*
X233482146Y-126742358D01*
X233481793Y-126746160D01*
X233344327Y-128016411D01*
X233343858Y-128020201D01*
X233167334Y-129285663D01*
X233166748Y-129289437D01*
X232951339Y-130548851D01*
X232950637Y-130552605D01*
X232696550Y-131804774D01*
X232695733Y-131808505D01*
X232403207Y-133052250D01*
X232402276Y-133055954D01*
X232071578Y-134290133D01*
X232070533Y-134293806D01*
X231701987Y-135517212D01*
X231700829Y-135520851D01*
X231294793Y-136732297D01*
X231293524Y-136735899D01*
X230850360Y-137934306D01*
X230848980Y-137937867D01*
X230369130Y-139122035D01*
X230367641Y-139125552D01*
X229851562Y-140294361D01*
X229849966Y-140297831D01*
X229298121Y-141450228D01*
X229296419Y-141453646D01*
X228709354Y-142588490D01*
X228707547Y-142591855D01*
X228085817Y-143708074D01*
X228083908Y-143711381D01*
X227428082Y-144807952D01*
X227426071Y-144811199D01*
X226736819Y-145887003D01*
X226734710Y-145890187D01*
X226012616Y-146944315D01*
X226010409Y-146947432D01*
X225256236Y-147978768D01*
X225253935Y-147981816D01*
X224468311Y-148989500D01*
X224465916Y-148992475D01*
X223649687Y-149975422D01*
X223647203Y-149978322D01*
X222801064Y-150935698D01*
X222798491Y-150938521D01*
X221923245Y-151869413D01*
X221920586Y-151872154D01*
X221017154Y-152775586D01*
X221014413Y-152778245D01*
X220083521Y-153653491D01*
X220080698Y-153656064D01*
X219123322Y-154502203D01*
X219120422Y-154504687D01*
X218137475Y-155320916D01*
X218134500Y-155323311D01*
X217126816Y-156108935D01*
X217123768Y-156111236D01*
X216092432Y-156865409D01*
X216089315Y-156867616D01*
X215035187Y-157589710D01*
X215032003Y-157591819D01*
X213956199Y-158281071D01*
X213952952Y-158283082D01*
X212856381Y-158938908D01*
X212853074Y-158940817D01*
X211736855Y-159562547D01*
X211733490Y-159564354D01*
X210598646Y-160151419D01*
X210595228Y-160153121D01*
X209442831Y-160704966D01*
X209439361Y-160706562D01*
X208270552Y-161222641D01*
X208267035Y-161224130D01*
X207163181Y-161671435D01*
X207093656Y-161678369D01*
X207031420Y-161646614D01*
X206996231Y-161586252D01*
X206999263Y-161516448D01*
X207028929Y-161468833D01*
X211141043Y-157356719D01*
X211153223Y-157346038D01*
X211178282Y-157326811D01*
X211274536Y-157201370D01*
X211335044Y-157055291D01*
X211350500Y-156937890D01*
X211355682Y-156898529D01*
X211351561Y-156867226D01*
X211350500Y-156851041D01*
X211350500Y-148405991D01*
X214599302Y-148405991D01*
X214618967Y-148536453D01*
X214638406Y-148665419D01*
X214638407Y-148665421D01*
X214638408Y-148665427D01*
X214715740Y-148916130D01*
X214829569Y-149152500D01*
X214829570Y-149152501D01*
X214829572Y-149152504D01*
X214829574Y-149152508D01*
X214964076Y-149349786D01*
X214977369Y-149369283D01*
X215155816Y-149561605D01*
X215155819Y-149561607D01*
X215155821Y-149561609D01*
X215360945Y-149725190D01*
X215588159Y-149856372D01*
X215832386Y-149952224D01*
X216088172Y-150010606D01*
X216088178Y-150010606D01*
X216088181Y-150010607D01*
X216284286Y-150025303D01*
X216284305Y-150025303D01*
X216284308Y-150025304D01*
X216284310Y-150025304D01*
X216415294Y-150025304D01*
X216415296Y-150025304D01*
X216415298Y-150025303D01*
X216415317Y-150025303D01*
X216611422Y-150010607D01*
X216611424Y-150010606D01*
X216611432Y-150010606D01*
X216867218Y-149952224D01*
X217111445Y-149856372D01*
X217338659Y-149725190D01*
X217543783Y-149561609D01*
X217550607Y-149554255D01*
X217597325Y-149503904D01*
X217722235Y-149369283D01*
X217870030Y-149152508D01*
X217983865Y-148916127D01*
X218061198Y-148665419D01*
X218100302Y-148405986D01*
X218100302Y-148143622D01*
X218061198Y-147884189D01*
X217983865Y-147633481D01*
X217959214Y-147582293D01*
X217870034Y-147397107D01*
X217870033Y-147397106D01*
X217870032Y-147397104D01*
X217870030Y-147397100D01*
X217722235Y-147180325D01*
X217712243Y-147169557D01*
X217543787Y-146988002D01*
X217433694Y-146900206D01*
X217338659Y-146824418D01*
X217111445Y-146693236D01*
X216867218Y-146597384D01*
X216867213Y-146597382D01*
X216867204Y-146597380D01*
X216649620Y-146547718D01*
X216611432Y-146539002D01*
X216611431Y-146539001D01*
X216611427Y-146539001D01*
X216611422Y-146539000D01*
X216415317Y-146524304D01*
X216415296Y-146524304D01*
X216284308Y-146524304D01*
X216284286Y-146524304D01*
X216088181Y-146539000D01*
X216088176Y-146539001D01*
X215832399Y-146597380D01*
X215832380Y-146597386D01*
X215588158Y-146693236D01*
X215360945Y-146824418D01*
X215155816Y-146988002D01*
X214977369Y-147180324D01*
X214829570Y-147397106D01*
X214829569Y-147397107D01*
X214715740Y-147633477D01*
X214638408Y-147884180D01*
X214638407Y-147884185D01*
X214638406Y-147884189D01*
X214626418Y-147963723D01*
X214599302Y-148143616D01*
X214599302Y-148405991D01*
X211350500Y-148405991D01*
X211350500Y-146698958D01*
X211351561Y-146682772D01*
X211351576Y-146682662D01*
X211355682Y-146651471D01*
X211335044Y-146494709D01*
X211274536Y-146348630D01*
X211202450Y-146254686D01*
X211178419Y-146223367D01*
X211178281Y-146223187D01*
X211153229Y-146203965D01*
X211141034Y-146193270D01*
X210167867Y-145220103D01*
X211714652Y-145220103D01*
X211735133Y-145362559D01*
X211794921Y-145493475D01*
X211794924Y-145493480D01*
X211832537Y-145540156D01*
X211832544Y-145540164D01*
X212443169Y-146150787D01*
X212975045Y-146682662D01*
X213021728Y-146720282D01*
X213152644Y-146780070D01*
X213152643Y-146780070D01*
X213170550Y-146782644D01*
X213295101Y-146800552D01*
X213437558Y-146780070D01*
X213568474Y-146720282D01*
X213615157Y-146682664D01*
X214757660Y-145540159D01*
X214795280Y-145493476D01*
X214855068Y-145362560D01*
X214875550Y-145220103D01*
X214855068Y-145077646D01*
X214795280Y-144946730D01*
X214795279Y-144946729D01*
X214795277Y-144946725D01*
X214757664Y-144900049D01*
X214757657Y-144900041D01*
X213615164Y-143757551D01*
X213615162Y-143757549D01*
X213615157Y-143757544D01*
X213568474Y-143719924D01*
X213568467Y-143719921D01*
X213437556Y-143660135D01*
X213437558Y-143660135D01*
X213295101Y-143639654D01*
X213152644Y-143660135D01*
X213021728Y-143719923D01*
X213021723Y-143719926D01*
X212975047Y-143757539D01*
X212975039Y-143757546D01*
X211832549Y-144900039D01*
X211832545Y-144900044D01*
X211832542Y-144900047D01*
X211814256Y-144922738D01*
X211794921Y-144946731D01*
X211794920Y-144946733D01*
X211735133Y-145077646D01*
X211714652Y-145220103D01*
X210167867Y-145220103D01*
X209349656Y-144401892D01*
X209316171Y-144340569D01*
X209321155Y-144270877D01*
X209332344Y-144248238D01*
X209343323Y-144230766D01*
X209414881Y-144116882D01*
X209425788Y-144099524D01*
X209435604Y-144071472D01*
X209485368Y-143929255D01*
X209486041Y-143923284D01*
X209505565Y-143750003D01*
X209505565Y-143749996D01*
X209485369Y-143570750D01*
X209485368Y-143570745D01*
X209465203Y-143513117D01*
X209425789Y-143400478D01*
X209329816Y-143247738D01*
X209202262Y-143120184D01*
X209168204Y-143098784D01*
X209908466Y-143098784D01*
X209927688Y-143318497D01*
X209927690Y-143318507D01*
X209984771Y-143531538D01*
X209984776Y-143531552D01*
X210077984Y-143731437D01*
X210077988Y-143731445D01*
X210204493Y-143912113D01*
X210360450Y-144068070D01*
X210541118Y-144194575D01*
X210541120Y-144194576D01*
X210541123Y-144194578D01*
X210656198Y-144248238D01*
X210741011Y-144287787D01*
X210741013Y-144287787D01*
X210741018Y-144287790D01*
X210954061Y-144344875D01*
X211111003Y-144358605D01*
X211173779Y-144364098D01*
X211173781Y-144364098D01*
X211173783Y-144364098D01*
X211228711Y-144359292D01*
X211393501Y-144344875D01*
X211606544Y-144287790D01*
X211806439Y-144194578D01*
X211987110Y-144068071D01*
X212143069Y-143912112D01*
X212269576Y-143731441D01*
X212362788Y-143531546D01*
X212419873Y-143318503D01*
X212439096Y-143098783D01*
X212433858Y-143038918D01*
X212424919Y-142936744D01*
X212419873Y-142879063D01*
X212362788Y-142666020D01*
X212269576Y-142466126D01*
X212143069Y-142285454D01*
X212143067Y-142285451D01*
X211987111Y-142129495D01*
X211806443Y-142002990D01*
X211806435Y-142002986D01*
X211606550Y-141909778D01*
X211606536Y-141909773D01*
X211393505Y-141852692D01*
X211393503Y-141852691D01*
X211393501Y-141852691D01*
X211393499Y-141852690D01*
X211393495Y-141852690D01*
X211173783Y-141833468D01*
X211173779Y-141833468D01*
X210954066Y-141852690D01*
X210954056Y-141852692D01*
X210741025Y-141909773D01*
X210741016Y-141909777D01*
X210541125Y-142002987D01*
X210541123Y-142002988D01*
X210360449Y-142129496D01*
X210204494Y-142285451D01*
X210077986Y-142466125D01*
X210077985Y-142466127D01*
X209984775Y-142666018D01*
X209984771Y-142666027D01*
X209927690Y-142879058D01*
X209927688Y-142879068D01*
X209908466Y-143098781D01*
X209908466Y-143098784D01*
X209168204Y-143098784D01*
X209147499Y-143085774D01*
X209049521Y-143024210D01*
X208879255Y-142964632D01*
X208879246Y-142964630D01*
X208872012Y-142963815D01*
X208807600Y-142936744D01*
X208798223Y-142928277D01*
X207943657Y-142073711D01*
X207910172Y-142012388D01*
X207907338Y-141986030D01*
X207907338Y-135596076D01*
X207927023Y-135529037D01*
X207943657Y-135508395D01*
X208165233Y-135286819D01*
X208226556Y-135253334D01*
X208252914Y-135250500D01*
X209983734Y-135250500D01*
X209999744Y-135252267D01*
X209999767Y-135252026D01*
X210007528Y-135252758D01*
X210007535Y-135252760D01*
X210077501Y-135250560D01*
X210081396Y-135250500D01*
X210110164Y-135250500D01*
X210114526Y-135249948D01*
X210126178Y-135249030D01*
X210171808Y-135247597D01*
X210192195Y-135241673D01*
X210211235Y-135237731D01*
X210232297Y-135235071D01*
X210274759Y-135218258D01*
X210285796Y-135214480D01*
X210329637Y-135201744D01*
X210347904Y-135190939D01*
X210365375Y-135182380D01*
X210385110Y-135174568D01*
X210422055Y-135147725D01*
X210431797Y-135141326D01*
X210471104Y-135118081D01*
X210486109Y-135103075D01*
X210500907Y-135090436D01*
X210518076Y-135077963D01*
X210547185Y-135042774D01*
X210555029Y-135034154D01*
X210964182Y-134625001D01*
X215564687Y-134625001D01*
X215583909Y-134844714D01*
X215583911Y-134844724D01*
X215640992Y-135057755D01*
X215640997Y-135057769D01*
X215734205Y-135257654D01*
X215734209Y-135257662D01*
X215860714Y-135438330D01*
X216016671Y-135594287D01*
X216197339Y-135720792D01*
X216197341Y-135720793D01*
X216197344Y-135720795D01*
X216317605Y-135776873D01*
X216397232Y-135814004D01*
X216397234Y-135814004D01*
X216397239Y-135814007D01*
X216610282Y-135871092D01*
X216767224Y-135884822D01*
X216830000Y-135890315D01*
X216830002Y-135890315D01*
X216830004Y-135890315D01*
X216890764Y-135884999D01*
X217049722Y-135871092D01*
X217262765Y-135814007D01*
X217462660Y-135720795D01*
X217643331Y-135594288D01*
X217799290Y-135438329D01*
X217803131Y-135432844D01*
X218570001Y-135432844D01*
X218576402Y-135492372D01*
X218576404Y-135492379D01*
X218626646Y-135627086D01*
X218626650Y-135627093D01*
X218712810Y-135742187D01*
X218712813Y-135742190D01*
X218827907Y-135828350D01*
X218827914Y-135828354D01*
X218962621Y-135878596D01*
X218962628Y-135878598D01*
X219022156Y-135884999D01*
X219022173Y-135885000D01*
X219580001Y-135885000D01*
X219580001Y-135071494D01*
X219684840Y-135119373D01*
X219793528Y-135135000D01*
X219866474Y-135135000D01*
X219975162Y-135119373D01*
X220080001Y-135071494D01*
X220080001Y-135885000D01*
X220637829Y-135885000D01*
X220637845Y-135884999D01*
X220697373Y-135878598D01*
X220697380Y-135878596D01*
X220832087Y-135828354D01*
X220832094Y-135828350D01*
X220947188Y-135742190D01*
X220947191Y-135742187D01*
X221033351Y-135627093D01*
X221033355Y-135627086D01*
X221083597Y-135492379D01*
X221083599Y-135492372D01*
X221090000Y-135432844D01*
X221090001Y-135432827D01*
X221090001Y-134875000D01*
X220275573Y-134875000D01*
X220298683Y-134839040D01*
X220323011Y-134756187D01*
X222399500Y-134756187D01*
X222411904Y-134838478D01*
X222438604Y-135015615D01*
X222438605Y-135015617D01*
X222438606Y-135015623D01*
X222515938Y-135266326D01*
X222629767Y-135502696D01*
X222629768Y-135502697D01*
X222629770Y-135502700D01*
X222629772Y-135502704D01*
X222757683Y-135690315D01*
X222777567Y-135719479D01*
X222956014Y-135911801D01*
X222956018Y-135911804D01*
X222956019Y-135911805D01*
X223161143Y-136075386D01*
X223388357Y-136206568D01*
X223632584Y-136302420D01*
X223888370Y-136360802D01*
X223888376Y-136360802D01*
X223888379Y-136360803D01*
X224084484Y-136375499D01*
X224084503Y-136375499D01*
X224084506Y-136375500D01*
X224084508Y-136375500D01*
X224215492Y-136375500D01*
X224215494Y-136375500D01*
X224215496Y-136375499D01*
X224215515Y-136375499D01*
X224411620Y-136360803D01*
X224411622Y-136360802D01*
X224411630Y-136360802D01*
X224667416Y-136302420D01*
X224911643Y-136206568D01*
X225138857Y-136075386D01*
X225343981Y-135911805D01*
X225522433Y-135719479D01*
X225670228Y-135502704D01*
X225683950Y-135474211D01*
X225712642Y-135414630D01*
X225784063Y-135266323D01*
X225861396Y-135015615D01*
X225900500Y-134756182D01*
X225900500Y-134493818D01*
X225861396Y-134234385D01*
X225784063Y-133983677D01*
X225751492Y-133916042D01*
X225670232Y-133747303D01*
X225670231Y-133747302D01*
X225670230Y-133747301D01*
X225670228Y-133747296D01*
X225522433Y-133530521D01*
X225501359Y-133507809D01*
X225343985Y-133338198D01*
X225286829Y-133292618D01*
X225138857Y-133174614D01*
X224911643Y-133043432D01*
X224667416Y-132947580D01*
X224667411Y-132947578D01*
X224667402Y-132947576D01*
X224449818Y-132897914D01*
X224411630Y-132889198D01*
X224411629Y-132889197D01*
X224411625Y-132889197D01*
X224411620Y-132889196D01*
X224215515Y-132874500D01*
X224215494Y-132874500D01*
X224084506Y-132874500D01*
X224084484Y-132874500D01*
X223888379Y-132889196D01*
X223888374Y-132889197D01*
X223632597Y-132947576D01*
X223632578Y-132947582D01*
X223388356Y-133043432D01*
X223161143Y-133174614D01*
X222956014Y-133338198D01*
X222777567Y-133530520D01*
X222629768Y-133747302D01*
X222629767Y-133747303D01*
X222515938Y-133983673D01*
X222438606Y-134234376D01*
X222438605Y-134234381D01*
X222438604Y-134234385D01*
X222425622Y-134320512D01*
X222399500Y-134493812D01*
X222399500Y-134756187D01*
X220323011Y-134756187D01*
X220340001Y-134698327D01*
X220340001Y-134551673D01*
X220298683Y-134410960D01*
X220275573Y-134375000D01*
X221090001Y-134375000D01*
X221090001Y-133817172D01*
X221090000Y-133817155D01*
X221083599Y-133757627D01*
X221083597Y-133757620D01*
X221033355Y-133622913D01*
X221033351Y-133622906D01*
X220947191Y-133507812D01*
X220947188Y-133507809D01*
X220832094Y-133421649D01*
X220832087Y-133421645D01*
X220697380Y-133371403D01*
X220697373Y-133371401D01*
X220637845Y-133365000D01*
X220080001Y-133365000D01*
X220080001Y-134178505D01*
X219975162Y-134130627D01*
X219866474Y-134115000D01*
X219793528Y-134115000D01*
X219684840Y-134130627D01*
X219580001Y-134178505D01*
X219580001Y-133365000D01*
X219022156Y-133365000D01*
X218962628Y-133371401D01*
X218962621Y-133371403D01*
X218827914Y-133421645D01*
X218827907Y-133421649D01*
X218712813Y-133507809D01*
X218712810Y-133507812D01*
X218626650Y-133622906D01*
X218626646Y-133622913D01*
X218576404Y-133757620D01*
X218576402Y-133757627D01*
X218570001Y-133817155D01*
X218570001Y-134375000D01*
X219384429Y-134375000D01*
X219361319Y-134410960D01*
X219320001Y-134551673D01*
X219320001Y-134698327D01*
X219361319Y-134839040D01*
X219384429Y-134875000D01*
X218570001Y-134875000D01*
X218570001Y-135432844D01*
X217803131Y-135432844D01*
X217925797Y-135257658D01*
X218019009Y-135057763D01*
X218076094Y-134844720D01*
X218095317Y-134625000D01*
X218092226Y-134589675D01*
X218083840Y-134493817D01*
X218076094Y-134405280D01*
X218021439Y-134201306D01*
X218019011Y-134192244D01*
X218019010Y-134192243D01*
X218019009Y-134192237D01*
X217925797Y-133992343D01*
X217803130Y-133817155D01*
X217799288Y-133811668D01*
X217643332Y-133655712D01*
X217462664Y-133529207D01*
X217462656Y-133529203D01*
X217262771Y-133435995D01*
X217262757Y-133435990D01*
X217049726Y-133378909D01*
X217049724Y-133378908D01*
X217049722Y-133378908D01*
X217049720Y-133378907D01*
X217049716Y-133378907D01*
X216830004Y-133359685D01*
X216830000Y-133359685D01*
X216610287Y-133378907D01*
X216610277Y-133378909D01*
X216397246Y-133435990D01*
X216397239Y-133435992D01*
X216397239Y-133435993D01*
X216386810Y-133440856D01*
X216197346Y-133529204D01*
X216197344Y-133529205D01*
X216016670Y-133655713D01*
X215860715Y-133811668D01*
X215734207Y-133992342D01*
X215734206Y-133992344D01*
X215640996Y-134192235D01*
X215640992Y-134192244D01*
X215583911Y-134405275D01*
X215583909Y-134405285D01*
X215564687Y-134624998D01*
X215564687Y-134625001D01*
X210964182Y-134625001D01*
X210999513Y-134589670D01*
X211012079Y-134579604D01*
X211011925Y-134579417D01*
X211017933Y-134574444D01*
X211017940Y-134574441D01*
X211041227Y-134549641D01*
X211065865Y-134523406D01*
X211068578Y-134520606D01*
X211088911Y-134500274D01*
X211091606Y-134496799D01*
X211099199Y-134487908D01*
X211130448Y-134454632D01*
X211140674Y-134436029D01*
X211151353Y-134419772D01*
X211164362Y-134403003D01*
X211182491Y-134361105D01*
X211187620Y-134350634D01*
X211209627Y-134310607D01*
X211214905Y-134290045D01*
X211221207Y-134271638D01*
X211229635Y-134252166D01*
X211236777Y-134207064D01*
X211239140Y-134195657D01*
X211250500Y-134151416D01*
X211250500Y-134130188D01*
X211252027Y-134110788D01*
X211255346Y-134089834D01*
X211251050Y-134044386D01*
X211250500Y-134032717D01*
X211250500Y-132005067D01*
X211269507Y-131939094D01*
X211325788Y-131849524D01*
X211325789Y-131849522D01*
X211385368Y-131679255D01*
X211385485Y-131678216D01*
X211405565Y-131500003D01*
X211405565Y-131499996D01*
X211385369Y-131320750D01*
X211385368Y-131320745D01*
X211373884Y-131287926D01*
X211325789Y-131150478D01*
X211307025Y-131120616D01*
X211277508Y-131073639D01*
X211229816Y-130997738D01*
X211102262Y-130870184D01*
X211068881Y-130849209D01*
X210949523Y-130774211D01*
X210779254Y-130714631D01*
X210779249Y-130714630D01*
X210600004Y-130694435D01*
X210599996Y-130694435D01*
X210420750Y-130714630D01*
X210420745Y-130714631D01*
X210250476Y-130774211D01*
X210097737Y-130870184D01*
X209970184Y-130997737D01*
X209874211Y-131150476D01*
X209814631Y-131320745D01*
X209814630Y-131320750D01*
X209794435Y-131499996D01*
X209794435Y-131500003D01*
X209814630Y-131679249D01*
X209814631Y-131679254D01*
X209874211Y-131849524D01*
X209930493Y-131939094D01*
X209949500Y-132005067D01*
X209949500Y-133022523D01*
X209929815Y-133089562D01*
X209877011Y-133135317D01*
X209811620Y-133145744D01*
X209803328Y-133144810D01*
X209800000Y-133144435D01*
X209799999Y-133144435D01*
X209799996Y-133144435D01*
X209620750Y-133164630D01*
X209620745Y-133164631D01*
X209450476Y-133224211D01*
X209297739Y-133320183D01*
X209204740Y-133413182D01*
X209143416Y-133446666D01*
X209117059Y-133449500D01*
X207810505Y-133449500D01*
X207794494Y-133447732D01*
X207794472Y-133447974D01*
X207786705Y-133447240D01*
X207786704Y-133447240D01*
X207716738Y-133449439D01*
X207712843Y-133449500D01*
X207684075Y-133449500D01*
X207684072Y-133449500D01*
X207684057Y-133449501D01*
X207679687Y-133450053D01*
X207668059Y-133450968D01*
X207622435Y-133452402D01*
X207622425Y-133452404D01*
X207602049Y-133458323D01*
X207583008Y-133462266D01*
X207561953Y-133464926D01*
X207561937Y-133464930D01*
X207519486Y-133481737D01*
X207508440Y-133485519D01*
X207464599Y-133498256D01*
X207446327Y-133509062D01*
X207428861Y-133517619D01*
X207409128Y-133525432D01*
X207372193Y-133552266D01*
X207362434Y-133558676D01*
X207323132Y-133581920D01*
X207308126Y-133596926D01*
X207293336Y-133609558D01*
X207276167Y-133622032D01*
X207276165Y-133622034D01*
X207247056Y-133657219D01*
X207239196Y-133665856D01*
X206787181Y-134117872D01*
X206725858Y-134151357D01*
X206656167Y-134146373D01*
X206600233Y-134104502D01*
X206575816Y-134039037D01*
X206575500Y-134030191D01*
X206575500Y-131607980D01*
X206577268Y-131591967D01*
X206577026Y-131591945D01*
X206577758Y-131584189D01*
X206577760Y-131584182D01*
X206575561Y-131514214D01*
X206575500Y-131510319D01*
X206575500Y-131481554D01*
X206575499Y-131481549D01*
X206574949Y-131477195D01*
X206574030Y-131465533D01*
X206572597Y-131419909D01*
X206566676Y-131399531D01*
X206562731Y-131380482D01*
X206560071Y-131359421D01*
X206543261Y-131316966D01*
X206539481Y-131305924D01*
X206538996Y-131304254D01*
X206526744Y-131262080D01*
X206515939Y-131243811D01*
X206507379Y-131226337D01*
X206506351Y-131223741D01*
X206499568Y-131206608D01*
X206472737Y-131169678D01*
X206466323Y-131159914D01*
X206463308Y-131154816D01*
X206443081Y-131120614D01*
X206428075Y-131105608D01*
X206415435Y-131090809D01*
X206402961Y-131073639D01*
X206367780Y-131044535D01*
X206359140Y-131036673D01*
X200911819Y-125589352D01*
X200878334Y-125528029D01*
X200875500Y-125501671D01*
X200875500Y-124072870D01*
X206669500Y-124072870D01*
X206669501Y-124072876D01*
X206675908Y-124132483D01*
X206726202Y-124267328D01*
X206726206Y-124267335D01*
X206812452Y-124382544D01*
X206812455Y-124382547D01*
X206927664Y-124468793D01*
X206927671Y-124468797D01*
X207062517Y-124519091D01*
X207062516Y-124519091D01*
X207069444Y-124519835D01*
X207122127Y-124525500D01*
X209217872Y-124525499D01*
X209277483Y-124519091D01*
X209412331Y-124468796D01*
X209527546Y-124382546D01*
X209613796Y-124267331D01*
X209664091Y-124132483D01*
X209670500Y-124072873D01*
X209670500Y-123025005D01*
X211744357Y-123025005D01*
X211764890Y-123272812D01*
X211764892Y-123272824D01*
X211825936Y-123513881D01*
X211925826Y-123741606D01*
X212061833Y-123949782D01*
X212061836Y-123949785D01*
X212230256Y-124132738D01*
X212426491Y-124285474D01*
X212426493Y-124285475D01*
X212637774Y-124399815D01*
X212645190Y-124403828D01*
X212880386Y-124484571D01*
X213125665Y-124525500D01*
X213374335Y-124525500D01*
X213619614Y-124484571D01*
X213854810Y-124403828D01*
X214073509Y-124285474D01*
X214269744Y-124132738D01*
X214438164Y-123949785D01*
X214574173Y-123741607D01*
X214674063Y-123513881D01*
X214735108Y-123272821D01*
X214735109Y-123272812D01*
X214755643Y-123025005D01*
X214755643Y-123024994D01*
X214745700Y-122905001D01*
X217536583Y-122905001D01*
X217540772Y-123006273D01*
X217556241Y-123380279D01*
X217557687Y-123391882D01*
X217615078Y-123852310D01*
X217682103Y-124171964D01*
X217712697Y-124317871D01*
X217731951Y-124382544D01*
X217848422Y-124773768D01*
X217848429Y-124773786D01*
X217999274Y-125160369D01*
X218021343Y-125216925D01*
X218203411Y-125589352D01*
X218230262Y-125644276D01*
X218473754Y-126052909D01*
X218473767Y-126052928D01*
X218750155Y-126440034D01*
X218750169Y-126440053D01*
X219057600Y-126803037D01*
X219393962Y-127139399D01*
X219756946Y-127446830D01*
X219756965Y-127446844D01*
X220138555Y-127719293D01*
X220144085Y-127723242D01*
X220552724Y-127966738D01*
X220980075Y-128175657D01*
X221423219Y-128348573D01*
X221423226Y-128348575D01*
X221423231Y-128348577D01*
X221559750Y-128389220D01*
X221879129Y-128484303D01*
X222344689Y-128581921D01*
X222816721Y-128640759D01*
X223255685Y-128658915D01*
X223291998Y-128660417D01*
X223292000Y-128660417D01*
X223292002Y-128660417D01*
X223326977Y-128658970D01*
X223767279Y-128640759D01*
X224239311Y-128581921D01*
X224704871Y-128484303D01*
X225121162Y-128360368D01*
X225160768Y-128348577D01*
X225160769Y-128348576D01*
X225160781Y-128348573D01*
X225603925Y-128175657D01*
X226031276Y-127966738D01*
X226439915Y-127723242D01*
X226827050Y-127446833D01*
X227147618Y-127175326D01*
X227190037Y-127139399D01*
X227190043Y-127139394D01*
X227526394Y-126803043D01*
X227526399Y-126803037D01*
X227696025Y-126602760D01*
X227833833Y-126440050D01*
X228110242Y-126052915D01*
X228353738Y-125644276D01*
X228562657Y-125216925D01*
X228735573Y-124773781D01*
X228871303Y-124317871D01*
X228968921Y-123852311D01*
X229027759Y-123380279D01*
X229047417Y-122905000D01*
X229046409Y-122880641D01*
X229042216Y-122779249D01*
X229027759Y-122429721D01*
X228968921Y-121957689D01*
X228871303Y-121492129D01*
X228757504Y-121109883D01*
X228735577Y-121036231D01*
X228735575Y-121036226D01*
X228735573Y-121036219D01*
X228562657Y-120593075D01*
X228353738Y-120165724D01*
X228110242Y-119757085D01*
X228058641Y-119684813D01*
X227833844Y-119369965D01*
X227833830Y-119369946D01*
X227526399Y-119006962D01*
X227190037Y-118670600D01*
X226827053Y-118363169D01*
X226827034Y-118363155D01*
X226439928Y-118086767D01*
X226439909Y-118086754D01*
X226031276Y-117843262D01*
X225925763Y-117791680D01*
X225603925Y-117634343D01*
X225603916Y-117634339D01*
X225603913Y-117634338D01*
X225160786Y-117461429D01*
X225160768Y-117461422D01*
X224799952Y-117354004D01*
X224704871Y-117325697D01*
X224607252Y-117305228D01*
X224239310Y-117228078D01*
X223826116Y-117176574D01*
X223767279Y-117169241D01*
X223608852Y-117162688D01*
X223292002Y-117149583D01*
X223291998Y-117149583D01*
X222816721Y-117169241D01*
X222344689Y-117228078D01*
X221879129Y-117325697D01*
X221423231Y-117461422D01*
X221423213Y-117461429D01*
X220980086Y-117634338D01*
X220980067Y-117634347D01*
X220552723Y-117843262D01*
X220144090Y-118086754D01*
X220144071Y-118086767D01*
X219756965Y-118363155D01*
X219756946Y-118363169D01*
X219393962Y-118670600D01*
X219393957Y-118670606D01*
X219057606Y-119006957D01*
X219057600Y-119006962D01*
X218750169Y-119369946D01*
X218750155Y-119369965D01*
X218473767Y-119757071D01*
X218473754Y-119757090D01*
X218230262Y-120165723D01*
X218021347Y-120593067D01*
X218021338Y-120593086D01*
X217848429Y-121036213D01*
X217848422Y-121036231D01*
X217712697Y-121492129D01*
X217615078Y-121957689D01*
X217556241Y-122429721D01*
X217536583Y-122904998D01*
X217536583Y-122905001D01*
X214745700Y-122905001D01*
X214735109Y-122777187D01*
X214735107Y-122777175D01*
X214674063Y-122536118D01*
X214574173Y-122308393D01*
X214438166Y-122100217D01*
X214400223Y-122059000D01*
X214269744Y-121917262D01*
X214073509Y-121764526D01*
X214073507Y-121764525D01*
X214073506Y-121764524D01*
X213854811Y-121646172D01*
X213854802Y-121646169D01*
X213619616Y-121565429D01*
X213374335Y-121524500D01*
X213125665Y-121524500D01*
X212880383Y-121565429D01*
X212645197Y-121646169D01*
X212645188Y-121646172D01*
X212426493Y-121764524D01*
X212230257Y-121917261D01*
X212061833Y-122100217D01*
X211925826Y-122308393D01*
X211825936Y-122536118D01*
X211764892Y-122777175D01*
X211764890Y-122777187D01*
X211744357Y-123024994D01*
X211744357Y-123025005D01*
X209670500Y-123025005D01*
X209670499Y-121977128D01*
X209664091Y-121917517D01*
X209659633Y-121905565D01*
X209613797Y-121782671D01*
X209613793Y-121782664D01*
X209527547Y-121667455D01*
X209527544Y-121667452D01*
X209412335Y-121581206D01*
X209412328Y-121581202D01*
X209277482Y-121530908D01*
X209277483Y-121530908D01*
X209217883Y-121524501D01*
X209217881Y-121524500D01*
X209217873Y-121524500D01*
X209217864Y-121524500D01*
X207122129Y-121524500D01*
X207122123Y-121524501D01*
X207062516Y-121530908D01*
X206927671Y-121581202D01*
X206927664Y-121581206D01*
X206812455Y-121667452D01*
X206812452Y-121667455D01*
X206726206Y-121782664D01*
X206726202Y-121782671D01*
X206675908Y-121917517D01*
X206669501Y-121977116D01*
X206669501Y-121977123D01*
X206669500Y-121977135D01*
X206669500Y-124072870D01*
X200875500Y-124072870D01*
X200875500Y-121417609D01*
X200877268Y-121401597D01*
X200877026Y-121401575D01*
X200877760Y-121393812D01*
X200877134Y-121373905D01*
X200875561Y-121323828D01*
X200875500Y-121319934D01*
X200875500Y-121291184D01*
X200875499Y-121291177D01*
X200875280Y-121289445D01*
X200874949Y-121286825D01*
X200874031Y-121275168D01*
X200873498Y-121258196D01*
X200872598Y-121229537D01*
X200866676Y-121209156D01*
X200862731Y-121190101D01*
X200860072Y-121169055D01*
X200860071Y-121169053D01*
X200860071Y-121169048D01*
X200843267Y-121126607D01*
X200839484Y-121115558D01*
X200826745Y-121071708D01*
X200826142Y-121070689D01*
X200815936Y-121053430D01*
X200807378Y-121035961D01*
X200799568Y-121016235D01*
X200772721Y-120979285D01*
X200766331Y-120969555D01*
X200743081Y-120930241D01*
X200728075Y-120915235D01*
X200715435Y-120900436D01*
X200702961Y-120883266D01*
X200667780Y-120854162D01*
X200659140Y-120846300D01*
X198513328Y-118700488D01*
X198503255Y-118687914D01*
X198503068Y-118688070D01*
X198498092Y-118682054D01*
X198447061Y-118634134D01*
X198444263Y-118631423D01*
X198423929Y-118611089D01*
X198420442Y-118608384D01*
X198411563Y-118600800D01*
X198378290Y-118569554D01*
X198378282Y-118569548D01*
X198359686Y-118559325D01*
X198343425Y-118548644D01*
X198326657Y-118535637D01*
X198310303Y-118528560D01*
X198284747Y-118517501D01*
X198274288Y-118512377D01*
X198234262Y-118490373D01*
X198234259Y-118490372D01*
X198213695Y-118485092D01*
X198195290Y-118478790D01*
X198175821Y-118470365D01*
X198175815Y-118470363D01*
X198130731Y-118463223D01*
X198119292Y-118460854D01*
X198075074Y-118449500D01*
X198075071Y-118449500D01*
X198053849Y-118449500D01*
X198034449Y-118447973D01*
X198013490Y-118444653D01*
X198013489Y-118444653D01*
X197978369Y-118447973D01*
X197968034Y-118448950D01*
X197956364Y-118449500D01*
X183745809Y-118449500D01*
X183678770Y-118429815D01*
X183658128Y-118413181D01*
X183345435Y-118100488D01*
X183335362Y-118087914D01*
X183335175Y-118088070D01*
X183330199Y-118082054D01*
X183279168Y-118034134D01*
X183276370Y-118031423D01*
X183256036Y-118011089D01*
X183252549Y-118008384D01*
X183243670Y-118000800D01*
X183210397Y-117969554D01*
X183210389Y-117969548D01*
X183191793Y-117959325D01*
X183175532Y-117948644D01*
X183158764Y-117935637D01*
X183142410Y-117928560D01*
X183116854Y-117917501D01*
X183106395Y-117912377D01*
X183066369Y-117890373D01*
X183066366Y-117890372D01*
X183045802Y-117885092D01*
X183027397Y-117878790D01*
X183007928Y-117870365D01*
X183007922Y-117870363D01*
X182962838Y-117863223D01*
X182951399Y-117860854D01*
X182907181Y-117849500D01*
X182907178Y-117849500D01*
X182885956Y-117849500D01*
X182866556Y-117847973D01*
X182845597Y-117844653D01*
X182845596Y-117844653D01*
X182802823Y-117848696D01*
X182800141Y-117848950D01*
X182788471Y-117849500D01*
X176727448Y-117849500D01*
X176711437Y-117847732D01*
X176711415Y-117847974D01*
X176703648Y-117847239D01*
X176633666Y-117849439D01*
X176629771Y-117849500D01*
X176601017Y-117849500D01*
X176601011Y-117849500D01*
X176601005Y-117849501D01*
X176596641Y-117850052D01*
X176585011Y-117850967D01*
X176539375Y-117852401D01*
X176524815Y-117856630D01*
X176518982Y-117858325D01*
X176499938Y-117862269D01*
X176478884Y-117864929D01*
X176478882Y-117864929D01*
X176436438Y-117881733D01*
X176425392Y-117885515D01*
X176381543Y-117898254D01*
X176363267Y-117909063D01*
X176345802Y-117917619D01*
X176326066Y-117925433D01*
X176289129Y-117952269D01*
X176279370Y-117958680D01*
X176240078Y-117981917D01*
X176225066Y-117996929D01*
X176210278Y-118009558D01*
X176193109Y-118022032D01*
X176193107Y-118022034D01*
X176163998Y-118057219D01*
X176156138Y-118065856D01*
X175125483Y-119096511D01*
X175112910Y-119106585D01*
X175113065Y-119106772D01*
X175107058Y-119111741D01*
X175059133Y-119162775D01*
X175056427Y-119165567D01*
X175036090Y-119185905D01*
X175036077Y-119185920D01*
X175033373Y-119189405D01*
X175025806Y-119198264D01*
X174994552Y-119231549D01*
X174984322Y-119250155D01*
X174973646Y-119266406D01*
X174960640Y-119283174D01*
X174960636Y-119283180D01*
X174942508Y-119325072D01*
X174937369Y-119335561D01*
X174915372Y-119375572D01*
X174915372Y-119375573D01*
X174910091Y-119396141D01*
X174903791Y-119414543D01*
X174895364Y-119434015D01*
X174888223Y-119479104D01*
X174885854Y-119490542D01*
X174874500Y-119534759D01*
X174874500Y-119555986D01*
X174872973Y-119575385D01*
X174869653Y-119596347D01*
X174872877Y-119630448D01*
X174873950Y-119641800D01*
X174874500Y-119653470D01*
X174874500Y-122094931D01*
X174855494Y-122160903D01*
X174799211Y-122250477D01*
X174799209Y-122250481D01*
X174739633Y-122420737D01*
X174739630Y-122420750D01*
X174719435Y-122599996D01*
X174719435Y-122600003D01*
X174739630Y-122779249D01*
X174739631Y-122779254D01*
X174799211Y-122949523D01*
X174815511Y-122975464D01*
X174895184Y-123102262D01*
X175022738Y-123229816D01*
X175175478Y-123325789D01*
X175345745Y-123385368D01*
X175345750Y-123385369D01*
X175524996Y-123405565D01*
X175525000Y-123405565D01*
X175525004Y-123405565D01*
X175704249Y-123385369D01*
X175704252Y-123385368D01*
X175704255Y-123385368D01*
X175874522Y-123325789D01*
X176027262Y-123229816D01*
X176154816Y-123102262D01*
X176250789Y-122949522D01*
X176261710Y-122918312D01*
X176302432Y-122861536D01*
X176367384Y-122835788D01*
X176435946Y-122849244D01*
X176486349Y-122897631D01*
X176495794Y-122918311D01*
X176524211Y-122999522D01*
X176620184Y-123152262D01*
X176747738Y-123279816D01*
X176754965Y-123284357D01*
X176885196Y-123366187D01*
X176900478Y-123375789D01*
X177070745Y-123435368D01*
X177070750Y-123435369D01*
X177249996Y-123455565D01*
X177250000Y-123455565D01*
X177250004Y-123455565D01*
X177338083Y-123445641D01*
X177406904Y-123457696D01*
X177458284Y-123505045D01*
X177475908Y-123572655D01*
X177475128Y-123583256D01*
X177473662Y-123595799D01*
X177473602Y-123595791D01*
X177472835Y-123603292D01*
X177472895Y-123603298D01*
X177472265Y-123610487D01*
X177474448Y-123685475D01*
X177474500Y-123689082D01*
X177474500Y-124919262D01*
X177473191Y-124937231D01*
X177469710Y-124960993D01*
X177474028Y-125010336D01*
X177474500Y-125021144D01*
X177474500Y-125026679D01*
X177478098Y-125057463D01*
X177478464Y-125061051D01*
X177485000Y-125135759D01*
X177486461Y-125142835D01*
X177486403Y-125142846D01*
X177488034Y-125150205D01*
X177488092Y-125150192D01*
X177489758Y-125157222D01*
X177511339Y-125216516D01*
X177515770Y-125286245D01*
X177481799Y-125347300D01*
X177420211Y-125380297D01*
X177350561Y-125374759D01*
X177335081Y-125367588D01*
X177312816Y-125355348D01*
X177296552Y-125344665D01*
X177279784Y-125331658D01*
X177256457Y-125321564D01*
X177237874Y-125313522D01*
X177227415Y-125308398D01*
X177187389Y-125286394D01*
X177187386Y-125286393D01*
X177166822Y-125281113D01*
X177148417Y-125274811D01*
X177128948Y-125266386D01*
X177128942Y-125266384D01*
X177083858Y-125259244D01*
X177072419Y-125256875D01*
X177028201Y-125245521D01*
X177028198Y-125245521D01*
X177006976Y-125245521D01*
X176987576Y-125243994D01*
X176966617Y-125240674D01*
X176966616Y-125240674D01*
X176931496Y-125243994D01*
X176921161Y-125244971D01*
X176909491Y-125245521D01*
X176354577Y-125245521D01*
X176287538Y-125225836D01*
X176266896Y-125209202D01*
X173961819Y-122904125D01*
X173928334Y-122842802D01*
X173925500Y-122816444D01*
X173925500Y-114750003D01*
X178444435Y-114750003D01*
X178464630Y-114929249D01*
X178464631Y-114929254D01*
X178524211Y-115099523D01*
X178584558Y-115195564D01*
X178620184Y-115252262D01*
X178747738Y-115379816D01*
X178900478Y-115475789D01*
X178995281Y-115508962D01*
X179070745Y-115535368D01*
X179070750Y-115535369D01*
X179249996Y-115555565D01*
X179250000Y-115555565D01*
X179250004Y-115555565D01*
X179429249Y-115535369D01*
X179429252Y-115535368D01*
X179429255Y-115535368D01*
X179509017Y-115507457D01*
X179549972Y-115500500D01*
X182053584Y-115500500D01*
X182094539Y-115507459D01*
X182245737Y-115560366D01*
X182245743Y-115560367D01*
X182245745Y-115560368D01*
X182245746Y-115560368D01*
X182245750Y-115560369D01*
X182424996Y-115580565D01*
X182425000Y-115580565D01*
X182425004Y-115580565D01*
X182604249Y-115560369D01*
X182604252Y-115560368D01*
X182604255Y-115560368D01*
X182774522Y-115500789D01*
X182927262Y-115404816D01*
X183054816Y-115277262D01*
X183150789Y-115124522D01*
X183210368Y-114954255D01*
X183213185Y-114929254D01*
X183230565Y-114775003D01*
X183230565Y-114774996D01*
X183210369Y-114595750D01*
X183210368Y-114595745D01*
X183192414Y-114544435D01*
X183150789Y-114425478D01*
X183135080Y-114400478D01*
X183054815Y-114272737D01*
X182927262Y-114145184D01*
X182774523Y-114049211D01*
X182604254Y-113989631D01*
X182604249Y-113989630D01*
X182425004Y-113969435D01*
X182424996Y-113969435D01*
X182245753Y-113989630D01*
X182245746Y-113989631D01*
X182241016Y-113991286D01*
X182237430Y-113992541D01*
X182196477Y-113999500D01*
X179549972Y-113999500D01*
X179509017Y-113992542D01*
X179429254Y-113964631D01*
X179429249Y-113964630D01*
X179250004Y-113944435D01*
X179249996Y-113944435D01*
X179070750Y-113964630D01*
X179070745Y-113964631D01*
X178900476Y-114024211D01*
X178747737Y-114120184D01*
X178620184Y-114247737D01*
X178524211Y-114400476D01*
X178464631Y-114570745D01*
X178464630Y-114570750D01*
X178444435Y-114749996D01*
X178444435Y-114750003D01*
X173925500Y-114750003D01*
X173925500Y-106449500D01*
X173945185Y-106382461D01*
X173997989Y-106336706D01*
X174049500Y-106325500D01*
X182644932Y-106325500D01*
X182710904Y-106344506D01*
X182800477Y-106400789D01*
X182800481Y-106400790D01*
X182970737Y-106460366D01*
X182970742Y-106460367D01*
X182970745Y-106460368D01*
X183039384Y-106468101D01*
X183103796Y-106495166D01*
X183143352Y-106552760D01*
X183149500Y-106591321D01*
X183149500Y-106620255D01*
X183147732Y-106636266D01*
X183147974Y-106636289D01*
X183147240Y-106644055D01*
X183149439Y-106714023D01*
X183149500Y-106717918D01*
X183149500Y-106746681D01*
X183149501Y-106746699D01*
X183150053Y-106751072D01*
X183150968Y-106762702D01*
X183152402Y-106808328D01*
X183152403Y-106808331D01*
X183158323Y-106828709D01*
X183162268Y-106847757D01*
X183164928Y-106868815D01*
X183164931Y-106868826D01*
X183181737Y-106911275D01*
X183185520Y-106922324D01*
X183198254Y-106966156D01*
X183198255Y-106966158D01*
X183209060Y-106984427D01*
X183217617Y-107001895D01*
X183223226Y-107016061D01*
X183225432Y-107021633D01*
X183252266Y-107058567D01*
X183258678Y-107068329D01*
X183281120Y-107106276D01*
X183281919Y-107107626D01*
X183281923Y-107107630D01*
X183296925Y-107122632D01*
X183309563Y-107137430D01*
X183322033Y-107154594D01*
X183322036Y-107154598D01*
X183357213Y-107183698D01*
X183365854Y-107191561D01*
X191923803Y-115749510D01*
X191933874Y-115762080D01*
X191934061Y-115761926D01*
X191939034Y-115767937D01*
X191990071Y-115815864D01*
X191992868Y-115818575D01*
X192013206Y-115838913D01*
X192016689Y-115841615D01*
X192025565Y-115849196D01*
X192051384Y-115873441D01*
X192058846Y-115880448D01*
X192058849Y-115880450D01*
X192058851Y-115880451D01*
X192077446Y-115890674D01*
X192093707Y-115901356D01*
X192110471Y-115914359D01*
X192110475Y-115914362D01*
X192152377Y-115932494D01*
X192162851Y-115937625D01*
X192202871Y-115959627D01*
X192223443Y-115964908D01*
X192241833Y-115971205D01*
X192261313Y-115979635D01*
X192306414Y-115986777D01*
X192317825Y-115989141D01*
X192362062Y-116000500D01*
X192383284Y-116000500D01*
X192402683Y-116002026D01*
X192423644Y-116005347D01*
X192469099Y-116001050D01*
X192480769Y-116000500D01*
X212094932Y-116000500D01*
X212160904Y-116019506D01*
X212250477Y-116075789D01*
X212250481Y-116075790D01*
X212420737Y-116135366D01*
X212420743Y-116135367D01*
X212420745Y-116135368D01*
X212420746Y-116135368D01*
X212420750Y-116135369D01*
X212599996Y-116155565D01*
X212600000Y-116155565D01*
X212600004Y-116155565D01*
X212779249Y-116135369D01*
X212779252Y-116135368D01*
X212779255Y-116135368D01*
X212949522Y-116075789D01*
X213102262Y-115979816D01*
X213229816Y-115852262D01*
X213325789Y-115699522D01*
X213385368Y-115529255D01*
X213385369Y-115529249D01*
X213405565Y-115350003D01*
X213405565Y-115349996D01*
X213385369Y-115170750D01*
X213385368Y-115170745D01*
X213325789Y-115000478D01*
X213229816Y-114847738D01*
X213102262Y-114720184D01*
X213039096Y-114680494D01*
X212949523Y-114624211D01*
X212779254Y-114564631D01*
X212779249Y-114564630D01*
X212600004Y-114544435D01*
X212599996Y-114544435D01*
X212420750Y-114564630D01*
X212420737Y-114564633D01*
X212250481Y-114624209D01*
X212250477Y-114624210D01*
X212160904Y-114680494D01*
X212094932Y-114699500D01*
X192765047Y-114699500D01*
X192698008Y-114679815D01*
X192677366Y-114663181D01*
X189039186Y-111025001D01*
X215364687Y-111025001D01*
X215383909Y-111244714D01*
X215383911Y-111244724D01*
X215440992Y-111457755D01*
X215440997Y-111457769D01*
X215534205Y-111657654D01*
X215534209Y-111657662D01*
X215660714Y-111838330D01*
X215816671Y-111994287D01*
X215997339Y-112120792D01*
X215997341Y-112120793D01*
X215997344Y-112120795D01*
X216043992Y-112142547D01*
X216197232Y-112214004D01*
X216197234Y-112214004D01*
X216197239Y-112214007D01*
X216410282Y-112271092D01*
X216567224Y-112284822D01*
X216630000Y-112290315D01*
X216630002Y-112290315D01*
X216630004Y-112290315D01*
X216685061Y-112285498D01*
X216849722Y-112271092D01*
X217062765Y-112214007D01*
X217262660Y-112120795D01*
X217443331Y-111994288D01*
X217599290Y-111838329D01*
X217603112Y-111832870D01*
X218369501Y-111832870D01*
X218369502Y-111832876D01*
X218375909Y-111892483D01*
X218426203Y-112027328D01*
X218426207Y-112027335D01*
X218512453Y-112142544D01*
X218512456Y-112142547D01*
X218627665Y-112228793D01*
X218627672Y-112228797D01*
X218762518Y-112279091D01*
X218762517Y-112279091D01*
X218769445Y-112279835D01*
X218822128Y-112285500D01*
X220437873Y-112285499D01*
X220497484Y-112279091D01*
X220632332Y-112228796D01*
X220747547Y-112142546D01*
X220833797Y-112027331D01*
X220884092Y-111892483D01*
X220890501Y-111832873D01*
X220890501Y-111156187D01*
X222199500Y-111156187D01*
X222212844Y-111244714D01*
X222238604Y-111415615D01*
X222238605Y-111415617D01*
X222238606Y-111415623D01*
X222315938Y-111666326D01*
X222429767Y-111902696D01*
X222429768Y-111902697D01*
X222429770Y-111902700D01*
X222429772Y-111902704D01*
X222514744Y-112027335D01*
X222577567Y-112119479D01*
X222756014Y-112311801D01*
X222756018Y-112311804D01*
X222756019Y-112311805D01*
X222961143Y-112475386D01*
X223188357Y-112606568D01*
X223432584Y-112702420D01*
X223688370Y-112760802D01*
X223688376Y-112760802D01*
X223688379Y-112760803D01*
X223884484Y-112775499D01*
X223884503Y-112775499D01*
X223884506Y-112775500D01*
X223884508Y-112775500D01*
X224015492Y-112775500D01*
X224015494Y-112775500D01*
X224015496Y-112775499D01*
X224015515Y-112775499D01*
X224211620Y-112760803D01*
X224211622Y-112760802D01*
X224211630Y-112760802D01*
X224467416Y-112702420D01*
X224711643Y-112606568D01*
X224938857Y-112475386D01*
X225143981Y-112311805D01*
X225168389Y-112285500D01*
X225221002Y-112228796D01*
X225322433Y-112119479D01*
X225470228Y-111902704D01*
X225584063Y-111666323D01*
X225661396Y-111415615D01*
X225700500Y-111156182D01*
X225700500Y-110893818D01*
X225661396Y-110634385D01*
X225584063Y-110383677D01*
X225503858Y-110217129D01*
X225470232Y-110147303D01*
X225470231Y-110147302D01*
X225470230Y-110147301D01*
X225470228Y-110147296D01*
X225322433Y-109930521D01*
X225234726Y-109835995D01*
X225143985Y-109738198D01*
X225015302Y-109635577D01*
X224938857Y-109574614D01*
X224711643Y-109443432D01*
X224467416Y-109347580D01*
X224467411Y-109347578D01*
X224467402Y-109347576D01*
X224249818Y-109297914D01*
X224211630Y-109289198D01*
X224211629Y-109289197D01*
X224211625Y-109289197D01*
X224211620Y-109289196D01*
X224015515Y-109274500D01*
X224015494Y-109274500D01*
X223884506Y-109274500D01*
X223884484Y-109274500D01*
X223688379Y-109289196D01*
X223688374Y-109289197D01*
X223432597Y-109347576D01*
X223432578Y-109347582D01*
X223188356Y-109443432D01*
X222961143Y-109574614D01*
X222756014Y-109738198D01*
X222577567Y-109930520D01*
X222429768Y-110147302D01*
X222429767Y-110147303D01*
X222315938Y-110383673D01*
X222238606Y-110634376D01*
X222238605Y-110634381D01*
X222238604Y-110634385D01*
X222237715Y-110640284D01*
X222199500Y-110893812D01*
X222199500Y-111156187D01*
X220890501Y-111156187D01*
X220890500Y-110217128D01*
X220884092Y-110157517D01*
X220880282Y-110147303D01*
X220833798Y-110022671D01*
X220833794Y-110022664D01*
X220747548Y-109907455D01*
X220747545Y-109907452D01*
X220632336Y-109821206D01*
X220632329Y-109821202D01*
X220497483Y-109770908D01*
X220497484Y-109770908D01*
X220437884Y-109764501D01*
X220437882Y-109764500D01*
X220437874Y-109764500D01*
X220437865Y-109764500D01*
X218822130Y-109764500D01*
X218822124Y-109764501D01*
X218762517Y-109770908D01*
X218627672Y-109821202D01*
X218627665Y-109821206D01*
X218512456Y-109907452D01*
X218512453Y-109907455D01*
X218426207Y-110022664D01*
X218426203Y-110022671D01*
X218375909Y-110157517D01*
X218369502Y-110217116D01*
X218369502Y-110217123D01*
X218369501Y-110217135D01*
X218369501Y-111832870D01*
X217603112Y-111832870D01*
X217725797Y-111657658D01*
X217819009Y-111457763D01*
X217876094Y-111244720D01*
X217895317Y-111025000D01*
X217876094Y-110805280D01*
X217819009Y-110592237D01*
X217725797Y-110392343D01*
X217599290Y-110211671D01*
X217599288Y-110211668D01*
X217443332Y-110055712D01*
X217262664Y-109929207D01*
X217262656Y-109929203D01*
X217062771Y-109835995D01*
X217062757Y-109835990D01*
X216849726Y-109778909D01*
X216849724Y-109778908D01*
X216849722Y-109778908D01*
X216849720Y-109778907D01*
X216849716Y-109778907D01*
X216630004Y-109759685D01*
X216630000Y-109759685D01*
X216410287Y-109778907D01*
X216410277Y-109778909D01*
X216197246Y-109835990D01*
X216197237Y-109835994D01*
X215997346Y-109929204D01*
X215997344Y-109929205D01*
X215816670Y-110055713D01*
X215660715Y-110211668D01*
X215534207Y-110392342D01*
X215534206Y-110392344D01*
X215440996Y-110592235D01*
X215440992Y-110592244D01*
X215383911Y-110805275D01*
X215383909Y-110805285D01*
X215364687Y-111024998D01*
X215364687Y-111025001D01*
X189039186Y-111025001D01*
X184486819Y-106472634D01*
X184453334Y-106411311D01*
X184450500Y-106384953D01*
X184450500Y-105491262D01*
X184452268Y-105475249D01*
X184452026Y-105475227D01*
X184452758Y-105467471D01*
X184452760Y-105467464D01*
X184450561Y-105397496D01*
X184450500Y-105393601D01*
X184450500Y-105364838D01*
X184450499Y-105364831D01*
X184449949Y-105360477D01*
X184449030Y-105348815D01*
X184447597Y-105303191D01*
X184441676Y-105282813D01*
X184437731Y-105263764D01*
X184435071Y-105242703D01*
X184418261Y-105200248D01*
X184414481Y-105189206D01*
X184401743Y-105145360D01*
X184390941Y-105127096D01*
X184382379Y-105109619D01*
X184381351Y-105107023D01*
X184374568Y-105089890D01*
X184347737Y-105052960D01*
X184341323Y-105043196D01*
X184318082Y-105003898D01*
X184318081Y-105003896D01*
X184303075Y-104988890D01*
X184290435Y-104974091D01*
X184277961Y-104956921D01*
X184242780Y-104927817D01*
X184234140Y-104919955D01*
X183939673Y-104625488D01*
X183929600Y-104612914D01*
X183929413Y-104613070D01*
X183924437Y-104607054D01*
X183873406Y-104559134D01*
X183870608Y-104556423D01*
X183850274Y-104536089D01*
X183846787Y-104533384D01*
X183837908Y-104525800D01*
X183804635Y-104494554D01*
X183804627Y-104494548D01*
X183786031Y-104484325D01*
X183769770Y-104473644D01*
X183753002Y-104460637D01*
X183736648Y-104453560D01*
X183711092Y-104442501D01*
X183700633Y-104437377D01*
X183660607Y-104415373D01*
X183660604Y-104415372D01*
X183640040Y-104410092D01*
X183621635Y-104403790D01*
X183602166Y-104395365D01*
X183602160Y-104395363D01*
X183557076Y-104388223D01*
X183545637Y-104385854D01*
X183501419Y-104374500D01*
X183501416Y-104374500D01*
X183480194Y-104374500D01*
X183460794Y-104372973D01*
X183439835Y-104369653D01*
X183439834Y-104369653D01*
X183404714Y-104372973D01*
X183394379Y-104373950D01*
X183382709Y-104374500D01*
X174702914Y-104374500D01*
X174635875Y-104354815D01*
X174615233Y-104338181D01*
X172536819Y-102259767D01*
X172503334Y-102198444D01*
X172500500Y-102172086D01*
X172500500Y-101598117D01*
X172502268Y-101582104D01*
X172502026Y-101582082D01*
X172502758Y-101574326D01*
X172502760Y-101574319D01*
X172500561Y-101504351D01*
X172500500Y-101500456D01*
X172500500Y-101471693D01*
X172500499Y-101471686D01*
X172499949Y-101467332D01*
X172499030Y-101455670D01*
X172497597Y-101410046D01*
X172491676Y-101389668D01*
X172487731Y-101370619D01*
X172485071Y-101349558D01*
X172468261Y-101307103D01*
X172464481Y-101296061D01*
X172451743Y-101252215D01*
X172440941Y-101233951D01*
X172432379Y-101216474D01*
X172431351Y-101213878D01*
X172424568Y-101196745D01*
X172397737Y-101159815D01*
X172391323Y-101150051D01*
X172368082Y-101110753D01*
X172368081Y-101110751D01*
X172353075Y-101095745D01*
X172340435Y-101080946D01*
X172327961Y-101063776D01*
X172292780Y-101034672D01*
X172284140Y-101026810D01*
X171106271Y-99848941D01*
X171096198Y-99836367D01*
X171096011Y-99836523D01*
X171091035Y-99830507D01*
X171040004Y-99782587D01*
X171037206Y-99779876D01*
X171016872Y-99759542D01*
X171013385Y-99756837D01*
X171004506Y-99749253D01*
X170971233Y-99718007D01*
X170971225Y-99718001D01*
X170952629Y-99707778D01*
X170936368Y-99697097D01*
X170919600Y-99684090D01*
X170903246Y-99677013D01*
X170877690Y-99665954D01*
X170867231Y-99660830D01*
X170827205Y-99638826D01*
X170827202Y-99638825D01*
X170806638Y-99633545D01*
X170788233Y-99627243D01*
X170768764Y-99618818D01*
X170768758Y-99618816D01*
X170723674Y-99611676D01*
X170712235Y-99609307D01*
X170668017Y-99597953D01*
X170668014Y-99597953D01*
X170646792Y-99597953D01*
X170627392Y-99596426D01*
X170606433Y-99593106D01*
X170606432Y-99593106D01*
X170563659Y-99597149D01*
X170560977Y-99597403D01*
X170549307Y-99597953D01*
X169677229Y-99597953D01*
X169661218Y-99596185D01*
X169661196Y-99596427D01*
X169653429Y-99595692D01*
X169583447Y-99597892D01*
X169579552Y-99597953D01*
X169550798Y-99597953D01*
X169550792Y-99597953D01*
X169550786Y-99597954D01*
X169546422Y-99598505D01*
X169534792Y-99599420D01*
X169489156Y-99600854D01*
X169474596Y-99605083D01*
X169468763Y-99606778D01*
X169449719Y-99610722D01*
X169428665Y-99613382D01*
X169428663Y-99613382D01*
X169386219Y-99630186D01*
X169375173Y-99633968D01*
X169331324Y-99646707D01*
X169313048Y-99657516D01*
X169295583Y-99666072D01*
X169275847Y-99673886D01*
X169238910Y-99700722D01*
X169229151Y-99707133D01*
X169189859Y-99730370D01*
X169174847Y-99745382D01*
X169160059Y-99758011D01*
X169142890Y-99770485D01*
X169142888Y-99770487D01*
X169113779Y-99805672D01*
X169105919Y-99814309D01*
X168489263Y-100430965D01*
X168476690Y-100441039D01*
X168476845Y-100441226D01*
X168470838Y-100446195D01*
X168422913Y-100497229D01*
X168420207Y-100500021D01*
X168399870Y-100520359D01*
X168399857Y-100520374D01*
X168397153Y-100523859D01*
X168389586Y-100532718D01*
X168358332Y-100566003D01*
X168348102Y-100584609D01*
X168337426Y-100600860D01*
X168324420Y-100617628D01*
X168324416Y-100617634D01*
X168306288Y-100659526D01*
X168301149Y-100670015D01*
X168279152Y-100710026D01*
X168279152Y-100710027D01*
X168273871Y-100730595D01*
X168267571Y-100748997D01*
X168259144Y-100768469D01*
X168252003Y-100813558D01*
X168249634Y-100824996D01*
X168238280Y-100869213D01*
X168238280Y-100890440D01*
X168236753Y-100909840D01*
X168233433Y-100930799D01*
X168237730Y-100976254D01*
X168238280Y-100987924D01*
X168238280Y-101860004D01*
X168236512Y-101876015D01*
X168236754Y-101876038D01*
X168236020Y-101883804D01*
X168238219Y-101953772D01*
X168238280Y-101957667D01*
X168238280Y-101986430D01*
X168238281Y-101986448D01*
X168238833Y-101990821D01*
X168239748Y-102002451D01*
X168240583Y-102029005D01*
X168223015Y-102096630D01*
X168171675Y-102144022D01*
X168148739Y-102152677D01*
X168061339Y-102176096D01*
X168061335Y-102176098D01*
X167847171Y-102275964D01*
X167847169Y-102275965D01*
X167653597Y-102411505D01*
X167486505Y-102578597D01*
X167350965Y-102772169D01*
X167350964Y-102772171D01*
X167251098Y-102986335D01*
X167251094Y-102986344D01*
X167189938Y-103214586D01*
X167189936Y-103214596D01*
X167169341Y-103449999D01*
X167169341Y-103450000D01*
X167189936Y-103685403D01*
X167189938Y-103685413D01*
X167251094Y-103913655D01*
X167251097Y-103913664D01*
X167261246Y-103935427D01*
X167271738Y-104004504D01*
X167243218Y-104068288D01*
X167184742Y-104106528D01*
X167138057Y-104111360D01*
X166961222Y-104095889D01*
X166961219Y-104095889D01*
X166725816Y-104116484D01*
X166725806Y-104116486D01*
X166497564Y-104177642D01*
X166497555Y-104177646D01*
X166283391Y-104277512D01*
X166283389Y-104277513D01*
X166089817Y-104413053D01*
X165922725Y-104580145D01*
X165787185Y-104773717D01*
X165787184Y-104773719D01*
X165687318Y-104987883D01*
X165687314Y-104987892D01*
X165626158Y-105216134D01*
X165626156Y-105216144D01*
X165605561Y-105451547D01*
X165605561Y-105451550D01*
X165625017Y-105673935D01*
X165611250Y-105742435D01*
X165562635Y-105792618D01*
X165494606Y-105808551D01*
X165464108Y-105802973D01*
X165333134Y-105761563D01*
X165333128Y-105761562D01*
X165189380Y-105758596D01*
X165050622Y-105796249D01*
X165050621Y-105796249D01*
X164928094Y-105871467D01*
X164928089Y-105871472D01*
X164886390Y-105914446D01*
X164886378Y-105914460D01*
X164487540Y-106424948D01*
X164487540Y-106424949D01*
X165209698Y-106989160D01*
X165124340Y-107028143D01*
X165015679Y-107122297D01*
X164937947Y-107243251D01*
X164897798Y-107379986D01*
X164179710Y-106818954D01*
X164179709Y-106818954D01*
X163780869Y-107329446D01*
X163749253Y-107380312D01*
X163749249Y-107380319D01*
X163705907Y-107517402D01*
X163705907Y-107517406D01*
X163702941Y-107661154D01*
X163740594Y-107799912D01*
X163740594Y-107799913D01*
X163815812Y-107922440D01*
X163815817Y-107922445D01*
X163858791Y-107964144D01*
X163858805Y-107964156D01*
X164369293Y-108362993D01*
X164369294Y-108362993D01*
X164932016Y-107642741D01*
X164937947Y-107662939D01*
X165015679Y-107783893D01*
X165124340Y-107878047D01*
X165255125Y-107937775D01*
X165327849Y-107948231D01*
X164763299Y-108670823D01*
X164763299Y-108670824D01*
X165273791Y-109069665D01*
X165324657Y-109101281D01*
X165324664Y-109101285D01*
X165461749Y-109144627D01*
X165605499Y-109147593D01*
X165744257Y-109109940D01*
X165744258Y-109109940D01*
X165866785Y-109034722D01*
X165866790Y-109034717D01*
X165908489Y-108991743D01*
X165908501Y-108991729D01*
X166307338Y-108481240D01*
X166307338Y-108481239D01*
X165585182Y-107917028D01*
X165670540Y-107878047D01*
X165779201Y-107783893D01*
X165856933Y-107662939D01*
X165897081Y-107526203D01*
X166615168Y-108087234D01*
X166615169Y-108087234D01*
X167014010Y-107576743D01*
X167045626Y-107525877D01*
X167045630Y-107525870D01*
X167088972Y-107388787D01*
X167088972Y-107388783D01*
X167091938Y-107245035D01*
X167054285Y-107106277D01*
X167054285Y-107106276D01*
X166980231Y-106985645D01*
X166961933Y-106918213D01*
X166982997Y-106851594D01*
X167036733Y-106806938D01*
X167075096Y-106797243D01*
X167196628Y-106786611D01*
X167424883Y-106725451D01*
X167639050Y-106625583D01*
X167832621Y-106490043D01*
X167999715Y-106322949D01*
X168135255Y-106129378D01*
X168235123Y-105915211D01*
X168296283Y-105686956D01*
X168316879Y-105451548D01*
X168296283Y-105216140D01*
X168235123Y-104987885D01*
X168224973Y-104966119D01*
X168214481Y-104897045D01*
X168242999Y-104833260D01*
X168301475Y-104795019D01*
X168348160Y-104790187D01*
X168494217Y-104802965D01*
X168524999Y-104805659D01*
X168525000Y-104805659D01*
X168525001Y-104805659D01*
X168564234Y-104802226D01*
X168760408Y-104785063D01*
X168988663Y-104723903D01*
X169202830Y-104624035D01*
X169396401Y-104488495D01*
X169563495Y-104321401D01*
X169699035Y-104127830D01*
X169798903Y-103913663D01*
X169798904Y-103913659D01*
X169800756Y-103908572D01*
X169802018Y-103909031D01*
X169835022Y-103854858D01*
X169897861Y-103824314D01*
X169953053Y-103827517D01*
X169960339Y-103829633D01*
X169960344Y-103829636D01*
X170005448Y-103836779D01*
X170016867Y-103839144D01*
X170061093Y-103850500D01*
X170082315Y-103850500D01*
X170101712Y-103852026D01*
X170122675Y-103855347D01*
X170168130Y-103851050D01*
X170179800Y-103850500D01*
X170822086Y-103850500D01*
X170889125Y-103870185D01*
X170909767Y-103886819D01*
X171588181Y-104565233D01*
X171621666Y-104626556D01*
X171624500Y-104652914D01*
X171624500Y-122583677D01*
X171604815Y-122650716D01*
X171552011Y-122696471D01*
X171514384Y-122706897D01*
X171445750Y-122714630D01*
X171275478Y-122774210D01*
X171122736Y-122870185D01*
X171119903Y-122872445D01*
X171117724Y-122873334D01*
X171116842Y-122873889D01*
X171116744Y-122873734D01*
X171055217Y-122898855D01*
X171042588Y-122899500D01*
X169352838Y-122899500D01*
X169336653Y-122898439D01*
X169305351Y-122894318D01*
X169305350Y-122894318D01*
X169227836Y-122904523D01*
X169148590Y-122914955D01*
X169148588Y-122914956D01*
X169002508Y-122975464D01*
X168877069Y-123071716D01*
X168857840Y-123096775D01*
X168847149Y-123108965D01*
X168056485Y-123899629D01*
X167995162Y-123933114D01*
X167982688Y-123935168D01*
X167895770Y-123944961D01*
X167725498Y-124004541D01*
X167572757Y-124100515D01*
X167445204Y-124228068D01*
X167349231Y-124380807D01*
X167289651Y-124551076D01*
X167289650Y-124551081D01*
X167269455Y-124730327D01*
X167269455Y-124730334D01*
X167289650Y-124909580D01*
X167289651Y-124909585D01*
X167349232Y-125079857D01*
X167440043Y-125224380D01*
X167459044Y-125291616D01*
X167438677Y-125358451D01*
X167422731Y-125378033D01*
X165933965Y-126866798D01*
X165921775Y-126877489D01*
X165896716Y-126896718D01*
X165829120Y-126984813D01*
X165800464Y-127022158D01*
X165800461Y-127022163D01*
X165739957Y-127168234D01*
X165739955Y-127168239D01*
X165719318Y-127324998D01*
X165719318Y-127324999D01*
X165723439Y-127356301D01*
X165724500Y-127372487D01*
X165724500Y-130102512D01*
X165723439Y-130118697D01*
X165719318Y-130149998D01*
X165719318Y-130150000D01*
X165727816Y-130214547D01*
X165727816Y-130214548D01*
X165739955Y-130306760D01*
X165739956Y-130306762D01*
X165792841Y-130434439D01*
X165800464Y-130452841D01*
X165896718Y-130578282D01*
X165896719Y-130578283D01*
X165921769Y-130597504D01*
X165933964Y-130608199D01*
X168684696Y-133358932D01*
X168695390Y-133371126D01*
X168701361Y-133378908D01*
X168714611Y-133396175D01*
X168742634Y-133417678D01*
X168742876Y-133417863D01*
X168742896Y-133417880D01*
X168840052Y-133492429D01*
X168840051Y-133492429D01*
X168884439Y-133510814D01*
X168922952Y-133526767D01*
X168977356Y-133570607D01*
X168999421Y-133636901D01*
X168999500Y-133641328D01*
X168999500Y-137792648D01*
X168998439Y-137808833D01*
X168994318Y-137840134D01*
X168994318Y-137840136D01*
X169006950Y-137936084D01*
X169006950Y-137936085D01*
X169014955Y-137996896D01*
X169014956Y-137996898D01*
X169067810Y-138124500D01*
X169075464Y-138142977D01*
X169171718Y-138268418D01*
X169196655Y-138287553D01*
X169196769Y-138287640D01*
X169208964Y-138298335D01*
X172599442Y-141688813D01*
X172632927Y-141750136D01*
X172627943Y-141819828D01*
X172586071Y-141875761D01*
X172543855Y-141896269D01*
X172493460Y-141909772D01*
X172493455Y-141909773D01*
X172493455Y-141909774D01*
X172471043Y-141920224D01*
X172293562Y-142002985D01*
X172293560Y-142002986D01*
X172112886Y-142129494D01*
X171956931Y-142285449D01*
X171830423Y-142466123D01*
X171830422Y-142466125D01*
X171737212Y-142666016D01*
X171737208Y-142666025D01*
X171680127Y-142879056D01*
X171680125Y-142879066D01*
X171660903Y-143098779D01*
X171660903Y-143098782D01*
X171680125Y-143318495D01*
X171680127Y-143318505D01*
X171737208Y-143531536D01*
X171737213Y-143531550D01*
X171830421Y-143731435D01*
X171830425Y-143731443D01*
X171956930Y-143912111D01*
X172112887Y-144068068D01*
X172293555Y-144194573D01*
X172293557Y-144194574D01*
X172293560Y-144194576D01*
X172325668Y-144209548D01*
X172493448Y-144287785D01*
X172493450Y-144287785D01*
X172493455Y-144287788D01*
X172493460Y-144287789D01*
X172493462Y-144287790D01*
X172527224Y-144296836D01*
X172706498Y-144344873D01*
X172863440Y-144358603D01*
X172926216Y-144364096D01*
X172926218Y-144364096D01*
X172926220Y-144364096D01*
X172981148Y-144359290D01*
X173145938Y-144344873D01*
X173358981Y-144287788D01*
X173558876Y-144194576D01*
X173739547Y-144068069D01*
X173895506Y-143912110D01*
X174022013Y-143731439D01*
X174115225Y-143531544D01*
X174128729Y-143481143D01*
X174165093Y-143421484D01*
X174227939Y-143390954D01*
X174297315Y-143399248D01*
X174336185Y-143425556D01*
X181356541Y-150445912D01*
X181390026Y-150507235D01*
X181385042Y-150576927D01*
X181343170Y-150632860D01*
X181277706Y-150657277D01*
X181226450Y-150650115D01*
X181179615Y-150633068D01*
X181121411Y-150618703D01*
X180977498Y-150619844D01*
X180977493Y-150619845D01*
X180839731Y-150661487D01*
X180839728Y-150661488D01*
X180719275Y-150740253D01*
X180719273Y-150740256D01*
X180625891Y-150849769D01*
X180599483Y-150903588D01*
X180599478Y-150903599D01*
X180046862Y-152421900D01*
X180032497Y-152480103D01*
X180033638Y-152624017D01*
X180033639Y-152624022D01*
X180075281Y-152761784D01*
X180075282Y-152761787D01*
X180154047Y-152882240D01*
X180154048Y-152882240D01*
X180154049Y-152882242D01*
X180263563Y-152975624D01*
X180317386Y-153002035D01*
X180843972Y-153193696D01*
X181835694Y-153554653D01*
X181869072Y-153562890D01*
X181893898Y-153569018D01*
X182037816Y-153567877D01*
X182175581Y-153526234D01*
X182180415Y-153523072D01*
X182247295Y-153502855D01*
X182314489Y-153522005D01*
X182360663Y-153574443D01*
X182372282Y-153626851D01*
X182372282Y-157674260D01*
X182371221Y-157690445D01*
X182367100Y-157721746D01*
X182367100Y-157721748D01*
X182372282Y-157761108D01*
X182372282Y-157761109D01*
X182387737Y-157878508D01*
X182387738Y-157878510D01*
X182423205Y-157964136D01*
X182448246Y-158024589D01*
X182503000Y-158095946D01*
X182544501Y-158150031D01*
X182569551Y-158169252D01*
X182581746Y-158179947D01*
X186142833Y-161741034D01*
X186153527Y-161753228D01*
X186172749Y-161778279D01*
X186172750Y-161778280D01*
X186172752Y-161778282D01*
X186298193Y-161874536D01*
X186444272Y-161935044D01*
X186522653Y-161945363D01*
X186601033Y-161955682D01*
X186601034Y-161955682D01*
X186632336Y-161951560D01*
X186648521Y-161950500D01*
X205711751Y-161950500D01*
X205778790Y-161970185D01*
X205824545Y-162022989D01*
X205834489Y-162092147D01*
X205805464Y-162155703D01*
X205751157Y-162192072D01*
X204665851Y-162555829D01*
X204662212Y-162556987D01*
X203438806Y-162925533D01*
X203435133Y-162926578D01*
X202200954Y-163257276D01*
X202197250Y-163258207D01*
X200953505Y-163550733D01*
X200949774Y-163551550D01*
X199697605Y-163805637D01*
X199693851Y-163806339D01*
X198434437Y-164021748D01*
X198430663Y-164022334D01*
X197165201Y-164198858D01*
X197161411Y-164199327D01*
X195891160Y-164336793D01*
X195887358Y-164337146D01*
X194613419Y-164435433D01*
X194609607Y-164435668D01*
X193333255Y-164494677D01*
X193329438Y-164494794D01*
X192051910Y-164514470D01*
X192048090Y-164514470D01*
X190770561Y-164494794D01*
X190766744Y-164494677D01*
X189490392Y-164435668D01*
X189486580Y-164435433D01*
X188212641Y-164337146D01*
X188208839Y-164336793D01*
X186938588Y-164199327D01*
X186934798Y-164198858D01*
X185669336Y-164022334D01*
X185665562Y-164021748D01*
X184406148Y-163806339D01*
X184402394Y-163805637D01*
X183150225Y-163551550D01*
X183146494Y-163550733D01*
X181902749Y-163258207D01*
X181899045Y-163257276D01*
X180664866Y-162926578D01*
X180661193Y-162925533D01*
X179437787Y-162556987D01*
X179434148Y-162555829D01*
X178222702Y-162149793D01*
X178219100Y-162148524D01*
X177020693Y-161705360D01*
X177017132Y-161703980D01*
X175832964Y-161224130D01*
X175829447Y-161222641D01*
X174660638Y-160706562D01*
X174657168Y-160704966D01*
X173504771Y-160153121D01*
X173501353Y-160151419D01*
X172366509Y-159564354D01*
X172363144Y-159562547D01*
X171246925Y-158940817D01*
X171243618Y-158938908D01*
X170147047Y-158283082D01*
X170143800Y-158281071D01*
X169067996Y-157591819D01*
X169064812Y-157589710D01*
X168010684Y-156867616D01*
X168007567Y-156865409D01*
X167213197Y-156284519D01*
X178279628Y-156284519D01*
X178299922Y-156419155D01*
X178318732Y-156543947D01*
X178318733Y-156543949D01*
X178318734Y-156543955D01*
X178396066Y-156794658D01*
X178509895Y-157031028D01*
X178509896Y-157031029D01*
X178509898Y-157031032D01*
X178509900Y-157031036D01*
X178626032Y-157201370D01*
X178657695Y-157247811D01*
X178836142Y-157440133D01*
X178836146Y-157440136D01*
X178836147Y-157440137D01*
X179041271Y-157603718D01*
X179268485Y-157734900D01*
X179512712Y-157830752D01*
X179768498Y-157889134D01*
X179768504Y-157889134D01*
X179768507Y-157889135D01*
X179964612Y-157903831D01*
X179964631Y-157903831D01*
X179964634Y-157903832D01*
X179964636Y-157903832D01*
X180095620Y-157903832D01*
X180095622Y-157903832D01*
X180095624Y-157903831D01*
X180095643Y-157903831D01*
X180291748Y-157889135D01*
X180291750Y-157889134D01*
X180291758Y-157889134D01*
X180547544Y-157830752D01*
X180791771Y-157734900D01*
X181018985Y-157603718D01*
X181224109Y-157440137D01*
X181402561Y-157247811D01*
X181550356Y-157031036D01*
X181563857Y-157003002D01*
X181584031Y-156961109D01*
X181664191Y-156794655D01*
X181741524Y-156543947D01*
X181780628Y-156284514D01*
X181780628Y-156022150D01*
X181741524Y-155762717D01*
X181664191Y-155512009D01*
X181624522Y-155429635D01*
X181550360Y-155275635D01*
X181550359Y-155275634D01*
X181550358Y-155275633D01*
X181550356Y-155275628D01*
X181402561Y-155058853D01*
X181392569Y-155048085D01*
X181224113Y-154866530D01*
X181113033Y-154777947D01*
X181018985Y-154702946D01*
X180791771Y-154571764D01*
X180547544Y-154475912D01*
X180547539Y-154475910D01*
X180547530Y-154475908D01*
X180329946Y-154426246D01*
X180291758Y-154417530D01*
X180291757Y-154417529D01*
X180291753Y-154417529D01*
X180291748Y-154417528D01*
X180095643Y-154402832D01*
X180095622Y-154402832D01*
X179964634Y-154402832D01*
X179964612Y-154402832D01*
X179768507Y-154417528D01*
X179768502Y-154417529D01*
X179512725Y-154475908D01*
X179512706Y-154475914D01*
X179268484Y-154571764D01*
X179041271Y-154702946D01*
X178836142Y-154866530D01*
X178657695Y-155058852D01*
X178509896Y-155275634D01*
X178509895Y-155275635D01*
X178396066Y-155512005D01*
X178318734Y-155762708D01*
X178318733Y-155762713D01*
X178318732Y-155762717D01*
X178309330Y-155825096D01*
X178279628Y-156022144D01*
X178279628Y-156284519D01*
X167213197Y-156284519D01*
X166976231Y-156111236D01*
X166973183Y-156108935D01*
X166195270Y-155502448D01*
X165965489Y-155323303D01*
X165962524Y-155320916D01*
X165695909Y-155099522D01*
X165060355Y-154571764D01*
X164979577Y-154504687D01*
X164976677Y-154502203D01*
X164019301Y-153656064D01*
X164016478Y-153653491D01*
X163085586Y-152778245D01*
X163082845Y-152775586D01*
X162179413Y-151872154D01*
X162176754Y-151869413D01*
X161301508Y-150938521D01*
X161298935Y-150935698D01*
X160452796Y-149978322D01*
X160450312Y-149975422D01*
X160431046Y-149952221D01*
X159634068Y-148992457D01*
X159631688Y-148989500D01*
X159575187Y-148917029D01*
X159176763Y-148405989D01*
X165999697Y-148405989D01*
X166019362Y-148536453D01*
X166038801Y-148665417D01*
X166038802Y-148665419D01*
X166038803Y-148665425D01*
X166116135Y-148916128D01*
X166229964Y-149152498D01*
X166229965Y-149152499D01*
X166229967Y-149152502D01*
X166229969Y-149152506D01*
X166364472Y-149349785D01*
X166377764Y-149369281D01*
X166556211Y-149561603D01*
X166556214Y-149561605D01*
X166556216Y-149561607D01*
X166761340Y-149725188D01*
X166988554Y-149856370D01*
X167232781Y-149952222D01*
X167488567Y-150010604D01*
X167488573Y-150010604D01*
X167488576Y-150010605D01*
X167684681Y-150025301D01*
X167684700Y-150025301D01*
X167684703Y-150025302D01*
X167684705Y-150025302D01*
X167815689Y-150025302D01*
X167815691Y-150025302D01*
X167815693Y-150025301D01*
X167815712Y-150025301D01*
X168011817Y-150010605D01*
X168011819Y-150010604D01*
X168011827Y-150010604D01*
X168267613Y-149952222D01*
X168511840Y-149856370D01*
X168739054Y-149725188D01*
X168944178Y-149561607D01*
X169122630Y-149369281D01*
X169270425Y-149152506D01*
X169384260Y-148916125D01*
X169461593Y-148665417D01*
X169500697Y-148405984D01*
X169500697Y-148143620D01*
X169461593Y-147884187D01*
X169384260Y-147633479D01*
X169359610Y-147582293D01*
X169270429Y-147397105D01*
X169270428Y-147397104D01*
X169270427Y-147397103D01*
X169270425Y-147397098D01*
X169122630Y-147180323D01*
X169112638Y-147169555D01*
X168944182Y-146988000D01*
X168891365Y-146945880D01*
X168739054Y-146824416D01*
X168511840Y-146693234D01*
X168267613Y-146597382D01*
X168267608Y-146597380D01*
X168267599Y-146597378D01*
X168050015Y-146547716D01*
X168011827Y-146539000D01*
X168011826Y-146538999D01*
X168011822Y-146538999D01*
X168011817Y-146538998D01*
X167815712Y-146524302D01*
X167815691Y-146524302D01*
X167684703Y-146524302D01*
X167684681Y-146524302D01*
X167488576Y-146538998D01*
X167488571Y-146538999D01*
X167232794Y-146597378D01*
X167232775Y-146597384D01*
X166988553Y-146693234D01*
X166761340Y-146824416D01*
X166556211Y-146988000D01*
X166377764Y-147180322D01*
X166229965Y-147397104D01*
X166229964Y-147397105D01*
X166116135Y-147633475D01*
X166038803Y-147884178D01*
X166038803Y-147884180D01*
X166038801Y-147884187D01*
X166026813Y-147963723D01*
X165999697Y-148143614D01*
X165999697Y-148405989D01*
X159176763Y-148405989D01*
X158985586Y-148160775D01*
X158846064Y-147981816D01*
X158843763Y-147978768D01*
X158089590Y-146947432D01*
X158087383Y-146944315D01*
X157365289Y-145890187D01*
X157363180Y-145887003D01*
X156935906Y-145220101D01*
X169224449Y-145220101D01*
X169244930Y-145362557D01*
X169304718Y-145493473D01*
X169304721Y-145493478D01*
X169342334Y-145540154D01*
X169342341Y-145540162D01*
X169952968Y-146150787D01*
X170484842Y-146682660D01*
X170531525Y-146720280D01*
X170662441Y-146780068D01*
X170662440Y-146780068D01*
X170680347Y-146782642D01*
X170804898Y-146800550D01*
X170947355Y-146780068D01*
X171078271Y-146720280D01*
X171124954Y-146682662D01*
X172267457Y-145540157D01*
X172305077Y-145493474D01*
X172364865Y-145362558D01*
X172385347Y-145220101D01*
X172364865Y-145077644D01*
X172305077Y-144946728D01*
X172305075Y-144946725D01*
X172305074Y-144946723D01*
X172267461Y-144900047D01*
X172267454Y-144900039D01*
X171124961Y-143757549D01*
X171124954Y-143757542D01*
X171078271Y-143719922D01*
X171021256Y-143693884D01*
X170947353Y-143660133D01*
X170947355Y-143660133D01*
X170804898Y-143639652D01*
X170662441Y-143660133D01*
X170531525Y-143719921D01*
X170531520Y-143719924D01*
X170484844Y-143757537D01*
X170484836Y-143757544D01*
X169342346Y-144900037D01*
X169342343Y-144900041D01*
X169342339Y-144900045D01*
X169342336Y-144900049D01*
X169304718Y-144946729D01*
X169304717Y-144946731D01*
X169244930Y-145077644D01*
X169224449Y-145220101D01*
X156935906Y-145220101D01*
X156673928Y-144811199D01*
X156671917Y-144807952D01*
X156508066Y-144533985D01*
X156016078Y-143711359D01*
X156014182Y-143708074D01*
X156011813Y-143703820D01*
X155392435Y-142591823D01*
X155390662Y-142588522D01*
X154803570Y-141453627D01*
X154801878Y-141450228D01*
X154793502Y-141432737D01*
X154351810Y-140510368D01*
X154250033Y-140297831D01*
X154248437Y-140294361D01*
X153732358Y-139125552D01*
X153730869Y-139122035D01*
X153297273Y-138052011D01*
X153251016Y-137937861D01*
X153249639Y-137934306D01*
X153214815Y-137840136D01*
X152806475Y-136735899D01*
X152805206Y-136732297D01*
X152399170Y-135520851D01*
X152398012Y-135517212D01*
X152374249Y-135438329D01*
X152108507Y-134556187D01*
X158129502Y-134556187D01*
X158147631Y-134676461D01*
X158168606Y-134815615D01*
X158168607Y-134815617D01*
X158168608Y-134815623D01*
X158232751Y-135023570D01*
X158243300Y-135057769D01*
X158245940Y-135066326D01*
X158359769Y-135302696D01*
X158359770Y-135302697D01*
X158359772Y-135302700D01*
X158359774Y-135302704D01*
X158496127Y-135502696D01*
X158507569Y-135519479D01*
X158686016Y-135711801D01*
X158686020Y-135711804D01*
X158686021Y-135711805D01*
X158891145Y-135875386D01*
X159118359Y-136006568D01*
X159362586Y-136102420D01*
X159618372Y-136160802D01*
X159618378Y-136160802D01*
X159618381Y-136160803D01*
X159814486Y-136175499D01*
X159814505Y-136175499D01*
X159814508Y-136175500D01*
X159814510Y-136175500D01*
X159945494Y-136175500D01*
X159945496Y-136175500D01*
X159945498Y-136175499D01*
X159945517Y-136175499D01*
X160141622Y-136160803D01*
X160141624Y-136160802D01*
X160141632Y-136160802D01*
X160397418Y-136102420D01*
X160641645Y-136006568D01*
X160868859Y-135875386D01*
X161073983Y-135711805D01*
X161074648Y-135711089D01*
X161151004Y-135628796D01*
X161252435Y-135519479D01*
X161400230Y-135302704D01*
X161433860Y-135232870D01*
X162939501Y-135232870D01*
X162939502Y-135232876D01*
X162945909Y-135292483D01*
X162996203Y-135427328D01*
X162996207Y-135427335D01*
X163082453Y-135542544D01*
X163082456Y-135542547D01*
X163197665Y-135628793D01*
X163197672Y-135628797D01*
X163332518Y-135679091D01*
X163332517Y-135679091D01*
X163339445Y-135679835D01*
X163392128Y-135685500D01*
X165007873Y-135685499D01*
X165067484Y-135679091D01*
X165202332Y-135628796D01*
X165317547Y-135542546D01*
X165403797Y-135427331D01*
X165454092Y-135292483D01*
X165460501Y-135232873D01*
X165460501Y-134425001D01*
X165934685Y-134425001D01*
X165953907Y-134644714D01*
X165953909Y-134644724D01*
X166010990Y-134857755D01*
X166010995Y-134857769D01*
X166104203Y-135057654D01*
X166104207Y-135057662D01*
X166230712Y-135238330D01*
X166386669Y-135394287D01*
X166567337Y-135520792D01*
X166567339Y-135520793D01*
X166567342Y-135520795D01*
X166656370Y-135562309D01*
X166767230Y-135614004D01*
X166767232Y-135614004D01*
X166767237Y-135614007D01*
X166767242Y-135614008D01*
X166767244Y-135614009D01*
X166801006Y-135623055D01*
X166980280Y-135671092D01*
X167137222Y-135684822D01*
X167199998Y-135690315D01*
X167200000Y-135690315D01*
X167200002Y-135690315D01*
X167255059Y-135685498D01*
X167419720Y-135671092D01*
X167632763Y-135614007D01*
X167832658Y-135520795D01*
X168013329Y-135394288D01*
X168169288Y-135238329D01*
X168295795Y-135057658D01*
X168389007Y-134857763D01*
X168446092Y-134644720D01*
X168465315Y-134425000D01*
X168446092Y-134205280D01*
X168391630Y-134002027D01*
X168389009Y-133992244D01*
X168389008Y-133992243D01*
X168389007Y-133992237D01*
X168295795Y-133792343D01*
X168169288Y-133611671D01*
X168169286Y-133611668D01*
X168013330Y-133455712D01*
X167832662Y-133329207D01*
X167832654Y-133329203D01*
X167632769Y-133235995D01*
X167632755Y-133235990D01*
X167419724Y-133178909D01*
X167419722Y-133178908D01*
X167419720Y-133178908D01*
X167419718Y-133178907D01*
X167419714Y-133178907D01*
X167200002Y-133159685D01*
X167199998Y-133159685D01*
X166980285Y-133178907D01*
X166980275Y-133178909D01*
X166767244Y-133235990D01*
X166767237Y-133235992D01*
X166767237Y-133235993D01*
X166764507Y-133237266D01*
X166567344Y-133329204D01*
X166567342Y-133329205D01*
X166386668Y-133455713D01*
X166230713Y-133611668D01*
X166104205Y-133792342D01*
X166104204Y-133792344D01*
X166010994Y-133992235D01*
X166010990Y-133992244D01*
X165953909Y-134205275D01*
X165953907Y-134205285D01*
X165934685Y-134424998D01*
X165934685Y-134425001D01*
X165460501Y-134425001D01*
X165460500Y-133617128D01*
X165455300Y-133568757D01*
X165454092Y-133557516D01*
X165403798Y-133422671D01*
X165403794Y-133422664D01*
X165317548Y-133307455D01*
X165317545Y-133307452D01*
X165202336Y-133221206D01*
X165202329Y-133221202D01*
X165067483Y-133170908D01*
X165067484Y-133170908D01*
X165007884Y-133164501D01*
X165007882Y-133164500D01*
X165007874Y-133164500D01*
X165007865Y-133164500D01*
X163392130Y-133164500D01*
X163392124Y-133164501D01*
X163332517Y-133170908D01*
X163197672Y-133221202D01*
X163197665Y-133221206D01*
X163082456Y-133307452D01*
X163082453Y-133307455D01*
X162996207Y-133422664D01*
X162996203Y-133422671D01*
X162945909Y-133557517D01*
X162939769Y-133614630D01*
X162939502Y-133617123D01*
X162939501Y-133617135D01*
X162939501Y-135232870D01*
X161433860Y-135232870D01*
X161514065Y-135066323D01*
X161591398Y-134815615D01*
X161630502Y-134556182D01*
X161630502Y-134293818D01*
X161630502Y-134293817D01*
X161630501Y-134293806D01*
X161615191Y-134192237D01*
X161591398Y-134034385D01*
X161514065Y-133783677D01*
X161461349Y-133674211D01*
X161400234Y-133547303D01*
X161400233Y-133547302D01*
X161400232Y-133547301D01*
X161400230Y-133547296D01*
X161252435Y-133330521D01*
X161231030Y-133307452D01*
X161073987Y-133138198D01*
X161009418Y-133086706D01*
X160868859Y-132974614D01*
X160641645Y-132843432D01*
X160397418Y-132747580D01*
X160397413Y-132747578D01*
X160397404Y-132747576D01*
X160165098Y-132694554D01*
X160141632Y-132689198D01*
X160141631Y-132689197D01*
X160141627Y-132689197D01*
X160141622Y-132689196D01*
X159945517Y-132674500D01*
X159945496Y-132674500D01*
X159814508Y-132674500D01*
X159814486Y-132674500D01*
X159618381Y-132689196D01*
X159618376Y-132689197D01*
X159362599Y-132747576D01*
X159362580Y-132747582D01*
X159118358Y-132843432D01*
X158891145Y-132974614D01*
X158686016Y-133138198D01*
X158507569Y-133330520D01*
X158359770Y-133547302D01*
X158359769Y-133547303D01*
X158245940Y-133783673D01*
X158168608Y-134034376D01*
X158168607Y-134034381D01*
X158168606Y-134034385D01*
X158157090Y-134110788D01*
X158129503Y-134293806D01*
X158129502Y-134293817D01*
X158129502Y-134556187D01*
X152108507Y-134556187D01*
X152029464Y-134293801D01*
X152028421Y-134290133D01*
X152002189Y-134192235D01*
X151697718Y-133055937D01*
X151696792Y-133052250D01*
X151694718Y-133043432D01*
X151404258Y-131808472D01*
X151403456Y-131804806D01*
X151149358Y-130552587D01*
X151148660Y-130548851D01*
X150933243Y-129289389D01*
X150932672Y-129285712D01*
X150756137Y-128020176D01*
X150755672Y-128016411D01*
X150755659Y-128016289D01*
X150618201Y-126746109D01*
X150617857Y-126742408D01*
X150519563Y-125468380D01*
X150519333Y-125464646D01*
X150460321Y-124188236D01*
X150460205Y-124184438D01*
X150458959Y-124103550D01*
X150440529Y-122906882D01*
X150440529Y-122905001D01*
X155052583Y-122905001D01*
X155056772Y-123006273D01*
X155072241Y-123380279D01*
X155073687Y-123391882D01*
X155131078Y-123852310D01*
X155198103Y-124171964D01*
X155228697Y-124317871D01*
X155247951Y-124382544D01*
X155364422Y-124773768D01*
X155364429Y-124773786D01*
X155515274Y-125160369D01*
X155537343Y-125216925D01*
X155719411Y-125589352D01*
X155746262Y-125644276D01*
X155989754Y-126052909D01*
X155989767Y-126052928D01*
X156266155Y-126440034D01*
X156266169Y-126440053D01*
X156573600Y-126803037D01*
X156909962Y-127139399D01*
X157272946Y-127446830D01*
X157272965Y-127446844D01*
X157654555Y-127719293D01*
X157660085Y-127723242D01*
X158068724Y-127966738D01*
X158496075Y-128175657D01*
X158939219Y-128348573D01*
X158939226Y-128348575D01*
X158939231Y-128348577D01*
X159075750Y-128389220D01*
X159395129Y-128484303D01*
X159860689Y-128581921D01*
X160332721Y-128640759D01*
X160771685Y-128658915D01*
X160807998Y-128660417D01*
X160808000Y-128660417D01*
X160808002Y-128660417D01*
X160842977Y-128658970D01*
X161283279Y-128640759D01*
X161755311Y-128581921D01*
X162220871Y-128484303D01*
X162637162Y-128360368D01*
X162676768Y-128348577D01*
X162676769Y-128348576D01*
X162676781Y-128348573D01*
X163119925Y-128175657D01*
X163547276Y-127966738D01*
X163955915Y-127723242D01*
X164343050Y-127446833D01*
X164663618Y-127175326D01*
X164706037Y-127139399D01*
X164706043Y-127139394D01*
X165042394Y-126803043D01*
X165042399Y-126803037D01*
X165212025Y-126602760D01*
X165349833Y-126440050D01*
X165626242Y-126052915D01*
X165869738Y-125644276D01*
X166078657Y-125216925D01*
X166251573Y-124773781D01*
X166387303Y-124317871D01*
X166484921Y-123852311D01*
X166543759Y-123380279D01*
X166563417Y-122905000D01*
X166562409Y-122880641D01*
X166558216Y-122779249D01*
X166543759Y-122429721D01*
X166484921Y-121957689D01*
X166387303Y-121492129D01*
X166273504Y-121109883D01*
X166251577Y-121036231D01*
X166251575Y-121036226D01*
X166251573Y-121036219D01*
X166078657Y-120593075D01*
X165869738Y-120165724D01*
X165626242Y-119757085D01*
X165574641Y-119684813D01*
X165349844Y-119369965D01*
X165349830Y-119369946D01*
X165042399Y-119006962D01*
X164706037Y-118670600D01*
X164343053Y-118363169D01*
X164343034Y-118363155D01*
X163955928Y-118086767D01*
X163955909Y-118086754D01*
X163547276Y-117843262D01*
X163441763Y-117791680D01*
X163119925Y-117634343D01*
X163119916Y-117634339D01*
X163119913Y-117634338D01*
X162676786Y-117461429D01*
X162676768Y-117461422D01*
X162315952Y-117354004D01*
X162220871Y-117325697D01*
X162123252Y-117305228D01*
X161755310Y-117228078D01*
X161342116Y-117176574D01*
X161283279Y-117169241D01*
X161124852Y-117162688D01*
X160808002Y-117149583D01*
X160807998Y-117149583D01*
X160332721Y-117169241D01*
X159860689Y-117228078D01*
X159395129Y-117325697D01*
X158939231Y-117461422D01*
X158939213Y-117461429D01*
X158496086Y-117634338D01*
X158496067Y-117634347D01*
X158068723Y-117843262D01*
X157660090Y-118086754D01*
X157660071Y-118086767D01*
X157272965Y-118363155D01*
X157272946Y-118363169D01*
X156909962Y-118670600D01*
X156909957Y-118670606D01*
X156573606Y-119006957D01*
X156573600Y-119006962D01*
X156266169Y-119369946D01*
X156266155Y-119369965D01*
X155989767Y-119757071D01*
X155989754Y-119757090D01*
X155746262Y-120165723D01*
X155537347Y-120593067D01*
X155537338Y-120593086D01*
X155364429Y-121036213D01*
X155364422Y-121036231D01*
X155228697Y-121492129D01*
X155131078Y-121957689D01*
X155072241Y-122429721D01*
X155052583Y-122904998D01*
X155052583Y-122905001D01*
X150440529Y-122905001D01*
X150440529Y-122903090D01*
X150440585Y-122899500D01*
X150460205Y-121625540D01*
X150460322Y-121621744D01*
X150461093Y-121605067D01*
X150519333Y-120345349D01*
X150519563Y-120341622D01*
X150617858Y-119067585D01*
X150618200Y-119063896D01*
X150755676Y-117793554D01*
X150756136Y-117789831D01*
X150932673Y-116524278D01*
X150933241Y-116520620D01*
X151148665Y-115261118D01*
X151149362Y-115257394D01*
X151262732Y-114698691D01*
X152639083Y-114698691D01*
X152656919Y-114890139D01*
X152656920Y-114890145D01*
X152656921Y-114890147D01*
X152691180Y-115002656D01*
X152712937Y-115074107D01*
X152804831Y-115243015D01*
X152804833Y-115243017D01*
X152804834Y-115243019D01*
X152928855Y-115389977D01*
X153079918Y-115508962D01*
X153251841Y-115595103D01*
X154028541Y-115803219D01*
X154170788Y-115826241D01*
X154362913Y-115818123D01*
X154549471Y-115771498D01*
X154722824Y-115688273D01*
X154875875Y-115571855D01*
X155002359Y-115427012D01*
X155097097Y-115259672D01*
X155156210Y-115076688D01*
X155177279Y-114885550D01*
X155166980Y-114775000D01*
X155159442Y-114694090D01*
X155159441Y-114694088D01*
X155159441Y-114694083D01*
X155134434Y-114611958D01*
X155757358Y-114611958D01*
X155765732Y-114810165D01*
X155765733Y-114810177D01*
X155775121Y-114847738D01*
X155813839Y-115002656D01*
X155899705Y-115181510D01*
X155960281Y-115261148D01*
X156019815Y-115339416D01*
X156019817Y-115339418D01*
X156019820Y-115339421D01*
X156120125Y-115427012D01*
X156169253Y-115469913D01*
X156341902Y-115567658D01*
X156530693Y-115628647D01*
X156727896Y-115650385D01*
X156727907Y-115650384D01*
X156925430Y-115631982D01*
X156925431Y-115631981D01*
X156925438Y-115631981D01*
X157115231Y-115574189D01*
X157289506Y-115479375D01*
X157441128Y-115351421D01*
X157442248Y-115350000D01*
X157499539Y-115277262D01*
X157563889Y-115195564D01*
X157652763Y-115018187D01*
X157768888Y-114584803D01*
X157792640Y-114438044D01*
X157784267Y-114239823D01*
X157736161Y-114047346D01*
X157650295Y-113868492D01*
X157650294Y-113868491D01*
X157650294Y-113868490D01*
X157530187Y-113710586D01*
X157530179Y-113710578D01*
X157380749Y-113580088D01*
X157380747Y-113580087D01*
X157364032Y-113570624D01*
X157208098Y-113482343D01*
X157113702Y-113451848D01*
X157019306Y-113421353D01*
X156822108Y-113399615D01*
X156822092Y-113399615D01*
X156624569Y-113418017D01*
X156624562Y-113418019D01*
X156434765Y-113475812D01*
X156260496Y-113570624D01*
X156260495Y-113570624D01*
X156108867Y-113698583D01*
X156108866Y-113698584D01*
X155986111Y-113854435D01*
X155897238Y-114031811D01*
X155897237Y-114031813D01*
X155897237Y-114031814D01*
X155885594Y-114075268D01*
X155781111Y-114465200D01*
X155781110Y-114465206D01*
X155757358Y-114611958D01*
X155134434Y-114611958D01*
X155103426Y-114510126D01*
X155011528Y-114341211D01*
X154953742Y-114272738D01*
X154887511Y-114194257D01*
X154887501Y-114194247D01*
X154736448Y-114075270D01*
X154736446Y-114075269D01*
X154736445Y-114075268D01*
X154634543Y-114024211D01*
X154564522Y-113989127D01*
X153787823Y-113781012D01*
X153787812Y-113781010D01*
X153645570Y-113757988D01*
X153453453Y-113766106D01*
X153453447Y-113766107D01*
X153266888Y-113812732D01*
X153093533Y-113895959D01*
X152940488Y-114012373D01*
X152814000Y-114157221D01*
X152719264Y-114324559D01*
X152660152Y-114507540D01*
X152660151Y-114507542D01*
X152639083Y-114698674D01*
X152639083Y-114698691D01*
X151262732Y-114698691D01*
X151403458Y-114005179D01*
X151404255Y-114001540D01*
X151696800Y-112757715D01*
X151697714Y-112754077D01*
X152028427Y-111519843D01*
X152029466Y-111516193D01*
X152047071Y-111457755D01*
X152398018Y-110292767D01*
X152399170Y-110289148D01*
X152423307Y-110217135D01*
X152569039Y-109782329D01*
X157051453Y-109782329D01*
X157059827Y-109980536D01*
X157059828Y-109980547D01*
X157107934Y-110173027D01*
X157193800Y-110351881D01*
X157224578Y-110392344D01*
X157313910Y-110509787D01*
X157313912Y-110509789D01*
X157313915Y-110509792D01*
X157327657Y-110521792D01*
X157463348Y-110640284D01*
X157635997Y-110738029D01*
X157824788Y-110799018D01*
X158021991Y-110820756D01*
X158022002Y-110820755D01*
X158219525Y-110802353D01*
X158219526Y-110802352D01*
X158219533Y-110802352D01*
X158409326Y-110744560D01*
X158583601Y-110649746D01*
X158735223Y-110521792D01*
X158857984Y-110365935D01*
X158946858Y-110188558D01*
X159062983Y-109755174D01*
X159086735Y-109608415D01*
X159078362Y-109410194D01*
X159030256Y-109217717D01*
X158944390Y-109038863D01*
X158944389Y-109038862D01*
X158944389Y-109038861D01*
X158824282Y-108880957D01*
X158824274Y-108880949D01*
X158674844Y-108750459D01*
X158674842Y-108750458D01*
X158534181Y-108670824D01*
X158502193Y-108652714D01*
X158407797Y-108622219D01*
X158313401Y-108591724D01*
X158116203Y-108569986D01*
X158116187Y-108569986D01*
X157918664Y-108588388D01*
X157918657Y-108588390D01*
X157728860Y-108646183D01*
X157554591Y-108740995D01*
X157554590Y-108740995D01*
X157402962Y-108868954D01*
X157402961Y-108868955D01*
X157280206Y-109024806D01*
X157191333Y-109202182D01*
X157191332Y-109202184D01*
X157191332Y-109202185D01*
X157168017Y-109289197D01*
X157075206Y-109635571D01*
X157075205Y-109635577D01*
X157051453Y-109782329D01*
X152569039Y-109782329D01*
X152805212Y-109077682D01*
X152806475Y-109074100D01*
X152809929Y-109064760D01*
X153226891Y-107937210D01*
X154450816Y-107937210D01*
X154468652Y-108128658D01*
X154468654Y-108128665D01*
X154524670Y-108312626D01*
X154616564Y-108481534D01*
X154616566Y-108481536D01*
X154616567Y-108481538D01*
X154740588Y-108628496D01*
X154891651Y-108747481D01*
X155063574Y-108833622D01*
X155840274Y-109041738D01*
X155982521Y-109064760D01*
X156174646Y-109056642D01*
X156361204Y-109010017D01*
X156534557Y-108926792D01*
X156687608Y-108810374D01*
X156814092Y-108665531D01*
X156908830Y-108498191D01*
X156967943Y-108315207D01*
X156989012Y-108124069D01*
X156974113Y-107964144D01*
X156971175Y-107932609D01*
X156971174Y-107932607D01*
X156971174Y-107932602D01*
X156915159Y-107748645D01*
X156823261Y-107579730D01*
X156809207Y-107563077D01*
X156699244Y-107432776D01*
X156699234Y-107432766D01*
X156548181Y-107313789D01*
X156548179Y-107313788D01*
X156548178Y-107313787D01*
X156462576Y-107270897D01*
X156376255Y-107227646D01*
X155599556Y-107019531D01*
X155599545Y-107019529D01*
X155457303Y-106996507D01*
X155265186Y-107004625D01*
X155265180Y-107004626D01*
X155078621Y-107051251D01*
X154905266Y-107134478D01*
X154752221Y-107250892D01*
X154625733Y-107395740D01*
X154530997Y-107563078D01*
X154471885Y-107746059D01*
X154471884Y-107746061D01*
X154450816Y-107937193D01*
X154450816Y-107937210D01*
X153226891Y-107937210D01*
X153249650Y-107875664D01*
X153251007Y-107872160D01*
X153730874Y-106687952D01*
X153732358Y-106684447D01*
X153753632Y-106636266D01*
X154248445Y-105515620D01*
X154250033Y-105512168D01*
X154801900Y-104359725D01*
X154803557Y-104356398D01*
X155390676Y-103221450D01*
X155392420Y-103218203D01*
X156014211Y-102101874D01*
X156016061Y-102098668D01*
X156671932Y-101002021D01*
X156673912Y-100998825D01*
X157363187Y-99922984D01*
X157365289Y-99919812D01*
X157413837Y-99848941D01*
X158087402Y-98865656D01*
X158089570Y-98862594D01*
X158843776Y-97831212D01*
X158846064Y-97828183D01*
X159129624Y-97464474D01*
X159631727Y-96820450D01*
X159634042Y-96817574D01*
X160450339Y-95834544D01*
X160452767Y-95831709D01*
X161298945Y-94874289D01*
X161301508Y-94871478D01*
X162176784Y-93940554D01*
X162179380Y-93937878D01*
X162917258Y-93200000D01*
X167620426Y-93200000D01*
X167639485Y-93417849D01*
X167639487Y-93417859D01*
X167696083Y-93629082D01*
X167696085Y-93629086D01*
X167696086Y-93629090D01*
X167742296Y-93728188D01*
X167788506Y-93827286D01*
X167788507Y-93827287D01*
X167913941Y-94006425D01*
X168068575Y-94161059D01*
X168247713Y-94286493D01*
X168445910Y-94378914D01*
X168657146Y-94435514D01*
X168831429Y-94450762D01*
X168874999Y-94454574D01*
X168875000Y-94454574D01*
X168875001Y-94454574D01*
X168911309Y-94451397D01*
X169092854Y-94435514D01*
X169304090Y-94378914D01*
X169502287Y-94286493D01*
X169681425Y-94161059D01*
X169836059Y-94006425D01*
X169961493Y-93827287D01*
X170053914Y-93629090D01*
X170110514Y-93417854D01*
X170129574Y-93200000D01*
X170114992Y-93033331D01*
X170128758Y-92964832D01*
X170177374Y-92914649D01*
X170245402Y-92898715D01*
X170309644Y-92920950D01*
X170367834Y-92961695D01*
X170566031Y-93054116D01*
X170777267Y-93110716D01*
X170951550Y-93125964D01*
X170995120Y-93129776D01*
X170995121Y-93129776D01*
X170995122Y-93129776D01*
X171031430Y-93126599D01*
X171212975Y-93110716D01*
X171424211Y-93054116D01*
X171622408Y-92961695D01*
X171801546Y-92836261D01*
X171956180Y-92681627D01*
X172081614Y-92502489D01*
X172174035Y-92304292D01*
X172230635Y-92093056D01*
X172249695Y-91875202D01*
X172247272Y-91847513D01*
X172243551Y-91804978D01*
X172235113Y-91708533D01*
X172248879Y-91640035D01*
X172297494Y-91589852D01*
X172365523Y-91573918D01*
X172429763Y-91596151D01*
X172487954Y-91636897D01*
X172686151Y-91729318D01*
X172686157Y-91729319D01*
X172686158Y-91729320D01*
X172709301Y-91735521D01*
X172897387Y-91785918D01*
X173071670Y-91801166D01*
X173115240Y-91804978D01*
X173115241Y-91804978D01*
X173115242Y-91804978D01*
X173151550Y-91801801D01*
X173333095Y-91785918D01*
X173544331Y-91729318D01*
X173742528Y-91636897D01*
X173921666Y-91511463D01*
X174076300Y-91356829D01*
X174201734Y-91177691D01*
X174202350Y-91176371D01*
X201522243Y-91176371D01*
X201532648Y-91234420D01*
X201533956Y-91243748D01*
X201539925Y-91302430D01*
X201539927Y-91302444D01*
X201549033Y-91331468D01*
X201552772Y-91346701D01*
X201558142Y-91376653D01*
X201558142Y-91376655D01*
X201580020Y-91431424D01*
X201583177Y-91440292D01*
X201600841Y-91496588D01*
X201600842Y-91496589D01*
X201600844Y-91496595D01*
X201615603Y-91523185D01*
X201622336Y-91537361D01*
X201633622Y-91565614D01*
X201633627Y-91565624D01*
X201666080Y-91614866D01*
X201670962Y-91622923D01*
X201699588Y-91674498D01*
X201699589Y-91674500D01*
X201699591Y-91674502D01*
X201719410Y-91697588D01*
X201728855Y-91710115D01*
X201745599Y-91735521D01*
X201787299Y-91777220D01*
X201793704Y-91784131D01*
X201828085Y-91824179D01*
X201832134Y-91828895D01*
X201856187Y-91847513D01*
X201867968Y-91857889D01*
X201903420Y-91893341D01*
X202021593Y-91989698D01*
X202201951Y-92083909D01*
X202397582Y-92139887D01*
X202465213Y-92145037D01*
X202600475Y-92155337D01*
X202600477Y-92155337D01*
X202600478Y-92155337D01*
X202802321Y-92129631D01*
X202802321Y-92129630D01*
X202802328Y-92129630D01*
X202994872Y-92063816D01*
X203170227Y-91960591D01*
X203321214Y-91824179D01*
X203441649Y-91660167D01*
X203526605Y-91475269D01*
X203572603Y-91277054D01*
X203577757Y-91073637D01*
X203541858Y-90873348D01*
X203541856Y-90873342D01*
X203534346Y-90854539D01*
X203525500Y-90808545D01*
X203525500Y-88874256D01*
X203510074Y-88722560D01*
X203449162Y-88528420D01*
X203449160Y-88528416D01*
X203449159Y-88528412D01*
X203350409Y-88350498D01*
X203350408Y-88350497D01*
X203350407Y-88350495D01*
X203217867Y-88196106D01*
X203217865Y-88196104D01*
X203056962Y-88071554D01*
X203056959Y-88071553D01*
X203056958Y-88071552D01*
X202874271Y-87981940D01*
X202677285Y-87930937D01*
X202677287Y-87930937D01*
X202541804Y-87924066D01*
X202474064Y-87920631D01*
X202474063Y-87920631D01*
X202474061Y-87920631D01*
X202272936Y-87951442D01*
X202272924Y-87951445D01*
X202082118Y-88022111D01*
X202082111Y-88022115D01*
X201909432Y-88129745D01*
X201909427Y-88129749D01*
X201761949Y-88269938D01*
X201761948Y-88269940D01*
X201645705Y-88436949D01*
X201565459Y-88623943D01*
X201524500Y-88823258D01*
X201524500Y-91085721D01*
X201524460Y-91088861D01*
X201522243Y-91176362D01*
X201522243Y-91176371D01*
X174202350Y-91176371D01*
X174294155Y-90979494D01*
X174350755Y-90768258D01*
X174369815Y-90550404D01*
X174355176Y-90383084D01*
X174368942Y-90314586D01*
X174417557Y-90264403D01*
X174485586Y-90248469D01*
X174549827Y-90270703D01*
X174608324Y-90311663D01*
X174608330Y-90311666D01*
X174716411Y-90362065D01*
X174895471Y-89586465D01*
X174964828Y-89646563D01*
X175094384Y-89705730D01*
X175199938Y-89720906D01*
X175270784Y-89720906D01*
X175376338Y-89705730D01*
X175381649Y-89703304D01*
X175203062Y-90476851D01*
X175235361Y-90479678D01*
X175235363Y-90479678D01*
X175453122Y-90460626D01*
X175453132Y-90460624D01*
X175664271Y-90404050D01*
X175664280Y-90404046D01*
X175862397Y-90311663D01*
X175862401Y-90311661D01*
X176041464Y-90186280D01*
X176196034Y-90031710D01*
X176321421Y-89852637D01*
X176371820Y-89744554D01*
X175598774Y-89566082D01*
X175613533Y-89553294D01*
X175690534Y-89433477D01*
X175730661Y-89296819D01*
X175730661Y-89154393D01*
X175708292Y-89078214D01*
X176486606Y-89257903D01*
X176489433Y-89225606D01*
X176489433Y-89225604D01*
X176470381Y-89007844D01*
X176470379Y-89007834D01*
X176413805Y-88796695D01*
X176413801Y-88796686D01*
X176321418Y-88598569D01*
X176321416Y-88598565D01*
X176196035Y-88419502D01*
X176041465Y-88264932D01*
X175862397Y-88139548D01*
X175862395Y-88139547D01*
X175754309Y-88089146D01*
X175575248Y-88864744D01*
X175505894Y-88804649D01*
X175376338Y-88745482D01*
X175270784Y-88730306D01*
X175199938Y-88730306D01*
X175094384Y-88745482D01*
X175089069Y-88747909D01*
X175267657Y-87974359D01*
X175267657Y-87974358D01*
X175235364Y-87971534D01*
X175235359Y-87971534D01*
X175017599Y-87990585D01*
X175017589Y-87990587D01*
X174806450Y-88047161D01*
X174806441Y-88047165D01*
X174608324Y-88139548D01*
X174608320Y-88139550D01*
X174429257Y-88264931D01*
X174274686Y-88419502D01*
X174149305Y-88598565D01*
X174149303Y-88598569D01*
X174098901Y-88706656D01*
X174871949Y-88885128D01*
X174857189Y-88897918D01*
X174780188Y-89017735D01*
X174740061Y-89154393D01*
X174740061Y-89296819D01*
X174762428Y-89372995D01*
X173984113Y-89193308D01*
X173981289Y-89225602D01*
X173981289Y-89225608D01*
X173995903Y-89392648D01*
X173982136Y-89461148D01*
X173933521Y-89511331D01*
X173865492Y-89527264D01*
X173801252Y-89505030D01*
X173742528Y-89463911D01*
X173742529Y-89463911D01*
X173742527Y-89463910D01*
X173589704Y-89392648D01*
X173544331Y-89371490D01*
X173544327Y-89371489D01*
X173544323Y-89371487D01*
X173333100Y-89314891D01*
X173333090Y-89314889D01*
X173115242Y-89295830D01*
X173115240Y-89295830D01*
X172897391Y-89314889D01*
X172897381Y-89314891D01*
X172686158Y-89371487D01*
X172686149Y-89371491D01*
X172487954Y-89463910D01*
X172368442Y-89547594D01*
X172308816Y-89589345D01*
X172308814Y-89589346D01*
X172308811Y-89589349D01*
X172154186Y-89743974D01*
X172154183Y-89743977D01*
X172154182Y-89743979D01*
X172112431Y-89803605D01*
X172028747Y-89923117D01*
X171936328Y-90121312D01*
X171936324Y-90121321D01*
X171879728Y-90332544D01*
X171879726Y-90332554D01*
X171860667Y-90550403D01*
X171860667Y-90550406D01*
X171875248Y-90717071D01*
X171861481Y-90785571D01*
X171812866Y-90835754D01*
X171744837Y-90851687D01*
X171680597Y-90829453D01*
X171622412Y-90788711D01*
X171622408Y-90788709D01*
X171615679Y-90785571D01*
X171424211Y-90696288D01*
X171424207Y-90696287D01*
X171424203Y-90696285D01*
X171212980Y-90639689D01*
X171212970Y-90639687D01*
X170995122Y-90620628D01*
X170995120Y-90620628D01*
X170777271Y-90639687D01*
X170777261Y-90639689D01*
X170566038Y-90696285D01*
X170566029Y-90696289D01*
X170367834Y-90788708D01*
X170277892Y-90851687D01*
X170188696Y-90914143D01*
X170188694Y-90914144D01*
X170188691Y-90914147D01*
X170034066Y-91068772D01*
X170034063Y-91068775D01*
X170034062Y-91068777D01*
X170019999Y-91088861D01*
X169908627Y-91247915D01*
X169816208Y-91446110D01*
X169816204Y-91446119D01*
X169759608Y-91657342D01*
X169759606Y-91657352D01*
X169740547Y-91875201D01*
X169740547Y-91875204D01*
X169755128Y-92041870D01*
X169741361Y-92110370D01*
X169692746Y-92160553D01*
X169624717Y-92176486D01*
X169560477Y-92154252D01*
X169502287Y-92113507D01*
X169502288Y-92113507D01*
X169502286Y-92113506D01*
X169403188Y-92067296D01*
X169304090Y-92021086D01*
X169304086Y-92021085D01*
X169304082Y-92021083D01*
X169092859Y-91964487D01*
X169092849Y-91964485D01*
X168875001Y-91945426D01*
X168874999Y-91945426D01*
X168657150Y-91964485D01*
X168657140Y-91964487D01*
X168445917Y-92021083D01*
X168445908Y-92021087D01*
X168247713Y-92113506D01*
X168128201Y-92197190D01*
X168068575Y-92238941D01*
X168068573Y-92238942D01*
X168068570Y-92238945D01*
X167913945Y-92393570D01*
X167788506Y-92572713D01*
X167696087Y-92770908D01*
X167696083Y-92770917D01*
X167639487Y-92982140D01*
X167639485Y-92982150D01*
X167620426Y-93199999D01*
X167620426Y-93200000D01*
X162917258Y-93200000D01*
X163082878Y-93034380D01*
X163085554Y-93031784D01*
X164016489Y-92156497D01*
X164019301Y-92153935D01*
X164046800Y-92129631D01*
X164976709Y-91307767D01*
X164979544Y-91305339D01*
X165962574Y-90489042D01*
X165965450Y-90486727D01*
X166973200Y-89701050D01*
X166976212Y-89698776D01*
X168007594Y-88944570D01*
X168010656Y-88942402D01*
X169064823Y-88220281D01*
X169067996Y-88218180D01*
X169102450Y-88196106D01*
X170143825Y-87528912D01*
X170147021Y-87526932D01*
X171243668Y-86871061D01*
X171246874Y-86869211D01*
X172363203Y-86247420D01*
X172366450Y-86245676D01*
X173501398Y-85658557D01*
X173504725Y-85656900D01*
X174657186Y-85105024D01*
X174660620Y-85103445D01*
X175829459Y-84587352D01*
X175832952Y-84585874D01*
X177017160Y-84106007D01*
X177020664Y-84104650D01*
X178219119Y-83661468D01*
X178222682Y-83660212D01*
X179434167Y-83254163D01*
X179437767Y-83253018D01*
X180661215Y-82884459D01*
X180664843Y-82883427D01*
X181899077Y-82552714D01*
X181902715Y-82551800D01*
X183146540Y-82259255D01*
X183150179Y-82258458D01*
X184402424Y-82004356D01*
X184406118Y-82003665D01*
X185665620Y-81788241D01*
X185669278Y-81787673D01*
X186934831Y-81611136D01*
X186938554Y-81610676D01*
X188208896Y-81473200D01*
X188212585Y-81472858D01*
X189486622Y-81374563D01*
X189490349Y-81374333D01*
X190766765Y-81315321D01*
X190770540Y-81315205D01*
X192048117Y-81295529D01*
X192051883Y-81295529D01*
X193329457Y-81315205D01*
G37*
G04 #@! TD.AperFunction*
G04 #@! TA.AperFunction,Conductor*
G36*
X204587872Y-141339024D02*
G01*
X204594350Y-141345056D01*
X210113181Y-146863887D01*
X210146666Y-146925210D01*
X210149500Y-146951568D01*
X210149500Y-155733677D01*
X210129815Y-155800716D01*
X210077011Y-155846471D01*
X210039384Y-155856897D01*
X209970750Y-155864630D01*
X209800478Y-155924210D01*
X209647737Y-156020184D01*
X209520184Y-156147737D01*
X209424210Y-156300478D01*
X209364632Y-156470744D01*
X209364630Y-156470752D01*
X209363815Y-156477988D01*
X209336743Y-156542400D01*
X209328277Y-156551775D01*
X205666873Y-160213181D01*
X205605550Y-160246666D01*
X205579192Y-160249500D01*
X189806244Y-160249500D01*
X189739205Y-160229815D01*
X189693450Y-160177011D01*
X189683506Y-160107853D01*
X189712531Y-160044297D01*
X189743104Y-160018779D01*
X189747893Y-160015946D01*
X189765375Y-160007380D01*
X189785110Y-159999568D01*
X189822055Y-159972725D01*
X189831797Y-159966326D01*
X189871104Y-159943081D01*
X189886109Y-159928075D01*
X189900907Y-159915436D01*
X189918076Y-159902963D01*
X189947185Y-159867774D01*
X189955029Y-159859154D01*
X192624513Y-157189670D01*
X192637079Y-157179604D01*
X192636925Y-157179417D01*
X192642933Y-157174444D01*
X192642940Y-157174441D01*
X192666227Y-157149641D01*
X192690865Y-157123406D01*
X192693578Y-157120606D01*
X192713912Y-157100273D01*
X192716607Y-157096798D01*
X192724186Y-157087921D01*
X192755448Y-157054632D01*
X192765674Y-157036028D01*
X192776347Y-157019780D01*
X192789363Y-157003002D01*
X192807491Y-156961109D01*
X192812627Y-156950621D01*
X192834627Y-156910607D01*
X192839904Y-156890047D01*
X192846206Y-156871642D01*
X192854636Y-156852165D01*
X192861779Y-156807059D01*
X192864143Y-156795644D01*
X192875500Y-156751416D01*
X192875500Y-156730194D01*
X192877027Y-156710794D01*
X192880347Y-156689834D01*
X192876050Y-156644375D01*
X192875500Y-156632706D01*
X192875500Y-156359520D01*
X202169370Y-156359520D01*
X202186904Y-156475842D01*
X202208474Y-156618948D01*
X202208475Y-156618950D01*
X202208476Y-156618956D01*
X202239779Y-156720436D01*
X202285057Y-156867226D01*
X202285808Y-156869659D01*
X202399637Y-157106029D01*
X202399638Y-157106030D01*
X202399640Y-157106033D01*
X202399642Y-157106037D01*
X202464640Y-157201371D01*
X202547437Y-157322812D01*
X202725884Y-157515134D01*
X202725888Y-157515137D01*
X202725889Y-157515138D01*
X202931013Y-157678719D01*
X203158227Y-157809901D01*
X203402454Y-157905753D01*
X203658240Y-157964135D01*
X203658246Y-157964135D01*
X203658249Y-157964136D01*
X203854354Y-157978832D01*
X203854373Y-157978832D01*
X203854376Y-157978833D01*
X203854378Y-157978833D01*
X203985362Y-157978833D01*
X203985364Y-157978833D01*
X203985366Y-157978832D01*
X203985385Y-157978832D01*
X204181490Y-157964136D01*
X204181492Y-157964135D01*
X204181500Y-157964135D01*
X204437286Y-157905753D01*
X204681513Y-157809901D01*
X204908727Y-157678719D01*
X205113851Y-157515138D01*
X205292303Y-157322812D01*
X205440098Y-157106037D01*
X205553933Y-156869656D01*
X205631266Y-156618948D01*
X205670370Y-156359515D01*
X205670370Y-156097151D01*
X205631266Y-155837718D01*
X205553933Y-155587010D01*
X205523102Y-155522989D01*
X205440102Y-155350636D01*
X205440101Y-155350635D01*
X205440100Y-155350634D01*
X205440098Y-155350629D01*
X205292303Y-155133854D01*
X205260448Y-155099522D01*
X205113855Y-154941531D01*
X205074403Y-154910069D01*
X204908727Y-154777947D01*
X204681513Y-154646765D01*
X204437286Y-154550913D01*
X204437281Y-154550911D01*
X204437272Y-154550909D01*
X204219688Y-154501247D01*
X204181500Y-154492531D01*
X204181499Y-154492530D01*
X204181495Y-154492530D01*
X204181490Y-154492529D01*
X203985385Y-154477833D01*
X203985364Y-154477833D01*
X203854376Y-154477833D01*
X203854354Y-154477833D01*
X203658249Y-154492529D01*
X203658244Y-154492530D01*
X203402467Y-154550909D01*
X203402448Y-154550915D01*
X203158226Y-154646765D01*
X202931013Y-154777947D01*
X202725884Y-154941531D01*
X202547437Y-155133853D01*
X202399638Y-155350635D01*
X202399637Y-155350636D01*
X202285808Y-155587006D01*
X202208476Y-155837709D01*
X202208475Y-155837714D01*
X202208474Y-155837718D01*
X202197650Y-155909529D01*
X202169370Y-156097145D01*
X202169370Y-156359520D01*
X192875500Y-156359520D01*
X192875500Y-155976568D01*
X192895185Y-155909529D01*
X192911819Y-155888887D01*
X196470730Y-152329976D01*
X197018091Y-151782615D01*
X200967185Y-151782615D01*
X200967186Y-151782619D01*
X200981552Y-151840826D01*
X201534170Y-153359129D01*
X201560580Y-153412954D01*
X201653962Y-153522468D01*
X201653963Y-153522469D01*
X201659721Y-153526234D01*
X201774417Y-153601235D01*
X201912182Y-153642878D01*
X201984141Y-153643448D01*
X202056096Y-153644019D01*
X202056096Y-153644018D01*
X202056100Y-153644019D01*
X202114307Y-153629653D01*
X203632610Y-153077035D01*
X203686435Y-153050625D01*
X203795949Y-152957243D01*
X203874716Y-152836788D01*
X203916359Y-152699023D01*
X203917500Y-152555105D01*
X203903134Y-152496898D01*
X203350516Y-150978595D01*
X203324106Y-150924770D01*
X203230724Y-150815256D01*
X203230722Y-150815255D01*
X203230722Y-150815254D01*
X203110269Y-150736489D01*
X203110266Y-150736488D01*
X202972504Y-150694846D01*
X202972499Y-150694845D01*
X202828589Y-150693704D01*
X202770378Y-150708071D01*
X201252073Y-151260690D01*
X201198254Y-151287097D01*
X201198252Y-151287098D01*
X201088738Y-151380480D01*
X201088735Y-151380482D01*
X201009970Y-151500935D01*
X201009969Y-151500938D01*
X200968327Y-151638700D01*
X200968326Y-151638705D01*
X200967185Y-151782615D01*
X197018091Y-151782615D01*
X200030223Y-148770482D01*
X200091544Y-148736999D01*
X200161236Y-148741983D01*
X200217169Y-148783855D01*
X200241586Y-148849319D01*
X200230287Y-148910563D01*
X200227279Y-148917014D01*
X200227273Y-148917029D01*
X200170192Y-149130060D01*
X200170190Y-149130070D01*
X200150968Y-149349783D01*
X200150968Y-149349786D01*
X200170190Y-149569499D01*
X200170192Y-149569509D01*
X200227273Y-149782540D01*
X200227278Y-149782554D01*
X200320486Y-149982439D01*
X200320490Y-149982447D01*
X200446995Y-150163115D01*
X200602952Y-150319072D01*
X200783620Y-150445577D01*
X200783622Y-150445578D01*
X200783625Y-150445580D01*
X200903886Y-150501658D01*
X200983513Y-150538789D01*
X200983515Y-150538789D01*
X200983520Y-150538792D01*
X201196563Y-150595877D01*
X201353505Y-150609607D01*
X201416281Y-150615100D01*
X201416283Y-150615100D01*
X201416285Y-150615100D01*
X201471213Y-150610294D01*
X201636003Y-150595877D01*
X201849046Y-150538792D01*
X202048941Y-150445580D01*
X202229612Y-150319073D01*
X202385571Y-150163114D01*
X202512078Y-149982443D01*
X202605290Y-149782548D01*
X202662375Y-149569505D01*
X202681598Y-149349785D01*
X202662375Y-149130065D01*
X202605290Y-148917022D01*
X202512078Y-148717128D01*
X202385571Y-148536456D01*
X202385569Y-148536453D01*
X202229613Y-148380497D01*
X202048945Y-148253992D01*
X202048937Y-148253988D01*
X201849052Y-148160780D01*
X201849038Y-148160775D01*
X201636007Y-148103694D01*
X201636005Y-148103693D01*
X201636003Y-148103693D01*
X201636001Y-148103692D01*
X201635997Y-148103692D01*
X201416285Y-148084470D01*
X201416281Y-148084470D01*
X201196568Y-148103692D01*
X201196558Y-148103694D01*
X200983527Y-148160775D01*
X200983512Y-148160781D01*
X200977061Y-148163789D01*
X200907983Y-148174277D01*
X200844201Y-148145754D01*
X200805965Y-148087275D01*
X200805414Y-148017407D01*
X200836980Y-147963725D01*
X202724916Y-146075789D01*
X202786237Y-146042306D01*
X202855929Y-146047290D01*
X202878567Y-146058479D01*
X203025473Y-146150787D01*
X203025477Y-146150788D01*
X203025478Y-146150789D01*
X203177446Y-146203965D01*
X203195745Y-146210368D01*
X203195750Y-146210369D01*
X203374996Y-146230565D01*
X203375000Y-146230565D01*
X203375004Y-146230565D01*
X203554249Y-146210369D01*
X203554252Y-146210368D01*
X203554255Y-146210368D01*
X203724522Y-146150789D01*
X203877262Y-146054816D01*
X204004816Y-145927262D01*
X204100789Y-145774522D01*
X204160368Y-145604255D01*
X204167589Y-145540166D01*
X204180565Y-145425003D01*
X204180565Y-145424996D01*
X204160369Y-145245750D01*
X204160368Y-145245745D01*
X204151395Y-145220101D01*
X204100789Y-145075478D01*
X204100788Y-145075477D01*
X204100787Y-145075473D01*
X204008479Y-144928567D01*
X203989478Y-144861331D01*
X204009845Y-144794496D01*
X204025786Y-144774919D01*
X204131682Y-144669023D01*
X204144248Y-144658957D01*
X204144094Y-144658770D01*
X204150102Y-144653797D01*
X204150109Y-144653794D01*
X204173396Y-144628994D01*
X204198034Y-144602759D01*
X204200747Y-144599959D01*
X204204835Y-144595871D01*
X204221080Y-144579627D01*
X204223775Y-144576152D01*
X204231368Y-144567261D01*
X204262617Y-144533985D01*
X204272843Y-144515382D01*
X204283522Y-144499125D01*
X204296531Y-144482356D01*
X204314660Y-144440458D01*
X204319789Y-144429987D01*
X204341796Y-144389960D01*
X204347074Y-144369398D01*
X204353376Y-144350991D01*
X204361804Y-144331519D01*
X204368948Y-144286411D01*
X204371308Y-144275013D01*
X204382669Y-144230769D01*
X204382669Y-144209548D01*
X204384196Y-144190148D01*
X204387516Y-144169188D01*
X204383219Y-144123733D01*
X204382669Y-144112063D01*
X204382669Y-141432737D01*
X204402354Y-141365698D01*
X204455158Y-141319943D01*
X204524316Y-141309999D01*
X204587872Y-141339024D01*
G37*
G04 #@! TD.AperFunction*
G04 #@! TA.AperFunction,Conductor*
G36*
X190930703Y-134676461D02*
G01*
X190937167Y-134682480D01*
X192190822Y-135936134D01*
X193513181Y-137258493D01*
X193546666Y-137319816D01*
X193549500Y-137346174D01*
X193549500Y-138269931D01*
X193530494Y-138335903D01*
X193474211Y-138425477D01*
X193474209Y-138425481D01*
X193414633Y-138595737D01*
X193414630Y-138595750D01*
X193394435Y-138774996D01*
X193394435Y-138775003D01*
X193414630Y-138954249D01*
X193414631Y-138954254D01*
X193474211Y-139124523D01*
X193570184Y-139277262D01*
X193697738Y-139404816D01*
X193760904Y-139444506D01*
X193847966Y-139499211D01*
X193850478Y-139500789D01*
X194006816Y-139555494D01*
X194020745Y-139560368D01*
X194020750Y-139560369D01*
X194199996Y-139580565D01*
X194200000Y-139580565D01*
X194200004Y-139580565D01*
X194379249Y-139560369D01*
X194379251Y-139560368D01*
X194379255Y-139560368D01*
X194379258Y-139560366D01*
X194379262Y-139560366D01*
X194480848Y-139524819D01*
X194549522Y-139500789D01*
X194639096Y-139444505D01*
X194705068Y-139425500D01*
X194914424Y-139425500D01*
X194981463Y-139445185D01*
X195027218Y-139497989D01*
X195037644Y-139563383D01*
X195019435Y-139724996D01*
X195019435Y-139725003D01*
X195039630Y-139904249D01*
X195039631Y-139904254D01*
X195099211Y-140074523D01*
X195184588Y-140210398D01*
X195195184Y-140227262D01*
X195322738Y-140354816D01*
X195354891Y-140375019D01*
X195470671Y-140447769D01*
X195475478Y-140450789D01*
X195645745Y-140510368D01*
X195645750Y-140510369D01*
X195824996Y-140530565D01*
X195825000Y-140530565D01*
X195825004Y-140530565D01*
X196004249Y-140510369D01*
X196004252Y-140510368D01*
X196004255Y-140510368D01*
X196174522Y-140450789D01*
X196174523Y-140450787D01*
X196174529Y-140450786D01*
X196180795Y-140447769D01*
X196181779Y-140449812D01*
X196238629Y-140433725D01*
X196305472Y-140454067D01*
X196325092Y-140470038D01*
X196479564Y-140624510D01*
X196489635Y-140637080D01*
X196489822Y-140636926D01*
X196494795Y-140642937D01*
X196545832Y-140690864D01*
X196548629Y-140693575D01*
X196568967Y-140713913D01*
X196572450Y-140716615D01*
X196581326Y-140724196D01*
X196607145Y-140748441D01*
X196614607Y-140755448D01*
X196614609Y-140755449D01*
X196633205Y-140765672D01*
X196649470Y-140776357D01*
X196666232Y-140789360D01*
X196666235Y-140789361D01*
X196666236Y-140789362D01*
X196708140Y-140807495D01*
X196718612Y-140812625D01*
X196758632Y-140834627D01*
X196769932Y-140837528D01*
X196779186Y-140839904D01*
X196797598Y-140846207D01*
X196817073Y-140854635D01*
X196862179Y-140861778D01*
X196873574Y-140864138D01*
X196917823Y-140875500D01*
X196939051Y-140875500D01*
X196958448Y-140877026D01*
X196979403Y-140880345D01*
X196979404Y-140880346D01*
X196979404Y-140880345D01*
X196979405Y-140880346D01*
X197024852Y-140876050D01*
X197036521Y-140875500D01*
X197919932Y-140875500D01*
X197985904Y-140894506D01*
X198075477Y-140950789D01*
X198075481Y-140950790D01*
X198245737Y-141010366D01*
X198245743Y-141010367D01*
X198245745Y-141010368D01*
X198245746Y-141010368D01*
X198245750Y-141010369D01*
X198424996Y-141030565D01*
X198425000Y-141030565D01*
X198425004Y-141030565D01*
X198604249Y-141010369D01*
X198604252Y-141010368D01*
X198604255Y-141010368D01*
X198774522Y-140950789D01*
X198927262Y-140854816D01*
X199054816Y-140727262D01*
X199150789Y-140574522D01*
X199210368Y-140404255D01*
X199210369Y-140404249D01*
X199230565Y-140225003D01*
X199230565Y-140224996D01*
X199210369Y-140045750D01*
X199210368Y-140045745D01*
X199181119Y-139962157D01*
X199150789Y-139875478D01*
X199123974Y-139832803D01*
X199073542Y-139752540D01*
X199054816Y-139722738D01*
X198927262Y-139595184D01*
X198876651Y-139563383D01*
X198774523Y-139499211D01*
X198604254Y-139439631D01*
X198604249Y-139439630D01*
X198425004Y-139419435D01*
X198424996Y-139419435D01*
X198245750Y-139439630D01*
X198245737Y-139439633D01*
X198075481Y-139499209D01*
X198075477Y-139499210D01*
X197985904Y-139555494D01*
X197919932Y-139574500D01*
X197320808Y-139574500D01*
X197253769Y-139554815D01*
X197233127Y-139538181D01*
X196920434Y-139225488D01*
X196910361Y-139212914D01*
X196910174Y-139213070D01*
X196905198Y-139207054D01*
X196854167Y-139159134D01*
X196851369Y-139156423D01*
X196831035Y-139136089D01*
X196827548Y-139133384D01*
X196818669Y-139125800D01*
X196785396Y-139094554D01*
X196785388Y-139094548D01*
X196766792Y-139084325D01*
X196750531Y-139073644D01*
X196733763Y-139060637D01*
X196717409Y-139053560D01*
X196691853Y-139042501D01*
X196681394Y-139037377D01*
X196641368Y-139015373D01*
X196641365Y-139015372D01*
X196620801Y-139010092D01*
X196602398Y-139003791D01*
X196587514Y-138997350D01*
X196533805Y-138952662D01*
X196512783Y-138886030D01*
X196531122Y-138818610D01*
X196549073Y-138795871D01*
X196791055Y-138553889D01*
X196852376Y-138520406D01*
X196864850Y-138518352D01*
X196872086Y-138517537D01*
X197042353Y-138457958D01*
X197195093Y-138361985D01*
X197322647Y-138234431D01*
X197418620Y-138081691D01*
X197418620Y-138081688D01*
X197418623Y-138081685D01*
X197421643Y-138075416D01*
X197423249Y-138076189D01*
X197458689Y-138026773D01*
X197523640Y-138001023D01*
X197535013Y-138000500D01*
X197714980Y-138000500D01*
X197782019Y-138020185D01*
X197802661Y-138036819D01*
X199738181Y-139972339D01*
X199771666Y-140033662D01*
X199774500Y-140060020D01*
X199774500Y-140527111D01*
X199754815Y-140594150D01*
X199738181Y-140614793D01*
X199650481Y-140702492D01*
X199637910Y-140712564D01*
X199638065Y-140712751D01*
X199632058Y-140717720D01*
X199584133Y-140768754D01*
X199581427Y-140771546D01*
X199561090Y-140791884D01*
X199561077Y-140791899D01*
X199558373Y-140795384D01*
X199550806Y-140804243D01*
X199519552Y-140837528D01*
X199509322Y-140856134D01*
X199498646Y-140872385D01*
X199485640Y-140889153D01*
X199485636Y-140889159D01*
X199467508Y-140931051D01*
X199462369Y-140941540D01*
X199440372Y-140981551D01*
X199440372Y-140981552D01*
X199435091Y-141002120D01*
X199428791Y-141020522D01*
X199420364Y-141039994D01*
X199413223Y-141085083D01*
X199410854Y-141096521D01*
X199399500Y-141140738D01*
X199399500Y-141161965D01*
X199397973Y-141181365D01*
X199394653Y-141202324D01*
X199398950Y-141247779D01*
X199399500Y-141259449D01*
X199399500Y-142977845D01*
X199379815Y-143044884D01*
X199363181Y-143065526D01*
X190200483Y-152228223D01*
X190187910Y-152238297D01*
X190188065Y-152238484D01*
X190182058Y-152243453D01*
X190134133Y-152294487D01*
X190131427Y-152297279D01*
X190111090Y-152317617D01*
X190111077Y-152317632D01*
X190108373Y-152321117D01*
X190100806Y-152329976D01*
X190069552Y-152363261D01*
X190059322Y-152381867D01*
X190048646Y-152398118D01*
X190035640Y-152414886D01*
X190035636Y-152414892D01*
X190017508Y-152456784D01*
X190012369Y-152467273D01*
X189990372Y-152507284D01*
X189990372Y-152507285D01*
X189985091Y-152527853D01*
X189978791Y-152546255D01*
X189970364Y-152565727D01*
X189963223Y-152610816D01*
X189960854Y-152622254D01*
X189949500Y-152666471D01*
X189949500Y-152687698D01*
X189947973Y-152707097D01*
X189944653Y-152728059D01*
X189948950Y-152773512D01*
X189949500Y-152785182D01*
X189949500Y-155398430D01*
X189929815Y-155465469D01*
X189913181Y-155486111D01*
X189429417Y-155969874D01*
X189376327Y-156001271D01*
X189352051Y-156008323D01*
X189333008Y-156012266D01*
X189311947Y-156014927D01*
X189311938Y-156014929D01*
X189269491Y-156031735D01*
X189258442Y-156035518D01*
X189214602Y-156048255D01*
X189196332Y-156059060D01*
X189178856Y-156067621D01*
X189170144Y-156071070D01*
X189100565Y-156077444D01*
X189038586Y-156045190D01*
X189003884Y-155984547D01*
X189000500Y-155955776D01*
X189000500Y-155825096D01*
X189020185Y-155758057D01*
X189036815Y-155737419D01*
X189266044Y-155508189D01*
X189278224Y-155497507D01*
X189303282Y-155478282D01*
X189340610Y-155429636D01*
X189399536Y-155352841D01*
X189460044Y-155206762D01*
X189474162Y-155099522D01*
X189480682Y-155050001D01*
X189480682Y-155049998D01*
X189476561Y-155018697D01*
X189475500Y-155002512D01*
X189475500Y-154597487D01*
X189476561Y-154581301D01*
X189477951Y-154570745D01*
X189480682Y-154550000D01*
X189474716Y-154504687D01*
X189460044Y-154393239D01*
X189460044Y-154393238D01*
X189399536Y-154247159D01*
X189399535Y-154247158D01*
X189399535Y-154247157D01*
X189324987Y-154150003D01*
X189324970Y-154149983D01*
X189324599Y-154149500D01*
X189303282Y-154121718D01*
X189278233Y-154102497D01*
X189266039Y-154091803D01*
X189003491Y-153829255D01*
X188703336Y-153529101D01*
X188669852Y-153467779D01*
X188674836Y-153398088D01*
X188703334Y-153353742D01*
X188729816Y-153327262D01*
X188825789Y-153174522D01*
X188885368Y-153004255D01*
X188886182Y-152997025D01*
X188913245Y-152932611D01*
X188921712Y-152923232D01*
X190474511Y-151370432D01*
X190487086Y-151360359D01*
X190486931Y-151360172D01*
X190492933Y-151355205D01*
X190492940Y-151355202D01*
X190540912Y-151304115D01*
X190543561Y-151301382D01*
X190563911Y-151281034D01*
X190566608Y-151277556D01*
X190574196Y-151268672D01*
X190581693Y-151260689D01*
X190605448Y-151235393D01*
X190615670Y-151216796D01*
X190626355Y-151200531D01*
X190639363Y-151183763D01*
X190657491Y-151141870D01*
X190662627Y-151131382D01*
X190684627Y-151091368D01*
X190689904Y-151070808D01*
X190696206Y-151052403D01*
X190704636Y-151032926D01*
X190711779Y-150987820D01*
X190714143Y-150976405D01*
X190725500Y-150932177D01*
X190725500Y-150910955D01*
X190727027Y-150891555D01*
X190730347Y-150870595D01*
X190726050Y-150825140D01*
X190725500Y-150813470D01*
X190725500Y-134770174D01*
X190745185Y-134703135D01*
X190797989Y-134657380D01*
X190867147Y-134647436D01*
X190930703Y-134676461D01*
G37*
G04 #@! TD.AperFunction*
G04 #@! TA.AperFunction,Conductor*
G36*
X189357694Y-141212808D02*
G01*
X189408097Y-141261195D01*
X189424500Y-141322830D01*
X189424500Y-150529191D01*
X189404815Y-150596230D01*
X189388181Y-150616872D01*
X188064999Y-151940054D01*
X188003676Y-151973539D01*
X187933984Y-151968555D01*
X187878051Y-151926683D01*
X187853634Y-151861219D01*
X187853318Y-151852373D01*
X187853318Y-144738319D01*
X187855086Y-144722306D01*
X187854844Y-144722284D01*
X187855576Y-144714528D01*
X187855578Y-144714521D01*
X187853379Y-144644553D01*
X187853318Y-144640658D01*
X187853318Y-144611895D01*
X187853317Y-144611888D01*
X187852767Y-144607534D01*
X187851848Y-144595871D01*
X187851365Y-144580505D01*
X187850561Y-144554891D01*
X187850500Y-144550999D01*
X187850500Y-143751568D01*
X187870185Y-143684529D01*
X187886815Y-143663891D01*
X188822803Y-142727902D01*
X188835369Y-142717836D01*
X188835215Y-142717649D01*
X188841223Y-142712676D01*
X188841230Y-142712673D01*
X188885033Y-142666027D01*
X188889155Y-142661638D01*
X188891868Y-142658838D01*
X188912201Y-142638506D01*
X188914896Y-142635031D01*
X188922489Y-142626140D01*
X188930562Y-142617543D01*
X188953738Y-142592864D01*
X188963964Y-142574261D01*
X188974643Y-142558004D01*
X188987652Y-142541235D01*
X189005781Y-142499337D01*
X189010910Y-142488866D01*
X189032917Y-142448839D01*
X189038195Y-142428277D01*
X189044497Y-142409870D01*
X189052925Y-142390398D01*
X189060067Y-142345296D01*
X189062430Y-142333889D01*
X189073790Y-142289648D01*
X189073790Y-142268420D01*
X189075317Y-142249020D01*
X189078636Y-142228066D01*
X189074340Y-142182618D01*
X189073790Y-142170949D01*
X189073790Y-141535670D01*
X189092797Y-141469697D01*
X189149078Y-141380126D01*
X189149079Y-141380125D01*
X189183458Y-141281876D01*
X189224180Y-141225099D01*
X189289133Y-141199352D01*
X189357694Y-141212808D01*
G37*
G04 #@! TD.AperFunction*
G04 #@! TA.AperFunction,Conductor*
G36*
X172336789Y-133095185D02*
G01*
X172357431Y-133111819D01*
X174072575Y-134826963D01*
X174106060Y-134888286D01*
X174101076Y-134957978D01*
X174087096Y-134982675D01*
X174087862Y-134983157D01*
X174084157Y-134989052D01*
X174084157Y-134989053D01*
X174072838Y-135007067D01*
X173988184Y-135141791D01*
X173928604Y-135312060D01*
X173928603Y-135312065D01*
X173908408Y-135491311D01*
X173908408Y-135491318D01*
X173928603Y-135670564D01*
X173928604Y-135670569D01*
X173988184Y-135840838D01*
X174070091Y-135971191D01*
X174084157Y-135993577D01*
X174211711Y-136121131D01*
X174364451Y-136217104D01*
X174375462Y-136220956D01*
X174432238Y-136261676D01*
X174432837Y-136262449D01*
X174521718Y-136378282D01*
X174546769Y-136397504D01*
X174558964Y-136408199D01*
X174829318Y-136678553D01*
X174862803Y-136739876D01*
X174857819Y-136809568D01*
X174815947Y-136865501D01*
X174807610Y-136871227D01*
X174710974Y-136931947D01*
X174583419Y-137059502D01*
X174487446Y-137212241D01*
X174427866Y-137382510D01*
X174427865Y-137382515D01*
X174407670Y-137561761D01*
X174407670Y-137561768D01*
X174427865Y-137741014D01*
X174427866Y-137741019D01*
X174487446Y-137911288D01*
X174541239Y-137996898D01*
X174583419Y-138064027D01*
X174710973Y-138191581D01*
X174863713Y-138287554D01*
X174915446Y-138305656D01*
X175033980Y-138347133D01*
X175033985Y-138347134D01*
X175213231Y-138367330D01*
X175213235Y-138367330D01*
X175213239Y-138367330D01*
X175368851Y-138349797D01*
X175437673Y-138361852D01*
X175470415Y-138385336D01*
X178501113Y-141416034D01*
X178511807Y-141428228D01*
X178530010Y-141451950D01*
X178531032Y-141453282D01*
X178624497Y-141525000D01*
X178656473Y-141549536D01*
X178802552Y-141610044D01*
X178880933Y-141620363D01*
X178959313Y-141630682D01*
X178959314Y-141630682D01*
X178990616Y-141626560D01*
X179006801Y-141625500D01*
X182699091Y-141625500D01*
X182766130Y-141645185D01*
X182811885Y-141697989D01*
X182816133Y-141708545D01*
X182874211Y-141874524D01*
X182930493Y-141964094D01*
X182949500Y-142030067D01*
X182949500Y-142596474D01*
X182942542Y-142637427D01*
X182939631Y-142645745D01*
X182939631Y-142645746D01*
X182919435Y-142824996D01*
X182919435Y-142825003D01*
X182939630Y-143004249D01*
X182939631Y-143004254D01*
X182999211Y-143174523D01*
X183056849Y-143266252D01*
X183095184Y-143327262D01*
X183222738Y-143454816D01*
X183313080Y-143511582D01*
X183344862Y-143531552D01*
X183375478Y-143550789D01*
X183545745Y-143610368D01*
X183545749Y-143610369D01*
X183623776Y-143619160D01*
X183688190Y-143646226D01*
X183727745Y-143703820D01*
X183729998Y-143773215D01*
X183724500Y-143794628D01*
X183724500Y-143815854D01*
X183722973Y-143835254D01*
X183719714Y-143855833D01*
X183719653Y-143856215D01*
X183723950Y-143901668D01*
X183724500Y-143913338D01*
X183724500Y-147675844D01*
X183704815Y-147742883D01*
X183652011Y-147788638D01*
X183582853Y-147798582D01*
X183519297Y-147769557D01*
X183504390Y-147752255D01*
X183503667Y-147752854D01*
X183498691Y-147746838D01*
X183447660Y-147698918D01*
X183444862Y-147696207D01*
X183424528Y-147675873D01*
X183421041Y-147673168D01*
X183412162Y-147665584D01*
X183378889Y-147634338D01*
X183378881Y-147634332D01*
X183360285Y-147624109D01*
X183344024Y-147613428D01*
X183327256Y-147600421D01*
X183310902Y-147593344D01*
X183285346Y-147582285D01*
X183274887Y-147577161D01*
X183234861Y-147555157D01*
X183234858Y-147555156D01*
X183214294Y-147549876D01*
X183195889Y-147543574D01*
X183176420Y-147535149D01*
X183176414Y-147535147D01*
X183131330Y-147528007D01*
X183119891Y-147525638D01*
X183075673Y-147514284D01*
X183075670Y-147514284D01*
X183054448Y-147514284D01*
X183035048Y-147512757D01*
X183032232Y-147512311D01*
X183028504Y-147511720D01*
X183014089Y-147509437D01*
X183014088Y-147509437D01*
X182986722Y-147512024D01*
X182968633Y-147513734D01*
X182956963Y-147514284D01*
X182179832Y-147514284D01*
X182112793Y-147494599D01*
X182092151Y-147477965D01*
X178531342Y-143917156D01*
X178497857Y-143855833D01*
X178495802Y-143843353D01*
X178494988Y-143836129D01*
X178494988Y-143836125D01*
X178435409Y-143665858D01*
X178435156Y-143665456D01*
X178396202Y-143603460D01*
X178339436Y-143513118D01*
X178211882Y-143385564D01*
X178153029Y-143348584D01*
X178059143Y-143289591D01*
X177888874Y-143230011D01*
X177888869Y-143230010D01*
X177709624Y-143209815D01*
X177709616Y-143209815D01*
X177530370Y-143230010D01*
X177530365Y-143230011D01*
X177360096Y-143289591D01*
X177207357Y-143385564D01*
X177079804Y-143513117D01*
X176983831Y-143665856D01*
X176924251Y-143836125D01*
X176924250Y-143836129D01*
X176904573Y-144010776D01*
X176877506Y-144075190D01*
X176819912Y-144114745D01*
X176750075Y-144116882D01*
X176693672Y-144084573D01*
X170236819Y-137627720D01*
X170203334Y-137566397D01*
X170200500Y-137540039D01*
X170200500Y-135386516D01*
X170220185Y-135319477D01*
X170272989Y-135273722D01*
X170310617Y-135263296D01*
X170441014Y-135248604D01*
X170441017Y-135248603D01*
X170441020Y-135248603D01*
X170611287Y-135189024D01*
X170764027Y-135093051D01*
X170891581Y-134965497D01*
X170987554Y-134812757D01*
X171047133Y-134642490D01*
X171047148Y-134642357D01*
X171067330Y-134463238D01*
X171067330Y-134463231D01*
X171047134Y-134283985D01*
X171047133Y-134283980D01*
X171014790Y-134191549D01*
X170987554Y-134113713D01*
X170981766Y-134104502D01*
X170935360Y-134030647D01*
X170891581Y-133960973D01*
X170891579Y-133960971D01*
X170891578Y-133960969D01*
X170889315Y-133958131D01*
X170888424Y-133955950D01*
X170887876Y-133955077D01*
X170888029Y-133954980D01*
X170862909Y-133893444D01*
X170862265Y-133880822D01*
X170862265Y-133199500D01*
X170881950Y-133132461D01*
X170934754Y-133086706D01*
X170986265Y-133075500D01*
X172269750Y-133075500D01*
X172336789Y-133095185D01*
G37*
G04 #@! TD.AperFunction*
G04 #@! TA.AperFunction,Conductor*
G36*
X199493834Y-123726103D02*
G01*
X199549767Y-123767975D01*
X199574184Y-123833439D01*
X199574500Y-123842285D01*
X199574500Y-125736973D01*
X199572732Y-125752984D01*
X199572974Y-125753007D01*
X199572240Y-125760773D01*
X199574439Y-125830741D01*
X199574500Y-125834636D01*
X199574500Y-125863399D01*
X199574501Y-125863417D01*
X199575053Y-125867790D01*
X199575968Y-125879420D01*
X199577402Y-125925046D01*
X199577403Y-125925049D01*
X199583323Y-125945427D01*
X199587268Y-125964475D01*
X199589928Y-125985533D01*
X199589931Y-125985544D01*
X199606737Y-126027993D01*
X199610520Y-126039042D01*
X199623254Y-126082874D01*
X199623255Y-126082876D01*
X199634060Y-126101145D01*
X199642617Y-126118613D01*
X199648226Y-126132779D01*
X199650432Y-126138351D01*
X199677266Y-126175285D01*
X199683678Y-126185047D01*
X199706919Y-126224344D01*
X199706923Y-126224348D01*
X199721925Y-126239350D01*
X199734563Y-126254148D01*
X199747033Y-126271312D01*
X199747036Y-126271316D01*
X199782213Y-126300416D01*
X199790854Y-126308279D01*
X205238181Y-131755606D01*
X205271666Y-131816929D01*
X205274500Y-131843287D01*
X205274500Y-132953156D01*
X205254815Y-133020195D01*
X205202011Y-133065950D01*
X205136618Y-133076377D01*
X205091419Y-133071285D01*
X205075000Y-133069435D01*
X205074998Y-133069435D01*
X205074997Y-133069435D01*
X205074996Y-133069435D01*
X204895750Y-133089630D01*
X204895737Y-133089633D01*
X204725481Y-133149209D01*
X204725477Y-133149210D01*
X204635904Y-133205494D01*
X204569932Y-133224500D01*
X202256143Y-133224500D01*
X202240132Y-133222732D01*
X202240110Y-133222974D01*
X202232343Y-133222240D01*
X202232342Y-133222240D01*
X202169630Y-133224211D01*
X202162376Y-133224439D01*
X202158481Y-133224500D01*
X202129714Y-133224500D01*
X202129711Y-133224500D01*
X202129696Y-133224501D01*
X202125326Y-133225053D01*
X202113698Y-133225968D01*
X202068074Y-133227402D01*
X202068064Y-133227404D01*
X202047688Y-133233323D01*
X202028647Y-133237266D01*
X202007592Y-133239926D01*
X202007576Y-133239930D01*
X201965130Y-133256735D01*
X201954084Y-133260517D01*
X201910241Y-133273255D01*
X201891971Y-133284060D01*
X201874502Y-133292618D01*
X201854767Y-133300432D01*
X201854765Y-133300433D01*
X201817840Y-133327260D01*
X201808081Y-133333671D01*
X201768773Y-133356919D01*
X201753765Y-133371926D01*
X201738975Y-133384558D01*
X201721806Y-133397032D01*
X201721804Y-133397034D01*
X201692695Y-133432219D01*
X201684835Y-133440856D01*
X201301775Y-133823916D01*
X201240452Y-133857401D01*
X201227988Y-133859454D01*
X201220752Y-133860269D01*
X201220744Y-133860271D01*
X201050478Y-133919849D01*
X200897737Y-134015823D01*
X200770184Y-134143376D01*
X200674211Y-134296115D01*
X200614631Y-134466384D01*
X200614630Y-134466389D01*
X200594435Y-134645635D01*
X200594435Y-134645642D01*
X200614630Y-134824888D01*
X200614631Y-134824893D01*
X200674211Y-134995162D01*
X200766345Y-135141791D01*
X200770184Y-135147901D01*
X200897738Y-135275455D01*
X200967799Y-135319477D01*
X201005521Y-135343180D01*
X201050478Y-135371428D01*
X201173942Y-135414630D01*
X201220745Y-135431007D01*
X201220750Y-135431008D01*
X201399996Y-135451204D01*
X201400000Y-135451204D01*
X201400004Y-135451204D01*
X201579249Y-135431008D01*
X201579252Y-135431007D01*
X201579255Y-135431007D01*
X201749522Y-135371428D01*
X201902262Y-135275455D01*
X202029816Y-135147901D01*
X202125789Y-134995161D01*
X202185368Y-134824894D01*
X202186182Y-134817664D01*
X202213245Y-134753250D01*
X202221702Y-134743881D01*
X202403767Y-134561816D01*
X202465090Y-134528334D01*
X202491447Y-134525500D01*
X204569932Y-134525500D01*
X204635904Y-134544506D01*
X204725477Y-134600789D01*
X204725481Y-134600790D01*
X204895737Y-134660366D01*
X204895743Y-134660367D01*
X204895745Y-134660368D01*
X204895746Y-134660368D01*
X204895750Y-134660369D01*
X205074996Y-134680565D01*
X205075000Y-134680565D01*
X205075001Y-134680565D01*
X205083324Y-134679627D01*
X205136617Y-134673622D01*
X205205437Y-134685676D01*
X205256817Y-134733024D01*
X205274500Y-134796842D01*
X205274500Y-135968130D01*
X205254815Y-136035169D01*
X205202011Y-136080924D01*
X205164384Y-136091350D01*
X205029694Y-136106525D01*
X205029690Y-136106526D01*
X204859421Y-136166106D01*
X204706682Y-136262079D01*
X204579129Y-136389632D01*
X204483156Y-136542371D01*
X204423576Y-136712640D01*
X204423575Y-136712645D01*
X204403380Y-136891891D01*
X204403380Y-136891898D01*
X204423575Y-137071144D01*
X204423576Y-137071149D01*
X204483156Y-137241418D01*
X204579130Y-137394158D01*
X204581390Y-137396992D01*
X204582279Y-137399170D01*
X204582834Y-137400053D01*
X204582679Y-137400150D01*
X204607800Y-137461678D01*
X204608445Y-137474307D01*
X204608445Y-137814487D01*
X204588760Y-137881526D01*
X204572126Y-137902168D01*
X202287181Y-140187113D01*
X202225858Y-140220598D01*
X202156166Y-140215614D01*
X202100233Y-140173742D01*
X202075816Y-140108278D01*
X202075500Y-140099432D01*
X202075500Y-139410501D01*
X202077268Y-139394488D01*
X202077026Y-139394466D01*
X202077758Y-139386710D01*
X202077760Y-139386703D01*
X202075561Y-139316735D01*
X202075500Y-139312840D01*
X202075500Y-139284077D01*
X202075499Y-139284070D01*
X202074949Y-139279716D01*
X202074030Y-139268054D01*
X202072597Y-139222430D01*
X202066676Y-139202052D01*
X202062731Y-139183003D01*
X202060071Y-139161942D01*
X202043261Y-139119487D01*
X202039481Y-139108445D01*
X202038832Y-139106211D01*
X202026744Y-139064601D01*
X202015939Y-139046332D01*
X202007379Y-139028858D01*
X202002040Y-139015373D01*
X201999568Y-139009129D01*
X201972737Y-138972199D01*
X201966323Y-138962435D01*
X201955350Y-138943881D01*
X201943081Y-138923135D01*
X201928075Y-138908129D01*
X201915435Y-138893330D01*
X201902961Y-138876160D01*
X201867780Y-138847056D01*
X201859140Y-138839194D01*
X198820434Y-135800488D01*
X198810361Y-135787914D01*
X198810174Y-135788070D01*
X198805198Y-135782054D01*
X198754167Y-135734134D01*
X198751369Y-135731423D01*
X198731035Y-135711089D01*
X198727548Y-135708384D01*
X198718669Y-135700800D01*
X198685396Y-135669554D01*
X198685388Y-135669548D01*
X198666792Y-135659325D01*
X198650531Y-135648644D01*
X198633763Y-135635637D01*
X198614002Y-135627086D01*
X198591853Y-135617501D01*
X198581394Y-135612377D01*
X198541368Y-135590373D01*
X198541365Y-135590372D01*
X198520801Y-135585092D01*
X198502396Y-135578790D01*
X198482927Y-135570365D01*
X198482921Y-135570363D01*
X198437837Y-135563223D01*
X198426398Y-135560854D01*
X198382180Y-135549500D01*
X198382177Y-135549500D01*
X198360955Y-135549500D01*
X198341555Y-135547973D01*
X198320596Y-135544653D01*
X198320595Y-135544653D01*
X198285475Y-135547973D01*
X198275140Y-135548950D01*
X198263470Y-135549500D01*
X198230068Y-135549500D01*
X198164096Y-135530494D01*
X198074522Y-135474210D01*
X198074518Y-135474209D01*
X197904262Y-135414633D01*
X197904249Y-135414630D01*
X197725004Y-135394435D01*
X197724996Y-135394435D01*
X197545750Y-135414630D01*
X197545742Y-135414632D01*
X197415454Y-135460222D01*
X197345675Y-135463783D01*
X197285048Y-135429054D01*
X197252821Y-135367061D01*
X197250500Y-135343180D01*
X197250500Y-132170807D01*
X197270185Y-132103768D01*
X197286815Y-132083130D01*
X198023224Y-131346720D01*
X198084545Y-131313237D01*
X198097019Y-131311183D01*
X198104255Y-131310368D01*
X198274522Y-131250789D01*
X198427262Y-131154816D01*
X198554816Y-131027262D01*
X198650789Y-130874522D01*
X198710368Y-130704255D01*
X198710369Y-130704249D01*
X198730565Y-130525003D01*
X198730565Y-130524996D01*
X198710369Y-130345750D01*
X198710368Y-130345745D01*
X198696727Y-130306762D01*
X198650789Y-130175478D01*
X198554816Y-130022738D01*
X198427262Y-129895184D01*
X198367406Y-129857574D01*
X198274523Y-129799211D01*
X198104254Y-129739631D01*
X198104249Y-129739630D01*
X197925004Y-129719435D01*
X197924996Y-129719435D01*
X197745750Y-129739630D01*
X197745745Y-129739631D01*
X197575476Y-129799211D01*
X197422737Y-129895184D01*
X197295184Y-130022737D01*
X197199210Y-130175478D01*
X197139632Y-130345744D01*
X197139630Y-130345752D01*
X197138815Y-130352988D01*
X197111743Y-130417400D01*
X197103277Y-130426775D01*
X196787181Y-130742872D01*
X196725858Y-130776357D01*
X196656167Y-130771373D01*
X196600233Y-130729502D01*
X196575816Y-130664037D01*
X196575500Y-130655191D01*
X196575500Y-129570807D01*
X196595185Y-129503768D01*
X196611814Y-129483130D01*
X197698224Y-128396720D01*
X197759545Y-128363237D01*
X197772019Y-128361183D01*
X197779255Y-128360368D01*
X197949522Y-128300789D01*
X198102262Y-128204816D01*
X198229816Y-128077262D01*
X198325789Y-127924522D01*
X198385368Y-127754255D01*
X198385531Y-127752809D01*
X198405565Y-127575003D01*
X198405565Y-127574996D01*
X198385369Y-127395750D01*
X198385368Y-127395745D01*
X198373689Y-127362369D01*
X198325789Y-127225478D01*
X198324992Y-127224210D01*
X198257883Y-127117407D01*
X198229816Y-127072738D01*
X198102262Y-126945184D01*
X198077804Y-126929816D01*
X197949523Y-126849211D01*
X197779254Y-126789631D01*
X197779249Y-126789630D01*
X197600004Y-126769435D01*
X197599996Y-126769435D01*
X197420750Y-126789630D01*
X197420745Y-126789631D01*
X197250476Y-126849211D01*
X197097737Y-126945184D01*
X196970184Y-127072737D01*
X196874210Y-127225478D01*
X196814632Y-127395744D01*
X196814630Y-127395752D01*
X196813815Y-127402988D01*
X196786743Y-127467400D01*
X196778277Y-127476775D01*
X196100180Y-128154872D01*
X196038857Y-128188357D01*
X195969165Y-128183373D01*
X195924818Y-128154872D01*
X195320434Y-127550488D01*
X195310361Y-127537914D01*
X195310174Y-127538070D01*
X195305198Y-127532054D01*
X195254167Y-127484134D01*
X195251369Y-127481423D01*
X195231035Y-127461089D01*
X195227548Y-127458384D01*
X195218669Y-127450800D01*
X195185396Y-127419554D01*
X195185388Y-127419548D01*
X195166792Y-127409325D01*
X195150531Y-127398644D01*
X195133763Y-127385637D01*
X195117409Y-127378560D01*
X195091853Y-127367501D01*
X195081394Y-127362377D01*
X195041368Y-127340373D01*
X195041365Y-127340372D01*
X195020801Y-127335092D01*
X195002396Y-127328790D01*
X194982927Y-127320365D01*
X194982921Y-127320363D01*
X194937837Y-127313223D01*
X194926398Y-127310854D01*
X194882180Y-127299500D01*
X194882177Y-127299500D01*
X194860955Y-127299500D01*
X194841555Y-127297973D01*
X194820596Y-127294653D01*
X194820595Y-127294653D01*
X194785475Y-127297973D01*
X194775140Y-127298950D01*
X194763470Y-127299500D01*
X193230068Y-127299500D01*
X193164096Y-127280494D01*
X193074522Y-127224210D01*
X193074518Y-127224209D01*
X192904262Y-127164633D01*
X192904249Y-127164630D01*
X192725004Y-127144435D01*
X192724996Y-127144435D01*
X192545750Y-127164630D01*
X192545745Y-127164631D01*
X192375476Y-127224211D01*
X192222737Y-127320184D01*
X192095184Y-127447737D01*
X191999211Y-127600476D01*
X191939631Y-127770745D01*
X191939630Y-127770750D01*
X191919435Y-127949996D01*
X191919435Y-127950003D01*
X191939630Y-128129249D01*
X191939631Y-128129254D01*
X191999211Y-128299523D01*
X192062881Y-128400852D01*
X192095184Y-128452262D01*
X192222738Y-128579816D01*
X192285904Y-128619506D01*
X192351013Y-128660417D01*
X192375478Y-128675789D01*
X192545739Y-128735366D01*
X192545745Y-128735368D01*
X192545750Y-128735369D01*
X192724996Y-128755565D01*
X192725000Y-128755565D01*
X192725004Y-128755565D01*
X192904249Y-128735369D01*
X192904251Y-128735368D01*
X192904255Y-128735368D01*
X192904258Y-128735366D01*
X192904262Y-128735366D01*
X192994377Y-128703832D01*
X193074522Y-128675789D01*
X193164096Y-128619505D01*
X193230068Y-128600500D01*
X194479192Y-128600500D01*
X194546231Y-128620185D01*
X194566873Y-128636819D01*
X194748241Y-128818187D01*
X194781726Y-128879510D01*
X194780664Y-128936705D01*
X194774500Y-128960708D01*
X194774500Y-128981937D01*
X194772973Y-129001337D01*
X194769653Y-129022296D01*
X194773950Y-129067751D01*
X194774500Y-129079421D01*
X194774500Y-131464494D01*
X194772732Y-131480505D01*
X194772974Y-131480528D01*
X194772240Y-131488294D01*
X194772240Y-131488296D01*
X194772608Y-131499996D01*
X194774439Y-131558262D01*
X194774500Y-131562157D01*
X194774500Y-131590920D01*
X194774501Y-131590938D01*
X194775053Y-131595311D01*
X194775968Y-131606941D01*
X194777402Y-131652567D01*
X194777403Y-131652570D01*
X194783323Y-131672948D01*
X194787268Y-131691996D01*
X194789928Y-131713054D01*
X194789931Y-131713065D01*
X194806737Y-131755514D01*
X194810520Y-131766563D01*
X194823254Y-131810395D01*
X194823255Y-131810397D01*
X194834060Y-131828666D01*
X194842617Y-131846134D01*
X194848226Y-131860300D01*
X194850432Y-131865872D01*
X194877266Y-131902806D01*
X194883678Y-131912568D01*
X194903299Y-131945745D01*
X194906919Y-131951865D01*
X194906923Y-131951869D01*
X194913181Y-131958127D01*
X194946666Y-132019450D01*
X194949500Y-132045808D01*
X194949500Y-135848453D01*
X194929815Y-135915492D01*
X194877011Y-135961247D01*
X194807853Y-135971191D01*
X194744297Y-135942166D01*
X194737819Y-135936134D01*
X194040190Y-135238505D01*
X194006705Y-135177182D01*
X194011689Y-135107490D01*
X194045532Y-135060814D01*
X194044458Y-135059740D01*
X194109037Y-134995161D01*
X194176936Y-134927262D01*
X194272909Y-134774522D01*
X194332488Y-134604255D01*
X194332489Y-134604249D01*
X194352685Y-134425003D01*
X194352685Y-134424996D01*
X194332489Y-134245750D01*
X194332488Y-134245745D01*
X194313524Y-134191549D01*
X194272909Y-134075478D01*
X194265493Y-134063676D01*
X194217748Y-133987690D01*
X194176936Y-133922738D01*
X194176935Y-133922737D01*
X194173231Y-133916842D01*
X194174503Y-133916042D01*
X194151144Y-133858825D01*
X194150500Y-133846199D01*
X194150500Y-132630067D01*
X194169507Y-132564094D01*
X194225788Y-132474524D01*
X194226131Y-132473545D01*
X194285368Y-132304255D01*
X194291733Y-132247766D01*
X194305565Y-132125003D01*
X194305565Y-132124996D01*
X194285369Y-131945750D01*
X194285368Y-131945745D01*
X194240293Y-131816929D01*
X194225789Y-131775478D01*
X194220755Y-131767467D01*
X194169343Y-131685645D01*
X194129816Y-131622738D01*
X194002262Y-131495184D01*
X193955073Y-131465533D01*
X193849523Y-131399211D01*
X193679254Y-131339631D01*
X193679249Y-131339630D01*
X193500004Y-131319435D01*
X193499996Y-131319435D01*
X193320750Y-131339630D01*
X193320745Y-131339631D01*
X193150476Y-131399211D01*
X192997737Y-131495184D01*
X192870184Y-131622737D01*
X192774211Y-131775476D01*
X192714631Y-131945745D01*
X192714630Y-131945750D01*
X192694435Y-132124996D01*
X192694435Y-132125003D01*
X192714630Y-132304249D01*
X192714631Y-132304254D01*
X192774211Y-132474524D01*
X192830493Y-132564094D01*
X192849500Y-132630067D01*
X192849500Y-133748453D01*
X192829815Y-133815492D01*
X192777011Y-133861247D01*
X192707853Y-133871191D01*
X192644297Y-133842166D01*
X192637819Y-133836134D01*
X191514673Y-132712988D01*
X191504600Y-132700414D01*
X191504413Y-132700570D01*
X191499437Y-132694554D01*
X191448406Y-132646634D01*
X191445608Y-132643923D01*
X191425274Y-132623589D01*
X191421787Y-132620884D01*
X191412908Y-132613300D01*
X191379635Y-132582054D01*
X191379627Y-132582048D01*
X191361031Y-132571825D01*
X191344770Y-132561144D01*
X191328002Y-132548137D01*
X191311648Y-132541060D01*
X191286092Y-132530001D01*
X191275633Y-132524877D01*
X191235607Y-132502873D01*
X191235604Y-132502872D01*
X191215040Y-132497592D01*
X191196635Y-132491290D01*
X191177166Y-132482865D01*
X191177160Y-132482863D01*
X191132076Y-132475723D01*
X191120637Y-132473354D01*
X191076419Y-132462000D01*
X191076416Y-132462000D01*
X191055194Y-132462000D01*
X191035794Y-132460473D01*
X191014835Y-132457153D01*
X191014834Y-132457153D01*
X190972061Y-132461196D01*
X190969379Y-132461450D01*
X190957709Y-132462000D01*
X190541265Y-132462000D01*
X190525254Y-132460232D01*
X190525232Y-132460474D01*
X190517465Y-132459740D01*
X190517464Y-132459740D01*
X190447498Y-132461939D01*
X190443603Y-132462000D01*
X190414836Y-132462000D01*
X190414833Y-132462000D01*
X190414818Y-132462001D01*
X190410448Y-132462553D01*
X190398820Y-132463468D01*
X190353195Y-132464902D01*
X190353185Y-132464904D01*
X190332809Y-132470823D01*
X190313769Y-132474766D01*
X190292708Y-132477427D01*
X190292699Y-132477429D01*
X190250252Y-132494235D01*
X190239203Y-132498018D01*
X190195363Y-132510755D01*
X190177093Y-132521560D01*
X190159624Y-132530118D01*
X190139889Y-132537932D01*
X190139887Y-132537933D01*
X190102962Y-132564760D01*
X190093203Y-132571171D01*
X190053893Y-132594420D01*
X190038887Y-132609426D01*
X190024097Y-132622058D01*
X190006928Y-132634532D01*
X190006926Y-132634534D01*
X189977817Y-132669719D01*
X189969958Y-132678356D01*
X189816650Y-132831663D01*
X189755329Y-132865147D01*
X189685638Y-132860163D01*
X189629704Y-132818292D01*
X189605287Y-132752827D01*
X189604971Y-132743981D01*
X189604971Y-130359948D01*
X189606739Y-130343936D01*
X189606497Y-130343914D01*
X189607231Y-130336151D01*
X189606623Y-130316816D01*
X189605032Y-130266167D01*
X189604971Y-130262273D01*
X189604971Y-130233523D01*
X189604970Y-130233516D01*
X189604708Y-130231445D01*
X189604420Y-130229164D01*
X189603502Y-130217507D01*
X189602069Y-130171876D01*
X189596146Y-130151490D01*
X189592200Y-130132435D01*
X189589542Y-130111388D01*
X189586028Y-130102512D01*
X189572732Y-130068932D01*
X189568952Y-130057890D01*
X189556215Y-130014047D01*
X189545411Y-129995779D01*
X189536849Y-129978301D01*
X189529039Y-129958574D01*
X189529036Y-129958570D01*
X189513788Y-129937583D01*
X189502201Y-129921634D01*
X189495802Y-129911893D01*
X189472552Y-129872580D01*
X189472550Y-129872578D01*
X189472549Y-129872576D01*
X189457546Y-129857574D01*
X189444906Y-129842775D01*
X189432432Y-129825605D01*
X189397251Y-129796501D01*
X189388611Y-129788639D01*
X186412153Y-126812181D01*
X186378668Y-126750858D01*
X186383652Y-126681166D01*
X186425524Y-126625233D01*
X186490988Y-126600816D01*
X186499834Y-126600500D01*
X190391577Y-126600500D01*
X190407587Y-126602267D01*
X190407610Y-126602026D01*
X190415371Y-126602758D01*
X190415378Y-126602760D01*
X190485344Y-126600560D01*
X190489239Y-126600500D01*
X190518007Y-126600500D01*
X190522369Y-126599948D01*
X190534021Y-126599030D01*
X190579651Y-126597597D01*
X190600038Y-126591673D01*
X190619078Y-126587731D01*
X190640140Y-126585071D01*
X190682602Y-126568258D01*
X190693639Y-126564480D01*
X190737480Y-126551744D01*
X190755747Y-126540939D01*
X190773218Y-126532380D01*
X190792953Y-126524568D01*
X190829898Y-126497725D01*
X190839640Y-126491326D01*
X190878947Y-126468081D01*
X190893952Y-126453075D01*
X190908750Y-126440436D01*
X190925919Y-126427963D01*
X190955028Y-126392774D01*
X190962862Y-126384164D01*
X191208128Y-126138898D01*
X191269450Y-126105416D01*
X191295808Y-126102582D01*
X196659891Y-126102582D01*
X196675901Y-126104349D01*
X196675924Y-126104108D01*
X196683685Y-126104840D01*
X196683692Y-126104842D01*
X196753658Y-126102642D01*
X196757553Y-126102582D01*
X196786321Y-126102582D01*
X196790683Y-126102030D01*
X196802335Y-126101112D01*
X196847965Y-126099679D01*
X196868352Y-126093755D01*
X196887392Y-126089813D01*
X196908454Y-126087153D01*
X196950916Y-126070340D01*
X196961953Y-126066562D01*
X197005794Y-126053826D01*
X197024061Y-126043021D01*
X197041532Y-126034462D01*
X197061267Y-126026650D01*
X197098212Y-125999807D01*
X197107954Y-125993408D01*
X197147261Y-125970163D01*
X197162266Y-125955157D01*
X197177064Y-125942518D01*
X197194233Y-125930045D01*
X197223342Y-125894856D01*
X197231186Y-125886236D01*
X199362821Y-123754602D01*
X199424142Y-123721119D01*
X199493834Y-123726103D01*
G37*
G04 #@! TD.AperFunction*
G04 #@! TA.AperFunction,Conductor*
G36*
X181663473Y-132926015D02*
G01*
X181673749Y-132933385D01*
X181676582Y-132935644D01*
X181676584Y-132935646D01*
X181790116Y-133006982D01*
X181827272Y-133030330D01*
X181829324Y-133031619D01*
X181999591Y-133091198D01*
X181999596Y-133091199D01*
X182178842Y-133111395D01*
X182178846Y-133111395D01*
X182178849Y-133111395D01*
X182336616Y-133093619D01*
X182405438Y-133105673D01*
X182456818Y-133153023D01*
X182474500Y-133216839D01*
X182474500Y-134499890D01*
X182454815Y-134566929D01*
X182440895Y-134584771D01*
X182419551Y-134607500D01*
X182409322Y-134626106D01*
X182398646Y-134642357D01*
X182385640Y-134659125D01*
X182385636Y-134659131D01*
X182367508Y-134701023D01*
X182362369Y-134711512D01*
X182340372Y-134751523D01*
X182340372Y-134751524D01*
X182335091Y-134772092D01*
X182328791Y-134790494D01*
X182320364Y-134809966D01*
X182313223Y-134855055D01*
X182310854Y-134866493D01*
X182299500Y-134910710D01*
X182299500Y-134931937D01*
X182297973Y-134951336D01*
X182294653Y-134972298D01*
X182298748Y-135015615D01*
X182298950Y-135017751D01*
X182299500Y-135029421D01*
X182299500Y-138602475D01*
X182279815Y-138669514D01*
X182263181Y-138690157D01*
X182201774Y-138751563D01*
X182140450Y-138785047D01*
X182127988Y-138787100D01*
X182120752Y-138787915D01*
X182120744Y-138787917D01*
X181950478Y-138847495D01*
X181797737Y-138943469D01*
X181670184Y-139071022D01*
X181574210Y-139223763D01*
X181514630Y-139394035D01*
X181506898Y-139462668D01*
X181479832Y-139527082D01*
X181422237Y-139566637D01*
X181383678Y-139572785D01*
X179473382Y-139572785D01*
X179406343Y-139553100D01*
X179385701Y-139536466D01*
X177703337Y-137854102D01*
X177669852Y-137792779D01*
X177674836Y-137723087D01*
X177703339Y-137678738D01*
X177711924Y-137670154D01*
X177807897Y-137517414D01*
X177867476Y-137347147D01*
X177867740Y-137344808D01*
X177887673Y-137167895D01*
X177887673Y-137167888D01*
X177867477Y-136988642D01*
X177867474Y-136988629D01*
X177807898Y-136818373D01*
X177807897Y-136818370D01*
X177786116Y-136783706D01*
X177751614Y-136728795D01*
X177732608Y-136662823D01*
X177732608Y-134063676D01*
X177752293Y-133996637D01*
X177805097Y-133950882D01*
X177856608Y-133939676D01*
X178170566Y-133939676D01*
X178230303Y-133955014D01*
X178238687Y-133959623D01*
X178238688Y-133959623D01*
X178238695Y-133959627D01*
X178259267Y-133964908D01*
X178277657Y-133971205D01*
X178297137Y-133979635D01*
X178342241Y-133986778D01*
X178353644Y-133989140D01*
X178397886Y-134000500D01*
X178419114Y-134000500D01*
X178438511Y-134002026D01*
X178459466Y-134005345D01*
X178459467Y-134005346D01*
X178459467Y-134005345D01*
X178459468Y-134005346D01*
X178504915Y-134001050D01*
X178516584Y-134000500D01*
X179094932Y-134000500D01*
X179160904Y-134019506D01*
X179250477Y-134075789D01*
X179250481Y-134075790D01*
X179420737Y-134135366D01*
X179420743Y-134135367D01*
X179420745Y-134135368D01*
X179420746Y-134135368D01*
X179420750Y-134135369D01*
X179599996Y-134155565D01*
X179600000Y-134155565D01*
X179600004Y-134155565D01*
X179779249Y-134135369D01*
X179779252Y-134135368D01*
X179779255Y-134135368D01*
X179949522Y-134075789D01*
X180102262Y-133979816D01*
X180229816Y-133852262D01*
X180325789Y-133699522D01*
X180385368Y-133529255D01*
X180385369Y-133529249D01*
X180405565Y-133350003D01*
X180405565Y-133349996D01*
X180385369Y-133170750D01*
X180385366Y-133170737D01*
X180350566Y-133071285D01*
X180347004Y-133001506D01*
X180381732Y-132940879D01*
X180443726Y-132908651D01*
X180467607Y-132906330D01*
X181596434Y-132906330D01*
X181663473Y-132926015D01*
G37*
G04 #@! TD.AperFunction*
G04 #@! TA.AperFunction,Conductor*
G36*
X189343834Y-134320512D02*
G01*
X189399767Y-134362384D01*
X189424184Y-134427848D01*
X189424500Y-134436694D01*
X189424500Y-138659051D01*
X189404815Y-138726090D01*
X189352011Y-138771845D01*
X189282853Y-138781789D01*
X189219297Y-138752764D01*
X189212819Y-138746732D01*
X188216575Y-137750488D01*
X188206502Y-137737914D01*
X188206315Y-137738070D01*
X188201339Y-137732054D01*
X188150308Y-137684134D01*
X188147510Y-137681423D01*
X188127176Y-137661089D01*
X188123689Y-137658384D01*
X188114810Y-137650800D01*
X188081537Y-137619554D01*
X188081529Y-137619548D01*
X188062933Y-137609325D01*
X188046672Y-137598644D01*
X188029904Y-137585637D01*
X188013550Y-137578560D01*
X187987994Y-137567501D01*
X187977535Y-137562377D01*
X187937509Y-137540373D01*
X187937506Y-137540372D01*
X187916942Y-137535092D01*
X187898537Y-137528790D01*
X187879068Y-137520365D01*
X187879062Y-137520363D01*
X187833978Y-137513223D01*
X187822539Y-137510854D01*
X187778321Y-137499500D01*
X187778318Y-137499500D01*
X187757096Y-137499500D01*
X187737696Y-137497973D01*
X187716737Y-137494653D01*
X187716736Y-137494653D01*
X187681616Y-137497973D01*
X187671281Y-137498950D01*
X187659611Y-137499500D01*
X185945808Y-137499500D01*
X185878769Y-137479815D01*
X185858127Y-137463181D01*
X185047507Y-136652561D01*
X185014022Y-136591238D01*
X185019006Y-136521546D01*
X185060878Y-136465613D01*
X185126342Y-136441196D01*
X185135188Y-136440880D01*
X185874115Y-136440880D01*
X185890125Y-136442647D01*
X185890148Y-136442406D01*
X185897909Y-136443138D01*
X185897916Y-136443140D01*
X185967882Y-136440940D01*
X185971777Y-136440880D01*
X186000545Y-136440880D01*
X186004907Y-136440328D01*
X186016559Y-136439410D01*
X186062189Y-136437977D01*
X186082576Y-136432053D01*
X186101616Y-136428111D01*
X186122678Y-136425451D01*
X186165140Y-136408638D01*
X186176177Y-136404860D01*
X186220018Y-136392124D01*
X186238285Y-136381319D01*
X186255756Y-136372760D01*
X186275491Y-136364948D01*
X186312436Y-136338105D01*
X186322178Y-136331706D01*
X186361485Y-136308461D01*
X186376490Y-136293455D01*
X186391288Y-136280816D01*
X186408457Y-136268343D01*
X186437566Y-136233154D01*
X186445410Y-136224534D01*
X187914950Y-134754996D01*
X187976273Y-134721511D01*
X188002631Y-134718677D01*
X188488205Y-134718677D01*
X188504215Y-134720444D01*
X188504238Y-134720203D01*
X188511999Y-134720935D01*
X188512006Y-134720937D01*
X188581972Y-134718737D01*
X188585867Y-134718677D01*
X188614635Y-134718677D01*
X188618997Y-134718125D01*
X188630649Y-134717207D01*
X188676279Y-134715774D01*
X188696666Y-134709850D01*
X188715706Y-134705908D01*
X188736768Y-134703248D01*
X188779230Y-134686435D01*
X188790267Y-134682657D01*
X188834108Y-134669921D01*
X188852375Y-134659116D01*
X188869846Y-134650557D01*
X188889581Y-134642745D01*
X188926526Y-134615902D01*
X188936268Y-134609503D01*
X188975575Y-134586258D01*
X188990580Y-134571252D01*
X189005378Y-134558613D01*
X189022547Y-134546140D01*
X189051656Y-134510951D01*
X189059490Y-134502341D01*
X189212821Y-134349010D01*
X189274142Y-134315528D01*
X189343834Y-134320512D01*
G37*
G04 #@! TD.AperFunction*
G04 #@! TA.AperFunction,Conductor*
G36*
X185775924Y-128016289D02*
G01*
X185782402Y-128022321D01*
X188267652Y-130507571D01*
X188301137Y-130568894D01*
X188303971Y-130595252D01*
X188303971Y-133293677D01*
X188284286Y-133360716D01*
X188231482Y-133406471D01*
X188179971Y-133417677D01*
X187767328Y-133417677D01*
X187751317Y-133415909D01*
X187751295Y-133416151D01*
X187743528Y-133415417D01*
X187743527Y-133415417D01*
X187673561Y-133417616D01*
X187669666Y-133417677D01*
X187640898Y-133417677D01*
X187640895Y-133417677D01*
X187640880Y-133417678D01*
X187636510Y-133418230D01*
X187624882Y-133419145D01*
X187579258Y-133420579D01*
X187579248Y-133420581D01*
X187558872Y-133426500D01*
X187539831Y-133430443D01*
X187518776Y-133433103D01*
X187518760Y-133433107D01*
X187476309Y-133449914D01*
X187465263Y-133453696D01*
X187421422Y-133466433D01*
X187403150Y-133477239D01*
X187385684Y-133485796D01*
X187365951Y-133493609D01*
X187329016Y-133520443D01*
X187319257Y-133526853D01*
X187279955Y-133550097D01*
X187264949Y-133565103D01*
X187250159Y-133577735D01*
X187232990Y-133590209D01*
X187232988Y-133590211D01*
X187203879Y-133625396D01*
X187196019Y-133634033D01*
X185726493Y-135103561D01*
X185665170Y-135137046D01*
X185638812Y-135139880D01*
X184689688Y-135139880D01*
X184623716Y-135120874D01*
X184534139Y-135064589D01*
X184508545Y-135055633D01*
X184451769Y-135014911D01*
X184426022Y-134949958D01*
X184425500Y-134938592D01*
X184425500Y-134935949D01*
X184427027Y-134916549D01*
X184430346Y-134895595D01*
X184426050Y-134850147D01*
X184425500Y-134838478D01*
X184425500Y-132210501D01*
X184427268Y-132194488D01*
X184427026Y-132194466D01*
X184427758Y-132186710D01*
X184427760Y-132186703D01*
X184425561Y-132116735D01*
X184425500Y-132112840D01*
X184425500Y-132084077D01*
X184425499Y-132084070D01*
X184424949Y-132079716D01*
X184424030Y-132068034D01*
X184424026Y-132067906D01*
X184441606Y-132000285D01*
X184492956Y-131952903D01*
X184561770Y-131940804D01*
X184613939Y-131959040D01*
X184620699Y-131963288D01*
X184728114Y-132000874D01*
X184790966Y-132022867D01*
X184790971Y-132022868D01*
X184970217Y-132043064D01*
X184970221Y-132043064D01*
X184970225Y-132043064D01*
X185149470Y-132022868D01*
X185149473Y-132022867D01*
X185149476Y-132022867D01*
X185319743Y-131963288D01*
X185472483Y-131867315D01*
X185600037Y-131739761D01*
X185696010Y-131587021D01*
X185755589Y-131416754D01*
X185756561Y-131408127D01*
X185775786Y-131237502D01*
X185775786Y-131237495D01*
X185755590Y-131058249D01*
X185755589Y-131058244D01*
X185723835Y-130967497D01*
X185696010Y-130887977D01*
X185600037Y-130735237D01*
X185600035Y-130735235D01*
X185600034Y-130735233D01*
X185597771Y-130732395D01*
X185596880Y-130730214D01*
X185596332Y-130729341D01*
X185596485Y-130729244D01*
X185571365Y-130667708D01*
X185570721Y-130655086D01*
X185570721Y-128110002D01*
X185590406Y-128042963D01*
X185643210Y-127997208D01*
X185712368Y-127987264D01*
X185775924Y-128016289D01*
G37*
G04 #@! TD.AperFunction*
G04 #@! TA.AperFunction,Conductor*
G36*
X176710638Y-132926015D02*
G01*
X176756393Y-132978819D01*
X176766337Y-133047977D01*
X176737312Y-133111533D01*
X176731279Y-133118012D01*
X176682591Y-133166699D01*
X176670018Y-133176773D01*
X176670173Y-133176960D01*
X176664166Y-133181929D01*
X176616241Y-133232963D01*
X176613535Y-133235755D01*
X176593198Y-133256093D01*
X176593185Y-133256108D01*
X176590481Y-133259593D01*
X176582914Y-133268452D01*
X176551660Y-133301737D01*
X176541430Y-133320343D01*
X176530754Y-133336594D01*
X176517748Y-133353362D01*
X176517744Y-133353368D01*
X176499616Y-133395260D01*
X176494477Y-133405749D01*
X176472480Y-133445760D01*
X176472480Y-133445761D01*
X176467199Y-133466329D01*
X176460899Y-133484731D01*
X176452472Y-133504203D01*
X176445331Y-133549292D01*
X176442962Y-133560731D01*
X176440049Y-133572076D01*
X176404310Y-133632113D01*
X176341786Y-133663298D01*
X176278990Y-133658278D01*
X176154262Y-133614633D01*
X176154249Y-133614630D01*
X175975004Y-133594435D01*
X175975001Y-133594435D01*
X175975000Y-133594435D01*
X175970975Y-133594888D01*
X175963380Y-133595744D01*
X175894558Y-133583687D01*
X175843180Y-133536336D01*
X175825500Y-133472523D01*
X175825500Y-133030330D01*
X175845185Y-132963291D01*
X175897989Y-132917536D01*
X175949500Y-132906330D01*
X176643599Y-132906330D01*
X176710638Y-132926015D01*
G37*
G04 #@! TD.AperFunction*
G04 #@! TA.AperFunction,Conductor*
G36*
X169658270Y-130293479D02*
G01*
X169702617Y-130321980D01*
X169722738Y-130342101D01*
X169796026Y-130388151D01*
X169871801Y-130435764D01*
X169875478Y-130438074D01*
X169917680Y-130452841D01*
X170045745Y-130497653D01*
X170045750Y-130497654D01*
X170134324Y-130507633D01*
X170198738Y-130534698D01*
X170208123Y-130543172D01*
X170368270Y-130703319D01*
X170378964Y-130715513D01*
X170398186Y-130740564D01*
X170398187Y-130740565D01*
X170398189Y-130740567D01*
X170451426Y-130781417D01*
X170523630Y-130836821D01*
X170523633Y-130836822D01*
X170523634Y-130836823D01*
X170553542Y-130849211D01*
X170669709Y-130897329D01*
X170726571Y-130904815D01*
X170826470Y-130917967D01*
X170826471Y-130917967D01*
X170857773Y-130913845D01*
X170873958Y-130912785D01*
X171545287Y-130912785D01*
X171612326Y-130932470D01*
X171643661Y-130961297D01*
X171648417Y-130967495D01*
X171648419Y-130967497D01*
X171673466Y-130986716D01*
X171685661Y-130997411D01*
X171919194Y-131230944D01*
X171951070Y-131262819D01*
X171984555Y-131324142D01*
X171979571Y-131393833D01*
X171937700Y-131449767D01*
X171872235Y-131474184D01*
X171863389Y-131474500D01*
X170558273Y-131474500D01*
X170542088Y-131473439D01*
X170510786Y-131469318D01*
X170510785Y-131469318D01*
X170417844Y-131481554D01*
X170354025Y-131489955D01*
X170354023Y-131489956D01*
X170207943Y-131550464D01*
X170082504Y-131646716D01*
X170063275Y-131671775D01*
X170052584Y-131683965D01*
X169841511Y-131895039D01*
X169780188Y-131928524D01*
X169710497Y-131923540D01*
X169654563Y-131881669D01*
X169630146Y-131816204D01*
X169629830Y-131807358D01*
X169629830Y-131800731D01*
X169609634Y-131621485D01*
X169609633Y-131621480D01*
X169600476Y-131595311D01*
X169550054Y-131451213D01*
X169549145Y-131449767D01*
X169492377Y-131359421D01*
X169454081Y-131298473D01*
X169454079Y-131298471D01*
X169454078Y-131298469D01*
X169451815Y-131295631D01*
X169450924Y-131293450D01*
X169450376Y-131292577D01*
X169450529Y-131292480D01*
X169425409Y-131230944D01*
X169424765Y-131218322D01*
X169424765Y-130475832D01*
X169444450Y-130408793D01*
X169461084Y-130388151D01*
X169527255Y-130321980D01*
X169588578Y-130288495D01*
X169658270Y-130293479D01*
G37*
G04 #@! TD.AperFunction*
G04 #@! TA.AperFunction,Conductor*
G36*
X170684627Y-124995185D02*
G01*
X170694903Y-125002555D01*
X170697736Y-125004814D01*
X170697738Y-125004816D01*
X170850478Y-125100789D01*
X170950025Y-125135622D01*
X171020745Y-125160368D01*
X171020750Y-125160369D01*
X171199996Y-125180565D01*
X171200000Y-125180565D01*
X171200004Y-125180565D01*
X171379249Y-125160369D01*
X171379251Y-125160368D01*
X171379255Y-125160368D01*
X171379258Y-125160366D01*
X171379262Y-125160366D01*
X171459545Y-125132274D01*
X171529324Y-125128712D01*
X171589951Y-125163440D01*
X171622179Y-125225434D01*
X171624500Y-125249315D01*
X171624500Y-127664494D01*
X171622732Y-127680505D01*
X171622974Y-127680528D01*
X171622240Y-127688294D01*
X171624439Y-127758262D01*
X171624500Y-127762157D01*
X171624500Y-127790920D01*
X171624501Y-127790938D01*
X171625053Y-127795311D01*
X171625968Y-127806941D01*
X171627402Y-127852567D01*
X171627403Y-127852570D01*
X171633323Y-127872948D01*
X171637268Y-127891996D01*
X171639928Y-127913054D01*
X171639931Y-127913065D01*
X171656737Y-127955514D01*
X171660520Y-127966563D01*
X171673254Y-128010395D01*
X171673255Y-128010397D01*
X171684060Y-128028666D01*
X171692617Y-128046134D01*
X171698226Y-128060300D01*
X171700432Y-128065872D01*
X171708965Y-128077616D01*
X171732444Y-128143423D01*
X171716618Y-128211477D01*
X171666511Y-128260171D01*
X171608646Y-128274500D01*
X170172487Y-128274500D01*
X170156302Y-128273439D01*
X170125000Y-128269318D01*
X170085639Y-128274500D01*
X169968239Y-128289955D01*
X169968237Y-128289956D01*
X169822157Y-128350464D01*
X169696718Y-128446716D01*
X169677489Y-128471775D01*
X169666798Y-128483965D01*
X168433230Y-129717533D01*
X168421040Y-129728224D01*
X168395981Y-129747453D01*
X168338688Y-129822121D01*
X168299729Y-129872893D01*
X168299726Y-129872898D01*
X168239222Y-130018969D01*
X168239220Y-130018974D01*
X168218583Y-130175733D01*
X168218583Y-130175734D01*
X168222704Y-130207036D01*
X168223765Y-130223222D01*
X168223765Y-130900167D01*
X168204080Y-130967206D01*
X168151276Y-131012961D01*
X168082118Y-131022905D01*
X168018562Y-130993880D01*
X168012084Y-130987848D01*
X166961819Y-129937583D01*
X166928334Y-129876260D01*
X166925500Y-129849902D01*
X166925500Y-127625096D01*
X166945185Y-127558057D01*
X166961815Y-127537419D01*
X167620897Y-126878336D01*
X167682220Y-126844852D01*
X167751912Y-126849836D01*
X167796259Y-126878337D01*
X167847738Y-126929816D01*
X167905229Y-126965940D01*
X168000264Y-127025655D01*
X168000478Y-127025789D01*
X168064091Y-127048048D01*
X168170745Y-127085368D01*
X168170750Y-127085369D01*
X168349996Y-127105565D01*
X168350000Y-127105565D01*
X168350004Y-127105565D01*
X168529249Y-127085369D01*
X168529252Y-127085368D01*
X168529255Y-127085368D01*
X168699522Y-127025789D01*
X168852262Y-126929816D01*
X168916237Y-126865841D01*
X168977560Y-126832356D01*
X169003918Y-126829522D01*
X169679050Y-126829522D01*
X169720005Y-126836480D01*
X169799767Y-126864390D01*
X169799772Y-126864391D01*
X169979018Y-126884587D01*
X169979022Y-126884587D01*
X169979026Y-126884587D01*
X170158271Y-126864391D01*
X170158274Y-126864390D01*
X170158277Y-126864390D01*
X170328544Y-126804811D01*
X170481284Y-126708838D01*
X170608838Y-126581284D01*
X170704811Y-126428544D01*
X170764390Y-126258277D01*
X170764391Y-126258271D01*
X170784587Y-126079025D01*
X170784587Y-126079018D01*
X170764391Y-125899772D01*
X170764390Y-125899767D01*
X170740237Y-125830741D01*
X170704811Y-125729500D01*
X170608838Y-125576760D01*
X170481284Y-125449206D01*
X170414289Y-125407110D01*
X170328545Y-125353233D01*
X170158276Y-125293653D01*
X170158271Y-125293652D01*
X169979026Y-125273457D01*
X169979018Y-125273457D01*
X169799772Y-125293652D01*
X169799767Y-125293653D01*
X169720005Y-125321564D01*
X169679050Y-125328522D01*
X169365741Y-125328522D01*
X169298702Y-125308837D01*
X169252947Y-125256033D01*
X169243003Y-125186875D01*
X169251180Y-125157069D01*
X169260064Y-125135622D01*
X169266950Y-125083314D01*
X169295216Y-125019418D01*
X169353540Y-124980947D01*
X169389889Y-124975500D01*
X170617588Y-124975500D01*
X170684627Y-124995185D01*
G37*
G04 #@! TD.AperFunction*
G04 #@! TA.AperFunction,Conductor*
G36*
X177090607Y-129645321D02*
G01*
X177111249Y-129661955D01*
X178036346Y-130587052D01*
X178069831Y-130648375D01*
X178064847Y-130718067D01*
X178022975Y-130774000D01*
X177989620Y-130791774D01*
X177825481Y-130849209D01*
X177825477Y-130849210D01*
X177735904Y-130905494D01*
X177669932Y-130924500D01*
X176420808Y-130924500D01*
X176353769Y-130904815D01*
X176333127Y-130888181D01*
X175465870Y-130020924D01*
X175432385Y-129959601D01*
X175437369Y-129889909D01*
X175479241Y-129833976D01*
X175544705Y-129809559D01*
X175567435Y-129810023D01*
X175571702Y-129810503D01*
X175571703Y-129810504D01*
X175614433Y-129815318D01*
X175750955Y-129830701D01*
X175750958Y-129830701D01*
X175750962Y-129830701D01*
X175930207Y-129810505D01*
X175930210Y-129810504D01*
X175930213Y-129810504D01*
X176100480Y-129750925D01*
X176253220Y-129654952D01*
X176253225Y-129654946D01*
X176256055Y-129652691D01*
X176258233Y-129651801D01*
X176259116Y-129651247D01*
X176259213Y-129651401D01*
X176320741Y-129626281D01*
X176333370Y-129625636D01*
X177023568Y-129625636D01*
X177090607Y-129645321D01*
G37*
G04 #@! TD.AperFunction*
G04 #@! TA.AperFunction,Conductor*
G36*
X182155703Y-121016170D02*
G01*
X182162181Y-121022202D01*
X182298489Y-121158510D01*
X182308560Y-121171080D01*
X182308747Y-121170926D01*
X182313720Y-121176937D01*
X182364757Y-121224864D01*
X182367554Y-121227575D01*
X182387892Y-121247913D01*
X182391375Y-121250615D01*
X182400251Y-121258196D01*
X182418325Y-121275168D01*
X182433532Y-121289448D01*
X182433535Y-121289450D01*
X182433537Y-121289451D01*
X182452132Y-121299674D01*
X182468393Y-121310356D01*
X182483261Y-121321888D01*
X182485161Y-121323362D01*
X182527063Y-121341494D01*
X182537537Y-121346625D01*
X182577557Y-121368627D01*
X182598129Y-121373908D01*
X182616519Y-121380205D01*
X182635999Y-121388635D01*
X182681100Y-121395777D01*
X182692511Y-121398141D01*
X182736748Y-121409500D01*
X182757970Y-121409500D01*
X182777369Y-121411026D01*
X182798330Y-121414347D01*
X182843785Y-121410050D01*
X182855455Y-121409500D01*
X184026000Y-121409500D01*
X184093039Y-121429185D01*
X184138794Y-121481989D01*
X184150000Y-121533500D01*
X184150000Y-121809000D01*
X185154428Y-121809000D01*
X185131318Y-121844960D01*
X185090000Y-121985673D01*
X185090000Y-122132327D01*
X185131318Y-122273040D01*
X185154428Y-122309000D01*
X184150000Y-122309000D01*
X184150000Y-123056844D01*
X184156401Y-123116372D01*
X184156403Y-123116379D01*
X184206645Y-123251086D01*
X184206649Y-123251093D01*
X184292809Y-123366187D01*
X184292812Y-123366190D01*
X184407906Y-123452350D01*
X184407913Y-123452354D01*
X184542620Y-123502596D01*
X184542627Y-123502598D01*
X184602155Y-123508999D01*
X184602172Y-123509000D01*
X185350000Y-123509000D01*
X185350000Y-122505494D01*
X185454839Y-122553373D01*
X185563527Y-122569000D01*
X185636473Y-122569000D01*
X185745161Y-122553373D01*
X185850000Y-122505494D01*
X185850000Y-123509000D01*
X186010814Y-123509000D01*
X186077853Y-123528685D01*
X186123608Y-123581489D01*
X186127853Y-123592039D01*
X186134310Y-123610491D01*
X186174210Y-123724521D01*
X186270184Y-123877262D01*
X186280741Y-123887819D01*
X186314226Y-123949142D01*
X186309242Y-124018834D01*
X186267370Y-124074767D01*
X186201906Y-124099184D01*
X186193060Y-124099500D01*
X184740782Y-124099500D01*
X184673743Y-124079815D01*
X184653101Y-124063181D01*
X184571582Y-123981662D01*
X184533850Y-123950895D01*
X184453407Y-123885302D01*
X184273049Y-123791091D01*
X184077418Y-123735113D01*
X184077417Y-123735112D01*
X184077416Y-123735112D01*
X183874525Y-123719662D01*
X183874522Y-123719662D01*
X183672678Y-123745368D01*
X183672670Y-123745370D01*
X183480129Y-123811183D01*
X183480117Y-123811189D01*
X183304778Y-123914406D01*
X183304771Y-123914411D01*
X183153785Y-124050823D01*
X183150319Y-124055543D01*
X183094772Y-124097926D01*
X183025129Y-124103550D01*
X182963501Y-124070629D01*
X182962693Y-124069828D01*
X181986819Y-123093954D01*
X181953334Y-123032631D01*
X181950500Y-123006273D01*
X181950500Y-121109883D01*
X181970185Y-121042844D01*
X182022989Y-120997089D01*
X182092147Y-120987145D01*
X182155703Y-121016170D01*
G37*
G04 #@! TD.AperFunction*
M02*
