G04 #@! TF.GenerationSoftware,KiCad,Pcbnew,7.0.11*
G04 #@! TF.CreationDate,2024-03-28T06:07:28-04:00*
G04 #@! TF.ProjectId,Motherboard,4d6f7468-6572-4626-9f61-72642e6b6963,rev?*
G04 #@! TF.SameCoordinates,Original*
G04 #@! TF.FileFunction,Soldermask,Bot*
G04 #@! TF.FilePolarity,Negative*
%FSLAX46Y46*%
G04 Gerber Fmt 4.6, Leading zero omitted, Abs format (unit mm)*
G04 Created by KiCad (PCBNEW 7.0.11) date 2024-03-28 06:07:28*
%MOMM*%
%LPD*%
G01*
G04 APERTURE LIST*
G04 Aperture macros list*
%AMHorizOval*
0 Thick line with rounded ends*
0 $1 width*
0 $2 $3 position (X,Y) of the first rounded end (center of the circle)*
0 $4 $5 position (X,Y) of the second rounded end (center of the circle)*
0 Add line between two ends*
20,1,$1,$2,$3,$4,$5,0*
0 Add two circle primitives to create the rounded ends*
1,1,$1,$2,$3*
1,1,$1,$4,$5*%
%AMRotRect*
0 Rectangle, with rotation*
0 The origin of the aperture is its center*
0 $1 length*
0 $2 width*
0 $3 Rotation angle, in degrees counterclockwise*
0 Add horizontal line*
21,1,$1,$2,0,0,$3*%
G04 Aperture macros list end*
%ADD10HorizOval,0.890000X-0.318756X0.085410X0.318756X-0.085410X0*%
%ADD11HorizOval,0.950000X-0.038823X-0.144889X0.038823X0.144889X0*%
%ADD12RotRect,1.700000X1.700000X142.000000*%
%ADD13HorizOval,1.700000X0.000000X0.000000X0.000000X0.000000X0*%
%ADD14C,1.498600*%
%ADD15C,2.999999*%
%ADD16RotRect,1.520000X1.520000X340.000000*%
%ADD17C,1.520000*%
%ADD18R,1.520000X1.520000*%
%ADD19RotRect,1.520000X1.520000X315.000000*%
%ADD20R,1.900000X1.900000*%
%ADD21C,1.900000*%
%ADD22R,2.000000X2.000000*%
%ADD23C,2.000000*%
%ADD24RotRect,1.520000X1.520000X45.000000*%
%ADD25C,10.500000*%
%ADD26RotRect,1.520000X1.520000X20.000000*%
G04 APERTURE END LIST*
D10*
X155719914Y-108030634D03*
D11*
X158069095Y-109695371D03*
X156775000Y-114525000D03*
D10*
X153908181Y-114792115D03*
D12*
X165397440Y-107453095D03*
D13*
X166961220Y-105451548D03*
X168525000Y-103450000D03*
X170088780Y-101448453D03*
D14*
X175235361Y-89225606D03*
X173115241Y-90550404D03*
X170995121Y-91875202D03*
X168875000Y-93200000D03*
D15*
X180030128Y-156153332D03*
D16*
X181507655Y-152093861D03*
D17*
X182533715Y-149274784D03*
D15*
X224150000Y-134625000D03*
D18*
X219830001Y-134625000D03*
D17*
X216830002Y-134625000D03*
D15*
X167750197Y-148274802D03*
D19*
X170804898Y-145220101D03*
D17*
X172926218Y-143098781D03*
D20*
X185600000Y-122059000D03*
D21*
X188140000Y-122059000D03*
X190680000Y-122059000D03*
X193220000Y-122059000D03*
X195760000Y-122059000D03*
X198300000Y-122059000D03*
D15*
X223950000Y-111025000D03*
D18*
X219630001Y-111025000D03*
D17*
X216630002Y-111025000D03*
D22*
X208170000Y-123025000D03*
D23*
X213250000Y-123025000D03*
D15*
X159880002Y-134425000D03*
D18*
X164200001Y-134425000D03*
D17*
X167200000Y-134425000D03*
D15*
X216349802Y-148274804D03*
D24*
X213295101Y-145220103D03*
D17*
X211173781Y-143098783D03*
D25*
X223292000Y-122905000D03*
D15*
X203919870Y-156228333D03*
D26*
X202442343Y-152168862D03*
D17*
X201416283Y-149349785D03*
D25*
X160808000Y-122905000D03*
M02*
