M48
; DRILL file {KiCad 7.0.11} date Wed Mar 27 12:08:16 2024
; FORMAT={-:-/ absolute / metric / decimal}
; #@! TF.CreationDate,2024-03-27T12:08:16-04:00
; #@! TF.GenerationSoftware,Kicad,Pcbnew,7.0.11
; #@! TF.FileFunction,Plated,1,2,PTH
FMAT,2
METRIC
; #@! TA.AperFunction,Plated,PTH,ViaDrill
T1C0.300
; #@! TA.AperFunction,Plated,PTH,ComponentDrill
T2C0.500
; #@! TA.AperFunction,Plated,PTH,ComponentDrill
T3C0.550
; #@! TA.AperFunction,Plated,PTH,ComponentDrill
T4C0.991
; #@! TA.AperFunction,Plated,PTH,ComponentDrill
T5C1.000
; #@! TA.AperFunction,Plated,PTH,ComponentDrill
T6C1.020
; #@! TA.AperFunction,Plated,PTH,ComponentDrill
T7C6.756
%
G90
G05
T1
X158.325Y-114.55
X168.825Y-126.0
X170.095Y-108.838
X170.225Y-129.712
X170.375Y-110.7
X170.475Y-126.05
X170.8Y-133.2
X171.075Y-129.475
X171.2Y-102.55
X171.2Y-125.325
X171.6Y-105.35
X171.602Y-133.222
X171.625Y-121.075
X171.625Y-137.15
X171.63Y-134.422
X173.272Y-134.324
X173.523Y-132.579
X173.765Y-100.05
X173.925Y-122.6
X173.975Y-121.1
X174.725Y-122.6
X174.754Y-120.6
X175.211Y-129.616
X175.213Y-137.562
X175.525Y-122.6
X175.75Y-129.024
X175.975Y-134.4
X175.975Y-135.25
X176.05Y-133.275
X176.124Y-130.399
X176.225Y-90.15
X176.554Y-124.448
X176.675Y-120.075
X176.925Y-130.925
X177.082Y-137.168
X177.313Y-130.163
X177.675Y-122.6
X177.71Y-144.015
X177.75Y-120.175
X177.8Y-136.275
X177.938Y-128.713
X178.15Y-133.939
X178.75Y-130.025
X178.95Y-122.9
X179.025Y-131.575
X179.25Y-114.75
X179.87Y-133.262
X180.25Y-138.875
X180.75Y-120.175
X181.659Y-128.416
X182.275Y-127.825
X182.3Y-137.05
X182.3Y-139.573
X182.425Y-114.775
X183.017Y-126.728
X183.15Y-105.675
X183.6Y-141.525
X183.725Y-142.825
X183.9Y-124.725
X184.185Y-135.79
X184.549Y-140.475
X184.949Y-132.401
X185.05Y-139.7
X185.6Y-117.875
X185.616Y-131.23
X186.875Y-140.05
X186.9Y-123.375
X186.975Y-157.1
X187.45Y-137.273
X187.85Y-143.7
X188.1Y-152.825
X188.275Y-157.1
X188.304Y-133.418
X188.725Y-127.25
X189.2Y-140.425
X189.35Y-159.825
X189.4Y-156.0
X189.775Y-124.1
X190.125Y-125.1
X190.725Y-133.762
X190.825Y-151.525
X191.25Y-153.65
X191.775Y-138.86
X191.975Y-160.075
X192.325Y-123.325
X192.725Y-127.95
X192.853Y-136.997
X192.875Y-155.925
X193.15Y-141.6
X193.5Y-132.125
X193.547Y-134.425
X194.2Y-138.775
X194.925Y-159.675
X195.6Y-149.375
X195.725Y-141.85
X195.825Y-139.725
X196.693Y-137.732
X197.6Y-127.575
X197.675Y-126.2
X197.725Y-134.925
X197.725Y-136.2
X197.8Y-131.975
X197.925Y-130.525
X198.425Y-140.225
X201.4Y-134.646
X202.45Y-131.725
X202.525Y-88.925
X202.575Y-91.15
X202.625Y-139.85
X202.65Y-136.125
X202.836Y-132.964
X203.975Y-136.375
X204.325Y-125.975
X205.075Y-133.875
X206.125Y-140.15
X206.775Y-137.0
X208.525Y-132.275
X210.0Y-106.175
X210.1Y-139.675
X210.15Y-156.65
X211.5Y-112.2
X211.675Y-136.0
X212.275Y-156.4
X212.6Y-115.35
X213.875Y-109.875
X219.775Y-136.475
X220.325Y-103.875
T4
X168.875Y-93.2
X170.995Y-91.875
X173.115Y-90.55
X175.235Y-89.226
T5
X165.397Y-107.453
X166.961Y-105.452
X168.525Y-103.45
X170.089Y-101.448
X208.17Y-123.025
X213.25Y-123.025
T6
X164.2Y-134.425
X167.2Y-134.425
X170.805Y-145.22
X172.926Y-143.099
X181.508Y-152.094
X182.534Y-149.275
X185.6Y-122.059
X188.14Y-122.059
X190.68Y-122.059
X193.22Y-122.059
X195.76Y-122.059
X198.3Y-122.059
X201.416Y-149.35
X202.442Y-152.169
X211.174Y-143.099
X213.295Y-145.22
X216.63Y-111.025
X216.83Y-134.625
X219.63Y-111.025
X219.83Y-134.625
T7
X160.808Y-122.905
X223.292Y-122.905
T2
X154.222Y-114.876G85X153.594Y-114.708
G05
X156.034Y-108.115G85X155.406Y-107.947
G05
T3
X156.814Y-114.38G85X156.736Y-114.67
G05
X158.108Y-109.55G85X158.03Y-109.84
G05
M30
