G04 #@! TF.GenerationSoftware,KiCad,Pcbnew,7.0.11*
G04 #@! TF.CreationDate,2024-03-28T06:07:28-04:00*
G04 #@! TF.ProjectId,Motherboard,4d6f7468-6572-4626-9f61-72642e6b6963,rev?*
G04 #@! TF.SameCoordinates,Original*
G04 #@! TF.FileFunction,Soldermask,Top*
G04 #@! TF.FilePolarity,Negative*
%FSLAX46Y46*%
G04 Gerber Fmt 4.6, Leading zero omitted, Abs format (unit mm)*
G04 Created by KiCad (PCBNEW 7.0.11) date 2024-03-28 06:07:28*
%MOMM*%
%LPD*%
G01*
G04 APERTURE LIST*
G04 Aperture macros list*
%AMRoundRect*
0 Rectangle with rounded corners*
0 $1 Rounding radius*
0 $2 $3 $4 $5 $6 $7 $8 $9 X,Y pos of 4 corners*
0 Add a 4 corners polygon primitive as box body*
4,1,4,$2,$3,$4,$5,$6,$7,$8,$9,$2,$3,0*
0 Add four circle primitives for the rounded corners*
1,1,$1+$1,$2,$3*
1,1,$1+$1,$4,$5*
1,1,$1+$1,$6,$7*
1,1,$1+$1,$8,$9*
0 Add four rect primitives between the rounded corners*
20,1,$1+$1,$2,$3,$4,$5,0*
20,1,$1+$1,$4,$5,$6,$7,0*
20,1,$1+$1,$6,$7,$8,$9,0*
20,1,$1+$1,$8,$9,$2,$3,0*%
%AMHorizOval*
0 Thick line with rounded ends*
0 $1 width*
0 $2 $3 position (X,Y) of the first rounded end (center of the circle)*
0 $4 $5 position (X,Y) of the second rounded end (center of the circle)*
0 Add line between two ends*
20,1,$1,$2,$3,$4,$5,0*
0 Add two circle primitives to create the rounded ends*
1,1,$1,$2,$3*
1,1,$1,$4,$5*%
%AMRotRect*
0 Rectangle, with rotation*
0 The origin of the aperture is its center*
0 $1 length*
0 $2 width*
0 $3 Rotation angle, in degrees counterclockwise*
0 Add horizontal line*
21,1,$1,$2,0,0,$3*%
G04 Aperture macros list end*
%ADD10RotRect,0.400000X1.350000X255.000000*%
%ADD11HorizOval,0.890000X-0.318756X0.085410X0.318756X-0.085410X0*%
%ADD12RotRect,1.200000X1.550000X255.000000*%
%ADD13HorizOval,0.950000X-0.038823X-0.144889X0.038823X0.144889X0*%
%ADD14RotRect,1.500000X1.550000X255.000000*%
%ADD15RoundRect,0.200000X-0.200000X-0.275000X0.200000X-0.275000X0.200000X0.275000X-0.200000X0.275000X0*%
%ADD16RotRect,1.700000X1.700000X142.000000*%
%ADD17HorizOval,1.700000X0.000000X0.000000X0.000000X0.000000X0*%
%ADD18RoundRect,0.225000X-0.225000X-0.250000X0.225000X-0.250000X0.225000X0.250000X-0.225000X0.250000X0*%
%ADD19RoundRect,0.150000X-0.825000X-0.150000X0.825000X-0.150000X0.825000X0.150000X-0.825000X0.150000X0*%
%ADD20RoundRect,0.225000X-0.250000X0.225000X-0.250000X-0.225000X0.250000X-0.225000X0.250000X0.225000X0*%
%ADD21RoundRect,0.200000X-0.275000X0.200000X-0.275000X-0.200000X0.275000X-0.200000X0.275000X0.200000X0*%
%ADD22RoundRect,0.112500X0.112500X-0.187500X0.112500X0.187500X-0.112500X0.187500X-0.112500X-0.187500X0*%
%ADD23RoundRect,0.200000X0.275000X-0.200000X0.275000X0.200000X-0.275000X0.200000X-0.275000X-0.200000X0*%
%ADD24C,1.498600*%
%ADD25C,2.999999*%
%ADD26RotRect,1.520000X1.520000X340.000000*%
%ADD27C,1.520000*%
%ADD28RoundRect,0.200000X0.200000X0.275000X-0.200000X0.275000X-0.200000X-0.275000X0.200000X-0.275000X0*%
%ADD29RoundRect,0.075000X-0.350000X-0.075000X0.350000X-0.075000X0.350000X0.075000X-0.350000X0.075000X0*%
%ADD30RoundRect,0.075000X0.075000X-0.350000X0.075000X0.350000X-0.075000X0.350000X-0.075000X-0.350000X0*%
%ADD31RoundRect,0.250000X-1.050000X-0.550000X1.050000X-0.550000X1.050000X0.550000X-1.050000X0.550000X0*%
%ADD32R,0.350000X0.375000*%
%ADD33R,0.375000X0.350000*%
%ADD34R,1.520000X1.520000*%
%ADD35RoundRect,0.250000X-0.262500X-0.450000X0.262500X-0.450000X0.262500X0.450000X-0.262500X0.450000X0*%
%ADD36R,0.900000X1.500000*%
%ADD37RoundRect,0.140000X0.140000X0.170000X-0.140000X0.170000X-0.140000X-0.170000X0.140000X-0.170000X0*%
%ADD38R,1.400000X1.200000*%
%ADD39RotRect,1.520000X1.520000X315.000000*%
%ADD40R,1.900000X1.900000*%
%ADD41C,1.900000*%
%ADD42RoundRect,0.075000X0.662500X0.075000X-0.662500X0.075000X-0.662500X-0.075000X0.662500X-0.075000X0*%
%ADD43RoundRect,0.075000X0.075000X0.662500X-0.075000X0.662500X-0.075000X-0.662500X0.075000X-0.662500X0*%
%ADD44RoundRect,0.112500X-0.053033X-0.212132X0.212132X0.053033X0.053033X0.212132X-0.212132X-0.053033X0*%
%ADD45RoundRect,0.150000X0.587500X0.150000X-0.587500X0.150000X-0.587500X-0.150000X0.587500X-0.150000X0*%
%ADD46RoundRect,0.112500X0.187500X0.112500X-0.187500X0.112500X-0.187500X-0.112500X0.187500X-0.112500X0*%
%ADD47R,1.000000X0.750000*%
%ADD48RoundRect,0.150000X-0.309359X-0.521491X0.521491X0.309359X0.309359X0.521491X-0.521491X-0.309359X0*%
%ADD49R,2.500000X2.500000*%
%ADD50R,1.500000X1.500000*%
%ADD51RoundRect,0.250000X-0.250000X-0.475000X0.250000X-0.475000X0.250000X0.475000X-0.250000X0.475000X0*%
%ADD52R,2.000000X2.000000*%
%ADD53C,2.000000*%
%ADD54R,1.000000X1.000000*%
%ADD55RoundRect,0.150000X0.150000X-0.587500X0.150000X0.587500X-0.150000X0.587500X-0.150000X-0.587500X0*%
%ADD56RoundRect,0.243750X-0.243750X-0.456250X0.243750X-0.456250X0.243750X0.456250X-0.243750X0.456250X0*%
%ADD57R,0.600000X1.700000*%
%ADD58RoundRect,0.375000X-0.625000X-0.375000X0.625000X-0.375000X0.625000X0.375000X-0.625000X0.375000X0*%
%ADD59RoundRect,0.500000X-0.500000X-1.400000X0.500000X-1.400000X0.500000X1.400000X-0.500000X1.400000X0*%
%ADD60R,0.300000X1.500000*%
%ADD61RoundRect,0.140000X-0.140000X-0.170000X0.140000X-0.170000X0.140000X0.170000X-0.140000X0.170000X0*%
%ADD62R,1.500000X0.300000*%
%ADD63RotRect,1.520000X1.520000X45.000000*%
%ADD64RoundRect,0.225000X0.250000X-0.225000X0.250000X0.225000X-0.250000X0.225000X-0.250000X-0.225000X0*%
%ADD65RoundRect,0.150000X-0.150000X0.587500X-0.150000X-0.587500X0.150000X-0.587500X0.150000X0.587500X0*%
%ADD66C,10.500000*%
%ADD67R,1.500000X0.900000*%
%ADD68RoundRect,0.218750X0.218750X0.256250X-0.218750X0.256250X-0.218750X-0.256250X0.218750X-0.256250X0*%
%ADD69R,0.750000X1.000000*%
%ADD70RotRect,1.520000X1.520000X20.000000*%
G04 APERTURE END LIST*
D10*
X157758512Y-110854482D03*
X157590280Y-111482334D03*
X157422047Y-112110186D03*
X157253815Y-112738037D03*
X157085582Y-113365889D03*
D11*
X155719914Y-108030634D03*
D12*
X155564623Y-108610189D03*
D13*
X158069095Y-109695371D03*
D14*
X155072866Y-110445448D03*
X154555228Y-112377300D03*
D13*
X156775000Y-114525000D03*
D12*
X154063472Y-114212559D03*
D11*
X153908181Y-114792115D03*
D15*
X195200000Y-138950000D03*
X196850000Y-138950000D03*
D16*
X165397440Y-107453095D03*
D17*
X166961220Y-105451548D03*
X168525000Y-103450000D03*
X170088780Y-101448453D03*
D18*
X210112500Y-137087500D03*
X211662500Y-137087500D03*
D15*
X210525000Y-132425000D03*
X212175000Y-132425000D03*
D19*
X207325000Y-105540000D03*
X207325000Y-106810000D03*
X207325000Y-108080000D03*
X207325000Y-109350000D03*
X212275000Y-109350000D03*
X212275000Y-108080000D03*
X212275000Y-106810000D03*
X212275000Y-105540000D03*
D20*
X190775000Y-149050000D03*
X190775000Y-150600000D03*
D21*
X178375000Y-138375000D03*
X178375000Y-140025000D03*
D22*
X187625000Y-161275000D03*
X187625000Y-159175000D03*
D23*
X176800000Y-140000000D03*
X176800000Y-138350000D03*
D24*
X175235361Y-89225606D03*
X173115241Y-90550404D03*
X170995121Y-91875202D03*
X168875000Y-93200000D03*
D25*
X180030128Y-156153332D03*
D26*
X181507655Y-152093861D03*
D27*
X182533715Y-149274784D03*
D22*
X198550000Y-161225000D03*
X198550000Y-159125000D03*
D28*
X196750000Y-136425000D03*
X195100000Y-136425000D03*
D21*
X208200000Y-113475000D03*
X208200000Y-115125000D03*
D29*
X172000000Y-125300000D03*
X172000000Y-125800000D03*
X172000000Y-126300000D03*
X172000000Y-126800000D03*
X172000000Y-127300000D03*
X172000000Y-127800000D03*
D30*
X172700000Y-128500000D03*
X173200000Y-128500000D03*
X173700000Y-128500000D03*
X174200000Y-128500000D03*
X174700000Y-128500000D03*
X175200000Y-128500000D03*
D29*
X175900000Y-127800000D03*
X175900000Y-127300000D03*
X175900000Y-126800000D03*
X175900000Y-126300000D03*
X175900000Y-125800000D03*
X175900000Y-125300000D03*
D30*
X175200000Y-124600000D03*
X174700000Y-124600000D03*
X174200000Y-124600000D03*
X173700000Y-124600000D03*
X173200000Y-124600000D03*
X172700000Y-124600000D03*
D31*
X180125000Y-144225000D03*
X183725000Y-144225000D03*
D32*
X173947500Y-133210000D03*
X173447500Y-133210000D03*
X172947500Y-133210000D03*
X172447500Y-133210000D03*
D33*
X172435000Y-133722500D03*
X172435000Y-134222500D03*
D32*
X172447500Y-134735000D03*
X172947500Y-134735000D03*
X173447500Y-134735000D03*
X173947500Y-134735000D03*
D33*
X173960000Y-134222500D03*
X173960000Y-133722500D03*
D28*
X178725000Y-132400000D03*
X177075000Y-132400000D03*
D25*
X224150000Y-134625000D03*
D34*
X219830001Y-134625000D03*
D27*
X216830002Y-134625000D03*
D35*
X201550000Y-129800000D03*
X203375000Y-129800000D03*
D18*
X210112500Y-138612500D03*
X211662500Y-138612500D03*
D36*
X178125000Y-95675000D03*
X174825000Y-95675000D03*
X174825000Y-100575000D03*
X178125000Y-100575000D03*
D37*
X179505000Y-136850000D03*
X178545000Y-136850000D03*
D38*
X201475000Y-133500000D03*
X203675000Y-133500000D03*
X203675000Y-131800000D03*
X201475000Y-131800000D03*
D25*
X167750197Y-148274802D03*
D39*
X170804898Y-145220101D03*
D27*
X172926218Y-143098781D03*
D40*
X185600000Y-122059000D03*
D41*
X188140000Y-122059000D03*
X190680000Y-122059000D03*
X193220000Y-122059000D03*
X195760000Y-122059000D03*
X198300000Y-122059000D03*
D42*
X189362500Y-136912500D03*
X189362500Y-136412500D03*
X189362500Y-135912500D03*
X189362500Y-135412500D03*
X189362500Y-134912500D03*
X189362500Y-134412500D03*
X189362500Y-133912500D03*
X189362500Y-133412500D03*
X189362500Y-132912500D03*
X189362500Y-132412500D03*
X189362500Y-131912500D03*
X189362500Y-131412500D03*
D43*
X187950000Y-130000000D03*
X187450000Y-130000000D03*
X186950000Y-130000000D03*
X186450000Y-130000000D03*
X185950000Y-130000000D03*
X185450000Y-130000000D03*
X184950000Y-130000000D03*
X184450000Y-130000000D03*
X183950000Y-130000000D03*
X183450000Y-130000000D03*
X182950000Y-130000000D03*
X182450000Y-130000000D03*
D42*
X181037500Y-131412500D03*
X181037500Y-131912500D03*
X181037500Y-132412500D03*
X181037500Y-132912500D03*
X181037500Y-133412500D03*
X181037500Y-133912500D03*
X181037500Y-134412500D03*
X181037500Y-134912500D03*
X181037500Y-135412500D03*
X181037500Y-135912500D03*
X181037500Y-136412500D03*
X181037500Y-136912500D03*
D43*
X182450000Y-138325000D03*
X182950000Y-138325000D03*
X183450000Y-138325000D03*
X183950000Y-138325000D03*
X184450000Y-138325000D03*
X184950000Y-138325000D03*
X185450000Y-138325000D03*
X185950000Y-138325000D03*
X186450000Y-138325000D03*
X186950000Y-138325000D03*
X187450000Y-138325000D03*
X187950000Y-138325000D03*
D44*
X209150000Y-152975000D03*
X210634924Y-151490076D03*
D45*
X212725000Y-114100000D03*
X212725000Y-112200000D03*
X210850000Y-113150000D03*
D46*
X206750000Y-115550000D03*
X204650000Y-115550000D03*
D28*
X196775000Y-127725000D03*
X195125000Y-127725000D03*
D18*
X218375000Y-97425000D03*
X219925000Y-97425000D03*
D15*
X205975000Y-88450000D03*
X207625000Y-88450000D03*
D28*
X196775000Y-126200000D03*
X195125000Y-126200000D03*
D18*
X174375000Y-114050000D03*
X175925000Y-114050000D03*
D22*
X185650000Y-161275000D03*
X185650000Y-159175000D03*
D18*
X205875000Y-132250000D03*
X207425000Y-132250000D03*
D47*
X193600000Y-143225000D03*
X199600000Y-143225000D03*
X193600000Y-146975000D03*
X199600000Y-146975000D03*
D37*
X181550000Y-129475000D03*
X180590000Y-129475000D03*
D48*
X210340336Y-154478661D03*
X211683839Y-155822164D03*
X212337913Y-153824587D03*
D49*
X205660000Y-91720000D03*
X216150000Y-91700000D03*
X216180000Y-102210000D03*
X205650000Y-102220000D03*
D25*
X223950000Y-111025000D03*
D34*
X219630001Y-111025000D03*
D27*
X216630002Y-111025000D03*
D50*
X173675000Y-107125000D03*
D51*
X201475000Y-127800000D03*
X203375000Y-127800000D03*
D18*
X205875000Y-133775000D03*
X207425000Y-133775000D03*
X201825000Y-126000000D03*
X203375000Y-126000000D03*
X172275000Y-130975000D03*
X173825000Y-130975000D03*
X174375000Y-112500000D03*
X175925000Y-112500000D03*
D28*
X182325000Y-125950000D03*
X180675000Y-125950000D03*
D52*
X208170000Y-123025000D03*
D53*
X213250000Y-123025000D03*
D50*
X218950000Y-95375000D03*
D54*
X169925000Y-119475000D03*
D55*
X189400000Y-160850000D03*
X191300000Y-160850000D03*
X190350000Y-158975000D03*
D18*
X170075000Y-106575000D03*
X171625000Y-106575000D03*
D56*
X205650000Y-86500000D03*
X207525000Y-86500000D03*
D50*
X174925000Y-110425000D03*
D18*
X207025000Y-141775000D03*
X208575000Y-141775000D03*
D55*
X192900000Y-160825000D03*
X194800000Y-160825000D03*
X193850000Y-158950000D03*
D21*
X183787500Y-125825000D03*
X183787500Y-127475000D03*
D57*
X204675000Y-138400000D03*
X205925000Y-138400000D03*
X207175000Y-138400000D03*
X208425000Y-138400000D03*
X208425000Y-135600000D03*
X207175000Y-135600000D03*
X205925000Y-135600000D03*
X204675000Y-135600000D03*
D25*
X159880002Y-134425000D03*
D34*
X164200001Y-134425000D03*
D27*
X167200000Y-134425000D03*
D21*
X190100000Y-126200000D03*
X190100000Y-127850000D03*
D23*
X185312500Y-127575000D03*
X185312500Y-125925000D03*
D58*
X165975000Y-111550000D03*
X165975000Y-113850000D03*
D59*
X172275000Y-113850000D03*
D58*
X165975000Y-116150000D03*
D60*
X219775000Y-102650000D03*
X220425000Y-102650000D03*
X221075000Y-102650000D03*
X221075000Y-100350000D03*
X220425000Y-100350000D03*
X219775000Y-100350000D03*
D18*
X195225000Y-140475000D03*
X196775000Y-140475000D03*
D61*
X190870000Y-136875000D03*
X191830000Y-136875000D03*
D15*
X210525000Y-133975000D03*
X212175000Y-133975000D03*
D51*
X205500000Y-130450000D03*
X207400000Y-130450000D03*
D62*
X174725000Y-115525000D03*
X174725000Y-116175000D03*
X174725000Y-116825000D03*
X177025000Y-116825000D03*
X177025000Y-116175000D03*
X177025000Y-115525000D03*
D15*
X177050000Y-133950000D03*
X178700000Y-133950000D03*
D18*
X161825000Y-110700000D03*
X163375000Y-110700000D03*
D28*
X174200000Y-137250000D03*
X172550000Y-137250000D03*
X196750000Y-134900000D03*
X195100000Y-134900000D03*
D15*
X186050000Y-141775000D03*
X187700000Y-141775000D03*
D61*
X188870000Y-138850000D03*
X189830000Y-138850000D03*
D46*
X206750000Y-113575000D03*
X204650000Y-113575000D03*
D23*
X191675000Y-127825000D03*
X191675000Y-126175000D03*
D22*
X196575000Y-161225000D03*
X196575000Y-159125000D03*
D25*
X216349802Y-148274804D03*
D63*
X213295101Y-145220103D03*
D27*
X211173781Y-143098783D03*
D62*
X169000000Y-108050000D03*
X169000000Y-108700000D03*
X169000000Y-109350000D03*
X171300000Y-109350000D03*
X171300000Y-108700000D03*
X171300000Y-108050000D03*
D28*
X169000000Y-122900000D03*
X167350000Y-122900000D03*
D64*
X189225000Y-150625000D03*
X189225000Y-149075000D03*
D65*
X194775000Y-154825000D03*
X192875000Y-154825000D03*
X193825000Y-156700000D03*
D66*
X223292000Y-122905000D03*
D67*
X191550000Y-147025000D03*
X191550000Y-143725000D03*
X186650000Y-143725000D03*
X186650000Y-147025000D03*
D68*
X190750000Y-141775000D03*
X189175000Y-141775000D03*
D52*
X154175000Y-118050000D03*
D18*
X207050000Y-140150000D03*
X208600000Y-140150000D03*
D28*
X196825000Y-130425000D03*
X195175000Y-130425000D03*
D69*
X202575000Y-135175000D03*
X202575000Y-141175000D03*
X198825000Y-135175000D03*
X198825000Y-141175000D03*
D25*
X203919870Y-156228333D03*
D70*
X202442343Y-152168862D03*
D27*
X201416283Y-149349785D03*
D65*
X191250000Y-154825000D03*
X189350000Y-154825000D03*
X190300000Y-156700000D03*
D66*
X160808000Y-122905000D03*
D28*
X196825000Y-131950000D03*
X195175000Y-131950000D03*
M02*
