%TF.GenerationSoftware,KiCad,Pcbnew,7.0.11*%
%TF.CreationDate,2024-03-27T12:08:23-04:00*%
%TF.ProjectId,Motherboard,4d6f7468-6572-4626-9f61-72642e6b6963,rev?*%
%TF.SameCoordinates,Original*%
%TF.FileFunction,Drillmap*%
%TF.FilePolarity,Positive*%
%FSLAX45Y45*%
G04 Gerber Fmt 4.5, Leading zero omitted, Abs format (unit mm)*
G04 Created by KiCad (PCBNEW 7.0.11) date 2024-03-27 12:08:23*
%MOMM*%
%LPD*%
G01*
G04 APERTURE LIST*
%ADD10C,0.200000*%
%ADD11C,0.100000*%
%ADD12C,0.102000*%
%ADD13C,0.675640*%
G04 APERTURE END LIST*
D10*
X23396000Y-12290500D02*
G75*
G03*
X15014000Y-12290500I-4191000J0D01*
G01*
X15014000Y-12290500D02*
G75*
G03*
X23396000Y-12290500I4191000J0D01*
G01*
D11*
X15817500Y-11440000D02*
X15847500Y-11470000D01*
X15847500Y-11440000D02*
X15817500Y-11470000D01*
X16867502Y-12585000D02*
X16897502Y-12615000D01*
X16897502Y-12585000D02*
X16867502Y-12615000D01*
X16994461Y-10868772D02*
X17024461Y-10898772D01*
X17024461Y-10868772D02*
X16994461Y-10898772D01*
X17007500Y-12956228D02*
X17037500Y-12986228D01*
X17037500Y-12956228D02*
X17007500Y-12986228D01*
X17022500Y-11055000D02*
X17052500Y-11085000D01*
X17052500Y-11055000D02*
X17022500Y-11085000D01*
X17032450Y-12590000D02*
X17062450Y-12620000D01*
X17062450Y-12590000D02*
X17032450Y-12620000D01*
X17065000Y-13305000D02*
X17095000Y-13335000D01*
X17095000Y-13305000D02*
X17065000Y-13335000D01*
X17092500Y-12932500D02*
X17122500Y-12962500D01*
X17122500Y-12932500D02*
X17092500Y-12962500D01*
X17105000Y-10240000D02*
X17135000Y-10270000D01*
X17135000Y-10240000D02*
X17105000Y-10270000D01*
X17105000Y-12517500D02*
X17135000Y-12547500D01*
X17135000Y-12517500D02*
X17105000Y-12547500D01*
X17145000Y-10520000D02*
X17175000Y-10550000D01*
X17175000Y-10520000D02*
X17145000Y-10550000D01*
X17145180Y-13307246D02*
X17175180Y-13337246D01*
X17175180Y-13307246D02*
X17145180Y-13337246D01*
X17147500Y-12092500D02*
X17177500Y-12122500D01*
X17177500Y-12092500D02*
X17147500Y-12122500D01*
X17147500Y-13700000D02*
X17177500Y-13730000D01*
X17177500Y-13700000D02*
X17147500Y-13730000D01*
X17147951Y-13427246D02*
X17177951Y-13457246D01*
X17177951Y-13427246D02*
X17147951Y-13457246D01*
X17312250Y-13417394D02*
X17342250Y-13447394D01*
X17342250Y-13417394D02*
X17312250Y-13447394D01*
X17337339Y-13242912D02*
X17367339Y-13272912D01*
X17367339Y-13242912D02*
X17337339Y-13272912D01*
X17361524Y-9990000D02*
X17391524Y-10020000D01*
X17391524Y-9990000D02*
X17361524Y-10020000D01*
X17377500Y-12245000D02*
X17407500Y-12275000D01*
X17407500Y-12245000D02*
X17377500Y-12275000D01*
X17382500Y-12095000D02*
X17412500Y-12125000D01*
X17412500Y-12095000D02*
X17382500Y-12125000D01*
X17457500Y-12245000D02*
X17487500Y-12275000D01*
X17487500Y-12245000D02*
X17457500Y-12275000D01*
X17460408Y-12045000D02*
X17490408Y-12075000D01*
X17490408Y-12045000D02*
X17460408Y-12075000D01*
X17506113Y-12946555D02*
X17536113Y-12976555D01*
X17536113Y-12946555D02*
X17506113Y-12976555D01*
X17506324Y-13741176D02*
X17536324Y-13771176D01*
X17536324Y-13741176D02*
X17506324Y-13771176D01*
X17537500Y-12245000D02*
X17567500Y-12275000D01*
X17567500Y-12245000D02*
X17537500Y-12275000D01*
X17560000Y-12887426D02*
X17590000Y-12917426D01*
X17590000Y-12887426D02*
X17560000Y-12917426D01*
X17582500Y-13425000D02*
X17612500Y-13455000D01*
X17612500Y-13425000D02*
X17582500Y-13455000D01*
X17582500Y-13510000D02*
X17612500Y-13540000D01*
X17612500Y-13510000D02*
X17582500Y-13540000D01*
X17590000Y-13312500D02*
X17620000Y-13342500D01*
X17620000Y-13312500D02*
X17590000Y-13342500D01*
X17597427Y-13024926D02*
X17627427Y-13054926D01*
X17627427Y-13024926D02*
X17597427Y-13054926D01*
X17607500Y-9000000D02*
X17637500Y-9030000D01*
X17637500Y-9000000D02*
X17607500Y-9030000D01*
X17640419Y-12429843D02*
X17670419Y-12459843D01*
X17670419Y-12429843D02*
X17640419Y-12459843D01*
X17652500Y-11992500D02*
X17682500Y-12022500D01*
X17682500Y-11992500D02*
X17652500Y-12022500D01*
X17677500Y-13077500D02*
X17707500Y-13107500D01*
X17707500Y-13077500D02*
X17677500Y-13107500D01*
X17693211Y-13701789D02*
X17723211Y-13731789D01*
X17723211Y-13701789D02*
X17693211Y-13731789D01*
X17716346Y-13001301D02*
X17746346Y-13031301D01*
X17746346Y-13001301D02*
X17716346Y-13031301D01*
X17752500Y-12245000D02*
X17782500Y-12275000D01*
X17782500Y-12245000D02*
X17752500Y-12275000D01*
X17755962Y-14386538D02*
X17785962Y-14416538D01*
X17785962Y-14386538D02*
X17755962Y-14416538D01*
X17760000Y-12002500D02*
X17790000Y-12032500D01*
X17790000Y-12002500D02*
X17760000Y-12032500D01*
X17765000Y-13612500D02*
X17795000Y-13642500D01*
X17795000Y-13612500D02*
X17765000Y-13642500D01*
X17778750Y-12856250D02*
X17808750Y-12886250D01*
X17808750Y-12856250D02*
X17778750Y-12886250D01*
X17800000Y-13378918D02*
X17830000Y-13408918D01*
X17830000Y-13378918D02*
X17800000Y-13408918D01*
X17860000Y-12987500D02*
X17890000Y-13017500D01*
X17890000Y-12987500D02*
X17860000Y-13017500D01*
X17880000Y-12275000D02*
X17910000Y-12305000D01*
X17910000Y-12275000D02*
X17880000Y-12305000D01*
X17887500Y-13142500D02*
X17917500Y-13172500D01*
X17917500Y-13142500D02*
X17887500Y-13172500D01*
X17910000Y-11460000D02*
X17940000Y-11490000D01*
X17940000Y-11460000D02*
X17910000Y-11490000D01*
X17971954Y-13311250D02*
X18001954Y-13341250D01*
X18001954Y-13311250D02*
X17971954Y-13341250D01*
X18010000Y-13872500D02*
X18040000Y-13902500D01*
X18040000Y-13872500D02*
X18010000Y-13902500D01*
X18060000Y-12002500D02*
X18090000Y-12032500D01*
X18090000Y-12002500D02*
X18060000Y-12032500D01*
X18150852Y-12826648D02*
X18180852Y-12856648D01*
X18180852Y-12826648D02*
X18150852Y-12856648D01*
X18212500Y-12767500D02*
X18242500Y-12797500D01*
X18242500Y-12767500D02*
X18212500Y-12797500D01*
X18215000Y-13690000D02*
X18245000Y-13720000D01*
X18245000Y-13690000D02*
X18215000Y-13720000D01*
X18215000Y-13942328D02*
X18245000Y-13972328D01*
X18245000Y-13942328D02*
X18215000Y-13972328D01*
X18227500Y-11462500D02*
X18257500Y-11492500D01*
X18257500Y-11462500D02*
X18227500Y-11492500D01*
X18286653Y-12657805D02*
X18316653Y-12687805D01*
X18316653Y-12657805D02*
X18286653Y-12687805D01*
X18300000Y-10552500D02*
X18330000Y-10582500D01*
X18330000Y-10552500D02*
X18300000Y-10582500D01*
X18345000Y-14137500D02*
X18375000Y-14167500D01*
X18375000Y-14137500D02*
X18345000Y-14167500D01*
X18357500Y-14267500D02*
X18387500Y-14297500D01*
X18387500Y-14267500D02*
X18357500Y-14297500D01*
X18375000Y-12457500D02*
X18405000Y-12487500D01*
X18405000Y-12457500D02*
X18375000Y-12487500D01*
X18403462Y-13564038D02*
X18433462Y-13594038D01*
X18433462Y-13564038D02*
X18403462Y-13594038D01*
X18439901Y-14032500D02*
X18469901Y-14062500D01*
X18469901Y-14032500D02*
X18439901Y-14062500D01*
X18479868Y-13225132D02*
X18509868Y-13255132D01*
X18509868Y-13225132D02*
X18479868Y-13255132D01*
X18490000Y-13955000D02*
X18520000Y-13985000D01*
X18520000Y-13955000D02*
X18490000Y-13985000D01*
X18545000Y-11772500D02*
X18575000Y-11802500D01*
X18575000Y-11772500D02*
X18545000Y-11802500D01*
X18546625Y-13108042D02*
X18576625Y-13138042D01*
X18576625Y-13108042D02*
X18546625Y-13138042D01*
X18672500Y-13990000D02*
X18702500Y-14020000D01*
X18702500Y-13990000D02*
X18672500Y-14020000D01*
X18675000Y-12322500D02*
X18705000Y-12352500D01*
X18705000Y-12322500D02*
X18675000Y-12352500D01*
X18682500Y-15695000D02*
X18712500Y-15725000D01*
X18712500Y-15695000D02*
X18682500Y-15725000D01*
X18730026Y-13712343D02*
X18760026Y-13742343D01*
X18760026Y-13712343D02*
X18730026Y-13742343D01*
X18770000Y-14355000D02*
X18800000Y-14385000D01*
X18800000Y-14355000D02*
X18770000Y-14385000D01*
X18795000Y-15267500D02*
X18825000Y-15297500D01*
X18825000Y-15267500D02*
X18795000Y-15297500D01*
X18812500Y-15695000D02*
X18842500Y-15725000D01*
X18842500Y-15695000D02*
X18812500Y-15725000D01*
X18815447Y-13326818D02*
X18845447Y-13356818D01*
X18845447Y-13326818D02*
X18815447Y-13356818D01*
X18857500Y-12710000D02*
X18887500Y-12740000D01*
X18887500Y-12710000D02*
X18857500Y-12740000D01*
X18905000Y-14027500D02*
X18935000Y-14057500D01*
X18935000Y-14027500D02*
X18905000Y-14057500D01*
X18920000Y-15967500D02*
X18950000Y-15997500D01*
X18950000Y-15967500D02*
X18920000Y-15997500D01*
X18925000Y-15585000D02*
X18955000Y-15615000D01*
X18955000Y-15585000D02*
X18925000Y-15615000D01*
X18962500Y-12395000D02*
X18992500Y-12425000D01*
X18992500Y-12395000D02*
X18962500Y-12425000D01*
X18997500Y-12495000D02*
X19027500Y-12525000D01*
X19027500Y-12495000D02*
X18997500Y-12525000D01*
X19057500Y-13361250D02*
X19087500Y-13391250D01*
X19087500Y-13361250D02*
X19057500Y-13391250D01*
X19067500Y-15137500D02*
X19097500Y-15167500D01*
X19097500Y-15137500D02*
X19067500Y-15167500D01*
X19110000Y-15350000D02*
X19140000Y-15380000D01*
X19140000Y-15350000D02*
X19110000Y-15380000D01*
X19162500Y-13871000D02*
X19192500Y-13901000D01*
X19192500Y-13871000D02*
X19162500Y-13901000D01*
X19182500Y-15992500D02*
X19212500Y-16022500D01*
X19212500Y-15992500D02*
X19182500Y-16022500D01*
X19217500Y-12317500D02*
X19247500Y-12347500D01*
X19247500Y-12317500D02*
X19217500Y-12347500D01*
X19257500Y-12780000D02*
X19287500Y-12810000D01*
X19287500Y-12780000D02*
X19257500Y-12810000D01*
X19270288Y-13684712D02*
X19300288Y-13714712D01*
X19300288Y-13684712D02*
X19270288Y-13714712D01*
X19272500Y-15577500D02*
X19302500Y-15607500D01*
X19302500Y-15577500D02*
X19272500Y-15607500D01*
X19300000Y-14145000D02*
X19330000Y-14175000D01*
X19330000Y-14145000D02*
X19300000Y-14175000D01*
X19335000Y-13197500D02*
X19365000Y-13227500D01*
X19365000Y-13197500D02*
X19335000Y-13227500D01*
X19339712Y-13427500D02*
X19369712Y-13457500D01*
X19369712Y-13427500D02*
X19339712Y-13457500D01*
X19405000Y-13862500D02*
X19435000Y-13892500D01*
X19435000Y-13862500D02*
X19405000Y-13892500D01*
X19477500Y-15952500D02*
X19507500Y-15982500D01*
X19507500Y-15952500D02*
X19477500Y-15982500D01*
X19545000Y-14922500D02*
X19575000Y-14952500D01*
X19575000Y-14922500D02*
X19545000Y-14952500D01*
X19557500Y-14170000D02*
X19587500Y-14200000D01*
X19587500Y-14170000D02*
X19557500Y-14200000D01*
X19567500Y-13957500D02*
X19597500Y-13987500D01*
X19597500Y-13957500D02*
X19567500Y-13987500D01*
X19654283Y-13758217D02*
X19684283Y-13788217D01*
X19684283Y-13758217D02*
X19654283Y-13788217D01*
X19745000Y-12742500D02*
X19775000Y-12772500D01*
X19775000Y-12742500D02*
X19745000Y-12772500D01*
X19752500Y-12605000D02*
X19782500Y-12635000D01*
X19782500Y-12605000D02*
X19752500Y-12635000D01*
X19757500Y-13477500D02*
X19787500Y-13507500D01*
X19787500Y-13477500D02*
X19757500Y-13507500D01*
X19757500Y-13605000D02*
X19787500Y-13635000D01*
X19787500Y-13605000D02*
X19757500Y-13635000D01*
X19765000Y-13182500D02*
X19795000Y-13212500D01*
X19795000Y-13182500D02*
X19765000Y-13212500D01*
X19777500Y-13037500D02*
X19807500Y-13067500D01*
X19807500Y-13037500D02*
X19777500Y-13067500D01*
X19827500Y-14007500D02*
X19857500Y-14037500D01*
X19857500Y-14007500D02*
X19827500Y-14037500D01*
X20125000Y-13449564D02*
X20155000Y-13479564D01*
X20155000Y-13449564D02*
X20125000Y-13479564D01*
X20230000Y-13157500D02*
X20260000Y-13187500D01*
X20260000Y-13157500D02*
X20230000Y-13187500D01*
X20237500Y-8877500D02*
X20267500Y-8907500D01*
X20267500Y-8877500D02*
X20237500Y-8907500D01*
X20242500Y-9100000D02*
X20272500Y-9130000D01*
X20272500Y-9100000D02*
X20242500Y-9130000D01*
X20247500Y-13970000D02*
X20277500Y-14000000D01*
X20277500Y-13970000D02*
X20247500Y-14000000D01*
X20250000Y-13597500D02*
X20280000Y-13627500D01*
X20280000Y-13597500D02*
X20250000Y-13627500D01*
X20268601Y-13281399D02*
X20298601Y-13311399D01*
X20298601Y-13281399D02*
X20268601Y-13311399D01*
X20382500Y-13622500D02*
X20412500Y-13652500D01*
X20412500Y-13622500D02*
X20382500Y-13652500D01*
X20417500Y-12582500D02*
X20447500Y-12612500D01*
X20447500Y-12582500D02*
X20417500Y-12612500D01*
X20492500Y-13372500D02*
X20522500Y-13402500D01*
X20522500Y-13372500D02*
X20492500Y-13402500D01*
X20597500Y-14000000D02*
X20627500Y-14030000D01*
X20627500Y-14000000D02*
X20597500Y-14030000D01*
X20662500Y-13685000D02*
X20692500Y-13715000D01*
X20692500Y-13685000D02*
X20662500Y-13715000D01*
X20837500Y-13212500D02*
X20867500Y-13242500D01*
X20867500Y-13212500D02*
X20837500Y-13242500D01*
X20985000Y-10602500D02*
X21015000Y-10632500D01*
X21015000Y-10602500D02*
X20985000Y-10632500D01*
X20995000Y-13952500D02*
X21025000Y-13982500D01*
X21025000Y-13952500D02*
X20995000Y-13982500D01*
X21000000Y-15650000D02*
X21030000Y-15680000D01*
X21030000Y-15650000D02*
X21000000Y-15680000D01*
X21135000Y-11205000D02*
X21165000Y-11235000D01*
X21165000Y-11205000D02*
X21135000Y-11235000D01*
X21152500Y-13585000D02*
X21182500Y-13615000D01*
X21182500Y-13585000D02*
X21152500Y-13615000D01*
X21212500Y-15625000D02*
X21242500Y-15655000D01*
X21242500Y-15625000D02*
X21212500Y-15655000D01*
X21245000Y-11520000D02*
X21275000Y-11550000D01*
X21275000Y-11520000D02*
X21245000Y-11550000D01*
X21372500Y-10972500D02*
X21402500Y-11002500D01*
X21402500Y-10972500D02*
X21372500Y-11002500D01*
X21962500Y-13632500D02*
X21992500Y-13662500D01*
X21992500Y-13632500D02*
X21962500Y-13662500D01*
X22017500Y-10372500D02*
X22047500Y-10402500D01*
X22047500Y-10372500D02*
X22017500Y-10402500D01*
X15415818Y-11479211D02*
G75*
G03*
X15365818Y-11479211I-25000J0D01*
G01*
X15365818Y-11479211D02*
G75*
G03*
X15415818Y-11479211I25000J0D01*
G01*
X15428681Y-11463475D02*
X15365896Y-11446652D01*
X15365896Y-11446652D02*
G75*
G03*
X15352955Y-11494948I-6471J-24148D01*
G01*
X15352955Y-11494948D02*
X15415740Y-11511771D01*
X15415740Y-11511771D02*
G75*
G03*
X15428681Y-11463475I6471J24148D01*
G01*
X15596991Y-10803063D02*
G75*
G03*
X15546991Y-10803063I-25000J0D01*
G01*
X15546991Y-10803063D02*
G75*
G03*
X15596991Y-10803063I25000J0D01*
G01*
X15609854Y-10787327D02*
X15547069Y-10770504D01*
X15547069Y-10770504D02*
G75*
G03*
X15534128Y-10818800I-6471J-24148D01*
G01*
X15534128Y-10818800D02*
X15596913Y-10835623D01*
X15596913Y-10835623D02*
G75*
G03*
X15609854Y-10787327I6471J24148D01*
G01*
X15677500Y-11425000D02*
X15677500Y-11480000D01*
X15650000Y-11452500D02*
X15705000Y-11452500D01*
X15654819Y-11430894D02*
X15647055Y-11459871D01*
X15647055Y-11459871D02*
G75*
G03*
X15700181Y-11474106I26563J-7118D01*
G01*
X15700181Y-11474106D02*
X15707945Y-11445129D01*
X15707945Y-11445129D02*
G75*
G03*
X15654819Y-11430894I-26563J7118D01*
G01*
X15806909Y-10942037D02*
X15806909Y-10997037D01*
X15779409Y-10969537D02*
X15834409Y-10969537D01*
X15784229Y-10947931D02*
X15776464Y-10976909D01*
X15776464Y-10976909D02*
G75*
G03*
X15829590Y-10991144I26563J-7118D01*
G01*
X15829590Y-10991144D02*
X15837355Y-10962166D01*
X15837355Y-10962166D02*
G75*
G03*
X15784229Y-10947931I-26563J7118D01*
G01*
X16922523Y-9355023D02*
X16922523Y-9284977D01*
X16852477Y-9284977D01*
X16852477Y-9355023D01*
X16922523Y-9355023D01*
X17134535Y-9222544D02*
X17134535Y-9152497D01*
X17064489Y-9152497D01*
X17064489Y-9222544D01*
X17134535Y-9222544D01*
X17346547Y-9090064D02*
X17346547Y-9020017D01*
X17276501Y-9020017D01*
X17276501Y-9090064D01*
X17346547Y-9090064D01*
X17558559Y-8957584D02*
X17558559Y-8887537D01*
X17488513Y-8887537D01*
X17488513Y-8957584D01*
X17558559Y-8957584D01*
X16539744Y-10795310D02*
X16589744Y-10745310D01*
X16539744Y-10695310D01*
X16489744Y-10745310D01*
X16539744Y-10795310D01*
X16696122Y-10595155D02*
X16746122Y-10545155D01*
X16696122Y-10495155D01*
X16646122Y-10545155D01*
X16696122Y-10595155D01*
X16852500Y-10395000D02*
X16902500Y-10345000D01*
X16852500Y-10295000D01*
X16802500Y-10345000D01*
X16852500Y-10395000D01*
X17008878Y-10194845D02*
X17058878Y-10144845D01*
X17008878Y-10094845D01*
X16958878Y-10144845D01*
X17008878Y-10194845D01*
X20817000Y-12352500D02*
X20867000Y-12302500D01*
X20817000Y-12252500D01*
X20767000Y-12302500D01*
X20817000Y-12352500D01*
X21325000Y-12352500D02*
X21375000Y-12302500D01*
X21325000Y-12252500D01*
X21275000Y-12302500D01*
X21325000Y-12352500D01*
D12*
X16369000Y-13391500D02*
X16471000Y-13493500D01*
X16471000Y-13391500D02*
X16369000Y-13493500D01*
X16471000Y-13442500D02*
G75*
G03*
X16369000Y-13442500I-51000J0D01*
G01*
X16369000Y-13442500D02*
G75*
G03*
X16471000Y-13442500I51000J0D01*
G01*
X16669000Y-13391500D02*
X16771000Y-13493500D01*
X16771000Y-13391500D02*
X16669000Y-13493500D01*
X16771000Y-13442500D02*
G75*
G03*
X16669000Y-13442500I-51000J0D01*
G01*
X16669000Y-13442500D02*
G75*
G03*
X16771000Y-13442500I51000J0D01*
G01*
X17029490Y-14471010D02*
X17131490Y-14573010D01*
X17131490Y-14471010D02*
X17029490Y-14573010D01*
X17131490Y-14522010D02*
G75*
G03*
X17029490Y-14522010I-51000J0D01*
G01*
X17029490Y-14522010D02*
G75*
G03*
X17131490Y-14522010I51000J0D01*
G01*
X17241622Y-14258878D02*
X17343622Y-14360878D01*
X17343622Y-14258878D02*
X17241622Y-14360878D01*
X17343622Y-14309878D02*
G75*
G03*
X17241622Y-14309878I-51000J0D01*
G01*
X17241622Y-14309878D02*
G75*
G03*
X17343622Y-14309878I51000J0D01*
G01*
X18099766Y-15158386D02*
X18201766Y-15260386D01*
X18201766Y-15158386D02*
X18099766Y-15260386D01*
X18201766Y-15209386D02*
G75*
G03*
X18099766Y-15209386I-51000J0D01*
G01*
X18099766Y-15209386D02*
G75*
G03*
X18201766Y-15209386I51000J0D01*
G01*
X18202372Y-14876478D02*
X18304372Y-14978478D01*
X18304372Y-14876478D02*
X18202372Y-14978478D01*
X18304372Y-14927478D02*
G75*
G03*
X18202372Y-14927478I-51000J0D01*
G01*
X18202372Y-14927478D02*
G75*
G03*
X18304372Y-14927478I51000J0D01*
G01*
X18509000Y-12154900D02*
X18611000Y-12256900D01*
X18611000Y-12154900D02*
X18509000Y-12256900D01*
X18611000Y-12205900D02*
G75*
G03*
X18509000Y-12205900I-51000J0D01*
G01*
X18509000Y-12205900D02*
G75*
G03*
X18611000Y-12205900I51000J0D01*
G01*
X18763000Y-12154900D02*
X18865000Y-12256900D01*
X18865000Y-12154900D02*
X18763000Y-12256900D01*
X18865000Y-12205900D02*
G75*
G03*
X18763000Y-12205900I-51000J0D01*
G01*
X18763000Y-12205900D02*
G75*
G03*
X18865000Y-12205900I51000J0D01*
G01*
X19017000Y-12154900D02*
X19119000Y-12256900D01*
X19119000Y-12154900D02*
X19017000Y-12256900D01*
X19119000Y-12205900D02*
G75*
G03*
X19017000Y-12205900I-51000J0D01*
G01*
X19017000Y-12205900D02*
G75*
G03*
X19119000Y-12205900I51000J0D01*
G01*
X19271000Y-12154900D02*
X19373000Y-12256900D01*
X19373000Y-12154900D02*
X19271000Y-12256900D01*
X19373000Y-12205900D02*
G75*
G03*
X19271000Y-12205900I-51000J0D01*
G01*
X19271000Y-12205900D02*
G75*
G03*
X19373000Y-12205900I51000J0D01*
G01*
X19525000Y-12154900D02*
X19627000Y-12256900D01*
X19627000Y-12154900D02*
X19525000Y-12256900D01*
X19627000Y-12205900D02*
G75*
G03*
X19525000Y-12205900I-51000J0D01*
G01*
X19525000Y-12205900D02*
G75*
G03*
X19627000Y-12205900I51000J0D01*
G01*
X19779000Y-12154900D02*
X19881000Y-12256900D01*
X19881000Y-12154900D02*
X19779000Y-12256900D01*
X19881000Y-12205900D02*
G75*
G03*
X19779000Y-12205900I-51000J0D01*
G01*
X19779000Y-12205900D02*
G75*
G03*
X19881000Y-12205900I51000J0D01*
G01*
X20090628Y-14883978D02*
X20192628Y-14985978D01*
X20192628Y-14883978D02*
X20090628Y-14985978D01*
X20192628Y-14934978D02*
G75*
G03*
X20090628Y-14934978I-51000J0D01*
G01*
X20090628Y-14934978D02*
G75*
G03*
X20192628Y-14934978I51000J0D01*
G01*
X20193234Y-15165886D02*
X20295234Y-15267886D01*
X20295234Y-15165886D02*
X20193234Y-15267886D01*
X20295234Y-15216886D02*
G75*
G03*
X20193234Y-15216886I-51000J0D01*
G01*
X20193234Y-15216886D02*
G75*
G03*
X20295234Y-15216886I51000J0D01*
G01*
X21066378Y-14258878D02*
X21168378Y-14360878D01*
X21168378Y-14258878D02*
X21066378Y-14360878D01*
X21168378Y-14309878D02*
G75*
G03*
X21066378Y-14309878I-51000J0D01*
G01*
X21066378Y-14309878D02*
G75*
G03*
X21168378Y-14309878I51000J0D01*
G01*
X21278510Y-14471010D02*
X21380510Y-14573010D01*
X21380510Y-14471010D02*
X21278510Y-14573010D01*
X21380510Y-14522010D02*
G75*
G03*
X21278510Y-14522010I-51000J0D01*
G01*
X21278510Y-14522010D02*
G75*
G03*
X21380510Y-14522010I51000J0D01*
G01*
X21612000Y-11051500D02*
X21714000Y-11153500D01*
X21714000Y-11051500D02*
X21612000Y-11153500D01*
X21714000Y-11102500D02*
G75*
G03*
X21612000Y-11102500I-51000J0D01*
G01*
X21612000Y-11102500D02*
G75*
G03*
X21714000Y-11102500I51000J0D01*
G01*
X21632000Y-13411500D02*
X21734000Y-13513500D01*
X21734000Y-13411500D02*
X21632000Y-13513500D01*
X21734000Y-13462500D02*
G75*
G03*
X21632000Y-13462500I-51000J0D01*
G01*
X21632000Y-13462500D02*
G75*
G03*
X21734000Y-13462500I51000J0D01*
G01*
X21912000Y-11051500D02*
X22014000Y-11153500D01*
X22014000Y-11051500D02*
X21912000Y-11153500D01*
X22014000Y-11102500D02*
G75*
G03*
X21912000Y-11102500I-51000J0D01*
G01*
X21912000Y-11102500D02*
G75*
G03*
X22014000Y-11102500I51000J0D01*
G01*
X21932000Y-13411500D02*
X22034000Y-13513500D01*
X22034000Y-13411500D02*
X21932000Y-13513500D01*
X22034000Y-13462500D02*
G75*
G03*
X21932000Y-13462500I-51000J0D01*
G01*
X21932000Y-13462500D02*
G75*
G03*
X22034000Y-13462500I51000J0D01*
G01*
D13*
X15742980Y-11952680D02*
X16418620Y-12628320D01*
X16418620Y-11952680D02*
X15742980Y-12628320D01*
X16080800Y-11952680D02*
X16080800Y-12628320D01*
X15742980Y-12290500D02*
X16418620Y-12290500D01*
X21991380Y-11952680D02*
X22667020Y-12628320D01*
X22667020Y-11952680D02*
X21991380Y-12628320D01*
X22329200Y-11952680D02*
X22329200Y-12628320D01*
X21991380Y-12290500D02*
X22667020Y-12290500D01*
D10*
X15264777Y-16802984D02*
X15264777Y-16602984D01*
X15264777Y-16602984D02*
X15312396Y-16602984D01*
X15312396Y-16602984D02*
X15340967Y-16612508D01*
X15340967Y-16612508D02*
X15360015Y-16631555D01*
X15360015Y-16631555D02*
X15369539Y-16650603D01*
X15369539Y-16650603D02*
X15379062Y-16688698D01*
X15379062Y-16688698D02*
X15379062Y-16717269D01*
X15379062Y-16717269D02*
X15369539Y-16755365D01*
X15369539Y-16755365D02*
X15360015Y-16774412D01*
X15360015Y-16774412D02*
X15340967Y-16793460D01*
X15340967Y-16793460D02*
X15312396Y-16802984D01*
X15312396Y-16802984D02*
X15264777Y-16802984D01*
X15464777Y-16802984D02*
X15464777Y-16669650D01*
X15464777Y-16707746D02*
X15474301Y-16688698D01*
X15474301Y-16688698D02*
X15483824Y-16679174D01*
X15483824Y-16679174D02*
X15502872Y-16669650D01*
X15502872Y-16669650D02*
X15521920Y-16669650D01*
X15588586Y-16802984D02*
X15588586Y-16669650D01*
X15588586Y-16602984D02*
X15579062Y-16612508D01*
X15579062Y-16612508D02*
X15588586Y-16622031D01*
X15588586Y-16622031D02*
X15598110Y-16612508D01*
X15598110Y-16612508D02*
X15588586Y-16602984D01*
X15588586Y-16602984D02*
X15588586Y-16622031D01*
X15712396Y-16802984D02*
X15693348Y-16793460D01*
X15693348Y-16793460D02*
X15683824Y-16774412D01*
X15683824Y-16774412D02*
X15683824Y-16602984D01*
X15817158Y-16802984D02*
X15798110Y-16793460D01*
X15798110Y-16793460D02*
X15788586Y-16774412D01*
X15788586Y-16774412D02*
X15788586Y-16602984D01*
X16045729Y-16802984D02*
X16045729Y-16602984D01*
X16045729Y-16602984D02*
X16112396Y-16745841D01*
X16112396Y-16745841D02*
X16179062Y-16602984D01*
X16179062Y-16602984D02*
X16179062Y-16802984D01*
X16360015Y-16802984D02*
X16360015Y-16698222D01*
X16360015Y-16698222D02*
X16350491Y-16679174D01*
X16350491Y-16679174D02*
X16331443Y-16669650D01*
X16331443Y-16669650D02*
X16293348Y-16669650D01*
X16293348Y-16669650D02*
X16274301Y-16679174D01*
X16360015Y-16793460D02*
X16340967Y-16802984D01*
X16340967Y-16802984D02*
X16293348Y-16802984D01*
X16293348Y-16802984D02*
X16274301Y-16793460D01*
X16274301Y-16793460D02*
X16264777Y-16774412D01*
X16264777Y-16774412D02*
X16264777Y-16755365D01*
X16264777Y-16755365D02*
X16274301Y-16736317D01*
X16274301Y-16736317D02*
X16293348Y-16726793D01*
X16293348Y-16726793D02*
X16340967Y-16726793D01*
X16340967Y-16726793D02*
X16360015Y-16717269D01*
X16455253Y-16669650D02*
X16455253Y-16869650D01*
X16455253Y-16679174D02*
X16474301Y-16669650D01*
X16474301Y-16669650D02*
X16512396Y-16669650D01*
X16512396Y-16669650D02*
X16531443Y-16679174D01*
X16531443Y-16679174D02*
X16540967Y-16688698D01*
X16540967Y-16688698D02*
X16550491Y-16707746D01*
X16550491Y-16707746D02*
X16550491Y-16764888D01*
X16550491Y-16764888D02*
X16540967Y-16783936D01*
X16540967Y-16783936D02*
X16531443Y-16793460D01*
X16531443Y-16793460D02*
X16512396Y-16802984D01*
X16512396Y-16802984D02*
X16474301Y-16802984D01*
X16474301Y-16802984D02*
X16455253Y-16793460D01*
X16636205Y-16783936D02*
X16645729Y-16793460D01*
X16645729Y-16793460D02*
X16636205Y-16802984D01*
X16636205Y-16802984D02*
X16626682Y-16793460D01*
X16626682Y-16793460D02*
X16636205Y-16783936D01*
X16636205Y-16783936D02*
X16636205Y-16802984D01*
X16636205Y-16679174D02*
X16645729Y-16688698D01*
X16645729Y-16688698D02*
X16636205Y-16698222D01*
X16636205Y-16698222D02*
X16626682Y-16688698D01*
X16626682Y-16688698D02*
X16636205Y-16679174D01*
X16636205Y-16679174D02*
X16636205Y-16698222D01*
D11*
X14974000Y-17116500D02*
X15004000Y-17146500D01*
X15004000Y-17116500D02*
X14974000Y-17146500D01*
D10*
X15302872Y-17022984D02*
X15321920Y-17022984D01*
X15321920Y-17022984D02*
X15340967Y-17032508D01*
X15340967Y-17032508D02*
X15350491Y-17042031D01*
X15350491Y-17042031D02*
X15360015Y-17061079D01*
X15360015Y-17061079D02*
X15369539Y-17099174D01*
X15369539Y-17099174D02*
X15369539Y-17146793D01*
X15369539Y-17146793D02*
X15360015Y-17184889D01*
X15360015Y-17184889D02*
X15350491Y-17203936D01*
X15350491Y-17203936D02*
X15340967Y-17213460D01*
X15340967Y-17213460D02*
X15321920Y-17222984D01*
X15321920Y-17222984D02*
X15302872Y-17222984D01*
X15302872Y-17222984D02*
X15283824Y-17213460D01*
X15283824Y-17213460D02*
X15274301Y-17203936D01*
X15274301Y-17203936D02*
X15264777Y-17184889D01*
X15264777Y-17184889D02*
X15255253Y-17146793D01*
X15255253Y-17146793D02*
X15255253Y-17099174D01*
X15255253Y-17099174D02*
X15264777Y-17061079D01*
X15264777Y-17061079D02*
X15274301Y-17042031D01*
X15274301Y-17042031D02*
X15283824Y-17032508D01*
X15283824Y-17032508D02*
X15302872Y-17022984D01*
X15455253Y-17203936D02*
X15464777Y-17213460D01*
X15464777Y-17213460D02*
X15455253Y-17222984D01*
X15455253Y-17222984D02*
X15445729Y-17213460D01*
X15445729Y-17213460D02*
X15455253Y-17203936D01*
X15455253Y-17203936D02*
X15455253Y-17222984D01*
X15531443Y-17022984D02*
X15655253Y-17022984D01*
X15655253Y-17022984D02*
X15588586Y-17099174D01*
X15588586Y-17099174D02*
X15617158Y-17099174D01*
X15617158Y-17099174D02*
X15636205Y-17108698D01*
X15636205Y-17108698D02*
X15645729Y-17118222D01*
X15645729Y-17118222D02*
X15655253Y-17137270D01*
X15655253Y-17137270D02*
X15655253Y-17184889D01*
X15655253Y-17184889D02*
X15645729Y-17203936D01*
X15645729Y-17203936D02*
X15636205Y-17213460D01*
X15636205Y-17213460D02*
X15617158Y-17222984D01*
X15617158Y-17222984D02*
X15560015Y-17222984D01*
X15560015Y-17222984D02*
X15540967Y-17213460D01*
X15540967Y-17213460D02*
X15531443Y-17203936D01*
X15779062Y-17022984D02*
X15798110Y-17022984D01*
X15798110Y-17022984D02*
X15817158Y-17032508D01*
X15817158Y-17032508D02*
X15826682Y-17042031D01*
X15826682Y-17042031D02*
X15836205Y-17061079D01*
X15836205Y-17061079D02*
X15845729Y-17099174D01*
X15845729Y-17099174D02*
X15845729Y-17146793D01*
X15845729Y-17146793D02*
X15836205Y-17184889D01*
X15836205Y-17184889D02*
X15826682Y-17203936D01*
X15826682Y-17203936D02*
X15817158Y-17213460D01*
X15817158Y-17213460D02*
X15798110Y-17222984D01*
X15798110Y-17222984D02*
X15779062Y-17222984D01*
X15779062Y-17222984D02*
X15760015Y-17213460D01*
X15760015Y-17213460D02*
X15750491Y-17203936D01*
X15750491Y-17203936D02*
X15740967Y-17184889D01*
X15740967Y-17184889D02*
X15731443Y-17146793D01*
X15731443Y-17146793D02*
X15731443Y-17099174D01*
X15731443Y-17099174D02*
X15740967Y-17061079D01*
X15740967Y-17061079D02*
X15750491Y-17042031D01*
X15750491Y-17042031D02*
X15760015Y-17032508D01*
X15760015Y-17032508D02*
X15779062Y-17022984D01*
X15969539Y-17022984D02*
X15988586Y-17022984D01*
X15988586Y-17022984D02*
X16007634Y-17032508D01*
X16007634Y-17032508D02*
X16017158Y-17042031D01*
X16017158Y-17042031D02*
X16026682Y-17061079D01*
X16026682Y-17061079D02*
X16036205Y-17099174D01*
X16036205Y-17099174D02*
X16036205Y-17146793D01*
X16036205Y-17146793D02*
X16026682Y-17184889D01*
X16026682Y-17184889D02*
X16017158Y-17203936D01*
X16017158Y-17203936D02*
X16007634Y-17213460D01*
X16007634Y-17213460D02*
X15988586Y-17222984D01*
X15988586Y-17222984D02*
X15969539Y-17222984D01*
X15969539Y-17222984D02*
X15950491Y-17213460D01*
X15950491Y-17213460D02*
X15940967Y-17203936D01*
X15940967Y-17203936D02*
X15931443Y-17184889D01*
X15931443Y-17184889D02*
X15921920Y-17146793D01*
X15921920Y-17146793D02*
X15921920Y-17099174D01*
X15921920Y-17099174D02*
X15931443Y-17061079D01*
X15931443Y-17061079D02*
X15940967Y-17042031D01*
X15940967Y-17042031D02*
X15950491Y-17032508D01*
X15950491Y-17032508D02*
X15969539Y-17022984D01*
X16121920Y-17222984D02*
X16121920Y-17089650D01*
X16121920Y-17108698D02*
X16131443Y-17099174D01*
X16131443Y-17099174D02*
X16150491Y-17089650D01*
X16150491Y-17089650D02*
X16179063Y-17089650D01*
X16179063Y-17089650D02*
X16198110Y-17099174D01*
X16198110Y-17099174D02*
X16207634Y-17118222D01*
X16207634Y-17118222D02*
X16207634Y-17222984D01*
X16207634Y-17118222D02*
X16217158Y-17099174D01*
X16217158Y-17099174D02*
X16236205Y-17089650D01*
X16236205Y-17089650D02*
X16264777Y-17089650D01*
X16264777Y-17089650D02*
X16283824Y-17099174D01*
X16283824Y-17099174D02*
X16293348Y-17118222D01*
X16293348Y-17118222D02*
X16293348Y-17222984D01*
X16388586Y-17222984D02*
X16388586Y-17089650D01*
X16388586Y-17108698D02*
X16398110Y-17099174D01*
X16398110Y-17099174D02*
X16417158Y-17089650D01*
X16417158Y-17089650D02*
X16445729Y-17089650D01*
X16445729Y-17089650D02*
X16464777Y-17099174D01*
X16464777Y-17099174D02*
X16474301Y-17118222D01*
X16474301Y-17118222D02*
X16474301Y-17222984D01*
X16474301Y-17118222D02*
X16483824Y-17099174D01*
X16483824Y-17099174D02*
X16502872Y-17089650D01*
X16502872Y-17089650D02*
X16531443Y-17089650D01*
X16531443Y-17089650D02*
X16550491Y-17099174D01*
X16550491Y-17099174D02*
X16560015Y-17118222D01*
X16560015Y-17118222D02*
X16560015Y-17222984D01*
X16950491Y-17013460D02*
X16779063Y-17270603D01*
X17207634Y-17022984D02*
X17226682Y-17022984D01*
X17226682Y-17022984D02*
X17245729Y-17032508D01*
X17245729Y-17032508D02*
X17255253Y-17042031D01*
X17255253Y-17042031D02*
X17264777Y-17061079D01*
X17264777Y-17061079D02*
X17274301Y-17099174D01*
X17274301Y-17099174D02*
X17274301Y-17146793D01*
X17274301Y-17146793D02*
X17264777Y-17184889D01*
X17264777Y-17184889D02*
X17255253Y-17203936D01*
X17255253Y-17203936D02*
X17245729Y-17213460D01*
X17245729Y-17213460D02*
X17226682Y-17222984D01*
X17226682Y-17222984D02*
X17207634Y-17222984D01*
X17207634Y-17222984D02*
X17188587Y-17213460D01*
X17188587Y-17213460D02*
X17179063Y-17203936D01*
X17179063Y-17203936D02*
X17169539Y-17184889D01*
X17169539Y-17184889D02*
X17160015Y-17146793D01*
X17160015Y-17146793D02*
X17160015Y-17099174D01*
X17160015Y-17099174D02*
X17169539Y-17061079D01*
X17169539Y-17061079D02*
X17179063Y-17042031D01*
X17179063Y-17042031D02*
X17188587Y-17032508D01*
X17188587Y-17032508D02*
X17207634Y-17022984D01*
X17360015Y-17203936D02*
X17369539Y-17213460D01*
X17369539Y-17213460D02*
X17360015Y-17222984D01*
X17360015Y-17222984D02*
X17350491Y-17213460D01*
X17350491Y-17213460D02*
X17360015Y-17203936D01*
X17360015Y-17203936D02*
X17360015Y-17222984D01*
X17493348Y-17022984D02*
X17512396Y-17022984D01*
X17512396Y-17022984D02*
X17531444Y-17032508D01*
X17531444Y-17032508D02*
X17540968Y-17042031D01*
X17540968Y-17042031D02*
X17550491Y-17061079D01*
X17550491Y-17061079D02*
X17560015Y-17099174D01*
X17560015Y-17099174D02*
X17560015Y-17146793D01*
X17560015Y-17146793D02*
X17550491Y-17184889D01*
X17550491Y-17184889D02*
X17540968Y-17203936D01*
X17540968Y-17203936D02*
X17531444Y-17213460D01*
X17531444Y-17213460D02*
X17512396Y-17222984D01*
X17512396Y-17222984D02*
X17493348Y-17222984D01*
X17493348Y-17222984D02*
X17474301Y-17213460D01*
X17474301Y-17213460D02*
X17464777Y-17203936D01*
X17464777Y-17203936D02*
X17455253Y-17184889D01*
X17455253Y-17184889D02*
X17445729Y-17146793D01*
X17445729Y-17146793D02*
X17445729Y-17099174D01*
X17445729Y-17099174D02*
X17455253Y-17061079D01*
X17455253Y-17061079D02*
X17464777Y-17042031D01*
X17464777Y-17042031D02*
X17474301Y-17032508D01*
X17474301Y-17032508D02*
X17493348Y-17022984D01*
X17750491Y-17222984D02*
X17636206Y-17222984D01*
X17693348Y-17222984D02*
X17693348Y-17022984D01*
X17693348Y-17022984D02*
X17674301Y-17051555D01*
X17674301Y-17051555D02*
X17655253Y-17070603D01*
X17655253Y-17070603D02*
X17636206Y-17080127D01*
X17940968Y-17222984D02*
X17826682Y-17222984D01*
X17883825Y-17222984D02*
X17883825Y-17022984D01*
X17883825Y-17022984D02*
X17864777Y-17051555D01*
X17864777Y-17051555D02*
X17845729Y-17070603D01*
X17845729Y-17070603D02*
X17826682Y-17080127D01*
X18055253Y-17108698D02*
X18036206Y-17099174D01*
X18036206Y-17099174D02*
X18026682Y-17089650D01*
X18026682Y-17089650D02*
X18017158Y-17070603D01*
X18017158Y-17070603D02*
X18017158Y-17061079D01*
X18017158Y-17061079D02*
X18026682Y-17042031D01*
X18026682Y-17042031D02*
X18036206Y-17032508D01*
X18036206Y-17032508D02*
X18055253Y-17022984D01*
X18055253Y-17022984D02*
X18093349Y-17022984D01*
X18093349Y-17022984D02*
X18112396Y-17032508D01*
X18112396Y-17032508D02*
X18121920Y-17042031D01*
X18121920Y-17042031D02*
X18131444Y-17061079D01*
X18131444Y-17061079D02*
X18131444Y-17070603D01*
X18131444Y-17070603D02*
X18121920Y-17089650D01*
X18121920Y-17089650D02*
X18112396Y-17099174D01*
X18112396Y-17099174D02*
X18093349Y-17108698D01*
X18093349Y-17108698D02*
X18055253Y-17108698D01*
X18055253Y-17108698D02*
X18036206Y-17118222D01*
X18036206Y-17118222D02*
X18026682Y-17127746D01*
X18026682Y-17127746D02*
X18017158Y-17146793D01*
X18017158Y-17146793D02*
X18017158Y-17184889D01*
X18017158Y-17184889D02*
X18026682Y-17203936D01*
X18026682Y-17203936D02*
X18036206Y-17213460D01*
X18036206Y-17213460D02*
X18055253Y-17222984D01*
X18055253Y-17222984D02*
X18093349Y-17222984D01*
X18093349Y-17222984D02*
X18112396Y-17213460D01*
X18112396Y-17213460D02*
X18121920Y-17203936D01*
X18121920Y-17203936D02*
X18131444Y-17184889D01*
X18131444Y-17184889D02*
X18131444Y-17146793D01*
X18131444Y-17146793D02*
X18121920Y-17127746D01*
X18121920Y-17127746D02*
X18112396Y-17118222D01*
X18112396Y-17118222D02*
X18093349Y-17108698D01*
X18207634Y-17022984D02*
X18207634Y-17061079D01*
X18283825Y-17022984D02*
X18283825Y-17061079D01*
X18579063Y-17299174D02*
X18569539Y-17289650D01*
X18569539Y-17289650D02*
X18550491Y-17261079D01*
X18550491Y-17261079D02*
X18540968Y-17242031D01*
X18540968Y-17242031D02*
X18531444Y-17213460D01*
X18531444Y-17213460D02*
X18521920Y-17165841D01*
X18521920Y-17165841D02*
X18521920Y-17127746D01*
X18521920Y-17127746D02*
X18531444Y-17080127D01*
X18531444Y-17080127D02*
X18540968Y-17051555D01*
X18540968Y-17051555D02*
X18550491Y-17032508D01*
X18550491Y-17032508D02*
X18569539Y-17003936D01*
X18569539Y-17003936D02*
X18579063Y-16994412D01*
X18760015Y-17222984D02*
X18645730Y-17222984D01*
X18702872Y-17222984D02*
X18702872Y-17022984D01*
X18702872Y-17022984D02*
X18683825Y-17051555D01*
X18683825Y-17051555D02*
X18664777Y-17070603D01*
X18664777Y-17070603D02*
X18645730Y-17080127D01*
X18836206Y-17042031D02*
X18845730Y-17032508D01*
X18845730Y-17032508D02*
X18864777Y-17022984D01*
X18864777Y-17022984D02*
X18912396Y-17022984D01*
X18912396Y-17022984D02*
X18931444Y-17032508D01*
X18931444Y-17032508D02*
X18940968Y-17042031D01*
X18940968Y-17042031D02*
X18950491Y-17061079D01*
X18950491Y-17061079D02*
X18950491Y-17080127D01*
X18950491Y-17080127D02*
X18940968Y-17108698D01*
X18940968Y-17108698D02*
X18826682Y-17222984D01*
X18826682Y-17222984D02*
X18950491Y-17222984D01*
X19017158Y-17022984D02*
X19150491Y-17022984D01*
X19150491Y-17022984D02*
X19064777Y-17222984D01*
X19379063Y-17222984D02*
X19379063Y-17022984D01*
X19464777Y-17222984D02*
X19464777Y-17118222D01*
X19464777Y-17118222D02*
X19455253Y-17099174D01*
X19455253Y-17099174D02*
X19436206Y-17089650D01*
X19436206Y-17089650D02*
X19407634Y-17089650D01*
X19407634Y-17089650D02*
X19388587Y-17099174D01*
X19388587Y-17099174D02*
X19379063Y-17108698D01*
X19588587Y-17222984D02*
X19569539Y-17213460D01*
X19569539Y-17213460D02*
X19560015Y-17203936D01*
X19560015Y-17203936D02*
X19550492Y-17184889D01*
X19550492Y-17184889D02*
X19550492Y-17127746D01*
X19550492Y-17127746D02*
X19560015Y-17108698D01*
X19560015Y-17108698D02*
X19569539Y-17099174D01*
X19569539Y-17099174D02*
X19588587Y-17089650D01*
X19588587Y-17089650D02*
X19617158Y-17089650D01*
X19617158Y-17089650D02*
X19636206Y-17099174D01*
X19636206Y-17099174D02*
X19645730Y-17108698D01*
X19645730Y-17108698D02*
X19655253Y-17127746D01*
X19655253Y-17127746D02*
X19655253Y-17184889D01*
X19655253Y-17184889D02*
X19645730Y-17203936D01*
X19645730Y-17203936D02*
X19636206Y-17213460D01*
X19636206Y-17213460D02*
X19617158Y-17222984D01*
X19617158Y-17222984D02*
X19588587Y-17222984D01*
X19769539Y-17222984D02*
X19750492Y-17213460D01*
X19750492Y-17213460D02*
X19740968Y-17194412D01*
X19740968Y-17194412D02*
X19740968Y-17022984D01*
X19921920Y-17213460D02*
X19902873Y-17222984D01*
X19902873Y-17222984D02*
X19864777Y-17222984D01*
X19864777Y-17222984D02*
X19845730Y-17213460D01*
X19845730Y-17213460D02*
X19836206Y-17194412D01*
X19836206Y-17194412D02*
X19836206Y-17118222D01*
X19836206Y-17118222D02*
X19845730Y-17099174D01*
X19845730Y-17099174D02*
X19864777Y-17089650D01*
X19864777Y-17089650D02*
X19902873Y-17089650D01*
X19902873Y-17089650D02*
X19921920Y-17099174D01*
X19921920Y-17099174D02*
X19931444Y-17118222D01*
X19931444Y-17118222D02*
X19931444Y-17137270D01*
X19931444Y-17137270D02*
X19836206Y-17156317D01*
X20007634Y-17213460D02*
X20026682Y-17222984D01*
X20026682Y-17222984D02*
X20064777Y-17222984D01*
X20064777Y-17222984D02*
X20083825Y-17213460D01*
X20083825Y-17213460D02*
X20093349Y-17194412D01*
X20093349Y-17194412D02*
X20093349Y-17184889D01*
X20093349Y-17184889D02*
X20083825Y-17165841D01*
X20083825Y-17165841D02*
X20064777Y-17156317D01*
X20064777Y-17156317D02*
X20036206Y-17156317D01*
X20036206Y-17156317D02*
X20017158Y-17146793D01*
X20017158Y-17146793D02*
X20007634Y-17127746D01*
X20007634Y-17127746D02*
X20007634Y-17118222D01*
X20007634Y-17118222D02*
X20017158Y-17099174D01*
X20017158Y-17099174D02*
X20036206Y-17089650D01*
X20036206Y-17089650D02*
X20064777Y-17089650D01*
X20064777Y-17089650D02*
X20083825Y-17099174D01*
X20160015Y-17299174D02*
X20169539Y-17289650D01*
X20169539Y-17289650D02*
X20188587Y-17261079D01*
X20188587Y-17261079D02*
X20198111Y-17242031D01*
X20198111Y-17242031D02*
X20207634Y-17213460D01*
X20207634Y-17213460D02*
X20217158Y-17165841D01*
X20217158Y-17165841D02*
X20217158Y-17127746D01*
X20217158Y-17127746D02*
X20207634Y-17080127D01*
X20207634Y-17080127D02*
X20198111Y-17051555D01*
X20198111Y-17051555D02*
X20188587Y-17032508D01*
X20188587Y-17032508D02*
X20169539Y-17003936D01*
X20169539Y-17003936D02*
X20160015Y-16994412D01*
D11*
X15004000Y-17395500D02*
G75*
G03*
X14954000Y-17395500I-25000J0D01*
G01*
X14954000Y-17395500D02*
G75*
G03*
X15004000Y-17395500I25000J0D01*
G01*
D10*
X15302872Y-17286984D02*
X15321920Y-17286984D01*
X15321920Y-17286984D02*
X15340967Y-17296508D01*
X15340967Y-17296508D02*
X15350491Y-17306031D01*
X15350491Y-17306031D02*
X15360015Y-17325079D01*
X15360015Y-17325079D02*
X15369539Y-17363174D01*
X15369539Y-17363174D02*
X15369539Y-17410793D01*
X15369539Y-17410793D02*
X15360015Y-17448889D01*
X15360015Y-17448889D02*
X15350491Y-17467936D01*
X15350491Y-17467936D02*
X15340967Y-17477460D01*
X15340967Y-17477460D02*
X15321920Y-17486984D01*
X15321920Y-17486984D02*
X15302872Y-17486984D01*
X15302872Y-17486984D02*
X15283824Y-17477460D01*
X15283824Y-17477460D02*
X15274301Y-17467936D01*
X15274301Y-17467936D02*
X15264777Y-17448889D01*
X15264777Y-17448889D02*
X15255253Y-17410793D01*
X15255253Y-17410793D02*
X15255253Y-17363174D01*
X15255253Y-17363174D02*
X15264777Y-17325079D01*
X15264777Y-17325079D02*
X15274301Y-17306031D01*
X15274301Y-17306031D02*
X15283824Y-17296508D01*
X15283824Y-17296508D02*
X15302872Y-17286984D01*
X15455253Y-17467936D02*
X15464777Y-17477460D01*
X15464777Y-17477460D02*
X15455253Y-17486984D01*
X15455253Y-17486984D02*
X15445729Y-17477460D01*
X15445729Y-17477460D02*
X15455253Y-17467936D01*
X15455253Y-17467936D02*
X15455253Y-17486984D01*
X15645729Y-17286984D02*
X15550491Y-17286984D01*
X15550491Y-17286984D02*
X15540967Y-17382222D01*
X15540967Y-17382222D02*
X15550491Y-17372698D01*
X15550491Y-17372698D02*
X15569539Y-17363174D01*
X15569539Y-17363174D02*
X15617158Y-17363174D01*
X15617158Y-17363174D02*
X15636205Y-17372698D01*
X15636205Y-17372698D02*
X15645729Y-17382222D01*
X15645729Y-17382222D02*
X15655253Y-17401270D01*
X15655253Y-17401270D02*
X15655253Y-17448889D01*
X15655253Y-17448889D02*
X15645729Y-17467936D01*
X15645729Y-17467936D02*
X15636205Y-17477460D01*
X15636205Y-17477460D02*
X15617158Y-17486984D01*
X15617158Y-17486984D02*
X15569539Y-17486984D01*
X15569539Y-17486984D02*
X15550491Y-17477460D01*
X15550491Y-17477460D02*
X15540967Y-17467936D01*
X15779062Y-17286984D02*
X15798110Y-17286984D01*
X15798110Y-17286984D02*
X15817158Y-17296508D01*
X15817158Y-17296508D02*
X15826682Y-17306031D01*
X15826682Y-17306031D02*
X15836205Y-17325079D01*
X15836205Y-17325079D02*
X15845729Y-17363174D01*
X15845729Y-17363174D02*
X15845729Y-17410793D01*
X15845729Y-17410793D02*
X15836205Y-17448889D01*
X15836205Y-17448889D02*
X15826682Y-17467936D01*
X15826682Y-17467936D02*
X15817158Y-17477460D01*
X15817158Y-17477460D02*
X15798110Y-17486984D01*
X15798110Y-17486984D02*
X15779062Y-17486984D01*
X15779062Y-17486984D02*
X15760015Y-17477460D01*
X15760015Y-17477460D02*
X15750491Y-17467936D01*
X15750491Y-17467936D02*
X15740967Y-17448889D01*
X15740967Y-17448889D02*
X15731443Y-17410793D01*
X15731443Y-17410793D02*
X15731443Y-17363174D01*
X15731443Y-17363174D02*
X15740967Y-17325079D01*
X15740967Y-17325079D02*
X15750491Y-17306031D01*
X15750491Y-17306031D02*
X15760015Y-17296508D01*
X15760015Y-17296508D02*
X15779062Y-17286984D01*
X15969539Y-17286984D02*
X15988586Y-17286984D01*
X15988586Y-17286984D02*
X16007634Y-17296508D01*
X16007634Y-17296508D02*
X16017158Y-17306031D01*
X16017158Y-17306031D02*
X16026682Y-17325079D01*
X16026682Y-17325079D02*
X16036205Y-17363174D01*
X16036205Y-17363174D02*
X16036205Y-17410793D01*
X16036205Y-17410793D02*
X16026682Y-17448889D01*
X16026682Y-17448889D02*
X16017158Y-17467936D01*
X16017158Y-17467936D02*
X16007634Y-17477460D01*
X16007634Y-17477460D02*
X15988586Y-17486984D01*
X15988586Y-17486984D02*
X15969539Y-17486984D01*
X15969539Y-17486984D02*
X15950491Y-17477460D01*
X15950491Y-17477460D02*
X15940967Y-17467936D01*
X15940967Y-17467936D02*
X15931443Y-17448889D01*
X15931443Y-17448889D02*
X15921920Y-17410793D01*
X15921920Y-17410793D02*
X15921920Y-17363174D01*
X15921920Y-17363174D02*
X15931443Y-17325079D01*
X15931443Y-17325079D02*
X15940967Y-17306031D01*
X15940967Y-17306031D02*
X15950491Y-17296508D01*
X15950491Y-17296508D02*
X15969539Y-17286984D01*
X16121920Y-17486984D02*
X16121920Y-17353650D01*
X16121920Y-17372698D02*
X16131443Y-17363174D01*
X16131443Y-17363174D02*
X16150491Y-17353650D01*
X16150491Y-17353650D02*
X16179063Y-17353650D01*
X16179063Y-17353650D02*
X16198110Y-17363174D01*
X16198110Y-17363174D02*
X16207634Y-17382222D01*
X16207634Y-17382222D02*
X16207634Y-17486984D01*
X16207634Y-17382222D02*
X16217158Y-17363174D01*
X16217158Y-17363174D02*
X16236205Y-17353650D01*
X16236205Y-17353650D02*
X16264777Y-17353650D01*
X16264777Y-17353650D02*
X16283824Y-17363174D01*
X16283824Y-17363174D02*
X16293348Y-17382222D01*
X16293348Y-17382222D02*
X16293348Y-17486984D01*
X16388586Y-17486984D02*
X16388586Y-17353650D01*
X16388586Y-17372698D02*
X16398110Y-17363174D01*
X16398110Y-17363174D02*
X16417158Y-17353650D01*
X16417158Y-17353650D02*
X16445729Y-17353650D01*
X16445729Y-17353650D02*
X16464777Y-17363174D01*
X16464777Y-17363174D02*
X16474301Y-17382222D01*
X16474301Y-17382222D02*
X16474301Y-17486984D01*
X16474301Y-17382222D02*
X16483824Y-17363174D01*
X16483824Y-17363174D02*
X16502872Y-17353650D01*
X16502872Y-17353650D02*
X16531443Y-17353650D01*
X16531443Y-17353650D02*
X16550491Y-17363174D01*
X16550491Y-17363174D02*
X16560015Y-17382222D01*
X16560015Y-17382222D02*
X16560015Y-17486984D01*
X16950491Y-17277460D02*
X16779063Y-17534603D01*
X17207634Y-17286984D02*
X17226682Y-17286984D01*
X17226682Y-17286984D02*
X17245729Y-17296508D01*
X17245729Y-17296508D02*
X17255253Y-17306031D01*
X17255253Y-17306031D02*
X17264777Y-17325079D01*
X17264777Y-17325079D02*
X17274301Y-17363174D01*
X17274301Y-17363174D02*
X17274301Y-17410793D01*
X17274301Y-17410793D02*
X17264777Y-17448889D01*
X17264777Y-17448889D02*
X17255253Y-17467936D01*
X17255253Y-17467936D02*
X17245729Y-17477460D01*
X17245729Y-17477460D02*
X17226682Y-17486984D01*
X17226682Y-17486984D02*
X17207634Y-17486984D01*
X17207634Y-17486984D02*
X17188587Y-17477460D01*
X17188587Y-17477460D02*
X17179063Y-17467936D01*
X17179063Y-17467936D02*
X17169539Y-17448889D01*
X17169539Y-17448889D02*
X17160015Y-17410793D01*
X17160015Y-17410793D02*
X17160015Y-17363174D01*
X17160015Y-17363174D02*
X17169539Y-17325079D01*
X17169539Y-17325079D02*
X17179063Y-17306031D01*
X17179063Y-17306031D02*
X17188587Y-17296508D01*
X17188587Y-17296508D02*
X17207634Y-17286984D01*
X17360015Y-17467936D02*
X17369539Y-17477460D01*
X17369539Y-17477460D02*
X17360015Y-17486984D01*
X17360015Y-17486984D02*
X17350491Y-17477460D01*
X17350491Y-17477460D02*
X17360015Y-17467936D01*
X17360015Y-17467936D02*
X17360015Y-17486984D01*
X17493348Y-17286984D02*
X17512396Y-17286984D01*
X17512396Y-17286984D02*
X17531444Y-17296508D01*
X17531444Y-17296508D02*
X17540968Y-17306031D01*
X17540968Y-17306031D02*
X17550491Y-17325079D01*
X17550491Y-17325079D02*
X17560015Y-17363174D01*
X17560015Y-17363174D02*
X17560015Y-17410793D01*
X17560015Y-17410793D02*
X17550491Y-17448889D01*
X17550491Y-17448889D02*
X17540968Y-17467936D01*
X17540968Y-17467936D02*
X17531444Y-17477460D01*
X17531444Y-17477460D02*
X17512396Y-17486984D01*
X17512396Y-17486984D02*
X17493348Y-17486984D01*
X17493348Y-17486984D02*
X17474301Y-17477460D01*
X17474301Y-17477460D02*
X17464777Y-17467936D01*
X17464777Y-17467936D02*
X17455253Y-17448889D01*
X17455253Y-17448889D02*
X17445729Y-17410793D01*
X17445729Y-17410793D02*
X17445729Y-17363174D01*
X17445729Y-17363174D02*
X17455253Y-17325079D01*
X17455253Y-17325079D02*
X17464777Y-17306031D01*
X17464777Y-17306031D02*
X17474301Y-17296508D01*
X17474301Y-17296508D02*
X17493348Y-17286984D01*
X17750491Y-17486984D02*
X17636206Y-17486984D01*
X17693348Y-17486984D02*
X17693348Y-17286984D01*
X17693348Y-17286984D02*
X17674301Y-17315555D01*
X17674301Y-17315555D02*
X17655253Y-17334603D01*
X17655253Y-17334603D02*
X17636206Y-17344127D01*
X17845729Y-17486984D02*
X17883825Y-17486984D01*
X17883825Y-17486984D02*
X17902872Y-17477460D01*
X17902872Y-17477460D02*
X17912396Y-17467936D01*
X17912396Y-17467936D02*
X17931444Y-17439365D01*
X17931444Y-17439365D02*
X17940968Y-17401270D01*
X17940968Y-17401270D02*
X17940968Y-17325079D01*
X17940968Y-17325079D02*
X17931444Y-17306031D01*
X17931444Y-17306031D02*
X17921920Y-17296508D01*
X17921920Y-17296508D02*
X17902872Y-17286984D01*
X17902872Y-17286984D02*
X17864777Y-17286984D01*
X17864777Y-17286984D02*
X17845729Y-17296508D01*
X17845729Y-17296508D02*
X17836206Y-17306031D01*
X17836206Y-17306031D02*
X17826682Y-17325079D01*
X17826682Y-17325079D02*
X17826682Y-17372698D01*
X17826682Y-17372698D02*
X17836206Y-17391746D01*
X17836206Y-17391746D02*
X17845729Y-17401270D01*
X17845729Y-17401270D02*
X17864777Y-17410793D01*
X17864777Y-17410793D02*
X17902872Y-17410793D01*
X17902872Y-17410793D02*
X17921920Y-17401270D01*
X17921920Y-17401270D02*
X17931444Y-17391746D01*
X17931444Y-17391746D02*
X17940968Y-17372698D01*
X18007634Y-17286984D02*
X18140968Y-17286984D01*
X18140968Y-17286984D02*
X18055253Y-17486984D01*
X18207634Y-17286984D02*
X18207634Y-17325079D01*
X18283825Y-17286984D02*
X18283825Y-17325079D01*
X18579063Y-17563174D02*
X18569539Y-17553650D01*
X18569539Y-17553650D02*
X18550491Y-17525079D01*
X18550491Y-17525079D02*
X18540968Y-17506031D01*
X18540968Y-17506031D02*
X18531444Y-17477460D01*
X18531444Y-17477460D02*
X18521920Y-17429841D01*
X18521920Y-17429841D02*
X18521920Y-17391746D01*
X18521920Y-17391746D02*
X18531444Y-17344127D01*
X18531444Y-17344127D02*
X18540968Y-17315555D01*
X18540968Y-17315555D02*
X18550491Y-17296508D01*
X18550491Y-17296508D02*
X18569539Y-17267936D01*
X18569539Y-17267936D02*
X18579063Y-17258412D01*
X18693349Y-17286984D02*
X18712396Y-17286984D01*
X18712396Y-17286984D02*
X18731444Y-17296508D01*
X18731444Y-17296508D02*
X18740968Y-17306031D01*
X18740968Y-17306031D02*
X18750491Y-17325079D01*
X18750491Y-17325079D02*
X18760015Y-17363174D01*
X18760015Y-17363174D02*
X18760015Y-17410793D01*
X18760015Y-17410793D02*
X18750491Y-17448889D01*
X18750491Y-17448889D02*
X18740968Y-17467936D01*
X18740968Y-17467936D02*
X18731444Y-17477460D01*
X18731444Y-17477460D02*
X18712396Y-17486984D01*
X18712396Y-17486984D02*
X18693349Y-17486984D01*
X18693349Y-17486984D02*
X18674301Y-17477460D01*
X18674301Y-17477460D02*
X18664777Y-17467936D01*
X18664777Y-17467936D02*
X18655253Y-17448889D01*
X18655253Y-17448889D02*
X18645730Y-17410793D01*
X18645730Y-17410793D02*
X18645730Y-17363174D01*
X18645730Y-17363174D02*
X18655253Y-17325079D01*
X18655253Y-17325079D02*
X18664777Y-17306031D01*
X18664777Y-17306031D02*
X18674301Y-17296508D01*
X18674301Y-17296508D02*
X18693349Y-17286984D01*
X18998111Y-17486984D02*
X18998111Y-17286984D01*
X19083825Y-17486984D02*
X19083825Y-17382222D01*
X19083825Y-17382222D02*
X19074301Y-17363174D01*
X19074301Y-17363174D02*
X19055253Y-17353650D01*
X19055253Y-17353650D02*
X19026682Y-17353650D01*
X19026682Y-17353650D02*
X19007634Y-17363174D01*
X19007634Y-17363174D02*
X18998111Y-17372698D01*
X19207634Y-17486984D02*
X19188587Y-17477460D01*
X19188587Y-17477460D02*
X19179063Y-17467936D01*
X19179063Y-17467936D02*
X19169539Y-17448889D01*
X19169539Y-17448889D02*
X19169539Y-17391746D01*
X19169539Y-17391746D02*
X19179063Y-17372698D01*
X19179063Y-17372698D02*
X19188587Y-17363174D01*
X19188587Y-17363174D02*
X19207634Y-17353650D01*
X19207634Y-17353650D02*
X19236206Y-17353650D01*
X19236206Y-17353650D02*
X19255253Y-17363174D01*
X19255253Y-17363174D02*
X19264777Y-17372698D01*
X19264777Y-17372698D02*
X19274301Y-17391746D01*
X19274301Y-17391746D02*
X19274301Y-17448889D01*
X19274301Y-17448889D02*
X19264777Y-17467936D01*
X19264777Y-17467936D02*
X19255253Y-17477460D01*
X19255253Y-17477460D02*
X19236206Y-17486984D01*
X19236206Y-17486984D02*
X19207634Y-17486984D01*
X19388587Y-17486984D02*
X19369539Y-17477460D01*
X19369539Y-17477460D02*
X19360015Y-17458412D01*
X19360015Y-17458412D02*
X19360015Y-17286984D01*
X19540968Y-17477460D02*
X19521920Y-17486984D01*
X19521920Y-17486984D02*
X19483825Y-17486984D01*
X19483825Y-17486984D02*
X19464777Y-17477460D01*
X19464777Y-17477460D02*
X19455253Y-17458412D01*
X19455253Y-17458412D02*
X19455253Y-17382222D01*
X19455253Y-17382222D02*
X19464777Y-17363174D01*
X19464777Y-17363174D02*
X19483825Y-17353650D01*
X19483825Y-17353650D02*
X19521920Y-17353650D01*
X19521920Y-17353650D02*
X19540968Y-17363174D01*
X19540968Y-17363174D02*
X19550492Y-17382222D01*
X19550492Y-17382222D02*
X19550492Y-17401270D01*
X19550492Y-17401270D02*
X19455253Y-17420317D01*
X19626682Y-17477460D02*
X19645730Y-17486984D01*
X19645730Y-17486984D02*
X19683825Y-17486984D01*
X19683825Y-17486984D02*
X19702873Y-17477460D01*
X19702873Y-17477460D02*
X19712396Y-17458412D01*
X19712396Y-17458412D02*
X19712396Y-17448889D01*
X19712396Y-17448889D02*
X19702873Y-17429841D01*
X19702873Y-17429841D02*
X19683825Y-17420317D01*
X19683825Y-17420317D02*
X19655253Y-17420317D01*
X19655253Y-17420317D02*
X19636206Y-17410793D01*
X19636206Y-17410793D02*
X19626682Y-17391746D01*
X19626682Y-17391746D02*
X19626682Y-17382222D01*
X19626682Y-17382222D02*
X19636206Y-17363174D01*
X19636206Y-17363174D02*
X19655253Y-17353650D01*
X19655253Y-17353650D02*
X19683825Y-17353650D01*
X19683825Y-17353650D02*
X19702873Y-17363174D01*
X19950492Y-17410793D02*
X20102873Y-17410793D01*
X20026682Y-17486984D02*
X20026682Y-17334603D01*
X20340968Y-17306031D02*
X20350492Y-17296508D01*
X20350492Y-17296508D02*
X20369539Y-17286984D01*
X20369539Y-17286984D02*
X20417158Y-17286984D01*
X20417158Y-17286984D02*
X20436206Y-17296508D01*
X20436206Y-17296508D02*
X20445730Y-17306031D01*
X20445730Y-17306031D02*
X20455254Y-17325079D01*
X20455254Y-17325079D02*
X20455254Y-17344127D01*
X20455254Y-17344127D02*
X20445730Y-17372698D01*
X20445730Y-17372698D02*
X20331444Y-17486984D01*
X20331444Y-17486984D02*
X20455254Y-17486984D01*
X20683825Y-17477460D02*
X20702873Y-17486984D01*
X20702873Y-17486984D02*
X20740968Y-17486984D01*
X20740968Y-17486984D02*
X20760016Y-17477460D01*
X20760016Y-17477460D02*
X20769539Y-17458412D01*
X20769539Y-17458412D02*
X20769539Y-17448889D01*
X20769539Y-17448889D02*
X20760016Y-17429841D01*
X20760016Y-17429841D02*
X20740968Y-17420317D01*
X20740968Y-17420317D02*
X20712396Y-17420317D01*
X20712396Y-17420317D02*
X20693349Y-17410793D01*
X20693349Y-17410793D02*
X20683825Y-17391746D01*
X20683825Y-17391746D02*
X20683825Y-17382222D01*
X20683825Y-17382222D02*
X20693349Y-17363174D01*
X20693349Y-17363174D02*
X20712396Y-17353650D01*
X20712396Y-17353650D02*
X20740968Y-17353650D01*
X20740968Y-17353650D02*
X20760016Y-17363174D01*
X20883825Y-17486984D02*
X20864777Y-17477460D01*
X20864777Y-17477460D02*
X20855254Y-17458412D01*
X20855254Y-17458412D02*
X20855254Y-17286984D01*
X20988587Y-17486984D02*
X20969539Y-17477460D01*
X20969539Y-17477460D02*
X20960016Y-17467936D01*
X20960016Y-17467936D02*
X20950492Y-17448889D01*
X20950492Y-17448889D02*
X20950492Y-17391746D01*
X20950492Y-17391746D02*
X20960016Y-17372698D01*
X20960016Y-17372698D02*
X20969539Y-17363174D01*
X20969539Y-17363174D02*
X20988587Y-17353650D01*
X20988587Y-17353650D02*
X21017158Y-17353650D01*
X21017158Y-17353650D02*
X21036206Y-17363174D01*
X21036206Y-17363174D02*
X21045730Y-17372698D01*
X21045730Y-17372698D02*
X21055254Y-17391746D01*
X21055254Y-17391746D02*
X21055254Y-17448889D01*
X21055254Y-17448889D02*
X21045730Y-17467936D01*
X21045730Y-17467936D02*
X21036206Y-17477460D01*
X21036206Y-17477460D02*
X21017158Y-17486984D01*
X21017158Y-17486984D02*
X20988587Y-17486984D01*
X21112397Y-17353650D02*
X21188587Y-17353650D01*
X21140968Y-17286984D02*
X21140968Y-17458412D01*
X21140968Y-17458412D02*
X21150492Y-17477460D01*
X21150492Y-17477460D02*
X21169539Y-17486984D01*
X21169539Y-17486984D02*
X21188587Y-17486984D01*
X21245730Y-17477460D02*
X21264777Y-17486984D01*
X21264777Y-17486984D02*
X21302873Y-17486984D01*
X21302873Y-17486984D02*
X21321920Y-17477460D01*
X21321920Y-17477460D02*
X21331444Y-17458412D01*
X21331444Y-17458412D02*
X21331444Y-17448889D01*
X21331444Y-17448889D02*
X21321920Y-17429841D01*
X21321920Y-17429841D02*
X21302873Y-17420317D01*
X21302873Y-17420317D02*
X21274301Y-17420317D01*
X21274301Y-17420317D02*
X21255254Y-17410793D01*
X21255254Y-17410793D02*
X21245730Y-17391746D01*
X21245730Y-17391746D02*
X21245730Y-17382222D01*
X21245730Y-17382222D02*
X21255254Y-17363174D01*
X21255254Y-17363174D02*
X21274301Y-17353650D01*
X21274301Y-17353650D02*
X21302873Y-17353650D01*
X21302873Y-17353650D02*
X21321920Y-17363174D01*
X21398111Y-17563174D02*
X21407635Y-17553650D01*
X21407635Y-17553650D02*
X21426682Y-17525079D01*
X21426682Y-17525079D02*
X21436206Y-17506031D01*
X21436206Y-17506031D02*
X21445730Y-17477460D01*
X21445730Y-17477460D02*
X21455254Y-17429841D01*
X21455254Y-17429841D02*
X21455254Y-17391746D01*
X21455254Y-17391746D02*
X21445730Y-17344127D01*
X21445730Y-17344127D02*
X21436206Y-17315555D01*
X21436206Y-17315555D02*
X21426682Y-17296508D01*
X21426682Y-17296508D02*
X21407635Y-17267936D01*
X21407635Y-17267936D02*
X21398111Y-17258412D01*
D11*
X14976500Y-17632000D02*
X14976500Y-17687000D01*
X14949000Y-17659500D02*
X15004000Y-17659500D01*
D10*
X15302872Y-17550984D02*
X15321920Y-17550984D01*
X15321920Y-17550984D02*
X15340967Y-17560508D01*
X15340967Y-17560508D02*
X15350491Y-17570031D01*
X15350491Y-17570031D02*
X15360015Y-17589079D01*
X15360015Y-17589079D02*
X15369539Y-17627174D01*
X15369539Y-17627174D02*
X15369539Y-17674793D01*
X15369539Y-17674793D02*
X15360015Y-17712889D01*
X15360015Y-17712889D02*
X15350491Y-17731936D01*
X15350491Y-17731936D02*
X15340967Y-17741460D01*
X15340967Y-17741460D02*
X15321920Y-17750984D01*
X15321920Y-17750984D02*
X15302872Y-17750984D01*
X15302872Y-17750984D02*
X15283824Y-17741460D01*
X15283824Y-17741460D02*
X15274301Y-17731936D01*
X15274301Y-17731936D02*
X15264777Y-17712889D01*
X15264777Y-17712889D02*
X15255253Y-17674793D01*
X15255253Y-17674793D02*
X15255253Y-17627174D01*
X15255253Y-17627174D02*
X15264777Y-17589079D01*
X15264777Y-17589079D02*
X15274301Y-17570031D01*
X15274301Y-17570031D02*
X15283824Y-17560508D01*
X15283824Y-17560508D02*
X15302872Y-17550984D01*
X15455253Y-17731936D02*
X15464777Y-17741460D01*
X15464777Y-17741460D02*
X15455253Y-17750984D01*
X15455253Y-17750984D02*
X15445729Y-17741460D01*
X15445729Y-17741460D02*
X15455253Y-17731936D01*
X15455253Y-17731936D02*
X15455253Y-17750984D01*
X15645729Y-17550984D02*
X15550491Y-17550984D01*
X15550491Y-17550984D02*
X15540967Y-17646222D01*
X15540967Y-17646222D02*
X15550491Y-17636698D01*
X15550491Y-17636698D02*
X15569539Y-17627174D01*
X15569539Y-17627174D02*
X15617158Y-17627174D01*
X15617158Y-17627174D02*
X15636205Y-17636698D01*
X15636205Y-17636698D02*
X15645729Y-17646222D01*
X15645729Y-17646222D02*
X15655253Y-17665270D01*
X15655253Y-17665270D02*
X15655253Y-17712889D01*
X15655253Y-17712889D02*
X15645729Y-17731936D01*
X15645729Y-17731936D02*
X15636205Y-17741460D01*
X15636205Y-17741460D02*
X15617158Y-17750984D01*
X15617158Y-17750984D02*
X15569539Y-17750984D01*
X15569539Y-17750984D02*
X15550491Y-17741460D01*
X15550491Y-17741460D02*
X15540967Y-17731936D01*
X15836205Y-17550984D02*
X15740967Y-17550984D01*
X15740967Y-17550984D02*
X15731443Y-17646222D01*
X15731443Y-17646222D02*
X15740967Y-17636698D01*
X15740967Y-17636698D02*
X15760015Y-17627174D01*
X15760015Y-17627174D02*
X15807634Y-17627174D01*
X15807634Y-17627174D02*
X15826682Y-17636698D01*
X15826682Y-17636698D02*
X15836205Y-17646222D01*
X15836205Y-17646222D02*
X15845729Y-17665270D01*
X15845729Y-17665270D02*
X15845729Y-17712889D01*
X15845729Y-17712889D02*
X15836205Y-17731936D01*
X15836205Y-17731936D02*
X15826682Y-17741460D01*
X15826682Y-17741460D02*
X15807634Y-17750984D01*
X15807634Y-17750984D02*
X15760015Y-17750984D01*
X15760015Y-17750984D02*
X15740967Y-17741460D01*
X15740967Y-17741460D02*
X15731443Y-17731936D01*
X15969539Y-17550984D02*
X15988586Y-17550984D01*
X15988586Y-17550984D02*
X16007634Y-17560508D01*
X16007634Y-17560508D02*
X16017158Y-17570031D01*
X16017158Y-17570031D02*
X16026682Y-17589079D01*
X16026682Y-17589079D02*
X16036205Y-17627174D01*
X16036205Y-17627174D02*
X16036205Y-17674793D01*
X16036205Y-17674793D02*
X16026682Y-17712889D01*
X16026682Y-17712889D02*
X16017158Y-17731936D01*
X16017158Y-17731936D02*
X16007634Y-17741460D01*
X16007634Y-17741460D02*
X15988586Y-17750984D01*
X15988586Y-17750984D02*
X15969539Y-17750984D01*
X15969539Y-17750984D02*
X15950491Y-17741460D01*
X15950491Y-17741460D02*
X15940967Y-17731936D01*
X15940967Y-17731936D02*
X15931443Y-17712889D01*
X15931443Y-17712889D02*
X15921920Y-17674793D01*
X15921920Y-17674793D02*
X15921920Y-17627174D01*
X15921920Y-17627174D02*
X15931443Y-17589079D01*
X15931443Y-17589079D02*
X15940967Y-17570031D01*
X15940967Y-17570031D02*
X15950491Y-17560508D01*
X15950491Y-17560508D02*
X15969539Y-17550984D01*
X16121920Y-17750984D02*
X16121920Y-17617650D01*
X16121920Y-17636698D02*
X16131443Y-17627174D01*
X16131443Y-17627174D02*
X16150491Y-17617650D01*
X16150491Y-17617650D02*
X16179063Y-17617650D01*
X16179063Y-17617650D02*
X16198110Y-17627174D01*
X16198110Y-17627174D02*
X16207634Y-17646222D01*
X16207634Y-17646222D02*
X16207634Y-17750984D01*
X16207634Y-17646222D02*
X16217158Y-17627174D01*
X16217158Y-17627174D02*
X16236205Y-17617650D01*
X16236205Y-17617650D02*
X16264777Y-17617650D01*
X16264777Y-17617650D02*
X16283824Y-17627174D01*
X16283824Y-17627174D02*
X16293348Y-17646222D01*
X16293348Y-17646222D02*
X16293348Y-17750984D01*
X16388586Y-17750984D02*
X16388586Y-17617650D01*
X16388586Y-17636698D02*
X16398110Y-17627174D01*
X16398110Y-17627174D02*
X16417158Y-17617650D01*
X16417158Y-17617650D02*
X16445729Y-17617650D01*
X16445729Y-17617650D02*
X16464777Y-17627174D01*
X16464777Y-17627174D02*
X16474301Y-17646222D01*
X16474301Y-17646222D02*
X16474301Y-17750984D01*
X16474301Y-17646222D02*
X16483824Y-17627174D01*
X16483824Y-17627174D02*
X16502872Y-17617650D01*
X16502872Y-17617650D02*
X16531443Y-17617650D01*
X16531443Y-17617650D02*
X16550491Y-17627174D01*
X16550491Y-17627174D02*
X16560015Y-17646222D01*
X16560015Y-17646222D02*
X16560015Y-17750984D01*
X16950491Y-17541460D02*
X16779063Y-17798603D01*
X17207634Y-17550984D02*
X17226682Y-17550984D01*
X17226682Y-17550984D02*
X17245729Y-17560508D01*
X17245729Y-17560508D02*
X17255253Y-17570031D01*
X17255253Y-17570031D02*
X17264777Y-17589079D01*
X17264777Y-17589079D02*
X17274301Y-17627174D01*
X17274301Y-17627174D02*
X17274301Y-17674793D01*
X17274301Y-17674793D02*
X17264777Y-17712889D01*
X17264777Y-17712889D02*
X17255253Y-17731936D01*
X17255253Y-17731936D02*
X17245729Y-17741460D01*
X17245729Y-17741460D02*
X17226682Y-17750984D01*
X17226682Y-17750984D02*
X17207634Y-17750984D01*
X17207634Y-17750984D02*
X17188587Y-17741460D01*
X17188587Y-17741460D02*
X17179063Y-17731936D01*
X17179063Y-17731936D02*
X17169539Y-17712889D01*
X17169539Y-17712889D02*
X17160015Y-17674793D01*
X17160015Y-17674793D02*
X17160015Y-17627174D01*
X17160015Y-17627174D02*
X17169539Y-17589079D01*
X17169539Y-17589079D02*
X17179063Y-17570031D01*
X17179063Y-17570031D02*
X17188587Y-17560508D01*
X17188587Y-17560508D02*
X17207634Y-17550984D01*
X17360015Y-17731936D02*
X17369539Y-17741460D01*
X17369539Y-17741460D02*
X17360015Y-17750984D01*
X17360015Y-17750984D02*
X17350491Y-17741460D01*
X17350491Y-17741460D02*
X17360015Y-17731936D01*
X17360015Y-17731936D02*
X17360015Y-17750984D01*
X17493348Y-17550984D02*
X17512396Y-17550984D01*
X17512396Y-17550984D02*
X17531444Y-17560508D01*
X17531444Y-17560508D02*
X17540968Y-17570031D01*
X17540968Y-17570031D02*
X17550491Y-17589079D01*
X17550491Y-17589079D02*
X17560015Y-17627174D01*
X17560015Y-17627174D02*
X17560015Y-17674793D01*
X17560015Y-17674793D02*
X17550491Y-17712889D01*
X17550491Y-17712889D02*
X17540968Y-17731936D01*
X17540968Y-17731936D02*
X17531444Y-17741460D01*
X17531444Y-17741460D02*
X17512396Y-17750984D01*
X17512396Y-17750984D02*
X17493348Y-17750984D01*
X17493348Y-17750984D02*
X17474301Y-17741460D01*
X17474301Y-17741460D02*
X17464777Y-17731936D01*
X17464777Y-17731936D02*
X17455253Y-17712889D01*
X17455253Y-17712889D02*
X17445729Y-17674793D01*
X17445729Y-17674793D02*
X17445729Y-17627174D01*
X17445729Y-17627174D02*
X17455253Y-17589079D01*
X17455253Y-17589079D02*
X17464777Y-17570031D01*
X17464777Y-17570031D02*
X17474301Y-17560508D01*
X17474301Y-17560508D02*
X17493348Y-17550984D01*
X17636206Y-17570031D02*
X17645729Y-17560508D01*
X17645729Y-17560508D02*
X17664777Y-17550984D01*
X17664777Y-17550984D02*
X17712396Y-17550984D01*
X17712396Y-17550984D02*
X17731444Y-17560508D01*
X17731444Y-17560508D02*
X17740968Y-17570031D01*
X17740968Y-17570031D02*
X17750491Y-17589079D01*
X17750491Y-17589079D02*
X17750491Y-17608127D01*
X17750491Y-17608127D02*
X17740968Y-17636698D01*
X17740968Y-17636698D02*
X17626682Y-17750984D01*
X17626682Y-17750984D02*
X17750491Y-17750984D01*
X17940968Y-17750984D02*
X17826682Y-17750984D01*
X17883825Y-17750984D02*
X17883825Y-17550984D01*
X17883825Y-17550984D02*
X17864777Y-17579555D01*
X17864777Y-17579555D02*
X17845729Y-17598603D01*
X17845729Y-17598603D02*
X17826682Y-17608127D01*
X18007634Y-17550984D02*
X18140968Y-17550984D01*
X18140968Y-17550984D02*
X18055253Y-17750984D01*
X18207634Y-17550984D02*
X18207634Y-17589079D01*
X18283825Y-17550984D02*
X18283825Y-17589079D01*
X18579063Y-17827174D02*
X18569539Y-17817650D01*
X18569539Y-17817650D02*
X18550491Y-17789079D01*
X18550491Y-17789079D02*
X18540968Y-17770031D01*
X18540968Y-17770031D02*
X18531444Y-17741460D01*
X18531444Y-17741460D02*
X18521920Y-17693841D01*
X18521920Y-17693841D02*
X18521920Y-17655746D01*
X18521920Y-17655746D02*
X18531444Y-17608127D01*
X18531444Y-17608127D02*
X18540968Y-17579555D01*
X18540968Y-17579555D02*
X18550491Y-17560508D01*
X18550491Y-17560508D02*
X18569539Y-17531936D01*
X18569539Y-17531936D02*
X18579063Y-17522412D01*
X18693349Y-17550984D02*
X18712396Y-17550984D01*
X18712396Y-17550984D02*
X18731444Y-17560508D01*
X18731444Y-17560508D02*
X18740968Y-17570031D01*
X18740968Y-17570031D02*
X18750491Y-17589079D01*
X18750491Y-17589079D02*
X18760015Y-17627174D01*
X18760015Y-17627174D02*
X18760015Y-17674793D01*
X18760015Y-17674793D02*
X18750491Y-17712889D01*
X18750491Y-17712889D02*
X18740968Y-17731936D01*
X18740968Y-17731936D02*
X18731444Y-17741460D01*
X18731444Y-17741460D02*
X18712396Y-17750984D01*
X18712396Y-17750984D02*
X18693349Y-17750984D01*
X18693349Y-17750984D02*
X18674301Y-17741460D01*
X18674301Y-17741460D02*
X18664777Y-17731936D01*
X18664777Y-17731936D02*
X18655253Y-17712889D01*
X18655253Y-17712889D02*
X18645730Y-17674793D01*
X18645730Y-17674793D02*
X18645730Y-17627174D01*
X18645730Y-17627174D02*
X18655253Y-17589079D01*
X18655253Y-17589079D02*
X18664777Y-17570031D01*
X18664777Y-17570031D02*
X18674301Y-17560508D01*
X18674301Y-17560508D02*
X18693349Y-17550984D01*
X18998111Y-17750984D02*
X18998111Y-17550984D01*
X19083825Y-17750984D02*
X19083825Y-17646222D01*
X19083825Y-17646222D02*
X19074301Y-17627174D01*
X19074301Y-17627174D02*
X19055253Y-17617650D01*
X19055253Y-17617650D02*
X19026682Y-17617650D01*
X19026682Y-17617650D02*
X19007634Y-17627174D01*
X19007634Y-17627174D02*
X18998111Y-17636698D01*
X19207634Y-17750984D02*
X19188587Y-17741460D01*
X19188587Y-17741460D02*
X19179063Y-17731936D01*
X19179063Y-17731936D02*
X19169539Y-17712889D01*
X19169539Y-17712889D02*
X19169539Y-17655746D01*
X19169539Y-17655746D02*
X19179063Y-17636698D01*
X19179063Y-17636698D02*
X19188587Y-17627174D01*
X19188587Y-17627174D02*
X19207634Y-17617650D01*
X19207634Y-17617650D02*
X19236206Y-17617650D01*
X19236206Y-17617650D02*
X19255253Y-17627174D01*
X19255253Y-17627174D02*
X19264777Y-17636698D01*
X19264777Y-17636698D02*
X19274301Y-17655746D01*
X19274301Y-17655746D02*
X19274301Y-17712889D01*
X19274301Y-17712889D02*
X19264777Y-17731936D01*
X19264777Y-17731936D02*
X19255253Y-17741460D01*
X19255253Y-17741460D02*
X19236206Y-17750984D01*
X19236206Y-17750984D02*
X19207634Y-17750984D01*
X19388587Y-17750984D02*
X19369539Y-17741460D01*
X19369539Y-17741460D02*
X19360015Y-17722412D01*
X19360015Y-17722412D02*
X19360015Y-17550984D01*
X19540968Y-17741460D02*
X19521920Y-17750984D01*
X19521920Y-17750984D02*
X19483825Y-17750984D01*
X19483825Y-17750984D02*
X19464777Y-17741460D01*
X19464777Y-17741460D02*
X19455253Y-17722412D01*
X19455253Y-17722412D02*
X19455253Y-17646222D01*
X19455253Y-17646222D02*
X19464777Y-17627174D01*
X19464777Y-17627174D02*
X19483825Y-17617650D01*
X19483825Y-17617650D02*
X19521920Y-17617650D01*
X19521920Y-17617650D02*
X19540968Y-17627174D01*
X19540968Y-17627174D02*
X19550492Y-17646222D01*
X19550492Y-17646222D02*
X19550492Y-17665270D01*
X19550492Y-17665270D02*
X19455253Y-17684317D01*
X19626682Y-17741460D02*
X19645730Y-17750984D01*
X19645730Y-17750984D02*
X19683825Y-17750984D01*
X19683825Y-17750984D02*
X19702873Y-17741460D01*
X19702873Y-17741460D02*
X19712396Y-17722412D01*
X19712396Y-17722412D02*
X19712396Y-17712889D01*
X19712396Y-17712889D02*
X19702873Y-17693841D01*
X19702873Y-17693841D02*
X19683825Y-17684317D01*
X19683825Y-17684317D02*
X19655253Y-17684317D01*
X19655253Y-17684317D02*
X19636206Y-17674793D01*
X19636206Y-17674793D02*
X19626682Y-17655746D01*
X19626682Y-17655746D02*
X19626682Y-17646222D01*
X19626682Y-17646222D02*
X19636206Y-17627174D01*
X19636206Y-17627174D02*
X19655253Y-17617650D01*
X19655253Y-17617650D02*
X19683825Y-17617650D01*
X19683825Y-17617650D02*
X19702873Y-17627174D01*
X19950492Y-17674793D02*
X20102873Y-17674793D01*
X20026682Y-17750984D02*
X20026682Y-17598603D01*
X20340968Y-17570031D02*
X20350492Y-17560508D01*
X20350492Y-17560508D02*
X20369539Y-17550984D01*
X20369539Y-17550984D02*
X20417158Y-17550984D01*
X20417158Y-17550984D02*
X20436206Y-17560508D01*
X20436206Y-17560508D02*
X20445730Y-17570031D01*
X20445730Y-17570031D02*
X20455254Y-17589079D01*
X20455254Y-17589079D02*
X20455254Y-17608127D01*
X20455254Y-17608127D02*
X20445730Y-17636698D01*
X20445730Y-17636698D02*
X20331444Y-17750984D01*
X20331444Y-17750984D02*
X20455254Y-17750984D01*
X20683825Y-17741460D02*
X20702873Y-17750984D01*
X20702873Y-17750984D02*
X20740968Y-17750984D01*
X20740968Y-17750984D02*
X20760016Y-17741460D01*
X20760016Y-17741460D02*
X20769539Y-17722412D01*
X20769539Y-17722412D02*
X20769539Y-17712889D01*
X20769539Y-17712889D02*
X20760016Y-17693841D01*
X20760016Y-17693841D02*
X20740968Y-17684317D01*
X20740968Y-17684317D02*
X20712396Y-17684317D01*
X20712396Y-17684317D02*
X20693349Y-17674793D01*
X20693349Y-17674793D02*
X20683825Y-17655746D01*
X20683825Y-17655746D02*
X20683825Y-17646222D01*
X20683825Y-17646222D02*
X20693349Y-17627174D01*
X20693349Y-17627174D02*
X20712396Y-17617650D01*
X20712396Y-17617650D02*
X20740968Y-17617650D01*
X20740968Y-17617650D02*
X20760016Y-17627174D01*
X20883825Y-17750984D02*
X20864777Y-17741460D01*
X20864777Y-17741460D02*
X20855254Y-17722412D01*
X20855254Y-17722412D02*
X20855254Y-17550984D01*
X20988587Y-17750984D02*
X20969539Y-17741460D01*
X20969539Y-17741460D02*
X20960016Y-17731936D01*
X20960016Y-17731936D02*
X20950492Y-17712889D01*
X20950492Y-17712889D02*
X20950492Y-17655746D01*
X20950492Y-17655746D02*
X20960016Y-17636698D01*
X20960016Y-17636698D02*
X20969539Y-17627174D01*
X20969539Y-17627174D02*
X20988587Y-17617650D01*
X20988587Y-17617650D02*
X21017158Y-17617650D01*
X21017158Y-17617650D02*
X21036206Y-17627174D01*
X21036206Y-17627174D02*
X21045730Y-17636698D01*
X21045730Y-17636698D02*
X21055254Y-17655746D01*
X21055254Y-17655746D02*
X21055254Y-17712889D01*
X21055254Y-17712889D02*
X21045730Y-17731936D01*
X21045730Y-17731936D02*
X21036206Y-17741460D01*
X21036206Y-17741460D02*
X21017158Y-17750984D01*
X21017158Y-17750984D02*
X20988587Y-17750984D01*
X21112397Y-17617650D02*
X21188587Y-17617650D01*
X21140968Y-17550984D02*
X21140968Y-17722412D01*
X21140968Y-17722412D02*
X21150492Y-17741460D01*
X21150492Y-17741460D02*
X21169539Y-17750984D01*
X21169539Y-17750984D02*
X21188587Y-17750984D01*
X21245730Y-17741460D02*
X21264777Y-17750984D01*
X21264777Y-17750984D02*
X21302873Y-17750984D01*
X21302873Y-17750984D02*
X21321920Y-17741460D01*
X21321920Y-17741460D02*
X21331444Y-17722412D01*
X21331444Y-17722412D02*
X21331444Y-17712889D01*
X21331444Y-17712889D02*
X21321920Y-17693841D01*
X21321920Y-17693841D02*
X21302873Y-17684317D01*
X21302873Y-17684317D02*
X21274301Y-17684317D01*
X21274301Y-17684317D02*
X21255254Y-17674793D01*
X21255254Y-17674793D02*
X21245730Y-17655746D01*
X21245730Y-17655746D02*
X21245730Y-17646222D01*
X21245730Y-17646222D02*
X21255254Y-17627174D01*
X21255254Y-17627174D02*
X21274301Y-17617650D01*
X21274301Y-17617650D02*
X21302873Y-17617650D01*
X21302873Y-17617650D02*
X21321920Y-17627174D01*
X21398111Y-17827174D02*
X21407635Y-17817650D01*
X21407635Y-17817650D02*
X21426682Y-17789079D01*
X21426682Y-17789079D02*
X21436206Y-17770031D01*
X21436206Y-17770031D02*
X21445730Y-17741460D01*
X21445730Y-17741460D02*
X21455254Y-17693841D01*
X21455254Y-17693841D02*
X21455254Y-17655746D01*
X21455254Y-17655746D02*
X21445730Y-17608127D01*
X21445730Y-17608127D02*
X21436206Y-17579555D01*
X21436206Y-17579555D02*
X21426682Y-17560508D01*
X21426682Y-17560508D02*
X21407635Y-17531936D01*
X21407635Y-17531936D02*
X21398111Y-17522412D01*
D11*
X14989493Y-17958523D02*
X14989493Y-17888477D01*
X14919447Y-17888477D01*
X14919447Y-17958523D01*
X14989493Y-17958523D01*
D10*
X15302872Y-17814984D02*
X15321920Y-17814984D01*
X15321920Y-17814984D02*
X15340967Y-17824508D01*
X15340967Y-17824508D02*
X15350491Y-17834031D01*
X15350491Y-17834031D02*
X15360015Y-17853079D01*
X15360015Y-17853079D02*
X15369539Y-17891174D01*
X15369539Y-17891174D02*
X15369539Y-17938793D01*
X15369539Y-17938793D02*
X15360015Y-17976889D01*
X15360015Y-17976889D02*
X15350491Y-17995936D01*
X15350491Y-17995936D02*
X15340967Y-18005460D01*
X15340967Y-18005460D02*
X15321920Y-18014984D01*
X15321920Y-18014984D02*
X15302872Y-18014984D01*
X15302872Y-18014984D02*
X15283824Y-18005460D01*
X15283824Y-18005460D02*
X15274301Y-17995936D01*
X15274301Y-17995936D02*
X15264777Y-17976889D01*
X15264777Y-17976889D02*
X15255253Y-17938793D01*
X15255253Y-17938793D02*
X15255253Y-17891174D01*
X15255253Y-17891174D02*
X15264777Y-17853079D01*
X15264777Y-17853079D02*
X15274301Y-17834031D01*
X15274301Y-17834031D02*
X15283824Y-17824508D01*
X15283824Y-17824508D02*
X15302872Y-17814984D01*
X15455253Y-17995936D02*
X15464777Y-18005460D01*
X15464777Y-18005460D02*
X15455253Y-18014984D01*
X15455253Y-18014984D02*
X15445729Y-18005460D01*
X15445729Y-18005460D02*
X15455253Y-17995936D01*
X15455253Y-17995936D02*
X15455253Y-18014984D01*
X15560015Y-18014984D02*
X15598110Y-18014984D01*
X15598110Y-18014984D02*
X15617158Y-18005460D01*
X15617158Y-18005460D02*
X15626682Y-17995936D01*
X15626682Y-17995936D02*
X15645729Y-17967365D01*
X15645729Y-17967365D02*
X15655253Y-17929270D01*
X15655253Y-17929270D02*
X15655253Y-17853079D01*
X15655253Y-17853079D02*
X15645729Y-17834031D01*
X15645729Y-17834031D02*
X15636205Y-17824508D01*
X15636205Y-17824508D02*
X15617158Y-17814984D01*
X15617158Y-17814984D02*
X15579062Y-17814984D01*
X15579062Y-17814984D02*
X15560015Y-17824508D01*
X15560015Y-17824508D02*
X15550491Y-17834031D01*
X15550491Y-17834031D02*
X15540967Y-17853079D01*
X15540967Y-17853079D02*
X15540967Y-17900698D01*
X15540967Y-17900698D02*
X15550491Y-17919746D01*
X15550491Y-17919746D02*
X15560015Y-17929270D01*
X15560015Y-17929270D02*
X15579062Y-17938793D01*
X15579062Y-17938793D02*
X15617158Y-17938793D01*
X15617158Y-17938793D02*
X15636205Y-17929270D01*
X15636205Y-17929270D02*
X15645729Y-17919746D01*
X15645729Y-17919746D02*
X15655253Y-17900698D01*
X15750491Y-18014984D02*
X15788586Y-18014984D01*
X15788586Y-18014984D02*
X15807634Y-18005460D01*
X15807634Y-18005460D02*
X15817158Y-17995936D01*
X15817158Y-17995936D02*
X15836205Y-17967365D01*
X15836205Y-17967365D02*
X15845729Y-17929270D01*
X15845729Y-17929270D02*
X15845729Y-17853079D01*
X15845729Y-17853079D02*
X15836205Y-17834031D01*
X15836205Y-17834031D02*
X15826682Y-17824508D01*
X15826682Y-17824508D02*
X15807634Y-17814984D01*
X15807634Y-17814984D02*
X15769539Y-17814984D01*
X15769539Y-17814984D02*
X15750491Y-17824508D01*
X15750491Y-17824508D02*
X15740967Y-17834031D01*
X15740967Y-17834031D02*
X15731443Y-17853079D01*
X15731443Y-17853079D02*
X15731443Y-17900698D01*
X15731443Y-17900698D02*
X15740967Y-17919746D01*
X15740967Y-17919746D02*
X15750491Y-17929270D01*
X15750491Y-17929270D02*
X15769539Y-17938793D01*
X15769539Y-17938793D02*
X15807634Y-17938793D01*
X15807634Y-17938793D02*
X15826682Y-17929270D01*
X15826682Y-17929270D02*
X15836205Y-17919746D01*
X15836205Y-17919746D02*
X15845729Y-17900698D01*
X16036205Y-18014984D02*
X15921920Y-18014984D01*
X15979062Y-18014984D02*
X15979062Y-17814984D01*
X15979062Y-17814984D02*
X15960015Y-17843555D01*
X15960015Y-17843555D02*
X15940967Y-17862603D01*
X15940967Y-17862603D02*
X15921920Y-17872127D01*
X16121920Y-18014984D02*
X16121920Y-17881650D01*
X16121920Y-17900698D02*
X16131443Y-17891174D01*
X16131443Y-17891174D02*
X16150491Y-17881650D01*
X16150491Y-17881650D02*
X16179063Y-17881650D01*
X16179063Y-17881650D02*
X16198110Y-17891174D01*
X16198110Y-17891174D02*
X16207634Y-17910222D01*
X16207634Y-17910222D02*
X16207634Y-18014984D01*
X16207634Y-17910222D02*
X16217158Y-17891174D01*
X16217158Y-17891174D02*
X16236205Y-17881650D01*
X16236205Y-17881650D02*
X16264777Y-17881650D01*
X16264777Y-17881650D02*
X16283824Y-17891174D01*
X16283824Y-17891174D02*
X16293348Y-17910222D01*
X16293348Y-17910222D02*
X16293348Y-18014984D01*
X16388586Y-18014984D02*
X16388586Y-17881650D01*
X16388586Y-17900698D02*
X16398110Y-17891174D01*
X16398110Y-17891174D02*
X16417158Y-17881650D01*
X16417158Y-17881650D02*
X16445729Y-17881650D01*
X16445729Y-17881650D02*
X16464777Y-17891174D01*
X16464777Y-17891174D02*
X16474301Y-17910222D01*
X16474301Y-17910222D02*
X16474301Y-18014984D01*
X16474301Y-17910222D02*
X16483824Y-17891174D01*
X16483824Y-17891174D02*
X16502872Y-17881650D01*
X16502872Y-17881650D02*
X16531443Y-17881650D01*
X16531443Y-17881650D02*
X16550491Y-17891174D01*
X16550491Y-17891174D02*
X16560015Y-17910222D01*
X16560015Y-17910222D02*
X16560015Y-18014984D01*
X16950491Y-17805460D02*
X16779063Y-18062603D01*
X17207634Y-17814984D02*
X17226682Y-17814984D01*
X17226682Y-17814984D02*
X17245729Y-17824508D01*
X17245729Y-17824508D02*
X17255253Y-17834031D01*
X17255253Y-17834031D02*
X17264777Y-17853079D01*
X17264777Y-17853079D02*
X17274301Y-17891174D01*
X17274301Y-17891174D02*
X17274301Y-17938793D01*
X17274301Y-17938793D02*
X17264777Y-17976889D01*
X17264777Y-17976889D02*
X17255253Y-17995936D01*
X17255253Y-17995936D02*
X17245729Y-18005460D01*
X17245729Y-18005460D02*
X17226682Y-18014984D01*
X17226682Y-18014984D02*
X17207634Y-18014984D01*
X17207634Y-18014984D02*
X17188587Y-18005460D01*
X17188587Y-18005460D02*
X17179063Y-17995936D01*
X17179063Y-17995936D02*
X17169539Y-17976889D01*
X17169539Y-17976889D02*
X17160015Y-17938793D01*
X17160015Y-17938793D02*
X17160015Y-17891174D01*
X17160015Y-17891174D02*
X17169539Y-17853079D01*
X17169539Y-17853079D02*
X17179063Y-17834031D01*
X17179063Y-17834031D02*
X17188587Y-17824508D01*
X17188587Y-17824508D02*
X17207634Y-17814984D01*
X17360015Y-17995936D02*
X17369539Y-18005460D01*
X17369539Y-18005460D02*
X17360015Y-18014984D01*
X17360015Y-18014984D02*
X17350491Y-18005460D01*
X17350491Y-18005460D02*
X17360015Y-17995936D01*
X17360015Y-17995936D02*
X17360015Y-18014984D01*
X17493348Y-17814984D02*
X17512396Y-17814984D01*
X17512396Y-17814984D02*
X17531444Y-17824508D01*
X17531444Y-17824508D02*
X17540968Y-17834031D01*
X17540968Y-17834031D02*
X17550491Y-17853079D01*
X17550491Y-17853079D02*
X17560015Y-17891174D01*
X17560015Y-17891174D02*
X17560015Y-17938793D01*
X17560015Y-17938793D02*
X17550491Y-17976889D01*
X17550491Y-17976889D02*
X17540968Y-17995936D01*
X17540968Y-17995936D02*
X17531444Y-18005460D01*
X17531444Y-18005460D02*
X17512396Y-18014984D01*
X17512396Y-18014984D02*
X17493348Y-18014984D01*
X17493348Y-18014984D02*
X17474301Y-18005460D01*
X17474301Y-18005460D02*
X17464777Y-17995936D01*
X17464777Y-17995936D02*
X17455253Y-17976889D01*
X17455253Y-17976889D02*
X17445729Y-17938793D01*
X17445729Y-17938793D02*
X17445729Y-17891174D01*
X17445729Y-17891174D02*
X17455253Y-17853079D01*
X17455253Y-17853079D02*
X17464777Y-17834031D01*
X17464777Y-17834031D02*
X17474301Y-17824508D01*
X17474301Y-17824508D02*
X17493348Y-17814984D01*
X17626682Y-17814984D02*
X17750491Y-17814984D01*
X17750491Y-17814984D02*
X17683825Y-17891174D01*
X17683825Y-17891174D02*
X17712396Y-17891174D01*
X17712396Y-17891174D02*
X17731444Y-17900698D01*
X17731444Y-17900698D02*
X17740968Y-17910222D01*
X17740968Y-17910222D02*
X17750491Y-17929270D01*
X17750491Y-17929270D02*
X17750491Y-17976889D01*
X17750491Y-17976889D02*
X17740968Y-17995936D01*
X17740968Y-17995936D02*
X17731444Y-18005460D01*
X17731444Y-18005460D02*
X17712396Y-18014984D01*
X17712396Y-18014984D02*
X17655253Y-18014984D01*
X17655253Y-18014984D02*
X17636206Y-18005460D01*
X17636206Y-18005460D02*
X17626682Y-17995936D01*
X17845729Y-18014984D02*
X17883825Y-18014984D01*
X17883825Y-18014984D02*
X17902872Y-18005460D01*
X17902872Y-18005460D02*
X17912396Y-17995936D01*
X17912396Y-17995936D02*
X17931444Y-17967365D01*
X17931444Y-17967365D02*
X17940968Y-17929270D01*
X17940968Y-17929270D02*
X17940968Y-17853079D01*
X17940968Y-17853079D02*
X17931444Y-17834031D01*
X17931444Y-17834031D02*
X17921920Y-17824508D01*
X17921920Y-17824508D02*
X17902872Y-17814984D01*
X17902872Y-17814984D02*
X17864777Y-17814984D01*
X17864777Y-17814984D02*
X17845729Y-17824508D01*
X17845729Y-17824508D02*
X17836206Y-17834031D01*
X17836206Y-17834031D02*
X17826682Y-17853079D01*
X17826682Y-17853079D02*
X17826682Y-17900698D01*
X17826682Y-17900698D02*
X17836206Y-17919746D01*
X17836206Y-17919746D02*
X17845729Y-17929270D01*
X17845729Y-17929270D02*
X17864777Y-17938793D01*
X17864777Y-17938793D02*
X17902872Y-17938793D01*
X17902872Y-17938793D02*
X17921920Y-17929270D01*
X17921920Y-17929270D02*
X17931444Y-17919746D01*
X17931444Y-17919746D02*
X17940968Y-17900698D01*
X18064777Y-17814984D02*
X18083825Y-17814984D01*
X18083825Y-17814984D02*
X18102872Y-17824508D01*
X18102872Y-17824508D02*
X18112396Y-17834031D01*
X18112396Y-17834031D02*
X18121920Y-17853079D01*
X18121920Y-17853079D02*
X18131444Y-17891174D01*
X18131444Y-17891174D02*
X18131444Y-17938793D01*
X18131444Y-17938793D02*
X18121920Y-17976889D01*
X18121920Y-17976889D02*
X18112396Y-17995936D01*
X18112396Y-17995936D02*
X18102872Y-18005460D01*
X18102872Y-18005460D02*
X18083825Y-18014984D01*
X18083825Y-18014984D02*
X18064777Y-18014984D01*
X18064777Y-18014984D02*
X18045729Y-18005460D01*
X18045729Y-18005460D02*
X18036206Y-17995936D01*
X18036206Y-17995936D02*
X18026682Y-17976889D01*
X18026682Y-17976889D02*
X18017158Y-17938793D01*
X18017158Y-17938793D02*
X18017158Y-17891174D01*
X18017158Y-17891174D02*
X18026682Y-17853079D01*
X18026682Y-17853079D02*
X18036206Y-17834031D01*
X18036206Y-17834031D02*
X18045729Y-17824508D01*
X18045729Y-17824508D02*
X18064777Y-17814984D01*
X18207634Y-17814984D02*
X18207634Y-17853079D01*
X18283825Y-17814984D02*
X18283825Y-17853079D01*
X18579063Y-18091174D02*
X18569539Y-18081650D01*
X18569539Y-18081650D02*
X18550491Y-18053079D01*
X18550491Y-18053079D02*
X18540968Y-18034031D01*
X18540968Y-18034031D02*
X18531444Y-18005460D01*
X18531444Y-18005460D02*
X18521920Y-17957841D01*
X18521920Y-17957841D02*
X18521920Y-17919746D01*
X18521920Y-17919746D02*
X18531444Y-17872127D01*
X18531444Y-17872127D02*
X18540968Y-17843555D01*
X18540968Y-17843555D02*
X18550491Y-17824508D01*
X18550491Y-17824508D02*
X18569539Y-17795936D01*
X18569539Y-17795936D02*
X18579063Y-17786412D01*
X18740968Y-17881650D02*
X18740968Y-18014984D01*
X18693349Y-17805460D02*
X18645730Y-17948317D01*
X18645730Y-17948317D02*
X18769539Y-17948317D01*
X18998111Y-18014984D02*
X18998111Y-17814984D01*
X19083825Y-18014984D02*
X19083825Y-17910222D01*
X19083825Y-17910222D02*
X19074301Y-17891174D01*
X19074301Y-17891174D02*
X19055253Y-17881650D01*
X19055253Y-17881650D02*
X19026682Y-17881650D01*
X19026682Y-17881650D02*
X19007634Y-17891174D01*
X19007634Y-17891174D02*
X18998111Y-17900698D01*
X19207634Y-18014984D02*
X19188587Y-18005460D01*
X19188587Y-18005460D02*
X19179063Y-17995936D01*
X19179063Y-17995936D02*
X19169539Y-17976889D01*
X19169539Y-17976889D02*
X19169539Y-17919746D01*
X19169539Y-17919746D02*
X19179063Y-17900698D01*
X19179063Y-17900698D02*
X19188587Y-17891174D01*
X19188587Y-17891174D02*
X19207634Y-17881650D01*
X19207634Y-17881650D02*
X19236206Y-17881650D01*
X19236206Y-17881650D02*
X19255253Y-17891174D01*
X19255253Y-17891174D02*
X19264777Y-17900698D01*
X19264777Y-17900698D02*
X19274301Y-17919746D01*
X19274301Y-17919746D02*
X19274301Y-17976889D01*
X19274301Y-17976889D02*
X19264777Y-17995936D01*
X19264777Y-17995936D02*
X19255253Y-18005460D01*
X19255253Y-18005460D02*
X19236206Y-18014984D01*
X19236206Y-18014984D02*
X19207634Y-18014984D01*
X19388587Y-18014984D02*
X19369539Y-18005460D01*
X19369539Y-18005460D02*
X19360015Y-17986412D01*
X19360015Y-17986412D02*
X19360015Y-17814984D01*
X19540968Y-18005460D02*
X19521920Y-18014984D01*
X19521920Y-18014984D02*
X19483825Y-18014984D01*
X19483825Y-18014984D02*
X19464777Y-18005460D01*
X19464777Y-18005460D02*
X19455253Y-17986412D01*
X19455253Y-17986412D02*
X19455253Y-17910222D01*
X19455253Y-17910222D02*
X19464777Y-17891174D01*
X19464777Y-17891174D02*
X19483825Y-17881650D01*
X19483825Y-17881650D02*
X19521920Y-17881650D01*
X19521920Y-17881650D02*
X19540968Y-17891174D01*
X19540968Y-17891174D02*
X19550492Y-17910222D01*
X19550492Y-17910222D02*
X19550492Y-17929270D01*
X19550492Y-17929270D02*
X19455253Y-17948317D01*
X19626682Y-18005460D02*
X19645730Y-18014984D01*
X19645730Y-18014984D02*
X19683825Y-18014984D01*
X19683825Y-18014984D02*
X19702873Y-18005460D01*
X19702873Y-18005460D02*
X19712396Y-17986412D01*
X19712396Y-17986412D02*
X19712396Y-17976889D01*
X19712396Y-17976889D02*
X19702873Y-17957841D01*
X19702873Y-17957841D02*
X19683825Y-17948317D01*
X19683825Y-17948317D02*
X19655253Y-17948317D01*
X19655253Y-17948317D02*
X19636206Y-17938793D01*
X19636206Y-17938793D02*
X19626682Y-17919746D01*
X19626682Y-17919746D02*
X19626682Y-17910222D01*
X19626682Y-17910222D02*
X19636206Y-17891174D01*
X19636206Y-17891174D02*
X19655253Y-17881650D01*
X19655253Y-17881650D02*
X19683825Y-17881650D01*
X19683825Y-17881650D02*
X19702873Y-17891174D01*
X19779063Y-18091174D02*
X19788587Y-18081650D01*
X19788587Y-18081650D02*
X19807634Y-18053079D01*
X19807634Y-18053079D02*
X19817158Y-18034031D01*
X19817158Y-18034031D02*
X19826682Y-18005460D01*
X19826682Y-18005460D02*
X19836206Y-17957841D01*
X19836206Y-17957841D02*
X19836206Y-17919746D01*
X19836206Y-17919746D02*
X19826682Y-17872127D01*
X19826682Y-17872127D02*
X19817158Y-17843555D01*
X19817158Y-17843555D02*
X19807634Y-17824508D01*
X19807634Y-17824508D02*
X19788587Y-17795936D01*
X19788587Y-17795936D02*
X19779063Y-17786412D01*
D11*
X14954000Y-18237500D02*
X15004000Y-18187500D01*
X14954000Y-18137500D01*
X14904000Y-18187500D01*
X14954000Y-18237500D01*
D10*
X15369539Y-18278984D02*
X15255253Y-18278984D01*
X15312396Y-18278984D02*
X15312396Y-18078984D01*
X15312396Y-18078984D02*
X15293348Y-18107555D01*
X15293348Y-18107555D02*
X15274301Y-18126603D01*
X15274301Y-18126603D02*
X15255253Y-18136127D01*
X15455253Y-18259936D02*
X15464777Y-18269460D01*
X15464777Y-18269460D02*
X15455253Y-18278984D01*
X15455253Y-18278984D02*
X15445729Y-18269460D01*
X15445729Y-18269460D02*
X15455253Y-18259936D01*
X15455253Y-18259936D02*
X15455253Y-18278984D01*
X15588586Y-18078984D02*
X15607634Y-18078984D01*
X15607634Y-18078984D02*
X15626682Y-18088508D01*
X15626682Y-18088508D02*
X15636205Y-18098031D01*
X15636205Y-18098031D02*
X15645729Y-18117079D01*
X15645729Y-18117079D02*
X15655253Y-18155174D01*
X15655253Y-18155174D02*
X15655253Y-18202793D01*
X15655253Y-18202793D02*
X15645729Y-18240889D01*
X15645729Y-18240889D02*
X15636205Y-18259936D01*
X15636205Y-18259936D02*
X15626682Y-18269460D01*
X15626682Y-18269460D02*
X15607634Y-18278984D01*
X15607634Y-18278984D02*
X15588586Y-18278984D01*
X15588586Y-18278984D02*
X15569539Y-18269460D01*
X15569539Y-18269460D02*
X15560015Y-18259936D01*
X15560015Y-18259936D02*
X15550491Y-18240889D01*
X15550491Y-18240889D02*
X15540967Y-18202793D01*
X15540967Y-18202793D02*
X15540967Y-18155174D01*
X15540967Y-18155174D02*
X15550491Y-18117079D01*
X15550491Y-18117079D02*
X15560015Y-18098031D01*
X15560015Y-18098031D02*
X15569539Y-18088508D01*
X15569539Y-18088508D02*
X15588586Y-18078984D01*
X15779062Y-18078984D02*
X15798110Y-18078984D01*
X15798110Y-18078984D02*
X15817158Y-18088508D01*
X15817158Y-18088508D02*
X15826682Y-18098031D01*
X15826682Y-18098031D02*
X15836205Y-18117079D01*
X15836205Y-18117079D02*
X15845729Y-18155174D01*
X15845729Y-18155174D02*
X15845729Y-18202793D01*
X15845729Y-18202793D02*
X15836205Y-18240889D01*
X15836205Y-18240889D02*
X15826682Y-18259936D01*
X15826682Y-18259936D02*
X15817158Y-18269460D01*
X15817158Y-18269460D02*
X15798110Y-18278984D01*
X15798110Y-18278984D02*
X15779062Y-18278984D01*
X15779062Y-18278984D02*
X15760015Y-18269460D01*
X15760015Y-18269460D02*
X15750491Y-18259936D01*
X15750491Y-18259936D02*
X15740967Y-18240889D01*
X15740967Y-18240889D02*
X15731443Y-18202793D01*
X15731443Y-18202793D02*
X15731443Y-18155174D01*
X15731443Y-18155174D02*
X15740967Y-18117079D01*
X15740967Y-18117079D02*
X15750491Y-18098031D01*
X15750491Y-18098031D02*
X15760015Y-18088508D01*
X15760015Y-18088508D02*
X15779062Y-18078984D01*
X15969539Y-18078984D02*
X15988586Y-18078984D01*
X15988586Y-18078984D02*
X16007634Y-18088508D01*
X16007634Y-18088508D02*
X16017158Y-18098031D01*
X16017158Y-18098031D02*
X16026682Y-18117079D01*
X16026682Y-18117079D02*
X16036205Y-18155174D01*
X16036205Y-18155174D02*
X16036205Y-18202793D01*
X16036205Y-18202793D02*
X16026682Y-18240889D01*
X16026682Y-18240889D02*
X16017158Y-18259936D01*
X16017158Y-18259936D02*
X16007634Y-18269460D01*
X16007634Y-18269460D02*
X15988586Y-18278984D01*
X15988586Y-18278984D02*
X15969539Y-18278984D01*
X15969539Y-18278984D02*
X15950491Y-18269460D01*
X15950491Y-18269460D02*
X15940967Y-18259936D01*
X15940967Y-18259936D02*
X15931443Y-18240889D01*
X15931443Y-18240889D02*
X15921920Y-18202793D01*
X15921920Y-18202793D02*
X15921920Y-18155174D01*
X15921920Y-18155174D02*
X15931443Y-18117079D01*
X15931443Y-18117079D02*
X15940967Y-18098031D01*
X15940967Y-18098031D02*
X15950491Y-18088508D01*
X15950491Y-18088508D02*
X15969539Y-18078984D01*
X16121920Y-18278984D02*
X16121920Y-18145650D01*
X16121920Y-18164698D02*
X16131443Y-18155174D01*
X16131443Y-18155174D02*
X16150491Y-18145650D01*
X16150491Y-18145650D02*
X16179063Y-18145650D01*
X16179063Y-18145650D02*
X16198110Y-18155174D01*
X16198110Y-18155174D02*
X16207634Y-18174222D01*
X16207634Y-18174222D02*
X16207634Y-18278984D01*
X16207634Y-18174222D02*
X16217158Y-18155174D01*
X16217158Y-18155174D02*
X16236205Y-18145650D01*
X16236205Y-18145650D02*
X16264777Y-18145650D01*
X16264777Y-18145650D02*
X16283824Y-18155174D01*
X16283824Y-18155174D02*
X16293348Y-18174222D01*
X16293348Y-18174222D02*
X16293348Y-18278984D01*
X16388586Y-18278984D02*
X16388586Y-18145650D01*
X16388586Y-18164698D02*
X16398110Y-18155174D01*
X16398110Y-18155174D02*
X16417158Y-18145650D01*
X16417158Y-18145650D02*
X16445729Y-18145650D01*
X16445729Y-18145650D02*
X16464777Y-18155174D01*
X16464777Y-18155174D02*
X16474301Y-18174222D01*
X16474301Y-18174222D02*
X16474301Y-18278984D01*
X16474301Y-18174222D02*
X16483824Y-18155174D01*
X16483824Y-18155174D02*
X16502872Y-18145650D01*
X16502872Y-18145650D02*
X16531443Y-18145650D01*
X16531443Y-18145650D02*
X16550491Y-18155174D01*
X16550491Y-18155174D02*
X16560015Y-18174222D01*
X16560015Y-18174222D02*
X16560015Y-18278984D01*
X16950491Y-18069460D02*
X16779063Y-18326603D01*
X17207634Y-18078984D02*
X17226682Y-18078984D01*
X17226682Y-18078984D02*
X17245729Y-18088508D01*
X17245729Y-18088508D02*
X17255253Y-18098031D01*
X17255253Y-18098031D02*
X17264777Y-18117079D01*
X17264777Y-18117079D02*
X17274301Y-18155174D01*
X17274301Y-18155174D02*
X17274301Y-18202793D01*
X17274301Y-18202793D02*
X17264777Y-18240889D01*
X17264777Y-18240889D02*
X17255253Y-18259936D01*
X17255253Y-18259936D02*
X17245729Y-18269460D01*
X17245729Y-18269460D02*
X17226682Y-18278984D01*
X17226682Y-18278984D02*
X17207634Y-18278984D01*
X17207634Y-18278984D02*
X17188587Y-18269460D01*
X17188587Y-18269460D02*
X17179063Y-18259936D01*
X17179063Y-18259936D02*
X17169539Y-18240889D01*
X17169539Y-18240889D02*
X17160015Y-18202793D01*
X17160015Y-18202793D02*
X17160015Y-18155174D01*
X17160015Y-18155174D02*
X17169539Y-18117079D01*
X17169539Y-18117079D02*
X17179063Y-18098031D01*
X17179063Y-18098031D02*
X17188587Y-18088508D01*
X17188587Y-18088508D02*
X17207634Y-18078984D01*
X17360015Y-18259936D02*
X17369539Y-18269460D01*
X17369539Y-18269460D02*
X17360015Y-18278984D01*
X17360015Y-18278984D02*
X17350491Y-18269460D01*
X17350491Y-18269460D02*
X17360015Y-18259936D01*
X17360015Y-18259936D02*
X17360015Y-18278984D01*
X17493348Y-18078984D02*
X17512396Y-18078984D01*
X17512396Y-18078984D02*
X17531444Y-18088508D01*
X17531444Y-18088508D02*
X17540968Y-18098031D01*
X17540968Y-18098031D02*
X17550491Y-18117079D01*
X17550491Y-18117079D02*
X17560015Y-18155174D01*
X17560015Y-18155174D02*
X17560015Y-18202793D01*
X17560015Y-18202793D02*
X17550491Y-18240889D01*
X17550491Y-18240889D02*
X17540968Y-18259936D01*
X17540968Y-18259936D02*
X17531444Y-18269460D01*
X17531444Y-18269460D02*
X17512396Y-18278984D01*
X17512396Y-18278984D02*
X17493348Y-18278984D01*
X17493348Y-18278984D02*
X17474301Y-18269460D01*
X17474301Y-18269460D02*
X17464777Y-18259936D01*
X17464777Y-18259936D02*
X17455253Y-18240889D01*
X17455253Y-18240889D02*
X17445729Y-18202793D01*
X17445729Y-18202793D02*
X17445729Y-18155174D01*
X17445729Y-18155174D02*
X17455253Y-18117079D01*
X17455253Y-18117079D02*
X17464777Y-18098031D01*
X17464777Y-18098031D02*
X17474301Y-18088508D01*
X17474301Y-18088508D02*
X17493348Y-18078984D01*
X17626682Y-18078984D02*
X17750491Y-18078984D01*
X17750491Y-18078984D02*
X17683825Y-18155174D01*
X17683825Y-18155174D02*
X17712396Y-18155174D01*
X17712396Y-18155174D02*
X17731444Y-18164698D01*
X17731444Y-18164698D02*
X17740968Y-18174222D01*
X17740968Y-18174222D02*
X17750491Y-18193270D01*
X17750491Y-18193270D02*
X17750491Y-18240889D01*
X17750491Y-18240889D02*
X17740968Y-18259936D01*
X17740968Y-18259936D02*
X17731444Y-18269460D01*
X17731444Y-18269460D02*
X17712396Y-18278984D01*
X17712396Y-18278984D02*
X17655253Y-18278984D01*
X17655253Y-18278984D02*
X17636206Y-18269460D01*
X17636206Y-18269460D02*
X17626682Y-18259936D01*
X17845729Y-18278984D02*
X17883825Y-18278984D01*
X17883825Y-18278984D02*
X17902872Y-18269460D01*
X17902872Y-18269460D02*
X17912396Y-18259936D01*
X17912396Y-18259936D02*
X17931444Y-18231365D01*
X17931444Y-18231365D02*
X17940968Y-18193270D01*
X17940968Y-18193270D02*
X17940968Y-18117079D01*
X17940968Y-18117079D02*
X17931444Y-18098031D01*
X17931444Y-18098031D02*
X17921920Y-18088508D01*
X17921920Y-18088508D02*
X17902872Y-18078984D01*
X17902872Y-18078984D02*
X17864777Y-18078984D01*
X17864777Y-18078984D02*
X17845729Y-18088508D01*
X17845729Y-18088508D02*
X17836206Y-18098031D01*
X17836206Y-18098031D02*
X17826682Y-18117079D01*
X17826682Y-18117079D02*
X17826682Y-18164698D01*
X17826682Y-18164698D02*
X17836206Y-18183746D01*
X17836206Y-18183746D02*
X17845729Y-18193270D01*
X17845729Y-18193270D02*
X17864777Y-18202793D01*
X17864777Y-18202793D02*
X17902872Y-18202793D01*
X17902872Y-18202793D02*
X17921920Y-18193270D01*
X17921920Y-18193270D02*
X17931444Y-18183746D01*
X17931444Y-18183746D02*
X17940968Y-18164698D01*
X18112396Y-18145650D02*
X18112396Y-18278984D01*
X18064777Y-18069460D02*
X18017158Y-18212317D01*
X18017158Y-18212317D02*
X18140968Y-18212317D01*
X18207634Y-18078984D02*
X18207634Y-18117079D01*
X18283825Y-18078984D02*
X18283825Y-18117079D01*
X18579063Y-18355174D02*
X18569539Y-18345650D01*
X18569539Y-18345650D02*
X18550491Y-18317079D01*
X18550491Y-18317079D02*
X18540968Y-18298031D01*
X18540968Y-18298031D02*
X18531444Y-18269460D01*
X18531444Y-18269460D02*
X18521920Y-18221841D01*
X18521920Y-18221841D02*
X18521920Y-18183746D01*
X18521920Y-18183746D02*
X18531444Y-18136127D01*
X18531444Y-18136127D02*
X18540968Y-18107555D01*
X18540968Y-18107555D02*
X18550491Y-18088508D01*
X18550491Y-18088508D02*
X18569539Y-18059936D01*
X18569539Y-18059936D02*
X18579063Y-18050412D01*
X18740968Y-18078984D02*
X18702872Y-18078984D01*
X18702872Y-18078984D02*
X18683825Y-18088508D01*
X18683825Y-18088508D02*
X18674301Y-18098031D01*
X18674301Y-18098031D02*
X18655253Y-18126603D01*
X18655253Y-18126603D02*
X18645730Y-18164698D01*
X18645730Y-18164698D02*
X18645730Y-18240889D01*
X18645730Y-18240889D02*
X18655253Y-18259936D01*
X18655253Y-18259936D02*
X18664777Y-18269460D01*
X18664777Y-18269460D02*
X18683825Y-18278984D01*
X18683825Y-18278984D02*
X18721920Y-18278984D01*
X18721920Y-18278984D02*
X18740968Y-18269460D01*
X18740968Y-18269460D02*
X18750491Y-18259936D01*
X18750491Y-18259936D02*
X18760015Y-18240889D01*
X18760015Y-18240889D02*
X18760015Y-18193270D01*
X18760015Y-18193270D02*
X18750491Y-18174222D01*
X18750491Y-18174222D02*
X18740968Y-18164698D01*
X18740968Y-18164698D02*
X18721920Y-18155174D01*
X18721920Y-18155174D02*
X18683825Y-18155174D01*
X18683825Y-18155174D02*
X18664777Y-18164698D01*
X18664777Y-18164698D02*
X18655253Y-18174222D01*
X18655253Y-18174222D02*
X18645730Y-18193270D01*
X18998111Y-18278984D02*
X18998111Y-18078984D01*
X19083825Y-18278984D02*
X19083825Y-18174222D01*
X19083825Y-18174222D02*
X19074301Y-18155174D01*
X19074301Y-18155174D02*
X19055253Y-18145650D01*
X19055253Y-18145650D02*
X19026682Y-18145650D01*
X19026682Y-18145650D02*
X19007634Y-18155174D01*
X19007634Y-18155174D02*
X18998111Y-18164698D01*
X19207634Y-18278984D02*
X19188587Y-18269460D01*
X19188587Y-18269460D02*
X19179063Y-18259936D01*
X19179063Y-18259936D02*
X19169539Y-18240889D01*
X19169539Y-18240889D02*
X19169539Y-18183746D01*
X19169539Y-18183746D02*
X19179063Y-18164698D01*
X19179063Y-18164698D02*
X19188587Y-18155174D01*
X19188587Y-18155174D02*
X19207634Y-18145650D01*
X19207634Y-18145650D02*
X19236206Y-18145650D01*
X19236206Y-18145650D02*
X19255253Y-18155174D01*
X19255253Y-18155174D02*
X19264777Y-18164698D01*
X19264777Y-18164698D02*
X19274301Y-18183746D01*
X19274301Y-18183746D02*
X19274301Y-18240889D01*
X19274301Y-18240889D02*
X19264777Y-18259936D01*
X19264777Y-18259936D02*
X19255253Y-18269460D01*
X19255253Y-18269460D02*
X19236206Y-18278984D01*
X19236206Y-18278984D02*
X19207634Y-18278984D01*
X19388587Y-18278984D02*
X19369539Y-18269460D01*
X19369539Y-18269460D02*
X19360015Y-18250412D01*
X19360015Y-18250412D02*
X19360015Y-18078984D01*
X19540968Y-18269460D02*
X19521920Y-18278984D01*
X19521920Y-18278984D02*
X19483825Y-18278984D01*
X19483825Y-18278984D02*
X19464777Y-18269460D01*
X19464777Y-18269460D02*
X19455253Y-18250412D01*
X19455253Y-18250412D02*
X19455253Y-18174222D01*
X19455253Y-18174222D02*
X19464777Y-18155174D01*
X19464777Y-18155174D02*
X19483825Y-18145650D01*
X19483825Y-18145650D02*
X19521920Y-18145650D01*
X19521920Y-18145650D02*
X19540968Y-18155174D01*
X19540968Y-18155174D02*
X19550492Y-18174222D01*
X19550492Y-18174222D02*
X19550492Y-18193270D01*
X19550492Y-18193270D02*
X19455253Y-18212317D01*
X19626682Y-18269460D02*
X19645730Y-18278984D01*
X19645730Y-18278984D02*
X19683825Y-18278984D01*
X19683825Y-18278984D02*
X19702873Y-18269460D01*
X19702873Y-18269460D02*
X19712396Y-18250412D01*
X19712396Y-18250412D02*
X19712396Y-18240889D01*
X19712396Y-18240889D02*
X19702873Y-18221841D01*
X19702873Y-18221841D02*
X19683825Y-18212317D01*
X19683825Y-18212317D02*
X19655253Y-18212317D01*
X19655253Y-18212317D02*
X19636206Y-18202793D01*
X19636206Y-18202793D02*
X19626682Y-18183746D01*
X19626682Y-18183746D02*
X19626682Y-18174222D01*
X19626682Y-18174222D02*
X19636206Y-18155174D01*
X19636206Y-18155174D02*
X19655253Y-18145650D01*
X19655253Y-18145650D02*
X19683825Y-18145650D01*
X19683825Y-18145650D02*
X19702873Y-18155174D01*
X19779063Y-18355174D02*
X19788587Y-18345650D01*
X19788587Y-18345650D02*
X19807634Y-18317079D01*
X19807634Y-18317079D02*
X19817158Y-18298031D01*
X19817158Y-18298031D02*
X19826682Y-18269460D01*
X19826682Y-18269460D02*
X19836206Y-18221841D01*
X19836206Y-18221841D02*
X19836206Y-18183746D01*
X19836206Y-18183746D02*
X19826682Y-18136127D01*
X19826682Y-18136127D02*
X19817158Y-18107555D01*
X19817158Y-18107555D02*
X19807634Y-18088508D01*
X19807634Y-18088508D02*
X19788587Y-18059936D01*
X19788587Y-18059936D02*
X19779063Y-18050412D01*
D12*
X14902000Y-18400500D02*
X15004000Y-18502500D01*
X15004000Y-18400500D02*
X14902000Y-18502500D01*
X15004000Y-18451500D02*
G75*
G03*
X14902000Y-18451500I-51000J0D01*
G01*
X14902000Y-18451500D02*
G75*
G03*
X15004000Y-18451500I51000J0D01*
G01*
D10*
X15369539Y-18542984D02*
X15255253Y-18542984D01*
X15312396Y-18542984D02*
X15312396Y-18342984D01*
X15312396Y-18342984D02*
X15293348Y-18371555D01*
X15293348Y-18371555D02*
X15274301Y-18390603D01*
X15274301Y-18390603D02*
X15255253Y-18400127D01*
X15455253Y-18523936D02*
X15464777Y-18533460D01*
X15464777Y-18533460D02*
X15455253Y-18542984D01*
X15455253Y-18542984D02*
X15445729Y-18533460D01*
X15445729Y-18533460D02*
X15455253Y-18523936D01*
X15455253Y-18523936D02*
X15455253Y-18542984D01*
X15588586Y-18342984D02*
X15607634Y-18342984D01*
X15607634Y-18342984D02*
X15626682Y-18352508D01*
X15626682Y-18352508D02*
X15636205Y-18362031D01*
X15636205Y-18362031D02*
X15645729Y-18381079D01*
X15645729Y-18381079D02*
X15655253Y-18419174D01*
X15655253Y-18419174D02*
X15655253Y-18466793D01*
X15655253Y-18466793D02*
X15645729Y-18504889D01*
X15645729Y-18504889D02*
X15636205Y-18523936D01*
X15636205Y-18523936D02*
X15626682Y-18533460D01*
X15626682Y-18533460D02*
X15607634Y-18542984D01*
X15607634Y-18542984D02*
X15588586Y-18542984D01*
X15588586Y-18542984D02*
X15569539Y-18533460D01*
X15569539Y-18533460D02*
X15560015Y-18523936D01*
X15560015Y-18523936D02*
X15550491Y-18504889D01*
X15550491Y-18504889D02*
X15540967Y-18466793D01*
X15540967Y-18466793D02*
X15540967Y-18419174D01*
X15540967Y-18419174D02*
X15550491Y-18381079D01*
X15550491Y-18381079D02*
X15560015Y-18362031D01*
X15560015Y-18362031D02*
X15569539Y-18352508D01*
X15569539Y-18352508D02*
X15588586Y-18342984D01*
X15731443Y-18362031D02*
X15740967Y-18352508D01*
X15740967Y-18352508D02*
X15760015Y-18342984D01*
X15760015Y-18342984D02*
X15807634Y-18342984D01*
X15807634Y-18342984D02*
X15826682Y-18352508D01*
X15826682Y-18352508D02*
X15836205Y-18362031D01*
X15836205Y-18362031D02*
X15845729Y-18381079D01*
X15845729Y-18381079D02*
X15845729Y-18400127D01*
X15845729Y-18400127D02*
X15836205Y-18428698D01*
X15836205Y-18428698D02*
X15721920Y-18542984D01*
X15721920Y-18542984D02*
X15845729Y-18542984D01*
X15969539Y-18342984D02*
X15988586Y-18342984D01*
X15988586Y-18342984D02*
X16007634Y-18352508D01*
X16007634Y-18352508D02*
X16017158Y-18362031D01*
X16017158Y-18362031D02*
X16026682Y-18381079D01*
X16026682Y-18381079D02*
X16036205Y-18419174D01*
X16036205Y-18419174D02*
X16036205Y-18466793D01*
X16036205Y-18466793D02*
X16026682Y-18504889D01*
X16026682Y-18504889D02*
X16017158Y-18523936D01*
X16017158Y-18523936D02*
X16007634Y-18533460D01*
X16007634Y-18533460D02*
X15988586Y-18542984D01*
X15988586Y-18542984D02*
X15969539Y-18542984D01*
X15969539Y-18542984D02*
X15950491Y-18533460D01*
X15950491Y-18533460D02*
X15940967Y-18523936D01*
X15940967Y-18523936D02*
X15931443Y-18504889D01*
X15931443Y-18504889D02*
X15921920Y-18466793D01*
X15921920Y-18466793D02*
X15921920Y-18419174D01*
X15921920Y-18419174D02*
X15931443Y-18381079D01*
X15931443Y-18381079D02*
X15940967Y-18362031D01*
X15940967Y-18362031D02*
X15950491Y-18352508D01*
X15950491Y-18352508D02*
X15969539Y-18342984D01*
X16121920Y-18542984D02*
X16121920Y-18409650D01*
X16121920Y-18428698D02*
X16131443Y-18419174D01*
X16131443Y-18419174D02*
X16150491Y-18409650D01*
X16150491Y-18409650D02*
X16179063Y-18409650D01*
X16179063Y-18409650D02*
X16198110Y-18419174D01*
X16198110Y-18419174D02*
X16207634Y-18438222D01*
X16207634Y-18438222D02*
X16207634Y-18542984D01*
X16207634Y-18438222D02*
X16217158Y-18419174D01*
X16217158Y-18419174D02*
X16236205Y-18409650D01*
X16236205Y-18409650D02*
X16264777Y-18409650D01*
X16264777Y-18409650D02*
X16283824Y-18419174D01*
X16283824Y-18419174D02*
X16293348Y-18438222D01*
X16293348Y-18438222D02*
X16293348Y-18542984D01*
X16388586Y-18542984D02*
X16388586Y-18409650D01*
X16388586Y-18428698D02*
X16398110Y-18419174D01*
X16398110Y-18419174D02*
X16417158Y-18409650D01*
X16417158Y-18409650D02*
X16445729Y-18409650D01*
X16445729Y-18409650D02*
X16464777Y-18419174D01*
X16464777Y-18419174D02*
X16474301Y-18438222D01*
X16474301Y-18438222D02*
X16474301Y-18542984D01*
X16474301Y-18438222D02*
X16483824Y-18419174D01*
X16483824Y-18419174D02*
X16502872Y-18409650D01*
X16502872Y-18409650D02*
X16531443Y-18409650D01*
X16531443Y-18409650D02*
X16550491Y-18419174D01*
X16550491Y-18419174D02*
X16560015Y-18438222D01*
X16560015Y-18438222D02*
X16560015Y-18542984D01*
X16950491Y-18333460D02*
X16779063Y-18590603D01*
X17207634Y-18342984D02*
X17226682Y-18342984D01*
X17226682Y-18342984D02*
X17245729Y-18352508D01*
X17245729Y-18352508D02*
X17255253Y-18362031D01*
X17255253Y-18362031D02*
X17264777Y-18381079D01*
X17264777Y-18381079D02*
X17274301Y-18419174D01*
X17274301Y-18419174D02*
X17274301Y-18466793D01*
X17274301Y-18466793D02*
X17264777Y-18504889D01*
X17264777Y-18504889D02*
X17255253Y-18523936D01*
X17255253Y-18523936D02*
X17245729Y-18533460D01*
X17245729Y-18533460D02*
X17226682Y-18542984D01*
X17226682Y-18542984D02*
X17207634Y-18542984D01*
X17207634Y-18542984D02*
X17188587Y-18533460D01*
X17188587Y-18533460D02*
X17179063Y-18523936D01*
X17179063Y-18523936D02*
X17169539Y-18504889D01*
X17169539Y-18504889D02*
X17160015Y-18466793D01*
X17160015Y-18466793D02*
X17160015Y-18419174D01*
X17160015Y-18419174D02*
X17169539Y-18381079D01*
X17169539Y-18381079D02*
X17179063Y-18362031D01*
X17179063Y-18362031D02*
X17188587Y-18352508D01*
X17188587Y-18352508D02*
X17207634Y-18342984D01*
X17360015Y-18523936D02*
X17369539Y-18533460D01*
X17369539Y-18533460D02*
X17360015Y-18542984D01*
X17360015Y-18542984D02*
X17350491Y-18533460D01*
X17350491Y-18533460D02*
X17360015Y-18523936D01*
X17360015Y-18523936D02*
X17360015Y-18542984D01*
X17493348Y-18342984D02*
X17512396Y-18342984D01*
X17512396Y-18342984D02*
X17531444Y-18352508D01*
X17531444Y-18352508D02*
X17540968Y-18362031D01*
X17540968Y-18362031D02*
X17550491Y-18381079D01*
X17550491Y-18381079D02*
X17560015Y-18419174D01*
X17560015Y-18419174D02*
X17560015Y-18466793D01*
X17560015Y-18466793D02*
X17550491Y-18504889D01*
X17550491Y-18504889D02*
X17540968Y-18523936D01*
X17540968Y-18523936D02*
X17531444Y-18533460D01*
X17531444Y-18533460D02*
X17512396Y-18542984D01*
X17512396Y-18542984D02*
X17493348Y-18542984D01*
X17493348Y-18542984D02*
X17474301Y-18533460D01*
X17474301Y-18533460D02*
X17464777Y-18523936D01*
X17464777Y-18523936D02*
X17455253Y-18504889D01*
X17455253Y-18504889D02*
X17445729Y-18466793D01*
X17445729Y-18466793D02*
X17445729Y-18419174D01*
X17445729Y-18419174D02*
X17455253Y-18381079D01*
X17455253Y-18381079D02*
X17464777Y-18362031D01*
X17464777Y-18362031D02*
X17474301Y-18352508D01*
X17474301Y-18352508D02*
X17493348Y-18342984D01*
X17731444Y-18409650D02*
X17731444Y-18542984D01*
X17683825Y-18333460D02*
X17636206Y-18476317D01*
X17636206Y-18476317D02*
X17760015Y-18476317D01*
X17874301Y-18342984D02*
X17893349Y-18342984D01*
X17893349Y-18342984D02*
X17912396Y-18352508D01*
X17912396Y-18352508D02*
X17921920Y-18362031D01*
X17921920Y-18362031D02*
X17931444Y-18381079D01*
X17931444Y-18381079D02*
X17940968Y-18419174D01*
X17940968Y-18419174D02*
X17940968Y-18466793D01*
X17940968Y-18466793D02*
X17931444Y-18504889D01*
X17931444Y-18504889D02*
X17921920Y-18523936D01*
X17921920Y-18523936D02*
X17912396Y-18533460D01*
X17912396Y-18533460D02*
X17893349Y-18542984D01*
X17893349Y-18542984D02*
X17874301Y-18542984D01*
X17874301Y-18542984D02*
X17855253Y-18533460D01*
X17855253Y-18533460D02*
X17845729Y-18523936D01*
X17845729Y-18523936D02*
X17836206Y-18504889D01*
X17836206Y-18504889D02*
X17826682Y-18466793D01*
X17826682Y-18466793D02*
X17826682Y-18419174D01*
X17826682Y-18419174D02*
X17836206Y-18381079D01*
X17836206Y-18381079D02*
X17845729Y-18362031D01*
X17845729Y-18362031D02*
X17855253Y-18352508D01*
X17855253Y-18352508D02*
X17874301Y-18342984D01*
X18017158Y-18362031D02*
X18026682Y-18352508D01*
X18026682Y-18352508D02*
X18045729Y-18342984D01*
X18045729Y-18342984D02*
X18093349Y-18342984D01*
X18093349Y-18342984D02*
X18112396Y-18352508D01*
X18112396Y-18352508D02*
X18121920Y-18362031D01*
X18121920Y-18362031D02*
X18131444Y-18381079D01*
X18131444Y-18381079D02*
X18131444Y-18400127D01*
X18131444Y-18400127D02*
X18121920Y-18428698D01*
X18121920Y-18428698D02*
X18007634Y-18542984D01*
X18007634Y-18542984D02*
X18131444Y-18542984D01*
X18207634Y-18342984D02*
X18207634Y-18381079D01*
X18283825Y-18342984D02*
X18283825Y-18381079D01*
X18579063Y-18619174D02*
X18569539Y-18609650D01*
X18569539Y-18609650D02*
X18550491Y-18581079D01*
X18550491Y-18581079D02*
X18540968Y-18562031D01*
X18540968Y-18562031D02*
X18531444Y-18533460D01*
X18531444Y-18533460D02*
X18521920Y-18485841D01*
X18521920Y-18485841D02*
X18521920Y-18447746D01*
X18521920Y-18447746D02*
X18531444Y-18400127D01*
X18531444Y-18400127D02*
X18540968Y-18371555D01*
X18540968Y-18371555D02*
X18550491Y-18352508D01*
X18550491Y-18352508D02*
X18569539Y-18323936D01*
X18569539Y-18323936D02*
X18579063Y-18314412D01*
X18645730Y-18362031D02*
X18655253Y-18352508D01*
X18655253Y-18352508D02*
X18674301Y-18342984D01*
X18674301Y-18342984D02*
X18721920Y-18342984D01*
X18721920Y-18342984D02*
X18740968Y-18352508D01*
X18740968Y-18352508D02*
X18750491Y-18362031D01*
X18750491Y-18362031D02*
X18760015Y-18381079D01*
X18760015Y-18381079D02*
X18760015Y-18400127D01*
X18760015Y-18400127D02*
X18750491Y-18428698D01*
X18750491Y-18428698D02*
X18636206Y-18542984D01*
X18636206Y-18542984D02*
X18760015Y-18542984D01*
X18883825Y-18342984D02*
X18902872Y-18342984D01*
X18902872Y-18342984D02*
X18921920Y-18352508D01*
X18921920Y-18352508D02*
X18931444Y-18362031D01*
X18931444Y-18362031D02*
X18940968Y-18381079D01*
X18940968Y-18381079D02*
X18950491Y-18419174D01*
X18950491Y-18419174D02*
X18950491Y-18466793D01*
X18950491Y-18466793D02*
X18940968Y-18504889D01*
X18940968Y-18504889D02*
X18931444Y-18523936D01*
X18931444Y-18523936D02*
X18921920Y-18533460D01*
X18921920Y-18533460D02*
X18902872Y-18542984D01*
X18902872Y-18542984D02*
X18883825Y-18542984D01*
X18883825Y-18542984D02*
X18864777Y-18533460D01*
X18864777Y-18533460D02*
X18855253Y-18523936D01*
X18855253Y-18523936D02*
X18845730Y-18504889D01*
X18845730Y-18504889D02*
X18836206Y-18466793D01*
X18836206Y-18466793D02*
X18836206Y-18419174D01*
X18836206Y-18419174D02*
X18845730Y-18381079D01*
X18845730Y-18381079D02*
X18855253Y-18362031D01*
X18855253Y-18362031D02*
X18864777Y-18352508D01*
X18864777Y-18352508D02*
X18883825Y-18342984D01*
X19188587Y-18542984D02*
X19188587Y-18342984D01*
X19274301Y-18542984D02*
X19274301Y-18438222D01*
X19274301Y-18438222D02*
X19264777Y-18419174D01*
X19264777Y-18419174D02*
X19245730Y-18409650D01*
X19245730Y-18409650D02*
X19217158Y-18409650D01*
X19217158Y-18409650D02*
X19198111Y-18419174D01*
X19198111Y-18419174D02*
X19188587Y-18428698D01*
X19398111Y-18542984D02*
X19379063Y-18533460D01*
X19379063Y-18533460D02*
X19369539Y-18523936D01*
X19369539Y-18523936D02*
X19360015Y-18504889D01*
X19360015Y-18504889D02*
X19360015Y-18447746D01*
X19360015Y-18447746D02*
X19369539Y-18428698D01*
X19369539Y-18428698D02*
X19379063Y-18419174D01*
X19379063Y-18419174D02*
X19398111Y-18409650D01*
X19398111Y-18409650D02*
X19426682Y-18409650D01*
X19426682Y-18409650D02*
X19445730Y-18419174D01*
X19445730Y-18419174D02*
X19455253Y-18428698D01*
X19455253Y-18428698D02*
X19464777Y-18447746D01*
X19464777Y-18447746D02*
X19464777Y-18504889D01*
X19464777Y-18504889D02*
X19455253Y-18523936D01*
X19455253Y-18523936D02*
X19445730Y-18533460D01*
X19445730Y-18533460D02*
X19426682Y-18542984D01*
X19426682Y-18542984D02*
X19398111Y-18542984D01*
X19579063Y-18542984D02*
X19560015Y-18533460D01*
X19560015Y-18533460D02*
X19550492Y-18514412D01*
X19550492Y-18514412D02*
X19550492Y-18342984D01*
X19731444Y-18533460D02*
X19712396Y-18542984D01*
X19712396Y-18542984D02*
X19674301Y-18542984D01*
X19674301Y-18542984D02*
X19655253Y-18533460D01*
X19655253Y-18533460D02*
X19645730Y-18514412D01*
X19645730Y-18514412D02*
X19645730Y-18438222D01*
X19645730Y-18438222D02*
X19655253Y-18419174D01*
X19655253Y-18419174D02*
X19674301Y-18409650D01*
X19674301Y-18409650D02*
X19712396Y-18409650D01*
X19712396Y-18409650D02*
X19731444Y-18419174D01*
X19731444Y-18419174D02*
X19740968Y-18438222D01*
X19740968Y-18438222D02*
X19740968Y-18457270D01*
X19740968Y-18457270D02*
X19645730Y-18476317D01*
X19817158Y-18533460D02*
X19836206Y-18542984D01*
X19836206Y-18542984D02*
X19874301Y-18542984D01*
X19874301Y-18542984D02*
X19893349Y-18533460D01*
X19893349Y-18533460D02*
X19902873Y-18514412D01*
X19902873Y-18514412D02*
X19902873Y-18504889D01*
X19902873Y-18504889D02*
X19893349Y-18485841D01*
X19893349Y-18485841D02*
X19874301Y-18476317D01*
X19874301Y-18476317D02*
X19845730Y-18476317D01*
X19845730Y-18476317D02*
X19826682Y-18466793D01*
X19826682Y-18466793D02*
X19817158Y-18447746D01*
X19817158Y-18447746D02*
X19817158Y-18438222D01*
X19817158Y-18438222D02*
X19826682Y-18419174D01*
X19826682Y-18419174D02*
X19845730Y-18409650D01*
X19845730Y-18409650D02*
X19874301Y-18409650D01*
X19874301Y-18409650D02*
X19893349Y-18419174D01*
X19969539Y-18619174D02*
X19979063Y-18609650D01*
X19979063Y-18609650D02*
X19998111Y-18581079D01*
X19998111Y-18581079D02*
X20007634Y-18562031D01*
X20007634Y-18562031D02*
X20017158Y-18533460D01*
X20017158Y-18533460D02*
X20026682Y-18485841D01*
X20026682Y-18485841D02*
X20026682Y-18447746D01*
X20026682Y-18447746D02*
X20017158Y-18400127D01*
X20017158Y-18400127D02*
X20007634Y-18371555D01*
X20007634Y-18371555D02*
X19998111Y-18352508D01*
X19998111Y-18352508D02*
X19979063Y-18323936D01*
X19979063Y-18323936D02*
X19969539Y-18314412D01*
X14804000Y-18615500D02*
X15004000Y-18815500D01*
X15004000Y-18615500D02*
X14804000Y-18815500D01*
X14904000Y-18615500D02*
X14904000Y-18815500D01*
X14804000Y-18715500D02*
X15004000Y-18715500D01*
X15350491Y-18606984D02*
X15312396Y-18606984D01*
X15312396Y-18606984D02*
X15293348Y-18616508D01*
X15293348Y-18616508D02*
X15283824Y-18626031D01*
X15283824Y-18626031D02*
X15264777Y-18654603D01*
X15264777Y-18654603D02*
X15255253Y-18692698D01*
X15255253Y-18692698D02*
X15255253Y-18768889D01*
X15255253Y-18768889D02*
X15264777Y-18787936D01*
X15264777Y-18787936D02*
X15274301Y-18797460D01*
X15274301Y-18797460D02*
X15293348Y-18806984D01*
X15293348Y-18806984D02*
X15331443Y-18806984D01*
X15331443Y-18806984D02*
X15350491Y-18797460D01*
X15350491Y-18797460D02*
X15360015Y-18787936D01*
X15360015Y-18787936D02*
X15369539Y-18768889D01*
X15369539Y-18768889D02*
X15369539Y-18721270D01*
X15369539Y-18721270D02*
X15360015Y-18702222D01*
X15360015Y-18702222D02*
X15350491Y-18692698D01*
X15350491Y-18692698D02*
X15331443Y-18683174D01*
X15331443Y-18683174D02*
X15293348Y-18683174D01*
X15293348Y-18683174D02*
X15274301Y-18692698D01*
X15274301Y-18692698D02*
X15264777Y-18702222D01*
X15264777Y-18702222D02*
X15255253Y-18721270D01*
X15455253Y-18787936D02*
X15464777Y-18797460D01*
X15464777Y-18797460D02*
X15455253Y-18806984D01*
X15455253Y-18806984D02*
X15445729Y-18797460D01*
X15445729Y-18797460D02*
X15455253Y-18787936D01*
X15455253Y-18787936D02*
X15455253Y-18806984D01*
X15531443Y-18606984D02*
X15664777Y-18606984D01*
X15664777Y-18606984D02*
X15579062Y-18806984D01*
X15836205Y-18606984D02*
X15740967Y-18606984D01*
X15740967Y-18606984D02*
X15731443Y-18702222D01*
X15731443Y-18702222D02*
X15740967Y-18692698D01*
X15740967Y-18692698D02*
X15760015Y-18683174D01*
X15760015Y-18683174D02*
X15807634Y-18683174D01*
X15807634Y-18683174D02*
X15826682Y-18692698D01*
X15826682Y-18692698D02*
X15836205Y-18702222D01*
X15836205Y-18702222D02*
X15845729Y-18721270D01*
X15845729Y-18721270D02*
X15845729Y-18768889D01*
X15845729Y-18768889D02*
X15836205Y-18787936D01*
X15836205Y-18787936D02*
X15826682Y-18797460D01*
X15826682Y-18797460D02*
X15807634Y-18806984D01*
X15807634Y-18806984D02*
X15760015Y-18806984D01*
X15760015Y-18806984D02*
X15740967Y-18797460D01*
X15740967Y-18797460D02*
X15731443Y-18787936D01*
X16017158Y-18606984D02*
X15979062Y-18606984D01*
X15979062Y-18606984D02*
X15960015Y-18616508D01*
X15960015Y-18616508D02*
X15950491Y-18626031D01*
X15950491Y-18626031D02*
X15931443Y-18654603D01*
X15931443Y-18654603D02*
X15921920Y-18692698D01*
X15921920Y-18692698D02*
X15921920Y-18768889D01*
X15921920Y-18768889D02*
X15931443Y-18787936D01*
X15931443Y-18787936D02*
X15940967Y-18797460D01*
X15940967Y-18797460D02*
X15960015Y-18806984D01*
X15960015Y-18806984D02*
X15998110Y-18806984D01*
X15998110Y-18806984D02*
X16017158Y-18797460D01*
X16017158Y-18797460D02*
X16026682Y-18787936D01*
X16026682Y-18787936D02*
X16036205Y-18768889D01*
X16036205Y-18768889D02*
X16036205Y-18721270D01*
X16036205Y-18721270D02*
X16026682Y-18702222D01*
X16026682Y-18702222D02*
X16017158Y-18692698D01*
X16017158Y-18692698D02*
X15998110Y-18683174D01*
X15998110Y-18683174D02*
X15960015Y-18683174D01*
X15960015Y-18683174D02*
X15940967Y-18692698D01*
X15940967Y-18692698D02*
X15931443Y-18702222D01*
X15931443Y-18702222D02*
X15921920Y-18721270D01*
X16121920Y-18806984D02*
X16121920Y-18673650D01*
X16121920Y-18692698D02*
X16131443Y-18683174D01*
X16131443Y-18683174D02*
X16150491Y-18673650D01*
X16150491Y-18673650D02*
X16179063Y-18673650D01*
X16179063Y-18673650D02*
X16198110Y-18683174D01*
X16198110Y-18683174D02*
X16207634Y-18702222D01*
X16207634Y-18702222D02*
X16207634Y-18806984D01*
X16207634Y-18702222D02*
X16217158Y-18683174D01*
X16217158Y-18683174D02*
X16236205Y-18673650D01*
X16236205Y-18673650D02*
X16264777Y-18673650D01*
X16264777Y-18673650D02*
X16283824Y-18683174D01*
X16283824Y-18683174D02*
X16293348Y-18702222D01*
X16293348Y-18702222D02*
X16293348Y-18806984D01*
X16388586Y-18806984D02*
X16388586Y-18673650D01*
X16388586Y-18692698D02*
X16398110Y-18683174D01*
X16398110Y-18683174D02*
X16417158Y-18673650D01*
X16417158Y-18673650D02*
X16445729Y-18673650D01*
X16445729Y-18673650D02*
X16464777Y-18683174D01*
X16464777Y-18683174D02*
X16474301Y-18702222D01*
X16474301Y-18702222D02*
X16474301Y-18806984D01*
X16474301Y-18702222D02*
X16483824Y-18683174D01*
X16483824Y-18683174D02*
X16502872Y-18673650D01*
X16502872Y-18673650D02*
X16531443Y-18673650D01*
X16531443Y-18673650D02*
X16550491Y-18683174D01*
X16550491Y-18683174D02*
X16560015Y-18702222D01*
X16560015Y-18702222D02*
X16560015Y-18806984D01*
X16950491Y-18597460D02*
X16779063Y-18854603D01*
X17207634Y-18606984D02*
X17226682Y-18606984D01*
X17226682Y-18606984D02*
X17245729Y-18616508D01*
X17245729Y-18616508D02*
X17255253Y-18626031D01*
X17255253Y-18626031D02*
X17264777Y-18645079D01*
X17264777Y-18645079D02*
X17274301Y-18683174D01*
X17274301Y-18683174D02*
X17274301Y-18730793D01*
X17274301Y-18730793D02*
X17264777Y-18768889D01*
X17264777Y-18768889D02*
X17255253Y-18787936D01*
X17255253Y-18787936D02*
X17245729Y-18797460D01*
X17245729Y-18797460D02*
X17226682Y-18806984D01*
X17226682Y-18806984D02*
X17207634Y-18806984D01*
X17207634Y-18806984D02*
X17188587Y-18797460D01*
X17188587Y-18797460D02*
X17179063Y-18787936D01*
X17179063Y-18787936D02*
X17169539Y-18768889D01*
X17169539Y-18768889D02*
X17160015Y-18730793D01*
X17160015Y-18730793D02*
X17160015Y-18683174D01*
X17160015Y-18683174D02*
X17169539Y-18645079D01*
X17169539Y-18645079D02*
X17179063Y-18626031D01*
X17179063Y-18626031D02*
X17188587Y-18616508D01*
X17188587Y-18616508D02*
X17207634Y-18606984D01*
X17360015Y-18787936D02*
X17369539Y-18797460D01*
X17369539Y-18797460D02*
X17360015Y-18806984D01*
X17360015Y-18806984D02*
X17350491Y-18797460D01*
X17350491Y-18797460D02*
X17360015Y-18787936D01*
X17360015Y-18787936D02*
X17360015Y-18806984D01*
X17445729Y-18626031D02*
X17455253Y-18616508D01*
X17455253Y-18616508D02*
X17474301Y-18606984D01*
X17474301Y-18606984D02*
X17521920Y-18606984D01*
X17521920Y-18606984D02*
X17540968Y-18616508D01*
X17540968Y-18616508D02*
X17550491Y-18626031D01*
X17550491Y-18626031D02*
X17560015Y-18645079D01*
X17560015Y-18645079D02*
X17560015Y-18664127D01*
X17560015Y-18664127D02*
X17550491Y-18692698D01*
X17550491Y-18692698D02*
X17436206Y-18806984D01*
X17436206Y-18806984D02*
X17560015Y-18806984D01*
X17731444Y-18606984D02*
X17693348Y-18606984D01*
X17693348Y-18606984D02*
X17674301Y-18616508D01*
X17674301Y-18616508D02*
X17664777Y-18626031D01*
X17664777Y-18626031D02*
X17645729Y-18654603D01*
X17645729Y-18654603D02*
X17636206Y-18692698D01*
X17636206Y-18692698D02*
X17636206Y-18768889D01*
X17636206Y-18768889D02*
X17645729Y-18787936D01*
X17645729Y-18787936D02*
X17655253Y-18797460D01*
X17655253Y-18797460D02*
X17674301Y-18806984D01*
X17674301Y-18806984D02*
X17712396Y-18806984D01*
X17712396Y-18806984D02*
X17731444Y-18797460D01*
X17731444Y-18797460D02*
X17740968Y-18787936D01*
X17740968Y-18787936D02*
X17750491Y-18768889D01*
X17750491Y-18768889D02*
X17750491Y-18721270D01*
X17750491Y-18721270D02*
X17740968Y-18702222D01*
X17740968Y-18702222D02*
X17731444Y-18692698D01*
X17731444Y-18692698D02*
X17712396Y-18683174D01*
X17712396Y-18683174D02*
X17674301Y-18683174D01*
X17674301Y-18683174D02*
X17655253Y-18692698D01*
X17655253Y-18692698D02*
X17645729Y-18702222D01*
X17645729Y-18702222D02*
X17636206Y-18721270D01*
X17921920Y-18606984D02*
X17883825Y-18606984D01*
X17883825Y-18606984D02*
X17864777Y-18616508D01*
X17864777Y-18616508D02*
X17855253Y-18626031D01*
X17855253Y-18626031D02*
X17836206Y-18654603D01*
X17836206Y-18654603D02*
X17826682Y-18692698D01*
X17826682Y-18692698D02*
X17826682Y-18768889D01*
X17826682Y-18768889D02*
X17836206Y-18787936D01*
X17836206Y-18787936D02*
X17845729Y-18797460D01*
X17845729Y-18797460D02*
X17864777Y-18806984D01*
X17864777Y-18806984D02*
X17902872Y-18806984D01*
X17902872Y-18806984D02*
X17921920Y-18797460D01*
X17921920Y-18797460D02*
X17931444Y-18787936D01*
X17931444Y-18787936D02*
X17940968Y-18768889D01*
X17940968Y-18768889D02*
X17940968Y-18721270D01*
X17940968Y-18721270D02*
X17931444Y-18702222D01*
X17931444Y-18702222D02*
X17921920Y-18692698D01*
X17921920Y-18692698D02*
X17902872Y-18683174D01*
X17902872Y-18683174D02*
X17864777Y-18683174D01*
X17864777Y-18683174D02*
X17845729Y-18692698D01*
X17845729Y-18692698D02*
X17836206Y-18702222D01*
X17836206Y-18702222D02*
X17826682Y-18721270D01*
X18064777Y-18606984D02*
X18083825Y-18606984D01*
X18083825Y-18606984D02*
X18102872Y-18616508D01*
X18102872Y-18616508D02*
X18112396Y-18626031D01*
X18112396Y-18626031D02*
X18121920Y-18645079D01*
X18121920Y-18645079D02*
X18131444Y-18683174D01*
X18131444Y-18683174D02*
X18131444Y-18730793D01*
X18131444Y-18730793D02*
X18121920Y-18768889D01*
X18121920Y-18768889D02*
X18112396Y-18787936D01*
X18112396Y-18787936D02*
X18102872Y-18797460D01*
X18102872Y-18797460D02*
X18083825Y-18806984D01*
X18083825Y-18806984D02*
X18064777Y-18806984D01*
X18064777Y-18806984D02*
X18045729Y-18797460D01*
X18045729Y-18797460D02*
X18036206Y-18787936D01*
X18036206Y-18787936D02*
X18026682Y-18768889D01*
X18026682Y-18768889D02*
X18017158Y-18730793D01*
X18017158Y-18730793D02*
X18017158Y-18683174D01*
X18017158Y-18683174D02*
X18026682Y-18645079D01*
X18026682Y-18645079D02*
X18036206Y-18626031D01*
X18036206Y-18626031D02*
X18045729Y-18616508D01*
X18045729Y-18616508D02*
X18064777Y-18606984D01*
X18207634Y-18606984D02*
X18207634Y-18645079D01*
X18283825Y-18606984D02*
X18283825Y-18645079D01*
X18579063Y-18883174D02*
X18569539Y-18873650D01*
X18569539Y-18873650D02*
X18550491Y-18845079D01*
X18550491Y-18845079D02*
X18540968Y-18826031D01*
X18540968Y-18826031D02*
X18531444Y-18797460D01*
X18531444Y-18797460D02*
X18521920Y-18749841D01*
X18521920Y-18749841D02*
X18521920Y-18711746D01*
X18521920Y-18711746D02*
X18531444Y-18664127D01*
X18531444Y-18664127D02*
X18540968Y-18635555D01*
X18540968Y-18635555D02*
X18550491Y-18616508D01*
X18550491Y-18616508D02*
X18569539Y-18587936D01*
X18569539Y-18587936D02*
X18579063Y-18578412D01*
X18645730Y-18626031D02*
X18655253Y-18616508D01*
X18655253Y-18616508D02*
X18674301Y-18606984D01*
X18674301Y-18606984D02*
X18721920Y-18606984D01*
X18721920Y-18606984D02*
X18740968Y-18616508D01*
X18740968Y-18616508D02*
X18750491Y-18626031D01*
X18750491Y-18626031D02*
X18760015Y-18645079D01*
X18760015Y-18645079D02*
X18760015Y-18664127D01*
X18760015Y-18664127D02*
X18750491Y-18692698D01*
X18750491Y-18692698D02*
X18636206Y-18806984D01*
X18636206Y-18806984D02*
X18760015Y-18806984D01*
X18998111Y-18806984D02*
X18998111Y-18606984D01*
X19083825Y-18806984D02*
X19083825Y-18702222D01*
X19083825Y-18702222D02*
X19074301Y-18683174D01*
X19074301Y-18683174D02*
X19055253Y-18673650D01*
X19055253Y-18673650D02*
X19026682Y-18673650D01*
X19026682Y-18673650D02*
X19007634Y-18683174D01*
X19007634Y-18683174D02*
X18998111Y-18692698D01*
X19207634Y-18806984D02*
X19188587Y-18797460D01*
X19188587Y-18797460D02*
X19179063Y-18787936D01*
X19179063Y-18787936D02*
X19169539Y-18768889D01*
X19169539Y-18768889D02*
X19169539Y-18711746D01*
X19169539Y-18711746D02*
X19179063Y-18692698D01*
X19179063Y-18692698D02*
X19188587Y-18683174D01*
X19188587Y-18683174D02*
X19207634Y-18673650D01*
X19207634Y-18673650D02*
X19236206Y-18673650D01*
X19236206Y-18673650D02*
X19255253Y-18683174D01*
X19255253Y-18683174D02*
X19264777Y-18692698D01*
X19264777Y-18692698D02*
X19274301Y-18711746D01*
X19274301Y-18711746D02*
X19274301Y-18768889D01*
X19274301Y-18768889D02*
X19264777Y-18787936D01*
X19264777Y-18787936D02*
X19255253Y-18797460D01*
X19255253Y-18797460D02*
X19236206Y-18806984D01*
X19236206Y-18806984D02*
X19207634Y-18806984D01*
X19388587Y-18806984D02*
X19369539Y-18797460D01*
X19369539Y-18797460D02*
X19360015Y-18778412D01*
X19360015Y-18778412D02*
X19360015Y-18606984D01*
X19540968Y-18797460D02*
X19521920Y-18806984D01*
X19521920Y-18806984D02*
X19483825Y-18806984D01*
X19483825Y-18806984D02*
X19464777Y-18797460D01*
X19464777Y-18797460D02*
X19455253Y-18778412D01*
X19455253Y-18778412D02*
X19455253Y-18702222D01*
X19455253Y-18702222D02*
X19464777Y-18683174D01*
X19464777Y-18683174D02*
X19483825Y-18673650D01*
X19483825Y-18673650D02*
X19521920Y-18673650D01*
X19521920Y-18673650D02*
X19540968Y-18683174D01*
X19540968Y-18683174D02*
X19550492Y-18702222D01*
X19550492Y-18702222D02*
X19550492Y-18721270D01*
X19550492Y-18721270D02*
X19455253Y-18740317D01*
X19626682Y-18797460D02*
X19645730Y-18806984D01*
X19645730Y-18806984D02*
X19683825Y-18806984D01*
X19683825Y-18806984D02*
X19702873Y-18797460D01*
X19702873Y-18797460D02*
X19712396Y-18778412D01*
X19712396Y-18778412D02*
X19712396Y-18768889D01*
X19712396Y-18768889D02*
X19702873Y-18749841D01*
X19702873Y-18749841D02*
X19683825Y-18740317D01*
X19683825Y-18740317D02*
X19655253Y-18740317D01*
X19655253Y-18740317D02*
X19636206Y-18730793D01*
X19636206Y-18730793D02*
X19626682Y-18711746D01*
X19626682Y-18711746D02*
X19626682Y-18702222D01*
X19626682Y-18702222D02*
X19636206Y-18683174D01*
X19636206Y-18683174D02*
X19655253Y-18673650D01*
X19655253Y-18673650D02*
X19683825Y-18673650D01*
X19683825Y-18673650D02*
X19702873Y-18683174D01*
X19779063Y-18883174D02*
X19788587Y-18873650D01*
X19788587Y-18873650D02*
X19807634Y-18845079D01*
X19807634Y-18845079D02*
X19817158Y-18826031D01*
X19817158Y-18826031D02*
X19826682Y-18797460D01*
X19826682Y-18797460D02*
X19836206Y-18749841D01*
X19836206Y-18749841D02*
X19836206Y-18711746D01*
X19836206Y-18711746D02*
X19826682Y-18664127D01*
X19826682Y-18664127D02*
X19817158Y-18635555D01*
X19817158Y-18635555D02*
X19807634Y-18616508D01*
X19807634Y-18616508D02*
X19788587Y-18587936D01*
X19788587Y-18587936D02*
X19779063Y-18578412D01*
M02*
