%TF.GenerationSoftware,KiCad,Pcbnew,7.0.11*%
%TF.CreationDate,2024-03-27T12:08:23-04:00*%
%TF.ProjectId,Motherboard,4d6f7468-6572-4626-9f61-72642e6b6963,rev?*%
%TF.SameCoordinates,Original*%
%TF.FileFunction,Drillmap*%
%TF.FilePolarity,Positive*%
%FSLAX45Y45*%
G04 Gerber Fmt 4.5, Leading zero omitted, Abs format (unit mm)*
G04 Created by KiCad (PCBNEW 7.0.11) date 2024-03-27 12:08:23*
%MOMM*%
%LPD*%
G01*
G04 APERTURE LIST*
%ADD10C,0.200000*%
%ADD11C,0.299999*%
G04 APERTURE END LIST*
D10*
X23396000Y-12290500D02*
G75*
G03*
X15014000Y-12290500I-4191000J0D01*
G01*
X15014000Y-12290500D02*
G75*
G03*
X23396000Y-12290500I4191000J0D01*
G01*
D11*
X15838000Y-13292500D02*
X16138000Y-13592500D01*
X16138000Y-13292500D02*
X15838000Y-13592500D01*
X16625020Y-14677480D02*
X16925020Y-14977480D01*
X16925020Y-14677480D02*
X16625020Y-14977480D01*
X17853013Y-15465333D02*
X18153013Y-15765333D01*
X18153013Y-15465333D02*
X17853013Y-15765333D01*
X20241987Y-15472833D02*
X20541987Y-15772833D01*
X20541987Y-15472833D02*
X20241987Y-15772833D01*
X21484980Y-14677480D02*
X21784980Y-14977480D01*
X21784980Y-14677480D02*
X21484980Y-14977480D01*
X22245000Y-10952500D02*
X22545000Y-11252500D01*
X22545000Y-10952500D02*
X22245000Y-11252500D01*
X22265000Y-13312500D02*
X22565000Y-13612500D01*
X22565000Y-13312500D02*
X22265000Y-13612500D01*
D10*
X15264777Y-16802984D02*
X15264777Y-16602984D01*
X15264777Y-16602984D02*
X15312396Y-16602984D01*
X15312396Y-16602984D02*
X15340967Y-16612508D01*
X15340967Y-16612508D02*
X15360015Y-16631555D01*
X15360015Y-16631555D02*
X15369539Y-16650603D01*
X15369539Y-16650603D02*
X15379062Y-16688698D01*
X15379062Y-16688698D02*
X15379062Y-16717269D01*
X15379062Y-16717269D02*
X15369539Y-16755365D01*
X15369539Y-16755365D02*
X15360015Y-16774412D01*
X15360015Y-16774412D02*
X15340967Y-16793460D01*
X15340967Y-16793460D02*
X15312396Y-16802984D01*
X15312396Y-16802984D02*
X15264777Y-16802984D01*
X15464777Y-16802984D02*
X15464777Y-16669650D01*
X15464777Y-16707746D02*
X15474301Y-16688698D01*
X15474301Y-16688698D02*
X15483824Y-16679174D01*
X15483824Y-16679174D02*
X15502872Y-16669650D01*
X15502872Y-16669650D02*
X15521920Y-16669650D01*
X15588586Y-16802984D02*
X15588586Y-16669650D01*
X15588586Y-16602984D02*
X15579062Y-16612508D01*
X15579062Y-16612508D02*
X15588586Y-16622031D01*
X15588586Y-16622031D02*
X15598110Y-16612508D01*
X15598110Y-16612508D02*
X15588586Y-16602984D01*
X15588586Y-16602984D02*
X15588586Y-16622031D01*
X15712396Y-16802984D02*
X15693348Y-16793460D01*
X15693348Y-16793460D02*
X15683824Y-16774412D01*
X15683824Y-16774412D02*
X15683824Y-16602984D01*
X15817158Y-16802984D02*
X15798110Y-16793460D01*
X15798110Y-16793460D02*
X15788586Y-16774412D01*
X15788586Y-16774412D02*
X15788586Y-16602984D01*
X16045729Y-16802984D02*
X16045729Y-16602984D01*
X16045729Y-16602984D02*
X16112396Y-16745841D01*
X16112396Y-16745841D02*
X16179062Y-16602984D01*
X16179062Y-16602984D02*
X16179062Y-16802984D01*
X16360015Y-16802984D02*
X16360015Y-16698222D01*
X16360015Y-16698222D02*
X16350491Y-16679174D01*
X16350491Y-16679174D02*
X16331443Y-16669650D01*
X16331443Y-16669650D02*
X16293348Y-16669650D01*
X16293348Y-16669650D02*
X16274301Y-16679174D01*
X16360015Y-16793460D02*
X16340967Y-16802984D01*
X16340967Y-16802984D02*
X16293348Y-16802984D01*
X16293348Y-16802984D02*
X16274301Y-16793460D01*
X16274301Y-16793460D02*
X16264777Y-16774412D01*
X16264777Y-16774412D02*
X16264777Y-16755365D01*
X16264777Y-16755365D02*
X16274301Y-16736317D01*
X16274301Y-16736317D02*
X16293348Y-16726793D01*
X16293348Y-16726793D02*
X16340967Y-16726793D01*
X16340967Y-16726793D02*
X16360015Y-16717269D01*
X16455253Y-16669650D02*
X16455253Y-16869650D01*
X16455253Y-16679174D02*
X16474301Y-16669650D01*
X16474301Y-16669650D02*
X16512396Y-16669650D01*
X16512396Y-16669650D02*
X16531443Y-16679174D01*
X16531443Y-16679174D02*
X16540967Y-16688698D01*
X16540967Y-16688698D02*
X16550491Y-16707746D01*
X16550491Y-16707746D02*
X16550491Y-16764888D01*
X16550491Y-16764888D02*
X16540967Y-16783936D01*
X16540967Y-16783936D02*
X16531443Y-16793460D01*
X16531443Y-16793460D02*
X16512396Y-16802984D01*
X16512396Y-16802984D02*
X16474301Y-16802984D01*
X16474301Y-16802984D02*
X16455253Y-16793460D01*
X16636205Y-16783936D02*
X16645729Y-16793460D01*
X16645729Y-16793460D02*
X16636205Y-16802984D01*
X16636205Y-16802984D02*
X16626682Y-16793460D01*
X16626682Y-16793460D02*
X16636205Y-16783936D01*
X16636205Y-16783936D02*
X16636205Y-16802984D01*
X16636205Y-16679174D02*
X16645729Y-16688698D01*
X16645729Y-16688698D02*
X16636205Y-16698222D01*
X16636205Y-16698222D02*
X16626682Y-16688698D01*
X16626682Y-16688698D02*
X16636205Y-16679174D01*
X16636205Y-16679174D02*
X16636205Y-16698222D01*
X14804000Y-17031500D02*
X15004000Y-17231500D01*
X15004000Y-17031500D02*
X14804000Y-17231500D01*
X15245729Y-17022984D02*
X15369539Y-17022984D01*
X15369539Y-17022984D02*
X15302872Y-17099174D01*
X15302872Y-17099174D02*
X15331443Y-17099174D01*
X15331443Y-17099174D02*
X15350491Y-17108698D01*
X15350491Y-17108698D02*
X15360015Y-17118222D01*
X15360015Y-17118222D02*
X15369539Y-17137270D01*
X15369539Y-17137270D02*
X15369539Y-17184889D01*
X15369539Y-17184889D02*
X15360015Y-17203936D01*
X15360015Y-17203936D02*
X15350491Y-17213460D01*
X15350491Y-17213460D02*
X15331443Y-17222984D01*
X15331443Y-17222984D02*
X15274301Y-17222984D01*
X15274301Y-17222984D02*
X15255253Y-17213460D01*
X15255253Y-17213460D02*
X15245729Y-17203936D01*
X15455253Y-17203936D02*
X15464777Y-17213460D01*
X15464777Y-17213460D02*
X15455253Y-17222984D01*
X15455253Y-17222984D02*
X15445729Y-17213460D01*
X15445729Y-17213460D02*
X15455253Y-17203936D01*
X15455253Y-17203936D02*
X15455253Y-17222984D01*
X15588586Y-17022984D02*
X15607634Y-17022984D01*
X15607634Y-17022984D02*
X15626682Y-17032508D01*
X15626682Y-17032508D02*
X15636205Y-17042031D01*
X15636205Y-17042031D02*
X15645729Y-17061079D01*
X15645729Y-17061079D02*
X15655253Y-17099174D01*
X15655253Y-17099174D02*
X15655253Y-17146793D01*
X15655253Y-17146793D02*
X15645729Y-17184889D01*
X15645729Y-17184889D02*
X15636205Y-17203936D01*
X15636205Y-17203936D02*
X15626682Y-17213460D01*
X15626682Y-17213460D02*
X15607634Y-17222984D01*
X15607634Y-17222984D02*
X15588586Y-17222984D01*
X15588586Y-17222984D02*
X15569539Y-17213460D01*
X15569539Y-17213460D02*
X15560015Y-17203936D01*
X15560015Y-17203936D02*
X15550491Y-17184889D01*
X15550491Y-17184889D02*
X15540967Y-17146793D01*
X15540967Y-17146793D02*
X15540967Y-17099174D01*
X15540967Y-17099174D02*
X15550491Y-17061079D01*
X15550491Y-17061079D02*
X15560015Y-17042031D01*
X15560015Y-17042031D02*
X15569539Y-17032508D01*
X15569539Y-17032508D02*
X15588586Y-17022984D01*
X15779062Y-17022984D02*
X15798110Y-17022984D01*
X15798110Y-17022984D02*
X15817158Y-17032508D01*
X15817158Y-17032508D02*
X15826682Y-17042031D01*
X15826682Y-17042031D02*
X15836205Y-17061079D01*
X15836205Y-17061079D02*
X15845729Y-17099174D01*
X15845729Y-17099174D02*
X15845729Y-17146793D01*
X15845729Y-17146793D02*
X15836205Y-17184889D01*
X15836205Y-17184889D02*
X15826682Y-17203936D01*
X15826682Y-17203936D02*
X15817158Y-17213460D01*
X15817158Y-17213460D02*
X15798110Y-17222984D01*
X15798110Y-17222984D02*
X15779062Y-17222984D01*
X15779062Y-17222984D02*
X15760015Y-17213460D01*
X15760015Y-17213460D02*
X15750491Y-17203936D01*
X15750491Y-17203936D02*
X15740967Y-17184889D01*
X15740967Y-17184889D02*
X15731443Y-17146793D01*
X15731443Y-17146793D02*
X15731443Y-17099174D01*
X15731443Y-17099174D02*
X15740967Y-17061079D01*
X15740967Y-17061079D02*
X15750491Y-17042031D01*
X15750491Y-17042031D02*
X15760015Y-17032508D01*
X15760015Y-17032508D02*
X15779062Y-17022984D01*
X15969539Y-17022984D02*
X15988586Y-17022984D01*
X15988586Y-17022984D02*
X16007634Y-17032508D01*
X16007634Y-17032508D02*
X16017158Y-17042031D01*
X16017158Y-17042031D02*
X16026682Y-17061079D01*
X16026682Y-17061079D02*
X16036205Y-17099174D01*
X16036205Y-17099174D02*
X16036205Y-17146793D01*
X16036205Y-17146793D02*
X16026682Y-17184889D01*
X16026682Y-17184889D02*
X16017158Y-17203936D01*
X16017158Y-17203936D02*
X16007634Y-17213460D01*
X16007634Y-17213460D02*
X15988586Y-17222984D01*
X15988586Y-17222984D02*
X15969539Y-17222984D01*
X15969539Y-17222984D02*
X15950491Y-17213460D01*
X15950491Y-17213460D02*
X15940967Y-17203936D01*
X15940967Y-17203936D02*
X15931443Y-17184889D01*
X15931443Y-17184889D02*
X15921920Y-17146793D01*
X15921920Y-17146793D02*
X15921920Y-17099174D01*
X15921920Y-17099174D02*
X15931443Y-17061079D01*
X15931443Y-17061079D02*
X15940967Y-17042031D01*
X15940967Y-17042031D02*
X15950491Y-17032508D01*
X15950491Y-17032508D02*
X15969539Y-17022984D01*
X16121920Y-17222984D02*
X16121920Y-17089650D01*
X16121920Y-17108698D02*
X16131443Y-17099174D01*
X16131443Y-17099174D02*
X16150491Y-17089650D01*
X16150491Y-17089650D02*
X16179063Y-17089650D01*
X16179063Y-17089650D02*
X16198110Y-17099174D01*
X16198110Y-17099174D02*
X16207634Y-17118222D01*
X16207634Y-17118222D02*
X16207634Y-17222984D01*
X16207634Y-17118222D02*
X16217158Y-17099174D01*
X16217158Y-17099174D02*
X16236205Y-17089650D01*
X16236205Y-17089650D02*
X16264777Y-17089650D01*
X16264777Y-17089650D02*
X16283824Y-17099174D01*
X16283824Y-17099174D02*
X16293348Y-17118222D01*
X16293348Y-17118222D02*
X16293348Y-17222984D01*
X16388586Y-17222984D02*
X16388586Y-17089650D01*
X16388586Y-17108698D02*
X16398110Y-17099174D01*
X16398110Y-17099174D02*
X16417158Y-17089650D01*
X16417158Y-17089650D02*
X16445729Y-17089650D01*
X16445729Y-17089650D02*
X16464777Y-17099174D01*
X16464777Y-17099174D02*
X16474301Y-17118222D01*
X16474301Y-17118222D02*
X16474301Y-17222984D01*
X16474301Y-17118222D02*
X16483824Y-17099174D01*
X16483824Y-17099174D02*
X16502872Y-17089650D01*
X16502872Y-17089650D02*
X16531443Y-17089650D01*
X16531443Y-17089650D02*
X16550491Y-17099174D01*
X16550491Y-17099174D02*
X16560015Y-17118222D01*
X16560015Y-17118222D02*
X16560015Y-17222984D01*
X16950491Y-17013460D02*
X16779063Y-17270603D01*
X17207634Y-17022984D02*
X17226682Y-17022984D01*
X17226682Y-17022984D02*
X17245729Y-17032508D01*
X17245729Y-17032508D02*
X17255253Y-17042031D01*
X17255253Y-17042031D02*
X17264777Y-17061079D01*
X17264777Y-17061079D02*
X17274301Y-17099174D01*
X17274301Y-17099174D02*
X17274301Y-17146793D01*
X17274301Y-17146793D02*
X17264777Y-17184889D01*
X17264777Y-17184889D02*
X17255253Y-17203936D01*
X17255253Y-17203936D02*
X17245729Y-17213460D01*
X17245729Y-17213460D02*
X17226682Y-17222984D01*
X17226682Y-17222984D02*
X17207634Y-17222984D01*
X17207634Y-17222984D02*
X17188587Y-17213460D01*
X17188587Y-17213460D02*
X17179063Y-17203936D01*
X17179063Y-17203936D02*
X17169539Y-17184889D01*
X17169539Y-17184889D02*
X17160015Y-17146793D01*
X17160015Y-17146793D02*
X17160015Y-17099174D01*
X17160015Y-17099174D02*
X17169539Y-17061079D01*
X17169539Y-17061079D02*
X17179063Y-17042031D01*
X17179063Y-17042031D02*
X17188587Y-17032508D01*
X17188587Y-17032508D02*
X17207634Y-17022984D01*
X17360015Y-17203936D02*
X17369539Y-17213460D01*
X17369539Y-17213460D02*
X17360015Y-17222984D01*
X17360015Y-17222984D02*
X17350491Y-17213460D01*
X17350491Y-17213460D02*
X17360015Y-17203936D01*
X17360015Y-17203936D02*
X17360015Y-17222984D01*
X17560015Y-17222984D02*
X17445729Y-17222984D01*
X17502872Y-17222984D02*
X17502872Y-17022984D01*
X17502872Y-17022984D02*
X17483825Y-17051555D01*
X17483825Y-17051555D02*
X17464777Y-17070603D01*
X17464777Y-17070603D02*
X17445729Y-17080127D01*
X17750491Y-17222984D02*
X17636206Y-17222984D01*
X17693348Y-17222984D02*
X17693348Y-17022984D01*
X17693348Y-17022984D02*
X17674301Y-17051555D01*
X17674301Y-17051555D02*
X17655253Y-17070603D01*
X17655253Y-17070603D02*
X17636206Y-17080127D01*
X17864777Y-17108698D02*
X17845729Y-17099174D01*
X17845729Y-17099174D02*
X17836206Y-17089650D01*
X17836206Y-17089650D02*
X17826682Y-17070603D01*
X17826682Y-17070603D02*
X17826682Y-17061079D01*
X17826682Y-17061079D02*
X17836206Y-17042031D01*
X17836206Y-17042031D02*
X17845729Y-17032508D01*
X17845729Y-17032508D02*
X17864777Y-17022984D01*
X17864777Y-17022984D02*
X17902872Y-17022984D01*
X17902872Y-17022984D02*
X17921920Y-17032508D01*
X17921920Y-17032508D02*
X17931444Y-17042031D01*
X17931444Y-17042031D02*
X17940968Y-17061079D01*
X17940968Y-17061079D02*
X17940968Y-17070603D01*
X17940968Y-17070603D02*
X17931444Y-17089650D01*
X17931444Y-17089650D02*
X17921920Y-17099174D01*
X17921920Y-17099174D02*
X17902872Y-17108698D01*
X17902872Y-17108698D02*
X17864777Y-17108698D01*
X17864777Y-17108698D02*
X17845729Y-17118222D01*
X17845729Y-17118222D02*
X17836206Y-17127746D01*
X17836206Y-17127746D02*
X17826682Y-17146793D01*
X17826682Y-17146793D02*
X17826682Y-17184889D01*
X17826682Y-17184889D02*
X17836206Y-17203936D01*
X17836206Y-17203936D02*
X17845729Y-17213460D01*
X17845729Y-17213460D02*
X17864777Y-17222984D01*
X17864777Y-17222984D02*
X17902872Y-17222984D01*
X17902872Y-17222984D02*
X17921920Y-17213460D01*
X17921920Y-17213460D02*
X17931444Y-17203936D01*
X17931444Y-17203936D02*
X17940968Y-17184889D01*
X17940968Y-17184889D02*
X17940968Y-17146793D01*
X17940968Y-17146793D02*
X17931444Y-17127746D01*
X17931444Y-17127746D02*
X17921920Y-17118222D01*
X17921920Y-17118222D02*
X17902872Y-17108698D01*
X18131444Y-17222984D02*
X18017158Y-17222984D01*
X18074301Y-17222984D02*
X18074301Y-17022984D01*
X18074301Y-17022984D02*
X18055253Y-17051555D01*
X18055253Y-17051555D02*
X18036206Y-17070603D01*
X18036206Y-17070603D02*
X18017158Y-17080127D01*
X18207634Y-17022984D02*
X18207634Y-17061079D01*
X18283825Y-17022984D02*
X18283825Y-17061079D01*
X18579063Y-17299174D02*
X18569539Y-17289650D01*
X18569539Y-17289650D02*
X18550491Y-17261079D01*
X18550491Y-17261079D02*
X18540968Y-17242031D01*
X18540968Y-17242031D02*
X18531444Y-17213460D01*
X18531444Y-17213460D02*
X18521920Y-17165841D01*
X18521920Y-17165841D02*
X18521920Y-17127746D01*
X18521920Y-17127746D02*
X18531444Y-17080127D01*
X18531444Y-17080127D02*
X18540968Y-17051555D01*
X18540968Y-17051555D02*
X18550491Y-17032508D01*
X18550491Y-17032508D02*
X18569539Y-17003936D01*
X18569539Y-17003936D02*
X18579063Y-16994412D01*
X18636206Y-17022984D02*
X18769539Y-17022984D01*
X18769539Y-17022984D02*
X18683825Y-17222984D01*
X18998111Y-17222984D02*
X18998111Y-17022984D01*
X19083825Y-17222984D02*
X19083825Y-17118222D01*
X19083825Y-17118222D02*
X19074301Y-17099174D01*
X19074301Y-17099174D02*
X19055253Y-17089650D01*
X19055253Y-17089650D02*
X19026682Y-17089650D01*
X19026682Y-17089650D02*
X19007634Y-17099174D01*
X19007634Y-17099174D02*
X18998111Y-17108698D01*
X19207634Y-17222984D02*
X19188587Y-17213460D01*
X19188587Y-17213460D02*
X19179063Y-17203936D01*
X19179063Y-17203936D02*
X19169539Y-17184889D01*
X19169539Y-17184889D02*
X19169539Y-17127746D01*
X19169539Y-17127746D02*
X19179063Y-17108698D01*
X19179063Y-17108698D02*
X19188587Y-17099174D01*
X19188587Y-17099174D02*
X19207634Y-17089650D01*
X19207634Y-17089650D02*
X19236206Y-17089650D01*
X19236206Y-17089650D02*
X19255253Y-17099174D01*
X19255253Y-17099174D02*
X19264777Y-17108698D01*
X19264777Y-17108698D02*
X19274301Y-17127746D01*
X19274301Y-17127746D02*
X19274301Y-17184889D01*
X19274301Y-17184889D02*
X19264777Y-17203936D01*
X19264777Y-17203936D02*
X19255253Y-17213460D01*
X19255253Y-17213460D02*
X19236206Y-17222984D01*
X19236206Y-17222984D02*
X19207634Y-17222984D01*
X19388587Y-17222984D02*
X19369539Y-17213460D01*
X19369539Y-17213460D02*
X19360015Y-17194412D01*
X19360015Y-17194412D02*
X19360015Y-17022984D01*
X19540968Y-17213460D02*
X19521920Y-17222984D01*
X19521920Y-17222984D02*
X19483825Y-17222984D01*
X19483825Y-17222984D02*
X19464777Y-17213460D01*
X19464777Y-17213460D02*
X19455253Y-17194412D01*
X19455253Y-17194412D02*
X19455253Y-17118222D01*
X19455253Y-17118222D02*
X19464777Y-17099174D01*
X19464777Y-17099174D02*
X19483825Y-17089650D01*
X19483825Y-17089650D02*
X19521920Y-17089650D01*
X19521920Y-17089650D02*
X19540968Y-17099174D01*
X19540968Y-17099174D02*
X19550492Y-17118222D01*
X19550492Y-17118222D02*
X19550492Y-17137270D01*
X19550492Y-17137270D02*
X19455253Y-17156317D01*
X19626682Y-17213460D02*
X19645730Y-17222984D01*
X19645730Y-17222984D02*
X19683825Y-17222984D01*
X19683825Y-17222984D02*
X19702873Y-17213460D01*
X19702873Y-17213460D02*
X19712396Y-17194412D01*
X19712396Y-17194412D02*
X19712396Y-17184889D01*
X19712396Y-17184889D02*
X19702873Y-17165841D01*
X19702873Y-17165841D02*
X19683825Y-17156317D01*
X19683825Y-17156317D02*
X19655253Y-17156317D01*
X19655253Y-17156317D02*
X19636206Y-17146793D01*
X19636206Y-17146793D02*
X19626682Y-17127746D01*
X19626682Y-17127746D02*
X19626682Y-17118222D01*
X19626682Y-17118222D02*
X19636206Y-17099174D01*
X19636206Y-17099174D02*
X19655253Y-17089650D01*
X19655253Y-17089650D02*
X19683825Y-17089650D01*
X19683825Y-17089650D02*
X19702873Y-17099174D01*
X19779063Y-17299174D02*
X19788587Y-17289650D01*
X19788587Y-17289650D02*
X19807634Y-17261079D01*
X19807634Y-17261079D02*
X19817158Y-17242031D01*
X19817158Y-17242031D02*
X19826682Y-17213460D01*
X19826682Y-17213460D02*
X19836206Y-17165841D01*
X19836206Y-17165841D02*
X19836206Y-17127746D01*
X19836206Y-17127746D02*
X19826682Y-17080127D01*
X19826682Y-17080127D02*
X19817158Y-17051555D01*
X19817158Y-17051555D02*
X19807634Y-17032508D01*
X19807634Y-17032508D02*
X19788587Y-17003936D01*
X19788587Y-17003936D02*
X19779063Y-16994412D01*
X20140968Y-17299174D02*
X20131444Y-17289650D01*
X20131444Y-17289650D02*
X20112396Y-17261079D01*
X20112396Y-17261079D02*
X20102873Y-17242031D01*
X20102873Y-17242031D02*
X20093349Y-17213460D01*
X20093349Y-17213460D02*
X20083825Y-17165841D01*
X20083825Y-17165841D02*
X20083825Y-17127746D01*
X20083825Y-17127746D02*
X20093349Y-17080127D01*
X20093349Y-17080127D02*
X20102873Y-17051555D01*
X20102873Y-17051555D02*
X20112396Y-17032508D01*
X20112396Y-17032508D02*
X20131444Y-17003936D01*
X20131444Y-17003936D02*
X20140968Y-16994412D01*
X20217158Y-17089650D02*
X20217158Y-17222984D01*
X20217158Y-17108698D02*
X20226682Y-17099174D01*
X20226682Y-17099174D02*
X20245730Y-17089650D01*
X20245730Y-17089650D02*
X20274301Y-17089650D01*
X20274301Y-17089650D02*
X20293349Y-17099174D01*
X20293349Y-17099174D02*
X20302873Y-17118222D01*
X20302873Y-17118222D02*
X20302873Y-17222984D01*
X20426682Y-17222984D02*
X20407634Y-17213460D01*
X20407634Y-17213460D02*
X20398111Y-17203936D01*
X20398111Y-17203936D02*
X20388587Y-17184889D01*
X20388587Y-17184889D02*
X20388587Y-17127746D01*
X20388587Y-17127746D02*
X20398111Y-17108698D01*
X20398111Y-17108698D02*
X20407634Y-17099174D01*
X20407634Y-17099174D02*
X20426682Y-17089650D01*
X20426682Y-17089650D02*
X20455254Y-17089650D01*
X20455254Y-17089650D02*
X20474301Y-17099174D01*
X20474301Y-17099174D02*
X20483825Y-17108698D01*
X20483825Y-17108698D02*
X20493349Y-17127746D01*
X20493349Y-17127746D02*
X20493349Y-17184889D01*
X20493349Y-17184889D02*
X20483825Y-17203936D01*
X20483825Y-17203936D02*
X20474301Y-17213460D01*
X20474301Y-17213460D02*
X20455254Y-17222984D01*
X20455254Y-17222984D02*
X20426682Y-17222984D01*
X20550492Y-17089650D02*
X20626682Y-17089650D01*
X20579063Y-17022984D02*
X20579063Y-17194412D01*
X20579063Y-17194412D02*
X20588587Y-17213460D01*
X20588587Y-17213460D02*
X20607634Y-17222984D01*
X20607634Y-17222984D02*
X20626682Y-17222984D01*
X20845730Y-17089650D02*
X20845730Y-17289650D01*
X20845730Y-17099174D02*
X20864777Y-17089650D01*
X20864777Y-17089650D02*
X20902873Y-17089650D01*
X20902873Y-17089650D02*
X20921920Y-17099174D01*
X20921920Y-17099174D02*
X20931444Y-17108698D01*
X20931444Y-17108698D02*
X20940968Y-17127746D01*
X20940968Y-17127746D02*
X20940968Y-17184889D01*
X20940968Y-17184889D02*
X20931444Y-17203936D01*
X20931444Y-17203936D02*
X20921920Y-17213460D01*
X20921920Y-17213460D02*
X20902873Y-17222984D01*
X20902873Y-17222984D02*
X20864777Y-17222984D01*
X20864777Y-17222984D02*
X20845730Y-17213460D01*
X21055254Y-17222984D02*
X21036206Y-17213460D01*
X21036206Y-17213460D02*
X21026682Y-17194412D01*
X21026682Y-17194412D02*
X21026682Y-17022984D01*
X21217158Y-17222984D02*
X21217158Y-17118222D01*
X21217158Y-17118222D02*
X21207635Y-17099174D01*
X21207635Y-17099174D02*
X21188587Y-17089650D01*
X21188587Y-17089650D02*
X21150492Y-17089650D01*
X21150492Y-17089650D02*
X21131444Y-17099174D01*
X21217158Y-17213460D02*
X21198111Y-17222984D01*
X21198111Y-17222984D02*
X21150492Y-17222984D01*
X21150492Y-17222984D02*
X21131444Y-17213460D01*
X21131444Y-17213460D02*
X21121920Y-17194412D01*
X21121920Y-17194412D02*
X21121920Y-17175365D01*
X21121920Y-17175365D02*
X21131444Y-17156317D01*
X21131444Y-17156317D02*
X21150492Y-17146793D01*
X21150492Y-17146793D02*
X21198111Y-17146793D01*
X21198111Y-17146793D02*
X21217158Y-17137270D01*
X21283825Y-17089650D02*
X21360015Y-17089650D01*
X21312396Y-17022984D02*
X21312396Y-17194412D01*
X21312396Y-17194412D02*
X21321920Y-17213460D01*
X21321920Y-17213460D02*
X21340968Y-17222984D01*
X21340968Y-17222984D02*
X21360015Y-17222984D01*
X21502873Y-17213460D02*
X21483825Y-17222984D01*
X21483825Y-17222984D02*
X21445730Y-17222984D01*
X21445730Y-17222984D02*
X21426682Y-17213460D01*
X21426682Y-17213460D02*
X21417158Y-17194412D01*
X21417158Y-17194412D02*
X21417158Y-17118222D01*
X21417158Y-17118222D02*
X21426682Y-17099174D01*
X21426682Y-17099174D02*
X21445730Y-17089650D01*
X21445730Y-17089650D02*
X21483825Y-17089650D01*
X21483825Y-17089650D02*
X21502873Y-17099174D01*
X21502873Y-17099174D02*
X21512396Y-17118222D01*
X21512396Y-17118222D02*
X21512396Y-17137270D01*
X21512396Y-17137270D02*
X21417158Y-17156317D01*
X21683825Y-17222984D02*
X21683825Y-17022984D01*
X21683825Y-17213460D02*
X21664777Y-17222984D01*
X21664777Y-17222984D02*
X21626682Y-17222984D01*
X21626682Y-17222984D02*
X21607635Y-17213460D01*
X21607635Y-17213460D02*
X21598111Y-17203936D01*
X21598111Y-17203936D02*
X21588587Y-17184889D01*
X21588587Y-17184889D02*
X21588587Y-17127746D01*
X21588587Y-17127746D02*
X21598111Y-17108698D01*
X21598111Y-17108698D02*
X21607635Y-17099174D01*
X21607635Y-17099174D02*
X21626682Y-17089650D01*
X21626682Y-17089650D02*
X21664777Y-17089650D01*
X21664777Y-17089650D02*
X21683825Y-17099174D01*
X21760016Y-17299174D02*
X21769539Y-17289650D01*
X21769539Y-17289650D02*
X21788587Y-17261079D01*
X21788587Y-17261079D02*
X21798111Y-17242031D01*
X21798111Y-17242031D02*
X21807635Y-17213460D01*
X21807635Y-17213460D02*
X21817158Y-17165841D01*
X21817158Y-17165841D02*
X21817158Y-17127746D01*
X21817158Y-17127746D02*
X21807635Y-17080127D01*
X21807635Y-17080127D02*
X21798111Y-17051555D01*
X21798111Y-17051555D02*
X21788587Y-17032508D01*
X21788587Y-17032508D02*
X21769539Y-17003936D01*
X21769539Y-17003936D02*
X21760016Y-16994412D01*
M02*
