%TF.GenerationSoftware,KiCad,Pcbnew,7.0.11*%
%TF.CreationDate,2024-03-27T11:44:57-04:00*%
%TF.ProjectId,Sensor-Board,53656e73-6f72-42d4-926f-6172642e6b69,rev?*%
%TF.SameCoordinates,Original*%
%TF.FileFunction,Drillmap*%
%TF.FilePolarity,Positive*%
%FSLAX45Y45*%
G04 Gerber Fmt 4.5, Leading zero omitted, Abs format (unit mm)*
G04 Created by KiCad (PCBNEW 7.0.11) date 2024-03-27 11:44:57*
%MOMM*%
%LPD*%
G01*
G04 APERTURE LIST*
%ADD10C,0.100000*%
%ADD11C,0.200000*%
%ADD12C,0.146000*%
%ADD13C,0.675640*%
G04 APERTURE END LIST*
D10*
X9995631Y-12709639D02*
G75*
G03*
X10630633Y-13332439I628899J6099D01*
G01*
X17539433Y-6423639D02*
X17539433Y-12709639D01*
X10630633Y-5788643D02*
G75*
G03*
X9995633Y-6423639I-3J-634997D01*
G01*
X9995633Y-6423639D02*
X9995633Y-12709639D01*
X16916633Y-13332443D02*
G75*
G03*
X17539433Y-12709639I-3J622803D01*
G01*
X17539431Y-6423639D02*
G75*
G03*
X16916633Y-5788639I-628901J6099D01*
G01*
X16916633Y-13332439D02*
X10630633Y-13332439D01*
X10630633Y-5788639D02*
X16916633Y-5788639D01*
D11*
D10*
X10052541Y-8060000D02*
X10092541Y-8100000D01*
X10092541Y-8060000D02*
X10052541Y-8100000D01*
X10067000Y-9078500D02*
X10107000Y-9118500D01*
X10107000Y-9078500D02*
X10067000Y-9118500D01*
X10074896Y-10460104D02*
X10114896Y-10500104D01*
X10114896Y-10460104D02*
X10074896Y-10500104D01*
X10080000Y-9945000D02*
X10120000Y-9985000D01*
X10120000Y-9945000D02*
X10080000Y-9985000D01*
X10135369Y-8382137D02*
X10175369Y-8422137D01*
X10175369Y-8382137D02*
X10135369Y-8422137D01*
X10149019Y-8231086D02*
X10189019Y-8271086D01*
X10189019Y-8231086D02*
X10149019Y-8271086D01*
X10181146Y-8586000D02*
X10221146Y-8626000D01*
X10221146Y-8586000D02*
X10181146Y-8626000D01*
X10206449Y-11619337D02*
X10246449Y-11659337D01*
X10246449Y-11619337D02*
X10206449Y-11659337D01*
X10207093Y-11042819D02*
X10247093Y-11082819D01*
X10247093Y-11042819D02*
X10207093Y-11082819D01*
X10267500Y-11264183D02*
X10307500Y-11304183D01*
X10307500Y-11264183D02*
X10267500Y-11304183D01*
X10270000Y-7527500D02*
X10310000Y-7567500D01*
X10310000Y-7527500D02*
X10270000Y-7567500D01*
X10274070Y-7725819D02*
X10314070Y-7765819D01*
X10314070Y-7725819D02*
X10274070Y-7765819D01*
X10287000Y-8313000D02*
X10327000Y-8353000D01*
X10327000Y-8313000D02*
X10287000Y-8353000D01*
X10291672Y-7824278D02*
X10331672Y-7864278D01*
X10331672Y-7824278D02*
X10291672Y-7864278D01*
X10307500Y-10535000D02*
X10347500Y-10575000D01*
X10347500Y-10535000D02*
X10307500Y-10575000D01*
X10369000Y-8891000D02*
X10409000Y-8931000D01*
X10409000Y-8891000D02*
X10369000Y-8931000D01*
X10400000Y-7245000D02*
X10440000Y-7285000D01*
X10440000Y-7245000D02*
X10400000Y-7285000D01*
X10434000Y-11308000D02*
X10474000Y-11348000D01*
X10474000Y-11308000D02*
X10434000Y-11348000D01*
X10462500Y-8550000D02*
X10502500Y-8590000D01*
X10502500Y-8550000D02*
X10462500Y-8590000D01*
X10570000Y-7252500D02*
X10610000Y-7292500D01*
X10610000Y-7252500D02*
X10570000Y-7292500D01*
X10577500Y-8552000D02*
X10617500Y-8592000D01*
X10617500Y-8552000D02*
X10577500Y-8592000D01*
X10602500Y-8298025D02*
X10642500Y-8338025D01*
X10642500Y-8298025D02*
X10602500Y-8338025D01*
X10733000Y-11290000D02*
X10773000Y-11330000D01*
X10773000Y-11290000D02*
X10733000Y-11330000D01*
X10739003Y-8457003D02*
X10779003Y-8497003D01*
X10779003Y-8457003D02*
X10739003Y-8497003D01*
X10847500Y-7652500D02*
X10887500Y-7692500D01*
X10887500Y-7652500D02*
X10847500Y-7692500D01*
X10848000Y-7529000D02*
X10888000Y-7569000D01*
X10888000Y-7529000D02*
X10848000Y-7569000D01*
X11003000Y-10211000D02*
X11043000Y-10251000D01*
X11043000Y-10211000D02*
X11003000Y-10251000D01*
X11065000Y-7894258D02*
X11105000Y-7934258D01*
X11105000Y-7894258D02*
X11065000Y-7934258D01*
X11074000Y-8871000D02*
X11114000Y-8911000D01*
X11114000Y-8871000D02*
X11074000Y-8911000D01*
X11140000Y-11115000D02*
X11180000Y-11155000D01*
X11180000Y-11115000D02*
X11140000Y-11155000D01*
X11186000Y-7886000D02*
X11226000Y-7926000D01*
X11226000Y-7886000D02*
X11186000Y-7926000D01*
X11190000Y-7522500D02*
X11230000Y-7562500D01*
X11230000Y-7522500D02*
X11190000Y-7562500D01*
X11216655Y-10900000D02*
X11256655Y-10940000D01*
X11256655Y-10900000D02*
X11216655Y-10940000D01*
X11305000Y-8172500D02*
X11345000Y-8212500D01*
X11345000Y-8172500D02*
X11305000Y-8212500D01*
X11312500Y-7527500D02*
X11352500Y-7567500D01*
X11352500Y-7527500D02*
X11312500Y-7567500D01*
X11315000Y-10624000D02*
X11355000Y-10664000D01*
X11355000Y-10624000D02*
X11315000Y-10664000D01*
X11315000Y-10882000D02*
X11355000Y-10922000D01*
X11355000Y-10882000D02*
X11315000Y-10922000D01*
X11365000Y-8610000D02*
X11405000Y-8650000D01*
X11405000Y-8610000D02*
X11365000Y-8650000D01*
X11365000Y-11192500D02*
X11405000Y-11232500D01*
X11405000Y-11192500D02*
X11365000Y-11232500D01*
X11414000Y-10994000D02*
X11454000Y-11034000D01*
X11454000Y-10994000D02*
X11414000Y-11034000D01*
X11415000Y-8018000D02*
X11455000Y-8058000D01*
X11455000Y-8018000D02*
X11415000Y-8058000D01*
X11426000Y-8888000D02*
X11466000Y-8928000D01*
X11466000Y-8888000D02*
X11426000Y-8928000D01*
X11426000Y-10200000D02*
X11466000Y-10240000D01*
X11466000Y-10200000D02*
X11426000Y-10240000D01*
X11434252Y-7520747D02*
X11474252Y-7560747D01*
X11474252Y-7520747D02*
X11434252Y-7560747D01*
X11450000Y-6744000D02*
X11490000Y-6784000D01*
X11490000Y-6744000D02*
X11450000Y-6784000D01*
X11595000Y-10325000D02*
X11635000Y-10365000D01*
X11635000Y-10325000D02*
X11595000Y-10365000D01*
X11615000Y-10991000D02*
X11655000Y-11031000D01*
X11655000Y-10991000D02*
X11615000Y-11031000D01*
X11700000Y-9835000D02*
X11740000Y-9875000D01*
X11740000Y-9835000D02*
X11700000Y-9875000D01*
X11702500Y-10147500D02*
X11742500Y-10187500D01*
X11742500Y-10147500D02*
X11702500Y-10187500D01*
X11717000Y-8610000D02*
X11757000Y-8650000D01*
X11757000Y-8610000D02*
X11717000Y-8650000D01*
X11723000Y-10994000D02*
X11763000Y-11034000D01*
X11763000Y-10994000D02*
X11723000Y-11034000D01*
X11737500Y-6541000D02*
X11777500Y-6581000D01*
X11777500Y-6541000D02*
X11737500Y-6581000D01*
X11747500Y-7117500D02*
X11787500Y-7157500D01*
X11787500Y-7117500D02*
X11747500Y-7157500D01*
X11827000Y-8749000D02*
X11867000Y-8789000D01*
X11867000Y-8749000D02*
X11827000Y-8789000D01*
X11837000Y-10997000D02*
X11877000Y-11037000D01*
X11877000Y-10997000D02*
X11837000Y-11037000D01*
X11855000Y-12710000D02*
X11895000Y-12750000D01*
X11895000Y-12710000D02*
X11855000Y-12750000D01*
X11855000Y-13070000D02*
X11895000Y-13110000D01*
X11895000Y-13070000D02*
X11855000Y-13110000D01*
X11856000Y-10286000D02*
X11896000Y-10326000D01*
X11896000Y-10286000D02*
X11856000Y-10326000D01*
X11858000Y-5839000D02*
X11898000Y-5879000D01*
X11898000Y-5839000D02*
X11858000Y-5879000D01*
X11858000Y-6208000D02*
X11898000Y-6248000D01*
X11898000Y-6208000D02*
X11858000Y-6248000D01*
X11939000Y-8592500D02*
X11979000Y-8632500D01*
X11979000Y-8592500D02*
X11939000Y-8632500D01*
X11947000Y-10998000D02*
X11987000Y-11038000D01*
X11987000Y-10998000D02*
X11947000Y-11038000D01*
X12029507Y-11818716D02*
X12069507Y-11858716D01*
X12069507Y-11818716D02*
X12029507Y-11858716D01*
X12059000Y-10997000D02*
X12099000Y-11037000D01*
X12099000Y-10997000D02*
X12059000Y-11037000D01*
X12173000Y-10997000D02*
X12213000Y-11037000D01*
X12213000Y-10997000D02*
X12173000Y-11037000D01*
X12178000Y-11847000D02*
X12218000Y-11887000D01*
X12218000Y-11847000D02*
X12178000Y-11887000D01*
X12197000Y-7223000D02*
X12237000Y-7263000D01*
X12237000Y-7223000D02*
X12197000Y-7263000D01*
X12253031Y-11336005D02*
X12293031Y-11376005D01*
X12293031Y-11336005D02*
X12253031Y-11376005D01*
X12254684Y-11449008D02*
X12294684Y-11489008D01*
X12294684Y-11449008D02*
X12254684Y-11489008D01*
X12254891Y-11562030D02*
X12294891Y-11602030D01*
X12294891Y-11562030D02*
X12254891Y-11602030D01*
X12255620Y-11662028D02*
X12295620Y-11702028D01*
X12295620Y-11662028D02*
X12255620Y-11702028D01*
X12256000Y-11232000D02*
X12296000Y-11272000D01*
X12296000Y-11232000D02*
X12256000Y-11272000D01*
X12257105Y-11762000D02*
X12297105Y-11802000D01*
X12297105Y-11762000D02*
X12257105Y-11802000D01*
X12262500Y-8770000D02*
X12302500Y-8810000D01*
X12302500Y-8770000D02*
X12262500Y-8810000D01*
X12272500Y-12025000D02*
X12312500Y-12065000D01*
X12312500Y-12025000D02*
X12272500Y-12065000D01*
X12293000Y-6744000D02*
X12333000Y-6784000D01*
X12333000Y-6744000D02*
X12293000Y-6784000D01*
X12322000Y-7353000D02*
X12362000Y-7393000D01*
X12362000Y-7353000D02*
X12322000Y-7393000D01*
X12382500Y-7130000D02*
X12422500Y-7170000D01*
X12422500Y-7130000D02*
X12382500Y-7170000D01*
X12421865Y-7358201D02*
X12461865Y-7398201D01*
X12461865Y-7358201D02*
X12421865Y-7398201D01*
X12500000Y-7130000D02*
X12540000Y-7170000D01*
X12540000Y-7130000D02*
X12500000Y-7170000D01*
X12533360Y-13020000D02*
X12573360Y-13060000D01*
X12573360Y-13020000D02*
X12533360Y-13060000D01*
X12564000Y-11380000D02*
X12604000Y-11420000D01*
X12604000Y-11380000D02*
X12564000Y-11420000D01*
X12780090Y-5994403D02*
X12820090Y-6034403D01*
X12820090Y-5994403D02*
X12780090Y-6034403D01*
X12805000Y-11471000D02*
X12845000Y-11511000D01*
X12845000Y-11471000D02*
X12805000Y-11511000D01*
X12847000Y-13232000D02*
X12887000Y-13272000D01*
X12887000Y-13232000D02*
X12847000Y-13272000D01*
X12849000Y-12787000D02*
X12889000Y-12827000D01*
X12889000Y-12787000D02*
X12849000Y-12827000D01*
X12856000Y-6059500D02*
X12896000Y-6099500D01*
X12896000Y-6059500D02*
X12856000Y-6099500D01*
X12889082Y-6336500D02*
X12929082Y-6376500D01*
X12929082Y-6336500D02*
X12889082Y-6376500D01*
X12892482Y-7360018D02*
X12932482Y-7400018D01*
X12932482Y-7360018D02*
X12892482Y-7400018D01*
X12904858Y-11476326D02*
X12944858Y-11516326D01*
X12944858Y-11476326D02*
X12904858Y-11516326D01*
X12935174Y-12837735D02*
X12975174Y-12877735D01*
X12975174Y-12837735D02*
X12935174Y-12877735D01*
X12958500Y-6479000D02*
X12998500Y-6519000D01*
X12998500Y-6479000D02*
X12958500Y-6519000D01*
X12970000Y-13192500D02*
X13010000Y-13232500D01*
X13010000Y-13192500D02*
X12970000Y-13232500D01*
X13004840Y-11478247D02*
X13044840Y-11518247D01*
X13044840Y-11478247D02*
X13004840Y-11518247D01*
X13012500Y-7360002D02*
X13052500Y-7400002D01*
X13052500Y-7360002D02*
X13012500Y-7400002D01*
X13016292Y-6368966D02*
X13056292Y-6408966D01*
X13056292Y-6368966D02*
X13016292Y-6408966D01*
X13016697Y-12779821D02*
X13056697Y-12819821D01*
X13056697Y-12779821D02*
X13016697Y-12819821D01*
X13037000Y-12008000D02*
X13077000Y-12048000D01*
X13077000Y-12008000D02*
X13037000Y-12048000D01*
X13104840Y-11477914D02*
X13144840Y-11517914D01*
X13144840Y-11477914D02*
X13104840Y-11517914D01*
X13136994Y-12008000D02*
X13176994Y-12048000D01*
X13176994Y-12008000D02*
X13136994Y-12048000D01*
X13219000Y-11484000D02*
X13259000Y-11524000D01*
X13259000Y-11484000D02*
X13219000Y-11524000D01*
X13245162Y-12012000D02*
X13285162Y-12052000D01*
X13285162Y-12012000D02*
X13245162Y-12052000D01*
X13272500Y-13210000D02*
X13312500Y-13250000D01*
X13312500Y-13210000D02*
X13272500Y-13250000D01*
X13377000Y-11848000D02*
X13417000Y-11888000D01*
X13417000Y-11848000D02*
X13377000Y-11888000D01*
X13377871Y-11648012D02*
X13417871Y-11688012D01*
X13417871Y-11648012D02*
X13377871Y-11688012D01*
X13378484Y-11748011D02*
X13418484Y-11788011D01*
X13418484Y-11748011D02*
X13378484Y-11788011D01*
X13380293Y-11548019D02*
X13420293Y-11588019D01*
X13420293Y-11548019D02*
X13380293Y-11588019D01*
X13420000Y-7060000D02*
X13460000Y-7100000D01*
X13460000Y-7060000D02*
X13420000Y-7100000D01*
X13422500Y-7182500D02*
X13462500Y-7222500D01*
X13462500Y-7182500D02*
X13422500Y-7222500D01*
X13422500Y-7307500D02*
X13462500Y-7347500D01*
X13462500Y-7307500D02*
X13422500Y-7347500D01*
X13452659Y-12078609D02*
X13492659Y-12118609D01*
X13492659Y-12078609D02*
X13452659Y-12118609D01*
X13616000Y-11863000D02*
X13656000Y-11903000D01*
X13656000Y-11863000D02*
X13616000Y-11903000D01*
X13630240Y-13131535D02*
X13670240Y-13171535D01*
X13670240Y-13131535D02*
X13630240Y-13171535D01*
X13779044Y-5949391D02*
X13819044Y-5989391D01*
X13819044Y-5949391D02*
X13779044Y-5989391D01*
X13784215Y-12266480D02*
X13824215Y-12306480D01*
X13824215Y-12266480D02*
X13784215Y-12306480D01*
X13794584Y-12415095D02*
X13834584Y-12455095D01*
X13834584Y-12415095D02*
X13794584Y-12455095D01*
X13808997Y-12069000D02*
X13848997Y-12109000D01*
X13848997Y-12069000D02*
X13808997Y-12109000D01*
X13809000Y-11969000D02*
X13849000Y-12009000D01*
X13849000Y-11969000D02*
X13809000Y-12009000D01*
X13951193Y-6709543D02*
X13991193Y-6749543D01*
X13991193Y-6709543D02*
X13951193Y-6749543D01*
X13955000Y-5863500D02*
X13995000Y-5903500D01*
X13995000Y-5863500D02*
X13955000Y-5903500D01*
X13987338Y-6397103D02*
X14027338Y-6437103D01*
X14027338Y-6397103D02*
X13987338Y-6437103D01*
X14004999Y-5971000D02*
X14044999Y-6011000D01*
X14044999Y-5971000D02*
X14004999Y-6011000D01*
X14048082Y-12684691D02*
X14088082Y-12724691D01*
X14088082Y-12684691D02*
X14048082Y-12724691D01*
X14053000Y-12268000D02*
X14093000Y-12308000D01*
X14093000Y-12268000D02*
X14053000Y-12308000D01*
X14057891Y-13108628D02*
X14097891Y-13148628D01*
X14097891Y-13108628D02*
X14057891Y-13148628D01*
X14090000Y-6847500D02*
X14130000Y-6887500D01*
X14130000Y-6847500D02*
X14090000Y-6887500D01*
X14136000Y-11746000D02*
X14176000Y-11786000D01*
X14176000Y-11746000D02*
X14136000Y-11786000D01*
X14136967Y-11546006D02*
X14176967Y-11586006D01*
X14176967Y-11546006D02*
X14136967Y-11586006D01*
X14137000Y-11848000D02*
X14177000Y-11888000D01*
X14177000Y-11848000D02*
X14137000Y-11888000D01*
X14137149Y-11646006D02*
X14177149Y-11686006D01*
X14177149Y-11646006D02*
X14137149Y-11686006D01*
X14162500Y-13235000D02*
X14202500Y-13275000D01*
X14202500Y-13235000D02*
X14162500Y-13275000D01*
X14226312Y-6639366D02*
X14266312Y-6679366D01*
X14266312Y-6639366D02*
X14226312Y-6679366D01*
X14235000Y-5840000D02*
X14275000Y-5880000D01*
X14275000Y-5840000D02*
X14235000Y-5880000D01*
X14236617Y-12598622D02*
X14276617Y-12638622D01*
X14276617Y-12598622D02*
X14236617Y-12638622D01*
X14240011Y-12126229D02*
X14280011Y-12166229D01*
X14280011Y-12126229D02*
X14240011Y-12166229D01*
X14241577Y-13007582D02*
X14281577Y-13047582D01*
X14281577Y-13007582D02*
X14241577Y-13047582D01*
X14280000Y-6555000D02*
X14320000Y-6595000D01*
X14320000Y-6555000D02*
X14280000Y-6595000D01*
X14284000Y-11494000D02*
X14324000Y-11534000D01*
X14324000Y-11494000D02*
X14284000Y-11534000D01*
X14325000Y-6982500D02*
X14365000Y-7022500D01*
X14365000Y-6982500D02*
X14325000Y-7022500D01*
X14388000Y-11491000D02*
X14428000Y-11531000D01*
X14428000Y-11491000D02*
X14388000Y-11531000D01*
X14408948Y-6370258D02*
X14448948Y-6410258D01*
X14448948Y-6370258D02*
X14408948Y-6410258D01*
X14408972Y-5970226D02*
X14448972Y-6010226D01*
X14448972Y-5970226D02*
X14408972Y-6010226D01*
X14487500Y-6982500D02*
X14527500Y-7022500D01*
X14527500Y-6982500D02*
X14487500Y-7022500D01*
X14487999Y-11490495D02*
X14527999Y-11530495D01*
X14527999Y-11490495D02*
X14487999Y-11530495D01*
X14498000Y-13179000D02*
X14538000Y-13219000D01*
X14538000Y-13179000D02*
X14498000Y-13219000D01*
X14600000Y-11362500D02*
X14640000Y-11402500D01*
X14640000Y-11362500D02*
X14600000Y-11402500D01*
X14601000Y-11491000D02*
X14641000Y-11531000D01*
X14641000Y-11491000D02*
X14601000Y-11531000D01*
X14622500Y-6547500D02*
X14662500Y-6587500D01*
X14662500Y-6547500D02*
X14622500Y-6587500D01*
X14944000Y-13074000D02*
X14984000Y-13114000D01*
X14984000Y-13074000D02*
X14944000Y-13114000D01*
X15154000Y-6766000D02*
X15194000Y-6806000D01*
X15194000Y-6766000D02*
X15154000Y-6806000D01*
X15299000Y-7213000D02*
X15339000Y-7253000D01*
X15339000Y-7213000D02*
X15299000Y-7253000D01*
X15475000Y-5845000D02*
X15515000Y-5885000D01*
X15515000Y-5845000D02*
X15475000Y-5885000D01*
X15660000Y-11320000D02*
X15700000Y-11360000D01*
X15700000Y-11320000D02*
X15660000Y-11360000D01*
X15660000Y-11855000D02*
X15700000Y-11895000D01*
X15700000Y-11855000D02*
X15660000Y-11895000D01*
X15830000Y-6240000D02*
X15870000Y-6280000D01*
X15870000Y-6240000D02*
X15830000Y-6280000D01*
X16075000Y-6240000D02*
X16115000Y-6280000D01*
X16115000Y-6240000D02*
X16075000Y-6280000D01*
X16086000Y-10151000D02*
X16126000Y-10191000D01*
X16126000Y-10151000D02*
X16086000Y-10191000D01*
X16095000Y-9712500D02*
X16135000Y-9752500D01*
X16135000Y-9712500D02*
X16095000Y-9752500D01*
X16102500Y-8016500D02*
X16142500Y-8056500D01*
X16142500Y-8016500D02*
X16102500Y-8056500D01*
X16237500Y-10445000D02*
X16277500Y-10485000D01*
X16277500Y-10445000D02*
X16237500Y-10485000D01*
X16360000Y-10449000D02*
X16400000Y-10489000D01*
X16400000Y-10449000D02*
X16360000Y-10489000D01*
X16360000Y-11855000D02*
X16400000Y-11895000D01*
X16400000Y-11855000D02*
X16360000Y-11895000D01*
X16485000Y-11852500D02*
X16525000Y-11892500D01*
X16525000Y-11852500D02*
X16485000Y-11892500D01*
X16525000Y-11377500D02*
X16565000Y-11417500D01*
X16565000Y-11377500D02*
X16525000Y-11417500D01*
X16842500Y-10830000D02*
X16882500Y-10870000D01*
X16882500Y-10830000D02*
X16842500Y-10870000D01*
X16858627Y-11543627D02*
X16898627Y-11583627D01*
X16898627Y-11543627D02*
X16858627Y-11583627D01*
X16972500Y-11112500D02*
X17012500Y-11152500D01*
X17012500Y-11112500D02*
X16972500Y-11152500D01*
X17087623Y-11577622D02*
X17127623Y-11617622D01*
X17127623Y-11577622D02*
X17087623Y-11617622D01*
X17090000Y-11110000D02*
X17130000Y-11150000D01*
X17130000Y-11110000D02*
X17090000Y-11150000D01*
X17202500Y-11107500D02*
X17242500Y-11147500D01*
X17242500Y-11107500D02*
X17202500Y-11147500D01*
X17345000Y-11407500D02*
X17385000Y-11447500D01*
X17385000Y-11407500D02*
X17345000Y-11447500D01*
X17362500Y-10812500D02*
X17402500Y-10852500D01*
X17402500Y-10812500D02*
X17362500Y-10852500D01*
X17372782Y-10924718D02*
X17412782Y-10964718D01*
X17412782Y-10924718D02*
X17372782Y-10964718D01*
X17222030Y-7820000D02*
G75*
G03*
X17122970Y-7820000I-49530J0D01*
G01*
X17122970Y-7820000D02*
G75*
G03*
X17222030Y-7820000I49530J0D01*
G01*
X17222030Y-8070000D02*
G75*
G03*
X17122970Y-8070000I-49530J0D01*
G01*
X17122970Y-8070000D02*
G75*
G03*
X17222030Y-8070000I49530J0D01*
G01*
X17222030Y-8320000D02*
G75*
G03*
X17122970Y-8320000I-49530J0D01*
G01*
X17122970Y-8320000D02*
G75*
G03*
X17222030Y-8320000I49530J0D01*
G01*
X17222030Y-8570000D02*
G75*
G03*
X17122970Y-8570000I-49530J0D01*
G01*
X17122970Y-8570000D02*
G75*
G03*
X17222030Y-8570000I49530J0D01*
G01*
D12*
X12750000Y-8677000D02*
X12750000Y-8823000D01*
X12677000Y-8750000D02*
X12823000Y-8750000D01*
X12750000Y-8931000D02*
X12750000Y-9077000D01*
X12677000Y-9004000D02*
X12823000Y-9004000D01*
X12750000Y-9186000D02*
X12750000Y-9332000D01*
X12677000Y-9259000D02*
X12823000Y-9259000D01*
X12750000Y-9738000D02*
X12750000Y-9884000D01*
X12677000Y-9811000D02*
X12823000Y-9811000D01*
X12750000Y-9993000D02*
X12750000Y-10139000D01*
X12677000Y-10066000D02*
X12823000Y-10066000D01*
X12750000Y-10247000D02*
X12750000Y-10393000D01*
X12677000Y-10320000D02*
X12823000Y-10320000D01*
X13505000Y-10802000D02*
X13505000Y-10948000D01*
X13432000Y-10875000D02*
X13578000Y-10875000D01*
X13510000Y-8147000D02*
X13510000Y-8293000D01*
X13437000Y-8220000D02*
X13583000Y-8220000D01*
X13759000Y-10802000D02*
X13759000Y-10948000D01*
X13686000Y-10875000D02*
X13832000Y-10875000D01*
X13764000Y-8147000D02*
X13764000Y-8293000D01*
X13691000Y-8220000D02*
X13837000Y-8220000D01*
X14014000Y-10802000D02*
X14014000Y-10948000D01*
X13941000Y-10875000D02*
X14087000Y-10875000D01*
X14019000Y-8147000D02*
X14019000Y-8293000D01*
X13946000Y-8220000D02*
X14092000Y-8220000D01*
X14785000Y-8665000D02*
X14785000Y-8811000D01*
X14712000Y-8738000D02*
X14858000Y-8738000D01*
X14785000Y-8920000D02*
X14785000Y-9066000D01*
X14712000Y-8993000D02*
X14858000Y-8993000D01*
X14785000Y-9174000D02*
X14785000Y-9320000D01*
X14712000Y-9247000D02*
X14858000Y-9247000D01*
X14785000Y-9743000D02*
X14785000Y-9889000D01*
X14712000Y-9816000D02*
X14858000Y-9816000D01*
X14785000Y-9997000D02*
X14785000Y-10143000D01*
X14712000Y-10070000D02*
X14858000Y-10070000D01*
X14785000Y-10252000D02*
X14785000Y-10398000D01*
X14712000Y-10325000D02*
X14858000Y-10325000D01*
D13*
X10883897Y-6662517D02*
X10883897Y-6184763D01*
X10406143Y-6184763D01*
X10406143Y-6662517D01*
X10883897Y-6662517D01*
X10883897Y-9801627D02*
X10883897Y-9323873D01*
X10406143Y-9323873D01*
X10406143Y-9801627D01*
X10883897Y-9801627D01*
X10883897Y-12944717D02*
X10883897Y-12466963D01*
X10406143Y-12466963D01*
X10406143Y-12944717D01*
X10883897Y-12944717D01*
X17132297Y-6658537D02*
X17132297Y-6180783D01*
X16654543Y-6180783D01*
X16654543Y-6658537D01*
X17132297Y-6658537D01*
X17132297Y-9801627D02*
X17132297Y-9323873D01*
X16654543Y-9323873D01*
X16654543Y-9801627D01*
X17132297Y-9801627D01*
X17132297Y-12948517D02*
X17132297Y-12470763D01*
X16654543Y-12470763D01*
X16654543Y-12948517D01*
X17132297Y-12948517D01*
D11*
X10251410Y-13648952D02*
X10251410Y-13448952D01*
X10251410Y-13448952D02*
X10299029Y-13448952D01*
X10299029Y-13448952D02*
X10327600Y-13458476D01*
X10327600Y-13458476D02*
X10346648Y-13477523D01*
X10346648Y-13477523D02*
X10356171Y-13496571D01*
X10356171Y-13496571D02*
X10365695Y-13534666D01*
X10365695Y-13534666D02*
X10365695Y-13563238D01*
X10365695Y-13563238D02*
X10356171Y-13601333D01*
X10356171Y-13601333D02*
X10346648Y-13620381D01*
X10346648Y-13620381D02*
X10327600Y-13639428D01*
X10327600Y-13639428D02*
X10299029Y-13648952D01*
X10299029Y-13648952D02*
X10251410Y-13648952D01*
X10451410Y-13648952D02*
X10451410Y-13515619D01*
X10451410Y-13553714D02*
X10460933Y-13534666D01*
X10460933Y-13534666D02*
X10470457Y-13525142D01*
X10470457Y-13525142D02*
X10489505Y-13515619D01*
X10489505Y-13515619D02*
X10508552Y-13515619D01*
X10575219Y-13648952D02*
X10575219Y-13515619D01*
X10575219Y-13448952D02*
X10565695Y-13458476D01*
X10565695Y-13458476D02*
X10575219Y-13468000D01*
X10575219Y-13468000D02*
X10584743Y-13458476D01*
X10584743Y-13458476D02*
X10575219Y-13448952D01*
X10575219Y-13448952D02*
X10575219Y-13468000D01*
X10699029Y-13648952D02*
X10679981Y-13639428D01*
X10679981Y-13639428D02*
X10670457Y-13620381D01*
X10670457Y-13620381D02*
X10670457Y-13448952D01*
X10803790Y-13648952D02*
X10784743Y-13639428D01*
X10784743Y-13639428D02*
X10775219Y-13620381D01*
X10775219Y-13620381D02*
X10775219Y-13448952D01*
X11032362Y-13648952D02*
X11032362Y-13448952D01*
X11032362Y-13448952D02*
X11099029Y-13591809D01*
X11099029Y-13591809D02*
X11165695Y-13448952D01*
X11165695Y-13448952D02*
X11165695Y-13648952D01*
X11346648Y-13648952D02*
X11346648Y-13544190D01*
X11346648Y-13544190D02*
X11337124Y-13525142D01*
X11337124Y-13525142D02*
X11318076Y-13515619D01*
X11318076Y-13515619D02*
X11279981Y-13515619D01*
X11279981Y-13515619D02*
X11260933Y-13525142D01*
X11346648Y-13639428D02*
X11327600Y-13648952D01*
X11327600Y-13648952D02*
X11279981Y-13648952D01*
X11279981Y-13648952D02*
X11260933Y-13639428D01*
X11260933Y-13639428D02*
X11251409Y-13620381D01*
X11251409Y-13620381D02*
X11251409Y-13601333D01*
X11251409Y-13601333D02*
X11260933Y-13582285D01*
X11260933Y-13582285D02*
X11279981Y-13572762D01*
X11279981Y-13572762D02*
X11327600Y-13572762D01*
X11327600Y-13572762D02*
X11346648Y-13563238D01*
X11441886Y-13515619D02*
X11441886Y-13715619D01*
X11441886Y-13525142D02*
X11460933Y-13515619D01*
X11460933Y-13515619D02*
X11499029Y-13515619D01*
X11499029Y-13515619D02*
X11518076Y-13525142D01*
X11518076Y-13525142D02*
X11527600Y-13534666D01*
X11527600Y-13534666D02*
X11537124Y-13553714D01*
X11537124Y-13553714D02*
X11537124Y-13610857D01*
X11537124Y-13610857D02*
X11527600Y-13629904D01*
X11527600Y-13629904D02*
X11518076Y-13639428D01*
X11518076Y-13639428D02*
X11499029Y-13648952D01*
X11499029Y-13648952D02*
X11460933Y-13648952D01*
X11460933Y-13648952D02*
X11441886Y-13639428D01*
X11622838Y-13629904D02*
X11632362Y-13639428D01*
X11632362Y-13639428D02*
X11622838Y-13648952D01*
X11622838Y-13648952D02*
X11613314Y-13639428D01*
X11613314Y-13639428D02*
X11622838Y-13629904D01*
X11622838Y-13629904D02*
X11622838Y-13648952D01*
X11622838Y-13525142D02*
X11632362Y-13534666D01*
X11632362Y-13534666D02*
X11622838Y-13544190D01*
X11622838Y-13544190D02*
X11613314Y-13534666D01*
X11613314Y-13534666D02*
X11622838Y-13525142D01*
X11622838Y-13525142D02*
X11622838Y-13544190D01*
D10*
X9950633Y-13957468D02*
X9990633Y-13997468D01*
X9990633Y-13957468D02*
X9950633Y-13997468D01*
D11*
X10289505Y-13868952D02*
X10308552Y-13868952D01*
X10308552Y-13868952D02*
X10327600Y-13878476D01*
X10327600Y-13878476D02*
X10337124Y-13888000D01*
X10337124Y-13888000D02*
X10346648Y-13907047D01*
X10346648Y-13907047D02*
X10356171Y-13945142D01*
X10356171Y-13945142D02*
X10356171Y-13992762D01*
X10356171Y-13992762D02*
X10346648Y-14030857D01*
X10346648Y-14030857D02*
X10337124Y-14049904D01*
X10337124Y-14049904D02*
X10327600Y-14059428D01*
X10327600Y-14059428D02*
X10308552Y-14068952D01*
X10308552Y-14068952D02*
X10289505Y-14068952D01*
X10289505Y-14068952D02*
X10270457Y-14059428D01*
X10270457Y-14059428D02*
X10260933Y-14049904D01*
X10260933Y-14049904D02*
X10251410Y-14030857D01*
X10251410Y-14030857D02*
X10241886Y-13992762D01*
X10241886Y-13992762D02*
X10241886Y-13945142D01*
X10241886Y-13945142D02*
X10251410Y-13907047D01*
X10251410Y-13907047D02*
X10260933Y-13888000D01*
X10260933Y-13888000D02*
X10270457Y-13878476D01*
X10270457Y-13878476D02*
X10289505Y-13868952D01*
X10441886Y-14049904D02*
X10451410Y-14059428D01*
X10451410Y-14059428D02*
X10441886Y-14068952D01*
X10441886Y-14068952D02*
X10432362Y-14059428D01*
X10432362Y-14059428D02*
X10441886Y-14049904D01*
X10441886Y-14049904D02*
X10441886Y-14068952D01*
X10622838Y-13935619D02*
X10622838Y-14068952D01*
X10575219Y-13859428D02*
X10527600Y-14002285D01*
X10527600Y-14002285D02*
X10651410Y-14002285D01*
X10765695Y-13868952D02*
X10784743Y-13868952D01*
X10784743Y-13868952D02*
X10803791Y-13878476D01*
X10803791Y-13878476D02*
X10813314Y-13888000D01*
X10813314Y-13888000D02*
X10822838Y-13907047D01*
X10822838Y-13907047D02*
X10832362Y-13945142D01*
X10832362Y-13945142D02*
X10832362Y-13992762D01*
X10832362Y-13992762D02*
X10822838Y-14030857D01*
X10822838Y-14030857D02*
X10813314Y-14049904D01*
X10813314Y-14049904D02*
X10803791Y-14059428D01*
X10803791Y-14059428D02*
X10784743Y-14068952D01*
X10784743Y-14068952D02*
X10765695Y-14068952D01*
X10765695Y-14068952D02*
X10746648Y-14059428D01*
X10746648Y-14059428D02*
X10737124Y-14049904D01*
X10737124Y-14049904D02*
X10727600Y-14030857D01*
X10727600Y-14030857D02*
X10718076Y-13992762D01*
X10718076Y-13992762D02*
X10718076Y-13945142D01*
X10718076Y-13945142D02*
X10727600Y-13907047D01*
X10727600Y-13907047D02*
X10737124Y-13888000D01*
X10737124Y-13888000D02*
X10746648Y-13878476D01*
X10746648Y-13878476D02*
X10765695Y-13868952D01*
X10956171Y-13868952D02*
X10975219Y-13868952D01*
X10975219Y-13868952D02*
X10994267Y-13878476D01*
X10994267Y-13878476D02*
X11003791Y-13888000D01*
X11003791Y-13888000D02*
X11013314Y-13907047D01*
X11013314Y-13907047D02*
X11022838Y-13945142D01*
X11022838Y-13945142D02*
X11022838Y-13992762D01*
X11022838Y-13992762D02*
X11013314Y-14030857D01*
X11013314Y-14030857D02*
X11003791Y-14049904D01*
X11003791Y-14049904D02*
X10994267Y-14059428D01*
X10994267Y-14059428D02*
X10975219Y-14068952D01*
X10975219Y-14068952D02*
X10956171Y-14068952D01*
X10956171Y-14068952D02*
X10937124Y-14059428D01*
X10937124Y-14059428D02*
X10927600Y-14049904D01*
X10927600Y-14049904D02*
X10918076Y-14030857D01*
X10918076Y-14030857D02*
X10908552Y-13992762D01*
X10908552Y-13992762D02*
X10908552Y-13945142D01*
X10908552Y-13945142D02*
X10918076Y-13907047D01*
X10918076Y-13907047D02*
X10927600Y-13888000D01*
X10927600Y-13888000D02*
X10937124Y-13878476D01*
X10937124Y-13878476D02*
X10956171Y-13868952D01*
X11108552Y-14068952D02*
X11108552Y-13935619D01*
X11108552Y-13954666D02*
X11118076Y-13945142D01*
X11118076Y-13945142D02*
X11137124Y-13935619D01*
X11137124Y-13935619D02*
X11165695Y-13935619D01*
X11165695Y-13935619D02*
X11184743Y-13945142D01*
X11184743Y-13945142D02*
X11194267Y-13964190D01*
X11194267Y-13964190D02*
X11194267Y-14068952D01*
X11194267Y-13964190D02*
X11203790Y-13945142D01*
X11203790Y-13945142D02*
X11222838Y-13935619D01*
X11222838Y-13935619D02*
X11251409Y-13935619D01*
X11251409Y-13935619D02*
X11270457Y-13945142D01*
X11270457Y-13945142D02*
X11279981Y-13964190D01*
X11279981Y-13964190D02*
X11279981Y-14068952D01*
X11375219Y-14068952D02*
X11375219Y-13935619D01*
X11375219Y-13954666D02*
X11384743Y-13945142D01*
X11384743Y-13945142D02*
X11403790Y-13935619D01*
X11403790Y-13935619D02*
X11432362Y-13935619D01*
X11432362Y-13935619D02*
X11451410Y-13945142D01*
X11451410Y-13945142D02*
X11460933Y-13964190D01*
X11460933Y-13964190D02*
X11460933Y-14068952D01*
X11460933Y-13964190D02*
X11470457Y-13945142D01*
X11470457Y-13945142D02*
X11489505Y-13935619D01*
X11489505Y-13935619D02*
X11518076Y-13935619D01*
X11518076Y-13935619D02*
X11537124Y-13945142D01*
X11537124Y-13945142D02*
X11546648Y-13964190D01*
X11546648Y-13964190D02*
X11546648Y-14068952D01*
X11937124Y-13859428D02*
X11765695Y-14116571D01*
X12194267Y-13868952D02*
X12213314Y-13868952D01*
X12213314Y-13868952D02*
X12232362Y-13878476D01*
X12232362Y-13878476D02*
X12241886Y-13888000D01*
X12241886Y-13888000D02*
X12251410Y-13907047D01*
X12251410Y-13907047D02*
X12260933Y-13945142D01*
X12260933Y-13945142D02*
X12260933Y-13992762D01*
X12260933Y-13992762D02*
X12251410Y-14030857D01*
X12251410Y-14030857D02*
X12241886Y-14049904D01*
X12241886Y-14049904D02*
X12232362Y-14059428D01*
X12232362Y-14059428D02*
X12213314Y-14068952D01*
X12213314Y-14068952D02*
X12194267Y-14068952D01*
X12194267Y-14068952D02*
X12175219Y-14059428D01*
X12175219Y-14059428D02*
X12165695Y-14049904D01*
X12165695Y-14049904D02*
X12156172Y-14030857D01*
X12156172Y-14030857D02*
X12146648Y-13992762D01*
X12146648Y-13992762D02*
X12146648Y-13945142D01*
X12146648Y-13945142D02*
X12156172Y-13907047D01*
X12156172Y-13907047D02*
X12165695Y-13888000D01*
X12165695Y-13888000D02*
X12175219Y-13878476D01*
X12175219Y-13878476D02*
X12194267Y-13868952D01*
X12346648Y-14049904D02*
X12356172Y-14059428D01*
X12356172Y-14059428D02*
X12346648Y-14068952D01*
X12346648Y-14068952D02*
X12337124Y-14059428D01*
X12337124Y-14059428D02*
X12346648Y-14049904D01*
X12346648Y-14049904D02*
X12346648Y-14068952D01*
X12479981Y-13868952D02*
X12499029Y-13868952D01*
X12499029Y-13868952D02*
X12518076Y-13878476D01*
X12518076Y-13878476D02*
X12527600Y-13888000D01*
X12527600Y-13888000D02*
X12537124Y-13907047D01*
X12537124Y-13907047D02*
X12546648Y-13945142D01*
X12546648Y-13945142D02*
X12546648Y-13992762D01*
X12546648Y-13992762D02*
X12537124Y-14030857D01*
X12537124Y-14030857D02*
X12527600Y-14049904D01*
X12527600Y-14049904D02*
X12518076Y-14059428D01*
X12518076Y-14059428D02*
X12499029Y-14068952D01*
X12499029Y-14068952D02*
X12479981Y-14068952D01*
X12479981Y-14068952D02*
X12460933Y-14059428D01*
X12460933Y-14059428D02*
X12451410Y-14049904D01*
X12451410Y-14049904D02*
X12441886Y-14030857D01*
X12441886Y-14030857D02*
X12432362Y-13992762D01*
X12432362Y-13992762D02*
X12432362Y-13945142D01*
X12432362Y-13945142D02*
X12441886Y-13907047D01*
X12441886Y-13907047D02*
X12451410Y-13888000D01*
X12451410Y-13888000D02*
X12460933Y-13878476D01*
X12460933Y-13878476D02*
X12479981Y-13868952D01*
X12737124Y-14068952D02*
X12622838Y-14068952D01*
X12679981Y-14068952D02*
X12679981Y-13868952D01*
X12679981Y-13868952D02*
X12660933Y-13897523D01*
X12660933Y-13897523D02*
X12641886Y-13916571D01*
X12641886Y-13916571D02*
X12622838Y-13926095D01*
X12918076Y-13868952D02*
X12822838Y-13868952D01*
X12822838Y-13868952D02*
X12813314Y-13964190D01*
X12813314Y-13964190D02*
X12822838Y-13954666D01*
X12822838Y-13954666D02*
X12841886Y-13945142D01*
X12841886Y-13945142D02*
X12889505Y-13945142D01*
X12889505Y-13945142D02*
X12908553Y-13954666D01*
X12908553Y-13954666D02*
X12918076Y-13964190D01*
X12918076Y-13964190D02*
X12927600Y-13983238D01*
X12927600Y-13983238D02*
X12927600Y-14030857D01*
X12927600Y-14030857D02*
X12918076Y-14049904D01*
X12918076Y-14049904D02*
X12908553Y-14059428D01*
X12908553Y-14059428D02*
X12889505Y-14068952D01*
X12889505Y-14068952D02*
X12841886Y-14068952D01*
X12841886Y-14068952D02*
X12822838Y-14059428D01*
X12822838Y-14059428D02*
X12813314Y-14049904D01*
X12994267Y-13868952D02*
X13127600Y-13868952D01*
X13127600Y-13868952D02*
X13041886Y-14068952D01*
X13194267Y-13868952D02*
X13194267Y-13907047D01*
X13270457Y-13868952D02*
X13270457Y-13907047D01*
X13565696Y-14145142D02*
X13556172Y-14135619D01*
X13556172Y-14135619D02*
X13537124Y-14107047D01*
X13537124Y-14107047D02*
X13527600Y-14088000D01*
X13527600Y-14088000D02*
X13518076Y-14059428D01*
X13518076Y-14059428D02*
X13508553Y-14011809D01*
X13508553Y-14011809D02*
X13508553Y-13973714D01*
X13508553Y-13973714D02*
X13518076Y-13926095D01*
X13518076Y-13926095D02*
X13527600Y-13897523D01*
X13527600Y-13897523D02*
X13537124Y-13878476D01*
X13537124Y-13878476D02*
X13556172Y-13849904D01*
X13556172Y-13849904D02*
X13565696Y-13840381D01*
X13746648Y-14068952D02*
X13632362Y-14068952D01*
X13689505Y-14068952D02*
X13689505Y-13868952D01*
X13689505Y-13868952D02*
X13670457Y-13897523D01*
X13670457Y-13897523D02*
X13651410Y-13916571D01*
X13651410Y-13916571D02*
X13632362Y-13926095D01*
X13813315Y-13868952D02*
X13946648Y-13868952D01*
X13946648Y-13868952D02*
X13860934Y-14068952D01*
X14003791Y-13868952D02*
X14127600Y-13868952D01*
X14127600Y-13868952D02*
X14060934Y-13945142D01*
X14060934Y-13945142D02*
X14089505Y-13945142D01*
X14089505Y-13945142D02*
X14108553Y-13954666D01*
X14108553Y-13954666D02*
X14118076Y-13964190D01*
X14118076Y-13964190D02*
X14127600Y-13983238D01*
X14127600Y-13983238D02*
X14127600Y-14030857D01*
X14127600Y-14030857D02*
X14118076Y-14049904D01*
X14118076Y-14049904D02*
X14108553Y-14059428D01*
X14108553Y-14059428D02*
X14089505Y-14068952D01*
X14089505Y-14068952D02*
X14032362Y-14068952D01*
X14032362Y-14068952D02*
X14013315Y-14059428D01*
X14013315Y-14059428D02*
X14003791Y-14049904D01*
X14365696Y-14068952D02*
X14365696Y-13868952D01*
X14451410Y-14068952D02*
X14451410Y-13964190D01*
X14451410Y-13964190D02*
X14441886Y-13945142D01*
X14441886Y-13945142D02*
X14422838Y-13935619D01*
X14422838Y-13935619D02*
X14394267Y-13935619D01*
X14394267Y-13935619D02*
X14375219Y-13945142D01*
X14375219Y-13945142D02*
X14365696Y-13954666D01*
X14575219Y-14068952D02*
X14556172Y-14059428D01*
X14556172Y-14059428D02*
X14546648Y-14049904D01*
X14546648Y-14049904D02*
X14537124Y-14030857D01*
X14537124Y-14030857D02*
X14537124Y-13973714D01*
X14537124Y-13973714D02*
X14546648Y-13954666D01*
X14546648Y-13954666D02*
X14556172Y-13945142D01*
X14556172Y-13945142D02*
X14575219Y-13935619D01*
X14575219Y-13935619D02*
X14603791Y-13935619D01*
X14603791Y-13935619D02*
X14622838Y-13945142D01*
X14622838Y-13945142D02*
X14632362Y-13954666D01*
X14632362Y-13954666D02*
X14641886Y-13973714D01*
X14641886Y-13973714D02*
X14641886Y-14030857D01*
X14641886Y-14030857D02*
X14632362Y-14049904D01*
X14632362Y-14049904D02*
X14622838Y-14059428D01*
X14622838Y-14059428D02*
X14603791Y-14068952D01*
X14603791Y-14068952D02*
X14575219Y-14068952D01*
X14756172Y-14068952D02*
X14737124Y-14059428D01*
X14737124Y-14059428D02*
X14727600Y-14040381D01*
X14727600Y-14040381D02*
X14727600Y-13868952D01*
X14908553Y-14059428D02*
X14889505Y-14068952D01*
X14889505Y-14068952D02*
X14851410Y-14068952D01*
X14851410Y-14068952D02*
X14832362Y-14059428D01*
X14832362Y-14059428D02*
X14822838Y-14040381D01*
X14822838Y-14040381D02*
X14822838Y-13964190D01*
X14822838Y-13964190D02*
X14832362Y-13945142D01*
X14832362Y-13945142D02*
X14851410Y-13935619D01*
X14851410Y-13935619D02*
X14889505Y-13935619D01*
X14889505Y-13935619D02*
X14908553Y-13945142D01*
X14908553Y-13945142D02*
X14918077Y-13964190D01*
X14918077Y-13964190D02*
X14918077Y-13983238D01*
X14918077Y-13983238D02*
X14822838Y-14002285D01*
X14994267Y-14059428D02*
X15013315Y-14068952D01*
X15013315Y-14068952D02*
X15051410Y-14068952D01*
X15051410Y-14068952D02*
X15070458Y-14059428D01*
X15070458Y-14059428D02*
X15079981Y-14040381D01*
X15079981Y-14040381D02*
X15079981Y-14030857D01*
X15079981Y-14030857D02*
X15070458Y-14011809D01*
X15070458Y-14011809D02*
X15051410Y-14002285D01*
X15051410Y-14002285D02*
X15022838Y-14002285D01*
X15022838Y-14002285D02*
X15003791Y-13992762D01*
X15003791Y-13992762D02*
X14994267Y-13973714D01*
X14994267Y-13973714D02*
X14994267Y-13964190D01*
X14994267Y-13964190D02*
X15003791Y-13945142D01*
X15003791Y-13945142D02*
X15022838Y-13935619D01*
X15022838Y-13935619D02*
X15051410Y-13935619D01*
X15051410Y-13935619D02*
X15070458Y-13945142D01*
X15146648Y-14145142D02*
X15156172Y-14135619D01*
X15156172Y-14135619D02*
X15175219Y-14107047D01*
X15175219Y-14107047D02*
X15184743Y-14088000D01*
X15184743Y-14088000D02*
X15194267Y-14059428D01*
X15194267Y-14059428D02*
X15203791Y-14011809D01*
X15203791Y-14011809D02*
X15203791Y-13973714D01*
X15203791Y-13973714D02*
X15194267Y-13926095D01*
X15194267Y-13926095D02*
X15184743Y-13897523D01*
X15184743Y-13897523D02*
X15175219Y-13878476D01*
X15175219Y-13878476D02*
X15156172Y-13849904D01*
X15156172Y-13849904D02*
X15146648Y-13840381D01*
D10*
X9990633Y-14241468D02*
G75*
G03*
X9891573Y-14241468I-49530J0D01*
G01*
X9891573Y-14241468D02*
G75*
G03*
X9990633Y-14241468I49530J0D01*
G01*
D11*
X10289505Y-14132952D02*
X10308552Y-14132952D01*
X10308552Y-14132952D02*
X10327600Y-14142476D01*
X10327600Y-14142476D02*
X10337124Y-14152000D01*
X10337124Y-14152000D02*
X10346648Y-14171047D01*
X10346648Y-14171047D02*
X10356171Y-14209142D01*
X10356171Y-14209142D02*
X10356171Y-14256762D01*
X10356171Y-14256762D02*
X10346648Y-14294857D01*
X10346648Y-14294857D02*
X10337124Y-14313904D01*
X10337124Y-14313904D02*
X10327600Y-14323428D01*
X10327600Y-14323428D02*
X10308552Y-14332952D01*
X10308552Y-14332952D02*
X10289505Y-14332952D01*
X10289505Y-14332952D02*
X10270457Y-14323428D01*
X10270457Y-14323428D02*
X10260933Y-14313904D01*
X10260933Y-14313904D02*
X10251410Y-14294857D01*
X10251410Y-14294857D02*
X10241886Y-14256762D01*
X10241886Y-14256762D02*
X10241886Y-14209142D01*
X10241886Y-14209142D02*
X10251410Y-14171047D01*
X10251410Y-14171047D02*
X10260933Y-14152000D01*
X10260933Y-14152000D02*
X10270457Y-14142476D01*
X10270457Y-14142476D02*
X10289505Y-14132952D01*
X10441886Y-14313904D02*
X10451410Y-14323428D01*
X10451410Y-14323428D02*
X10441886Y-14332952D01*
X10441886Y-14332952D02*
X10432362Y-14323428D01*
X10432362Y-14323428D02*
X10441886Y-14313904D01*
X10441886Y-14313904D02*
X10441886Y-14332952D01*
X10546648Y-14332952D02*
X10584743Y-14332952D01*
X10584743Y-14332952D02*
X10603791Y-14323428D01*
X10603791Y-14323428D02*
X10613314Y-14313904D01*
X10613314Y-14313904D02*
X10632362Y-14285333D01*
X10632362Y-14285333D02*
X10641886Y-14247238D01*
X10641886Y-14247238D02*
X10641886Y-14171047D01*
X10641886Y-14171047D02*
X10632362Y-14152000D01*
X10632362Y-14152000D02*
X10622838Y-14142476D01*
X10622838Y-14142476D02*
X10603791Y-14132952D01*
X10603791Y-14132952D02*
X10565695Y-14132952D01*
X10565695Y-14132952D02*
X10546648Y-14142476D01*
X10546648Y-14142476D02*
X10537124Y-14152000D01*
X10537124Y-14152000D02*
X10527600Y-14171047D01*
X10527600Y-14171047D02*
X10527600Y-14218666D01*
X10527600Y-14218666D02*
X10537124Y-14237714D01*
X10537124Y-14237714D02*
X10546648Y-14247238D01*
X10546648Y-14247238D02*
X10565695Y-14256762D01*
X10565695Y-14256762D02*
X10603791Y-14256762D01*
X10603791Y-14256762D02*
X10622838Y-14247238D01*
X10622838Y-14247238D02*
X10632362Y-14237714D01*
X10632362Y-14237714D02*
X10641886Y-14218666D01*
X10737124Y-14332952D02*
X10775219Y-14332952D01*
X10775219Y-14332952D02*
X10794267Y-14323428D01*
X10794267Y-14323428D02*
X10803791Y-14313904D01*
X10803791Y-14313904D02*
X10822838Y-14285333D01*
X10822838Y-14285333D02*
X10832362Y-14247238D01*
X10832362Y-14247238D02*
X10832362Y-14171047D01*
X10832362Y-14171047D02*
X10822838Y-14152000D01*
X10822838Y-14152000D02*
X10813314Y-14142476D01*
X10813314Y-14142476D02*
X10794267Y-14132952D01*
X10794267Y-14132952D02*
X10756171Y-14132952D01*
X10756171Y-14132952D02*
X10737124Y-14142476D01*
X10737124Y-14142476D02*
X10727600Y-14152000D01*
X10727600Y-14152000D02*
X10718076Y-14171047D01*
X10718076Y-14171047D02*
X10718076Y-14218666D01*
X10718076Y-14218666D02*
X10727600Y-14237714D01*
X10727600Y-14237714D02*
X10737124Y-14247238D01*
X10737124Y-14247238D02*
X10756171Y-14256762D01*
X10756171Y-14256762D02*
X10794267Y-14256762D01*
X10794267Y-14256762D02*
X10813314Y-14247238D01*
X10813314Y-14247238D02*
X10822838Y-14237714D01*
X10822838Y-14237714D02*
X10832362Y-14218666D01*
X11022838Y-14332952D02*
X10908552Y-14332952D01*
X10965695Y-14332952D02*
X10965695Y-14132952D01*
X10965695Y-14132952D02*
X10946648Y-14161523D01*
X10946648Y-14161523D02*
X10927600Y-14180571D01*
X10927600Y-14180571D02*
X10908552Y-14190095D01*
X11108552Y-14332952D02*
X11108552Y-14199619D01*
X11108552Y-14218666D02*
X11118076Y-14209142D01*
X11118076Y-14209142D02*
X11137124Y-14199619D01*
X11137124Y-14199619D02*
X11165695Y-14199619D01*
X11165695Y-14199619D02*
X11184743Y-14209142D01*
X11184743Y-14209142D02*
X11194267Y-14228190D01*
X11194267Y-14228190D02*
X11194267Y-14332952D01*
X11194267Y-14228190D02*
X11203790Y-14209142D01*
X11203790Y-14209142D02*
X11222838Y-14199619D01*
X11222838Y-14199619D02*
X11251409Y-14199619D01*
X11251409Y-14199619D02*
X11270457Y-14209142D01*
X11270457Y-14209142D02*
X11279981Y-14228190D01*
X11279981Y-14228190D02*
X11279981Y-14332952D01*
X11375219Y-14332952D02*
X11375219Y-14199619D01*
X11375219Y-14218666D02*
X11384743Y-14209142D01*
X11384743Y-14209142D02*
X11403790Y-14199619D01*
X11403790Y-14199619D02*
X11432362Y-14199619D01*
X11432362Y-14199619D02*
X11451410Y-14209142D01*
X11451410Y-14209142D02*
X11460933Y-14228190D01*
X11460933Y-14228190D02*
X11460933Y-14332952D01*
X11460933Y-14228190D02*
X11470457Y-14209142D01*
X11470457Y-14209142D02*
X11489505Y-14199619D01*
X11489505Y-14199619D02*
X11518076Y-14199619D01*
X11518076Y-14199619D02*
X11537124Y-14209142D01*
X11537124Y-14209142D02*
X11546648Y-14228190D01*
X11546648Y-14228190D02*
X11546648Y-14332952D01*
X11937124Y-14123428D02*
X11765695Y-14380571D01*
X12194267Y-14132952D02*
X12213314Y-14132952D01*
X12213314Y-14132952D02*
X12232362Y-14142476D01*
X12232362Y-14142476D02*
X12241886Y-14152000D01*
X12241886Y-14152000D02*
X12251410Y-14171047D01*
X12251410Y-14171047D02*
X12260933Y-14209142D01*
X12260933Y-14209142D02*
X12260933Y-14256762D01*
X12260933Y-14256762D02*
X12251410Y-14294857D01*
X12251410Y-14294857D02*
X12241886Y-14313904D01*
X12241886Y-14313904D02*
X12232362Y-14323428D01*
X12232362Y-14323428D02*
X12213314Y-14332952D01*
X12213314Y-14332952D02*
X12194267Y-14332952D01*
X12194267Y-14332952D02*
X12175219Y-14323428D01*
X12175219Y-14323428D02*
X12165695Y-14313904D01*
X12165695Y-14313904D02*
X12156172Y-14294857D01*
X12156172Y-14294857D02*
X12146648Y-14256762D01*
X12146648Y-14256762D02*
X12146648Y-14209142D01*
X12146648Y-14209142D02*
X12156172Y-14171047D01*
X12156172Y-14171047D02*
X12165695Y-14152000D01*
X12165695Y-14152000D02*
X12175219Y-14142476D01*
X12175219Y-14142476D02*
X12194267Y-14132952D01*
X12346648Y-14313904D02*
X12356172Y-14323428D01*
X12356172Y-14323428D02*
X12346648Y-14332952D01*
X12346648Y-14332952D02*
X12337124Y-14323428D01*
X12337124Y-14323428D02*
X12346648Y-14313904D01*
X12346648Y-14313904D02*
X12346648Y-14332952D01*
X12479981Y-14132952D02*
X12499029Y-14132952D01*
X12499029Y-14132952D02*
X12518076Y-14142476D01*
X12518076Y-14142476D02*
X12527600Y-14152000D01*
X12527600Y-14152000D02*
X12537124Y-14171047D01*
X12537124Y-14171047D02*
X12546648Y-14209142D01*
X12546648Y-14209142D02*
X12546648Y-14256762D01*
X12546648Y-14256762D02*
X12537124Y-14294857D01*
X12537124Y-14294857D02*
X12527600Y-14313904D01*
X12527600Y-14313904D02*
X12518076Y-14323428D01*
X12518076Y-14323428D02*
X12499029Y-14332952D01*
X12499029Y-14332952D02*
X12479981Y-14332952D01*
X12479981Y-14332952D02*
X12460933Y-14323428D01*
X12460933Y-14323428D02*
X12451410Y-14313904D01*
X12451410Y-14313904D02*
X12441886Y-14294857D01*
X12441886Y-14294857D02*
X12432362Y-14256762D01*
X12432362Y-14256762D02*
X12432362Y-14209142D01*
X12432362Y-14209142D02*
X12441886Y-14171047D01*
X12441886Y-14171047D02*
X12451410Y-14152000D01*
X12451410Y-14152000D02*
X12460933Y-14142476D01*
X12460933Y-14142476D02*
X12479981Y-14132952D01*
X12613314Y-14132952D02*
X12737124Y-14132952D01*
X12737124Y-14132952D02*
X12670457Y-14209142D01*
X12670457Y-14209142D02*
X12699029Y-14209142D01*
X12699029Y-14209142D02*
X12718076Y-14218666D01*
X12718076Y-14218666D02*
X12727600Y-14228190D01*
X12727600Y-14228190D02*
X12737124Y-14247238D01*
X12737124Y-14247238D02*
X12737124Y-14294857D01*
X12737124Y-14294857D02*
X12727600Y-14313904D01*
X12727600Y-14313904D02*
X12718076Y-14323428D01*
X12718076Y-14323428D02*
X12699029Y-14332952D01*
X12699029Y-14332952D02*
X12641886Y-14332952D01*
X12641886Y-14332952D02*
X12622838Y-14323428D01*
X12622838Y-14323428D02*
X12613314Y-14313904D01*
X12832362Y-14332952D02*
X12870457Y-14332952D01*
X12870457Y-14332952D02*
X12889505Y-14323428D01*
X12889505Y-14323428D02*
X12899029Y-14313904D01*
X12899029Y-14313904D02*
X12918076Y-14285333D01*
X12918076Y-14285333D02*
X12927600Y-14247238D01*
X12927600Y-14247238D02*
X12927600Y-14171047D01*
X12927600Y-14171047D02*
X12918076Y-14152000D01*
X12918076Y-14152000D02*
X12908553Y-14142476D01*
X12908553Y-14142476D02*
X12889505Y-14132952D01*
X12889505Y-14132952D02*
X12851410Y-14132952D01*
X12851410Y-14132952D02*
X12832362Y-14142476D01*
X12832362Y-14142476D02*
X12822838Y-14152000D01*
X12822838Y-14152000D02*
X12813314Y-14171047D01*
X12813314Y-14171047D02*
X12813314Y-14218666D01*
X12813314Y-14218666D02*
X12822838Y-14237714D01*
X12822838Y-14237714D02*
X12832362Y-14247238D01*
X12832362Y-14247238D02*
X12851410Y-14256762D01*
X12851410Y-14256762D02*
X12889505Y-14256762D01*
X12889505Y-14256762D02*
X12908553Y-14247238D01*
X12908553Y-14247238D02*
X12918076Y-14237714D01*
X12918076Y-14237714D02*
X12927600Y-14218666D01*
X13051410Y-14132952D02*
X13070457Y-14132952D01*
X13070457Y-14132952D02*
X13089505Y-14142476D01*
X13089505Y-14142476D02*
X13099029Y-14152000D01*
X13099029Y-14152000D02*
X13108553Y-14171047D01*
X13108553Y-14171047D02*
X13118076Y-14209142D01*
X13118076Y-14209142D02*
X13118076Y-14256762D01*
X13118076Y-14256762D02*
X13108553Y-14294857D01*
X13108553Y-14294857D02*
X13099029Y-14313904D01*
X13099029Y-14313904D02*
X13089505Y-14323428D01*
X13089505Y-14323428D02*
X13070457Y-14332952D01*
X13070457Y-14332952D02*
X13051410Y-14332952D01*
X13051410Y-14332952D02*
X13032362Y-14323428D01*
X13032362Y-14323428D02*
X13022838Y-14313904D01*
X13022838Y-14313904D02*
X13013314Y-14294857D01*
X13013314Y-14294857D02*
X13003791Y-14256762D01*
X13003791Y-14256762D02*
X13003791Y-14209142D01*
X13003791Y-14209142D02*
X13013314Y-14171047D01*
X13013314Y-14171047D02*
X13022838Y-14152000D01*
X13022838Y-14152000D02*
X13032362Y-14142476D01*
X13032362Y-14142476D02*
X13051410Y-14132952D01*
X13194267Y-14132952D02*
X13194267Y-14171047D01*
X13270457Y-14132952D02*
X13270457Y-14171047D01*
X13565696Y-14409142D02*
X13556172Y-14399619D01*
X13556172Y-14399619D02*
X13537124Y-14371047D01*
X13537124Y-14371047D02*
X13527600Y-14352000D01*
X13527600Y-14352000D02*
X13518076Y-14323428D01*
X13518076Y-14323428D02*
X13508553Y-14275809D01*
X13508553Y-14275809D02*
X13508553Y-14237714D01*
X13508553Y-14237714D02*
X13518076Y-14190095D01*
X13518076Y-14190095D02*
X13527600Y-14161523D01*
X13527600Y-14161523D02*
X13537124Y-14142476D01*
X13537124Y-14142476D02*
X13556172Y-14113904D01*
X13556172Y-14113904D02*
X13565696Y-14104381D01*
X13727600Y-14199619D02*
X13727600Y-14332952D01*
X13679981Y-14123428D02*
X13632362Y-14266285D01*
X13632362Y-14266285D02*
X13756172Y-14266285D01*
X13984743Y-14332952D02*
X13984743Y-14132952D01*
X14070457Y-14332952D02*
X14070457Y-14228190D01*
X14070457Y-14228190D02*
X14060934Y-14209142D01*
X14060934Y-14209142D02*
X14041886Y-14199619D01*
X14041886Y-14199619D02*
X14013315Y-14199619D01*
X14013315Y-14199619D02*
X13994267Y-14209142D01*
X13994267Y-14209142D02*
X13984743Y-14218666D01*
X14194267Y-14332952D02*
X14175219Y-14323428D01*
X14175219Y-14323428D02*
X14165696Y-14313904D01*
X14165696Y-14313904D02*
X14156172Y-14294857D01*
X14156172Y-14294857D02*
X14156172Y-14237714D01*
X14156172Y-14237714D02*
X14165696Y-14218666D01*
X14165696Y-14218666D02*
X14175219Y-14209142D01*
X14175219Y-14209142D02*
X14194267Y-14199619D01*
X14194267Y-14199619D02*
X14222838Y-14199619D01*
X14222838Y-14199619D02*
X14241886Y-14209142D01*
X14241886Y-14209142D02*
X14251410Y-14218666D01*
X14251410Y-14218666D02*
X14260934Y-14237714D01*
X14260934Y-14237714D02*
X14260934Y-14294857D01*
X14260934Y-14294857D02*
X14251410Y-14313904D01*
X14251410Y-14313904D02*
X14241886Y-14323428D01*
X14241886Y-14323428D02*
X14222838Y-14332952D01*
X14222838Y-14332952D02*
X14194267Y-14332952D01*
X14375219Y-14332952D02*
X14356172Y-14323428D01*
X14356172Y-14323428D02*
X14346648Y-14304381D01*
X14346648Y-14304381D02*
X14346648Y-14132952D01*
X14527600Y-14323428D02*
X14508553Y-14332952D01*
X14508553Y-14332952D02*
X14470457Y-14332952D01*
X14470457Y-14332952D02*
X14451410Y-14323428D01*
X14451410Y-14323428D02*
X14441886Y-14304381D01*
X14441886Y-14304381D02*
X14441886Y-14228190D01*
X14441886Y-14228190D02*
X14451410Y-14209142D01*
X14451410Y-14209142D02*
X14470457Y-14199619D01*
X14470457Y-14199619D02*
X14508553Y-14199619D01*
X14508553Y-14199619D02*
X14527600Y-14209142D01*
X14527600Y-14209142D02*
X14537124Y-14228190D01*
X14537124Y-14228190D02*
X14537124Y-14247238D01*
X14537124Y-14247238D02*
X14441886Y-14266285D01*
X14613315Y-14323428D02*
X14632362Y-14332952D01*
X14632362Y-14332952D02*
X14670457Y-14332952D01*
X14670457Y-14332952D02*
X14689505Y-14323428D01*
X14689505Y-14323428D02*
X14699029Y-14304381D01*
X14699029Y-14304381D02*
X14699029Y-14294857D01*
X14699029Y-14294857D02*
X14689505Y-14275809D01*
X14689505Y-14275809D02*
X14670457Y-14266285D01*
X14670457Y-14266285D02*
X14641886Y-14266285D01*
X14641886Y-14266285D02*
X14622838Y-14256762D01*
X14622838Y-14256762D02*
X14613315Y-14237714D01*
X14613315Y-14237714D02*
X14613315Y-14228190D01*
X14613315Y-14228190D02*
X14622838Y-14209142D01*
X14622838Y-14209142D02*
X14641886Y-14199619D01*
X14641886Y-14199619D02*
X14670457Y-14199619D01*
X14670457Y-14199619D02*
X14689505Y-14209142D01*
X14765696Y-14409142D02*
X14775219Y-14399619D01*
X14775219Y-14399619D02*
X14794267Y-14371047D01*
X14794267Y-14371047D02*
X14803791Y-14352000D01*
X14803791Y-14352000D02*
X14813315Y-14323428D01*
X14813315Y-14323428D02*
X14822838Y-14275809D01*
X14822838Y-14275809D02*
X14822838Y-14237714D01*
X14822838Y-14237714D02*
X14813315Y-14190095D01*
X14813315Y-14190095D02*
X14803791Y-14161523D01*
X14803791Y-14161523D02*
X14794267Y-14142476D01*
X14794267Y-14142476D02*
X14775219Y-14113904D01*
X14775219Y-14113904D02*
X14765696Y-14104381D01*
D12*
X9917633Y-14432468D02*
X9917633Y-14578468D01*
X9844633Y-14505468D02*
X9990633Y-14505468D01*
D11*
X10356171Y-14596952D02*
X10241886Y-14596952D01*
X10299029Y-14596952D02*
X10299029Y-14396952D01*
X10299029Y-14396952D02*
X10279981Y-14425523D01*
X10279981Y-14425523D02*
X10260933Y-14444571D01*
X10260933Y-14444571D02*
X10241886Y-14454095D01*
X10441886Y-14577904D02*
X10451410Y-14587428D01*
X10451410Y-14587428D02*
X10441886Y-14596952D01*
X10441886Y-14596952D02*
X10432362Y-14587428D01*
X10432362Y-14587428D02*
X10441886Y-14577904D01*
X10441886Y-14577904D02*
X10441886Y-14596952D01*
X10622838Y-14463619D02*
X10622838Y-14596952D01*
X10575219Y-14387428D02*
X10527600Y-14530285D01*
X10527600Y-14530285D02*
X10651410Y-14530285D01*
X10813314Y-14396952D02*
X10775219Y-14396952D01*
X10775219Y-14396952D02*
X10756171Y-14406476D01*
X10756171Y-14406476D02*
X10746648Y-14416000D01*
X10746648Y-14416000D02*
X10727600Y-14444571D01*
X10727600Y-14444571D02*
X10718076Y-14482666D01*
X10718076Y-14482666D02*
X10718076Y-14558857D01*
X10718076Y-14558857D02*
X10727600Y-14577904D01*
X10727600Y-14577904D02*
X10737124Y-14587428D01*
X10737124Y-14587428D02*
X10756171Y-14596952D01*
X10756171Y-14596952D02*
X10794267Y-14596952D01*
X10794267Y-14596952D02*
X10813314Y-14587428D01*
X10813314Y-14587428D02*
X10822838Y-14577904D01*
X10822838Y-14577904D02*
X10832362Y-14558857D01*
X10832362Y-14558857D02*
X10832362Y-14511238D01*
X10832362Y-14511238D02*
X10822838Y-14492190D01*
X10822838Y-14492190D02*
X10813314Y-14482666D01*
X10813314Y-14482666D02*
X10794267Y-14473142D01*
X10794267Y-14473142D02*
X10756171Y-14473142D01*
X10756171Y-14473142D02*
X10737124Y-14482666D01*
X10737124Y-14482666D02*
X10727600Y-14492190D01*
X10727600Y-14492190D02*
X10718076Y-14511238D01*
X10956171Y-14396952D02*
X10975219Y-14396952D01*
X10975219Y-14396952D02*
X10994267Y-14406476D01*
X10994267Y-14406476D02*
X11003791Y-14416000D01*
X11003791Y-14416000D02*
X11013314Y-14435047D01*
X11013314Y-14435047D02*
X11022838Y-14473142D01*
X11022838Y-14473142D02*
X11022838Y-14520762D01*
X11022838Y-14520762D02*
X11013314Y-14558857D01*
X11013314Y-14558857D02*
X11003791Y-14577904D01*
X11003791Y-14577904D02*
X10994267Y-14587428D01*
X10994267Y-14587428D02*
X10975219Y-14596952D01*
X10975219Y-14596952D02*
X10956171Y-14596952D01*
X10956171Y-14596952D02*
X10937124Y-14587428D01*
X10937124Y-14587428D02*
X10927600Y-14577904D01*
X10927600Y-14577904D02*
X10918076Y-14558857D01*
X10918076Y-14558857D02*
X10908552Y-14520762D01*
X10908552Y-14520762D02*
X10908552Y-14473142D01*
X10908552Y-14473142D02*
X10918076Y-14435047D01*
X10918076Y-14435047D02*
X10927600Y-14416000D01*
X10927600Y-14416000D02*
X10937124Y-14406476D01*
X10937124Y-14406476D02*
X10956171Y-14396952D01*
X11108552Y-14596952D02*
X11108552Y-14463619D01*
X11108552Y-14482666D02*
X11118076Y-14473142D01*
X11118076Y-14473142D02*
X11137124Y-14463619D01*
X11137124Y-14463619D02*
X11165695Y-14463619D01*
X11165695Y-14463619D02*
X11184743Y-14473142D01*
X11184743Y-14473142D02*
X11194267Y-14492190D01*
X11194267Y-14492190D02*
X11194267Y-14596952D01*
X11194267Y-14492190D02*
X11203790Y-14473142D01*
X11203790Y-14473142D02*
X11222838Y-14463619D01*
X11222838Y-14463619D02*
X11251409Y-14463619D01*
X11251409Y-14463619D02*
X11270457Y-14473142D01*
X11270457Y-14473142D02*
X11279981Y-14492190D01*
X11279981Y-14492190D02*
X11279981Y-14596952D01*
X11375219Y-14596952D02*
X11375219Y-14463619D01*
X11375219Y-14482666D02*
X11384743Y-14473142D01*
X11384743Y-14473142D02*
X11403790Y-14463619D01*
X11403790Y-14463619D02*
X11432362Y-14463619D01*
X11432362Y-14463619D02*
X11451410Y-14473142D01*
X11451410Y-14473142D02*
X11460933Y-14492190D01*
X11460933Y-14492190D02*
X11460933Y-14596952D01*
X11460933Y-14492190D02*
X11470457Y-14473142D01*
X11470457Y-14473142D02*
X11489505Y-14463619D01*
X11489505Y-14463619D02*
X11518076Y-14463619D01*
X11518076Y-14463619D02*
X11537124Y-14473142D01*
X11537124Y-14473142D02*
X11546648Y-14492190D01*
X11546648Y-14492190D02*
X11546648Y-14596952D01*
X11937124Y-14387428D02*
X11765695Y-14644571D01*
X12194267Y-14396952D02*
X12213314Y-14396952D01*
X12213314Y-14396952D02*
X12232362Y-14406476D01*
X12232362Y-14406476D02*
X12241886Y-14416000D01*
X12241886Y-14416000D02*
X12251410Y-14435047D01*
X12251410Y-14435047D02*
X12260933Y-14473142D01*
X12260933Y-14473142D02*
X12260933Y-14520762D01*
X12260933Y-14520762D02*
X12251410Y-14558857D01*
X12251410Y-14558857D02*
X12241886Y-14577904D01*
X12241886Y-14577904D02*
X12232362Y-14587428D01*
X12232362Y-14587428D02*
X12213314Y-14596952D01*
X12213314Y-14596952D02*
X12194267Y-14596952D01*
X12194267Y-14596952D02*
X12175219Y-14587428D01*
X12175219Y-14587428D02*
X12165695Y-14577904D01*
X12165695Y-14577904D02*
X12156172Y-14558857D01*
X12156172Y-14558857D02*
X12146648Y-14520762D01*
X12146648Y-14520762D02*
X12146648Y-14473142D01*
X12146648Y-14473142D02*
X12156172Y-14435047D01*
X12156172Y-14435047D02*
X12165695Y-14416000D01*
X12165695Y-14416000D02*
X12175219Y-14406476D01*
X12175219Y-14406476D02*
X12194267Y-14396952D01*
X12346648Y-14577904D02*
X12356172Y-14587428D01*
X12356172Y-14587428D02*
X12346648Y-14596952D01*
X12346648Y-14596952D02*
X12337124Y-14587428D01*
X12337124Y-14587428D02*
X12346648Y-14577904D01*
X12346648Y-14577904D02*
X12346648Y-14596952D01*
X12479981Y-14396952D02*
X12499029Y-14396952D01*
X12499029Y-14396952D02*
X12518076Y-14406476D01*
X12518076Y-14406476D02*
X12527600Y-14416000D01*
X12527600Y-14416000D02*
X12537124Y-14435047D01*
X12537124Y-14435047D02*
X12546648Y-14473142D01*
X12546648Y-14473142D02*
X12546648Y-14520762D01*
X12546648Y-14520762D02*
X12537124Y-14558857D01*
X12537124Y-14558857D02*
X12527600Y-14577904D01*
X12527600Y-14577904D02*
X12518076Y-14587428D01*
X12518076Y-14587428D02*
X12499029Y-14596952D01*
X12499029Y-14596952D02*
X12479981Y-14596952D01*
X12479981Y-14596952D02*
X12460933Y-14587428D01*
X12460933Y-14587428D02*
X12451410Y-14577904D01*
X12451410Y-14577904D02*
X12441886Y-14558857D01*
X12441886Y-14558857D02*
X12432362Y-14520762D01*
X12432362Y-14520762D02*
X12432362Y-14473142D01*
X12432362Y-14473142D02*
X12441886Y-14435047D01*
X12441886Y-14435047D02*
X12451410Y-14416000D01*
X12451410Y-14416000D02*
X12460933Y-14406476D01*
X12460933Y-14406476D02*
X12479981Y-14396952D01*
X12727600Y-14396952D02*
X12632362Y-14396952D01*
X12632362Y-14396952D02*
X12622838Y-14492190D01*
X12622838Y-14492190D02*
X12632362Y-14482666D01*
X12632362Y-14482666D02*
X12651410Y-14473142D01*
X12651410Y-14473142D02*
X12699029Y-14473142D01*
X12699029Y-14473142D02*
X12718076Y-14482666D01*
X12718076Y-14482666D02*
X12727600Y-14492190D01*
X12727600Y-14492190D02*
X12737124Y-14511238D01*
X12737124Y-14511238D02*
X12737124Y-14558857D01*
X12737124Y-14558857D02*
X12727600Y-14577904D01*
X12727600Y-14577904D02*
X12718076Y-14587428D01*
X12718076Y-14587428D02*
X12699029Y-14596952D01*
X12699029Y-14596952D02*
X12651410Y-14596952D01*
X12651410Y-14596952D02*
X12632362Y-14587428D01*
X12632362Y-14587428D02*
X12622838Y-14577904D01*
X12803791Y-14396952D02*
X12937124Y-14396952D01*
X12937124Y-14396952D02*
X12851410Y-14596952D01*
X13108553Y-14396952D02*
X13013314Y-14396952D01*
X13013314Y-14396952D02*
X13003791Y-14492190D01*
X13003791Y-14492190D02*
X13013314Y-14482666D01*
X13013314Y-14482666D02*
X13032362Y-14473142D01*
X13032362Y-14473142D02*
X13079981Y-14473142D01*
X13079981Y-14473142D02*
X13099029Y-14482666D01*
X13099029Y-14482666D02*
X13108553Y-14492190D01*
X13108553Y-14492190D02*
X13118076Y-14511238D01*
X13118076Y-14511238D02*
X13118076Y-14558857D01*
X13118076Y-14558857D02*
X13108553Y-14577904D01*
X13108553Y-14577904D02*
X13099029Y-14587428D01*
X13099029Y-14587428D02*
X13079981Y-14596952D01*
X13079981Y-14596952D02*
X13032362Y-14596952D01*
X13032362Y-14596952D02*
X13013314Y-14587428D01*
X13013314Y-14587428D02*
X13003791Y-14577904D01*
X13194267Y-14396952D02*
X13194267Y-14435047D01*
X13270457Y-14396952D02*
X13270457Y-14435047D01*
X13565696Y-14673142D02*
X13556172Y-14663619D01*
X13556172Y-14663619D02*
X13537124Y-14635047D01*
X13537124Y-14635047D02*
X13527600Y-14616000D01*
X13527600Y-14616000D02*
X13518076Y-14587428D01*
X13518076Y-14587428D02*
X13508553Y-14539809D01*
X13508553Y-14539809D02*
X13508553Y-14501714D01*
X13508553Y-14501714D02*
X13518076Y-14454095D01*
X13518076Y-14454095D02*
X13527600Y-14425523D01*
X13527600Y-14425523D02*
X13537124Y-14406476D01*
X13537124Y-14406476D02*
X13556172Y-14377904D01*
X13556172Y-14377904D02*
X13565696Y-14368381D01*
X13746648Y-14596952D02*
X13632362Y-14596952D01*
X13689505Y-14596952D02*
X13689505Y-14396952D01*
X13689505Y-14396952D02*
X13670457Y-14425523D01*
X13670457Y-14425523D02*
X13651410Y-14444571D01*
X13651410Y-14444571D02*
X13632362Y-14454095D01*
X13860934Y-14482666D02*
X13841886Y-14473142D01*
X13841886Y-14473142D02*
X13832362Y-14463619D01*
X13832362Y-14463619D02*
X13822838Y-14444571D01*
X13822838Y-14444571D02*
X13822838Y-14435047D01*
X13822838Y-14435047D02*
X13832362Y-14416000D01*
X13832362Y-14416000D02*
X13841886Y-14406476D01*
X13841886Y-14406476D02*
X13860934Y-14396952D01*
X13860934Y-14396952D02*
X13899029Y-14396952D01*
X13899029Y-14396952D02*
X13918076Y-14406476D01*
X13918076Y-14406476D02*
X13927600Y-14416000D01*
X13927600Y-14416000D02*
X13937124Y-14435047D01*
X13937124Y-14435047D02*
X13937124Y-14444571D01*
X13937124Y-14444571D02*
X13927600Y-14463619D01*
X13927600Y-14463619D02*
X13918076Y-14473142D01*
X13918076Y-14473142D02*
X13899029Y-14482666D01*
X13899029Y-14482666D02*
X13860934Y-14482666D01*
X13860934Y-14482666D02*
X13841886Y-14492190D01*
X13841886Y-14492190D02*
X13832362Y-14501714D01*
X13832362Y-14501714D02*
X13822838Y-14520762D01*
X13822838Y-14520762D02*
X13822838Y-14558857D01*
X13822838Y-14558857D02*
X13832362Y-14577904D01*
X13832362Y-14577904D02*
X13841886Y-14587428D01*
X13841886Y-14587428D02*
X13860934Y-14596952D01*
X13860934Y-14596952D02*
X13899029Y-14596952D01*
X13899029Y-14596952D02*
X13918076Y-14587428D01*
X13918076Y-14587428D02*
X13927600Y-14577904D01*
X13927600Y-14577904D02*
X13937124Y-14558857D01*
X13937124Y-14558857D02*
X13937124Y-14520762D01*
X13937124Y-14520762D02*
X13927600Y-14501714D01*
X13927600Y-14501714D02*
X13918076Y-14492190D01*
X13918076Y-14492190D02*
X13899029Y-14482666D01*
X14175219Y-14596952D02*
X14175219Y-14396952D01*
X14260934Y-14596952D02*
X14260934Y-14492190D01*
X14260934Y-14492190D02*
X14251410Y-14473142D01*
X14251410Y-14473142D02*
X14232362Y-14463619D01*
X14232362Y-14463619D02*
X14203791Y-14463619D01*
X14203791Y-14463619D02*
X14184743Y-14473142D01*
X14184743Y-14473142D02*
X14175219Y-14482666D01*
X14384743Y-14596952D02*
X14365696Y-14587428D01*
X14365696Y-14587428D02*
X14356172Y-14577904D01*
X14356172Y-14577904D02*
X14346648Y-14558857D01*
X14346648Y-14558857D02*
X14346648Y-14501714D01*
X14346648Y-14501714D02*
X14356172Y-14482666D01*
X14356172Y-14482666D02*
X14365696Y-14473142D01*
X14365696Y-14473142D02*
X14384743Y-14463619D01*
X14384743Y-14463619D02*
X14413315Y-14463619D01*
X14413315Y-14463619D02*
X14432362Y-14473142D01*
X14432362Y-14473142D02*
X14441886Y-14482666D01*
X14441886Y-14482666D02*
X14451410Y-14501714D01*
X14451410Y-14501714D02*
X14451410Y-14558857D01*
X14451410Y-14558857D02*
X14441886Y-14577904D01*
X14441886Y-14577904D02*
X14432362Y-14587428D01*
X14432362Y-14587428D02*
X14413315Y-14596952D01*
X14413315Y-14596952D02*
X14384743Y-14596952D01*
X14565696Y-14596952D02*
X14546648Y-14587428D01*
X14546648Y-14587428D02*
X14537124Y-14568381D01*
X14537124Y-14568381D02*
X14537124Y-14396952D01*
X14718077Y-14587428D02*
X14699029Y-14596952D01*
X14699029Y-14596952D02*
X14660934Y-14596952D01*
X14660934Y-14596952D02*
X14641886Y-14587428D01*
X14641886Y-14587428D02*
X14632362Y-14568381D01*
X14632362Y-14568381D02*
X14632362Y-14492190D01*
X14632362Y-14492190D02*
X14641886Y-14473142D01*
X14641886Y-14473142D02*
X14660934Y-14463619D01*
X14660934Y-14463619D02*
X14699029Y-14463619D01*
X14699029Y-14463619D02*
X14718077Y-14473142D01*
X14718077Y-14473142D02*
X14727600Y-14492190D01*
X14727600Y-14492190D02*
X14727600Y-14511238D01*
X14727600Y-14511238D02*
X14632362Y-14530285D01*
X14803791Y-14587428D02*
X14822838Y-14596952D01*
X14822838Y-14596952D02*
X14860934Y-14596952D01*
X14860934Y-14596952D02*
X14879981Y-14587428D01*
X14879981Y-14587428D02*
X14889505Y-14568381D01*
X14889505Y-14568381D02*
X14889505Y-14558857D01*
X14889505Y-14558857D02*
X14879981Y-14539809D01*
X14879981Y-14539809D02*
X14860934Y-14530285D01*
X14860934Y-14530285D02*
X14832362Y-14530285D01*
X14832362Y-14530285D02*
X14813315Y-14520762D01*
X14813315Y-14520762D02*
X14803791Y-14501714D01*
X14803791Y-14501714D02*
X14803791Y-14492190D01*
X14803791Y-14492190D02*
X14813315Y-14473142D01*
X14813315Y-14473142D02*
X14832362Y-14463619D01*
X14832362Y-14463619D02*
X14860934Y-14463619D01*
X14860934Y-14463619D02*
X14879981Y-14473142D01*
X14956172Y-14673142D02*
X14965696Y-14663619D01*
X14965696Y-14663619D02*
X14984743Y-14635047D01*
X14984743Y-14635047D02*
X14994267Y-14616000D01*
X14994267Y-14616000D02*
X15003791Y-14587428D01*
X15003791Y-14587428D02*
X15013315Y-14539809D01*
X15013315Y-14539809D02*
X15013315Y-14501714D01*
X15013315Y-14501714D02*
X15003791Y-14454095D01*
X15003791Y-14454095D02*
X14994267Y-14425523D01*
X14994267Y-14425523D02*
X14984743Y-14406476D01*
X14984743Y-14406476D02*
X14965696Y-14377904D01*
X14965696Y-14377904D02*
X14956172Y-14368381D01*
X9961344Y-14842180D02*
X9961344Y-14700757D01*
X9819921Y-14700757D01*
X9819921Y-14842180D01*
X9961344Y-14842180D01*
X10337124Y-14662952D02*
X10299029Y-14662952D01*
X10299029Y-14662952D02*
X10279981Y-14672476D01*
X10279981Y-14672476D02*
X10270457Y-14682000D01*
X10270457Y-14682000D02*
X10251410Y-14710571D01*
X10251410Y-14710571D02*
X10241886Y-14748666D01*
X10241886Y-14748666D02*
X10241886Y-14824857D01*
X10241886Y-14824857D02*
X10251410Y-14843904D01*
X10251410Y-14843904D02*
X10260933Y-14853428D01*
X10260933Y-14853428D02*
X10279981Y-14862952D01*
X10279981Y-14862952D02*
X10318076Y-14862952D01*
X10318076Y-14862952D02*
X10337124Y-14853428D01*
X10337124Y-14853428D02*
X10346648Y-14843904D01*
X10346648Y-14843904D02*
X10356171Y-14824857D01*
X10356171Y-14824857D02*
X10356171Y-14777238D01*
X10356171Y-14777238D02*
X10346648Y-14758190D01*
X10346648Y-14758190D02*
X10337124Y-14748666D01*
X10337124Y-14748666D02*
X10318076Y-14739142D01*
X10318076Y-14739142D02*
X10279981Y-14739142D01*
X10279981Y-14739142D02*
X10260933Y-14748666D01*
X10260933Y-14748666D02*
X10251410Y-14758190D01*
X10251410Y-14758190D02*
X10241886Y-14777238D01*
X10441886Y-14843904D02*
X10451410Y-14853428D01*
X10451410Y-14853428D02*
X10441886Y-14862952D01*
X10441886Y-14862952D02*
X10432362Y-14853428D01*
X10432362Y-14853428D02*
X10441886Y-14843904D01*
X10441886Y-14843904D02*
X10441886Y-14862952D01*
X10518076Y-14662952D02*
X10651410Y-14662952D01*
X10651410Y-14662952D02*
X10565695Y-14862952D01*
X10822838Y-14662952D02*
X10727600Y-14662952D01*
X10727600Y-14662952D02*
X10718076Y-14758190D01*
X10718076Y-14758190D02*
X10727600Y-14748666D01*
X10727600Y-14748666D02*
X10746648Y-14739142D01*
X10746648Y-14739142D02*
X10794267Y-14739142D01*
X10794267Y-14739142D02*
X10813314Y-14748666D01*
X10813314Y-14748666D02*
X10822838Y-14758190D01*
X10822838Y-14758190D02*
X10832362Y-14777238D01*
X10832362Y-14777238D02*
X10832362Y-14824857D01*
X10832362Y-14824857D02*
X10822838Y-14843904D01*
X10822838Y-14843904D02*
X10813314Y-14853428D01*
X10813314Y-14853428D02*
X10794267Y-14862952D01*
X10794267Y-14862952D02*
X10746648Y-14862952D01*
X10746648Y-14862952D02*
X10727600Y-14853428D01*
X10727600Y-14853428D02*
X10718076Y-14843904D01*
X11003791Y-14662952D02*
X10965695Y-14662952D01*
X10965695Y-14662952D02*
X10946648Y-14672476D01*
X10946648Y-14672476D02*
X10937124Y-14682000D01*
X10937124Y-14682000D02*
X10918076Y-14710571D01*
X10918076Y-14710571D02*
X10908552Y-14748666D01*
X10908552Y-14748666D02*
X10908552Y-14824857D01*
X10908552Y-14824857D02*
X10918076Y-14843904D01*
X10918076Y-14843904D02*
X10927600Y-14853428D01*
X10927600Y-14853428D02*
X10946648Y-14862952D01*
X10946648Y-14862952D02*
X10984743Y-14862952D01*
X10984743Y-14862952D02*
X11003791Y-14853428D01*
X11003791Y-14853428D02*
X11013314Y-14843904D01*
X11013314Y-14843904D02*
X11022838Y-14824857D01*
X11022838Y-14824857D02*
X11022838Y-14777238D01*
X11022838Y-14777238D02*
X11013314Y-14758190D01*
X11013314Y-14758190D02*
X11003791Y-14748666D01*
X11003791Y-14748666D02*
X10984743Y-14739142D01*
X10984743Y-14739142D02*
X10946648Y-14739142D01*
X10946648Y-14739142D02*
X10927600Y-14748666D01*
X10927600Y-14748666D02*
X10918076Y-14758190D01*
X10918076Y-14758190D02*
X10908552Y-14777238D01*
X11108552Y-14862952D02*
X11108552Y-14729619D01*
X11108552Y-14748666D02*
X11118076Y-14739142D01*
X11118076Y-14739142D02*
X11137124Y-14729619D01*
X11137124Y-14729619D02*
X11165695Y-14729619D01*
X11165695Y-14729619D02*
X11184743Y-14739142D01*
X11184743Y-14739142D02*
X11194267Y-14758190D01*
X11194267Y-14758190D02*
X11194267Y-14862952D01*
X11194267Y-14758190D02*
X11203790Y-14739142D01*
X11203790Y-14739142D02*
X11222838Y-14729619D01*
X11222838Y-14729619D02*
X11251409Y-14729619D01*
X11251409Y-14729619D02*
X11270457Y-14739142D01*
X11270457Y-14739142D02*
X11279981Y-14758190D01*
X11279981Y-14758190D02*
X11279981Y-14862952D01*
X11375219Y-14862952D02*
X11375219Y-14729619D01*
X11375219Y-14748666D02*
X11384743Y-14739142D01*
X11384743Y-14739142D02*
X11403790Y-14729619D01*
X11403790Y-14729619D02*
X11432362Y-14729619D01*
X11432362Y-14729619D02*
X11451410Y-14739142D01*
X11451410Y-14739142D02*
X11460933Y-14758190D01*
X11460933Y-14758190D02*
X11460933Y-14862952D01*
X11460933Y-14758190D02*
X11470457Y-14739142D01*
X11470457Y-14739142D02*
X11489505Y-14729619D01*
X11489505Y-14729619D02*
X11518076Y-14729619D01*
X11518076Y-14729619D02*
X11537124Y-14739142D01*
X11537124Y-14739142D02*
X11546648Y-14758190D01*
X11546648Y-14758190D02*
X11546648Y-14862952D01*
X11937124Y-14653428D02*
X11765695Y-14910571D01*
X12194267Y-14662952D02*
X12213314Y-14662952D01*
X12213314Y-14662952D02*
X12232362Y-14672476D01*
X12232362Y-14672476D02*
X12241886Y-14682000D01*
X12241886Y-14682000D02*
X12251410Y-14701047D01*
X12251410Y-14701047D02*
X12260933Y-14739142D01*
X12260933Y-14739142D02*
X12260933Y-14786762D01*
X12260933Y-14786762D02*
X12251410Y-14824857D01*
X12251410Y-14824857D02*
X12241886Y-14843904D01*
X12241886Y-14843904D02*
X12232362Y-14853428D01*
X12232362Y-14853428D02*
X12213314Y-14862952D01*
X12213314Y-14862952D02*
X12194267Y-14862952D01*
X12194267Y-14862952D02*
X12175219Y-14853428D01*
X12175219Y-14853428D02*
X12165695Y-14843904D01*
X12165695Y-14843904D02*
X12156172Y-14824857D01*
X12156172Y-14824857D02*
X12146648Y-14786762D01*
X12146648Y-14786762D02*
X12146648Y-14739142D01*
X12146648Y-14739142D02*
X12156172Y-14701047D01*
X12156172Y-14701047D02*
X12165695Y-14682000D01*
X12165695Y-14682000D02*
X12175219Y-14672476D01*
X12175219Y-14672476D02*
X12194267Y-14662952D01*
X12346648Y-14843904D02*
X12356172Y-14853428D01*
X12356172Y-14853428D02*
X12346648Y-14862952D01*
X12346648Y-14862952D02*
X12337124Y-14853428D01*
X12337124Y-14853428D02*
X12346648Y-14843904D01*
X12346648Y-14843904D02*
X12346648Y-14862952D01*
X12432362Y-14682000D02*
X12441886Y-14672476D01*
X12441886Y-14672476D02*
X12460933Y-14662952D01*
X12460933Y-14662952D02*
X12508553Y-14662952D01*
X12508553Y-14662952D02*
X12527600Y-14672476D01*
X12527600Y-14672476D02*
X12537124Y-14682000D01*
X12537124Y-14682000D02*
X12546648Y-14701047D01*
X12546648Y-14701047D02*
X12546648Y-14720095D01*
X12546648Y-14720095D02*
X12537124Y-14748666D01*
X12537124Y-14748666D02*
X12422838Y-14862952D01*
X12422838Y-14862952D02*
X12546648Y-14862952D01*
X12718076Y-14662952D02*
X12679981Y-14662952D01*
X12679981Y-14662952D02*
X12660933Y-14672476D01*
X12660933Y-14672476D02*
X12651410Y-14682000D01*
X12651410Y-14682000D02*
X12632362Y-14710571D01*
X12632362Y-14710571D02*
X12622838Y-14748666D01*
X12622838Y-14748666D02*
X12622838Y-14824857D01*
X12622838Y-14824857D02*
X12632362Y-14843904D01*
X12632362Y-14843904D02*
X12641886Y-14853428D01*
X12641886Y-14853428D02*
X12660933Y-14862952D01*
X12660933Y-14862952D02*
X12699029Y-14862952D01*
X12699029Y-14862952D02*
X12718076Y-14853428D01*
X12718076Y-14853428D02*
X12727600Y-14843904D01*
X12727600Y-14843904D02*
X12737124Y-14824857D01*
X12737124Y-14824857D02*
X12737124Y-14777238D01*
X12737124Y-14777238D02*
X12727600Y-14758190D01*
X12727600Y-14758190D02*
X12718076Y-14748666D01*
X12718076Y-14748666D02*
X12699029Y-14739142D01*
X12699029Y-14739142D02*
X12660933Y-14739142D01*
X12660933Y-14739142D02*
X12641886Y-14748666D01*
X12641886Y-14748666D02*
X12632362Y-14758190D01*
X12632362Y-14758190D02*
X12622838Y-14777238D01*
X12908553Y-14662952D02*
X12870457Y-14662952D01*
X12870457Y-14662952D02*
X12851410Y-14672476D01*
X12851410Y-14672476D02*
X12841886Y-14682000D01*
X12841886Y-14682000D02*
X12822838Y-14710571D01*
X12822838Y-14710571D02*
X12813314Y-14748666D01*
X12813314Y-14748666D02*
X12813314Y-14824857D01*
X12813314Y-14824857D02*
X12822838Y-14843904D01*
X12822838Y-14843904D02*
X12832362Y-14853428D01*
X12832362Y-14853428D02*
X12851410Y-14862952D01*
X12851410Y-14862952D02*
X12889505Y-14862952D01*
X12889505Y-14862952D02*
X12908553Y-14853428D01*
X12908553Y-14853428D02*
X12918076Y-14843904D01*
X12918076Y-14843904D02*
X12927600Y-14824857D01*
X12927600Y-14824857D02*
X12927600Y-14777238D01*
X12927600Y-14777238D02*
X12918076Y-14758190D01*
X12918076Y-14758190D02*
X12908553Y-14748666D01*
X12908553Y-14748666D02*
X12889505Y-14739142D01*
X12889505Y-14739142D02*
X12851410Y-14739142D01*
X12851410Y-14739142D02*
X12832362Y-14748666D01*
X12832362Y-14748666D02*
X12822838Y-14758190D01*
X12822838Y-14758190D02*
X12813314Y-14777238D01*
X13051410Y-14662952D02*
X13070457Y-14662952D01*
X13070457Y-14662952D02*
X13089505Y-14672476D01*
X13089505Y-14672476D02*
X13099029Y-14682000D01*
X13099029Y-14682000D02*
X13108553Y-14701047D01*
X13108553Y-14701047D02*
X13118076Y-14739142D01*
X13118076Y-14739142D02*
X13118076Y-14786762D01*
X13118076Y-14786762D02*
X13108553Y-14824857D01*
X13108553Y-14824857D02*
X13099029Y-14843904D01*
X13099029Y-14843904D02*
X13089505Y-14853428D01*
X13089505Y-14853428D02*
X13070457Y-14862952D01*
X13070457Y-14862952D02*
X13051410Y-14862952D01*
X13051410Y-14862952D02*
X13032362Y-14853428D01*
X13032362Y-14853428D02*
X13022838Y-14843904D01*
X13022838Y-14843904D02*
X13013314Y-14824857D01*
X13013314Y-14824857D02*
X13003791Y-14786762D01*
X13003791Y-14786762D02*
X13003791Y-14739142D01*
X13003791Y-14739142D02*
X13013314Y-14701047D01*
X13013314Y-14701047D02*
X13022838Y-14682000D01*
X13022838Y-14682000D02*
X13032362Y-14672476D01*
X13032362Y-14672476D02*
X13051410Y-14662952D01*
X13194267Y-14662952D02*
X13194267Y-14701047D01*
X13270457Y-14662952D02*
X13270457Y-14701047D01*
X13565696Y-14939142D02*
X13556172Y-14929619D01*
X13556172Y-14929619D02*
X13537124Y-14901047D01*
X13537124Y-14901047D02*
X13527600Y-14882000D01*
X13527600Y-14882000D02*
X13518076Y-14853428D01*
X13518076Y-14853428D02*
X13508553Y-14805809D01*
X13508553Y-14805809D02*
X13508553Y-14767714D01*
X13508553Y-14767714D02*
X13518076Y-14720095D01*
X13518076Y-14720095D02*
X13527600Y-14691523D01*
X13527600Y-14691523D02*
X13537124Y-14672476D01*
X13537124Y-14672476D02*
X13556172Y-14643904D01*
X13556172Y-14643904D02*
X13565696Y-14634381D01*
X13727600Y-14662952D02*
X13689505Y-14662952D01*
X13689505Y-14662952D02*
X13670457Y-14672476D01*
X13670457Y-14672476D02*
X13660934Y-14682000D01*
X13660934Y-14682000D02*
X13641886Y-14710571D01*
X13641886Y-14710571D02*
X13632362Y-14748666D01*
X13632362Y-14748666D02*
X13632362Y-14824857D01*
X13632362Y-14824857D02*
X13641886Y-14843904D01*
X13641886Y-14843904D02*
X13651410Y-14853428D01*
X13651410Y-14853428D02*
X13670457Y-14862952D01*
X13670457Y-14862952D02*
X13708553Y-14862952D01*
X13708553Y-14862952D02*
X13727600Y-14853428D01*
X13727600Y-14853428D02*
X13737124Y-14843904D01*
X13737124Y-14843904D02*
X13746648Y-14824857D01*
X13746648Y-14824857D02*
X13746648Y-14777238D01*
X13746648Y-14777238D02*
X13737124Y-14758190D01*
X13737124Y-14758190D02*
X13727600Y-14748666D01*
X13727600Y-14748666D02*
X13708553Y-14739142D01*
X13708553Y-14739142D02*
X13670457Y-14739142D01*
X13670457Y-14739142D02*
X13651410Y-14748666D01*
X13651410Y-14748666D02*
X13641886Y-14758190D01*
X13641886Y-14758190D02*
X13632362Y-14777238D01*
X13984743Y-14862952D02*
X13984743Y-14662952D01*
X14070457Y-14862952D02*
X14070457Y-14758190D01*
X14070457Y-14758190D02*
X14060934Y-14739142D01*
X14060934Y-14739142D02*
X14041886Y-14729619D01*
X14041886Y-14729619D02*
X14013315Y-14729619D01*
X14013315Y-14729619D02*
X13994267Y-14739142D01*
X13994267Y-14739142D02*
X13984743Y-14748666D01*
X14194267Y-14862952D02*
X14175219Y-14853428D01*
X14175219Y-14853428D02*
X14165696Y-14843904D01*
X14165696Y-14843904D02*
X14156172Y-14824857D01*
X14156172Y-14824857D02*
X14156172Y-14767714D01*
X14156172Y-14767714D02*
X14165696Y-14748666D01*
X14165696Y-14748666D02*
X14175219Y-14739142D01*
X14175219Y-14739142D02*
X14194267Y-14729619D01*
X14194267Y-14729619D02*
X14222838Y-14729619D01*
X14222838Y-14729619D02*
X14241886Y-14739142D01*
X14241886Y-14739142D02*
X14251410Y-14748666D01*
X14251410Y-14748666D02*
X14260934Y-14767714D01*
X14260934Y-14767714D02*
X14260934Y-14824857D01*
X14260934Y-14824857D02*
X14251410Y-14843904D01*
X14251410Y-14843904D02*
X14241886Y-14853428D01*
X14241886Y-14853428D02*
X14222838Y-14862952D01*
X14222838Y-14862952D02*
X14194267Y-14862952D01*
X14375219Y-14862952D02*
X14356172Y-14853428D01*
X14356172Y-14853428D02*
X14346648Y-14834381D01*
X14346648Y-14834381D02*
X14346648Y-14662952D01*
X14527600Y-14853428D02*
X14508553Y-14862952D01*
X14508553Y-14862952D02*
X14470457Y-14862952D01*
X14470457Y-14862952D02*
X14451410Y-14853428D01*
X14451410Y-14853428D02*
X14441886Y-14834381D01*
X14441886Y-14834381D02*
X14441886Y-14758190D01*
X14441886Y-14758190D02*
X14451410Y-14739142D01*
X14451410Y-14739142D02*
X14470457Y-14729619D01*
X14470457Y-14729619D02*
X14508553Y-14729619D01*
X14508553Y-14729619D02*
X14527600Y-14739142D01*
X14527600Y-14739142D02*
X14537124Y-14758190D01*
X14537124Y-14758190D02*
X14537124Y-14777238D01*
X14537124Y-14777238D02*
X14441886Y-14796285D01*
X14613315Y-14853428D02*
X14632362Y-14862952D01*
X14632362Y-14862952D02*
X14670457Y-14862952D01*
X14670457Y-14862952D02*
X14689505Y-14853428D01*
X14689505Y-14853428D02*
X14699029Y-14834381D01*
X14699029Y-14834381D02*
X14699029Y-14824857D01*
X14699029Y-14824857D02*
X14689505Y-14805809D01*
X14689505Y-14805809D02*
X14670457Y-14796285D01*
X14670457Y-14796285D02*
X14641886Y-14796285D01*
X14641886Y-14796285D02*
X14622838Y-14786762D01*
X14622838Y-14786762D02*
X14613315Y-14767714D01*
X14613315Y-14767714D02*
X14613315Y-14758190D01*
X14613315Y-14758190D02*
X14622838Y-14739142D01*
X14622838Y-14739142D02*
X14641886Y-14729619D01*
X14641886Y-14729619D02*
X14670457Y-14729619D01*
X14670457Y-14729619D02*
X14689505Y-14739142D01*
X14765696Y-14939142D02*
X14775219Y-14929619D01*
X14775219Y-14929619D02*
X14794267Y-14901047D01*
X14794267Y-14901047D02*
X14803791Y-14882000D01*
X14803791Y-14882000D02*
X14813315Y-14853428D01*
X14813315Y-14853428D02*
X14822838Y-14805809D01*
X14822838Y-14805809D02*
X14822838Y-14767714D01*
X14822838Y-14767714D02*
X14813315Y-14720095D01*
X14813315Y-14720095D02*
X14803791Y-14691523D01*
X14803791Y-14691523D02*
X14794267Y-14672476D01*
X14794267Y-14672476D02*
X14775219Y-14643904D01*
X14775219Y-14643904D02*
X14765696Y-14634381D01*
M02*
