%TF.GenerationSoftware,KiCad,Pcbnew,7.0.11*%
%TF.CreationDate,2024-03-27T11:39:53-04:00*%
%TF.ProjectId,Sensor-Board,53656e73-6f72-42d4-926f-6172642e6b69,rev?*%
%TF.SameCoordinates,Original*%
%TF.FileFunction,Copper,L2,Bot*%
%TF.FilePolarity,Positive*%
%FSLAX46Y46*%
G04 Gerber Fmt 4.6, Leading zero omitted, Abs format (unit mm)*
G04 Created by KiCad (PCBNEW 7.0.11) date 2024-03-27 11:39:53*
%MOMM*%
%LPD*%
G01*
G04 APERTURE LIST*
G04 Aperture macros list*
%AMRoundRect*
0 Rectangle with rounded corners*
0 $1 Rounding radius*
0 $2 $3 $4 $5 $6 $7 $8 $9 X,Y pos of 4 corners*
0 Add a 4 corners polygon primitive as box body*
4,1,4,$2,$3,$4,$5,$6,$7,$8,$9,$2,$3,0*
0 Add four circle primitives for the rounded corners*
1,1,$1+$1,$2,$3*
1,1,$1+$1,$4,$5*
1,1,$1+$1,$6,$7*
1,1,$1+$1,$8,$9*
0 Add four rect primitives between the rounded corners*
20,1,$1+$1,$2,$3,$4,$5,0*
20,1,$1+$1,$4,$5,$6,$7,0*
20,1,$1+$1,$6,$7,$8,$9,0*
20,1,$1+$1,$8,$9,$2,$3,0*%
G04 Aperture macros list end*
%TA.AperFunction,ComponentPad*%
%ADD10C,1.498600*%
%TD*%
%TA.AperFunction,ComponentPad*%
%ADD11C,10.500000*%
%TD*%
%TA.AperFunction,ComponentPad*%
%ADD12C,1.830000*%
%TD*%
%TA.AperFunction,SMDPad,CuDef*%
%ADD13RoundRect,0.125000X0.125000X0.137500X-0.125000X0.137500X-0.125000X-0.137500X0.125000X-0.137500X0*%
%TD*%
%TA.AperFunction,ViaPad*%
%ADD14C,0.800000*%
%TD*%
%TA.AperFunction,Conductor*%
%ADD15C,0.200000*%
%TD*%
%TA.AperFunction,Conductor*%
%ADD16C,0.300000*%
%TD*%
%TA.AperFunction,Conductor*%
%ADD17C,0.500000*%
%TD*%
%TA.AperFunction,Conductor*%
%ADD18C,0.150000*%
%TD*%
G04 APERTURE END LIST*
D10*
%TO.P,J2,1,1*%
%TO.N,GND*%
X171725000Y-78200000D03*
%TO.P,J2,2,2*%
%TO.N,MUX_SDA*%
X171725000Y-80700000D03*
%TO.P,J2,3,3*%
%TO.N,MUX_SCL*%
X171725000Y-83200000D03*
%TO.P,J2,4,4*%
%TO.N,+3.3V*%
X171725000Y-85700000D03*
%TD*%
D11*
%TO.P,H2,*%
%TO.N,*%
X106450200Y-127058400D03*
%TD*%
%TO.P,H1,*%
%TO.N,*%
X106450200Y-64236400D03*
%TD*%
D12*
%TO.P,U27,1,Count*%
%TO.N,Count1_CO*%
X127500000Y-92590000D03*
%TO.P,U27,2,Sens*%
%TO.N,Sens1_CO*%
X127500000Y-90040000D03*
%TO.P,U27,3,Ref*%
%TO.N,Ref1_CO*%
X127500000Y-87500000D03*
%TD*%
D11*
%TO.P,H6,*%
%TO.N,*%
X168934200Y-127096400D03*
%TD*%
D12*
%TO.P,U28,1,Count*%
%TO.N,Count1_SO2*%
X147850000Y-87380000D03*
%TO.P,U28,2,Sens*%
%TO.N,Sens1_SO2*%
X147850000Y-89930000D03*
%TO.P,U28,3,Ref*%
%TO.N,Ref1_SO2*%
X147850000Y-92470000D03*
%TD*%
D11*
%TO.P,H4,*%
%TO.N,*%
X168934200Y-95627500D03*
%TD*%
%TO.P,H5,*%
%TO.N,*%
X168934200Y-64196600D03*
%TD*%
%TO.P,H3,*%
%TO.N,*%
X106450200Y-95627500D03*
%TD*%
D12*
%TO.P,U23,1,Count*%
%TO.N,Count1_NO2*%
X140140000Y-108750000D03*
%TO.P,U23,2,Sens*%
%TO.N,Sens1_NO2*%
X137590000Y-108750000D03*
%TO.P,U23,3,Ref*%
%TO.N,Ref1_NO2*%
X135050000Y-108750000D03*
%TD*%
%TO.P,U30,1,Count*%
%TO.N,Count2_CO*%
X147850000Y-103250000D03*
%TO.P,U30,2,Sens*%
%TO.N,Sens2_CO*%
X147850000Y-100700000D03*
%TO.P,U30,3,Ref*%
%TO.N,Ref2_CO*%
X147850000Y-98160000D03*
%TD*%
%TO.P,U29,1,Count*%
%TO.N,Count2_NO2*%
X140190000Y-82200000D03*
%TO.P,U29,2,Sens*%
%TO.N,Sens2_NO2*%
X137640000Y-82200000D03*
%TO.P,U29,3,Ref*%
%TO.N,Ref2_NO2*%
X135100000Y-82200000D03*
%TD*%
%TO.P,U31,1,Count*%
%TO.N,Count2_SO2*%
X127500000Y-98110000D03*
%TO.P,U31,2,Sens*%
%TO.N,Sens2_SO2*%
X127500000Y-100660000D03*
%TO.P,U31,3,Ref*%
%TO.N,Ref2_SO2*%
X127500000Y-103200000D03*
%TD*%
D13*
%TO.P,U10,1,GND*%
%TO.N,GND*%
X123010000Y-91650000D03*
%TO.P,U10,2,CSB*%
%TO.N,+3.3V*%
X122210000Y-91650000D03*
%TO.P,U10,3,SDI*%
%TO.N,680_SDA1*%
X121410000Y-91650000D03*
%TO.P,U10,4,SCK*%
%TO.N,680_SCL1*%
X120610000Y-91650000D03*
%TO.P,U10,5,SDO*%
%TO.N,+3.3V*%
X120610000Y-94025000D03*
%TO.P,U10,6,VDDIO*%
X121410000Y-94025000D03*
%TO.P,U10,7,GND*%
%TO.N,GND*%
X122210000Y-94025000D03*
%TO.P,U10,8,VDD*%
%TO.N,+3.3V*%
X123010000Y-94025000D03*
%TD*%
D14*
%TO.N,Count1_CO*%
X130570000Y-120280000D03*
X128690000Y-128070000D03*
%TO.N,Count1_SO2*%
X125533600Y-130400000D03*
%TO.N,AOut1_NO2*%
X113350000Y-109020000D03*
X113850000Y-112125000D03*
X125840000Y-114000000D03*
X138145836Y-124350951D03*
X113350000Y-106440000D03*
X111600000Y-111350000D03*
%TO.N,Net-(U14--IN)*%
X140730000Y-122880000D03*
X142600107Y-121462295D03*
%TO.N,+3.3V*%
X121980000Y-118670000D03*
X114460000Y-89080000D03*
X114340000Y-110140000D03*
X122170000Y-72430000D03*
X153190000Y-72330000D03*
X117675000Y-71375000D03*
X161150000Y-97325000D03*
X141570000Y-118680000D03*
X133970000Y-118680000D03*
X114350000Y-80380000D03*
X104200000Y-72650000D03*
X161225000Y-80365000D03*
X156800000Y-113400000D03*
X156800000Y-118750000D03*
X136360000Y-118830000D03*
X161060000Y-101710000D03*
X114460000Y-102200000D03*
%TO.N,GND*%
X103890000Y-89110000D03*
X145180000Y-131990000D03*
X118750000Y-130900000D03*
X118780000Y-58590000D03*
X118780000Y-62280000D03*
X113250000Y-81925000D03*
X100948959Y-104801041D03*
X141825000Y-132550000D03*
X143000000Y-65750000D03*
X101000000Y-99650000D03*
X100870000Y-90985000D03*
X102900000Y-75475000D03*
X104540000Y-113280000D03*
X118750000Y-127300000D03*
X151740000Y-67860000D03*
X143450000Y-70025000D03*
X145075000Y-70025000D03*
X122825000Y-87900000D03*
X103275000Y-105550000D03*
X149640000Y-130940000D03*
X110230000Y-102310000D03*
X112366550Y-109200000D03*
X117225000Y-101675000D03*
X103070000Y-83330000D03*
X154950000Y-58650000D03*
X122925000Y-120450000D03*
X117575000Y-65610000D03*
X117200000Y-98550000D03*
X110940000Y-88910000D03*
X165450000Y-113975000D03*
X168625000Y-108500000D03*
%TO.N,AOut2_NO2*%
X144289720Y-59902262D03*
X105975000Y-85720000D03*
X140249986Y-59910000D03*
X137990436Y-59693910D03*
%TO.N,Net-(U24--IN)*%
X139750000Y-58835000D03*
X142550000Y-58600000D03*
%TO.N,AOut2_CO*%
X140073385Y-64171029D03*
X144289479Y-63902585D03*
%TO.N,AOut2_SO2*%
X141100000Y-68675000D03*
X146425000Y-65675000D03*
%TO.N,Net-(U8--IN)*%
X139711935Y-67295426D03*
X142463123Y-66593663D03*
%TO.N,Count2_CO*%
X130362925Y-63889656D03*
X134400000Y-70800000D03*
%TO.N,Count2_SO2*%
X123130000Y-67640000D03*
X114700000Y-67640000D03*
%TO.N,Net-(U5-VIN2N)*%
X101553689Y-84021373D03*
X104825000Y-85700000D03*
%TO.N,Net-(U5-VIN2P)*%
X107590025Y-84770025D03*
X101690189Y-82510863D03*
%TO.N,Net-(U21--IN)*%
X142566169Y-126186218D03*
X140680816Y-127046911D03*
%TO.N,Count1_NO2*%
X138290000Y-119890000D03*
X134726591Y-120986094D03*
%TO.N,Net-(U22--IN)*%
X140778907Y-131286282D03*
X142615769Y-130275819D03*
%TO.N,Ref1_CO*%
X130366972Y-127998215D03*
X132651617Y-120320000D03*
%TO.N,Ref1_SO2*%
X129900000Y-132125000D03*
%TO.N,Sens1_NO2*%
X138289975Y-120890002D03*
X138042155Y-122864799D03*
%TO.N,Sens2_NO2*%
X128760000Y-60795000D03*
X130325000Y-73800025D03*
%TO.N,Sens2_CO*%
X134425000Y-72025000D03*
X129785000Y-64990000D03*
%TO.N,Sens2_SO2*%
X124025000Y-71500000D03*
X123420000Y-73730000D03*
%TO.N,680_SDA2*%
X122756198Y-116820280D03*
X117430000Y-110140000D03*
X133978714Y-116680123D03*
X102270928Y-110628192D03*
X141571494Y-116660064D03*
%TO.N,680_SCL2*%
X116350000Y-110110000D03*
X118760000Y-103060000D03*
X133984842Y-117680107D03*
X141560000Y-117660000D03*
X116150000Y-103450000D03*
X122771055Y-117820000D03*
%TO.N,680_SDA1*%
X110850000Y-79142582D03*
X114542525Y-75407475D03*
X102940703Y-77458193D03*
X119590000Y-86125000D03*
X112060000Y-79060000D03*
%TO.N,680_SCL1*%
X103116722Y-78442776D03*
X113325000Y-75475000D03*
X105900000Y-72725000D03*
X144080000Y-115110000D03*
X120790000Y-110170000D03*
X171076225Y-115976225D03*
X118470000Y-87690000D03*
X122730309Y-113560051D03*
X168786274Y-115636274D03*
X131248398Y-114979140D03*
%TO.N,ADC1_SCL*%
X102875000Y-112841833D03*
X102264486Y-116393367D03*
%TO.N,ADC3_SDA*%
X102011464Y-86060000D03*
X106225000Y-83180252D03*
X108675000Y-76725000D03*
X100725411Y-80800000D03*
%TO.N,ADC4_SCL*%
X158500000Y-62600000D03*
X160950000Y-62600000D03*
%TO.N,Ref2_NO2*%
X129124822Y-73800178D03*
X128000896Y-60144026D03*
%TO.N,Ref2_CO*%
X129090818Y-63565000D03*
X134425000Y-73275000D03*
%TO.N,Ref2_SO2*%
X125200000Y-71500000D03*
X124418649Y-73782013D03*
%TO.N,Sens1_CO*%
X129551740Y-128577355D03*
X131569943Y-120280000D03*
%TO.N,Sens1_SO2*%
X128670000Y-132520000D03*
X132925000Y-132300000D03*
X136502399Y-131515348D03*
%TO.N,Net-(U32-SC0)*%
X146210000Y-115110000D03*
X129248583Y-114963258D03*
%TO.N,Net-(U32-SD0)*%
X120495075Y-118387157D03*
X128250000Y-114910000D03*
X146200000Y-113825000D03*
X107530000Y-113100000D03*
%TO.N,Net-(U32-SC1)*%
X165050000Y-118725000D03*
X171100000Y-111300000D03*
%TO.N,Net-(U32-SD1)*%
X169925000Y-111325000D03*
X163800000Y-118750000D03*
%TO.N,Net-(U32-SC2)*%
X172225000Y-111275000D03*
X173650000Y-114275000D03*
%TO.N,Net-(U32-SD2)*%
X130248401Y-114982467D03*
X121930000Y-110170000D03*
X145079990Y-115104949D03*
X122760000Y-112520000D03*
%TO.N,Net-(U32-SC3)*%
X117370000Y-86300000D03*
X113850000Y-86300000D03*
X118570000Y-110170000D03*
X141569672Y-115660063D03*
X122748909Y-115820304D03*
X134002928Y-115680191D03*
%TO.N,Net-(U32-SD3)*%
X122746844Y-114690084D03*
X132390000Y-115040000D03*
X112100000Y-75425000D03*
X119670000Y-110180000D03*
X143040000Y-115140000D03*
X108680000Y-75490000D03*
%TO.N,Net-(U32-SC4)*%
X173927818Y-109447182D03*
X163800000Y-104690000D03*
%TO.N,Net-(U32-SD4)*%
X173825000Y-108325000D03*
X162575000Y-104650000D03*
%TD*%
D15*
%TO.N,Count1_CO*%
X130570000Y-123493248D02*
X129120000Y-124943248D01*
X129120000Y-124943248D02*
X129120000Y-127640000D01*
X130570000Y-120280000D02*
X130570000Y-123493248D01*
X129120000Y-127640000D02*
X128690000Y-128070000D01*
%TO.N,Count1_SO2*%
X125938614Y-122875838D02*
X124350000Y-121287224D01*
X125938614Y-129404349D02*
X125938614Y-122875838D01*
X124340000Y-110890000D02*
X147850000Y-87380000D01*
X124350000Y-121287224D02*
X124350000Y-120925000D01*
X125533600Y-129809363D02*
X125938614Y-129404349D01*
X124340000Y-120915000D02*
X124340000Y-110890000D01*
X125533600Y-130400000D02*
X125533600Y-129809363D01*
X124350000Y-120925000D02*
X124340000Y-120915000D01*
%TO.N,AOut1_NO2*%
X130330000Y-119580000D02*
X132901567Y-119580000D01*
X125840000Y-114000000D02*
X125840000Y-115090000D01*
X132901567Y-119580000D02*
X133351617Y-120030050D01*
X134693881Y-124350951D02*
X138145836Y-124350951D01*
X113850000Y-112125000D02*
X112704173Y-110979173D01*
X111970827Y-110979173D02*
X111600000Y-111350000D01*
X133351617Y-123008687D02*
X134693881Y-124350951D01*
X133351617Y-120030050D02*
X133351617Y-123008687D01*
X112704173Y-110979173D02*
X111970827Y-110979173D01*
X113350000Y-106440000D02*
X113350000Y-109020000D01*
X125840000Y-115090000D02*
X130330000Y-119580000D01*
%TO.N,Net-(U14--IN)*%
X141182402Y-122880000D02*
X142600107Y-121462295D01*
X140730000Y-122880000D02*
X141182402Y-122880000D01*
D16*
%TO.N,+3.3V*%
X121625000Y-93400000D02*
X121410000Y-93615000D01*
D17*
X114460000Y-102200000D02*
X114440000Y-102180000D01*
X114440000Y-102180000D02*
X114440000Y-94900000D01*
X114340000Y-111030000D02*
X121980000Y-118670000D01*
X161225000Y-80365000D02*
X153190000Y-72330000D01*
X114440000Y-94900000D02*
X114440000Y-89100000D01*
D16*
X122210000Y-93300000D02*
X122210000Y-91650000D01*
D17*
X114340000Y-110140000D02*
X114340000Y-111030000D01*
X122170000Y-72500000D02*
X122170000Y-72430000D01*
D16*
X122647499Y-93400000D02*
X122310000Y-93400000D01*
D17*
X161150000Y-97325000D02*
X161150000Y-101620000D01*
X104200000Y-72650000D02*
X105475000Y-71375000D01*
D16*
X122310000Y-93400000D02*
X121625000Y-93400000D01*
D17*
X161150000Y-101620000D02*
X161060000Y-101710000D01*
X156800000Y-118750000D02*
X156800000Y-113400000D01*
X114350000Y-80320000D02*
X122170000Y-72500000D01*
X141570000Y-118680000D02*
X133970000Y-118680000D01*
X114440000Y-89100000D02*
X114460000Y-89080000D01*
X105475000Y-71375000D02*
X117675000Y-71375000D01*
D16*
X123010000Y-93762501D02*
X122647499Y-93400000D01*
X121410000Y-94025000D02*
X115315000Y-94025000D01*
X115315000Y-94025000D02*
X114440000Y-94900000D01*
X122310000Y-93400000D02*
X122210000Y-93300000D01*
X121410000Y-93615000D02*
X121410000Y-94025000D01*
X123010000Y-94025000D02*
X123010000Y-93762501D01*
D17*
X114350000Y-80380000D02*
X114350000Y-80320000D01*
D16*
%TO.N,GND*%
X117225000Y-101675000D02*
X117225000Y-98575000D01*
X141825000Y-132550000D02*
X144620000Y-132550000D01*
X123610000Y-94362716D02*
X123610000Y-92250000D01*
X123610000Y-92250000D02*
X123010000Y-91650000D01*
X117225000Y-98575000D02*
X117200000Y-98550000D01*
X123010000Y-88085000D02*
X122825000Y-87900000D01*
D15*
X102526041Y-104801041D02*
X103275000Y-105550000D01*
X100948959Y-104801041D02*
X102526041Y-104801041D01*
D16*
X122210000Y-94162716D02*
X122684784Y-94637500D01*
D15*
X102871739Y-105146739D02*
X103275000Y-105550000D01*
X100920000Y-104045000D02*
X100920000Y-104020000D01*
D16*
X144620000Y-132550000D02*
X145180000Y-131990000D01*
X123010000Y-91650000D02*
X123010000Y-88085000D01*
X122210000Y-94025000D02*
X122210000Y-94162716D01*
X122684784Y-94637500D02*
X123335216Y-94637500D01*
X123335216Y-94637500D02*
X123610000Y-94362716D01*
D15*
%TO.N,AOut2_NO2*%
X105975000Y-85720000D02*
X107630000Y-85720000D01*
X137550000Y-59300000D02*
X137930000Y-59680000D01*
X127854972Y-59300000D02*
X137550000Y-59300000D01*
D18*
X144289720Y-59902262D02*
X144271982Y-59920000D01*
D15*
X127175000Y-66175000D02*
X127175000Y-59840405D01*
X107630000Y-85720000D02*
X127175000Y-66175000D01*
X127579972Y-59575000D02*
X127854972Y-59300000D01*
D18*
X140259986Y-59920000D02*
X140249986Y-59910000D01*
X144271982Y-59920000D02*
X140259986Y-59920000D01*
D15*
X127175000Y-59840405D02*
X127440405Y-59575000D01*
X127440405Y-59575000D02*
X127579972Y-59575000D01*
%TO.N,Net-(U24--IN)*%
X139985000Y-58600000D02*
X139750000Y-58835000D01*
X142550000Y-58600000D02*
X139985000Y-58600000D01*
D18*
%TO.N,AOut2_CO*%
X140073385Y-64171029D02*
X140474414Y-63770000D01*
X140474414Y-63770000D02*
X144350000Y-63770000D01*
%TO.N,AOut2_SO2*%
X141415000Y-68360000D02*
X141100000Y-68675000D01*
X146425000Y-65675000D02*
X143740000Y-68360000D01*
X143740000Y-68360000D02*
X141415000Y-68360000D01*
D15*
%TO.N,Net-(U8--IN)*%
X141761360Y-67295426D02*
X139711935Y-67295426D01*
X142463123Y-66593663D02*
X141761360Y-67295426D01*
%TO.N,Count2_CO*%
X134400000Y-70800000D02*
X133575000Y-71625000D01*
X133575000Y-71625000D02*
X132203484Y-71625000D01*
X130550000Y-69971516D02*
X130550000Y-64076731D01*
X132203484Y-71625000D02*
X130550000Y-69971516D01*
X130550000Y-64076731D02*
X130362925Y-63889656D01*
D18*
%TO.N,Count2_SO2*%
X114710000Y-67650000D02*
X114700000Y-67640000D01*
D15*
X117670000Y-67650000D02*
X123120000Y-67650000D01*
X117670000Y-67650000D02*
X114710000Y-67650000D01*
X123120000Y-67650000D02*
X123130000Y-67640000D01*
%TO.N,Net-(U5-VIN2N)*%
X104825000Y-85700000D02*
X103232316Y-85700000D01*
X103232316Y-85700000D02*
X101553689Y-84021373D01*
%TO.N,Net-(U5-VIN2P)*%
X103505050Y-84975000D02*
X101690189Y-83160139D01*
X107590025Y-84770025D02*
X107385050Y-84975000D01*
X101690189Y-83160139D02*
X101690189Y-82510863D01*
X107385050Y-84975000D02*
X103505050Y-84975000D01*
%TO.N,Net-(U21--IN)*%
X140680816Y-127046911D02*
X141705476Y-127046911D01*
X141705476Y-127046911D02*
X142566169Y-126186218D01*
%TO.N,Count1_NO2*%
X137193906Y-120986094D02*
X138290000Y-119890000D01*
X134726591Y-120986094D02*
X137193906Y-120986094D01*
%TO.N,Net-(U22--IN)*%
X140778907Y-131286282D02*
X141605306Y-131286282D01*
X141605306Y-131286282D02*
X142615769Y-130275819D01*
%TO.N,Ref1_CO*%
X130160000Y-127791243D02*
X130366972Y-127998215D01*
X132651617Y-122543002D02*
X130160000Y-125034619D01*
X130160000Y-125034619D02*
X130160000Y-127791243D01*
X132651617Y-120320000D02*
X132651617Y-122543002D01*
%TO.N,Ref1_SO2*%
X126738614Y-122544466D02*
X125150000Y-120955852D01*
X125140000Y-111221372D02*
X143891372Y-92470000D01*
X143891372Y-92470000D02*
X147850000Y-92470000D01*
X129790636Y-132125000D02*
X126738614Y-129072978D01*
X125140000Y-120583630D02*
X125140000Y-111221372D01*
X129900000Y-132125000D02*
X129790636Y-132125000D01*
X125150000Y-120593630D02*
X125140000Y-120583630D01*
X125150000Y-120955852D02*
X125150000Y-120593630D01*
X126738614Y-129072978D02*
X126738614Y-122544466D01*
%TO.N,Sens1_NO2*%
X138042155Y-122864799D02*
X138042155Y-121137822D01*
X138042155Y-121137822D02*
X138289975Y-120890002D01*
%TO.N,Sens2_NO2*%
X128200000Y-71885405D02*
X128200000Y-61355000D01*
X130325000Y-73800025D02*
X130114620Y-73800025D01*
X128200000Y-61355000D02*
X128760000Y-60795000D01*
X130114620Y-73800025D02*
X128200000Y-71885405D01*
%TO.N,Sens2_CO*%
X134425000Y-72025000D02*
X132037798Y-72025000D01*
X130110000Y-70097202D02*
X130110000Y-65315000D01*
X130110000Y-65315000D02*
X129785000Y-64990000D01*
X132037798Y-72025000D02*
X130110000Y-70097202D01*
D18*
%TO.N,Sens2_SO2*%
X124025000Y-71500000D02*
X123420000Y-72105000D01*
X123420000Y-72105000D02*
X123420000Y-73730000D01*
D15*
%TO.N,680_SDA2*%
X102270928Y-110628192D02*
X102319947Y-110579173D01*
X140500050Y-117730000D02*
X141569986Y-116660064D01*
X114199950Y-109160000D02*
X116450000Y-109160000D01*
X117430000Y-112776496D02*
X121473784Y-116820280D01*
X141569986Y-116660064D02*
X141571494Y-116660064D01*
X121473784Y-116820280D02*
X122756198Y-116820280D01*
X117430000Y-110140000D02*
X117430000Y-112776496D01*
X112780777Y-110579173D02*
X114199950Y-109160000D01*
X133978714Y-116680123D02*
X135028591Y-117730000D01*
X135028591Y-117730000D02*
X140500050Y-117730000D01*
X116450000Y-109160000D02*
X117430000Y-110140000D01*
X102319947Y-110579173D02*
X112780777Y-110579173D01*
%TO.N,680_SCL2*%
X141090000Y-118130000D02*
X141560000Y-117660000D01*
X118370000Y-103450000D02*
X118760000Y-103060000D01*
X116350000Y-110110000D02*
X116350000Y-112262182D01*
X121907818Y-117820000D02*
X122771055Y-117820000D01*
X116350000Y-112262182D02*
X121907818Y-117820000D01*
X133984842Y-117680107D02*
X134434735Y-118130000D01*
X116150000Y-103450000D02*
X118370000Y-103450000D01*
X134434735Y-118130000D02*
X141090000Y-118130000D01*
%TO.N,680_SDA1*%
X102416722Y-78746722D02*
X102416722Y-77982174D01*
X112060000Y-79060000D02*
X113158628Y-79060000D01*
X119170000Y-89342994D02*
X121410000Y-91582994D01*
X113158628Y-79060000D02*
X114542525Y-77676103D01*
X102416722Y-77982174D02*
X102940703Y-77458193D01*
X114542525Y-77676103D02*
X114542525Y-75407475D01*
X119590000Y-86125000D02*
X119170000Y-86545000D01*
X102820000Y-79150000D02*
X102416722Y-78746722D01*
X110850000Y-79142582D02*
X110842582Y-79150000D01*
X110842582Y-79150000D02*
X102820000Y-79150000D01*
X121410000Y-91582994D02*
X121410000Y-91650000D01*
X119170000Y-86545000D02*
X119170000Y-89342994D01*
%TO.N,680_SCL1*%
X103116722Y-78442776D02*
X103439498Y-78120000D01*
X111687468Y-78442582D02*
X111770050Y-78360000D01*
X142318679Y-114340000D02*
X131887538Y-114340000D01*
X112349950Y-78360000D02*
X112649950Y-78660000D01*
X144080000Y-115110000D02*
X143410000Y-114440000D01*
X113325000Y-78327942D02*
X113325000Y-75475000D01*
X168786274Y-115636274D02*
X170736274Y-115636274D01*
X112992942Y-78660000D02*
X113325000Y-78327942D01*
X103116916Y-78442582D02*
X111687468Y-78442582D01*
X170736274Y-115636274D02*
X171076225Y-115976225D01*
X104298988Y-78120000D02*
X104298988Y-74326012D01*
X118470000Y-89510000D02*
X120610000Y-91650000D01*
X112649950Y-78660000D02*
X112992942Y-78660000D01*
X142418679Y-114440000D02*
X142318679Y-114340000D01*
X143410000Y-114440000D02*
X142418679Y-114440000D01*
X104298988Y-74326012D02*
X105900000Y-72725000D01*
X120790000Y-110170000D02*
X120790000Y-113560051D01*
X103116722Y-78442776D02*
X103116916Y-78442582D01*
X120790000Y-113560051D02*
X122730309Y-113560051D01*
X111770050Y-78360000D02*
X112349950Y-78360000D01*
X118470000Y-87690000D02*
X118470000Y-89510000D01*
X103439498Y-78120000D02*
X104298988Y-78120000D01*
X131887538Y-114340000D02*
X131248398Y-114979140D01*
%TO.N,ADC1_SCL*%
X102264486Y-116393367D02*
X102264486Y-113452347D01*
X102264486Y-113452347D02*
X102875000Y-112841833D01*
%TO.N,ADC3_SDA*%
X100725411Y-84773947D02*
X100725411Y-80800000D01*
X114942525Y-75997425D02*
X114942525Y-77841789D01*
X108630050Y-74550000D02*
X114675000Y-74550000D01*
X107980000Y-75200050D02*
X108630050Y-74550000D01*
X109604062Y-83180252D02*
X106225000Y-83180252D01*
X114942525Y-77841789D02*
X109604062Y-83180252D01*
X115242525Y-75117525D02*
X115242525Y-75697425D01*
X102011464Y-86060000D02*
X100725411Y-84773947D01*
X114675000Y-74550000D02*
X115242525Y-75117525D01*
X115242525Y-75697425D02*
X114942525Y-75997425D01*
X108675000Y-76725000D02*
X107980000Y-76030000D01*
X107980000Y-76030000D02*
X107980000Y-75200050D01*
%TO.N,ADC4_SCL*%
X158500000Y-62600000D02*
X160950000Y-62600000D01*
%TO.N,Ref2_NO2*%
X127800000Y-72440000D02*
X127800000Y-60344922D01*
X129124822Y-73800178D02*
X129124822Y-73764822D01*
X129124822Y-73764822D02*
X127800000Y-72440000D01*
X127800000Y-60344922D02*
X128000896Y-60144026D01*
%TO.N,Ref2_CO*%
X134425000Y-73175000D02*
X133675000Y-72425000D01*
X129085000Y-65279950D02*
X129085000Y-63570818D01*
X131872112Y-72425000D02*
X129710000Y-70262887D01*
X129085000Y-63570818D02*
X129090818Y-63565000D01*
X133675000Y-72425000D02*
X131872112Y-72425000D01*
X129710000Y-65904950D02*
X129085000Y-65279950D01*
X129710000Y-70262887D02*
X129710000Y-65904950D01*
X134425000Y-73275000D02*
X134425000Y-73175000D01*
D18*
%TO.N,Ref2_SO2*%
X125200000Y-71500000D02*
X125110000Y-71500000D01*
X124410000Y-72200000D02*
X124410000Y-73773364D01*
X125110000Y-71500000D02*
X124410000Y-72200000D01*
X124410000Y-73773364D02*
X124418649Y-73782013D01*
D15*
%TO.N,Sens1_CO*%
X131569943Y-123058990D02*
X129520000Y-125108933D01*
X129520000Y-125108933D02*
X129520000Y-128545615D01*
X129520000Y-128545615D02*
X129551740Y-128577355D01*
X131569943Y-120280000D02*
X131569943Y-123058990D01*
%TO.N,Sens1_SO2*%
X128670000Y-132520000D02*
X128670000Y-131570050D01*
X124740000Y-120749315D02*
X124740000Y-111055686D01*
X128670000Y-131570050D02*
X126338614Y-129238664D01*
X126338614Y-129238664D02*
X126338614Y-122710152D01*
X136502399Y-131515348D02*
X135717747Y-132300000D01*
X124750000Y-121121538D02*
X124750000Y-120759315D01*
X126338614Y-122710152D02*
X124750000Y-121121538D01*
X124740000Y-111055686D02*
X145865686Y-89930000D01*
X135717747Y-132300000D02*
X132925000Y-132300000D01*
X145865686Y-89930000D02*
X147850000Y-89930000D01*
X124750000Y-120759315D02*
X124740000Y-120749315D01*
%TO.N,Net-(U32-SC0)*%
X146210000Y-115110000D02*
X144640000Y-113540000D01*
X130671841Y-113540000D02*
X129248583Y-114963258D01*
X144640000Y-113540000D02*
X130671841Y-113540000D01*
%TO.N,Net-(U32-SD0)*%
X146200000Y-113825000D02*
X146200000Y-113750000D01*
X146200000Y-113750000D02*
X145590000Y-113140000D01*
X145590000Y-113140000D02*
X130020000Y-113140000D01*
X130020000Y-113140000D02*
X128250000Y-114910000D01*
X120495075Y-117962893D02*
X115632182Y-113100000D01*
X115632182Y-113100000D02*
X107530000Y-113100000D01*
X120495075Y-118387157D02*
X120495075Y-117962893D01*
%TO.N,Net-(U32-SC1)*%
X171100000Y-111475736D02*
X171100000Y-111300000D01*
X167395026Y-115110000D02*
X167465736Y-115110000D01*
X167395026Y-115110000D02*
X167395026Y-116379974D01*
X167465736Y-115110000D02*
X171100000Y-111475736D01*
X167395026Y-116379974D02*
X165050000Y-118725000D01*
%TO.N,Net-(U32-SD1)*%
X167645000Y-114365050D02*
X169925000Y-112085050D01*
X167645000Y-114365050D02*
X167065100Y-114365050D01*
X169925000Y-112085050D02*
X169925000Y-111325000D01*
X166655050Y-116019950D02*
X163925000Y-118750000D01*
X163925000Y-118750000D02*
X163800000Y-118750000D01*
X167065100Y-114365050D02*
X166655050Y-114775100D01*
X166655050Y-114775100D02*
X166655050Y-116019950D01*
%TO.N,Net-(U32-SC2)*%
X172225000Y-112850000D02*
X172225000Y-111275000D01*
X173650000Y-114275000D02*
X172225000Y-112850000D01*
%TO.N,Net-(U32-SD2)*%
X121930000Y-110170000D02*
X121850000Y-110250000D01*
X121850000Y-110250000D02*
X121850000Y-112520000D01*
X142484364Y-113940000D02*
X131290868Y-113940000D01*
X121850000Y-112520000D02*
X122760000Y-112520000D01*
X131290868Y-113940000D02*
X130248401Y-114982467D01*
X144015041Y-114040000D02*
X142584364Y-114040000D01*
X145079990Y-115104949D02*
X144015041Y-114040000D01*
X142584364Y-114040000D02*
X142484364Y-113940000D01*
%TO.N,Net-(U32-SC3)*%
X113850000Y-86300000D02*
X117370000Y-86300000D01*
X118570000Y-110170000D02*
X118570000Y-113350810D01*
X134002928Y-115680191D02*
X135652737Y-117330000D01*
X118570000Y-113350810D02*
X121039494Y-115820304D01*
X135652737Y-117330000D02*
X139899735Y-117330000D01*
X121039494Y-115820304D02*
X122748909Y-115820304D01*
X139899735Y-117330000D02*
X141569672Y-115660063D01*
%TO.N,Net-(U32-SD3)*%
X143040000Y-115140000D02*
X142552994Y-115140000D01*
X132690000Y-114740000D02*
X132390000Y-115040000D01*
X109220000Y-74950000D02*
X108680000Y-75490000D01*
X112100000Y-75425000D02*
X111625000Y-74950000D01*
X119670000Y-110180000D02*
X119670000Y-113885124D01*
X119670000Y-113885124D02*
X120474960Y-114690084D01*
X142552994Y-115140000D02*
X142152994Y-114740000D01*
X111625000Y-74950000D02*
X109220000Y-74950000D01*
X120474960Y-114690084D02*
X122746844Y-114690084D01*
X142152994Y-114740000D02*
X132690000Y-114740000D01*
%TO.N,Net-(U32-SC4)*%
X174725000Y-108414950D02*
X174725000Y-106600000D01*
X173927818Y-109212132D02*
X174725000Y-108414950D01*
X173927818Y-109447182D02*
X173927818Y-109212132D01*
X165110000Y-106000000D02*
X163800000Y-104690000D01*
X174725000Y-106600000D02*
X174125000Y-106000000D01*
X174125000Y-106000000D02*
X165110000Y-106000000D01*
%TO.N,Net-(U32-SD4)*%
X173825000Y-108325000D02*
X173825000Y-107525000D01*
X164625000Y-106700000D02*
X162575000Y-104650000D01*
X174325000Y-107025000D02*
X174000000Y-106700000D01*
X173825000Y-107525000D02*
X174325000Y-107025000D01*
X174000000Y-106700000D02*
X164625000Y-106700000D01*
%TD*%
%TA.AperFunction,Conductor*%
%TO.N,GND*%
G36*
X169166737Y-58187036D02*
G01*
X169628227Y-58209654D01*
X169637906Y-58210511D01*
X170094692Y-58269075D01*
X170104245Y-58270682D01*
X170555047Y-58364908D01*
X170564455Y-58367264D01*
X170904444Y-58466722D01*
X171006436Y-58496558D01*
X171015667Y-58499656D01*
X171446141Y-58663228D01*
X171455083Y-58667034D01*
X171871400Y-58863878D01*
X171880022Y-58868377D01*
X172279614Y-59097280D01*
X172287855Y-59102441D01*
X172668256Y-59361990D01*
X172676053Y-59367771D01*
X173034916Y-59656364D01*
X173042258Y-59662759D01*
X173377363Y-59978610D01*
X173384180Y-59985561D01*
X173693463Y-60326723D01*
X173699714Y-60334187D01*
X173771219Y-60426722D01*
X173977867Y-60694148D01*
X173981284Y-60698569D01*
X173986926Y-60706496D01*
X174049908Y-60802762D01*
X174239042Y-61091854D01*
X174244048Y-61100204D01*
X174354598Y-61302174D01*
X174457395Y-61489982D01*
X174465148Y-61504145D01*
X174469480Y-61512856D01*
X174605615Y-61815851D01*
X174658211Y-61932913D01*
X174661849Y-61941944D01*
X174817032Y-62375489D01*
X174819951Y-62384777D01*
X174940645Y-62829178D01*
X174942826Y-62838667D01*
X175028279Y-63291160D01*
X175029709Y-63300791D01*
X175079396Y-63758594D01*
X175080066Y-63768308D01*
X175093765Y-64231404D01*
X175093813Y-64236272D01*
X175093326Y-64286462D01*
X175093827Y-64293240D01*
X175093827Y-105820230D01*
X175074142Y-105887269D01*
X175021338Y-105933024D01*
X174952180Y-105942968D01*
X174888624Y-105913943D01*
X174882146Y-105907911D01*
X174583199Y-105608964D01*
X174572503Y-105596767D01*
X174553286Y-105571722D01*
X174553283Y-105571720D01*
X174553282Y-105571718D01*
X174427841Y-105475464D01*
X174281762Y-105414956D01*
X174281760Y-105414955D01*
X174164361Y-105399500D01*
X174125000Y-105394318D01*
X174093697Y-105398439D01*
X174077513Y-105399500D01*
X165410097Y-105399500D01*
X165343058Y-105379815D01*
X165322416Y-105363181D01*
X164741779Y-104782544D01*
X164708294Y-104721221D01*
X164705460Y-104694863D01*
X164705460Y-104690002D01*
X164702885Y-104665500D01*
X164685674Y-104501744D01*
X164627179Y-104321716D01*
X164532533Y-104157784D01*
X164405871Y-104017112D01*
X164350816Y-103977112D01*
X164252734Y-103905851D01*
X164252729Y-103905848D01*
X164079807Y-103828857D01*
X164079802Y-103828855D01*
X163934001Y-103797865D01*
X163894646Y-103789500D01*
X163705354Y-103789500D01*
X163672897Y-103796398D01*
X163520197Y-103828855D01*
X163520192Y-103828857D01*
X163347271Y-103905848D01*
X163287913Y-103948974D01*
X163222106Y-103972453D01*
X163154052Y-103956627D01*
X163142143Y-103948974D01*
X163041718Y-103876012D01*
X163027730Y-103865849D01*
X163027728Y-103865848D01*
X163027729Y-103865848D01*
X162854807Y-103788857D01*
X162854802Y-103788855D01*
X162709001Y-103757865D01*
X162669646Y-103749500D01*
X162480354Y-103749500D01*
X162447897Y-103756398D01*
X162295197Y-103788855D01*
X162295192Y-103788857D01*
X162122270Y-103865848D01*
X162122265Y-103865851D01*
X161969129Y-103977111D01*
X161842466Y-104117785D01*
X161747821Y-104281715D01*
X161747818Y-104281722D01*
X161712939Y-104389070D01*
X161689326Y-104461744D01*
X161669540Y-104650000D01*
X161689326Y-104838256D01*
X161689327Y-104838259D01*
X161747818Y-105018277D01*
X161747821Y-105018284D01*
X161842467Y-105182216D01*
X161969129Y-105322888D01*
X162122265Y-105434148D01*
X162122270Y-105434151D01*
X162295192Y-105511142D01*
X162295197Y-105511144D01*
X162480354Y-105550500D01*
X162574903Y-105550500D01*
X162641942Y-105570185D01*
X162662584Y-105586819D01*
X164166799Y-107091034D01*
X164177493Y-107103228D01*
X164187900Y-107116790D01*
X164196718Y-107128282D01*
X164246463Y-107166452D01*
X164266414Y-107181761D01*
X164266415Y-107181763D01*
X164311636Y-107216461D01*
X164322159Y-107224536D01*
X164322161Y-107224536D01*
X164322163Y-107224538D01*
X164395198Y-107254790D01*
X164468238Y-107285044D01*
X164546619Y-107295363D01*
X164624999Y-107305682D01*
X164625000Y-107305682D01*
X164656302Y-107301560D01*
X164672487Y-107300500D01*
X173107479Y-107300500D01*
X173174518Y-107320185D01*
X173220273Y-107372989D01*
X173230418Y-107440685D01*
X173219318Y-107524998D01*
X173219318Y-107524999D01*
X173223439Y-107556301D01*
X173224500Y-107572487D01*
X173224500Y-107598547D01*
X173204815Y-107665586D01*
X173192650Y-107681519D01*
X173092466Y-107792785D01*
X172997821Y-107956715D01*
X172997818Y-107956722D01*
X172944280Y-108121496D01*
X172939326Y-108136744D01*
X172919540Y-108325000D01*
X172939326Y-108513256D01*
X172939327Y-108513259D01*
X172997818Y-108693277D01*
X172997821Y-108693284D01*
X173092467Y-108857216D01*
X173115146Y-108882403D01*
X173145376Y-108945394D01*
X173136752Y-109014729D01*
X173130385Y-109027375D01*
X173100638Y-109078898D01*
X173042145Y-109258922D01*
X173042144Y-109258926D01*
X173022358Y-109447182D01*
X173042144Y-109635438D01*
X173042145Y-109635441D01*
X173100636Y-109815459D01*
X173100639Y-109815466D01*
X173195285Y-109979398D01*
X173259503Y-110050719D01*
X173321947Y-110120070D01*
X173475083Y-110231330D01*
X173475088Y-110231333D01*
X173648010Y-110308324D01*
X173648015Y-110308326D01*
X173833172Y-110347682D01*
X173833173Y-110347682D01*
X174022462Y-110347682D01*
X174022464Y-110347682D01*
X174207621Y-110308326D01*
X174380548Y-110231333D01*
X174533689Y-110120070D01*
X174660351Y-109979398D01*
X174754997Y-109815466D01*
X174813492Y-109635438D01*
X174833278Y-109447182D01*
X174813492Y-109258926D01*
X174813489Y-109258917D01*
X174812899Y-109256137D01*
X174813024Y-109254487D01*
X174812812Y-109252463D01*
X174813182Y-109252424D01*
X174818215Y-109186469D01*
X174846506Y-109142677D01*
X174882147Y-109107036D01*
X174943471Y-109073552D01*
X175013162Y-109078538D01*
X175069095Y-109120410D01*
X175093511Y-109185875D01*
X175093827Y-109194719D01*
X175093827Y-127093963D01*
X175093731Y-127098831D01*
X175075746Y-127556576D01*
X175074983Y-127566282D01*
X175021422Y-128018828D01*
X175019898Y-128028445D01*
X174931004Y-128475352D01*
X174928732Y-128484819D01*
X174805039Y-128923406D01*
X174802030Y-128932666D01*
X174644314Y-129360178D01*
X174640588Y-129369173D01*
X174449813Y-129782999D01*
X174445393Y-129791675D01*
X174222730Y-130189270D01*
X174217642Y-130197571D01*
X173964491Y-130576440D01*
X173958769Y-130584317D01*
X173676652Y-130942183D01*
X173670328Y-130949587D01*
X173361020Y-131284197D01*
X173354136Y-131291082D01*
X173019508Y-131600411D01*
X173012104Y-131606734D01*
X172654254Y-131888841D01*
X172646377Y-131894564D01*
X172267488Y-132147733D01*
X172259186Y-132152820D01*
X171861619Y-132375469D01*
X171852944Y-132379890D01*
X171439112Y-132570671D01*
X171430117Y-132574396D01*
X171002589Y-132732122D01*
X170993338Y-132735128D01*
X170957742Y-132745168D01*
X170887876Y-132744419D01*
X170829506Y-132706017D01*
X170801164Y-132642154D01*
X170811848Y-132573106D01*
X170858166Y-132520795D01*
X170879003Y-132510308D01*
X171246125Y-132367057D01*
X171673476Y-132158138D01*
X172082115Y-131914642D01*
X172469250Y-131638233D01*
X172800308Y-131357841D01*
X172832237Y-131330799D01*
X172832243Y-131330794D01*
X173168594Y-130994443D01*
X173168599Y-130994437D01*
X173297317Y-130842460D01*
X173476033Y-130631450D01*
X173752442Y-130244315D01*
X173995938Y-129835676D01*
X174204857Y-129408325D01*
X174377773Y-128965181D01*
X174379419Y-128959654D01*
X174396808Y-128901244D01*
X174513503Y-128509271D01*
X174611121Y-128043711D01*
X174669959Y-127571679D01*
X174689617Y-127096400D01*
X174689616Y-127096386D01*
X174679802Y-126859106D01*
X174669959Y-126621121D01*
X174611121Y-126149089D01*
X174513503Y-125683529D01*
X174394366Y-125283354D01*
X174377777Y-125227631D01*
X174377775Y-125227626D01*
X174377773Y-125227619D01*
X174204857Y-124784475D01*
X173995938Y-124357124D01*
X173752442Y-123948485D01*
X173632503Y-123780500D01*
X173476044Y-123561365D01*
X173476030Y-123561346D01*
X173168599Y-123198362D01*
X172832237Y-122862000D01*
X172469253Y-122554569D01*
X172469234Y-122554555D01*
X172082128Y-122278167D01*
X172082109Y-122278154D01*
X171673476Y-122034662D01*
X171641142Y-122018855D01*
X171246125Y-121825743D01*
X171246116Y-121825739D01*
X171246113Y-121825738D01*
X170857632Y-121674152D01*
X170802981Y-121652827D01*
X170802980Y-121652826D01*
X170802968Y-121652822D01*
X170442152Y-121545404D01*
X170347071Y-121517097D01*
X170249452Y-121496628D01*
X169881510Y-121419478D01*
X169444425Y-121364997D01*
X169409479Y-121360641D01*
X169251052Y-121354088D01*
X168934202Y-121340983D01*
X168934198Y-121340983D01*
X168458921Y-121360641D01*
X167986889Y-121419478D01*
X167521329Y-121517097D01*
X167065431Y-121652822D01*
X167065413Y-121652829D01*
X166622286Y-121825738D01*
X166622267Y-121825747D01*
X166194923Y-122034662D01*
X165786290Y-122278154D01*
X165786271Y-122278167D01*
X165399165Y-122554555D01*
X165399146Y-122554569D01*
X165036162Y-122862000D01*
X165036157Y-122862006D01*
X164699806Y-123198357D01*
X164699800Y-123198362D01*
X164392369Y-123561346D01*
X164392355Y-123561365D01*
X164115967Y-123948471D01*
X164115954Y-123948490D01*
X163872462Y-124357123D01*
X163663547Y-124784467D01*
X163663538Y-124784486D01*
X163490629Y-125227613D01*
X163490622Y-125227631D01*
X163354897Y-125683529D01*
X163257278Y-126149089D01*
X163198441Y-126621121D01*
X163178783Y-127096398D01*
X163178783Y-127096401D01*
X163198441Y-127571678D01*
X163257278Y-128043710D01*
X163302265Y-128258259D01*
X163350827Y-128489862D01*
X163354897Y-128509270D01*
X163490622Y-128965168D01*
X163490626Y-128965180D01*
X163490627Y-128965181D01*
X163500384Y-128990185D01*
X163654505Y-129385164D01*
X163663543Y-129408325D01*
X163815061Y-129718260D01*
X163872462Y-129835676D01*
X164115954Y-130244309D01*
X164115967Y-130244328D01*
X164392355Y-130631434D01*
X164392369Y-130631453D01*
X164699800Y-130994437D01*
X165036162Y-131330799D01*
X165399146Y-131638230D01*
X165399165Y-131638244D01*
X165640870Y-131810818D01*
X165786285Y-131914642D01*
X166194924Y-132158138D01*
X166622275Y-132367057D01*
X167065419Y-132539973D01*
X167065426Y-132539975D01*
X167065431Y-132539977D01*
X167176711Y-132573106D01*
X167521329Y-132675703D01*
X167986889Y-132773321D01*
X168010380Y-132776249D01*
X168015112Y-132776839D01*
X168079202Y-132804665D01*
X168118075Y-132862723D01*
X168119388Y-132932580D01*
X168082724Y-132992057D01*
X168019725Y-133022272D01*
X167999775Y-133023887D01*
X136126081Y-133023887D01*
X136059042Y-133004202D01*
X136013287Y-132951398D01*
X136003343Y-132882240D01*
X136032368Y-132818684D01*
X136050594Y-132801512D01*
X136072385Y-132784791D01*
X136072386Y-132784790D01*
X136146029Y-132728282D01*
X136165257Y-132703222D01*
X136175929Y-132691051D01*
X136414816Y-132452164D01*
X136476138Y-132418682D01*
X136502496Y-132415848D01*
X136597043Y-132415848D01*
X136597045Y-132415848D01*
X136782202Y-132376492D01*
X136955129Y-132299499D01*
X137108270Y-132188236D01*
X137234932Y-132047564D01*
X137329578Y-131883632D01*
X137388073Y-131703604D01*
X137407859Y-131515348D01*
X137388073Y-131327092D01*
X137374813Y-131286282D01*
X139873447Y-131286282D01*
X139893233Y-131474538D01*
X139893234Y-131474541D01*
X139951725Y-131654559D01*
X139951728Y-131654566D01*
X140046374Y-131818498D01*
X140173035Y-131959169D01*
X140173036Y-131959170D01*
X140326172Y-132070430D01*
X140326177Y-132070433D01*
X140499099Y-132147424D01*
X140499104Y-132147426D01*
X140684261Y-132186782D01*
X140684262Y-132186782D01*
X140873551Y-132186782D01*
X140873553Y-132186782D01*
X141058710Y-132147426D01*
X141231637Y-132070433D01*
X141384778Y-131959170D01*
X141408104Y-131933263D01*
X141413016Y-131927809D01*
X141472502Y-131891161D01*
X141505165Y-131886782D01*
X141557819Y-131886782D01*
X141574003Y-131887842D01*
X141605306Y-131891964D01*
X141605307Y-131891964D01*
X141668647Y-131883625D01*
X141762068Y-131871326D01*
X141908142Y-131810820D01*
X141908143Y-131810820D01*
X141908143Y-131810819D01*
X141908147Y-131810818D01*
X141978654Y-131756716D01*
X142033588Y-131714564D01*
X142052816Y-131689504D01*
X142063488Y-131677333D01*
X142528187Y-131212635D01*
X142589509Y-131179153D01*
X142615867Y-131176319D01*
X142710413Y-131176319D01*
X142710415Y-131176319D01*
X142895572Y-131136963D01*
X143068499Y-131059970D01*
X143221640Y-130948707D01*
X143348302Y-130808035D01*
X143442948Y-130644103D01*
X143501443Y-130464075D01*
X143521229Y-130275819D01*
X143501443Y-130087563D01*
X143442948Y-129907535D01*
X143348302Y-129743603D01*
X143221640Y-129602931D01*
X143221639Y-129602930D01*
X143068503Y-129491670D01*
X143068498Y-129491667D01*
X142895576Y-129414676D01*
X142895571Y-129414674D01*
X142737523Y-129381081D01*
X142710415Y-129375319D01*
X142521123Y-129375319D01*
X142494015Y-129381081D01*
X142335966Y-129414674D01*
X142335961Y-129414676D01*
X142163039Y-129491667D01*
X142163034Y-129491670D01*
X142009898Y-129602930D01*
X141883235Y-129743604D01*
X141788590Y-129907534D01*
X141788587Y-129907541D01*
X141730096Y-130087559D01*
X141730095Y-130087563D01*
X141716816Y-130213910D01*
X141710309Y-130275821D01*
X141710309Y-130280681D01*
X141690624Y-130347720D01*
X141673990Y-130368362D01*
X141485253Y-130557098D01*
X141423930Y-130590583D01*
X141354238Y-130585599D01*
X141324687Y-130569735D01*
X141231641Y-130502133D01*
X141231636Y-130502130D01*
X141058714Y-130425139D01*
X141058709Y-130425137D01*
X140904227Y-130392302D01*
X140873553Y-130385782D01*
X140684261Y-130385782D01*
X140653587Y-130392302D01*
X140499104Y-130425137D01*
X140499099Y-130425139D01*
X140326177Y-130502130D01*
X140326172Y-130502133D01*
X140173036Y-130613393D01*
X140046373Y-130754067D01*
X139951728Y-130917997D01*
X139951725Y-130918004D01*
X139893234Y-131098022D01*
X139893233Y-131098026D01*
X139873447Y-131286282D01*
X137374813Y-131286282D01*
X137329578Y-131147064D01*
X137234932Y-130983132D01*
X137108270Y-130842460D01*
X137108269Y-130842459D01*
X136955133Y-130731199D01*
X136955128Y-130731196D01*
X136782206Y-130654205D01*
X136782201Y-130654203D01*
X136636400Y-130623213D01*
X136597045Y-130614848D01*
X136407753Y-130614848D01*
X136375296Y-130621746D01*
X136222596Y-130654203D01*
X136222591Y-130654205D01*
X136049669Y-130731196D01*
X136049664Y-130731199D01*
X135896528Y-130842459D01*
X135769865Y-130983133D01*
X135675220Y-131147063D01*
X135675217Y-131147070D01*
X135620894Y-131314261D01*
X135616725Y-131327092D01*
X135601228Y-131474538D01*
X135596939Y-131515350D01*
X135596939Y-131520209D01*
X135577254Y-131587248D01*
X135560621Y-131607889D01*
X135505331Y-131663180D01*
X135444008Y-131696666D01*
X135417649Y-131699500D01*
X133651258Y-131699500D01*
X133584219Y-131679815D01*
X133559109Y-131658473D01*
X133530871Y-131627112D01*
X133530864Y-131627106D01*
X133377734Y-131515851D01*
X133377729Y-131515848D01*
X133204807Y-131438857D01*
X133204802Y-131438855D01*
X133059001Y-131407865D01*
X133019646Y-131399500D01*
X132830354Y-131399500D01*
X132797897Y-131406398D01*
X132645197Y-131438855D01*
X132645192Y-131438857D01*
X132472270Y-131515848D01*
X132472265Y-131515851D01*
X132319129Y-131627111D01*
X132192466Y-131767785D01*
X132097821Y-131931715D01*
X132097818Y-131931722D01*
X132051182Y-132075255D01*
X132039326Y-132111744D01*
X132019540Y-132300000D01*
X132039326Y-132488256D01*
X132039327Y-132488259D01*
X132097818Y-132668277D01*
X132097821Y-132668284D01*
X132195716Y-132837844D01*
X132193159Y-132839320D01*
X132212183Y-132893264D01*
X132196107Y-132961259D01*
X132145822Y-133009769D01*
X132088360Y-133023887D01*
X130576443Y-133023887D01*
X130509404Y-133004202D01*
X130463649Y-132951398D01*
X130453705Y-132882240D01*
X130482730Y-132818684D01*
X130503555Y-132799571D01*
X130504537Y-132798856D01*
X130505871Y-132797888D01*
X130632533Y-132657216D01*
X130727179Y-132493284D01*
X130785674Y-132313256D01*
X130805460Y-132125000D01*
X130785674Y-131936744D01*
X130727179Y-131756716D01*
X130632533Y-131592784D01*
X130505871Y-131452112D01*
X130487626Y-131438856D01*
X130352734Y-131340851D01*
X130352729Y-131340848D01*
X130179807Y-131263857D01*
X130179802Y-131263855D01*
X130034001Y-131232865D01*
X129994646Y-131224500D01*
X129805354Y-131224500D01*
X129805351Y-131224500D01*
X129804456Y-131224594D01*
X129803942Y-131224500D01*
X129798856Y-131224500D01*
X129798856Y-131223569D01*
X129735727Y-131212019D01*
X129703824Y-131188953D01*
X127375433Y-128860562D01*
X127341948Y-128799239D01*
X127339114Y-128772881D01*
X127339114Y-122591953D01*
X127340175Y-122575767D01*
X127344296Y-122544466D01*
X127344296Y-122544464D01*
X127323658Y-122387705D01*
X127323658Y-122387704D01*
X127263150Y-122241625D01*
X127263149Y-122241624D01*
X127263149Y-122241623D01*
X127188601Y-122144469D01*
X127188584Y-122144449D01*
X127166895Y-122116183D01*
X127141847Y-122096963D01*
X127129653Y-122086269D01*
X125786819Y-120743435D01*
X125753334Y-120682112D01*
X125750500Y-120655754D01*
X125750500Y-120641117D01*
X125751561Y-120624931D01*
X125755682Y-120593630D01*
X125755682Y-120593628D01*
X125741561Y-120486369D01*
X125740500Y-120470184D01*
X125740500Y-116139097D01*
X125760185Y-116072058D01*
X125812989Y-116026303D01*
X125882147Y-116016359D01*
X125945703Y-116045384D01*
X125952181Y-116051416D01*
X129706172Y-119805407D01*
X129739657Y-119866730D01*
X129736422Y-119931405D01*
X129684327Y-120091739D01*
X129684326Y-120091741D01*
X129684326Y-120091744D01*
X129664540Y-120280000D01*
X129684326Y-120468256D01*
X129684327Y-120468259D01*
X129742818Y-120648277D01*
X129742821Y-120648284D01*
X129837467Y-120812216D01*
X129937650Y-120923480D01*
X129967880Y-120986471D01*
X129969500Y-121006452D01*
X129969500Y-123193150D01*
X129949815Y-123260189D01*
X129933181Y-123280831D01*
X128728965Y-124485046D01*
X128716774Y-124495738D01*
X128691718Y-124514965D01*
X128667549Y-124546461D01*
X128667550Y-124546462D01*
X128595464Y-124640406D01*
X128595461Y-124640411D01*
X128534957Y-124786482D01*
X128534955Y-124786487D01*
X128514318Y-124943246D01*
X128514318Y-124943247D01*
X128518439Y-124974549D01*
X128519500Y-124990735D01*
X128519500Y-127085209D01*
X128499815Y-127152248D01*
X128447011Y-127198003D01*
X128421286Y-127206498D01*
X128410199Y-127208854D01*
X128410192Y-127208857D01*
X128237270Y-127285848D01*
X128237265Y-127285851D01*
X128084129Y-127397111D01*
X127957466Y-127537785D01*
X127862821Y-127701715D01*
X127862818Y-127701722D01*
X127818783Y-127837250D01*
X127804326Y-127881744D01*
X127784540Y-128070000D01*
X127804326Y-128258256D01*
X127804327Y-128258259D01*
X127862818Y-128438277D01*
X127862821Y-128438284D01*
X127957467Y-128602216D01*
X128084129Y-128742888D01*
X128237265Y-128854148D01*
X128237270Y-128854151D01*
X128410192Y-128931142D01*
X128410197Y-128931144D01*
X128595354Y-128970500D01*
X128667323Y-128970500D01*
X128734362Y-128990185D01*
X128774709Y-129032499D01*
X128819207Y-129109571D01*
X128945869Y-129250243D01*
X129099005Y-129361503D01*
X129099010Y-129361506D01*
X129271932Y-129438497D01*
X129271935Y-129438498D01*
X129271937Y-129438499D01*
X129457094Y-129477855D01*
X129457095Y-129477855D01*
X129646384Y-129477855D01*
X129646386Y-129477855D01*
X129831543Y-129438499D01*
X130004470Y-129361506D01*
X130157611Y-129250243D01*
X130284273Y-129109571D01*
X130370829Y-128959650D01*
X130421393Y-128911438D01*
X130455511Y-128901244D01*
X130455261Y-128900066D01*
X130461617Y-128898715D01*
X130461618Y-128898715D01*
X130646775Y-128859359D01*
X130819702Y-128782366D01*
X130972843Y-128671103D01*
X131099505Y-128530431D01*
X131194151Y-128366499D01*
X131252646Y-128186471D01*
X131272432Y-127998215D01*
X131252646Y-127809959D01*
X131194151Y-127629931D01*
X131099505Y-127465999D01*
X130972843Y-127325327D01*
X130918505Y-127285848D01*
X130814445Y-127210244D01*
X130815686Y-127208535D01*
X130774283Y-127165109D01*
X130760500Y-127108292D01*
X130760500Y-127046911D01*
X139775356Y-127046911D01*
X139795142Y-127235167D01*
X139795143Y-127235170D01*
X139853634Y-127415188D01*
X139853637Y-127415195D01*
X139948283Y-127579127D01*
X140058662Y-127701715D01*
X140074945Y-127719799D01*
X140228081Y-127831059D01*
X140228086Y-127831062D01*
X140401008Y-127908053D01*
X140401013Y-127908055D01*
X140586170Y-127947411D01*
X140586171Y-127947411D01*
X140775460Y-127947411D01*
X140775462Y-127947411D01*
X140960619Y-127908055D01*
X141133546Y-127831062D01*
X141286687Y-127719799D01*
X141314925Y-127688438D01*
X141374411Y-127651790D01*
X141407074Y-127647411D01*
X141657989Y-127647411D01*
X141674173Y-127648471D01*
X141705476Y-127652593D01*
X141705477Y-127652593D01*
X141757730Y-127645713D01*
X141862238Y-127631955D01*
X142008317Y-127571447D01*
X142021339Y-127561455D01*
X142133758Y-127475193D01*
X142152986Y-127450133D01*
X142163658Y-127437962D01*
X142478586Y-127123034D01*
X142539908Y-127089552D01*
X142566266Y-127086718D01*
X142660813Y-127086718D01*
X142660815Y-127086718D01*
X142845972Y-127047362D01*
X143018899Y-126970369D01*
X143172040Y-126859106D01*
X143298702Y-126718434D01*
X143393348Y-126554502D01*
X143451843Y-126374474D01*
X143471629Y-126186218D01*
X143451843Y-125997962D01*
X143393348Y-125817934D01*
X143298702Y-125654002D01*
X143172040Y-125513330D01*
X143172039Y-125513329D01*
X143018903Y-125402069D01*
X143018898Y-125402066D01*
X142845976Y-125325075D01*
X142845971Y-125325073D01*
X142700170Y-125294083D01*
X142660815Y-125285718D01*
X142471523Y-125285718D01*
X142439066Y-125292616D01*
X142286366Y-125325073D01*
X142286361Y-125325075D01*
X142113439Y-125402066D01*
X142113434Y-125402069D01*
X141960298Y-125513329D01*
X141833635Y-125654003D01*
X141738990Y-125817933D01*
X141738987Y-125817940D01*
X141680496Y-125997958D01*
X141680495Y-125997962D01*
X141660709Y-126186218D01*
X141660709Y-126186220D01*
X141660709Y-126191080D01*
X141641024Y-126258119D01*
X141624393Y-126278757D01*
X141560025Y-126343125D01*
X141493951Y-126409200D01*
X141432628Y-126442684D01*
X141362936Y-126437700D01*
X141314121Y-126404491D01*
X141286687Y-126374023D01*
X141286680Y-126374017D01*
X141133550Y-126262762D01*
X141133545Y-126262759D01*
X140960623Y-126185768D01*
X140960618Y-126185766D01*
X140814817Y-126154776D01*
X140775462Y-126146411D01*
X140586170Y-126146411D01*
X140553713Y-126153309D01*
X140401013Y-126185766D01*
X140401008Y-126185768D01*
X140228086Y-126262759D01*
X140228081Y-126262762D01*
X140074945Y-126374022D01*
X139948282Y-126514696D01*
X139853637Y-126678626D01*
X139853634Y-126678633D01*
X139795143Y-126858651D01*
X139795142Y-126858655D01*
X139775356Y-127046911D01*
X130760500Y-127046911D01*
X130760500Y-125334715D01*
X130780185Y-125267676D01*
X130796814Y-125247039D01*
X132685961Y-123357891D01*
X132747282Y-123324408D01*
X132816974Y-123329392D01*
X132872014Y-123370087D01*
X132923335Y-123436969D01*
X132948386Y-123456191D01*
X132960581Y-123466886D01*
X134235680Y-124741985D01*
X134246374Y-124754179D01*
X134265596Y-124779230D01*
X134265597Y-124779231D01*
X134265599Y-124779233D01*
X134391040Y-124875487D01*
X134537119Y-124935995D01*
X134615500Y-124946314D01*
X134693880Y-124956633D01*
X134693881Y-124956633D01*
X134725183Y-124952511D01*
X134741368Y-124951451D01*
X137419578Y-124951451D01*
X137486617Y-124971136D01*
X137511727Y-124992478D01*
X137539964Y-125023838D01*
X137539971Y-125023844D01*
X137693101Y-125135099D01*
X137693106Y-125135102D01*
X137866028Y-125212093D01*
X137866033Y-125212095D01*
X138051190Y-125251451D01*
X138051191Y-125251451D01*
X138240480Y-125251451D01*
X138240482Y-125251451D01*
X138425639Y-125212095D01*
X138598566Y-125135102D01*
X138751707Y-125023839D01*
X138878369Y-124883167D01*
X138973015Y-124719235D01*
X139031510Y-124539207D01*
X139051296Y-124350951D01*
X139031510Y-124162695D01*
X138973015Y-123982667D01*
X138878369Y-123818735D01*
X138751707Y-123678063D01*
X138724032Y-123657956D01*
X138681368Y-123602627D01*
X138675389Y-123533013D01*
X138704767Y-123474669D01*
X138774688Y-123397015D01*
X138869334Y-123233083D01*
X138927829Y-123053055D01*
X138946017Y-122880000D01*
X139824540Y-122880000D01*
X139844326Y-123068256D01*
X139844327Y-123068259D01*
X139902818Y-123248277D01*
X139902821Y-123248284D01*
X139997467Y-123412216D01*
X140110442Y-123537687D01*
X140124129Y-123552888D01*
X140277265Y-123664148D01*
X140277270Y-123664151D01*
X140450192Y-123741142D01*
X140450197Y-123741144D01*
X140635354Y-123780500D01*
X140635355Y-123780500D01*
X140824644Y-123780500D01*
X140824646Y-123780500D01*
X141009803Y-123741144D01*
X141182730Y-123664151D01*
X141335871Y-123552888D01*
X141441278Y-123435820D01*
X141478667Y-123409399D01*
X141478205Y-123408599D01*
X141485237Y-123404538D01*
X141485243Y-123404536D01*
X141540897Y-123361831D01*
X141610684Y-123308282D01*
X141629912Y-123283222D01*
X141640591Y-123271044D01*
X142512523Y-122399114D01*
X142573846Y-122365629D01*
X142600204Y-122362795D01*
X142694751Y-122362795D01*
X142694753Y-122362795D01*
X142879910Y-122323439D01*
X143052837Y-122246446D01*
X143205978Y-122135183D01*
X143332640Y-121994511D01*
X143427286Y-121830579D01*
X143485781Y-121650551D01*
X143505567Y-121462295D01*
X143485781Y-121274039D01*
X143427286Y-121094011D01*
X143332640Y-120930079D01*
X143205978Y-120789407D01*
X143142703Y-120743435D01*
X143052841Y-120678146D01*
X143052836Y-120678143D01*
X142879914Y-120601152D01*
X142879909Y-120601150D01*
X142734108Y-120570160D01*
X142694753Y-120561795D01*
X142505461Y-120561795D01*
X142473004Y-120568693D01*
X142320304Y-120601150D01*
X142320299Y-120601152D01*
X142147377Y-120678143D01*
X142147372Y-120678146D01*
X141994236Y-120789406D01*
X141867573Y-120930080D01*
X141772928Y-121094010D01*
X141772925Y-121094017D01*
X141719551Y-121258286D01*
X141714433Y-121274039D01*
X141696395Y-121445665D01*
X141694647Y-121462297D01*
X141694647Y-121467157D01*
X141674962Y-121534196D01*
X141658328Y-121554838D01*
X141197730Y-122015435D01*
X141136407Y-122048920D01*
X141066715Y-122043936D01*
X141059623Y-122041037D01*
X141037725Y-122031287D01*
X141009802Y-122018855D01*
X140864001Y-121987865D01*
X140824646Y-121979500D01*
X140635354Y-121979500D01*
X140602897Y-121986398D01*
X140450197Y-122018855D01*
X140450192Y-122018857D01*
X140277270Y-122095848D01*
X140277265Y-122095851D01*
X140124129Y-122207111D01*
X139997466Y-122347785D01*
X139902821Y-122511715D01*
X139902818Y-122511722D01*
X139876750Y-122591953D01*
X139844326Y-122691744D01*
X139824540Y-122880000D01*
X138946017Y-122880000D01*
X138947615Y-122864799D01*
X138927829Y-122676543D01*
X138869334Y-122496515D01*
X138774688Y-122332583D01*
X138691468Y-122240158D01*
X138674505Y-122221318D01*
X138644275Y-122158326D01*
X138642655Y-122138346D01*
X138642655Y-121799225D01*
X138662340Y-121732186D01*
X138715144Y-121686431D01*
X138716220Y-121685945D01*
X138742705Y-121674153D01*
X138742706Y-121674152D01*
X138763586Y-121658982D01*
X138895846Y-121562890D01*
X139022508Y-121422218D01*
X139117154Y-121258286D01*
X139175649Y-121078258D01*
X139195435Y-120890002D01*
X139175649Y-120701746D01*
X139117154Y-120521718D01*
X139086288Y-120468256D01*
X139076915Y-120452022D01*
X139060442Y-120384121D01*
X139076914Y-120328023D01*
X139117179Y-120258284D01*
X139175674Y-120078256D01*
X139195460Y-119890000D01*
X139175674Y-119701744D01*
X139146236Y-119611144D01*
X139140282Y-119592818D01*
X139138287Y-119522977D01*
X139174367Y-119463144D01*
X139237068Y-119432316D01*
X139258213Y-119430500D01*
X141030663Y-119430500D01*
X141097702Y-119450185D01*
X141103548Y-119454182D01*
X141117265Y-119464148D01*
X141117270Y-119464151D01*
X141290192Y-119541142D01*
X141290197Y-119541144D01*
X141475354Y-119580500D01*
X141475355Y-119580500D01*
X141664644Y-119580500D01*
X141664646Y-119580500D01*
X141849803Y-119541144D01*
X142022730Y-119464151D01*
X142175871Y-119352888D01*
X142302533Y-119212216D01*
X142397179Y-119048284D01*
X142455674Y-118868256D01*
X142468103Y-118750000D01*
X155894540Y-118750000D01*
X155914326Y-118938256D01*
X155914327Y-118938259D01*
X155972818Y-119118277D01*
X155972821Y-119118284D01*
X156067467Y-119282216D01*
X156131101Y-119352888D01*
X156194129Y-119422888D01*
X156347265Y-119534148D01*
X156347270Y-119534151D01*
X156520192Y-119611142D01*
X156520197Y-119611144D01*
X156705354Y-119650500D01*
X156705355Y-119650500D01*
X156894644Y-119650500D01*
X156894646Y-119650500D01*
X157079803Y-119611144D01*
X157252730Y-119534151D01*
X157405871Y-119422888D01*
X157532533Y-119282216D01*
X157627179Y-119118284D01*
X157685674Y-118938256D01*
X157705460Y-118750000D01*
X162894540Y-118750000D01*
X162914326Y-118938256D01*
X162914327Y-118938259D01*
X162972818Y-119118277D01*
X162972821Y-119118284D01*
X163067467Y-119282216D01*
X163131101Y-119352888D01*
X163194129Y-119422888D01*
X163347265Y-119534148D01*
X163347270Y-119534151D01*
X163520192Y-119611142D01*
X163520197Y-119611144D01*
X163705354Y-119650500D01*
X163705355Y-119650500D01*
X163894644Y-119650500D01*
X163894646Y-119650500D01*
X164079803Y-119611144D01*
X164252730Y-119534151D01*
X164369321Y-119449442D01*
X164435125Y-119425964D01*
X164503178Y-119441789D01*
X164515089Y-119449444D01*
X164597265Y-119509148D01*
X164597270Y-119509151D01*
X164770192Y-119586142D01*
X164770197Y-119586144D01*
X164955354Y-119625500D01*
X164955355Y-119625500D01*
X165144644Y-119625500D01*
X165144646Y-119625500D01*
X165329803Y-119586144D01*
X165502730Y-119509151D01*
X165655871Y-119397888D01*
X165782533Y-119257216D01*
X165877179Y-119093284D01*
X165935674Y-118913256D01*
X165955460Y-118725000D01*
X165955460Y-118724997D01*
X165955460Y-118720136D01*
X165975145Y-118653097D01*
X165991779Y-118632455D01*
X166808035Y-117816199D01*
X167786069Y-116838164D01*
X167798249Y-116827483D01*
X167823308Y-116808256D01*
X167919562Y-116682815D01*
X167980070Y-116536736D01*
X167981831Y-116523361D01*
X167997700Y-116402826D01*
X168025967Y-116338931D01*
X168084291Y-116300460D01*
X168154156Y-116299629D01*
X168193524Y-116318695D01*
X168333539Y-116420422D01*
X168333544Y-116420425D01*
X168506466Y-116497416D01*
X168506471Y-116497418D01*
X168691628Y-116536774D01*
X168691629Y-116536774D01*
X168880918Y-116536774D01*
X168880920Y-116536774D01*
X169066077Y-116497418D01*
X169239004Y-116420425D01*
X169392145Y-116309162D01*
X169420383Y-116277801D01*
X169479869Y-116241153D01*
X169512532Y-116236774D01*
X170123950Y-116236774D01*
X170190989Y-116256459D01*
X170236744Y-116309263D01*
X170241877Y-116322446D01*
X170249046Y-116344509D01*
X170343692Y-116508441D01*
X170454967Y-116632024D01*
X170470354Y-116649113D01*
X170623490Y-116760373D01*
X170623495Y-116760376D01*
X170796417Y-116837367D01*
X170796422Y-116837369D01*
X170981579Y-116876725D01*
X170981580Y-116876725D01*
X171170869Y-116876725D01*
X171170871Y-116876725D01*
X171356028Y-116837369D01*
X171528955Y-116760376D01*
X171682096Y-116649113D01*
X171808758Y-116508441D01*
X171903404Y-116344509D01*
X171961899Y-116164481D01*
X171981685Y-115976225D01*
X171961899Y-115787969D01*
X171903404Y-115607941D01*
X171808758Y-115444009D01*
X171682096Y-115303337D01*
X171675103Y-115298256D01*
X171528959Y-115192076D01*
X171528954Y-115192073D01*
X171356032Y-115115082D01*
X171356027Y-115115080D01*
X171190301Y-115079855D01*
X171170871Y-115075725D01*
X170981579Y-115075725D01*
X170976837Y-115075725D01*
X170929388Y-115066287D01*
X170893036Y-115051230D01*
X170893035Y-115051229D01*
X170893033Y-115051229D01*
X170736275Y-115030592D01*
X170736274Y-115030592D01*
X170704971Y-115034713D01*
X170688787Y-115035774D01*
X169512532Y-115035774D01*
X169445493Y-115016089D01*
X169420383Y-114994747D01*
X169392145Y-114963386D01*
X169392138Y-114963380D01*
X169239008Y-114852125D01*
X169239003Y-114852122D01*
X169066081Y-114775131D01*
X169066076Y-114775129D01*
X168946193Y-114749648D01*
X168884711Y-114716456D01*
X168850935Y-114655293D01*
X168855587Y-114585578D01*
X168884291Y-114540679D01*
X171206551Y-112218419D01*
X171267872Y-112184936D01*
X171268072Y-112184892D01*
X171379803Y-112161144D01*
X171450065Y-112129860D01*
X171519313Y-112120575D01*
X171582590Y-112150203D01*
X171619804Y-112209337D01*
X171624500Y-112243140D01*
X171624500Y-112802512D01*
X171623438Y-112818697D01*
X171619318Y-112850000D01*
X171621659Y-112867785D01*
X171624500Y-112889360D01*
X171624500Y-112889361D01*
X171639955Y-113006760D01*
X171639956Y-113006762D01*
X171700161Y-113152111D01*
X171700464Y-113152841D01*
X171796718Y-113278282D01*
X171796719Y-113278283D01*
X171821769Y-113297504D01*
X171833964Y-113308199D01*
X172708221Y-114182456D01*
X172741706Y-114243779D01*
X172744540Y-114270137D01*
X172744540Y-114274997D01*
X172744540Y-114275000D01*
X172764326Y-114463256D01*
X172764327Y-114463259D01*
X172822818Y-114643277D01*
X172822821Y-114643284D01*
X172917467Y-114807216D01*
X173020585Y-114921740D01*
X173044129Y-114947888D01*
X173197265Y-115059148D01*
X173197270Y-115059151D01*
X173370192Y-115136142D01*
X173370197Y-115136144D01*
X173555354Y-115175500D01*
X173555355Y-115175500D01*
X173744644Y-115175500D01*
X173744646Y-115175500D01*
X173929803Y-115136144D01*
X174102730Y-115059151D01*
X174255871Y-114947888D01*
X174382533Y-114807216D01*
X174477179Y-114643284D01*
X174535674Y-114463256D01*
X174555460Y-114275000D01*
X174535674Y-114086744D01*
X174477179Y-113906716D01*
X174382533Y-113742784D01*
X174255871Y-113602112D01*
X174197979Y-113560051D01*
X174102734Y-113490851D01*
X174102729Y-113490848D01*
X173929807Y-113413857D01*
X173929802Y-113413855D01*
X173784001Y-113382865D01*
X173744646Y-113374500D01*
X173744645Y-113374500D01*
X173650097Y-113374500D01*
X173583058Y-113354815D01*
X173562416Y-113338181D01*
X172861819Y-112637584D01*
X172828334Y-112576261D01*
X172825500Y-112549903D01*
X172825500Y-112001452D01*
X172845185Y-111934413D01*
X172857350Y-111918480D01*
X172957533Y-111807216D01*
X173052179Y-111643284D01*
X173110674Y-111463256D01*
X173130460Y-111275000D01*
X173110674Y-111086744D01*
X173052179Y-110906716D01*
X172957533Y-110742784D01*
X172830871Y-110602112D01*
X172830870Y-110602111D01*
X172677734Y-110490851D01*
X172677729Y-110490848D01*
X172504807Y-110413857D01*
X172504802Y-110413855D01*
X172359001Y-110382865D01*
X172319646Y-110374500D01*
X172130354Y-110374500D01*
X172097897Y-110381398D01*
X171945197Y-110413855D01*
X171945192Y-110413857D01*
X171772270Y-110490848D01*
X171772266Y-110490851D01*
X171718179Y-110530147D01*
X171652372Y-110553626D01*
X171584319Y-110537800D01*
X171572412Y-110530148D01*
X171552732Y-110515850D01*
X171552729Y-110515848D01*
X171379807Y-110438857D01*
X171379802Y-110438855D01*
X171234001Y-110407865D01*
X171194646Y-110399500D01*
X171005354Y-110399500D01*
X170972897Y-110406398D01*
X170820197Y-110438855D01*
X170820192Y-110438857D01*
X170647270Y-110515848D01*
X170647261Y-110515854D01*
X170568177Y-110573310D01*
X170502371Y-110596789D01*
X170434317Y-110580962D01*
X170422409Y-110573310D01*
X170415490Y-110568283D01*
X170377730Y-110540849D01*
X170377728Y-110540848D01*
X170377729Y-110540848D01*
X170204807Y-110463857D01*
X170204802Y-110463855D01*
X170053981Y-110431798D01*
X170019646Y-110424500D01*
X169830354Y-110424500D01*
X169797897Y-110431398D01*
X169645197Y-110463855D01*
X169645192Y-110463857D01*
X169472270Y-110540848D01*
X169472265Y-110540851D01*
X169319129Y-110652111D01*
X169192466Y-110792785D01*
X169097821Y-110956715D01*
X169097818Y-110956722D01*
X169055573Y-111086740D01*
X169039326Y-111136744D01*
X169019540Y-111325000D01*
X169039326Y-111513256D01*
X169039327Y-111513259D01*
X169097818Y-111693277D01*
X169097821Y-111693284D01*
X169185569Y-111845269D01*
X169202042Y-111913170D01*
X169179189Y-111979196D01*
X169165863Y-111994950D01*
X167432584Y-113728231D01*
X167371261Y-113761716D01*
X167344903Y-113764550D01*
X167112587Y-113764550D01*
X167096402Y-113763489D01*
X167065100Y-113759368D01*
X167025739Y-113764550D01*
X166908339Y-113780005D01*
X166908337Y-113780006D01*
X166762260Y-113840513D01*
X166636814Y-113936771D01*
X166617595Y-113961819D01*
X166606900Y-113974014D01*
X166264015Y-114316898D01*
X166251825Y-114327589D01*
X166226766Y-114346818D01*
X166161359Y-114432061D01*
X166130514Y-114472258D01*
X166130511Y-114472263D01*
X166070007Y-114618334D01*
X166070005Y-114618339D01*
X166049368Y-114775098D01*
X166049368Y-114775100D01*
X166053489Y-114806401D01*
X166054550Y-114822587D01*
X166054550Y-115719852D01*
X166034865Y-115786891D01*
X166018231Y-115807533D01*
X164009564Y-117816199D01*
X163948241Y-117849684D01*
X163901153Y-117849798D01*
X163901114Y-117850179D01*
X163897577Y-117849807D01*
X163896112Y-117849811D01*
X163894648Y-117849500D01*
X163894646Y-117849500D01*
X163705354Y-117849500D01*
X163702160Y-117850179D01*
X163520197Y-117888855D01*
X163520192Y-117888857D01*
X163347270Y-117965848D01*
X163347265Y-117965851D01*
X163194129Y-118077111D01*
X163067466Y-118217785D01*
X162972821Y-118381715D01*
X162972818Y-118381722D01*
X162914327Y-118561740D01*
X162914326Y-118561744D01*
X162894540Y-118750000D01*
X157705460Y-118750000D01*
X157685674Y-118561744D01*
X157627179Y-118381716D01*
X157627178Y-118381714D01*
X157567113Y-118277677D01*
X157550500Y-118215677D01*
X157550500Y-113934321D01*
X157567113Y-113872321D01*
X157585477Y-113840514D01*
X157627179Y-113768284D01*
X157685674Y-113588256D01*
X157705460Y-113400000D01*
X157685674Y-113211744D01*
X157627179Y-113031716D01*
X157532533Y-112867784D01*
X157405871Y-112727112D01*
X157405870Y-112727111D01*
X157252734Y-112615851D01*
X157252729Y-112615848D01*
X157079807Y-112538857D01*
X157079802Y-112538855D01*
X156934001Y-112507865D01*
X156894646Y-112499500D01*
X156705354Y-112499500D01*
X156672897Y-112506398D01*
X156520197Y-112538855D01*
X156520192Y-112538857D01*
X156347270Y-112615848D01*
X156347265Y-112615851D01*
X156194129Y-112727111D01*
X156067466Y-112867785D01*
X155972821Y-113031715D01*
X155972818Y-113031722D01*
X155914327Y-113211740D01*
X155914326Y-113211744D01*
X155894540Y-113400000D01*
X155914326Y-113588256D01*
X155914327Y-113588259D01*
X155972818Y-113768277D01*
X155972821Y-113768284D01*
X156014522Y-113840513D01*
X156032887Y-113872321D01*
X156049500Y-113934321D01*
X156049500Y-118215677D01*
X156032887Y-118277677D01*
X155972821Y-118381714D01*
X155914327Y-118561740D01*
X155914326Y-118561744D01*
X155894540Y-118750000D01*
X142468103Y-118750000D01*
X142475460Y-118680000D01*
X142455674Y-118491744D01*
X142397179Y-118311716D01*
X142346153Y-118223337D01*
X142329681Y-118155439D01*
X142346152Y-118099343D01*
X142387179Y-118028284D01*
X142445674Y-117848256D01*
X142465460Y-117660000D01*
X142445674Y-117471744D01*
X142387179Y-117291716D01*
X142352692Y-117231982D01*
X142336220Y-117164087D01*
X142352691Y-117107989D01*
X142398673Y-117028348D01*
X142457168Y-116848320D01*
X142476954Y-116660064D01*
X142457168Y-116471808D01*
X142398673Y-116291780D01*
X142357509Y-116220482D01*
X142341037Y-116152585D01*
X142357509Y-116096487D01*
X142396851Y-116028347D01*
X142405691Y-116001142D01*
X142408118Y-115993671D01*
X142447554Y-115935995D01*
X142511913Y-115908796D01*
X142580759Y-115920710D01*
X142586894Y-115923983D01*
X142587267Y-115924149D01*
X142587270Y-115924151D01*
X142681468Y-115966091D01*
X142760192Y-116001142D01*
X142760197Y-116001144D01*
X142945354Y-116040500D01*
X142945355Y-116040500D01*
X143134644Y-116040500D01*
X143134646Y-116040500D01*
X143319803Y-116001144D01*
X143492730Y-115924151D01*
X143505412Y-115914936D01*
X143511533Y-115910490D01*
X143577339Y-115887009D01*
X143634854Y-115897527D01*
X143660163Y-115908796D01*
X143800192Y-115971142D01*
X143800197Y-115971144D01*
X143985354Y-116010500D01*
X143985355Y-116010500D01*
X144174644Y-116010500D01*
X144174646Y-116010500D01*
X144359803Y-115971144D01*
X144532730Y-115894151D01*
X144532731Y-115894149D01*
X144535231Y-115893037D01*
X144604481Y-115883752D01*
X144636101Y-115893036D01*
X144800187Y-115966093D01*
X144985344Y-116005449D01*
X144985345Y-116005449D01*
X145174634Y-116005449D01*
X145174636Y-116005449D01*
X145359793Y-115966093D01*
X145513791Y-115897528D01*
X145532718Y-115889101D01*
X145532718Y-115889100D01*
X145532720Y-115889100D01*
X145568633Y-115863007D01*
X145634437Y-115839527D01*
X145702491Y-115855351D01*
X145714403Y-115863007D01*
X145757265Y-115894148D01*
X145757270Y-115894151D01*
X145930192Y-115971142D01*
X145930197Y-115971144D01*
X146115354Y-116010500D01*
X146115355Y-116010500D01*
X146304644Y-116010500D01*
X146304646Y-116010500D01*
X146489803Y-115971144D01*
X146662730Y-115894151D01*
X146815871Y-115782888D01*
X146942533Y-115642216D01*
X147037179Y-115478284D01*
X147095674Y-115298256D01*
X147115460Y-115110000D01*
X147095674Y-114921744D01*
X147037179Y-114741716D01*
X146942533Y-114577784D01*
X146912938Y-114544916D01*
X146882710Y-114481927D01*
X146891335Y-114412592D01*
X146912937Y-114378978D01*
X146932533Y-114357216D01*
X147027179Y-114193284D01*
X147085674Y-114013256D01*
X147105460Y-113825000D01*
X147085674Y-113636744D01*
X147027179Y-113456716D01*
X146932533Y-113292784D01*
X146805871Y-113152112D01*
X146805870Y-113152111D01*
X146652734Y-113040851D01*
X146652729Y-113040848D01*
X146479807Y-112963857D01*
X146479802Y-112963855D01*
X146334001Y-112932865D01*
X146294646Y-112924500D01*
X146294645Y-112924500D01*
X146275097Y-112924500D01*
X146208058Y-112904815D01*
X146187416Y-112888181D01*
X146048199Y-112748964D01*
X146037504Y-112736769D01*
X146018283Y-112711719D01*
X146013770Y-112708256D01*
X145892841Y-112615464D01*
X145746762Y-112554956D01*
X145734047Y-112553282D01*
X145734046Y-112553281D01*
X145590001Y-112534318D01*
X145590000Y-112534318D01*
X145558697Y-112538439D01*
X145542513Y-112539500D01*
X130067487Y-112539500D01*
X130051302Y-112538439D01*
X130020000Y-112534318D01*
X130019999Y-112534318D01*
X129875953Y-112553281D01*
X129875953Y-112553282D01*
X129863238Y-112554956D01*
X129863237Y-112554956D01*
X129717157Y-112615464D01*
X129591718Y-112711716D01*
X129572489Y-112736775D01*
X129561798Y-112748965D01*
X128337584Y-113973181D01*
X128276261Y-114006666D01*
X128249903Y-114009500D01*
X128155354Y-114009500D01*
X128122897Y-114016398D01*
X127970197Y-114048855D01*
X127970192Y-114048857D01*
X127797270Y-114125848D01*
X127797265Y-114125851D01*
X127644129Y-114237111D01*
X127517466Y-114377785D01*
X127422821Y-114541715D01*
X127422818Y-114541722D01*
X127374613Y-114690084D01*
X127364326Y-114721744D01*
X127344540Y-114910000D01*
X127364326Y-115098256D01*
X127364327Y-115098259D01*
X127422818Y-115278277D01*
X127422821Y-115278284D01*
X127517467Y-115442216D01*
X127644129Y-115582888D01*
X127797265Y-115694148D01*
X127797270Y-115694151D01*
X127970192Y-115771142D01*
X127970197Y-115771144D01*
X128155354Y-115810500D01*
X128155355Y-115810500D01*
X128344644Y-115810500D01*
X128344646Y-115810500D01*
X128529803Y-115771144D01*
X128649616Y-115717798D01*
X128718865Y-115708514D01*
X128772936Y-115730759D01*
X128792195Y-115744751D01*
X128795853Y-115747409D01*
X128968775Y-115824400D01*
X128968780Y-115824402D01*
X129153937Y-115863758D01*
X129153938Y-115863758D01*
X129343227Y-115863758D01*
X129343229Y-115863758D01*
X129528386Y-115824402D01*
X129648004Y-115771144D01*
X129678083Y-115757752D01*
X129747333Y-115748467D01*
X129790513Y-115763640D01*
X129795673Y-115766619D01*
X129968593Y-115843609D01*
X129968598Y-115843611D01*
X130153755Y-115882967D01*
X130153756Y-115882967D01*
X130343045Y-115882967D01*
X130343047Y-115882967D01*
X130528204Y-115843611D01*
X130701131Y-115766618D01*
X130701136Y-115766614D01*
X130701698Y-115766364D01*
X130770948Y-115757078D01*
X130802568Y-115766363D01*
X130968595Y-115840284D01*
X131153752Y-115879640D01*
X131153753Y-115879640D01*
X131343042Y-115879640D01*
X131343044Y-115879640D01*
X131528201Y-115840284D01*
X131690033Y-115768231D01*
X131701124Y-115763293D01*
X131701124Y-115763292D01*
X131701128Y-115763291D01*
X131704423Y-115760896D01*
X131706652Y-115760101D01*
X131706755Y-115760042D01*
X131706765Y-115760060D01*
X131770224Y-115737412D01*
X131838280Y-115753231D01*
X131850189Y-115760883D01*
X131931975Y-115820304D01*
X131937270Y-115824151D01*
X132110192Y-115901142D01*
X132110197Y-115901144D01*
X132295354Y-115940500D01*
X132295355Y-115940500D01*
X132484644Y-115940500D01*
X132484646Y-115940500D01*
X132669803Y-115901144D01*
X132842730Y-115824151D01*
X132919699Y-115768229D01*
X132985502Y-115744751D01*
X133053556Y-115760576D01*
X133102251Y-115810682D01*
X133115901Y-115855582D01*
X133117254Y-115868447D01*
X133117255Y-115868450D01*
X133175749Y-116048476D01*
X133203872Y-116097187D01*
X133220345Y-116165088D01*
X133203872Y-116221187D01*
X133151535Y-116311837D01*
X133093041Y-116491863D01*
X133093040Y-116491867D01*
X133073254Y-116680123D01*
X133093040Y-116868379D01*
X133093041Y-116868382D01*
X133151535Y-117048408D01*
X133194844Y-117123422D01*
X133211317Y-117191322D01*
X133194844Y-117247422D01*
X133157663Y-117311821D01*
X133105702Y-117471740D01*
X133099168Y-117491851D01*
X133079382Y-117680107D01*
X133099168Y-117868363D01*
X133099169Y-117868366D01*
X133157660Y-118048384D01*
X133157665Y-118048396D01*
X133190461Y-118105200D01*
X133206934Y-118173100D01*
X133190461Y-118229199D01*
X133142821Y-118311714D01*
X133112063Y-118406378D01*
X133084326Y-118491744D01*
X133064540Y-118680000D01*
X133077883Y-118806958D01*
X133081753Y-118843773D01*
X133069183Y-118912503D01*
X133021451Y-118963526D01*
X132953711Y-118980644D01*
X132942306Y-118979681D01*
X132941460Y-118979570D01*
X132940928Y-118979500D01*
X132901567Y-118974318D01*
X132870264Y-118978439D01*
X132854080Y-118979500D01*
X130630097Y-118979500D01*
X130563058Y-118959815D01*
X130542416Y-118943181D01*
X126476819Y-114877584D01*
X126443334Y-114816261D01*
X126440500Y-114789903D01*
X126440500Y-114726452D01*
X126460185Y-114659413D01*
X126472350Y-114643480D01*
X126572533Y-114532216D01*
X126667179Y-114368284D01*
X126725674Y-114188256D01*
X126745460Y-114000000D01*
X126725674Y-113811744D01*
X126668811Y-113636740D01*
X126667181Y-113631722D01*
X126667180Y-113631721D01*
X126667179Y-113631716D01*
X126572533Y-113467784D01*
X126445871Y-113327112D01*
X126445870Y-113327111D01*
X126292734Y-113215851D01*
X126292729Y-113215848D01*
X126119807Y-113138857D01*
X126119802Y-113138855D01*
X125974001Y-113107865D01*
X125934646Y-113099500D01*
X125864500Y-113099500D01*
X125797461Y-113079815D01*
X125751706Y-113027011D01*
X125740500Y-112975500D01*
X125740500Y-111521469D01*
X125760185Y-111454430D01*
X125776819Y-111433788D01*
X128460602Y-108750005D01*
X133629649Y-108750005D01*
X133649019Y-108983773D01*
X133649021Y-108983785D01*
X133706607Y-109211187D01*
X133800838Y-109426011D01*
X133929140Y-109622395D01*
X133970267Y-109667070D01*
X134088022Y-109794986D01*
X134273142Y-109939070D01*
X134479452Y-110050720D01*
X134594662Y-110090272D01*
X134701320Y-110126888D01*
X134701322Y-110126888D01*
X134701324Y-110126889D01*
X134932708Y-110165500D01*
X134932709Y-110165500D01*
X135167291Y-110165500D01*
X135167292Y-110165500D01*
X135398676Y-110126889D01*
X135620548Y-110050720D01*
X135826858Y-109939070D01*
X136011978Y-109794986D01*
X136170857Y-109622398D01*
X136170858Y-109622395D01*
X136170861Y-109622393D01*
X136216191Y-109553009D01*
X136269336Y-109507651D01*
X136338568Y-109498227D01*
X136401904Y-109527728D01*
X136423809Y-109553009D01*
X136469138Y-109622393D01*
X136527595Y-109685894D01*
X136628022Y-109794986D01*
X136813142Y-109939070D01*
X137019452Y-110050720D01*
X137134662Y-110090272D01*
X137241320Y-110126888D01*
X137241322Y-110126888D01*
X137241324Y-110126889D01*
X137472708Y-110165500D01*
X137472709Y-110165500D01*
X137707291Y-110165500D01*
X137707292Y-110165500D01*
X137938676Y-110126889D01*
X138160548Y-110050720D01*
X138366858Y-109939070D01*
X138551978Y-109794986D01*
X138710857Y-109622398D01*
X138761191Y-109545354D01*
X138814337Y-109499998D01*
X138883568Y-109490574D01*
X138946904Y-109520075D01*
X138968808Y-109545354D01*
X139019143Y-109622398D01*
X139178022Y-109794986D01*
X139363142Y-109939070D01*
X139569452Y-110050720D01*
X139684662Y-110090272D01*
X139791320Y-110126888D01*
X139791322Y-110126888D01*
X139791324Y-110126889D01*
X140022708Y-110165500D01*
X140022709Y-110165500D01*
X140257291Y-110165500D01*
X140257292Y-110165500D01*
X140488676Y-110126889D01*
X140710548Y-110050720D01*
X140916858Y-109939070D01*
X141101978Y-109794986D01*
X141260857Y-109622398D01*
X141389161Y-109426012D01*
X141483392Y-109211187D01*
X141540979Y-108983782D01*
X141551467Y-108857214D01*
X141560351Y-108750005D01*
X141560351Y-108749994D01*
X141540980Y-108516226D01*
X141540978Y-108516214D01*
X141483392Y-108288812D01*
X141389161Y-108073988D01*
X141260859Y-107877604D01*
X141182776Y-107792784D01*
X141101978Y-107705014D01*
X140931707Y-107572487D01*
X140916860Y-107560931D01*
X140710548Y-107449280D01*
X140710540Y-107449277D01*
X140488679Y-107373111D01*
X140315138Y-107344152D01*
X140257292Y-107334500D01*
X140022708Y-107334500D01*
X139976431Y-107342222D01*
X139791320Y-107373111D01*
X139569459Y-107449277D01*
X139569451Y-107449280D01*
X139363139Y-107560931D01*
X139251005Y-107648209D01*
X139178022Y-107705014D01*
X139178019Y-107705016D01*
X139178019Y-107705017D01*
X139019140Y-107877604D01*
X138968809Y-107954644D01*
X138915663Y-108000001D01*
X138846431Y-108009425D01*
X138783096Y-107979923D01*
X138761191Y-107954644D01*
X138710859Y-107877604D01*
X138632776Y-107792784D01*
X138551978Y-107705014D01*
X138381707Y-107572487D01*
X138366860Y-107560931D01*
X138160548Y-107449280D01*
X138160540Y-107449277D01*
X137938679Y-107373111D01*
X137765138Y-107344152D01*
X137707292Y-107334500D01*
X137472708Y-107334500D01*
X137426431Y-107342222D01*
X137241320Y-107373111D01*
X137019459Y-107449277D01*
X137019451Y-107449280D01*
X136813139Y-107560931D01*
X136701005Y-107648209D01*
X136628022Y-107705014D01*
X136628019Y-107705016D01*
X136628019Y-107705017D01*
X136469140Y-107877604D01*
X136423809Y-107946991D01*
X136370663Y-107992348D01*
X136301432Y-108001772D01*
X136238096Y-107972270D01*
X136216191Y-107946991D01*
X136170859Y-107877604D01*
X136092776Y-107792784D01*
X136011978Y-107705014D01*
X135841707Y-107572487D01*
X135826860Y-107560931D01*
X135620548Y-107449280D01*
X135620540Y-107449277D01*
X135398679Y-107373111D01*
X135225138Y-107344152D01*
X135167292Y-107334500D01*
X134932708Y-107334500D01*
X134886431Y-107342222D01*
X134701320Y-107373111D01*
X134479459Y-107449277D01*
X134479451Y-107449280D01*
X134273139Y-107560931D01*
X134161005Y-107648209D01*
X134088022Y-107705014D01*
X134088019Y-107705016D01*
X134088019Y-107705017D01*
X133929140Y-107877604D01*
X133800838Y-108073988D01*
X133706607Y-108288812D01*
X133649021Y-108516214D01*
X133649019Y-108516226D01*
X133629649Y-108749994D01*
X133629649Y-108750005D01*
X128460602Y-108750005D01*
X133960602Y-103250005D01*
X146429649Y-103250005D01*
X146449019Y-103483773D01*
X146449021Y-103483785D01*
X146506607Y-103711187D01*
X146600838Y-103926011D01*
X146729140Y-104122395D01*
X146761718Y-104157784D01*
X146888022Y-104294986D01*
X147073142Y-104439070D01*
X147279452Y-104550720D01*
X147394662Y-104590272D01*
X147501320Y-104626888D01*
X147501322Y-104626888D01*
X147501324Y-104626889D01*
X147732708Y-104665500D01*
X147732709Y-104665500D01*
X147967291Y-104665500D01*
X147967292Y-104665500D01*
X148198676Y-104626889D01*
X148420548Y-104550720D01*
X148626858Y-104439070D01*
X148811978Y-104294986D01*
X148970857Y-104122398D01*
X149099161Y-103926012D01*
X149193392Y-103711187D01*
X149250979Y-103483782D01*
X149250980Y-103483773D01*
X149270351Y-103250005D01*
X149270351Y-103249994D01*
X149250980Y-103016226D01*
X149250978Y-103016214D01*
X149193392Y-102788812D01*
X149099161Y-102573988D01*
X148970859Y-102377604D01*
X148924830Y-102327604D01*
X148811978Y-102205014D01*
X148642177Y-102072853D01*
X148601365Y-102016143D01*
X148597690Y-101946370D01*
X148632322Y-101885687D01*
X148642177Y-101877147D01*
X148678250Y-101849070D01*
X148811978Y-101744986D01*
X148844185Y-101710000D01*
X160154540Y-101710000D01*
X160174326Y-101898256D01*
X160174327Y-101898259D01*
X160232818Y-102078277D01*
X160232821Y-102078284D01*
X160327467Y-102242216D01*
X160404349Y-102327602D01*
X160454129Y-102382888D01*
X160607265Y-102494148D01*
X160607270Y-102494151D01*
X160780192Y-102571142D01*
X160780197Y-102571144D01*
X160965354Y-102610500D01*
X160965355Y-102610500D01*
X161154644Y-102610500D01*
X161154646Y-102610500D01*
X161339803Y-102571144D01*
X161512730Y-102494151D01*
X161665871Y-102382888D01*
X161792533Y-102242216D01*
X161887179Y-102078284D01*
X161945674Y-101898256D01*
X161965460Y-101710000D01*
X161945674Y-101521744D01*
X161906569Y-101401391D01*
X161900500Y-101363073D01*
X161900500Y-97859321D01*
X161917113Y-97797321D01*
X161977179Y-97693284D01*
X162035674Y-97513256D01*
X162055460Y-97325000D01*
X162035674Y-97136744D01*
X161977179Y-96956716D01*
X161882533Y-96792784D01*
X161755871Y-96652112D01*
X161755870Y-96652111D01*
X161602734Y-96540851D01*
X161602729Y-96540848D01*
X161429807Y-96463857D01*
X161429802Y-96463855D01*
X161284001Y-96432865D01*
X161244646Y-96424500D01*
X161055354Y-96424500D01*
X161022897Y-96431398D01*
X160870197Y-96463855D01*
X160870192Y-96463857D01*
X160697270Y-96540848D01*
X160697265Y-96540851D01*
X160544129Y-96652111D01*
X160417466Y-96792785D01*
X160322821Y-96956715D01*
X160322818Y-96956722D01*
X160264327Y-97136740D01*
X160264326Y-97136744D01*
X160244540Y-97325000D01*
X160264326Y-97513256D01*
X160264327Y-97513259D01*
X160322818Y-97693277D01*
X160322821Y-97693284D01*
X160382887Y-97797321D01*
X160399500Y-97859321D01*
X160399500Y-101050184D01*
X160379815Y-101117223D01*
X160367650Y-101133156D01*
X160327466Y-101177785D01*
X160232821Y-101341715D01*
X160232818Y-101341722D01*
X160174327Y-101521740D01*
X160174326Y-101521744D01*
X160154540Y-101710000D01*
X148844185Y-101710000D01*
X148970857Y-101572398D01*
X149099161Y-101376012D01*
X149193392Y-101161187D01*
X149250979Y-100933782D01*
X149253931Y-100898157D01*
X149270351Y-100700005D01*
X149270351Y-100699994D01*
X149250980Y-100466226D01*
X149250978Y-100466214D01*
X149193392Y-100238812D01*
X149099161Y-100023988D01*
X148970859Y-99827604D01*
X148934034Y-99787602D01*
X148811978Y-99655014D01*
X148648599Y-99527852D01*
X148607788Y-99471143D01*
X148604113Y-99401370D01*
X148638745Y-99340687D01*
X148648591Y-99332154D01*
X148811978Y-99204986D01*
X148970857Y-99032398D01*
X149099161Y-98836012D01*
X149193392Y-98621187D01*
X149250979Y-98393782D01*
X149270351Y-98160000D01*
X149266208Y-98110005D01*
X149250980Y-97926226D01*
X149250978Y-97926214D01*
X149193392Y-97698812D01*
X149099161Y-97483988D01*
X148970859Y-97287604D01*
X148924830Y-97237604D01*
X148811978Y-97115014D01*
X148681334Y-97013330D01*
X148626860Y-96970931D01*
X148420548Y-96859280D01*
X148420540Y-96859277D01*
X148198679Y-96783111D01*
X148025138Y-96754152D01*
X147967292Y-96744500D01*
X147732708Y-96744500D01*
X147686431Y-96752222D01*
X147501320Y-96783111D01*
X147279459Y-96859277D01*
X147279451Y-96859280D01*
X147073139Y-96970931D01*
X146952262Y-97065014D01*
X146888022Y-97115014D01*
X146888019Y-97115016D01*
X146888019Y-97115017D01*
X146729140Y-97287604D01*
X146600838Y-97483988D01*
X146506607Y-97698812D01*
X146449021Y-97926214D01*
X146449019Y-97926226D01*
X146429649Y-98159994D01*
X146429649Y-98160005D01*
X146449019Y-98393773D01*
X146449021Y-98393785D01*
X146506607Y-98621187D01*
X146600838Y-98836011D01*
X146729140Y-99032395D01*
X146729143Y-99032398D01*
X146888022Y-99204986D01*
X147008902Y-99299070D01*
X147051399Y-99332147D01*
X147092211Y-99388857D01*
X147095886Y-99458630D01*
X147061254Y-99519313D01*
X147051399Y-99527853D01*
X146888022Y-99655014D01*
X146888019Y-99655016D01*
X146888019Y-99655017D01*
X146729140Y-99827604D01*
X146600838Y-100023988D01*
X146506607Y-100238812D01*
X146449021Y-100466214D01*
X146449019Y-100466226D01*
X146429649Y-100699994D01*
X146429649Y-100700005D01*
X146449019Y-100933773D01*
X146449021Y-100933785D01*
X146506607Y-101161187D01*
X146600838Y-101376011D01*
X146729140Y-101572395D01*
X146729143Y-101572398D01*
X146888022Y-101744986D01*
X146910292Y-101762319D01*
X147057822Y-101877147D01*
X147098635Y-101933857D01*
X147102308Y-102003630D01*
X147067677Y-102064314D01*
X147057822Y-102072853D01*
X146888024Y-102205012D01*
X146888019Y-102205017D01*
X146729140Y-102377604D01*
X146600838Y-102573988D01*
X146506607Y-102788812D01*
X146449021Y-103016214D01*
X146449019Y-103016226D01*
X146429649Y-103249994D01*
X146429649Y-103250005D01*
X133960602Y-103250005D01*
X141583106Y-95627501D01*
X163178783Y-95627501D01*
X163198441Y-96102778D01*
X163257278Y-96574810D01*
X163306442Y-96809280D01*
X163354897Y-97040371D01*
X163377119Y-97115013D01*
X163490622Y-97496268D01*
X163490629Y-97496286D01*
X163658392Y-97926226D01*
X163663543Y-97939425D01*
X163771378Y-98160005D01*
X163872462Y-98366776D01*
X164115954Y-98775409D01*
X164115967Y-98775428D01*
X164392355Y-99162534D01*
X164392369Y-99162553D01*
X164699800Y-99525537D01*
X165036162Y-99861899D01*
X165180313Y-99983988D01*
X165399150Y-100169333D01*
X165786285Y-100445742D01*
X166194924Y-100689238D01*
X166622275Y-100898157D01*
X167065419Y-101071073D01*
X167065426Y-101071075D01*
X167065431Y-101071077D01*
X167155136Y-101097783D01*
X167521329Y-101206803D01*
X167986889Y-101304421D01*
X168458921Y-101363259D01*
X168897885Y-101381415D01*
X168934198Y-101382917D01*
X168934200Y-101382917D01*
X168934202Y-101382917D01*
X168969177Y-101381470D01*
X169409479Y-101363259D01*
X169881511Y-101304421D01*
X170347071Y-101206803D01*
X170802981Y-101071073D01*
X171246125Y-100898157D01*
X171673476Y-100689238D01*
X172082115Y-100445742D01*
X172469250Y-100169333D01*
X172832238Y-99861898D01*
X172832243Y-99861894D01*
X173168594Y-99525543D01*
X173168599Y-99525537D01*
X173284361Y-99388857D01*
X173476033Y-99162550D01*
X173752442Y-98775415D01*
X173995938Y-98366776D01*
X174204857Y-97939425D01*
X174377773Y-97496281D01*
X174513503Y-97040371D01*
X174611121Y-96574811D01*
X174669959Y-96102779D01*
X174689617Y-95627500D01*
X174669959Y-95152221D01*
X174611121Y-94680189D01*
X174513503Y-94214629D01*
X174397309Y-93824338D01*
X174377777Y-93758731D01*
X174377775Y-93758726D01*
X174377773Y-93758719D01*
X174204857Y-93315575D01*
X173995938Y-92888224D01*
X173752442Y-92479585D01*
X173671428Y-92366118D01*
X173476044Y-92092465D01*
X173476030Y-92092446D01*
X173168599Y-91729462D01*
X172832237Y-91393100D01*
X172469253Y-91085669D01*
X172469234Y-91085655D01*
X172082128Y-90809267D01*
X172082109Y-90809254D01*
X171673476Y-90565762D01*
X171601346Y-90530500D01*
X171246125Y-90356843D01*
X171246116Y-90356839D01*
X171246113Y-90356838D01*
X170802986Y-90183929D01*
X170802968Y-90183922D01*
X170442152Y-90076504D01*
X170347071Y-90048197D01*
X170249452Y-90027728D01*
X169881510Y-89950578D01*
X169468316Y-89899074D01*
X169409479Y-89891741D01*
X169251052Y-89885188D01*
X168934202Y-89872083D01*
X168934198Y-89872083D01*
X168458921Y-89891741D01*
X167986889Y-89950578D01*
X167521329Y-90048197D01*
X167065431Y-90183922D01*
X167065413Y-90183929D01*
X166622286Y-90356838D01*
X166622267Y-90356847D01*
X166194923Y-90565762D01*
X165786290Y-90809254D01*
X165786271Y-90809267D01*
X165399165Y-91085655D01*
X165399146Y-91085669D01*
X165036162Y-91393100D01*
X165036157Y-91393106D01*
X164699806Y-91729457D01*
X164699800Y-91729462D01*
X164392369Y-92092446D01*
X164392355Y-92092465D01*
X164115967Y-92479571D01*
X164115954Y-92479590D01*
X163872462Y-92888223D01*
X163663547Y-93315567D01*
X163663538Y-93315586D01*
X163490629Y-93758713D01*
X163490622Y-93758731D01*
X163354897Y-94214629D01*
X163257278Y-94680189D01*
X163198441Y-95152221D01*
X163178783Y-95627498D01*
X163178783Y-95627501D01*
X141583106Y-95627501D01*
X144103788Y-93106819D01*
X144165111Y-93073334D01*
X144191469Y-93070500D01*
X146486703Y-93070500D01*
X146553742Y-93090185D01*
X146598268Y-93141570D01*
X146598397Y-93141501D01*
X146598712Y-93142083D01*
X146599497Y-93142989D01*
X146600260Y-93144693D01*
X146600838Y-93146011D01*
X146729140Y-93342395D01*
X146757290Y-93372974D01*
X146888022Y-93514986D01*
X147073142Y-93659070D01*
X147279452Y-93770720D01*
X147332327Y-93788872D01*
X147501320Y-93846888D01*
X147501322Y-93846888D01*
X147501324Y-93846889D01*
X147732708Y-93885500D01*
X147732709Y-93885500D01*
X147967291Y-93885500D01*
X147967292Y-93885500D01*
X148198676Y-93846889D01*
X148420548Y-93770720D01*
X148626858Y-93659070D01*
X148811978Y-93514986D01*
X148970857Y-93342398D01*
X149099161Y-93146012D01*
X149193392Y-92931187D01*
X149250979Y-92703782D01*
X149260407Y-92590005D01*
X149270351Y-92470005D01*
X149270351Y-92469994D01*
X149250980Y-92236226D01*
X149250978Y-92236214D01*
X149193392Y-92008812D01*
X149099161Y-91793988D01*
X148970859Y-91597604D01*
X148922444Y-91545012D01*
X148811978Y-91425014D01*
X148648599Y-91297852D01*
X148607788Y-91241143D01*
X148604113Y-91171370D01*
X148638745Y-91110687D01*
X148648591Y-91102154D01*
X148811978Y-90974986D01*
X148970857Y-90802398D01*
X149099161Y-90606012D01*
X149193392Y-90391187D01*
X149250979Y-90163782D01*
X149270351Y-89930000D01*
X149250979Y-89696218D01*
X149223312Y-89586962D01*
X149193392Y-89468812D01*
X149099161Y-89253988D01*
X148970859Y-89057604D01*
X148913240Y-88995014D01*
X148811978Y-88885014D01*
X148642177Y-88752853D01*
X148601365Y-88696143D01*
X148597690Y-88626370D01*
X148632322Y-88565687D01*
X148642177Y-88557147D01*
X148657806Y-88544982D01*
X148811978Y-88424986D01*
X148970857Y-88252398D01*
X149099161Y-88056012D01*
X149193392Y-87841187D01*
X149250979Y-87613782D01*
X149260263Y-87501744D01*
X149270351Y-87380005D01*
X149270351Y-87379994D01*
X149250980Y-87146226D01*
X149250978Y-87146214D01*
X149193392Y-86918812D01*
X149099161Y-86703988D01*
X148970859Y-86507604D01*
X148922445Y-86455013D01*
X148811978Y-86335014D01*
X148670035Y-86224536D01*
X148626860Y-86190931D01*
X148420548Y-86079280D01*
X148420540Y-86079277D01*
X148198679Y-86003111D01*
X147985006Y-85967456D01*
X147967292Y-85964500D01*
X147732708Y-85964500D01*
X147714994Y-85967456D01*
X147501320Y-86003111D01*
X147279459Y-86079277D01*
X147279451Y-86079280D01*
X147073139Y-86190931D01*
X146952225Y-86285043D01*
X146888022Y-86335014D01*
X146888019Y-86335016D01*
X146888019Y-86335017D01*
X146729140Y-86507604D01*
X146600838Y-86703988D01*
X146506607Y-86918812D01*
X146449021Y-87146214D01*
X146449019Y-87146226D01*
X146429649Y-87379994D01*
X146429649Y-87380005D01*
X146449019Y-87613773D01*
X146449021Y-87613786D01*
X146495973Y-87799194D01*
X146493348Y-87869014D01*
X146463448Y-87917315D01*
X123948965Y-110431798D01*
X123936775Y-110442489D01*
X123911716Y-110461718D01*
X123850999Y-110540849D01*
X123829949Y-110568282D01*
X123818578Y-110583101D01*
X123815462Y-110587162D01*
X123815461Y-110587163D01*
X123754957Y-110733234D01*
X123754955Y-110733239D01*
X123740520Y-110842888D01*
X123734318Y-110890000D01*
X123736281Y-110904913D01*
X123738439Y-110921301D01*
X123739500Y-110937487D01*
X123739500Y-111952769D01*
X123719815Y-112019808D01*
X123667011Y-112065563D01*
X123597853Y-112075507D01*
X123534297Y-112046482D01*
X123508113Y-112014769D01*
X123496670Y-111994950D01*
X123492533Y-111987784D01*
X123365871Y-111847112D01*
X123365870Y-111847111D01*
X123212734Y-111735851D01*
X123212729Y-111735848D01*
X123039807Y-111658857D01*
X123039802Y-111658855D01*
X122894001Y-111627865D01*
X122854646Y-111619500D01*
X122665354Y-111619500D01*
X122600279Y-111633331D01*
X122530612Y-111628015D01*
X122474879Y-111585877D01*
X122450775Y-111520297D01*
X122450500Y-111512041D01*
X122450500Y-110968094D01*
X122470185Y-110901055D01*
X122501614Y-110867776D01*
X122535871Y-110842888D01*
X122662533Y-110702216D01*
X122757179Y-110538284D01*
X122815674Y-110358256D01*
X122835460Y-110170000D01*
X122815674Y-109981744D01*
X122757179Y-109801716D01*
X122662533Y-109637784D01*
X122535871Y-109497112D01*
X122535870Y-109497111D01*
X122382734Y-109385851D01*
X122382729Y-109385848D01*
X122209807Y-109308857D01*
X122209802Y-109308855D01*
X122064001Y-109277865D01*
X122024646Y-109269500D01*
X121835354Y-109269500D01*
X121802897Y-109276398D01*
X121650197Y-109308855D01*
X121650192Y-109308857D01*
X121477270Y-109385848D01*
X121477266Y-109385851D01*
X121432884Y-109418096D01*
X121367077Y-109441575D01*
X121299024Y-109425749D01*
X121287116Y-109418096D01*
X121242733Y-109385851D01*
X121242729Y-109385848D01*
X121069807Y-109308857D01*
X121069802Y-109308855D01*
X120924001Y-109277865D01*
X120884646Y-109269500D01*
X120695354Y-109269500D01*
X120662897Y-109276398D01*
X120510197Y-109308855D01*
X120510192Y-109308857D01*
X120337268Y-109385849D01*
X120295999Y-109415832D01*
X120230192Y-109439310D01*
X120162139Y-109423483D01*
X120150233Y-109415831D01*
X120140232Y-109408565D01*
X120122730Y-109395849D01*
X120105739Y-109388284D01*
X119949807Y-109318857D01*
X119949802Y-109318855D01*
X119804001Y-109287865D01*
X119764646Y-109279500D01*
X119575354Y-109279500D01*
X119542897Y-109286398D01*
X119390197Y-109318855D01*
X119390192Y-109318857D01*
X119217271Y-109395848D01*
X119199765Y-109408567D01*
X119133958Y-109432045D01*
X119065905Y-109416218D01*
X119053997Y-109408565D01*
X119022734Y-109385851D01*
X119022729Y-109385848D01*
X118849807Y-109308857D01*
X118849802Y-109308855D01*
X118704001Y-109277865D01*
X118664646Y-109269500D01*
X118475354Y-109269500D01*
X118442897Y-109276398D01*
X118290197Y-109308855D01*
X118290192Y-109308857D01*
X118117268Y-109385849D01*
X118093527Y-109403098D01*
X118027720Y-109426576D01*
X117959667Y-109410749D01*
X117947767Y-109403101D01*
X117882730Y-109355849D01*
X117882729Y-109355848D01*
X117709807Y-109278857D01*
X117709802Y-109278855D01*
X117564001Y-109247865D01*
X117524646Y-109239500D01*
X117524645Y-109239500D01*
X117430097Y-109239500D01*
X117363058Y-109219815D01*
X117342416Y-109203181D01*
X116908199Y-108768964D01*
X116897504Y-108756769D01*
X116878283Y-108731719D01*
X116878282Y-108731718D01*
X116752841Y-108635464D01*
X116606762Y-108574956D01*
X116606760Y-108574955D01*
X116489361Y-108559500D01*
X116450000Y-108554318D01*
X116418697Y-108558439D01*
X116402513Y-108559500D01*
X114247437Y-108559500D01*
X114231252Y-108558439D01*
X114199950Y-108554318D01*
X114192538Y-108554318D01*
X114125499Y-108534633D01*
X114085151Y-108492318D01*
X114084257Y-108490770D01*
X114082533Y-108487784D01*
X114027628Y-108426806D01*
X113982350Y-108376519D01*
X113952120Y-108313527D01*
X113950500Y-108293547D01*
X113950500Y-107166452D01*
X113970185Y-107099413D01*
X113982350Y-107083480D01*
X114082533Y-106972216D01*
X114177179Y-106808284D01*
X114235674Y-106628256D01*
X114255460Y-106440000D01*
X114235674Y-106251744D01*
X114177179Y-106071716D01*
X114082533Y-105907784D01*
X113955871Y-105767112D01*
X113955870Y-105767111D01*
X113802734Y-105655851D01*
X113802729Y-105655848D01*
X113629807Y-105578857D01*
X113629802Y-105578855D01*
X113484001Y-105547865D01*
X113444646Y-105539500D01*
X113255354Y-105539500D01*
X113222897Y-105546398D01*
X113070197Y-105578855D01*
X113070192Y-105578857D01*
X112897270Y-105655848D01*
X112897265Y-105655851D01*
X112744129Y-105767111D01*
X112617466Y-105907785D01*
X112522821Y-106071715D01*
X112522818Y-106071722D01*
X112464327Y-106251740D01*
X112464326Y-106251744D01*
X112444540Y-106440000D01*
X112464326Y-106628256D01*
X112464327Y-106628259D01*
X112522818Y-106808277D01*
X112522821Y-106808284D01*
X112617467Y-106972216D01*
X112717650Y-107083480D01*
X112747880Y-107146471D01*
X112749500Y-107166452D01*
X112749500Y-108293547D01*
X112729815Y-108360586D01*
X112717650Y-108376519D01*
X112617466Y-108487785D01*
X112522821Y-108651715D01*
X112522818Y-108651722D01*
X112464327Y-108831740D01*
X112464326Y-108831744D01*
X112444540Y-109020000D01*
X112464326Y-109208256D01*
X112464327Y-109208259D01*
X112522818Y-109388277D01*
X112522821Y-109388284D01*
X112617467Y-109552216D01*
X112692401Y-109635438D01*
X112700309Y-109644221D01*
X112730539Y-109707212D01*
X112721914Y-109776547D01*
X112695842Y-109814871D01*
X112568359Y-109942355D01*
X112507039Y-109975839D01*
X112480680Y-109978673D01*
X102949254Y-109978673D01*
X102882215Y-109958988D01*
X102876369Y-109954991D01*
X102723662Y-109844043D01*
X102723657Y-109844040D01*
X102550735Y-109767049D01*
X102550730Y-109767047D01*
X102404929Y-109736057D01*
X102365574Y-109727692D01*
X102176282Y-109727692D01*
X102143825Y-109734590D01*
X101991125Y-109767047D01*
X101991120Y-109767049D01*
X101818198Y-109844040D01*
X101818193Y-109844043D01*
X101665057Y-109955303D01*
X101538394Y-110095977D01*
X101443749Y-110259907D01*
X101443746Y-110259914D01*
X101385255Y-110439932D01*
X101385254Y-110439936D01*
X101365468Y-110628192D01*
X101385254Y-110816448D01*
X101385255Y-110816451D01*
X101443746Y-110996469D01*
X101443749Y-110996476D01*
X101538395Y-111160408D01*
X101665057Y-111301080D01*
X101818193Y-111412340D01*
X101818198Y-111412343D01*
X101991120Y-111489334D01*
X101991125Y-111489336D01*
X102176282Y-111528692D01*
X102176283Y-111528692D01*
X102365572Y-111528692D01*
X102365574Y-111528692D01*
X102550731Y-111489336D01*
X102723658Y-111412343D01*
X102876799Y-111301080D01*
X102949173Y-111220700D01*
X103008660Y-111184052D01*
X103041323Y-111179673D01*
X110574726Y-111179673D01*
X110641765Y-111199358D01*
X110687520Y-111252162D01*
X110698046Y-111316633D01*
X110694540Y-111350000D01*
X110714326Y-111538256D01*
X110714327Y-111538259D01*
X110772818Y-111718277D01*
X110772821Y-111718284D01*
X110867467Y-111882216D01*
X110974828Y-112001452D01*
X110994129Y-112022888D01*
X111147265Y-112134148D01*
X111147270Y-112134151D01*
X111320192Y-112211142D01*
X111320197Y-112211144D01*
X111505354Y-112250500D01*
X111505355Y-112250500D01*
X111694644Y-112250500D01*
X111694646Y-112250500D01*
X111879803Y-112211144D01*
X112052730Y-112134151D01*
X112205871Y-112022888D01*
X112332533Y-111882216D01*
X112407458Y-111752442D01*
X112458025Y-111704227D01*
X112526632Y-111691003D01*
X112591497Y-111716971D01*
X112602526Y-111726761D01*
X112908221Y-112032456D01*
X112941706Y-112093779D01*
X112944540Y-112120137D01*
X112944540Y-112124997D01*
X112944540Y-112125000D01*
X112964326Y-112313256D01*
X112964327Y-112313259D01*
X112972100Y-112337182D01*
X112974095Y-112407023D01*
X112938015Y-112466856D01*
X112875314Y-112497684D01*
X112854169Y-112499500D01*
X108256258Y-112499500D01*
X108189219Y-112479815D01*
X108164109Y-112458473D01*
X108135871Y-112427112D01*
X108135864Y-112427106D01*
X107982734Y-112315851D01*
X107982729Y-112315848D01*
X107809807Y-112238857D01*
X107809802Y-112238855D01*
X107664001Y-112207865D01*
X107624646Y-112199500D01*
X107435354Y-112199500D01*
X107402897Y-112206398D01*
X107250197Y-112238855D01*
X107250192Y-112238857D01*
X107077270Y-112315848D01*
X107077265Y-112315851D01*
X106924129Y-112427111D01*
X106797466Y-112567785D01*
X106702821Y-112731715D01*
X106702818Y-112731722D01*
X106646577Y-112904815D01*
X106644326Y-112911744D01*
X106624540Y-113100000D01*
X106644326Y-113288256D01*
X106644327Y-113288259D01*
X106702818Y-113468277D01*
X106702821Y-113468284D01*
X106797467Y-113632216D01*
X106896617Y-113742333D01*
X106924129Y-113772888D01*
X107077265Y-113884148D01*
X107077270Y-113884151D01*
X107250192Y-113961142D01*
X107250197Y-113961144D01*
X107435354Y-114000500D01*
X107435355Y-114000500D01*
X107624644Y-114000500D01*
X107624646Y-114000500D01*
X107809803Y-113961144D01*
X107982730Y-113884151D01*
X108135871Y-113772888D01*
X108164109Y-113741527D01*
X108223595Y-113704879D01*
X108256258Y-113700500D01*
X115332085Y-113700500D01*
X115399124Y-113720185D01*
X115419766Y-113736819D01*
X119622483Y-117939536D01*
X119655968Y-118000859D01*
X119652733Y-118065534D01*
X119609402Y-118198896D01*
X119609401Y-118198898D01*
X119609401Y-118198901D01*
X119589615Y-118387157D01*
X119609401Y-118575413D01*
X119609402Y-118575416D01*
X119667893Y-118755434D01*
X119667896Y-118755441D01*
X119762542Y-118919373D01*
X119845889Y-119011939D01*
X119889204Y-119060045D01*
X120042340Y-119171305D01*
X120042345Y-119171308D01*
X120215267Y-119248299D01*
X120215272Y-119248301D01*
X120400429Y-119287657D01*
X120400430Y-119287657D01*
X120589719Y-119287657D01*
X120589721Y-119287657D01*
X120774878Y-119248301D01*
X120947805Y-119171308D01*
X121034929Y-119108008D01*
X121100732Y-119084530D01*
X121168786Y-119100355D01*
X121215199Y-119146327D01*
X121247467Y-119202216D01*
X121374129Y-119342888D01*
X121527265Y-119454148D01*
X121527270Y-119454151D01*
X121700192Y-119531142D01*
X121700197Y-119531144D01*
X121885354Y-119570500D01*
X121885355Y-119570500D01*
X122074644Y-119570500D01*
X122074646Y-119570500D01*
X122259803Y-119531144D01*
X122432730Y-119454151D01*
X122585871Y-119342888D01*
X122712533Y-119202216D01*
X122807179Y-119038284D01*
X122865674Y-118858256D01*
X122871065Y-118806957D01*
X122897648Y-118742343D01*
X122954945Y-118702357D01*
X122968606Y-118698627D01*
X122975334Y-118697196D01*
X123050858Y-118681144D01*
X123050861Y-118681142D01*
X123050863Y-118681142D01*
X123160214Y-118632455D01*
X123223785Y-118604151D01*
X123376926Y-118492888D01*
X123503588Y-118352216D01*
X123508111Y-118344382D01*
X123558676Y-118296164D01*
X123627283Y-118282939D01*
X123692148Y-118308905D01*
X123732679Y-118365818D01*
X123739500Y-118406378D01*
X123739500Y-120867512D01*
X123738439Y-120883697D01*
X123734318Y-120914998D01*
X123734318Y-120915000D01*
X123739500Y-120954360D01*
X123739500Y-120954361D01*
X123748439Y-121022259D01*
X123749500Y-121038444D01*
X123749500Y-121239736D01*
X123748439Y-121255921D01*
X123744318Y-121287222D01*
X123744318Y-121287224D01*
X123754557Y-121364997D01*
X123764955Y-121443984D01*
X123764956Y-121443986D01*
X123824765Y-121588379D01*
X123825464Y-121590065D01*
X123878345Y-121658981D01*
X123921719Y-121715507D01*
X123946769Y-121734728D01*
X123958964Y-121745423D01*
X125301795Y-123088254D01*
X125335280Y-123149577D01*
X125338114Y-123175935D01*
X125338114Y-129104251D01*
X125318429Y-129171290D01*
X125301795Y-129191933D01*
X125142565Y-129351162D01*
X125130375Y-129361852D01*
X125105316Y-129381081D01*
X125061260Y-129438498D01*
X125009064Y-129506521D01*
X125009061Y-129506526D01*
X124948556Y-129652599D01*
X124945658Y-129674610D01*
X124917389Y-129738506D01*
X124914869Y-129741393D01*
X124801066Y-129867784D01*
X124706421Y-130031715D01*
X124706418Y-130031722D01*
X124647927Y-130211740D01*
X124647926Y-130211744D01*
X124628140Y-130400000D01*
X124647926Y-130588256D01*
X124647927Y-130588259D01*
X124706418Y-130768277D01*
X124706421Y-130768284D01*
X124801067Y-130932216D01*
X124857097Y-130994443D01*
X124927729Y-131072888D01*
X125080865Y-131184148D01*
X125080870Y-131184151D01*
X125253792Y-131261142D01*
X125253797Y-131261144D01*
X125438954Y-131300500D01*
X125438955Y-131300500D01*
X125628244Y-131300500D01*
X125628246Y-131300500D01*
X125813403Y-131261144D01*
X125986330Y-131184151D01*
X126139471Y-131072888D01*
X126266133Y-130932216D01*
X126360779Y-130768284D01*
X126419274Y-130588256D01*
X126432016Y-130467019D01*
X126458599Y-130402407D01*
X126515896Y-130362422D01*
X126585716Y-130359762D01*
X126643017Y-130392302D01*
X127996888Y-131746173D01*
X128030373Y-131807496D01*
X128025389Y-131877188D01*
X128001357Y-131916826D01*
X127937467Y-131987784D01*
X127937465Y-131987785D01*
X127937464Y-131987788D01*
X127842821Y-132151715D01*
X127842818Y-132151722D01*
X127784327Y-132331740D01*
X127784326Y-132331744D01*
X127764540Y-132520000D01*
X127784326Y-132708256D01*
X127784327Y-132708259D01*
X127834140Y-132861569D01*
X127836135Y-132931410D01*
X127800054Y-132991243D01*
X127737353Y-133022071D01*
X127716209Y-133023887D01*
X107079767Y-133023887D01*
X107012728Y-133004202D01*
X106966973Y-132951398D01*
X106957029Y-132882240D01*
X106986054Y-132818684D01*
X107044832Y-132780910D01*
X107064427Y-132776839D01*
X107397511Y-132735321D01*
X107863071Y-132637703D01*
X108318981Y-132501973D01*
X108762125Y-132329057D01*
X109189476Y-132120138D01*
X109598115Y-131876642D01*
X109985250Y-131600233D01*
X110291504Y-131340849D01*
X110348237Y-131292799D01*
X110348243Y-131292794D01*
X110684594Y-130956443D01*
X110684599Y-130956437D01*
X110810289Y-130808035D01*
X110992033Y-130593450D01*
X111268442Y-130206315D01*
X111511938Y-129797676D01*
X111720857Y-129370325D01*
X111893773Y-128927181D01*
X111901846Y-128900066D01*
X111924419Y-128824243D01*
X112029503Y-128471271D01*
X112127121Y-128005711D01*
X112185959Y-127533679D01*
X112205617Y-127058400D01*
X112205160Y-127047362D01*
X112197355Y-126858651D01*
X112185959Y-126583121D01*
X112127121Y-126111089D01*
X112029503Y-125645529D01*
X111905086Y-125227619D01*
X111893777Y-125189631D01*
X111893775Y-125189626D01*
X111893773Y-125189619D01*
X111720857Y-124746475D01*
X111511938Y-124319124D01*
X111268442Y-123910485D01*
X111264493Y-123904955D01*
X110992044Y-123523365D01*
X110992030Y-123523346D01*
X110684599Y-123160362D01*
X110348237Y-122824000D01*
X109985253Y-122516569D01*
X109985234Y-122516555D01*
X109598128Y-122240167D01*
X109598109Y-122240154D01*
X109189476Y-121996662D01*
X109185072Y-121994509D01*
X108762125Y-121787743D01*
X108762116Y-121787739D01*
X108762113Y-121787738D01*
X108318986Y-121614829D01*
X108318968Y-121614822D01*
X107958152Y-121507404D01*
X107863071Y-121479097D01*
X107765452Y-121458628D01*
X107397510Y-121381478D01*
X106984316Y-121329974D01*
X106925479Y-121322641D01*
X106767052Y-121316088D01*
X106450202Y-121302983D01*
X106450198Y-121302983D01*
X105974921Y-121322641D01*
X105502889Y-121381478D01*
X105037329Y-121479097D01*
X104581431Y-121614822D01*
X104581413Y-121614829D01*
X104138286Y-121787738D01*
X104138267Y-121787747D01*
X103710923Y-121996662D01*
X103302290Y-122240154D01*
X103302271Y-122240167D01*
X102915165Y-122516555D01*
X102915146Y-122516569D01*
X102552162Y-122824000D01*
X102552157Y-122824006D01*
X102215806Y-123160357D01*
X102215800Y-123160362D01*
X101908369Y-123523346D01*
X101908355Y-123523365D01*
X101631967Y-123910471D01*
X101631954Y-123910490D01*
X101388462Y-124319123D01*
X101179547Y-124746467D01*
X101179538Y-124746486D01*
X101006629Y-125189613D01*
X101006622Y-125189631D01*
X100870897Y-125645529D01*
X100773278Y-126111089D01*
X100714441Y-126583121D01*
X100694783Y-127058398D01*
X100694783Y-127058401D01*
X100714441Y-127533678D01*
X100773278Y-128005710D01*
X100811181Y-128186474D01*
X100870897Y-128471271D01*
X100875014Y-128485100D01*
X101006622Y-128927168D01*
X101006626Y-128927180D01*
X101006627Y-128927181D01*
X101012092Y-128941187D01*
X101176101Y-129361506D01*
X101179543Y-129370325D01*
X101349638Y-129718260D01*
X101388462Y-129797676D01*
X101631954Y-130206309D01*
X101631967Y-130206328D01*
X101908355Y-130593434D01*
X101908369Y-130593453D01*
X102215800Y-130956437D01*
X102552162Y-131292799D01*
X102915146Y-131600230D01*
X102915165Y-131600244D01*
X103220846Y-131818496D01*
X103302285Y-131876642D01*
X103710924Y-132120138D01*
X104138275Y-132329057D01*
X104581419Y-132501973D01*
X104581426Y-132501975D01*
X104581431Y-132501977D01*
X104709049Y-132539970D01*
X105037329Y-132637703D01*
X105380825Y-132709726D01*
X105442397Y-132742749D01*
X105476342Y-132803819D01*
X105471881Y-132873546D01*
X105430431Y-132929793D01*
X105365152Y-132954701D01*
X105332367Y-132952933D01*
X104908598Y-132872906D01*
X104899109Y-132870725D01*
X104454722Y-132750037D01*
X104445433Y-132747119D01*
X104011860Y-132591927D01*
X104002829Y-132588288D01*
X103582783Y-132399564D01*
X103574078Y-132395234D01*
X103170132Y-132174135D01*
X103161782Y-132169129D01*
X102776418Y-131917009D01*
X102768486Y-131911362D01*
X102404114Y-131629802D01*
X102396649Y-131623551D01*
X102055480Y-131314261D01*
X102048529Y-131307444D01*
X101815273Y-131059970D01*
X101732673Y-130972335D01*
X101726282Y-130964997D01*
X101719398Y-130956437D01*
X101437687Y-130606131D01*
X101431906Y-130598334D01*
X101172346Y-130217917D01*
X101167199Y-130209696D01*
X100938297Y-129810104D01*
X100933795Y-129801475D01*
X100904022Y-129738506D01*
X100736950Y-129385156D01*
X100733141Y-129376205D01*
X100569566Y-128945717D01*
X100566480Y-128936521D01*
X100437185Y-128494529D01*
X100434828Y-128485116D01*
X100340603Y-128034315D01*
X100338994Y-128024750D01*
X100280433Y-127567968D01*
X100279577Y-127558281D01*
X100279493Y-127556576D01*
X100256976Y-127097084D01*
X100256827Y-127091015D01*
X100256827Y-116393367D01*
X101359026Y-116393367D01*
X101378812Y-116581623D01*
X101378813Y-116581626D01*
X101437304Y-116761644D01*
X101437307Y-116761651D01*
X101531953Y-116925583D01*
X101658615Y-117066255D01*
X101811751Y-117177515D01*
X101811756Y-117177518D01*
X101984678Y-117254509D01*
X101984683Y-117254511D01*
X102169840Y-117293867D01*
X102169841Y-117293867D01*
X102359130Y-117293867D01*
X102359132Y-117293867D01*
X102544289Y-117254511D01*
X102717216Y-117177518D01*
X102870357Y-117066255D01*
X102997019Y-116925583D01*
X103091665Y-116761651D01*
X103150160Y-116581623D01*
X103169946Y-116393367D01*
X103150160Y-116205111D01*
X103091665Y-116025083D01*
X102997019Y-115861151D01*
X102942114Y-115800173D01*
X102896836Y-115749886D01*
X102866606Y-115686894D01*
X102864986Y-115666914D01*
X102864986Y-113864982D01*
X102884671Y-113797943D01*
X102937475Y-113752188D01*
X102963608Y-113745188D01*
X102963289Y-113743684D01*
X102969645Y-113742333D01*
X102969646Y-113742333D01*
X103154803Y-113702977D01*
X103327730Y-113625984D01*
X103480871Y-113514721D01*
X103607533Y-113374049D01*
X103702179Y-113210117D01*
X103760674Y-113030089D01*
X103780460Y-112841833D01*
X103760674Y-112653577D01*
X103702179Y-112473549D01*
X103607533Y-112309617D01*
X103480871Y-112168945D01*
X103470131Y-112161142D01*
X103327734Y-112057684D01*
X103327729Y-112057681D01*
X103154807Y-111980690D01*
X103154802Y-111980688D01*
X103000485Y-111947888D01*
X102969646Y-111941333D01*
X102780354Y-111941333D01*
X102749515Y-111947888D01*
X102595197Y-111980688D01*
X102595192Y-111980690D01*
X102422270Y-112057681D01*
X102422265Y-112057684D01*
X102269129Y-112168944D01*
X102142466Y-112309618D01*
X102047821Y-112473548D01*
X102047818Y-112473555D01*
X102001584Y-112615851D01*
X101989326Y-112653577D01*
X101980582Y-112736775D01*
X101969540Y-112841835D01*
X101969540Y-112846695D01*
X101949855Y-112913734D01*
X101933225Y-112934371D01*
X101892097Y-112975500D01*
X101873451Y-112994146D01*
X101861261Y-113004836D01*
X101836206Y-113024062D01*
X101823326Y-113040848D01*
X101783982Y-113092122D01*
X101783981Y-113092122D01*
X101739950Y-113149504D01*
X101679442Y-113295584D01*
X101679441Y-113295586D01*
X101663871Y-113413856D01*
X101658804Y-113452347D01*
X101660901Y-113468277D01*
X101662925Y-113483648D01*
X101663986Y-113499834D01*
X101663986Y-115666914D01*
X101644301Y-115733953D01*
X101632136Y-115749886D01*
X101531952Y-115861152D01*
X101437307Y-116025082D01*
X101437304Y-116025089D01*
X101378813Y-116205107D01*
X101378812Y-116205111D01*
X101359026Y-116393367D01*
X100256827Y-116393367D01*
X100256827Y-103450000D01*
X115244540Y-103450000D01*
X115264326Y-103638256D01*
X115264327Y-103638259D01*
X115322818Y-103818277D01*
X115322821Y-103818284D01*
X115417467Y-103982216D01*
X115539533Y-104117784D01*
X115544129Y-104122888D01*
X115697265Y-104234148D01*
X115697270Y-104234151D01*
X115870192Y-104311142D01*
X115870197Y-104311144D01*
X116055354Y-104350500D01*
X116055355Y-104350500D01*
X116244644Y-104350500D01*
X116244646Y-104350500D01*
X116429803Y-104311144D01*
X116602730Y-104234151D01*
X116755871Y-104122888D01*
X116784109Y-104091527D01*
X116843595Y-104054879D01*
X116876258Y-104050500D01*
X118322513Y-104050500D01*
X118338697Y-104051560D01*
X118370000Y-104055682D01*
X118370001Y-104055682D01*
X118422254Y-104048802D01*
X118526762Y-104035044D01*
X118603992Y-104003054D01*
X118680351Y-103971426D01*
X118681276Y-103973659D01*
X118730378Y-103960500D01*
X118854644Y-103960500D01*
X118854646Y-103960500D01*
X119039803Y-103921144D01*
X119212730Y-103844151D01*
X119365871Y-103732888D01*
X119492533Y-103592216D01*
X119587179Y-103428284D01*
X119645674Y-103248256D01*
X119650745Y-103200005D01*
X126079649Y-103200005D01*
X126099019Y-103433773D01*
X126099021Y-103433785D01*
X126156607Y-103661187D01*
X126250838Y-103876011D01*
X126379140Y-104072395D01*
X126420267Y-104117070D01*
X126538022Y-104244986D01*
X126723142Y-104389070D01*
X126929452Y-104500720D01*
X127044662Y-104540272D01*
X127151320Y-104576888D01*
X127151322Y-104576888D01*
X127151324Y-104576889D01*
X127382708Y-104615500D01*
X127382709Y-104615500D01*
X127617291Y-104615500D01*
X127617292Y-104615500D01*
X127848676Y-104576889D01*
X128070548Y-104500720D01*
X128276858Y-104389070D01*
X128461978Y-104244986D01*
X128620857Y-104072398D01*
X128749161Y-103876012D01*
X128843392Y-103661187D01*
X128900979Y-103433782D01*
X128915235Y-103261740D01*
X128920351Y-103200005D01*
X128920351Y-103199994D01*
X128900980Y-102966226D01*
X128900978Y-102966214D01*
X128843392Y-102738812D01*
X128749161Y-102523988D01*
X128620859Y-102327604D01*
X128542253Y-102242216D01*
X128461978Y-102155014D01*
X128298599Y-102027852D01*
X128257788Y-101971143D01*
X128254113Y-101901370D01*
X128288745Y-101840687D01*
X128298591Y-101832154D01*
X128461978Y-101704986D01*
X128620857Y-101532398D01*
X128749161Y-101336012D01*
X128843392Y-101121187D01*
X128900979Y-100893782D01*
X128917036Y-100700005D01*
X128920351Y-100660005D01*
X128920351Y-100659994D01*
X128900980Y-100426226D01*
X128900978Y-100426214D01*
X128843392Y-100198812D01*
X128749161Y-99983988D01*
X128620859Y-99787604D01*
X128498803Y-99655017D01*
X128461978Y-99615014D01*
X128292177Y-99482853D01*
X128251365Y-99426143D01*
X128247690Y-99356370D01*
X128282322Y-99295687D01*
X128292177Y-99287147D01*
X128305577Y-99276716D01*
X128461978Y-99154986D01*
X128620857Y-98982398D01*
X128749161Y-98786012D01*
X128843392Y-98571187D01*
X128900979Y-98343782D01*
X128900980Y-98343773D01*
X128920351Y-98110005D01*
X128920351Y-98109994D01*
X128900980Y-97876226D01*
X128900978Y-97876214D01*
X128843392Y-97648812D01*
X128749161Y-97433988D01*
X128620859Y-97237604D01*
X128528010Y-97136744D01*
X128461978Y-97065014D01*
X128322835Y-96956715D01*
X128276860Y-96920931D01*
X128070548Y-96809280D01*
X128070540Y-96809277D01*
X127848679Y-96733111D01*
X127675138Y-96704152D01*
X127617292Y-96694500D01*
X127382708Y-96694500D01*
X127336431Y-96702222D01*
X127151320Y-96733111D01*
X126929459Y-96809277D01*
X126929451Y-96809280D01*
X126723139Y-96920931D01*
X126658900Y-96970931D01*
X126538022Y-97065014D01*
X126538019Y-97065016D01*
X126538019Y-97065017D01*
X126379140Y-97237604D01*
X126250838Y-97433988D01*
X126156607Y-97648812D01*
X126099021Y-97876214D01*
X126099019Y-97876226D01*
X126079649Y-98109994D01*
X126079649Y-98110005D01*
X126099019Y-98343773D01*
X126099021Y-98343785D01*
X126156607Y-98571187D01*
X126250838Y-98786011D01*
X126379140Y-98982395D01*
X126379143Y-98982398D01*
X126538022Y-99154986D01*
X126599597Y-99202912D01*
X126707822Y-99287147D01*
X126748635Y-99343857D01*
X126752308Y-99413630D01*
X126717677Y-99474314D01*
X126707822Y-99482853D01*
X126538024Y-99615012D01*
X126538019Y-99615017D01*
X126379140Y-99787604D01*
X126250838Y-99983988D01*
X126156607Y-100198812D01*
X126099021Y-100426214D01*
X126099019Y-100426226D01*
X126079649Y-100659994D01*
X126079649Y-100660005D01*
X126099019Y-100893773D01*
X126099021Y-100893785D01*
X126156607Y-101121187D01*
X126250838Y-101336011D01*
X126379140Y-101532395D01*
X126379143Y-101532398D01*
X126538022Y-101704986D01*
X126684771Y-101819204D01*
X126701399Y-101832147D01*
X126742211Y-101888857D01*
X126745886Y-101958630D01*
X126711254Y-102019313D01*
X126701399Y-102027853D01*
X126538022Y-102155014D01*
X126538019Y-102155016D01*
X126538019Y-102155017D01*
X126379140Y-102327604D01*
X126250838Y-102523988D01*
X126156607Y-102738812D01*
X126099021Y-102966214D01*
X126099019Y-102966226D01*
X126079649Y-103199994D01*
X126079649Y-103200005D01*
X119650745Y-103200005D01*
X119665460Y-103060000D01*
X119645674Y-102871744D01*
X119587179Y-102691716D01*
X119492533Y-102527784D01*
X119365871Y-102387112D01*
X119365870Y-102387111D01*
X119212734Y-102275851D01*
X119212729Y-102275848D01*
X119039807Y-102198857D01*
X119039802Y-102198855D01*
X118894001Y-102167865D01*
X118854646Y-102159500D01*
X118665354Y-102159500D01*
X118632897Y-102166398D01*
X118480197Y-102198855D01*
X118480192Y-102198857D01*
X118307270Y-102275848D01*
X118307265Y-102275851D01*
X118154129Y-102387111D01*
X118027466Y-102527785D01*
X117932821Y-102691715D01*
X117932817Y-102691724D01*
X117909394Y-102763817D01*
X117869957Y-102821493D01*
X117805599Y-102848692D01*
X117791463Y-102849500D01*
X116876258Y-102849500D01*
X116809219Y-102829815D01*
X116784109Y-102808473D01*
X116755871Y-102777112D01*
X116755864Y-102777106D01*
X116602734Y-102665851D01*
X116602729Y-102665848D01*
X116429807Y-102588857D01*
X116429802Y-102588855D01*
X116284001Y-102557865D01*
X116244646Y-102549500D01*
X116055354Y-102549500D01*
X116022897Y-102556398D01*
X115870197Y-102588855D01*
X115870192Y-102588857D01*
X115697270Y-102665848D01*
X115697265Y-102665851D01*
X115544129Y-102777111D01*
X115417466Y-102917785D01*
X115322821Y-103081715D01*
X115322818Y-103081722D01*
X115268142Y-103250000D01*
X115264326Y-103261744D01*
X115244540Y-103450000D01*
X100256827Y-103450000D01*
X100256827Y-95627501D01*
X100694783Y-95627501D01*
X100714441Y-96102778D01*
X100773278Y-96574810D01*
X100822442Y-96809280D01*
X100870897Y-97040371D01*
X100893119Y-97115013D01*
X101006622Y-97496268D01*
X101006629Y-97496286D01*
X101174392Y-97926226D01*
X101179543Y-97939425D01*
X101287378Y-98160005D01*
X101388462Y-98366776D01*
X101631954Y-98775409D01*
X101631967Y-98775428D01*
X101908355Y-99162534D01*
X101908369Y-99162553D01*
X102215800Y-99525537D01*
X102552162Y-99861899D01*
X102696313Y-99983988D01*
X102915150Y-100169333D01*
X103302285Y-100445742D01*
X103710924Y-100689238D01*
X104138275Y-100898157D01*
X104581419Y-101071073D01*
X104581426Y-101071075D01*
X104581431Y-101071077D01*
X104671136Y-101097783D01*
X105037329Y-101206803D01*
X105502889Y-101304421D01*
X105974921Y-101363259D01*
X106413885Y-101381415D01*
X106450198Y-101382917D01*
X106450200Y-101382917D01*
X106450202Y-101382917D01*
X106485177Y-101381470D01*
X106925479Y-101363259D01*
X107397511Y-101304421D01*
X107863071Y-101206803D01*
X108318981Y-101071073D01*
X108762125Y-100898157D01*
X109189476Y-100689238D01*
X109598115Y-100445742D01*
X109985250Y-100169333D01*
X110348238Y-99861898D01*
X110348243Y-99861894D01*
X110684594Y-99525543D01*
X110684599Y-99525537D01*
X110800361Y-99388857D01*
X110992033Y-99162550D01*
X111268442Y-98775415D01*
X111511938Y-98366776D01*
X111720857Y-97939425D01*
X111893773Y-97496281D01*
X112029503Y-97040371D01*
X112127121Y-96574811D01*
X112185959Y-96102779D01*
X112205617Y-95627500D01*
X112185959Y-95152221D01*
X112127121Y-94680189D01*
X112029503Y-94214629D01*
X111913309Y-93824338D01*
X111893777Y-93758731D01*
X111893775Y-93758726D01*
X111893773Y-93758719D01*
X111720857Y-93315575D01*
X111511938Y-92888224D01*
X111268442Y-92479585D01*
X111187428Y-92366118D01*
X110992044Y-92092465D01*
X110992030Y-92092446D01*
X110684599Y-91729462D01*
X110348237Y-91393100D01*
X109985253Y-91085669D01*
X109985234Y-91085655D01*
X109598128Y-90809267D01*
X109598109Y-90809254D01*
X109189476Y-90565762D01*
X109117346Y-90530500D01*
X108762125Y-90356843D01*
X108762116Y-90356839D01*
X108762113Y-90356838D01*
X108318986Y-90183929D01*
X108318968Y-90183922D01*
X107958152Y-90076504D01*
X107863071Y-90048197D01*
X107765452Y-90027728D01*
X107397510Y-89950578D01*
X106984316Y-89899074D01*
X106925479Y-89891741D01*
X106767052Y-89885188D01*
X106450202Y-89872083D01*
X106450198Y-89872083D01*
X105974921Y-89891741D01*
X105502889Y-89950578D01*
X105037329Y-90048197D01*
X104581431Y-90183922D01*
X104581413Y-90183929D01*
X104138286Y-90356838D01*
X104138267Y-90356847D01*
X103710923Y-90565762D01*
X103302290Y-90809254D01*
X103302271Y-90809267D01*
X102915165Y-91085655D01*
X102915146Y-91085669D01*
X102552162Y-91393100D01*
X102552157Y-91393106D01*
X102215806Y-91729457D01*
X102215800Y-91729462D01*
X101908369Y-92092446D01*
X101908355Y-92092465D01*
X101631967Y-92479571D01*
X101631954Y-92479590D01*
X101388462Y-92888223D01*
X101179547Y-93315567D01*
X101179538Y-93315586D01*
X101006629Y-93758713D01*
X101006622Y-93758731D01*
X100870897Y-94214629D01*
X100773278Y-94680189D01*
X100714441Y-95152221D01*
X100694783Y-95627498D01*
X100694783Y-95627501D01*
X100256827Y-95627501D01*
X100256827Y-85453960D01*
X100276512Y-85386921D01*
X100329316Y-85341166D01*
X100398474Y-85331222D01*
X100462030Y-85360247D01*
X100468508Y-85366279D01*
X101069685Y-85967456D01*
X101103170Y-86028779D01*
X101106004Y-86055137D01*
X101106004Y-86059997D01*
X101106004Y-86060000D01*
X101125790Y-86248256D01*
X101125791Y-86248259D01*
X101184282Y-86428277D01*
X101184285Y-86428284D01*
X101278931Y-86592216D01*
X101379571Y-86703988D01*
X101405593Y-86732888D01*
X101558729Y-86844148D01*
X101558734Y-86844151D01*
X101731656Y-86921142D01*
X101731661Y-86921144D01*
X101916818Y-86960500D01*
X101916819Y-86960500D01*
X102106108Y-86960500D01*
X102106110Y-86960500D01*
X102291267Y-86921144D01*
X102464194Y-86844151D01*
X102617335Y-86732888D01*
X102743997Y-86592216D01*
X102838643Y-86428284D01*
X102866314Y-86343120D01*
X102905751Y-86285446D01*
X102970109Y-86258247D01*
X103031697Y-86266877D01*
X103075554Y-86285044D01*
X103078608Y-86285446D01*
X103232315Y-86305682D01*
X103232316Y-86305682D01*
X103263618Y-86301560D01*
X103279803Y-86300500D01*
X104098742Y-86300500D01*
X104165781Y-86320185D01*
X104190891Y-86341527D01*
X104219128Y-86372887D01*
X104219135Y-86372893D01*
X104372265Y-86484148D01*
X104372270Y-86484151D01*
X104545192Y-86561142D01*
X104545197Y-86561144D01*
X104730354Y-86600500D01*
X104730355Y-86600500D01*
X104919644Y-86600500D01*
X104919646Y-86600500D01*
X105104803Y-86561144D01*
X105277730Y-86484151D01*
X105313351Y-86458270D01*
X105379156Y-86434791D01*
X105447210Y-86450616D01*
X105459121Y-86458271D01*
X105522265Y-86504148D01*
X105522270Y-86504151D01*
X105695192Y-86581142D01*
X105695197Y-86581144D01*
X105880354Y-86620500D01*
X105880355Y-86620500D01*
X106069644Y-86620500D01*
X106069646Y-86620500D01*
X106254803Y-86581144D01*
X106427730Y-86504151D01*
X106580871Y-86392888D01*
X106609109Y-86361527D01*
X106668595Y-86324879D01*
X106701258Y-86320500D01*
X107582513Y-86320500D01*
X107598697Y-86321560D01*
X107630000Y-86325682D01*
X107630001Y-86325682D01*
X107682254Y-86318802D01*
X107786762Y-86305044D01*
X107798939Y-86300000D01*
X112944540Y-86300000D01*
X112964326Y-86488256D01*
X112964327Y-86488259D01*
X113022818Y-86668277D01*
X113022821Y-86668284D01*
X113117467Y-86832216D01*
X113227639Y-86954574D01*
X113244129Y-86972888D01*
X113397265Y-87084148D01*
X113397270Y-87084151D01*
X113570192Y-87161142D01*
X113570197Y-87161144D01*
X113755354Y-87200500D01*
X113755355Y-87200500D01*
X113944644Y-87200500D01*
X113944646Y-87200500D01*
X114129803Y-87161144D01*
X114302730Y-87084151D01*
X114455871Y-86972888D01*
X114484109Y-86941527D01*
X114543595Y-86904879D01*
X114576258Y-86900500D01*
X116643742Y-86900500D01*
X116710781Y-86920185D01*
X116735891Y-86941527D01*
X116764128Y-86972887D01*
X116764135Y-86972893D01*
X116917265Y-87084148D01*
X116917270Y-87084151D01*
X117090192Y-87161142D01*
X117090197Y-87161144D01*
X117275354Y-87200500D01*
X117275355Y-87200500D01*
X117464643Y-87200500D01*
X117464646Y-87200500D01*
X117488266Y-87195479D01*
X117557931Y-87200794D01*
X117613665Y-87242931D01*
X117637771Y-87308510D01*
X117631977Y-87355087D01*
X117584891Y-87500005D01*
X117584326Y-87501744D01*
X117564540Y-87690000D01*
X117584326Y-87878256D01*
X117584327Y-87878259D01*
X117642818Y-88058277D01*
X117642821Y-88058284D01*
X117737467Y-88222216D01*
X117837650Y-88333480D01*
X117867880Y-88396471D01*
X117869500Y-88416452D01*
X117869500Y-89462512D01*
X117868438Y-89478697D01*
X117864318Y-89510000D01*
X117869117Y-89546455D01*
X117869500Y-89549360D01*
X117869500Y-89549361D01*
X117884955Y-89666760D01*
X117884956Y-89666762D01*
X117942720Y-89806218D01*
X117945464Y-89812841D01*
X118035363Y-89930000D01*
X118041719Y-89938283D01*
X118066769Y-89957504D01*
X118078964Y-89968199D01*
X119823181Y-91712416D01*
X119856666Y-91773739D01*
X119859500Y-91800095D01*
X119859500Y-91850650D01*
X119859501Y-91850676D01*
X119862291Y-91886127D01*
X119906380Y-92037885D01*
X119906382Y-92037890D01*
X119986827Y-92173916D01*
X119986834Y-92173925D01*
X120098574Y-92285665D01*
X120098578Y-92285668D01*
X120098580Y-92285670D01*
X120234610Y-92366118D01*
X120386373Y-92410209D01*
X120421837Y-92413000D01*
X120798162Y-92412999D01*
X120833627Y-92410209D01*
X120975405Y-92369019D01*
X121044595Y-92369019D01*
X121186373Y-92410209D01*
X121221837Y-92413000D01*
X121435500Y-92412999D01*
X121502539Y-92432683D01*
X121548294Y-92485487D01*
X121559500Y-92536999D01*
X121559500Y-92643696D01*
X121539815Y-92710735D01*
X121487011Y-92756490D01*
X121466342Y-92763799D01*
X121461943Y-92764928D01*
X121419486Y-92781737D01*
X121408440Y-92785519D01*
X121364599Y-92798256D01*
X121346327Y-92809062D01*
X121328861Y-92817619D01*
X121309128Y-92825432D01*
X121272193Y-92852266D01*
X121262434Y-92858676D01*
X121223132Y-92881920D01*
X121208126Y-92896926D01*
X121193336Y-92909558D01*
X121176167Y-92922032D01*
X121176165Y-92922034D01*
X121147056Y-92957219D01*
X121139196Y-92965856D01*
X121010483Y-93094569D01*
X120997910Y-93104643D01*
X120998065Y-93104830D01*
X120992058Y-93109799D01*
X120944133Y-93160833D01*
X120941427Y-93163625D01*
X120921090Y-93183963D01*
X120921077Y-93183978D01*
X120918373Y-93187463D01*
X120910807Y-93196321D01*
X120885870Y-93222879D01*
X120825630Y-93258277D01*
X120795473Y-93262000D01*
X120421849Y-93262000D01*
X120421824Y-93262001D01*
X120386372Y-93264791D01*
X120234614Y-93308880D01*
X120234609Y-93308882D01*
X120152855Y-93357232D01*
X120089734Y-93374500D01*
X115400505Y-93374500D01*
X115384494Y-93372732D01*
X115384472Y-93372974D01*
X115376704Y-93372239D01*
X115318394Y-93374072D01*
X115250769Y-93356502D01*
X115203379Y-93305161D01*
X115190500Y-93250133D01*
X115190500Y-89648962D01*
X115207113Y-89586962D01*
X115287179Y-89448284D01*
X115345674Y-89268256D01*
X115365460Y-89080000D01*
X115345674Y-88891744D01*
X115287179Y-88711716D01*
X115192533Y-88547784D01*
X115065871Y-88407112D01*
X115051225Y-88396471D01*
X114912734Y-88295851D01*
X114912729Y-88295848D01*
X114739807Y-88218857D01*
X114739802Y-88218855D01*
X114594001Y-88187865D01*
X114554646Y-88179500D01*
X114365354Y-88179500D01*
X114332897Y-88186398D01*
X114180197Y-88218855D01*
X114180192Y-88218857D01*
X114007270Y-88295848D01*
X114007265Y-88295851D01*
X113854129Y-88407111D01*
X113727466Y-88547785D01*
X113632821Y-88711715D01*
X113632818Y-88711722D01*
X113574327Y-88891740D01*
X113574326Y-88891744D01*
X113554540Y-89080000D01*
X113574326Y-89268256D01*
X113574327Y-89268259D01*
X113632818Y-89448277D01*
X113632821Y-89448284D01*
X113672887Y-89517680D01*
X113689500Y-89579680D01*
X113689500Y-101700319D01*
X113672887Y-101762319D01*
X113632821Y-101831714D01*
X113587518Y-101971143D01*
X113574326Y-102011744D01*
X113554540Y-102200000D01*
X113574326Y-102388256D01*
X113574327Y-102388259D01*
X113632818Y-102568277D01*
X113632821Y-102568284D01*
X113727467Y-102732216D01*
X113807853Y-102821493D01*
X113854129Y-102872888D01*
X114007265Y-102984148D01*
X114007270Y-102984151D01*
X114180192Y-103061142D01*
X114180197Y-103061144D01*
X114365354Y-103100500D01*
X114365355Y-103100500D01*
X114554644Y-103100500D01*
X114554646Y-103100500D01*
X114739803Y-103061144D01*
X114912730Y-102984151D01*
X115065871Y-102872888D01*
X115192533Y-102732216D01*
X115287179Y-102568284D01*
X115345674Y-102388256D01*
X115365460Y-102200000D01*
X115345674Y-102011744D01*
X115287179Y-101831716D01*
X115207113Y-101693037D01*
X115190500Y-101631037D01*
X115190500Y-95120808D01*
X115210185Y-95053769D01*
X115226819Y-95033127D01*
X115548127Y-94711819D01*
X115609450Y-94678334D01*
X115635808Y-94675500D01*
X120089734Y-94675500D01*
X120152854Y-94692767D01*
X120234610Y-94741118D01*
X120386373Y-94785209D01*
X120421837Y-94788000D01*
X120798162Y-94787999D01*
X120833627Y-94785209D01*
X120975405Y-94744019D01*
X121044595Y-94744019D01*
X121186373Y-94785209D01*
X121221837Y-94788000D01*
X121598162Y-94787999D01*
X121633627Y-94785209D01*
X121776303Y-94743758D01*
X121845492Y-94743758D01*
X121959999Y-94777025D01*
X121960000Y-94777025D01*
X121960000Y-94673452D01*
X121979685Y-94606413D01*
X121996320Y-94585770D01*
X122033165Y-94548925D01*
X122033170Y-94548920D01*
X122103269Y-94430388D01*
X122154337Y-94382707D01*
X122223078Y-94370203D01*
X122287668Y-94396848D01*
X122316730Y-94430388D01*
X122365555Y-94512947D01*
X122386828Y-94548917D01*
X122386834Y-94548925D01*
X122423680Y-94585770D01*
X122457166Y-94647092D01*
X122460000Y-94673452D01*
X122460000Y-94777025D01*
X122574508Y-94743758D01*
X122643697Y-94743758D01*
X122786373Y-94785209D01*
X122821837Y-94788000D01*
X123198162Y-94787999D01*
X123233627Y-94785209D01*
X123385390Y-94741118D01*
X123521420Y-94660670D01*
X123633170Y-94548920D01*
X123713618Y-94412890D01*
X123757709Y-94261127D01*
X123760500Y-94225663D01*
X123760499Y-93824338D01*
X123757709Y-93788873D01*
X123713618Y-93637110D01*
X123633170Y-93501080D01*
X123633168Y-93501078D01*
X123633165Y-93501074D01*
X123604188Y-93472097D01*
X123589575Y-93452635D01*
X123589154Y-93452942D01*
X123557737Y-93409699D01*
X123551325Y-93399938D01*
X123528079Y-93360633D01*
X123513075Y-93345630D01*
X123500435Y-93330831D01*
X123487961Y-93313661D01*
X123452780Y-93284557D01*
X123444140Y-93276695D01*
X123167933Y-93000488D01*
X123157860Y-92987914D01*
X123157673Y-92988070D01*
X123152697Y-92982054D01*
X123101666Y-92934134D01*
X123098868Y-92931423D01*
X123078534Y-92911089D01*
X123075047Y-92908384D01*
X123066168Y-92900800D01*
X123032895Y-92869554D01*
X123032887Y-92869548D01*
X123014291Y-92859325D01*
X122998030Y-92848644D01*
X122981262Y-92835637D01*
X122964908Y-92828560D01*
X122939352Y-92817501D01*
X122928855Y-92812356D01*
X122927869Y-92811814D01*
X122924736Y-92810091D01*
X122875484Y-92760533D01*
X122860500Y-92701444D01*
X122860500Y-92590005D01*
X126079649Y-92590005D01*
X126099019Y-92823773D01*
X126099021Y-92823785D01*
X126156607Y-93051187D01*
X126250838Y-93266011D01*
X126379140Y-93462395D01*
X126414747Y-93501074D01*
X126538022Y-93634986D01*
X126690357Y-93753553D01*
X126712412Y-93770719D01*
X126723142Y-93779070D01*
X126929452Y-93890720D01*
X127044662Y-93930272D01*
X127151320Y-93966888D01*
X127151322Y-93966888D01*
X127151324Y-93966889D01*
X127382708Y-94005500D01*
X127382709Y-94005500D01*
X127617291Y-94005500D01*
X127617292Y-94005500D01*
X127848676Y-93966889D01*
X128070548Y-93890720D01*
X128276858Y-93779070D01*
X128461978Y-93634986D01*
X128620857Y-93462398D01*
X128749161Y-93266012D01*
X128843392Y-93051187D01*
X128900979Y-92823782D01*
X128901499Y-92817509D01*
X128920351Y-92590005D01*
X128920351Y-92589994D01*
X128900980Y-92356226D01*
X128900978Y-92356214D01*
X128843392Y-92128812D01*
X128749161Y-91913988D01*
X128620859Y-91717604D01*
X128565823Y-91657819D01*
X128461978Y-91545014D01*
X128292177Y-91412853D01*
X128251365Y-91356143D01*
X128247690Y-91286370D01*
X128282322Y-91225687D01*
X128292177Y-91217147D01*
X128314207Y-91200000D01*
X128461978Y-91084986D01*
X128620857Y-90912398D01*
X128749161Y-90716012D01*
X128843392Y-90501187D01*
X128900979Y-90273782D01*
X128920351Y-90040000D01*
X128914401Y-89968199D01*
X128900980Y-89806226D01*
X128900978Y-89806214D01*
X128843392Y-89578812D01*
X128749161Y-89363988D01*
X128620859Y-89167604D01*
X128519596Y-89057604D01*
X128461978Y-88995014D01*
X128298599Y-88867852D01*
X128257788Y-88811143D01*
X128254113Y-88741370D01*
X128288745Y-88680687D01*
X128298591Y-88672154D01*
X128461978Y-88544986D01*
X128620857Y-88372398D01*
X128749161Y-88176012D01*
X128843392Y-87961187D01*
X128900979Y-87733782D01*
X128904607Y-87690000D01*
X128920351Y-87500005D01*
X128920351Y-87499994D01*
X128900980Y-87266226D01*
X128900978Y-87266214D01*
X128843392Y-87038812D01*
X128749161Y-86823988D01*
X128620859Y-86627604D01*
X128544814Y-86544998D01*
X128461978Y-86455014D01*
X128307805Y-86335017D01*
X128276860Y-86310931D01*
X128070548Y-86199280D01*
X128070540Y-86199277D01*
X127848679Y-86123111D01*
X127675138Y-86094152D01*
X127617292Y-86084500D01*
X127382708Y-86084500D01*
X127336431Y-86092222D01*
X127151320Y-86123111D01*
X126929459Y-86199277D01*
X126929451Y-86199280D01*
X126723139Y-86310931D01*
X126623817Y-86388237D01*
X126538022Y-86455014D01*
X126538019Y-86455016D01*
X126538019Y-86455017D01*
X126379140Y-86627604D01*
X126250838Y-86823988D01*
X126156607Y-87038812D01*
X126099021Y-87266214D01*
X126099019Y-87266226D01*
X126079649Y-87499994D01*
X126079649Y-87500005D01*
X126099019Y-87733773D01*
X126099021Y-87733785D01*
X126156607Y-87961187D01*
X126250838Y-88176011D01*
X126379140Y-88372395D01*
X126379143Y-88372398D01*
X126538022Y-88544986D01*
X126642585Y-88626370D01*
X126701399Y-88672147D01*
X126742211Y-88728857D01*
X126745886Y-88798630D01*
X126711254Y-88859313D01*
X126701399Y-88867853D01*
X126538022Y-88995014D01*
X126538019Y-88995016D01*
X126538019Y-88995017D01*
X126379140Y-89167604D01*
X126250838Y-89363988D01*
X126156607Y-89578812D01*
X126099021Y-89806214D01*
X126099019Y-89806226D01*
X126079649Y-90039994D01*
X126079649Y-90040005D01*
X126099019Y-90273773D01*
X126099021Y-90273785D01*
X126156607Y-90501187D01*
X126250838Y-90716011D01*
X126379140Y-90912395D01*
X126379143Y-90912398D01*
X126538022Y-91084986D01*
X126590812Y-91126074D01*
X126707822Y-91217147D01*
X126748635Y-91273857D01*
X126752308Y-91343630D01*
X126717677Y-91404314D01*
X126707822Y-91412853D01*
X126538024Y-91545012D01*
X126538019Y-91545017D01*
X126379140Y-91717604D01*
X126250838Y-91913988D01*
X126156607Y-92128812D01*
X126099021Y-92356214D01*
X126099019Y-92356226D01*
X126079649Y-92589994D01*
X126079649Y-92590005D01*
X122860500Y-92590005D01*
X122860500Y-92161629D01*
X122877767Y-92098510D01*
X122913618Y-92037890D01*
X122953679Y-91900000D01*
X123260000Y-91900000D01*
X123260000Y-92402025D01*
X123385185Y-92365656D01*
X123385191Y-92365654D01*
X123521108Y-92285273D01*
X123521116Y-92285267D01*
X123632767Y-92173616D01*
X123632773Y-92173608D01*
X123713155Y-92037688D01*
X123713157Y-92037685D01*
X123753158Y-91900001D01*
X123753157Y-91900000D01*
X123260000Y-91900000D01*
X122953679Y-91900000D01*
X122957709Y-91886127D01*
X122960500Y-91850663D01*
X122960499Y-91449338D01*
X122957709Y-91413873D01*
X122913618Y-91262110D01*
X122833170Y-91126080D01*
X122833168Y-91126078D01*
X122833165Y-91126074D01*
X122796319Y-91089228D01*
X122762834Y-91027905D01*
X122760000Y-91001547D01*
X122760000Y-90897972D01*
X123260000Y-90897972D01*
X123260000Y-91400000D01*
X123753157Y-91400000D01*
X123753158Y-91399998D01*
X123713157Y-91262314D01*
X123713155Y-91262311D01*
X123632773Y-91126391D01*
X123632767Y-91126383D01*
X123521116Y-91014732D01*
X123521108Y-91014726D01*
X123385188Y-90934344D01*
X123385187Y-90934343D01*
X123260000Y-90897972D01*
X122760000Y-90897972D01*
X122645492Y-90931241D01*
X122576303Y-90931241D01*
X122433627Y-90889791D01*
X122433624Y-90889790D01*
X122433622Y-90889790D01*
X122398163Y-90887000D01*
X122021849Y-90887000D01*
X122021824Y-90887001D01*
X121986375Y-90889790D01*
X121844594Y-90930981D01*
X121775406Y-90930981D01*
X121661786Y-90897972D01*
X121633627Y-90889791D01*
X121633625Y-90889790D01*
X121633621Y-90889790D01*
X121605859Y-90887605D01*
X121540571Y-90862720D01*
X121527909Y-90851668D01*
X119806819Y-89130578D01*
X119773334Y-89069255D01*
X119770500Y-89042897D01*
X119770500Y-87107664D01*
X119790185Y-87040625D01*
X119842989Y-86994870D01*
X119868718Y-86986374D01*
X119869803Y-86986144D01*
X120042730Y-86909151D01*
X120195871Y-86797888D01*
X120322533Y-86657216D01*
X120417179Y-86493284D01*
X120475674Y-86313256D01*
X120495460Y-86125000D01*
X120475674Y-85936744D01*
X120417179Y-85756716D01*
X120384434Y-85700000D01*
X170470426Y-85700000D01*
X170489485Y-85917849D01*
X170489487Y-85917859D01*
X170546083Y-86129082D01*
X170546085Y-86129086D01*
X170546086Y-86129090D01*
X170555036Y-86148283D01*
X170638506Y-86327286D01*
X170648478Y-86341527D01*
X170763941Y-86506425D01*
X170918575Y-86661059D01*
X171097713Y-86786493D01*
X171295910Y-86878914D01*
X171507146Y-86935514D01*
X171681429Y-86950762D01*
X171724999Y-86954574D01*
X171725000Y-86954574D01*
X171725001Y-86954574D01*
X171761309Y-86951397D01*
X171942854Y-86935514D01*
X172154090Y-86878914D01*
X172352287Y-86786493D01*
X172531425Y-86661059D01*
X172686059Y-86506425D01*
X172811493Y-86327287D01*
X172903914Y-86129090D01*
X172960514Y-85917854D01*
X172979574Y-85700000D01*
X172960514Y-85482146D01*
X172903914Y-85270910D01*
X172811493Y-85072713D01*
X172686059Y-84893575D01*
X172531425Y-84738941D01*
X172352287Y-84613507D01*
X172242648Y-84562381D01*
X172190209Y-84516210D01*
X172171057Y-84449016D01*
X172191273Y-84382135D01*
X172242649Y-84337618D01*
X172352287Y-84286493D01*
X172531425Y-84161059D01*
X172686059Y-84006425D01*
X172811493Y-83827287D01*
X172903914Y-83629090D01*
X172960514Y-83417854D01*
X172979574Y-83200000D01*
X172960514Y-82982146D01*
X172903914Y-82770910D01*
X172811493Y-82572713D01*
X172686059Y-82393575D01*
X172531425Y-82238941D01*
X172352287Y-82113507D01*
X172242648Y-82062381D01*
X172190209Y-82016210D01*
X172171057Y-81949016D01*
X172191273Y-81882135D01*
X172242649Y-81837618D01*
X172352287Y-81786493D01*
X172531425Y-81661059D01*
X172686059Y-81506425D01*
X172811493Y-81327287D01*
X172903914Y-81129090D01*
X172960514Y-80917854D01*
X172961008Y-80912214D01*
X172979574Y-80700000D01*
X172979574Y-80699999D01*
X172975762Y-80656429D01*
X172960514Y-80482146D01*
X172903914Y-80270910D01*
X172811493Y-80072713D01*
X172686059Y-79893575D01*
X172531425Y-79738941D01*
X172388114Y-79638593D01*
X172352286Y-79613506D01*
X172242057Y-79562106D01*
X172189618Y-79515934D01*
X172170466Y-79448740D01*
X172190682Y-79381859D01*
X172242058Y-79337342D01*
X172352031Y-79286060D01*
X172352039Y-79286056D01*
X172414068Y-79242622D01*
X172414068Y-79242621D01*
X171853382Y-78681934D01*
X171865977Y-78680124D01*
X171995533Y-78620957D01*
X172103172Y-78527688D01*
X172180173Y-78407871D01*
X172204290Y-78325737D01*
X172767621Y-78889068D01*
X172767622Y-78889068D01*
X172811056Y-78827039D01*
X172811058Y-78827035D01*
X172903440Y-78628919D01*
X172903444Y-78628910D01*
X172960018Y-78417771D01*
X172960020Y-78417761D01*
X172979072Y-78200001D01*
X172979072Y-78199998D01*
X172960020Y-77982238D01*
X172960018Y-77982228D01*
X172903444Y-77771089D01*
X172903440Y-77771080D01*
X172811057Y-77572964D01*
X172767621Y-77510930D01*
X172204289Y-78074262D01*
X172180173Y-77992129D01*
X172103172Y-77872312D01*
X171995533Y-77779043D01*
X171865977Y-77719876D01*
X171853381Y-77718065D01*
X172414068Y-77157378D01*
X172414067Y-77157377D01*
X172352036Y-77113942D01*
X172352034Y-77113941D01*
X172153919Y-77021559D01*
X172153910Y-77021555D01*
X171942771Y-76964981D01*
X171942761Y-76964979D01*
X171725002Y-76945928D01*
X171724998Y-76945928D01*
X171507238Y-76964979D01*
X171507228Y-76964981D01*
X171296089Y-77021555D01*
X171296080Y-77021559D01*
X171097960Y-77113944D01*
X171035931Y-77157376D01*
X171035930Y-77157377D01*
X171596618Y-77718065D01*
X171584023Y-77719876D01*
X171454467Y-77779043D01*
X171346828Y-77872312D01*
X171269827Y-77992129D01*
X171245709Y-78074262D01*
X170682377Y-77510930D01*
X170682376Y-77510931D01*
X170638944Y-77572960D01*
X170546559Y-77771080D01*
X170546555Y-77771089D01*
X170489981Y-77982228D01*
X170489979Y-77982238D01*
X170470928Y-78199998D01*
X170470928Y-78200001D01*
X170489979Y-78417761D01*
X170489981Y-78417771D01*
X170546555Y-78628910D01*
X170546559Y-78628919D01*
X170638941Y-78827034D01*
X170638942Y-78827036D01*
X170682377Y-78889067D01*
X170682378Y-78889068D01*
X171245709Y-78325736D01*
X171269827Y-78407871D01*
X171346828Y-78527688D01*
X171454467Y-78620957D01*
X171584023Y-78680124D01*
X171596617Y-78681934D01*
X171035930Y-79242621D01*
X171097965Y-79286058D01*
X171097967Y-79286059D01*
X171207942Y-79337341D01*
X171260382Y-79383513D01*
X171279534Y-79450706D01*
X171259319Y-79517587D01*
X171207944Y-79562105D01*
X171097711Y-79613508D01*
X171017954Y-79669354D01*
X170918575Y-79738941D01*
X170918573Y-79738942D01*
X170918570Y-79738945D01*
X170763945Y-79893570D01*
X170763942Y-79893573D01*
X170763941Y-79893575D01*
X170732236Y-79938855D01*
X170638506Y-80072713D01*
X170546087Y-80270908D01*
X170546083Y-80270917D01*
X170489487Y-80482140D01*
X170489485Y-80482150D01*
X170470426Y-80699999D01*
X170470426Y-80700000D01*
X170489485Y-80917844D01*
X170489487Y-80917859D01*
X170546083Y-81129082D01*
X170546085Y-81129086D01*
X170546086Y-81129090D01*
X170564363Y-81168284D01*
X170638506Y-81327286D01*
X170641958Y-81332216D01*
X170763941Y-81506425D01*
X170918575Y-81661059D01*
X171097713Y-81786493D01*
X171207351Y-81837618D01*
X171259790Y-81883790D01*
X171278942Y-81950984D01*
X171258726Y-82017865D01*
X171207351Y-82062382D01*
X171097713Y-82113506D01*
X170978201Y-82197190D01*
X170918575Y-82238941D01*
X170918573Y-82238942D01*
X170918570Y-82238945D01*
X170763945Y-82393570D01*
X170763942Y-82393573D01*
X170763941Y-82393575D01*
X170762171Y-82396103D01*
X170638506Y-82572713D01*
X170546087Y-82770908D01*
X170546083Y-82770917D01*
X170489487Y-82982140D01*
X170489485Y-82982150D01*
X170470426Y-83199999D01*
X170470426Y-83200000D01*
X170489485Y-83417849D01*
X170489487Y-83417859D01*
X170546083Y-83629082D01*
X170546085Y-83629086D01*
X170546086Y-83629090D01*
X170584965Y-83712466D01*
X170638506Y-83827286D01*
X170638507Y-83827287D01*
X170763941Y-84006425D01*
X170918575Y-84161059D01*
X171028187Y-84237810D01*
X171097713Y-84286493D01*
X171207351Y-84337618D01*
X171259790Y-84383790D01*
X171278942Y-84450984D01*
X171258726Y-84517865D01*
X171207351Y-84562382D01*
X171097713Y-84613506D01*
X170978201Y-84697190D01*
X170918575Y-84738941D01*
X170918573Y-84738942D01*
X170918570Y-84738945D01*
X170763945Y-84893570D01*
X170638506Y-85072713D01*
X170546087Y-85270908D01*
X170546083Y-85270917D01*
X170489487Y-85482140D01*
X170489485Y-85482150D01*
X170470426Y-85699999D01*
X170470426Y-85700000D01*
X120384434Y-85700000D01*
X120322533Y-85592784D01*
X120195871Y-85452112D01*
X120177626Y-85438856D01*
X120042734Y-85340851D01*
X120042729Y-85340848D01*
X119869807Y-85263857D01*
X119869802Y-85263855D01*
X119693575Y-85226398D01*
X119684646Y-85224500D01*
X119495354Y-85224500D01*
X119486425Y-85226398D01*
X119310197Y-85263855D01*
X119310192Y-85263857D01*
X119137270Y-85340848D01*
X119137265Y-85340851D01*
X118984129Y-85452111D01*
X118857466Y-85592785D01*
X118762821Y-85756715D01*
X118762818Y-85756722D01*
X118704327Y-85936740D01*
X118704326Y-85936744D01*
X118697351Y-86003111D01*
X118684540Y-86125000D01*
X118685492Y-86134061D01*
X118672918Y-86202790D01*
X118660560Y-86222483D01*
X118655223Y-86229441D01*
X118655208Y-86229460D01*
X118645464Y-86242157D01*
X118584956Y-86388237D01*
X118584955Y-86388239D01*
X118569241Y-86507604D01*
X118564318Y-86545000D01*
X118568439Y-86576301D01*
X118569500Y-86592487D01*
X118569500Y-86665500D01*
X118549815Y-86732539D01*
X118497011Y-86778294D01*
X118445500Y-86789500D01*
X118375354Y-86789500D01*
X118358782Y-86793022D01*
X118351731Y-86794521D01*
X118282064Y-86789203D01*
X118226331Y-86747065D01*
X118202228Y-86681484D01*
X118208021Y-86634914D01*
X118255674Y-86488256D01*
X118275460Y-86300000D01*
X118255674Y-86111744D01*
X118197179Y-85931716D01*
X118102533Y-85767784D01*
X117975871Y-85627112D01*
X117928624Y-85592785D01*
X117822734Y-85515851D01*
X117822729Y-85515848D01*
X117649807Y-85438857D01*
X117649802Y-85438855D01*
X117504001Y-85407865D01*
X117464646Y-85399500D01*
X117275354Y-85399500D01*
X117242897Y-85406398D01*
X117090197Y-85438855D01*
X117090192Y-85438857D01*
X116917270Y-85515848D01*
X116917265Y-85515851D01*
X116764135Y-85627106D01*
X116764128Y-85627112D01*
X116735891Y-85658473D01*
X116676405Y-85695121D01*
X116643742Y-85699500D01*
X114576258Y-85699500D01*
X114509219Y-85679815D01*
X114484109Y-85658473D01*
X114455871Y-85627112D01*
X114455864Y-85627106D01*
X114302734Y-85515851D01*
X114302729Y-85515848D01*
X114129807Y-85438857D01*
X114129802Y-85438855D01*
X113984001Y-85407865D01*
X113944646Y-85399500D01*
X113755354Y-85399500D01*
X113722897Y-85406398D01*
X113570197Y-85438855D01*
X113570192Y-85438857D01*
X113397270Y-85515848D01*
X113397265Y-85515851D01*
X113244129Y-85627111D01*
X113117466Y-85767785D01*
X113022821Y-85931715D01*
X113022818Y-85931722D01*
X112974875Y-86079277D01*
X112964326Y-86111744D01*
X112944540Y-86300000D01*
X107798939Y-86300000D01*
X107932841Y-86244536D01*
X107953255Y-86228872D01*
X108058282Y-86148282D01*
X108077509Y-86123223D01*
X108088190Y-86111043D01*
X111999228Y-82200005D01*
X133679649Y-82200005D01*
X133699019Y-82433773D01*
X133699021Y-82433785D01*
X133756607Y-82661187D01*
X133850838Y-82876011D01*
X133979140Y-83072395D01*
X133979143Y-83072398D01*
X134138022Y-83244986D01*
X134323142Y-83389070D01*
X134529452Y-83500720D01*
X134644662Y-83540272D01*
X134751320Y-83576888D01*
X134751322Y-83576888D01*
X134751324Y-83576889D01*
X134982708Y-83615500D01*
X134982709Y-83615500D01*
X135217291Y-83615500D01*
X135217292Y-83615500D01*
X135448676Y-83576889D01*
X135670548Y-83500720D01*
X135876858Y-83389070D01*
X136061978Y-83244986D01*
X136220857Y-83072398D01*
X136220858Y-83072395D01*
X136220861Y-83072393D01*
X136266191Y-83003009D01*
X136319336Y-82957651D01*
X136388568Y-82948227D01*
X136451904Y-82977728D01*
X136473809Y-83003009D01*
X136519138Y-83072393D01*
X136577595Y-83135894D01*
X136678022Y-83244986D01*
X136863142Y-83389070D01*
X137069452Y-83500720D01*
X137184662Y-83540272D01*
X137291320Y-83576888D01*
X137291322Y-83576888D01*
X137291324Y-83576889D01*
X137522708Y-83615500D01*
X137522709Y-83615500D01*
X137757291Y-83615500D01*
X137757292Y-83615500D01*
X137988676Y-83576889D01*
X138210548Y-83500720D01*
X138416858Y-83389070D01*
X138601978Y-83244986D01*
X138760857Y-83072398D01*
X138811191Y-82995354D01*
X138864337Y-82949998D01*
X138933568Y-82940574D01*
X138996904Y-82970075D01*
X139018808Y-82995354D01*
X139069143Y-83072398D01*
X139228022Y-83244986D01*
X139413142Y-83389070D01*
X139619452Y-83500720D01*
X139734662Y-83540272D01*
X139841320Y-83576888D01*
X139841322Y-83576888D01*
X139841324Y-83576889D01*
X140072708Y-83615500D01*
X140072709Y-83615500D01*
X140307291Y-83615500D01*
X140307292Y-83615500D01*
X140538676Y-83576889D01*
X140760548Y-83500720D01*
X140966858Y-83389070D01*
X141151978Y-83244986D01*
X141310857Y-83072398D01*
X141439161Y-82876012D01*
X141533392Y-82661187D01*
X141590979Y-82433782D01*
X141594101Y-82396103D01*
X141610351Y-82200005D01*
X141610351Y-82199994D01*
X141590980Y-81966226D01*
X141590978Y-81966214D01*
X141533392Y-81738812D01*
X141439161Y-81523988D01*
X141310859Y-81327604D01*
X141253688Y-81265500D01*
X141151978Y-81155014D01*
X141001494Y-81037888D01*
X140966860Y-81010931D01*
X140760548Y-80899280D01*
X140760540Y-80899277D01*
X140538679Y-80823111D01*
X140365138Y-80794152D01*
X140307292Y-80784500D01*
X140072708Y-80784500D01*
X140026431Y-80792222D01*
X139841320Y-80823111D01*
X139619459Y-80899277D01*
X139619451Y-80899280D01*
X139413139Y-81010931D01*
X139282498Y-81112613D01*
X139228022Y-81155014D01*
X139228019Y-81155016D01*
X139228019Y-81155017D01*
X139069140Y-81327604D01*
X139018809Y-81404644D01*
X138965663Y-81450001D01*
X138896431Y-81459425D01*
X138833096Y-81429923D01*
X138811191Y-81404644D01*
X138760859Y-81327604D01*
X138703688Y-81265500D01*
X138601978Y-81155014D01*
X138451494Y-81037888D01*
X138416860Y-81010931D01*
X138210548Y-80899280D01*
X138210540Y-80899277D01*
X137988679Y-80823111D01*
X137815138Y-80794152D01*
X137757292Y-80784500D01*
X137522708Y-80784500D01*
X137476431Y-80792222D01*
X137291320Y-80823111D01*
X137069459Y-80899277D01*
X137069451Y-80899280D01*
X136863139Y-81010931D01*
X136732498Y-81112613D01*
X136678022Y-81155014D01*
X136678019Y-81155016D01*
X136678019Y-81155017D01*
X136519140Y-81327604D01*
X136473809Y-81396991D01*
X136420663Y-81442348D01*
X136351432Y-81451772D01*
X136288096Y-81422270D01*
X136266191Y-81396991D01*
X136220859Y-81327604D01*
X136163688Y-81265500D01*
X136061978Y-81155014D01*
X135911494Y-81037888D01*
X135876860Y-81010931D01*
X135670548Y-80899280D01*
X135670540Y-80899277D01*
X135448679Y-80823111D01*
X135275138Y-80794152D01*
X135217292Y-80784500D01*
X134982708Y-80784500D01*
X134936431Y-80792222D01*
X134751320Y-80823111D01*
X134529459Y-80899277D01*
X134529451Y-80899280D01*
X134323139Y-81010931D01*
X134192498Y-81112613D01*
X134138022Y-81155014D01*
X134138019Y-81155016D01*
X134138019Y-81155017D01*
X133979140Y-81327604D01*
X133850838Y-81523988D01*
X133756607Y-81738812D01*
X133699021Y-81966214D01*
X133699019Y-81966226D01*
X133679649Y-82199994D01*
X133679649Y-82200005D01*
X111999228Y-82200005D01*
X113382248Y-80816985D01*
X113443569Y-80783502D01*
X113513261Y-80788486D01*
X113569194Y-80830358D01*
X113577307Y-80842658D01*
X113617466Y-80912214D01*
X113617467Y-80912216D01*
X113744129Y-81052888D01*
X113897265Y-81164148D01*
X113897270Y-81164151D01*
X114070192Y-81241142D01*
X114070197Y-81241144D01*
X114255354Y-81280500D01*
X114255355Y-81280500D01*
X114444644Y-81280500D01*
X114444646Y-81280500D01*
X114629803Y-81241144D01*
X114802730Y-81164151D01*
X114955871Y-81052888D01*
X115082533Y-80912216D01*
X115177179Y-80748284D01*
X115235674Y-80568256D01*
X115239606Y-80530839D01*
X115266188Y-80466228D01*
X115275236Y-80456130D01*
X122335017Y-73396349D01*
X122396338Y-73362866D01*
X122466030Y-73367850D01*
X122521963Y-73409722D01*
X122546380Y-73475186D01*
X122540628Y-73522348D01*
X122534326Y-73541741D01*
X122526966Y-73611769D01*
X122514540Y-73730000D01*
X122534326Y-73918256D01*
X122534327Y-73918259D01*
X122592818Y-74098277D01*
X122592821Y-74098284D01*
X122687467Y-74262216D01*
X122750518Y-74332241D01*
X122814129Y-74402888D01*
X122967265Y-74514148D01*
X122967270Y-74514151D01*
X123140192Y-74591142D01*
X123140197Y-74591144D01*
X123325354Y-74630500D01*
X123325355Y-74630500D01*
X123514644Y-74630500D01*
X123514646Y-74630500D01*
X123699803Y-74591144D01*
X123820722Y-74537306D01*
X123889968Y-74528021D01*
X123944040Y-74550268D01*
X123956155Y-74559070D01*
X123965918Y-74566163D01*
X123965919Y-74566164D01*
X124138841Y-74643155D01*
X124138846Y-74643157D01*
X124324003Y-74682513D01*
X124324004Y-74682513D01*
X124513293Y-74682513D01*
X124513295Y-74682513D01*
X124698452Y-74643157D01*
X124871379Y-74566164D01*
X125024520Y-74454901D01*
X125151182Y-74314229D01*
X125245828Y-74150297D01*
X125304323Y-73970269D01*
X125324109Y-73782013D01*
X125304323Y-73593757D01*
X125245828Y-73413729D01*
X125151182Y-73249797D01*
X125064145Y-73153133D01*
X125020172Y-73104295D01*
X125021630Y-73102982D01*
X124989879Y-73051444D01*
X124985500Y-73018782D01*
X124985500Y-72524500D01*
X125005185Y-72457461D01*
X125057989Y-72411706D01*
X125109500Y-72400500D01*
X125294644Y-72400500D01*
X125294646Y-72400500D01*
X125479803Y-72361144D01*
X125652730Y-72284151D01*
X125805871Y-72172888D01*
X125932533Y-72032216D01*
X126027179Y-71868284D01*
X126085674Y-71688256D01*
X126105460Y-71500000D01*
X126085674Y-71311744D01*
X126027179Y-71131716D01*
X125932533Y-70967784D01*
X125805871Y-70827112D01*
X125787499Y-70813764D01*
X125652734Y-70715851D01*
X125652729Y-70715848D01*
X125479807Y-70638857D01*
X125479802Y-70638855D01*
X125334001Y-70607865D01*
X125294646Y-70599500D01*
X125105354Y-70599500D01*
X125072897Y-70606398D01*
X124920197Y-70638855D01*
X124920192Y-70638857D01*
X124747270Y-70715848D01*
X124747266Y-70715851D01*
X124685384Y-70760810D01*
X124619577Y-70784289D01*
X124551524Y-70768463D01*
X124539616Y-70760810D01*
X124477733Y-70715851D01*
X124477729Y-70715848D01*
X124304807Y-70638857D01*
X124304802Y-70638855D01*
X124159001Y-70607865D01*
X124119646Y-70599500D01*
X123930354Y-70599500D01*
X123919953Y-70601710D01*
X123850289Y-70596394D01*
X123794556Y-70554256D01*
X123770451Y-70488676D01*
X123785628Y-70420475D01*
X123806495Y-70392739D01*
X124851346Y-69347888D01*
X126987821Y-67211413D01*
X127049142Y-67177930D01*
X127118834Y-67182914D01*
X127174767Y-67224786D01*
X127199184Y-67290250D01*
X127199500Y-67299096D01*
X127199500Y-72392512D01*
X127198439Y-72408697D01*
X127194318Y-72439998D01*
X127194318Y-72440000D01*
X127208739Y-72549536D01*
X127208739Y-72549539D01*
X127214954Y-72596753D01*
X127214956Y-72596762D01*
X127271376Y-72732973D01*
X127275464Y-72742841D01*
X127371718Y-72868282D01*
X127371719Y-72868283D01*
X127396769Y-72887504D01*
X127408964Y-72898199D01*
X128186249Y-73675484D01*
X128219734Y-73736807D01*
X128221889Y-73776121D01*
X128219378Y-73800025D01*
X128219362Y-73800178D01*
X128239148Y-73988434D01*
X128239149Y-73988437D01*
X128297640Y-74168455D01*
X128297643Y-74168462D01*
X128392289Y-74332394D01*
X128502595Y-74454901D01*
X128518951Y-74473066D01*
X128672087Y-74584326D01*
X128672092Y-74584329D01*
X128845014Y-74661320D01*
X128845019Y-74661322D01*
X129030176Y-74700678D01*
X129030177Y-74700678D01*
X129219466Y-74700678D01*
X129219468Y-74700678D01*
X129404625Y-74661322D01*
X129577552Y-74584329D01*
X129652132Y-74530143D01*
X129717936Y-74506664D01*
X129785990Y-74522489D01*
X129797894Y-74530139D01*
X129847477Y-74566163D01*
X129872270Y-74584176D01*
X130045192Y-74661167D01*
X130045197Y-74661169D01*
X130230354Y-74700525D01*
X130230355Y-74700525D01*
X130419644Y-74700525D01*
X130419646Y-74700525D01*
X130604803Y-74661169D01*
X130777730Y-74584176D01*
X130930871Y-74472913D01*
X131057533Y-74332241D01*
X131152179Y-74168309D01*
X131210674Y-73988281D01*
X131230460Y-73800025D01*
X131210674Y-73611769D01*
X131152179Y-73431741D01*
X131057533Y-73267809D01*
X130930871Y-73127137D01*
X130930870Y-73127136D01*
X130777734Y-73015876D01*
X130777729Y-73015873D01*
X130604807Y-72938882D01*
X130604802Y-72938880D01*
X130459001Y-72907890D01*
X130419646Y-72899525D01*
X130230354Y-72899525D01*
X130158481Y-72914801D01*
X130088816Y-72909485D01*
X130045022Y-72881192D01*
X128836819Y-71672989D01*
X128803334Y-71611666D01*
X128800500Y-71585308D01*
X128800500Y-66144047D01*
X128820185Y-66077008D01*
X128872989Y-66031253D01*
X128942147Y-66021309D01*
X129005703Y-66050334D01*
X129012181Y-66056366D01*
X129073181Y-66117366D01*
X129106666Y-66178689D01*
X129109500Y-66205047D01*
X129109500Y-70215399D01*
X129108439Y-70231584D01*
X129104318Y-70262885D01*
X129104318Y-70262887D01*
X129109500Y-70302247D01*
X129109500Y-70302248D01*
X129124955Y-70419647D01*
X129124956Y-70419649D01*
X129185464Y-70565728D01*
X129241577Y-70638856D01*
X129281719Y-70691170D01*
X129306769Y-70710391D01*
X129318964Y-70721086D01*
X131413911Y-72816034D01*
X131424605Y-72828228D01*
X131443830Y-72853282D01*
X131564466Y-72945849D01*
X131569271Y-72949536D01*
X131715350Y-73010044D01*
X131781722Y-73018782D01*
X131872111Y-73030682D01*
X131872112Y-73030682D01*
X131903414Y-73026560D01*
X131919599Y-73025500D01*
X133374903Y-73025500D01*
X133441942Y-73045185D01*
X133462584Y-73061819D01*
X133492575Y-73091810D01*
X133526060Y-73153133D01*
X133528215Y-73192451D01*
X133519540Y-73274999D01*
X133519540Y-73275000D01*
X133539326Y-73463256D01*
X133539327Y-73463259D01*
X133597818Y-73643277D01*
X133597821Y-73643284D01*
X133692467Y-73807216D01*
X133792448Y-73918256D01*
X133819129Y-73947888D01*
X133972265Y-74059148D01*
X133972270Y-74059151D01*
X134145192Y-74136142D01*
X134145197Y-74136144D01*
X134330354Y-74175500D01*
X134330355Y-74175500D01*
X134519644Y-74175500D01*
X134519646Y-74175500D01*
X134704803Y-74136144D01*
X134877730Y-74059151D01*
X135030871Y-73947888D01*
X135157533Y-73807216D01*
X135252179Y-73643284D01*
X135310674Y-73463256D01*
X135330460Y-73275000D01*
X135310674Y-73086744D01*
X135252179Y-72906716D01*
X135157533Y-72742784D01*
X135148698Y-72732972D01*
X135118469Y-72669981D01*
X135127093Y-72600646D01*
X135148699Y-72567027D01*
X135157533Y-72557216D01*
X135252179Y-72393284D01*
X135272741Y-72330000D01*
X152284540Y-72330000D01*
X152304326Y-72518256D01*
X152304327Y-72518259D01*
X152362818Y-72698277D01*
X152362821Y-72698284D01*
X152457467Y-72862216D01*
X152584129Y-73002888D01*
X152737265Y-73114148D01*
X152737270Y-73114151D01*
X152910191Y-73191142D01*
X152910193Y-73191142D01*
X152910197Y-73191144D01*
X152975329Y-73204987D01*
X153036809Y-73238178D01*
X153037228Y-73238596D01*
X160312228Y-80513596D01*
X160342478Y-80562958D01*
X160397819Y-80733280D01*
X160397821Y-80733284D01*
X160492467Y-80897216D01*
X160574440Y-80988256D01*
X160619129Y-81037888D01*
X160772265Y-81149148D01*
X160772270Y-81149151D01*
X160945192Y-81226142D01*
X160945197Y-81226144D01*
X161130354Y-81265500D01*
X161130355Y-81265500D01*
X161319644Y-81265500D01*
X161319646Y-81265500D01*
X161504803Y-81226144D01*
X161677730Y-81149151D01*
X161830871Y-81037888D01*
X161957533Y-80897216D01*
X162052179Y-80733284D01*
X162110674Y-80553256D01*
X162130460Y-80365000D01*
X162110674Y-80176744D01*
X162052179Y-79996716D01*
X161957533Y-79832784D01*
X161830871Y-79692112D01*
X161806680Y-79674536D01*
X161677734Y-79580851D01*
X161677729Y-79580848D01*
X161504807Y-79503857D01*
X161504803Y-79503856D01*
X161439669Y-79490011D01*
X161378188Y-79456818D01*
X161377770Y-79456402D01*
X154102770Y-72181402D01*
X154072521Y-72132041D01*
X154037738Y-72024992D01*
X154017181Y-71961721D01*
X154017178Y-71961715D01*
X153961830Y-71865849D01*
X153922533Y-71797784D01*
X153795871Y-71657112D01*
X153795870Y-71657111D01*
X153642734Y-71545851D01*
X153642729Y-71545848D01*
X153469807Y-71468857D01*
X153469802Y-71468855D01*
X153324001Y-71437865D01*
X153284646Y-71429500D01*
X153095354Y-71429500D01*
X153062897Y-71436398D01*
X152910197Y-71468855D01*
X152910192Y-71468857D01*
X152737270Y-71545848D01*
X152737265Y-71545851D01*
X152584129Y-71657111D01*
X152457466Y-71797785D01*
X152362821Y-71961715D01*
X152362818Y-71961722D01*
X152304327Y-72141740D01*
X152304326Y-72141744D01*
X152284540Y-72330000D01*
X135272741Y-72330000D01*
X135310674Y-72213256D01*
X135330460Y-72025000D01*
X135310674Y-71836744D01*
X135252179Y-71656716D01*
X135157533Y-71492784D01*
X135146098Y-71480084D01*
X135115868Y-71417092D01*
X135124494Y-71347757D01*
X135130861Y-71335112D01*
X135144355Y-71311740D01*
X135227179Y-71168284D01*
X135285674Y-70988256D01*
X135305460Y-70800000D01*
X135285674Y-70611744D01*
X135227179Y-70431716D01*
X135132533Y-70267784D01*
X135005871Y-70127112D01*
X135005870Y-70127111D01*
X134852734Y-70015851D01*
X134852729Y-70015848D01*
X134679807Y-69938857D01*
X134679802Y-69938855D01*
X134534001Y-69907865D01*
X134494646Y-69899500D01*
X134305354Y-69899500D01*
X134272897Y-69906398D01*
X134120197Y-69938855D01*
X134120192Y-69938857D01*
X133947270Y-70015848D01*
X133947265Y-70015851D01*
X133794129Y-70127111D01*
X133667466Y-70267785D01*
X133572821Y-70431715D01*
X133572818Y-70431722D01*
X133518304Y-70599500D01*
X133514326Y-70611744D01*
X133494943Y-70796164D01*
X133494540Y-70800002D01*
X133494540Y-70804862D01*
X133474855Y-70871901D01*
X133458225Y-70892539D01*
X133362582Y-70988182D01*
X133301262Y-71021666D01*
X133274903Y-71024500D01*
X132503582Y-71024500D01*
X132436543Y-71004815D01*
X132415901Y-70988181D01*
X131186819Y-69759099D01*
X131153334Y-69697776D01*
X131150500Y-69671418D01*
X131150500Y-67295426D01*
X138806475Y-67295426D01*
X138826261Y-67483682D01*
X138826262Y-67483685D01*
X138884753Y-67663703D01*
X138884756Y-67663710D01*
X138979402Y-67827642D01*
X139106064Y-67968314D01*
X139259200Y-68079574D01*
X139259205Y-68079577D01*
X139432127Y-68156568D01*
X139432132Y-68156570D01*
X139617289Y-68195926D01*
X139617290Y-68195926D01*
X139806579Y-68195926D01*
X139806581Y-68195926D01*
X139991738Y-68156570D01*
X140138115Y-68091397D01*
X140207363Y-68082113D01*
X140270640Y-68111740D01*
X140307854Y-68170875D01*
X140307190Y-68240742D01*
X140295938Y-68266675D01*
X140272822Y-68306713D01*
X140272818Y-68306722D01*
X140219507Y-68470798D01*
X140214326Y-68486744D01*
X140194540Y-68675000D01*
X140214326Y-68863256D01*
X140214327Y-68863259D01*
X140272818Y-69043277D01*
X140272820Y-69043281D01*
X140272821Y-69043284D01*
X140367467Y-69207216D01*
X140413497Y-69258337D01*
X140494129Y-69347888D01*
X140647265Y-69459148D01*
X140647270Y-69459151D01*
X140820192Y-69536142D01*
X140820197Y-69536144D01*
X141005354Y-69575500D01*
X141005355Y-69575500D01*
X141194644Y-69575500D01*
X141194646Y-69575500D01*
X141379803Y-69536144D01*
X141552730Y-69459151D01*
X141705871Y-69347888D01*
X141832533Y-69207216D01*
X141927179Y-69043284D01*
X141934360Y-69021182D01*
X141973796Y-68963507D01*
X142038155Y-68936308D01*
X142052291Y-68935500D01*
X143694160Y-68935500D01*
X143710345Y-68936561D01*
X143739999Y-68940465D01*
X143740000Y-68940465D01*
X143777714Y-68935500D01*
X143777720Y-68935500D01*
X143890236Y-68920687D01*
X144030233Y-68862698D01*
X144128358Y-68787405D01*
X144128370Y-68787394D01*
X144150448Y-68770453D01*
X144150447Y-68770453D01*
X144150451Y-68770451D01*
X144168670Y-68746706D01*
X144179351Y-68734527D01*
X146302061Y-66611819D01*
X146363384Y-66578334D01*
X146389742Y-66575500D01*
X146519644Y-66575500D01*
X146519646Y-66575500D01*
X146704803Y-66536144D01*
X146877730Y-66459151D01*
X147030871Y-66347888D01*
X147157533Y-66207216D01*
X147252179Y-66043284D01*
X147310674Y-65863256D01*
X147330460Y-65675000D01*
X147310674Y-65486744D01*
X147252179Y-65306716D01*
X147157533Y-65142784D01*
X147030871Y-65002112D01*
X147030870Y-65002111D01*
X146877734Y-64890851D01*
X146877729Y-64890848D01*
X146704807Y-64813857D01*
X146704802Y-64813855D01*
X146559001Y-64782865D01*
X146519646Y-64774500D01*
X146330354Y-64774500D01*
X146297897Y-64781398D01*
X146145197Y-64813855D01*
X146145192Y-64813857D01*
X145972270Y-64890848D01*
X145972265Y-64890851D01*
X145819129Y-65002111D01*
X145692466Y-65142785D01*
X145597821Y-65306715D01*
X145597818Y-65306722D01*
X145539327Y-65486740D01*
X145539326Y-65486744D01*
X145522244Y-65649271D01*
X145519540Y-65675002D01*
X145522067Y-65699052D01*
X145509496Y-65767782D01*
X145486427Y-65799691D01*
X143537939Y-67748181D01*
X143476616Y-67781666D01*
X143450258Y-67784500D01*
X142420883Y-67784500D01*
X142353844Y-67764815D01*
X142308089Y-67712011D01*
X142298145Y-67642853D01*
X142327170Y-67579297D01*
X142333202Y-67572819D01*
X142375539Y-67530482D01*
X142436862Y-67496997D01*
X142463220Y-67494163D01*
X142557767Y-67494163D01*
X142557769Y-67494163D01*
X142742926Y-67454807D01*
X142915853Y-67377814D01*
X143068994Y-67266551D01*
X143195656Y-67125879D01*
X143290302Y-66961947D01*
X143348797Y-66781919D01*
X143368583Y-66593663D01*
X143348797Y-66405407D01*
X143290302Y-66225379D01*
X143195656Y-66061447D01*
X143068994Y-65920775D01*
X143068993Y-65920774D01*
X142915857Y-65809514D01*
X142915852Y-65809511D01*
X142742930Y-65732520D01*
X142742925Y-65732518D01*
X142585475Y-65699052D01*
X142557769Y-65693163D01*
X142368477Y-65693163D01*
X142340771Y-65699052D01*
X142183320Y-65732518D01*
X142183315Y-65732520D01*
X142010393Y-65809511D01*
X142010388Y-65809514D01*
X141857252Y-65920774D01*
X141730589Y-66061448D01*
X141635944Y-66225378D01*
X141635941Y-66225385D01*
X141577450Y-66405403D01*
X141577449Y-66405407D01*
X141558690Y-66583888D01*
X141532107Y-66648502D01*
X141474809Y-66688487D01*
X141435370Y-66694926D01*
X140438193Y-66694926D01*
X140371154Y-66675241D01*
X140346044Y-66653899D01*
X140317806Y-66622538D01*
X140317799Y-66622532D01*
X140164669Y-66511277D01*
X140164664Y-66511274D01*
X139991742Y-66434283D01*
X139991737Y-66434281D01*
X139845936Y-66403291D01*
X139806581Y-66394926D01*
X139617289Y-66394926D01*
X139584832Y-66401824D01*
X139432132Y-66434281D01*
X139432127Y-66434283D01*
X139259205Y-66511274D01*
X139259200Y-66511277D01*
X139106064Y-66622537D01*
X138979401Y-66763211D01*
X138884756Y-66927141D01*
X138884753Y-66927148D01*
X138851395Y-67029815D01*
X138826261Y-67107170D01*
X138806475Y-67295426D01*
X131150500Y-67295426D01*
X131150500Y-64359761D01*
X131167113Y-64297761D01*
X131169723Y-64293240D01*
X131190104Y-64257940D01*
X131218343Y-64171029D01*
X139167925Y-64171029D01*
X139187711Y-64359285D01*
X139187712Y-64359288D01*
X139246203Y-64539306D01*
X139246206Y-64539313D01*
X139340852Y-64703245D01*
X139430749Y-64803085D01*
X139467514Y-64843917D01*
X139620650Y-64955177D01*
X139620655Y-64955180D01*
X139793577Y-65032171D01*
X139793582Y-65032173D01*
X139978739Y-65071529D01*
X139978740Y-65071529D01*
X140168029Y-65071529D01*
X140168031Y-65071529D01*
X140353188Y-65032173D01*
X140526115Y-64955180D01*
X140679256Y-64843917D01*
X140805918Y-64703245D01*
X140900564Y-64539313D01*
X140935698Y-64431181D01*
X140975135Y-64373507D01*
X141039494Y-64346308D01*
X141053629Y-64345500D01*
X143433797Y-64345500D01*
X143500836Y-64365185D01*
X143541183Y-64407499D01*
X143554857Y-64431182D01*
X143556946Y-64434801D01*
X143683608Y-64575473D01*
X143836744Y-64686733D01*
X143836749Y-64686736D01*
X144009671Y-64763727D01*
X144009676Y-64763729D01*
X144194833Y-64803085D01*
X144194834Y-64803085D01*
X144384123Y-64803085D01*
X144384125Y-64803085D01*
X144569282Y-64763729D01*
X144742209Y-64686736D01*
X144895350Y-64575473D01*
X145022012Y-64434801D01*
X145116658Y-64270869D01*
X145140789Y-64196601D01*
X163178783Y-64196601D01*
X163180308Y-64233473D01*
X163198441Y-64671879D01*
X163202351Y-64703245D01*
X163257278Y-65143910D01*
X163354897Y-65609470D01*
X163490622Y-66065368D01*
X163490629Y-66065386D01*
X163634573Y-66434283D01*
X163663543Y-66508525D01*
X163795699Y-66778855D01*
X163872462Y-66935876D01*
X164115954Y-67344509D01*
X164115967Y-67344528D01*
X164392355Y-67731634D01*
X164392369Y-67731653D01*
X164699800Y-68094637D01*
X165036162Y-68430999D01*
X165399146Y-68738430D01*
X165399165Y-68738444D01*
X165714386Y-68963507D01*
X165786285Y-69014842D01*
X166194924Y-69258338D01*
X166622275Y-69467257D01*
X167065419Y-69640173D01*
X167065426Y-69640175D01*
X167065431Y-69640177D01*
X167170369Y-69671418D01*
X167521329Y-69775903D01*
X167986889Y-69873521D01*
X168458921Y-69932359D01*
X168897885Y-69950515D01*
X168934198Y-69952017D01*
X168934200Y-69952017D01*
X168934202Y-69952017D01*
X168969177Y-69950570D01*
X169409479Y-69932359D01*
X169881511Y-69873521D01*
X170347071Y-69775903D01*
X170802981Y-69640173D01*
X171246125Y-69467257D01*
X171673476Y-69258338D01*
X172082115Y-69014842D01*
X172469250Y-68738433D01*
X172832238Y-68430998D01*
X172832243Y-68430994D01*
X173168594Y-68094643D01*
X173168599Y-68094637D01*
X173394732Y-67827642D01*
X173476033Y-67731650D01*
X173752442Y-67344515D01*
X173995938Y-66935876D01*
X174204857Y-66508525D01*
X174377773Y-66065381D01*
X174513503Y-65609471D01*
X174611121Y-65143911D01*
X174669959Y-64671879D01*
X174689617Y-64196600D01*
X174669959Y-63721321D01*
X174611121Y-63249289D01*
X174513503Y-62783729D01*
X174389620Y-62367613D01*
X174377777Y-62327831D01*
X174377775Y-62327826D01*
X174377773Y-62327819D01*
X174204857Y-61884675D01*
X173995938Y-61457324D01*
X173752442Y-61048685D01*
X173582381Y-60810500D01*
X173476044Y-60661565D01*
X173476030Y-60661546D01*
X173168599Y-60298562D01*
X172832237Y-59962200D01*
X172469253Y-59654769D01*
X172469234Y-59654755D01*
X172082128Y-59378367D01*
X172082109Y-59378354D01*
X171673476Y-59134862D01*
X171597955Y-59097942D01*
X171246125Y-58925943D01*
X171246116Y-58925939D01*
X171246113Y-58925938D01*
X170802986Y-58753029D01*
X170802968Y-58753022D01*
X170376448Y-58626043D01*
X170347071Y-58617297D01*
X170249452Y-58596828D01*
X169881510Y-58519678D01*
X169456660Y-58466722D01*
X169409479Y-58460841D01*
X169251052Y-58454288D01*
X168934202Y-58441183D01*
X168934198Y-58441183D01*
X168458921Y-58460841D01*
X167986889Y-58519678D01*
X167521329Y-58617297D01*
X167065431Y-58753022D01*
X167065413Y-58753029D01*
X166622286Y-58925938D01*
X166622267Y-58925947D01*
X166194923Y-59134862D01*
X165786290Y-59378354D01*
X165786271Y-59378367D01*
X165399165Y-59654755D01*
X165399146Y-59654769D01*
X165036162Y-59962200D01*
X165036157Y-59962206D01*
X164699806Y-60298557D01*
X164699800Y-60298562D01*
X164392369Y-60661546D01*
X164392355Y-60661565D01*
X164115967Y-61048671D01*
X164115954Y-61048690D01*
X163872462Y-61457323D01*
X163663547Y-61884667D01*
X163663538Y-61884686D01*
X163490629Y-62327813D01*
X163490622Y-62327831D01*
X163354897Y-62783729D01*
X163257278Y-63249289D01*
X163198441Y-63721321D01*
X163178783Y-64196598D01*
X163178783Y-64196601D01*
X145140789Y-64196601D01*
X145175153Y-64090841D01*
X145194939Y-63902585D01*
X145175153Y-63714329D01*
X145116658Y-63534301D01*
X145022012Y-63370369D01*
X144895350Y-63229697D01*
X144877555Y-63216768D01*
X144742213Y-63118436D01*
X144742208Y-63118433D01*
X144569286Y-63041442D01*
X144569281Y-63041440D01*
X144423480Y-63010450D01*
X144384125Y-63002085D01*
X144194833Y-63002085D01*
X144162376Y-63008983D01*
X144009676Y-63041440D01*
X144009671Y-63041442D01*
X143836749Y-63118433D01*
X143836744Y-63118436D01*
X143764648Y-63170818D01*
X143698842Y-63194298D01*
X143691763Y-63194500D01*
X140520260Y-63194500D01*
X140504076Y-63193439D01*
X140474414Y-63189534D01*
X140436694Y-63194500D01*
X140324179Y-63209312D01*
X140324174Y-63209314D01*
X140290784Y-63223144D01*
X140290785Y-63223145D01*
X140199175Y-63261090D01*
X140151725Y-63270529D01*
X139978739Y-63270529D01*
X139946282Y-63277427D01*
X139793582Y-63309884D01*
X139793577Y-63309886D01*
X139620655Y-63386877D01*
X139620650Y-63386880D01*
X139467514Y-63498140D01*
X139340851Y-63638814D01*
X139246206Y-63802744D01*
X139246203Y-63802751D01*
X139187712Y-63982769D01*
X139187711Y-63982773D01*
X139167925Y-64171029D01*
X131218343Y-64171029D01*
X131248599Y-64077912D01*
X131268385Y-63889656D01*
X131248599Y-63701400D01*
X131190104Y-63521372D01*
X131095458Y-63357440D01*
X130968796Y-63216768D01*
X130968795Y-63216767D01*
X130815659Y-63105507D01*
X130815654Y-63105504D01*
X130642732Y-63028513D01*
X130642727Y-63028511D01*
X130496926Y-62997521D01*
X130457571Y-62989156D01*
X130268279Y-62989156D01*
X130221402Y-62999120D01*
X130083124Y-63028511D01*
X129976230Y-63076104D01*
X129906980Y-63085388D01*
X129843703Y-63055760D01*
X129825474Y-63035707D01*
X129823354Y-63032789D01*
X129823351Y-63032784D01*
X129696689Y-62892112D01*
X129696688Y-62892111D01*
X129543552Y-62780851D01*
X129543547Y-62780848D01*
X129370625Y-62703857D01*
X129370620Y-62703855D01*
X129206343Y-62668938D01*
X129185464Y-62664500D01*
X128996172Y-62664500D01*
X128950278Y-62674254D01*
X128880613Y-62668938D01*
X128824879Y-62626800D01*
X128815029Y-62600000D01*
X157594540Y-62600000D01*
X157614326Y-62788256D01*
X157614327Y-62788259D01*
X157672818Y-62968277D01*
X157672821Y-62968284D01*
X157767467Y-63132216D01*
X157872880Y-63249289D01*
X157894129Y-63272888D01*
X158047265Y-63384148D01*
X158047270Y-63384151D01*
X158220192Y-63461142D01*
X158220197Y-63461144D01*
X158405354Y-63500500D01*
X158405355Y-63500500D01*
X158594644Y-63500500D01*
X158594646Y-63500500D01*
X158779803Y-63461144D01*
X158952730Y-63384151D01*
X159105871Y-63272888D01*
X159134109Y-63241527D01*
X159193595Y-63204879D01*
X159226258Y-63200500D01*
X160223742Y-63200500D01*
X160290781Y-63220185D01*
X160315891Y-63241527D01*
X160344128Y-63272887D01*
X160344135Y-63272893D01*
X160497265Y-63384148D01*
X160497270Y-63384151D01*
X160670192Y-63461142D01*
X160670197Y-63461144D01*
X160855354Y-63500500D01*
X160855355Y-63500500D01*
X161044644Y-63500500D01*
X161044646Y-63500500D01*
X161229803Y-63461144D01*
X161402730Y-63384151D01*
X161555871Y-63272888D01*
X161682533Y-63132216D01*
X161777179Y-62968284D01*
X161835674Y-62788256D01*
X161855460Y-62600000D01*
X161835674Y-62411744D01*
X161777179Y-62231716D01*
X161682533Y-62067784D01*
X161555871Y-61927112D01*
X161552257Y-61924486D01*
X161402734Y-61815851D01*
X161402729Y-61815848D01*
X161229807Y-61738857D01*
X161229802Y-61738855D01*
X161084001Y-61707865D01*
X161044646Y-61699500D01*
X160855354Y-61699500D01*
X160822897Y-61706398D01*
X160670197Y-61738855D01*
X160670192Y-61738857D01*
X160497270Y-61815848D01*
X160497265Y-61815851D01*
X160344135Y-61927106D01*
X160344128Y-61927112D01*
X160315891Y-61958473D01*
X160256405Y-61995121D01*
X160223742Y-61999500D01*
X159226258Y-61999500D01*
X159159219Y-61979815D01*
X159134109Y-61958473D01*
X159105871Y-61927112D01*
X159105864Y-61927106D01*
X158952734Y-61815851D01*
X158952729Y-61815848D01*
X158779807Y-61738857D01*
X158779802Y-61738855D01*
X158634001Y-61707865D01*
X158594646Y-61699500D01*
X158405354Y-61699500D01*
X158372897Y-61706398D01*
X158220197Y-61738855D01*
X158220192Y-61738857D01*
X158047270Y-61815848D01*
X158047265Y-61815851D01*
X157894129Y-61927111D01*
X157767466Y-62067785D01*
X157672821Y-62231715D01*
X157672818Y-62231722D01*
X157628665Y-62367613D01*
X157614326Y-62411744D01*
X157594540Y-62600000D01*
X128815029Y-62600000D01*
X128800775Y-62561220D01*
X128800500Y-62552964D01*
X128800500Y-61807421D01*
X128820185Y-61740382D01*
X128872989Y-61694627D01*
X128898704Y-61686135D01*
X129039803Y-61656144D01*
X129039807Y-61656142D01*
X129039808Y-61656142D01*
X129172443Y-61597088D01*
X129212730Y-61579151D01*
X129365871Y-61467888D01*
X129492533Y-61327216D01*
X129587179Y-61163284D01*
X129645674Y-60983256D01*
X129665460Y-60795000D01*
X129645674Y-60606744D01*
X129587179Y-60426716D01*
X129492533Y-60262784D01*
X129365871Y-60122112D01*
X129365870Y-60122111D01*
X129361042Y-60117764D01*
X129362718Y-60115902D01*
X129326926Y-60069478D01*
X129320953Y-59999864D01*
X129353564Y-59938072D01*
X129414406Y-59903720D01*
X129442481Y-59900500D01*
X137020628Y-59900500D01*
X137087667Y-59920185D01*
X137133422Y-59972989D01*
X137138559Y-59986182D01*
X137163254Y-60062188D01*
X137163257Y-60062194D01*
X137257903Y-60226126D01*
X137355202Y-60334187D01*
X137384565Y-60366798D01*
X137537701Y-60478058D01*
X137537706Y-60478061D01*
X137710628Y-60555052D01*
X137710633Y-60555054D01*
X137895790Y-60594410D01*
X137895791Y-60594410D01*
X138085080Y-60594410D01*
X138085082Y-60594410D01*
X138270239Y-60555054D01*
X138443166Y-60478061D01*
X138596307Y-60366798D01*
X138722969Y-60226126D01*
X138817615Y-60062194D01*
X138876110Y-59882166D01*
X138895896Y-59693910D01*
X138880846Y-59550715D01*
X138893414Y-59481991D01*
X138941146Y-59430967D01*
X139008886Y-59413849D01*
X139075128Y-59436071D01*
X139096315Y-59454786D01*
X139144128Y-59507887D01*
X139144129Y-59507888D01*
X139297268Y-59619150D01*
X139300900Y-59621247D01*
X139349118Y-59671812D01*
X139362343Y-59740419D01*
X139362225Y-59741597D01*
X139346068Y-59895329D01*
X139344526Y-59910000D01*
X139364312Y-60098256D01*
X139364313Y-60098259D01*
X139422804Y-60278277D01*
X139422807Y-60278284D01*
X139517453Y-60442216D01*
X139602372Y-60536528D01*
X139644115Y-60582888D01*
X139797251Y-60694148D01*
X139797256Y-60694151D01*
X139970178Y-60771142D01*
X139970183Y-60771144D01*
X140155340Y-60810500D01*
X140155341Y-60810500D01*
X140344630Y-60810500D01*
X140344632Y-60810500D01*
X140529789Y-60771144D01*
X140702716Y-60694151D01*
X140855850Y-60582892D01*
X140855852Y-60582892D01*
X140855852Y-60582890D01*
X140855857Y-60582888D01*
X140897602Y-60536525D01*
X140957087Y-60499879D01*
X140989750Y-60495500D01*
X143556923Y-60495500D01*
X143623962Y-60515185D01*
X143649073Y-60536528D01*
X143683843Y-60575145D01*
X143683850Y-60575151D01*
X143836985Y-60686410D01*
X143836990Y-60686413D01*
X144009912Y-60763404D01*
X144009917Y-60763406D01*
X144195074Y-60802762D01*
X144195075Y-60802762D01*
X144384364Y-60802762D01*
X144384366Y-60802762D01*
X144569523Y-60763406D01*
X144742450Y-60686413D01*
X144895591Y-60575150D01*
X145022253Y-60434478D01*
X145116899Y-60270546D01*
X145175394Y-60090518D01*
X145195180Y-59902262D01*
X145175394Y-59714006D01*
X145120832Y-59546085D01*
X145116901Y-59533984D01*
X145116900Y-59533983D01*
X145116899Y-59533978D01*
X145022253Y-59370046D01*
X144895591Y-59229374D01*
X144895590Y-59229373D01*
X144742454Y-59118113D01*
X144742449Y-59118110D01*
X144569527Y-59041119D01*
X144569522Y-59041117D01*
X144423721Y-59010127D01*
X144384366Y-59001762D01*
X144195074Y-59001762D01*
X144162617Y-59008660D01*
X144009917Y-59041117D01*
X144009912Y-59041119D01*
X143836990Y-59118110D01*
X143836985Y-59118113D01*
X143683850Y-59229372D01*
X143683843Y-59229378D01*
X143617130Y-59303472D01*
X143557643Y-59340121D01*
X143524980Y-59344500D01*
X143369900Y-59344500D01*
X143302861Y-59324815D01*
X143257106Y-59272011D01*
X143247162Y-59202853D01*
X143276187Y-59139297D01*
X143277750Y-59137528D01*
X143282533Y-59132216D01*
X143377179Y-58968284D01*
X143435674Y-58788256D01*
X143455460Y-58600000D01*
X143435674Y-58411744D01*
X143416934Y-58354069D01*
X143415354Y-58349205D01*
X143413359Y-58279364D01*
X143449440Y-58219531D01*
X143512140Y-58188703D01*
X143533285Y-58186887D01*
X169160667Y-58186887D01*
X169166737Y-58187036D01*
G37*
%TD.AperFunction*%
%TA.AperFunction,Conductor*%
G36*
X138936645Y-58206572D02*
G01*
X138982400Y-58259376D01*
X138992344Y-58328534D01*
X138976993Y-58372887D01*
X138922821Y-58466715D01*
X138922818Y-58466722D01*
X138873894Y-58617297D01*
X138864326Y-58646744D01*
X138844540Y-58835000D01*
X138859589Y-58978191D01*
X138847020Y-59046918D01*
X138799288Y-59097942D01*
X138731548Y-59115060D01*
X138665307Y-59092838D01*
X138644120Y-59074123D01*
X138596307Y-59021022D01*
X138596306Y-59021021D01*
X138443170Y-58909761D01*
X138443165Y-58909758D01*
X138270243Y-58832767D01*
X138270238Y-58832765D01*
X138124437Y-58801775D01*
X138085082Y-58793410D01*
X137917150Y-58793410D01*
X137860492Y-58778228D01*
X137860349Y-58778574D01*
X137857722Y-58777486D01*
X137855151Y-58776797D01*
X137852845Y-58775466D01*
X137852841Y-58775464D01*
X137706762Y-58714956D01*
X137706760Y-58714955D01*
X137589361Y-58699500D01*
X137550000Y-58694318D01*
X137518697Y-58698439D01*
X137502513Y-58699500D01*
X127902459Y-58699500D01*
X127886274Y-58698439D01*
X127854972Y-58694318D01*
X127815611Y-58699500D01*
X127698211Y-58714955D01*
X127698209Y-58714956D01*
X127552129Y-58775464D01*
X127426690Y-58871716D01*
X127407461Y-58896775D01*
X127396770Y-58908965D01*
X127350416Y-58955319D01*
X127291410Y-58987538D01*
X127291494Y-58987852D01*
X127290202Y-58988197D01*
X127289093Y-58988804D01*
X127285794Y-58989379D01*
X127283646Y-58989954D01*
X127137565Y-59050463D01*
X127012119Y-59146721D01*
X126992900Y-59171769D01*
X126982205Y-59183964D01*
X126783965Y-59382203D01*
X126771775Y-59392894D01*
X126746717Y-59412123D01*
X126683288Y-59494788D01*
X126683286Y-59494790D01*
X126650464Y-59537562D01*
X126650461Y-59537568D01*
X126589957Y-59683639D01*
X126589955Y-59683644D01*
X126569318Y-59840403D01*
X126569318Y-59840405D01*
X126573439Y-59871706D01*
X126574500Y-59887892D01*
X126574500Y-65874903D01*
X126554815Y-65941942D01*
X126538181Y-65962584D01*
X115754706Y-76746059D01*
X115693383Y-76779544D01*
X115623691Y-76774560D01*
X115567758Y-76732688D01*
X115543341Y-76667224D01*
X115543025Y-76658378D01*
X115543025Y-76297522D01*
X115562710Y-76230483D01*
X115579343Y-76209842D01*
X115633564Y-76155620D01*
X115645751Y-76144931D01*
X115670807Y-76125707D01*
X115767061Y-76000266D01*
X115827569Y-75854187D01*
X115843025Y-75736786D01*
X115848207Y-75697425D01*
X115845683Y-75678256D01*
X115844086Y-75666122D01*
X115843025Y-75649937D01*
X115843025Y-75165019D01*
X115844086Y-75148833D01*
X115848208Y-75117525D01*
X115848208Y-75117524D01*
X115827569Y-74960763D01*
X115792152Y-74875259D01*
X115767061Y-74814684D01*
X115715651Y-74747685D01*
X115670807Y-74689243D01*
X115670805Y-74689241D01*
X115670804Y-74689240D01*
X115645753Y-74670018D01*
X115633559Y-74659324D01*
X115133199Y-74158964D01*
X115122504Y-74146769D01*
X115103283Y-74121719D01*
X115072733Y-74098277D01*
X114977841Y-74025464D01*
X114972305Y-74023171D01*
X114831762Y-73964956D01*
X114831760Y-73964955D01*
X114769712Y-73956787D01*
X114675001Y-73944318D01*
X114675000Y-73944318D01*
X114643697Y-73948439D01*
X114627513Y-73949500D01*
X108677544Y-73949500D01*
X108661358Y-73948439D01*
X108630051Y-73944317D01*
X108630049Y-73944317D01*
X108473288Y-73964955D01*
X108327207Y-74025464D01*
X108201768Y-74121716D01*
X108182539Y-74146775D01*
X108171848Y-74158965D01*
X107588965Y-74741848D01*
X107576775Y-74752539D01*
X107551716Y-74771768D01*
X107472308Y-74875258D01*
X107472307Y-74875259D01*
X107455464Y-74897207D01*
X107455461Y-74897213D01*
X107394957Y-75043284D01*
X107394955Y-75043289D01*
X107374318Y-75200048D01*
X107374318Y-75200049D01*
X107378439Y-75231351D01*
X107379500Y-75247537D01*
X107379500Y-75982512D01*
X107378438Y-75998697D01*
X107374318Y-76030000D01*
X107378388Y-76060918D01*
X107379500Y-76069360D01*
X107379500Y-76069361D01*
X107394955Y-76186760D01*
X107394956Y-76186762D01*
X107436120Y-76286142D01*
X107455464Y-76332841D01*
X107551718Y-76458282D01*
X107551719Y-76458283D01*
X107576769Y-76477504D01*
X107588964Y-76488199D01*
X107733221Y-76632456D01*
X107766706Y-76693779D01*
X107769540Y-76720137D01*
X107769540Y-76724997D01*
X107769540Y-76725000D01*
X107789326Y-76913256D01*
X107789327Y-76913259D01*
X107847818Y-77093277D01*
X107847821Y-77093284D01*
X107942467Y-77257216D01*
X108069129Y-77397888D01*
X108222265Y-77509148D01*
X108222270Y-77509151D01*
X108395192Y-77586142D01*
X108395197Y-77586144D01*
X108445292Y-77596792D01*
X108506774Y-77629984D01*
X108540550Y-77691147D01*
X108535898Y-77760862D01*
X108494294Y-77816994D01*
X108428946Y-77841723D01*
X108419511Y-77842082D01*
X105023488Y-77842082D01*
X104956449Y-77822397D01*
X104910694Y-77769593D01*
X104899488Y-77718082D01*
X104899488Y-74626109D01*
X104919173Y-74559070D01*
X104935807Y-74538428D01*
X105812416Y-73661819D01*
X105873739Y-73628334D01*
X105900097Y-73625500D01*
X105994644Y-73625500D01*
X105994646Y-73625500D01*
X106179803Y-73586144D01*
X106352730Y-73509151D01*
X106505871Y-73397888D01*
X106632533Y-73257216D01*
X106727179Y-73093284D01*
X106785674Y-72913256D01*
X106805460Y-72725000D01*
X106785674Y-72536744D01*
X106727179Y-72356716D01*
X106701072Y-72311498D01*
X106684600Y-72243600D01*
X106707452Y-72177573D01*
X106762374Y-72134383D01*
X106808460Y-72125500D01*
X117135663Y-72125500D01*
X117202702Y-72145185D01*
X117208548Y-72149182D01*
X117222265Y-72159148D01*
X117222270Y-72159151D01*
X117395192Y-72236142D01*
X117395197Y-72236144D01*
X117580354Y-72275500D01*
X117580355Y-72275500D01*
X117769644Y-72275500D01*
X117769646Y-72275500D01*
X117954803Y-72236144D01*
X118127730Y-72159151D01*
X118280871Y-72047888D01*
X118407533Y-71907216D01*
X118502179Y-71743284D01*
X118560674Y-71563256D01*
X118580460Y-71375000D01*
X118560674Y-71186744D01*
X118502179Y-71006716D01*
X118407533Y-70842784D01*
X118280871Y-70702112D01*
X118277638Y-70699763D01*
X118127734Y-70590851D01*
X118127729Y-70590848D01*
X117954807Y-70513857D01*
X117954802Y-70513855D01*
X117809001Y-70482865D01*
X117769646Y-70474500D01*
X117580354Y-70474500D01*
X117547897Y-70481398D01*
X117395197Y-70513855D01*
X117395192Y-70513857D01*
X117222270Y-70590848D01*
X117222265Y-70590851D01*
X117208548Y-70600818D01*
X117142742Y-70624298D01*
X117135663Y-70624500D01*
X105538705Y-70624500D01*
X105520735Y-70623191D01*
X105496972Y-70619710D01*
X105450642Y-70623764D01*
X105447632Y-70624028D01*
X105436826Y-70624500D01*
X105431282Y-70624500D01*
X105400488Y-70628099D01*
X105396905Y-70628465D01*
X105322200Y-70635001D01*
X105315134Y-70636461D01*
X105315122Y-70636404D01*
X105307753Y-70638038D01*
X105307767Y-70638095D01*
X105300743Y-70639759D01*
X105230245Y-70665417D01*
X105226845Y-70666598D01*
X105155665Y-70690186D01*
X105155663Y-70690186D01*
X105155660Y-70690188D01*
X105149123Y-70693236D01*
X105149098Y-70693184D01*
X105142310Y-70696470D01*
X105142336Y-70696521D01*
X105135884Y-70699761D01*
X105073236Y-70740965D01*
X105070196Y-70742902D01*
X105006347Y-70782285D01*
X105000682Y-70786765D01*
X105000646Y-70786719D01*
X104994798Y-70791484D01*
X104994835Y-70791528D01*
X104989310Y-70796164D01*
X104989304Y-70796169D01*
X104989304Y-70796170D01*
X104972705Y-70813764D01*
X104937848Y-70850709D01*
X104935336Y-70853294D01*
X104047228Y-71741402D01*
X103985905Y-71774887D01*
X103985329Y-71775011D01*
X103920196Y-71788856D01*
X103920192Y-71788857D01*
X103747270Y-71865848D01*
X103747265Y-71865851D01*
X103594129Y-71977111D01*
X103467466Y-72117785D01*
X103372821Y-72281715D01*
X103372818Y-72281722D01*
X103314327Y-72461740D01*
X103314326Y-72461744D01*
X103294540Y-72650000D01*
X103314326Y-72838256D01*
X103314327Y-72838259D01*
X103372818Y-73018277D01*
X103372821Y-73018284D01*
X103467467Y-73182216D01*
X103567874Y-73293729D01*
X103594129Y-73322888D01*
X103747265Y-73434148D01*
X103747270Y-73434151D01*
X103920191Y-73511142D01*
X103920193Y-73511142D01*
X103920197Y-73511144D01*
X103980858Y-73524037D01*
X104042337Y-73557229D01*
X104076114Y-73618391D01*
X104071462Y-73688106D01*
X104042757Y-73733007D01*
X103968550Y-73807214D01*
X103907953Y-73867811D01*
X103895763Y-73878501D01*
X103870704Y-73897730D01*
X103819122Y-73964956D01*
X103815045Y-73970269D01*
X103783896Y-74010863D01*
X103774451Y-74023172D01*
X103713944Y-74169249D01*
X103713943Y-74169251D01*
X103693306Y-74326010D01*
X103693306Y-74326011D01*
X103697427Y-74357313D01*
X103698488Y-74373499D01*
X103698488Y-76652313D01*
X103678803Y-76719352D01*
X103625999Y-76765107D01*
X103556841Y-76775051D01*
X103501603Y-76752631D01*
X103393437Y-76674044D01*
X103393432Y-76674041D01*
X103220510Y-76597050D01*
X103220505Y-76597048D01*
X103074704Y-76566058D01*
X103035349Y-76557693D01*
X102846057Y-76557693D01*
X102813600Y-76564591D01*
X102660900Y-76597048D01*
X102660895Y-76597050D01*
X102487973Y-76674041D01*
X102487968Y-76674044D01*
X102334832Y-76785304D01*
X102208169Y-76925978D01*
X102113524Y-77089908D01*
X102113521Y-77089915D01*
X102059163Y-77257214D01*
X102055029Y-77269937D01*
X102038483Y-77427368D01*
X102034564Y-77464656D01*
X102032993Y-77464490D01*
X102015558Y-77523868D01*
X101993681Y-77547649D01*
X101994182Y-77548150D01*
X101988440Y-77553891D01*
X101932295Y-77627063D01*
X101932293Y-77627065D01*
X101892186Y-77679331D01*
X101892183Y-77679337D01*
X101831679Y-77825408D01*
X101831677Y-77825413D01*
X101811040Y-77982172D01*
X101811040Y-77982174D01*
X101815161Y-78013475D01*
X101816222Y-78029661D01*
X101816222Y-78699234D01*
X101815160Y-78715419D01*
X101811040Y-78746722D01*
X101819510Y-78811060D01*
X101831678Y-78903484D01*
X101892186Y-79049563D01*
X101988440Y-79175004D01*
X101988441Y-79175005D01*
X102013491Y-79194226D01*
X102025686Y-79204921D01*
X102361799Y-79541034D01*
X102372493Y-79553228D01*
X102391715Y-79578279D01*
X102391716Y-79578280D01*
X102391718Y-79578282D01*
X102478724Y-79645044D01*
X102517159Y-79674536D01*
X102663238Y-79735044D01*
X102741619Y-79745363D01*
X102819999Y-79755682D01*
X102820000Y-79755682D01*
X102851302Y-79751560D01*
X102867487Y-79750500D01*
X110130422Y-79750500D01*
X110197461Y-79770185D01*
X110222573Y-79791529D01*
X110244129Y-79815470D01*
X110244130Y-79815471D01*
X110397265Y-79926730D01*
X110397270Y-79926733D01*
X110570192Y-80003724D01*
X110570197Y-80003726D01*
X110755354Y-80043082D01*
X110755355Y-80043082D01*
X110944644Y-80043082D01*
X110944646Y-80043082D01*
X111129803Y-80003726D01*
X111302730Y-79926733D01*
X111438950Y-79827763D01*
X111504752Y-79804285D01*
X111572806Y-79820110D01*
X111584711Y-79827761D01*
X111600610Y-79839312D01*
X111607271Y-79844152D01*
X111777105Y-79919768D01*
X111830342Y-79965018D01*
X111850663Y-80031867D01*
X111831618Y-80099091D01*
X111814350Y-80120728D01*
X109391646Y-82543433D01*
X109330323Y-82576918D01*
X109303965Y-82579752D01*
X106951258Y-82579752D01*
X106884219Y-82560067D01*
X106859109Y-82538725D01*
X106830871Y-82507364D01*
X106830864Y-82507358D01*
X106677734Y-82396103D01*
X106677729Y-82396100D01*
X106504807Y-82319109D01*
X106504802Y-82319107D01*
X106359001Y-82288117D01*
X106319646Y-82279752D01*
X106130354Y-82279752D01*
X106097897Y-82286650D01*
X105945197Y-82319107D01*
X105945192Y-82319109D01*
X105772270Y-82396100D01*
X105772265Y-82396103D01*
X105619129Y-82507363D01*
X105492466Y-82648037D01*
X105397821Y-82811967D01*
X105397818Y-82811974D01*
X105343962Y-82977728D01*
X105339326Y-82991996D01*
X105319540Y-83180252D01*
X105339326Y-83368508D01*
X105339327Y-83368511D01*
X105397818Y-83548529D01*
X105397821Y-83548536D01*
X105492467Y-83712468D01*
X105595850Y-83827286D01*
X105619129Y-83853140D01*
X105772265Y-83964400D01*
X105772270Y-83964403D01*
X105945192Y-84041394D01*
X105945197Y-84041396D01*
X106130354Y-84080752D01*
X106130355Y-84080752D01*
X106319644Y-84080752D01*
X106319646Y-84080752D01*
X106504803Y-84041396D01*
X106677730Y-83964403D01*
X106830871Y-83853140D01*
X106859109Y-83821779D01*
X106918595Y-83785131D01*
X106951258Y-83780752D01*
X107037988Y-83780752D01*
X107105027Y-83800437D01*
X107150782Y-83853241D01*
X107160726Y-83922399D01*
X107131701Y-83985955D01*
X107110873Y-84005070D01*
X106984154Y-84097136D01*
X106857491Y-84237810D01*
X106814369Y-84312500D01*
X106763802Y-84360715D01*
X106706982Y-84374500D01*
X103805147Y-84374500D01*
X103738108Y-84354815D01*
X103717466Y-84338181D01*
X102489871Y-83110586D01*
X102456386Y-83049263D01*
X102461370Y-82979571D01*
X102470165Y-82960905D01*
X102476462Y-82949998D01*
X102517368Y-82879147D01*
X102575863Y-82699119D01*
X102595649Y-82510863D01*
X102575863Y-82322607D01*
X102517368Y-82142579D01*
X102422722Y-81978647D01*
X102296060Y-81837975D01*
X102295569Y-81837618D01*
X102142923Y-81726714D01*
X102142918Y-81726711D01*
X101969996Y-81649720D01*
X101969991Y-81649718D01*
X101824190Y-81618728D01*
X101784835Y-81610363D01*
X101595543Y-81610363D01*
X101595541Y-81610363D01*
X101488946Y-81633020D01*
X101419279Y-81627704D01*
X101363546Y-81585566D01*
X101339441Y-81519986D01*
X101354618Y-81451785D01*
X101371013Y-81428761D01*
X101457944Y-81332216D01*
X101552590Y-81168284D01*
X101611085Y-80988256D01*
X101630871Y-80800000D01*
X101611085Y-80611744D01*
X101552590Y-80431716D01*
X101457944Y-80267784D01*
X101331282Y-80127112D01*
X101331281Y-80127111D01*
X101178145Y-80015851D01*
X101178140Y-80015848D01*
X101005218Y-79938857D01*
X101005213Y-79938855D01*
X100859412Y-79907865D01*
X100820057Y-79899500D01*
X100630765Y-79899500D01*
X100598308Y-79906398D01*
X100445608Y-79938855D01*
X100445607Y-79938855D01*
X100431262Y-79945243D01*
X100362012Y-79954527D01*
X100298735Y-79924898D01*
X100261523Y-79865763D01*
X100256827Y-79831963D01*
X100256827Y-64238811D01*
X100256875Y-64236401D01*
X100694783Y-64236401D01*
X100714441Y-64711678D01*
X100773278Y-65183710D01*
X100850428Y-65551652D01*
X100870897Y-65649271D01*
X100895681Y-65732518D01*
X101006622Y-66105168D01*
X101006629Y-66105186D01*
X101165086Y-66511277D01*
X101179543Y-66548325D01*
X101292242Y-66778855D01*
X101388462Y-66975676D01*
X101631954Y-67384309D01*
X101631967Y-67384328D01*
X101908355Y-67771434D01*
X101908369Y-67771453D01*
X102215800Y-68134437D01*
X102552162Y-68470799D01*
X102915146Y-68778230D01*
X102915165Y-68778244D01*
X103034232Y-68863256D01*
X103302285Y-69054642D01*
X103710924Y-69298138D01*
X104138275Y-69507057D01*
X104581419Y-69679973D01*
X104581426Y-69679975D01*
X104581431Y-69679977D01*
X104641218Y-69697776D01*
X105037329Y-69815703D01*
X105502889Y-69913321D01*
X105974921Y-69972159D01*
X106413885Y-69990315D01*
X106450198Y-69991817D01*
X106450200Y-69991817D01*
X106450202Y-69991817D01*
X106485177Y-69990370D01*
X106925479Y-69972159D01*
X107397511Y-69913321D01*
X107863071Y-69815703D01*
X108318981Y-69679973D01*
X108762125Y-69507057D01*
X109189476Y-69298138D01*
X109598115Y-69054642D01*
X109985250Y-68778233D01*
X110348238Y-68470798D01*
X110348243Y-68470794D01*
X110684594Y-68134443D01*
X110684599Y-68134437D01*
X110943918Y-67828259D01*
X110992033Y-67771450D01*
X111085886Y-67640000D01*
X113794540Y-67640000D01*
X113814326Y-67828256D01*
X113814327Y-67828259D01*
X113872818Y-68008277D01*
X113872821Y-68008284D01*
X113967467Y-68172216D01*
X114088569Y-68306713D01*
X114094129Y-68312888D01*
X114247265Y-68424148D01*
X114247270Y-68424151D01*
X114420192Y-68501142D01*
X114420197Y-68501144D01*
X114605354Y-68540500D01*
X114605355Y-68540500D01*
X114794644Y-68540500D01*
X114794646Y-68540500D01*
X114979803Y-68501144D01*
X115152730Y-68424151D01*
X115305871Y-68312888D01*
X115325105Y-68291527D01*
X115384592Y-68254879D01*
X115417254Y-68250500D01*
X117630639Y-68250500D01*
X122412746Y-68250500D01*
X122479785Y-68270185D01*
X122504895Y-68291527D01*
X122524128Y-68312887D01*
X122524135Y-68312893D01*
X122677265Y-68424148D01*
X122677270Y-68424151D01*
X122850192Y-68501142D01*
X122850197Y-68501144D01*
X123035354Y-68540500D01*
X123035355Y-68540500D01*
X123224644Y-68540500D01*
X123224646Y-68540500D01*
X123409803Y-68501144D01*
X123582730Y-68424151D01*
X123735871Y-68312888D01*
X123862533Y-68172216D01*
X123957179Y-68008284D01*
X124015674Y-67828256D01*
X124035460Y-67640000D01*
X124015674Y-67451744D01*
X123957179Y-67271716D01*
X123862533Y-67107784D01*
X123735871Y-66967112D01*
X123728762Y-66961947D01*
X123582734Y-66855851D01*
X123582729Y-66855848D01*
X123409807Y-66778857D01*
X123409802Y-66778855D01*
X123264001Y-66747865D01*
X123224646Y-66739500D01*
X123035354Y-66739500D01*
X123002897Y-66746398D01*
X122850197Y-66778855D01*
X122850192Y-66778857D01*
X122677270Y-66855848D01*
X122677265Y-66855851D01*
X122524135Y-66967106D01*
X122524133Y-66967107D01*
X122516418Y-66975676D01*
X122486886Y-67008474D01*
X122427401Y-67045121D01*
X122394738Y-67049500D01*
X115435262Y-67049500D01*
X115368223Y-67029815D01*
X115343115Y-67008476D01*
X115305871Y-66967112D01*
X115305869Y-66967110D01*
X115305866Y-66967107D01*
X115305864Y-66967106D01*
X115152734Y-66855851D01*
X115152729Y-66855848D01*
X114979807Y-66778857D01*
X114979802Y-66778855D01*
X114834001Y-66747865D01*
X114794646Y-66739500D01*
X114605354Y-66739500D01*
X114572897Y-66746398D01*
X114420197Y-66778855D01*
X114420192Y-66778857D01*
X114247270Y-66855848D01*
X114247265Y-66855851D01*
X114094129Y-66967111D01*
X113967466Y-67107785D01*
X113872821Y-67271715D01*
X113872818Y-67271722D01*
X113814327Y-67451740D01*
X113814326Y-67451744D01*
X113794540Y-67640000D01*
X111085886Y-67640000D01*
X111268442Y-67384315D01*
X111511938Y-66975676D01*
X111720857Y-66548325D01*
X111893773Y-66105181D01*
X112029503Y-65649271D01*
X112127121Y-65183711D01*
X112185959Y-64711679D01*
X112205617Y-64236400D01*
X112205616Y-64236386D01*
X112202913Y-64171029D01*
X112185959Y-63761121D01*
X112127121Y-63289089D01*
X112029503Y-62823529D01*
X111906910Y-62411744D01*
X111893777Y-62367631D01*
X111893775Y-62367626D01*
X111893773Y-62367619D01*
X111720857Y-61924475D01*
X111511938Y-61497124D01*
X111272878Y-61095930D01*
X111268445Y-61088490D01*
X111268432Y-61088471D01*
X110992044Y-60701365D01*
X110992030Y-60701346D01*
X110684599Y-60338362D01*
X110348237Y-60002000D01*
X109985253Y-59694569D01*
X109985234Y-59694555D01*
X109598128Y-59418167D01*
X109598109Y-59418154D01*
X109189476Y-59174662D01*
X109183558Y-59171769D01*
X108762125Y-58965743D01*
X108762116Y-58965739D01*
X108762113Y-58965738D01*
X108318986Y-58792829D01*
X108318968Y-58792822D01*
X107889472Y-58664957D01*
X107863071Y-58657097D01*
X107765452Y-58636628D01*
X107397510Y-58559478D01*
X106984316Y-58507974D01*
X106925479Y-58500641D01*
X106767052Y-58494088D01*
X106450202Y-58480983D01*
X106450198Y-58480983D01*
X105974921Y-58500641D01*
X105502889Y-58559478D01*
X105037329Y-58657097D01*
X104581431Y-58792822D01*
X104581413Y-58792829D01*
X104138286Y-58965738D01*
X104138277Y-58965742D01*
X104138275Y-58965743D01*
X104072424Y-58997935D01*
X103710923Y-59174662D01*
X103302290Y-59418154D01*
X103302271Y-59418167D01*
X102915165Y-59694555D01*
X102915146Y-59694569D01*
X102552162Y-60002000D01*
X102552157Y-60002006D01*
X102215806Y-60338357D01*
X102215800Y-60338362D01*
X101908369Y-60701346D01*
X101908355Y-60701365D01*
X101631967Y-61088471D01*
X101631954Y-61088490D01*
X101388462Y-61497123D01*
X101236767Y-61807421D01*
X101183234Y-61916926D01*
X101179547Y-61924467D01*
X101179538Y-61924486D01*
X101006629Y-62367613D01*
X101006622Y-62367631D01*
X100870897Y-62823529D01*
X100773278Y-63289089D01*
X100714441Y-63761121D01*
X100694783Y-64236398D01*
X100694783Y-64236401D01*
X100256875Y-64236401D01*
X100256923Y-64233943D01*
X100263054Y-64077912D01*
X100275286Y-63766598D01*
X100276047Y-63756932D01*
X100330735Y-63294876D01*
X100332258Y-63285264D01*
X100350312Y-63194500D01*
X100423031Y-62828923D01*
X100425294Y-62819498D01*
X100551595Y-62371670D01*
X100554588Y-62362457D01*
X100715639Y-61925912D01*
X100719362Y-61916926D01*
X100765959Y-61815851D01*
X100914158Y-61494383D01*
X100918565Y-61485736D01*
X101145913Y-61079779D01*
X101150975Y-61071518D01*
X101409479Y-60684642D01*
X101415200Y-60676769D01*
X101480127Y-60594410D01*
X101703246Y-60311386D01*
X101709565Y-60303989D01*
X101714582Y-60298562D01*
X102025388Y-59962334D01*
X102032260Y-59955462D01*
X102373933Y-59639625D01*
X102381316Y-59633320D01*
X102746713Y-59345266D01*
X102754559Y-59339566D01*
X103141435Y-59081065D01*
X103149695Y-59076002D01*
X103555686Y-58848638D01*
X103564330Y-58844235D01*
X103986879Y-58649439D01*
X103995838Y-58645728D01*
X104432374Y-58484683D01*
X104441600Y-58481685D01*
X104889442Y-58355383D01*
X104898868Y-58353120D01*
X105355207Y-58262350D01*
X105364787Y-58260832D01*
X105826871Y-58206144D01*
X105836557Y-58205382D01*
X106035049Y-58197584D01*
X106304913Y-58186983D01*
X106309781Y-58186887D01*
X106353920Y-58186887D01*
X138869606Y-58186887D01*
X138936645Y-58206572D01*
G37*
%TD.AperFunction*%
%TD*%
M02*
